<svg width="32" height="32" viewBox="0 0 32 32" fill="none" xmlns="http://www.w3.org/2000/svg">
<path fill-rule="evenodd" clip-rule="evenodd" d="M9.59994 2.19989C10.1522 2.19989 10.5999 2.64761 10.5999 3.19989V4.40009H21.4001V3.19989C21.4001 2.64761 21.8478 2.19989 22.4001 2.19989C22.9523 2.19989 23.4001 2.64761 23.4001 3.19989V4.40009H27.0458C28.53 4.40009 29.7333 5.60332 29.7333 7.08759V27.0459C29.7333 28.5302 28.53 29.7334 27.0458 29.7334H4.9541C3.46984 29.7334 2.2666 28.5302 2.2666 27.0459V7.08759C2.2666 5.60333 3.46983 4.40009 4.9541 4.40009H8.59994V3.19989C8.59994 2.64761 9.04765 2.19989 9.59994 2.19989ZM21.4001 6.40009V7.46656C21.4001 8.01884 21.8478 8.46656 22.4001 8.46656C22.9523 8.46656 23.4001 8.01884 23.4001 7.46656V6.40009H27.0458C27.4255 6.40009 27.7333 6.70789 27.7333 7.08759V10.8001H4.2666V7.08759C4.2666 6.70789 4.57441 6.40009 4.9541 6.40009H8.59994V7.46656C8.59994 8.01884 9.04765 8.46656 9.59994 8.46656C10.1522 8.46656 10.5999 8.01884 10.5999 7.46656V6.40009H21.4001ZM4.2666 12.8001V27.0459C4.2666 27.4256 4.57441 27.7334 4.9541 27.7334H27.0458C27.4255 27.7334 27.7333 27.4256 27.7333 27.0459V12.8001H4.2666ZM14.9333 15.6208C14.9333 15.2411 15.2411 14.9333 15.6208 14.9333H16.3791C16.7588 14.9333 17.0666 15.2411 17.0666 15.6208V16.3791C17.0666 16.7588 16.7588 17.0666 16.3791 17.0666H15.6208C15.2411 17.0666 14.9333 16.7588 14.9333 16.3791V15.6208ZM19.8875 14.9333C19.5078 14.9333 19.2 15.2411 19.2 15.6208V16.3791C19.2 16.7588 19.5078 17.0666 19.8875 17.0666H20.6459C21.0256 17.0666 21.3334 16.7588 21.3334 16.3791V15.6208C21.3334 15.2411 21.0256 14.9333 20.6459 14.9333H19.8875ZM23.4666 15.6208C23.4666 15.2411 23.7744 14.9333 24.1541 14.9333H24.9125C25.2922 14.9333 25.6 15.2411 25.6 15.6208V16.3791C25.6 16.7588 25.2922 17.0666 24.9125 17.0666H24.1541C23.7744 17.0666 23.4666 16.7588 23.4666 16.3791V15.6208ZM24.1541 19.1999C23.7744 19.1999 23.4666 19.5077 23.4666 19.8874V20.6457C23.4666 21.0254 23.7744 21.3332 24.1541 21.3332H24.9125C25.2922 21.3332 25.6 21.0254 25.6 20.6457V19.8874C25.6 19.5077 25.2922 19.1999 24.9125 19.1999H24.1541ZM19.2 19.8874C19.2 19.5077 19.5078 19.1999 19.8875 19.1999H20.6459C21.0256 19.1999 21.3334 19.5077 21.3334 19.8874V20.6457C21.3334 21.0254 21.0256 21.3332 20.6459 21.3332H19.8875C19.5078 21.3332 19.2 21.0254 19.2 20.6457V19.8874ZM15.6208 19.1999C15.2411 19.1999 14.9333 19.5077 14.9333 19.8874V20.6457C14.9333 21.0254 15.2411 21.3332 15.6208 21.3332H16.3791C16.7588 21.3332 17.0666 21.0254 17.0666 20.6457V19.8874C17.0666 19.5077 16.7588 19.1999 16.3791 19.1999H15.6208ZM10.6667 19.8874C10.6667 19.5077 10.9745 19.1999 11.3542 19.1999H12.1125C12.4922 19.1999 12.8 19.5077 12.8 19.8874V20.6457C12.8 21.0254 12.4922 21.3332 12.1125 21.3332H11.3542C10.9745 21.3332 10.6667 21.0254 10.6667 20.6457V19.8874ZM7.08756 19.1999C6.70787 19.1999 6.40006 19.5077 6.40006 19.8874V20.6457C6.40006 21.0254 6.70787 21.3332 7.08757 21.3332H7.8459C8.22559 21.3332 8.5334 21.0254 8.5334 20.6457V19.8874C8.5334 19.5077 8.22559 19.1999 7.8459 19.1999H7.08756ZM6.40006 24.1543C6.40006 23.7746 6.70787 23.4668 7.08756 23.4668H7.8459C8.22559 23.4668 8.5334 23.7746 8.5334 24.1543V24.9127C8.5334 25.2923 8.22559 25.6002 7.8459 25.6002H7.08757C6.70787 25.6002 6.40006 25.2923 6.40006 24.9127V24.1543ZM11.3542 23.4668C10.9745 23.4668 10.6667 23.7746 10.6667 24.1543V24.9127C10.6667 25.2923 10.9745 25.6002 11.3542 25.6002H12.1125C12.4922 25.6002 12.8 25.2923 12.8 24.9127V24.1543C12.8 23.7746 12.4922 23.4668 12.1125 23.4668H11.3542ZM14.9333 24.1543C14.9333 23.7746 15.2411 23.4668 15.6208 23.4668H16.3791C16.7588 23.4668 17.0666 23.7746 17.0666 24.1543V24.9127C17.0666 25.2923 16.7588 25.6002 16.3791 25.6002H15.6208C15.2411 25.6002 14.9333 25.2923 14.9333 24.9127V24.1543ZM19.8875 23.4668C19.5078 23.4668 19.2 23.7746 19.2 24.1543V24.9127C19.2 25.2923 19.5078 25.6002 19.8875 25.6002H20.6459C21.0256 25.6002 21.3334 25.2923 21.3334 24.9127V24.1543C21.3334 23.7746 21.0256 23.4668 20.6459 23.4668H19.8875Z" fill="#3F654E"/>
</svg>
