<svg width="32" height="32" viewBox="0 0 32 32" fill="none" xmlns="http://www.w3.org/2000/svg">
<path d="M23.2727 27.1515V24.5656C23.2727 23.194 22.7619 21.8786 21.8526 20.9087C20.9434 19.9388 19.7101 19.3939 18.4242 19.3939H8.72727C7.44137 19.3939 6.20814 19.9388 5.29887 20.9087C4.38961 21.8786 3.87878 23.194 3.87878 24.5656V27.1515" stroke="#3F654E" stroke-width="2" stroke-linecap="round" stroke-linejoin="round"/>
<path d="M13.5758 14.5455C16.2535 14.5455 18.4243 12.3747 18.4243 9.697C18.4243 7.01925 16.2535 4.84851 13.5758 4.84851C10.898 4.84851 8.72729 7.01925 8.72729 9.697C8.72729 12.3747 10.898 14.5455 13.5758 14.5455Z" stroke="#3F654E" stroke-width="2" stroke-linecap="round" stroke-linejoin="round"/>
<path d="M29.0909 27.1515V24.5084C29.0901 23.3371 28.7087 22.1993 28.0067 21.2736C27.3046 20.3479 26.3217 19.6867 25.2122 19.3939" stroke="#3F654E" stroke-width="2" stroke-linecap="round" stroke-linejoin="round"/>
<path d="M20.3636 4.84851C21.4732 5.12416 22.4566 5.75027 23.1589 6.62814C23.8612 7.50601 24.2424 8.5857 24.2424 9.697C24.2424 10.8083 23.8612 11.888 23.1589 12.7659C22.4566 13.6437 21.4732 14.2698 20.3636 14.5455" stroke="#3F654E" stroke-width="2" stroke-linecap="round" stroke-linejoin="round"/>
</svg>
