<svg width="312" height="373" viewBox="0 0 312 373" fill="none" xmlns="http://www.w3.org/2000/svg">
<path d="M9.09864 25.2001C10.0014 23.5121 11.7985 22.5 13.7391 22.5H182.262C184.146 22.5 185.898 23.4493 186.797 25.0662C196.924 43.2788 196.924 67.8691 186.76 87.7346C185.877 89.4606 184.059 90.5 182.091 90.5H13.1246C11.4949 90.5 9.95447 89.7968 9.02582 88.5083C-2.33991 72.7379 -2.36821 46.6413 9.09864 25.2001Z" stroke="#B8B8B8"/>
<path d="M64.9262 33.2532C65.7002 31.5197 67.5024 30.5 69.4629 30.5H129.436C131.689 30.5 133.71 31.8581 134.382 33.9637C138.518 46.9227 138.81 63.5866 134.317 78.8381C133.668 81.0421 131.591 82.5 129.261 82.5H69.2063C67.371 82.5 65.6754 81.6148 64.9049 80.0355C62.1174 74.3221 60.6254 65.9655 60.5867 57.3386C60.5481 48.7151 61.962 39.8925 64.9262 33.2532Z" stroke="#B8B8B8"/>
<path d="M45.8432 57.2757C55.2403 25.487 85.6632 3.54027 119.714 6.32378C158.791 9.51824 187.864 44.076 184.64 83.5193L162.262 357.268C161.601 365.358 154.567 371.377 146.561 370.723L34.0417 361.525C26.0354 360.87 20.0729 353.788 20.7342 345.698L36.2055 156.439C38.1179 133.045 58.6329 115.63 82.0269 117.543L110.432 119.865C129.457 121.42 146.554 109.896 153.028 92.7575C154.403 89.1168 155.298 85.223 155.632 81.148C157.533 57.8845 140.385 37.4902 117.32 35.6047C99.4418 34.1432 83.2654 44.2325 76.0088 59.6761C72.5154 67.1108 65.6435 73.2901 57.6572 72.6373C49.6107 71.9795 43.5971 64.8739 45.8432 57.2757Z" fill="white" stroke="#B8B8B8"/>
<path d="M88.375 223.994L114.289 226.112" stroke="#3F654E" stroke-opacity="0.4"/>
<path d="M57.8224 305.791C58.7859 305.869 59.6466 306.182 60.4046 306.729C61.1805 307.261 61.783 307.971 62.2121 308.858C62.6412 309.746 62.8095 310.755 62.7172 311.885C62.6357 312.881 62.3893 313.747 61.978 314.483C61.5847 315.203 61.0846 315.798 60.4777 316.267C59.8722 316.719 59.218 317.05 58.5153 317.26C57.8304 317.455 57.1641 317.526 56.5163 317.473C55.5694 317.396 54.708 317.091 53.9321 316.559C53.1575 316.011 52.5557 315.293 52.1266 314.405C51.7142 313.519 51.5541 312.511 51.6464 311.381C51.7279 310.384 51.9653 309.526 52.3586 308.805C52.7699 308.07 53.2783 307.476 53.8839 307.024C54.4907 306.555 55.1366 306.223 55.8214 306.028C56.5076 305.817 57.1746 305.738 57.8224 305.791ZM57.0213 316.511C58.0014 316.591 58.8023 316.305 59.4242 315.654C60.0473 314.986 60.4193 313.913 60.5402 312.434C60.623 311.421 60.5399 310.494 60.2908 309.655C60.0584 308.816 59.6871 308.142 59.1769 307.632C58.6681 307.106 58.0483 306.812 57.3174 306.753C56.3539 306.674 55.5606 306.969 54.9374 307.637C54.3156 308.288 53.9443 309.353 53.8234 310.832C53.742 311.828 53.8175 312.746 54.0499 313.584C54.299 314.424 54.6779 315.107 55.1867 315.634C55.6955 316.16 56.307 316.453 57.0213 316.511ZM81.4242 316.599C81.3766 317.181 81.3918 317.609 81.4698 317.882C81.5643 318.158 81.7577 318.349 82.0499 318.457C82.3588 318.565 82.8032 318.652 83.3832 318.716L83.3364 319.289L64.6736 317.764L64.7205 317.191C65.1039 317.205 65.407 317.18 65.6297 317.114C65.8524 317.049 66.0162 316.887 66.121 316.628C66.2424 316.37 66.3268 315.951 66.3744 315.369L66.8591 309.439C66.9067 308.858 66.8831 308.429 66.7886 308.154C66.7107 307.88 66.5173 307.689 66.2084 307.58C65.9162 307.472 65.4801 307.386 64.9001 307.322L64.9469 306.749L70.5532 307.208L70.5064 307.781C70.1396 307.767 69.8365 307.793 69.5971 307.857C69.3744 307.922 69.2023 308.084 69.0809 308.341C68.9762 308.6 68.9 309.021 68.8525 309.602L68.3677 315.532C68.3297 315.997 68.351 316.35 68.4317 316.591C68.5289 316.833 68.7237 317.008 69.0159 317.115C69.3261 317.207 69.7719 317.277 70.3532 317.325L71.2752 317.4C71.84 317.446 72.2378 317.387 72.4687 317.222C72.6996 317.057 72.8442 316.617 72.9026 315.903L73.3874 309.973C73.4349 309.391 73.4363 308.965 73.3916 308.694C73.3635 308.424 73.2448 308.239 73.0357 308.138C72.8431 308.039 72.515 307.962 72.0512 307.907L72.0981 307.334L77.0814 307.741L77.0346 308.314C76.6678 308.301 76.3647 308.326 76.1254 308.39C75.9026 308.456 75.7306 308.617 75.6092 308.875C75.5044 309.134 75.4282 309.554 75.3807 310.136L74.8959 316.066C74.8579 316.531 74.8792 316.884 74.9599 317.125C75.0572 317.367 75.2519 317.541 75.5441 317.649C75.8543 317.741 76.3001 317.811 76.8815 317.859L77.8034 317.934C78.3682 317.98 78.766 317.921 78.9969 317.756C79.2278 317.59 79.3724 317.151 79.4308 316.437L79.9156 310.506C79.9631 309.925 79.9645 309.499 79.9198 309.227C79.8917 308.958 79.7731 308.772 79.5639 308.672C79.3714 308.572 79.0432 308.495 78.5794 308.441L78.6263 307.867L83.6097 308.275L83.5628 308.848C83.196 308.835 82.8929 308.86 82.6536 308.924C82.4309 308.99 82.2588 309.151 82.1374 309.409C82.0326 309.668 81.9565 310.088 81.9089 310.669L81.4242 316.599ZM96.7138 311.88L96.2291 317.81C96.1815 318.391 96.1968 318.819 96.2747 319.093C96.3692 319.368 96.5626 319.559 96.8548 319.667C97.1637 319.776 97.6081 319.862 98.1881 319.926L98.1413 320.499L92.535 320.041L92.5818 319.468C92.9652 319.483 93.2683 319.457 93.4911 319.392C93.7138 319.326 93.8776 319.164 93.9823 318.905C94.1037 318.648 94.1882 318.228 94.2357 317.647L94.7246 311.667L88.2493 319.691L85.2593 319.446L85.3061 318.873C85.6895 318.888 85.9926 318.863 86.2153 318.797C86.4381 318.732 86.6018 318.57 86.7066 318.311C86.828 318.053 86.9125 317.633 86.96 317.052L87.4448 311.122C87.4923 310.54 87.4688 310.112 87.3742 309.837C87.2963 309.563 87.1029 309.371 86.7941 309.263C86.5019 309.155 86.0657 309.069 85.4857 309.005L85.5326 308.432L91.1389 308.89L91.092 309.463C90.7252 309.45 90.4221 309.476 90.1828 309.54C89.96 309.605 89.788 309.767 89.6666 310.024C89.5618 310.283 89.4856 310.703 89.4381 311.285L88.9493 317.265L95.4246 309.241L98.4146 309.485L98.3677 310.058C98.0009 310.045 97.6979 310.07 97.4585 310.134C97.2358 310.2 97.0637 310.361 96.9423 310.619C96.8375 310.878 96.7614 311.298 96.7138 311.88ZM106.786 309.793C107.849 309.88 108.769 310.181 109.547 310.696C110.342 311.196 110.937 311.888 111.333 312.774C111.731 313.642 111.88 314.683 111.78 315.895C111.699 316.892 111.453 317.758 111.041 318.494C110.631 319.213 110.123 319.807 109.516 320.275C108.911 320.728 108.281 321.061 107.628 321.275C106.977 321.473 106.36 321.548 105.779 321.5C104.716 321.413 103.79 321.078 103.002 320.495C102.214 319.896 101.621 319.078 101.22 318.042C100.822 316.99 100.682 315.732 100.801 314.27C100.801 314.27 100.802 314.262 100.803 314.246C100.957 312.368 101.288 310.773 101.797 309.461C102.322 308.149 102.952 307.088 103.687 306.279C104.439 305.471 105.232 304.875 106.066 304.492C106.918 304.093 107.755 303.877 108.577 303.844C109.248 303.816 109.795 303.777 110.217 303.728C110.655 303.68 111.016 303.559 111.3 303.365C111.585 303.154 111.83 302.806 112.037 302.321L112.61 302.368C112.498 302.927 112.37 303.469 112.227 303.992C112.085 304.499 111.843 305.006 111.5 305.513C111.139 305.634 110.798 305.715 110.477 305.756C110.156 305.796 109.804 305.809 109.421 305.795C109.037 305.78 108.545 305.765 107.944 305.749C106.394 305.689 105.225 306.087 104.436 306.942C103.647 307.797 103.156 309.095 102.963 310.835C103.496 310.461 104.087 310.183 104.737 310.002C105.405 309.806 106.088 309.736 106.786 309.793ZM105.96 320.512C106.94 320.592 107.758 320.307 108.413 319.659C109.086 318.994 109.483 317.923 109.603 316.445C109.738 314.8 109.521 313.47 108.952 312.453C108.384 311.42 107.552 310.859 106.455 310.77C105.641 310.703 104.949 310.889 104.378 311.327C103.809 311.749 103.303 312.51 102.862 313.611C102.688 315.737 102.887 317.401 103.457 318.601C104.046 319.787 104.88 320.423 105.96 320.512ZM113.729 321.774L113.776 321.201C114.159 321.215 114.462 321.19 114.685 321.124C114.908 321.059 115.071 320.897 115.176 320.638C115.297 320.38 115.382 319.961 115.429 319.379L115.914 313.449C115.962 312.868 115.938 312.439 115.844 312.164C115.766 311.89 115.572 311.699 115.264 311.59C114.971 311.482 114.535 311.397 113.955 311.332L114.002 310.759L119.608 311.218L119.561 311.791C119.195 311.777 118.892 311.803 118.652 311.867C118.43 311.932 118.257 312.094 118.136 312.351C118.031 312.61 117.955 313.031 117.908 313.612L117.712 316.004L117.762 316.008L121.014 313.665C121.423 313.364 121.684 313.135 121.797 312.977C121.911 312.819 121.973 312.673 121.983 312.541C122.009 312.225 121.75 312.02 121.206 311.925L121.253 311.352L125.713 311.717L125.666 312.29C125.298 312.293 124.914 312.387 124.514 312.572C124.116 312.74 123.642 313.019 123.091 313.409L120.536 315.207C120.324 315.356 120.22 315.498 120.226 315.633C120.231 315.767 120.287 315.905 120.392 316.048L123.276 320.046C123.698 320.615 124.022 321.052 124.248 321.354C124.474 321.657 124.691 321.867 124.899 321.984C125.124 322.087 125.42 322.152 125.786 322.182L125.739 322.755C125.315 322.821 124.829 322.832 124.281 322.787C123.7 322.739 123.234 322.609 122.883 322.397C122.533 322.184 122.236 321.926 121.994 321.622C121.769 321.302 121.528 320.973 121.272 320.634L118.95 317.435C118.801 317.205 118.663 317.052 118.536 316.974C118.425 316.898 118.303 316.855 118.17 316.844C118.037 316.833 117.909 316.865 117.786 316.938C117.68 317.013 117.617 317.167 117.598 317.399L117.423 319.542C117.375 320.124 117.391 320.551 117.468 320.825C117.563 321.101 117.74 321.291 117.999 321.395C118.258 321.5 118.636 321.581 119.133 321.639L119.086 322.212L113.729 321.774ZM129.431 323.434C128.65 323.37 128.027 323.118 127.561 322.679C127.114 322.224 126.921 321.615 126.983 320.851C127.034 320.236 127.271 319.687 127.695 319.203C128.119 318.719 128.789 318.297 129.705 317.938C130.62 317.578 131.849 317.277 133.391 317.035L133.523 315.415C133.579 314.734 133.475 314.157 133.213 313.684C132.967 313.213 132.437 312.944 131.623 312.877C130.843 312.813 130.199 313.011 129.694 313.472C129.206 313.917 128.828 314.647 128.561 315.662L127.988 315.615L128.243 312.5C128.847 312.266 129.48 312.092 130.142 311.978C130.821 311.85 131.559 311.818 132.357 311.884C133.27 311.958 133.958 312.14 134.419 312.428C134.899 312.702 135.22 313.062 135.384 313.511C135.548 313.959 135.607 314.474 135.559 315.055L135.066 321.085C134.994 321.965 135.232 322.428 135.78 322.473C135.98 322.489 136.209 322.441 136.47 322.328C136.746 322.217 137.076 321.968 137.459 321.581L137.825 322.013C136.953 323.263 135.986 323.844 134.923 323.757C133.827 323.667 133.199 323.056 133.041 321.923L132.991 321.919C131.98 323.04 130.793 323.545 129.431 323.434ZM130.473 322.039C131.27 322.104 132.131 321.806 133.054 321.146L133.327 317.807C132.107 318.009 131.199 318.269 130.605 318.588C130.011 318.891 129.608 319.217 129.396 319.568C129.201 319.903 129.092 320.22 129.067 320.519C129.028 321.001 129.148 321.37 129.428 321.627C129.71 321.868 130.058 322.005 130.473 322.039Z" fill="#B8B8B8"/>
<path d="M54.766 269.864L67.9699 270.944L69.4195 253.211L69.2282 253.195L54.766 269.864ZM71.2743 290.221L65.9655 290.75C66.1966 288.971 66.4624 286.767 66.763 284.137C67.0636 281.508 67.3425 278.619 67.5997 275.473L48.9101 273.945L49.03 272.478C49.5855 271.967 50.0772 271.45 50.5051 270.929C50.9755 270.411 51.446 269.893 51.9164 269.374L70.1881 248.522C70.7046 247.965 71.1555 247.424 71.5409 246.899C71.9723 246.335 72.3347 245.829 72.628 245.382L74.8606 245.565L72.6902 271.33L77.1553 271.695L76.7851 276.223L74.106 276.004C73.4256 275.949 72.9387 276.144 72.6453 276.591C72.3519 277.038 72.174 277.644 72.1114 278.41C71.9515 280.366 71.7898 282.343 71.6265 284.342C71.5056 286.344 71.3882 288.304 71.2743 290.221ZM99.7061 248.88C102.343 249.096 104.539 249.981 106.295 251.538C108.094 253.097 109.41 255.067 110.243 257.447C111.079 259.784 111.386 262.314 111.164 265.035C110.938 267.799 110.201 270.265 108.954 272.432C107.749 274.602 106.136 276.268 104.115 277.43C102.136 278.595 99.8281 279.07 97.1915 278.855C94.5975 278.643 92.3976 277.799 90.5917 276.325C88.7859 274.85 87.4418 272.964 86.5594 270.665C85.7231 268.328 85.4179 265.777 85.6438 263.013C85.8663 260.292 86.5817 257.824 87.79 255.612C88.9983 253.399 90.6166 251.669 92.645 250.422C94.7158 249.178 97.0695 248.664 99.7061 248.88ZM97.6881 273.566C99.4742 273.712 101.162 273.486 102.752 272.888C104.342 272.29 105.664 271.307 106.718 269.937C107.771 268.568 108.384 266.841 108.554 264.758C108.721 262.716 108.395 260.935 107.578 259.412C106.807 257.851 105.687 256.625 104.219 255.734C102.75 254.844 101.081 254.322 99.2095 254.169C97.3809 254.02 95.6699 254.265 94.0764 254.905C92.483 255.546 91.1576 256.572 90.1004 257.984C89.0892 259.356 88.5002 261.064 88.3333 263.105C88.163 265.188 88.4865 266.991 89.3038 268.514C90.1212 270.036 91.2658 271.221 92.7376 272.069C94.2519 272.921 95.9021 273.42 97.6881 273.566ZM121.354 275.308L134.558 276.387L136.007 258.654L135.816 258.638L121.354 275.308ZM137.862 295.664L132.553 296.194C132.784 294.414 133.05 292.21 133.351 289.581C133.651 286.951 133.93 284.063 134.188 280.916L115.498 279.388L115.618 277.921C116.173 277.41 116.665 276.894 117.093 276.372C117.563 275.854 118.034 275.336 118.504 274.818L136.776 253.965C137.292 253.408 137.743 252.867 138.129 252.342C138.56 251.778 138.923 251.272 139.216 250.826L141.448 251.008L139.278 276.773L143.743 277.138L143.373 281.667L140.694 281.448C140.013 281.392 139.527 281.588 139.233 282.035C138.94 282.482 138.762 283.088 138.699 283.853C138.539 285.809 138.378 287.787 138.214 289.785C138.093 291.788 137.976 293.747 137.862 295.664Z" fill="#3F654E" fill-opacity="0.6"/>
<g opacity="0.6">
<path d="M101.864 158.092C101.454 158.164 100.952 158.198 100.563 158.022C100.228 157.872 100.045 157.602 99.983 157.245L99.9679 157.15L100.44 157.068L100.455 157.163C100.565 157.799 101.332 157.736 101.813 157.655C102.084 157.609 102.428 157.525 102.652 157.358C102.805 157.243 102.892 157.097 102.858 156.903L102.85 156.857C102.823 156.706 102.751 156.593 102.607 156.534C102.417 156.454 102.102 156.46 101.898 156.471L101.145 156.51C100.595 156.538 99.9338 156.452 99.8223 155.806L99.8129 155.753C99.7592 155.434 99.863 155.169 100.102 154.953C100.395 154.69 100.825 154.565 101.204 154.501C101.6 154.433 102.074 154.403 102.448 154.575C102.773 154.722 102.948 154.99 103.008 155.337L103.026 155.432L102.554 155.514L102.536 155.419C102.433 154.816 101.743 154.857 101.278 154.938C101.019 154.983 100.702 155.062 100.488 155.222C100.34 155.333 100.255 155.477 100.286 155.664L100.293 155.71C100.316 155.847 100.39 155.944 100.518 155.996C100.697 156.07 100.973 156.069 101.163 156.06L101.919 156.026C102.228 156.012 102.626 156.024 102.909 156.166C103.147 156.288 103.276 156.497 103.321 156.759L103.33 156.812C103.388 157.14 103.279 157.412 103.028 157.631C102.719 157.898 102.257 158.026 101.864 158.092ZM109.591 158.156C109.238 158.093 108.892 157.973 108.599 157.76C108.339 157.57 108.142 157.328 108.027 157.027C107.907 156.714 107.893 156.384 107.952 156.056L107.965 155.977C108.024 155.649 108.147 155.34 108.369 155.084C108.58 154.839 108.847 154.678 109.157 154.59C109.505 154.49 109.87 154.495 110.225 154.556C110.578 154.619 110.922 154.741 111.212 154.954C111.473 155.144 111.667 155.388 111.784 155.689C111.904 156.003 111.918 156.332 111.86 156.66L111.847 156.737C111.788 157.065 111.662 157.372 111.443 157.623C111.232 157.866 110.965 158.029 110.655 158.118C110.306 158.221 109.942 158.219 109.591 158.156ZM116.118 160.04L118.398 161.367L118.175 161.748L115.484 160.18L117.264 157.123L117.678 157.364L116.118 160.04ZM122.098 165.818C121.88 165.531 121.71 165.209 121.639 164.855C121.576 164.539 121.599 164.224 121.717 163.926C121.841 163.614 122.055 163.363 122.32 163.163L122.383 163.116C122.648 162.914 122.949 162.772 123.285 162.736C123.608 162.7 123.913 162.762 124.2 162.909C124.522 163.072 124.788 163.324 125.005 163.608C125.221 163.893 125.391 164.215 125.46 164.569C125.521 164.885 125.5 165.2 125.379 165.498C125.256 165.81 125.041 166.061 124.776 166.263L124.713 166.31C124.448 166.512 124.149 166.652 123.815 166.689C123.493 166.724 123.188 166.662 122.901 166.516C122.579 166.355 122.314 166.105 122.098 165.818ZM129.114 174.272L125.973 173.55L125.85 173.1L128.194 170.881L125.448 171.633L125.323 171.178L128.735 170.243L128.898 170.842L126.464 173.18L129.748 173.946L129.911 174.545L126.5 175.48L126.375 175.023L129.114 174.272ZM130.096 180.735L126.568 180.474L126.603 179.991L130.131 180.252L130.096 180.735ZM128.264 186.383L125.628 185.342L125.8 184.907L129.09 186.207L128.923 186.626L125.393 187.848L128.029 188.889L127.857 189.324L124.567 188.024L124.733 187.604L128.264 186.383ZM103.139 201.79L100.78 201.376L100.511 202.902L100.039 202.821L100.652 199.338L101.122 199.419L100.854 200.946L103.215 201.36L103.483 199.834L103.956 199.915L103.345 203.399L102.873 203.317L103.139 201.79ZM94.8968 196.919C95.2082 197.1 95.488 197.332 95.6914 197.634C95.8702 197.902 95.9715 198.198 95.9746 198.522C95.9791 198.857 95.8782 199.171 95.7088 199.458L95.6691 199.525C95.4994 199.815 95.2764 200.059 94.9826 200.222C94.6983 200.379 94.3926 200.436 94.0705 200.414C93.71 200.387 93.3671 200.257 93.058 200.076C92.7488 199.896 92.4691 199.663 92.2702 199.362C92.0915 199.092 91.9925 198.796 91.9893 198.472C91.9849 198.136 92.0858 197.823 92.253 197.536L92.2927 197.468C92.4599 197.181 92.6828 196.937 92.9765 196.776C93.2608 196.619 93.5665 196.562 93.8886 196.584C94.2493 196.608 94.5899 196.739 94.8968 196.919ZM86.7131 193.958L89.0838 191.966L89.3957 192.336L87.025 194.328L88.0246 195.52L87.6867 195.803L85.3754 193.05L85.7134 192.765L86.7131 193.958ZM83.1523 187.905L84.1857 187.513L83.3429 185.295L83.7549 185.137L84.5978 187.355L85.6359 186.961L84.7555 184.644L85.1674 184.489L86.2188 187.252L82.9135 188.511L81.8621 185.747L82.274 185.591L83.1523 187.905ZM84.0432 179.741L83.9781 177.106L84.4193 177.094L84.4954 180.209L80.9596 180.297L80.9485 179.819L84.0432 179.741ZM109.669 157.711C110.058 157.779 110.467 157.767 110.808 157.551C111.131 157.349 111.296 157.027 111.363 156.659L111.379 156.571C111.444 156.198 111.395 155.842 111.16 155.543C110.912 155.224 110.534 155.07 110.145 155.001C109.754 154.933 109.345 154.947 109.001 155.163C108.676 155.365 108.507 155.686 108.442 156.055L108.426 156.143C108.361 156.516 108.41 156.869 108.648 157.169C108.897 157.49 109.277 157.642 109.669 157.711ZM122.458 165.547C122.697 165.86 123.006 166.13 123.403 166.206C123.778 166.277 124.115 166.154 124.416 165.928L124.486 165.874C124.788 165.646 124.994 165.353 125.026 164.97C125.061 164.566 124.888 164.199 124.649 163.885C124.408 163.569 124.099 163.302 123.699 163.226C123.322 163.154 122.984 163.272 122.682 163.501L122.612 163.554C122.31 163.783 122.106 164.076 122.077 164.459C122.042 164.86 122.219 165.231 122.458 165.547ZM94.671 197.309C94.3314 197.11 93.9429 196.98 93.546 197.064C93.1723 197.143 92.9063 197.384 92.7178 197.708L92.6728 197.784C92.4844 198.109 92.4053 198.463 92.5216 198.826C92.6451 199.212 92.9443 199.485 93.2862 199.684C93.628 199.883 94.0188 200.013 94.4157 199.929C94.7917 199.851 95.0598 199.613 95.2507 199.286L95.2959 199.208C95.4843 198.883 95.5635 198.529 95.4447 198.168C95.3167 197.781 95.0128 197.508 94.671 197.309Z" fill="#3F654E"/>
<path d="M104.516 182.697C102.721 182.666 101.349 183.065 101.184 185.063C101.024 186.989 102.334 188.435 104.282 188.51C107.147 188.621 108.445 185.805 107.409 183.414C105.929 180.449 99.5173 180.365 99.7984 175.671C99.9903 172.487 102.947 171.253 105.804 171.486C107.667 171.639 109.581 172.301 111.032 173.494L111.105 173.555L109.763 176.935L109.413 176.136C108.768 174.657 107.354 173.232 105.659 173.094C104.265 172.98 102.621 173.4 102.524 175.036C102.505 175.343 102.552 175.639 102.67 175.92C103.449 177.778 108.166 178.842 109.725 181.086C110.503 182.203 110.971 183.537 110.911 184.91C110.764 188.356 107.393 190.281 104.202 190.159C101.21 190.045 98.1119 188.126 98.1932 184.844C98.2839 181.222 102.132 179.658 104.68 182.306L105.067 182.708L104.516 182.697Z" fill="#3F654E"/>
<path d="M113.352 187.876C114.102 187.938 114.661 188.597 114.6 189.347C114.539 190.099 113.879 190.657 113.129 190.595C112.377 190.534 111.82 189.875 111.881 189.125C111.94 188.374 112.599 187.815 113.352 187.876Z" fill="#3F654E"/>
<path d="M100.668 165.647L100.655 165.803L99.5832 165.716L99.5415 166.225L100.568 166.309L100.555 166.466L99.5287 166.382L99.4869 166.894L100.559 166.981L100.546 167.138L99.3019 167.036L99.4241 165.541L100.668 165.642L100.668 165.647ZM101.746 167.266C101.509 167.246 101.331 167.191 101.217 167.099C101.102 167.008 101.05 166.882 101.063 166.724L101.065 166.699L101.237 166.713L101.235 166.738C101.218 166.955 101.394 167.079 101.768 167.11C101.938 167.124 102.069 167.112 102.159 167.076C102.251 167.04 102.299 166.978 102.306 166.894L102.308 166.874C102.314 166.796 102.289 166.737 102.233 166.696C102.177 166.655 102.078 166.62 101.936 166.59L101.615 166.525C101.288 166.459 101.133 166.319 101.15 166.104L101.152 166.081C101.163 165.95 101.23 165.853 101.352 165.789C101.473 165.726 101.642 165.704 101.855 165.721C102.081 165.74 102.25 165.792 102.359 165.883C102.47 165.972 102.517 166.095 102.505 166.249L102.503 166.274L102.331 166.26L102.333 166.235C102.35 166.026 102.186 165.906 101.842 165.877C101.683 165.864 101.561 165.877 101.472 165.913C101.382 165.949 101.336 166.009 101.329 166.091L101.328 166.111C101.322 166.179 101.345 166.231 101.399 166.27C101.451 166.308 101.541 166.343 101.669 166.37L101.99 166.437C102.174 166.477 102.304 166.531 102.383 166.599C102.461 166.667 102.495 166.761 102.485 166.879L102.483 166.902C102.472 167.037 102.403 167.137 102.277 167.199C102.151 167.262 101.973 167.284 101.746 167.266ZM102.825 165.983L102.838 165.827L104.358 165.951L104.346 166.107L103.673 166.052L103.563 167.389L103.389 167.375L103.498 166.038L102.825 165.983ZM104.441 167.486C104.407 167.483 104.38 167.469 104.362 167.447C104.343 167.425 104.334 167.397 104.337 167.363C104.339 167.332 104.353 167.305 104.375 167.287C104.397 167.268 104.425 167.259 104.459 167.261C104.493 167.264 104.519 167.278 104.538 167.3C104.557 167.322 104.566 167.35 104.563 167.382C104.56 167.416 104.547 167.442 104.525 167.461C104.502 167.482 104.475 167.489 104.441 167.486ZM106.776 167.652L106.606 167.638L106.705 166.428C106.626 166.474 106.518 166.49 106.382 166.479L106.121 166.458L106.134 166.297L106.381 166.317C106.492 166.326 106.578 166.317 106.635 166.287C106.692 166.26 106.723 166.21 106.729 166.142L106.899 166.156L106.776 167.652ZM108.242 166.241C108.392 166.253 108.521 166.287 108.631 166.341C108.74 166.396 108.821 166.466 108.873 166.555C108.925 166.641 108.949 166.741 108.94 166.852L108.907 167.253C108.892 167.439 108.815 167.579 108.677 167.672C108.537 167.766 108.354 167.803 108.123 167.785C107.982 167.773 107.864 167.745 107.762 167.7C107.661 167.653 107.586 167.595 107.535 167.522C107.484 167.449 107.463 167.366 107.471 167.273L107.473 167.252L107.645 167.266L107.643 167.287C107.636 167.375 107.678 167.452 107.764 167.513C107.853 167.573 107.975 167.61 108.134 167.623C108.313 167.638 108.456 167.611 108.56 167.544C108.666 167.478 108.722 167.375 108.733 167.241L108.748 167.06C108.602 167.171 108.404 167.214 108.148 167.194C107.922 167.175 107.752 167.122 107.641 167.038C107.529 166.954 107.477 166.838 107.489 166.693L107.492 166.659C107.504 166.509 107.577 166.399 107.71 166.325C107.846 166.252 108.022 166.223 108.242 166.241ZM108.166 167.035C108.299 167.046 108.419 167.038 108.524 167.01C108.628 166.982 108.71 166.936 108.763 166.877L108.766 166.838C108.775 166.72 108.733 166.621 108.637 166.542C108.541 166.464 108.403 166.418 108.224 166.404C108.059 166.39 107.927 166.407 107.828 166.453C107.728 166.5 107.677 166.571 107.669 166.669L107.666 166.705C107.65 166.897 107.817 167.007 108.166 167.035ZM110.754 167.819L110.741 167.976L109.375 167.864L109.387 167.724L110.051 167.404C110.199 167.334 110.311 167.275 110.383 167.228C110.455 167.181 110.507 167.135 110.535 167.092C110.564 167.049 110.582 166.996 110.587 166.934L110.589 166.912C110.597 166.812 110.563 166.732 110.488 166.671C110.413 166.61 110.3 166.573 110.15 166.561C109.996 166.549 109.878 166.566 109.792 166.616C109.708 166.664 109.661 166.742 109.652 166.849L109.648 166.894L109.474 166.88L109.478 166.832C109.49 166.678 109.557 166.563 109.672 166.488C109.79 166.413 109.952 166.383 110.156 166.4C110.358 166.416 110.513 166.47 110.62 166.563C110.726 166.654 110.773 166.776 110.762 166.921L110.76 166.944C110.753 167.023 110.731 167.095 110.692 167.155C110.653 167.214 110.591 167.275 110.504 167.331C110.418 167.39 110.293 167.458 110.129 167.538L109.716 167.737L110.754 167.822L110.754 167.819ZM112.034 167.18C112.249 167.2 112.411 167.25 112.521 167.332C112.63 167.414 112.678 167.525 112.667 167.661L112.665 167.691C112.652 167.842 112.582 167.953 112.455 168.022C112.329 168.092 112.151 168.116 111.92 168.097C111.7 168.079 111.531 168.027 111.413 167.942C111.294 167.857 111.241 167.748 111.252 167.614L111.254 167.593L111.426 167.608L111.425 167.628C111.418 167.707 111.46 167.777 111.552 167.832C111.643 167.888 111.77 167.923 111.931 167.936C112.105 167.95 112.239 167.936 112.333 167.894C112.428 167.851 112.477 167.78 112.485 167.68L112.488 167.649C112.495 167.558 112.456 167.484 112.373 167.432C112.289 167.377 112.162 167.344 111.992 167.33L111.761 167.311L111.773 167.157L112.421 166.77L111.351 166.682L111.364 166.526L112.712 166.636L112.699 166.792L112.034 167.18Z" fill="#3F654E"/>
</g>
<path d="M311.364 33.3525C311.907 32.5422 310.185 41.8022 304.586 53C299.586 63 293.864 71.3525 293.864 71.3525C293.864 71.3525 267.242 61.4028 249.863 54.8525C241.133 53.0916 235.696 52.0007 226.864 50.8525C202.067 47.6288 180.363 44.589 161.363 49.3525C146.017 53.2 140.863 56.8526 125.863 64.8525C115.559 70.3483 110.363 75.3525 98.3633 75.3525C88.6139 75.3525 77.6056 69.3525 76.3657 60.3525C74.5057 46.8525 82.3633 41.8525 86.8639 39.3525C107.382 35.2095 119.037 33.4502 139.864 31.3525C171.929 28.1228 190.137 29.062 222.364 29.3525C257.154 29.6661 311.364 33.3525 311.364 33.3525Z" fill="white"/>
<path d="M86.8639 39.3525C107.415 36.5372 119.121 35.7641 139.864 35.8525C174.885 36.0018 208.363 41.8525 228.363 46.8525C236.663 48.9276 242.124 51.2047 249.863 54.8525M86.8639 39.3525C107.382 35.2095 119.037 33.4502 139.864 31.3525C171.929 28.1228 190.137 29.062 222.364 29.3525C257.154 29.6661 311.364 33.3525 311.364 33.3525M86.8639 39.3525C82.3633 41.8525 74.5057 46.8525 76.3657 60.3525C77.6056 69.3525 88.6139 75.3525 98.3633 75.3525C110.363 75.3525 115.559 70.3483 125.863 64.8525C140.863 56.8526 146.017 53.2 161.363 49.3525C180.363 44.589 202.067 47.6288 226.864 50.8525C235.696 52.0007 241.133 53.0916 249.863 54.8525M293.864 71.3525C296.857 57.3536 301.364 46.8525 311.364 33.3525M293.864 71.3525C293.864 71.3525 299.586 63 304.586 53C310.185 41.8022 311.907 32.5422 311.364 33.3525M293.864 71.3525C293.864 71.3525 267.242 61.4028 249.863 54.8525" stroke="#B8B8B8"/>
</svg>
