<svg width="312" height="373" viewBox="0 0 312 373" fill="none" xmlns="http://www.w3.org/2000/svg">
<path d="M9.09864 25.2001C10.0014 23.5121 11.7985 22.5 13.7391 22.5H182.262C184.146 22.5 185.898 23.4493 186.797 25.0662C196.924 43.2788 196.924 67.8691 186.76 87.7346C185.877 89.4606 184.059 90.5 182.091 90.5H13.1246C11.4949 90.5 9.95447 89.7968 9.02582 88.5083C-2.33991 72.7379 -2.36821 46.6413 9.09864 25.2001Z" stroke="#B8B8B8"/>
<path d="M64.9262 33.2532C65.7002 31.5197 67.5024 30.5 69.4629 30.5H129.436C131.689 30.5 133.71 31.8581 134.382 33.9637C138.518 46.9227 138.81 63.5866 134.317 78.8381C133.668 81.0421 131.591 82.5 129.261 82.5H69.2063C67.371 82.5 65.6754 81.6148 64.9049 80.0355C62.1174 74.3221 60.6254 65.9655 60.5867 57.3386C60.5481 48.7151 61.962 39.8925 64.9262 33.2532Z" stroke="#B8B8B8"/>
<path d="M45.8432 57.2757C55.2403 25.487 85.6632 3.54027 119.714 6.32378C158.791 9.51824 187.864 44.076 184.64 83.5193L162.262 357.268C161.601 365.358 154.567 371.377 146.561 370.723L34.0417 361.525C26.0354 360.87 20.0729 353.788 20.7342 345.698L36.2055 156.439C38.1179 133.045 58.6329 115.63 82.0269 117.543L110.432 119.865C129.457 121.42 146.554 109.896 153.028 92.7575C154.403 89.1168 155.298 85.223 155.632 81.148C157.533 57.8845 140.385 37.4902 117.32 35.6047C99.4418 34.1432 83.2654 44.2325 76.0088 59.6761C72.5154 67.1108 65.6435 73.2901 57.6572 72.6373C49.6107 71.9795 43.5971 64.8739 45.8432 57.2757Z" fill="white" stroke="#B8B8B8"/>
<path d="M88.375 226L114.289 228.118" stroke="#3F654E" stroke-opacity="0.4"/>
<path d="M57.8224 305.79C58.7859 305.869 59.6466 306.182 60.4046 306.729C61.1805 307.26 61.783 307.97 62.2121 308.858C62.6412 309.746 62.8095 310.755 62.7172 311.884C62.6357 312.881 62.3893 313.747 61.978 314.483C61.5847 315.203 61.0846 315.798 60.4777 316.267C59.8722 316.719 59.218 317.05 58.5153 317.26C57.8304 317.455 57.1641 317.526 56.5163 317.473C55.5694 317.395 54.708 317.091 53.9321 316.559C53.1575 316.011 52.5557 315.293 52.1266 314.405C51.7142 313.518 51.5541 312.51 51.6464 311.381C51.7279 310.384 51.9653 309.526 52.3586 308.805C52.7699 308.07 53.2783 307.476 53.8839 307.024C54.4907 306.555 55.1366 306.223 55.8214 306.028C56.5076 305.817 57.1746 305.737 57.8224 305.79ZM57.0213 316.511C58.0014 316.591 58.8023 316.305 59.4242 315.654C60.0473 314.986 60.4193 313.912 60.5402 312.434C60.623 311.421 60.5399 310.494 60.2908 309.654C60.0584 308.816 59.6871 308.142 59.1769 307.632C58.6681 307.105 58.0483 306.812 57.3174 306.752C56.3539 306.674 55.5606 306.968 54.9374 307.636C54.3156 308.288 53.9443 309.353 53.8234 310.831C53.742 311.828 53.8175 312.745 54.0499 313.584C54.299 314.424 54.6779 315.107 55.1867 315.633C55.6955 316.16 56.307 316.452 57.0213 316.511ZM81.4242 316.599C81.3766 317.181 81.3918 317.608 81.4698 317.882C81.5643 318.157 81.7577 318.349 82.0499 318.456C82.3588 318.565 82.8032 318.652 83.3832 318.716L83.3364 319.289L64.6736 317.763L64.7205 317.19C65.1039 317.205 65.407 317.179 65.6297 317.114C65.8524 317.049 66.0162 316.886 66.121 316.627C66.2424 316.37 66.3268 315.95 66.3744 315.369L66.8591 309.439C66.9067 308.857 66.8831 308.429 66.7886 308.154C66.7107 307.88 66.5173 307.688 66.2084 307.58C65.9162 307.472 65.4801 307.386 64.9001 307.322L64.9469 306.749L70.5532 307.207L70.5064 307.78C70.1396 307.767 69.8365 307.793 69.5971 307.857C69.3744 307.922 69.2023 308.083 69.0809 308.341C68.9762 308.6 68.9 309.02 68.8525 309.602L68.3677 315.532C68.3297 315.997 68.351 316.35 68.4317 316.591C68.5289 316.833 68.7237 317.007 69.0159 317.115C69.3261 317.207 69.7719 317.277 70.3532 317.325L71.2752 317.4C71.84 317.446 72.2378 317.387 72.4687 317.222C72.6996 317.057 72.8442 316.617 72.9026 315.903L73.3874 309.972C73.4349 309.391 73.4363 308.965 73.3916 308.693C73.3635 308.424 73.2448 308.238 73.0357 308.138C72.8431 308.038 72.515 307.961 72.0512 307.907L72.0981 307.334L77.0814 307.741L77.0346 308.314C76.6678 308.301 76.3647 308.326 76.1254 308.39C75.9026 308.456 75.7306 308.617 75.6092 308.875C75.5044 309.134 75.4282 309.554 75.3807 310.135L74.8959 316.066C74.8579 316.531 74.8792 316.884 74.9599 317.124C75.0572 317.366 75.2519 317.541 75.5441 317.649C75.8543 317.741 76.3001 317.811 76.8815 317.858L77.8034 317.934C78.3682 317.98 78.766 317.92 78.9969 317.755C79.2278 317.59 79.3724 317.151 79.4308 316.436L79.9156 310.506C79.9631 309.925 79.9645 309.498 79.9198 309.227C79.8917 308.957 79.7731 308.772 79.5639 308.671C79.3714 308.572 79.0432 308.495 78.5794 308.44L78.6263 307.867L83.6097 308.275L83.5628 308.848C83.196 308.834 82.8929 308.86 82.6536 308.924C82.4309 308.989 82.2588 309.151 82.1374 309.408C82.0326 309.667 81.9565 310.088 81.9089 310.669L81.4242 316.599ZM96.7138 311.879L96.2291 317.809C96.1815 318.391 96.1968 318.819 96.2747 319.092C96.3692 319.368 96.5626 319.559 96.8548 319.667C97.1637 319.775 97.6081 319.862 98.1881 319.926L98.1413 320.499L92.535 320.041L92.5818 319.468C92.9652 319.482 93.2683 319.457 93.4911 319.392C93.7138 319.326 93.8776 319.164 93.9823 318.905C94.1037 318.647 94.1882 318.228 94.2357 317.647L94.7246 311.666L88.2493 319.691L85.2593 319.446L85.3061 318.873C85.6895 318.888 85.9926 318.862 86.2153 318.797C86.4381 318.731 86.6018 318.569 86.7066 318.31C86.828 318.053 86.9125 317.633 86.96 317.052L87.4448 311.122C87.4923 310.54 87.4688 310.112 87.3742 309.837C87.2963 309.563 87.1029 309.371 86.7941 309.262C86.5019 309.155 86.0657 309.069 85.4857 309.005L85.5326 308.432L91.1389 308.89L91.092 309.463C90.7252 309.45 90.4221 309.475 90.1828 309.539C89.96 309.605 89.788 309.766 89.6666 310.024C89.5618 310.283 89.4856 310.703 89.4381 311.284L88.9493 317.265L95.4246 309.24L98.4146 309.485L98.3677 310.058C98.0009 310.045 97.6979 310.07 97.4585 310.134C97.2358 310.2 97.0637 310.361 96.9423 310.619C96.8375 310.878 96.7614 311.298 96.7138 311.879ZM106.786 309.793C107.849 309.88 108.769 310.181 109.547 310.696C110.342 311.196 110.937 311.888 111.333 312.773C111.731 313.642 111.88 314.683 111.78 315.895C111.699 316.892 111.453 317.758 111.041 318.494C110.631 319.213 110.123 319.806 109.516 320.275C108.911 320.727 108.281 321.061 107.628 321.275C106.977 321.472 106.36 321.547 105.779 321.5C104.716 321.413 103.79 321.078 103.002 320.495C102.214 319.896 101.621 319.078 101.22 318.042C100.822 316.989 100.682 315.732 100.801 314.27C100.801 314.27 100.802 314.262 100.803 314.245C100.957 312.368 101.288 310.773 101.797 309.46C102.322 308.149 102.952 307.088 103.687 306.279C104.439 305.471 105.232 304.875 106.066 304.492C106.918 304.093 107.755 303.877 108.577 303.844C109.248 303.815 109.795 303.776 110.217 303.727C110.655 303.68 111.016 303.559 111.3 303.364C111.585 303.154 111.83 302.806 112.037 302.321L112.61 302.368C112.498 302.927 112.37 303.469 112.227 303.992C112.085 304.499 111.843 305.006 111.5 305.513C111.139 305.634 110.798 305.715 110.477 305.755C110.156 305.796 109.804 305.809 109.421 305.794C109.037 305.78 108.545 305.765 107.944 305.749C106.394 305.689 105.225 306.087 104.436 306.942C103.647 307.797 103.156 309.095 102.963 310.835C103.496 310.46 104.087 310.183 104.737 310.002C105.405 309.806 106.088 309.736 106.786 309.793ZM105.96 320.511C106.94 320.591 107.758 320.307 108.413 319.658C109.086 318.994 109.483 317.923 109.603 316.445C109.738 314.8 109.521 313.47 108.952 312.453C108.384 311.42 107.552 310.859 106.455 310.769C105.641 310.703 104.949 310.889 104.378 311.327C103.809 311.749 103.303 312.51 102.862 313.611C102.688 315.737 102.887 317.401 103.457 318.601C104.046 319.786 104.88 320.423 105.96 320.511ZM113.729 321.773L113.776 321.2C114.159 321.215 114.462 321.19 114.685 321.124C114.908 321.059 115.071 320.897 115.176 320.638C115.297 320.38 115.382 319.96 115.429 319.379L115.914 313.449C115.962 312.867 115.938 312.439 115.844 312.164C115.766 311.89 115.572 311.698 115.264 311.59C114.971 311.482 114.535 311.396 113.955 311.332L114.002 310.759L119.608 311.217L119.561 311.79C119.195 311.777 118.892 311.803 118.652 311.867C118.43 311.932 118.257 312.094 118.136 312.351C118.031 312.61 117.955 313.03 117.908 313.612L117.712 316.004L117.762 316.008L121.014 313.665C121.423 313.364 121.684 313.135 121.797 312.977C121.911 312.819 121.973 312.673 121.983 312.54C122.009 312.225 121.75 312.02 121.206 311.925L121.253 311.352L125.713 311.716L125.666 312.29C125.298 312.293 124.914 312.387 124.514 312.572C124.116 312.74 123.642 313.019 123.091 313.408L120.536 315.206C120.324 315.356 120.22 315.498 120.226 315.632C120.231 315.767 120.287 315.905 120.392 316.047L123.276 320.046C123.698 320.615 124.022 321.051 124.248 321.354C124.474 321.657 124.691 321.867 124.899 321.984C125.124 322.086 125.42 322.152 125.786 322.182L125.739 322.755C125.315 322.821 124.829 322.831 124.281 322.787C123.7 322.739 123.234 322.609 122.883 322.396C122.533 322.184 122.236 321.925 121.994 321.621C121.769 321.302 121.528 320.973 121.272 320.634L118.95 317.434C118.801 317.205 118.663 317.051 118.536 316.974C118.425 316.898 118.303 316.855 118.17 316.844C118.037 316.833 117.909 316.864 117.786 316.938C117.68 317.013 117.617 317.167 117.598 317.399L117.423 319.542C117.375 320.123 117.391 320.551 117.468 320.825C117.563 321.1 117.74 321.29 117.999 321.395C118.258 321.5 118.636 321.581 119.133 321.638L119.086 322.211L113.729 321.773ZM129.431 323.433C128.65 323.369 128.027 323.118 127.561 322.678C127.114 322.224 126.921 321.614 126.983 320.85C127.034 320.236 127.271 319.687 127.695 319.203C128.119 318.719 128.789 318.297 129.705 317.937C130.62 317.577 131.849 317.277 133.391 317.035L133.523 315.415C133.579 314.734 133.475 314.157 133.213 313.684C132.967 313.212 132.437 312.943 131.623 312.877C130.843 312.813 130.199 313.011 129.694 313.472C129.206 313.917 128.828 314.647 128.561 315.662L127.988 315.615L128.243 312.5C128.847 312.265 129.48 312.091 130.142 311.978C130.821 311.85 131.559 311.818 132.357 311.883C133.27 311.958 133.958 312.14 134.419 312.428C134.899 312.701 135.22 313.062 135.384 313.51C135.548 313.959 135.607 314.473 135.559 315.055L135.066 321.085C134.994 321.965 135.232 322.428 135.78 322.472C135.98 322.489 136.209 322.441 136.47 322.328C136.746 322.217 137.076 321.968 137.459 321.581L137.825 322.012C136.953 323.262 135.986 323.844 134.923 323.757C133.827 323.667 133.199 323.056 133.041 321.922L132.991 321.918C131.98 323.04 130.793 323.545 129.431 323.433ZM130.473 322.039C131.27 322.104 132.131 321.806 133.054 321.146L133.327 317.807C132.107 318.008 131.199 318.269 130.605 318.588C130.011 318.89 129.608 319.217 129.396 319.568C129.201 319.903 129.092 320.22 129.067 320.519C129.028 321.001 129.148 321.37 129.428 321.627C129.71 321.867 130.058 322.005 130.473 322.039Z" fill="#B8B8B8"/>
<path d="M79.0438 258.428C80.8963 258.579 82.6131 259.048 84.1942 259.836C85.7753 260.623 87.1548 261.696 88.3328 263.054C89.5129 264.384 90.3859 265.95 90.9517 267.752C91.5447 269.555 91.7533 271.533 91.5773 273.685C91.4014 275.838 90.8744 277.755 89.9963 279.439C89.1455 281.124 88.0287 282.541 86.6458 283.69C85.2902 284.841 83.7537 285.689 82.0362 286.234C80.3188 286.779 78.5338 286.976 76.6813 286.824C74.8561 286.675 73.1393 286.206 71.5309 285.416C69.9498 284.629 68.5692 283.57 67.389 282.239C66.2383 280.884 65.3664 279.304 64.7734 277.5C64.2076 275.699 64.0127 273.722 64.1886 271.57C64.3646 269.418 64.878 267.499 65.7288 265.813C66.6069 264.13 67.7237 262.713 69.0793 261.562C70.4621 260.414 71.9986 259.566 73.6889 259.018C75.4063 258.473 77.1913 258.276 79.0438 258.428ZM77.4279 285.24C79.0624 285.374 80.5975 285.047 82.0331 284.259C83.496 283.474 84.7209 282.244 85.708 280.569C86.6972 278.867 87.2977 276.723 87.5092 274.135C87.7408 271.301 87.4464 268.864 86.6261 266.822C85.8079 264.753 84.6647 263.138 83.1965 261.976C81.7283 260.814 80.1088 260.16 78.3381 260.015C76.7035 259.882 75.1548 260.208 73.692 260.993C72.2291 261.778 71.0031 263.022 70.0138 264.724C69.0268 266.398 68.4275 268.53 68.2159 271.118C67.9843 273.951 68.2776 276.402 69.0957 278.471C69.9161 280.512 71.074 282.115 72.5695 283.28C74.0649 284.444 75.6844 285.098 77.4279 285.24ZM96.4293 287.822L96.5061 286.882C97.2439 286.915 97.8227 286.88 98.2425 286.777C98.6895 286.676 99.0125 286.415 99.2116 285.992C99.4107 285.57 99.5481 284.895 99.6238 283.969L101.177 264.968C101.255 264.014 101.202 263.324 101.017 262.898C100.862 262.446 100.518 262.13 99.9841 261.949C99.4504 261.769 98.6398 261.62 97.5523 261.504L97.6291 260.564L107.845 261.399L107.768 262.339C107.03 262.306 106.452 262.341 106.032 262.444C105.612 262.547 105.289 262.808 105.063 263.228C104.866 263.624 104.728 264.298 104.651 265.252L103.117 284.008L120.513 262.435L126.029 262.886L125.953 263.825C125.215 263.793 124.636 263.827 124.216 263.93C123.796 264.033 123.473 264.295 123.247 264.715C123.05 265.11 122.913 265.785 122.835 266.738L121.282 285.74C121.206 286.666 121.246 287.355 121.401 287.806C121.556 288.258 121.9 288.574 122.434 288.755C122.995 288.938 123.805 289.086 124.866 289.2L124.789 290.14L114.614 289.308L114.69 288.368C115.428 288.401 116.007 288.366 116.427 288.264C116.874 288.163 117.197 287.901 117.396 287.479C117.595 287.056 117.732 286.382 117.808 285.456L119.338 266.74L101.946 288.273L96.4293 287.822ZM118.337 253.824L119.083 254.255C118.571 256.16 117.677 257.541 116.4 258.396C115.126 259.224 113.808 259.583 112.445 259.471C111.274 259.376 110.243 258.907 109.352 258.067C108.488 257.228 108.028 255.806 107.973 253.799C108.481 253.621 108.983 253.512 109.481 253.47C109.978 253.428 110.527 253.418 111.128 253.44C111.076 254.752 111.272 255.714 111.715 256.326C112.188 256.914 112.861 257.243 113.732 257.314C114.686 257.392 115.53 257.132 116.264 256.534C117.026 255.938 117.717 255.035 118.337 253.824ZM131.502 282.379C131.74 279.135 131.946 275.943 132.121 272.804C132.324 269.639 132.43 266.508 132.436 263.409L136.336 262C136.055 265.104 135.62 268.414 135.03 271.931C134.441 275.448 133.647 278.962 132.647 282.473L131.502 282.379ZM131.186 291.28C130.587 291.231 130.1 290.986 129.724 290.544C129.349 290.101 129.186 289.581 129.235 288.981C129.282 288.409 129.526 287.936 129.968 287.56C130.41 287.185 130.931 287.022 131.53 287.071C132.13 287.12 132.617 287.366 132.992 287.808C133.367 288.25 133.532 288.757 133.485 289.329C133.436 289.928 133.19 290.415 132.748 290.791C132.306 291.166 131.785 291.329 131.186 291.28Z" fill="#3F654E" fill-opacity="0.6"/>
<g opacity="0.6">
<path d="M101.864 158.092C101.454 158.164 100.952 158.198 100.563 158.022C100.228 157.872 100.045 157.602 99.983 157.245L99.9679 157.15L100.44 157.068L100.455 157.163C100.565 157.799 101.332 157.736 101.813 157.655C102.084 157.609 102.428 157.525 102.652 157.358C102.805 157.243 102.892 157.097 102.858 156.903L102.85 156.857C102.823 156.706 102.751 156.593 102.607 156.534C102.417 156.454 102.102 156.46 101.898 156.471L101.145 156.51C100.595 156.538 99.9338 156.452 99.8223 155.806L99.8129 155.753C99.7592 155.434 99.863 155.169 100.102 154.953C100.395 154.69 100.825 154.565 101.204 154.501C101.6 154.433 102.074 154.403 102.448 154.575C102.773 154.722 102.948 154.99 103.008 155.337L103.026 155.432L102.554 155.514L102.536 155.419C102.433 154.816 101.743 154.857 101.278 154.938C101.019 154.983 100.702 155.062 100.488 155.222C100.34 155.333 100.255 155.477 100.286 155.664L100.293 155.71C100.316 155.847 100.39 155.944 100.518 155.996C100.697 156.07 100.973 156.069 101.163 156.06L101.919 156.026C102.228 156.012 102.626 156.024 102.909 156.166C103.147 156.288 103.276 156.497 103.321 156.759L103.33 156.812C103.388 157.14 103.279 157.412 103.028 157.631C102.719 157.898 102.257 158.026 101.864 158.092ZM109.591 158.156C109.238 158.093 108.892 157.973 108.599 157.76C108.339 157.57 108.142 157.328 108.027 157.027C107.907 156.714 107.893 156.384 107.952 156.056L107.965 155.977C108.024 155.649 108.147 155.34 108.369 155.084C108.58 154.839 108.847 154.678 109.157 154.59C109.505 154.49 109.87 154.495 110.225 154.556C110.578 154.619 110.922 154.741 111.212 154.954C111.473 155.144 111.667 155.388 111.784 155.689C111.904 156.003 111.918 156.332 111.86 156.66L111.847 156.737C111.788 157.065 111.662 157.372 111.443 157.623C111.232 157.866 110.965 158.029 110.655 158.118C110.306 158.221 109.942 158.219 109.591 158.156ZM116.118 160.04L118.398 161.367L118.175 161.748L115.484 160.18L117.264 157.123L117.678 157.364L116.118 160.04ZM122.098 165.818C121.88 165.531 121.71 165.209 121.639 164.855C121.576 164.539 121.599 164.224 121.717 163.926C121.841 163.614 122.055 163.363 122.32 163.163L122.383 163.116C122.648 162.914 122.949 162.772 123.285 162.736C123.608 162.7 123.913 162.762 124.2 162.909C124.522 163.072 124.788 163.324 125.005 163.608C125.221 163.893 125.391 164.215 125.46 164.569C125.521 164.885 125.5 165.2 125.379 165.498C125.256 165.81 125.041 166.061 124.776 166.263L124.713 166.31C124.448 166.512 124.149 166.652 123.815 166.689C123.493 166.724 123.188 166.662 122.901 166.516C122.579 166.355 122.314 166.105 122.098 165.818ZM129.114 174.272L125.973 173.55L125.85 173.1L128.194 170.881L125.448 171.633L125.323 171.178L128.735 170.243L128.898 170.842L126.464 173.18L129.748 173.946L129.911 174.545L126.5 175.48L126.375 175.023L129.114 174.272ZM130.096 180.735L126.568 180.474L126.603 179.991L130.131 180.252L130.096 180.735ZM128.264 186.383L125.628 185.342L125.8 184.907L129.09 186.207L128.923 186.626L125.393 187.848L128.029 188.889L127.857 189.324L124.567 188.024L124.733 187.604L128.264 186.383ZM103.139 201.79L100.78 201.376L100.511 202.902L100.039 202.821L100.652 199.338L101.122 199.419L100.854 200.946L103.215 201.36L103.483 199.834L103.956 199.915L103.345 203.399L102.873 203.317L103.139 201.79ZM94.8968 196.919C95.2082 197.1 95.488 197.332 95.6914 197.634C95.8702 197.902 95.9715 198.198 95.9746 198.522C95.9791 198.857 95.8782 199.171 95.7088 199.458L95.6691 199.525C95.4994 199.815 95.2764 200.059 94.9826 200.222C94.6983 200.379 94.3926 200.436 94.0705 200.414C93.71 200.387 93.3671 200.257 93.058 200.076C92.7488 199.896 92.4691 199.663 92.2702 199.362C92.0915 199.092 91.9925 198.796 91.9893 198.472C91.9849 198.136 92.0858 197.823 92.253 197.536L92.2927 197.468C92.4599 197.181 92.6828 196.937 92.9765 196.776C93.2608 196.619 93.5665 196.562 93.8886 196.584C94.2493 196.608 94.5899 196.739 94.8968 196.919ZM86.7131 193.958L89.0838 191.966L89.3957 192.336L87.025 194.328L88.0246 195.52L87.6867 195.803L85.3754 193.05L85.7134 192.765L86.7131 193.958ZM83.1523 187.905L84.1857 187.513L83.3429 185.295L83.7549 185.137L84.5978 187.355L85.6359 186.961L84.7555 184.644L85.1674 184.489L86.2188 187.252L82.9135 188.511L81.8621 185.747L82.274 185.591L83.1523 187.905ZM84.0432 179.741L83.9781 177.106L84.4193 177.094L84.4954 180.209L80.9596 180.297L80.9485 179.819L84.0432 179.741ZM109.669 157.711C110.058 157.779 110.467 157.767 110.808 157.551C111.131 157.349 111.296 157.027 111.363 156.659L111.379 156.571C111.444 156.198 111.395 155.842 111.16 155.543C110.912 155.224 110.534 155.07 110.145 155.001C109.754 154.933 109.345 154.947 109.001 155.163C108.676 155.365 108.507 155.686 108.442 156.055L108.426 156.143C108.361 156.516 108.41 156.869 108.648 157.169C108.897 157.49 109.277 157.642 109.669 157.711ZM122.458 165.547C122.697 165.86 123.006 166.13 123.403 166.206C123.778 166.277 124.115 166.154 124.416 165.928L124.486 165.874C124.788 165.646 124.994 165.353 125.026 164.97C125.061 164.566 124.888 164.199 124.649 163.885C124.408 163.569 124.099 163.302 123.699 163.226C123.322 163.154 122.984 163.272 122.682 163.501L122.612 163.554C122.31 163.783 122.106 164.076 122.077 164.459C122.042 164.86 122.219 165.231 122.458 165.547ZM94.671 197.309C94.3314 197.11 93.9429 196.98 93.546 197.064C93.1723 197.143 92.9063 197.384 92.7178 197.708L92.6728 197.784C92.4844 198.109 92.4053 198.463 92.5216 198.826C92.6451 199.212 92.9443 199.485 93.2862 199.684C93.628 199.883 94.0188 200.013 94.4157 199.929C94.7917 199.851 95.0598 199.613 95.2507 199.286L95.2959 199.208C95.4843 198.883 95.5635 198.529 95.4447 198.168C95.3167 197.781 95.0128 197.508 94.671 197.309Z" fill="#3F654E"/>
<path d="M104.516 182.696C102.721 182.666 101.349 183.065 101.184 185.063C101.024 186.989 102.334 188.435 104.282 188.51C107.147 188.621 108.445 185.805 107.409 183.414C105.929 180.449 99.5173 180.365 99.7984 175.671C99.9903 172.487 102.947 171.253 105.804 171.486C107.667 171.638 109.581 172.301 111.032 173.494L111.105 173.555L109.763 176.935L109.413 176.135C108.768 174.657 107.354 173.232 105.659 173.094C104.265 172.98 102.621 173.4 102.524 175.036C102.505 175.343 102.552 175.638 102.67 175.92C103.449 177.778 108.166 178.841 109.725 181.085C110.503 182.203 110.971 183.537 110.911 184.909C110.764 188.355 107.393 190.281 104.202 190.159C101.21 190.045 98.1119 188.126 98.1932 184.844C98.2839 181.222 102.132 179.657 104.68 182.306L105.067 182.707L104.516 182.696Z" fill="#3F654E"/>
<path d="M113.352 187.876C114.102 187.938 114.661 188.597 114.6 189.347C114.539 190.099 113.879 190.657 113.129 190.595C112.377 190.534 111.82 189.875 111.881 189.125C111.94 188.374 112.599 187.815 113.352 187.876Z" fill="#3F654E"/>
<path d="M100.668 165.647L100.655 165.803L99.5832 165.716L99.5415 166.226L100.568 166.31L100.555 166.466L99.5287 166.382L99.4869 166.894L100.559 166.982L100.546 167.138L99.3019 167.036L99.4241 165.541L100.668 165.643L100.668 165.647ZM101.746 167.266C101.509 167.246 101.331 167.191 101.217 167.099C101.102 167.008 101.05 166.883 101.063 166.724L101.065 166.699L101.237 166.713L101.235 166.738C101.218 166.956 101.394 167.08 101.768 167.11C101.938 167.124 102.069 167.112 102.159 167.076C102.251 167.04 102.299 166.978 102.306 166.894L102.308 166.874C102.314 166.797 102.289 166.738 102.233 166.697C102.177 166.656 102.078 166.62 101.936 166.59L101.615 166.525C101.288 166.46 101.133 166.319 101.15 166.104L101.152 166.081C101.163 165.95 101.23 165.853 101.352 165.79C101.473 165.727 101.642 165.704 101.855 165.721C102.081 165.74 102.25 165.792 102.359 165.883C102.47 165.972 102.517 166.095 102.505 166.249L102.503 166.274L102.331 166.26L102.333 166.235C102.35 166.026 102.186 165.906 101.842 165.878C101.683 165.865 101.561 165.878 101.472 165.914C101.382 165.95 101.336 166.01 101.329 166.091L101.328 166.112C101.322 166.18 101.345 166.232 101.399 166.27C101.451 166.309 101.541 166.344 101.669 166.37L101.99 166.437C102.174 166.477 102.304 166.531 102.383 166.599C102.461 166.667 102.495 166.761 102.485 166.879L102.483 166.902C102.472 167.038 102.403 167.137 102.277 167.2C102.151 167.262 101.973 167.284 101.746 167.266ZM102.825 165.983L102.838 165.827L104.358 165.951L104.346 166.107L103.673 166.052L103.563 167.389L103.389 167.375L103.498 166.038L102.825 165.983ZM104.441 167.486C104.407 167.483 104.38 167.47 104.362 167.448C104.343 167.426 104.334 167.397 104.337 167.363C104.339 167.332 104.353 167.306 104.375 167.287C104.397 167.268 104.425 167.259 104.459 167.262C104.493 167.265 104.519 167.278 104.538 167.3C104.557 167.322 104.566 167.35 104.563 167.382C104.56 167.416 104.547 167.442 104.525 167.461C104.502 167.482 104.475 167.489 104.441 167.486ZM106.776 167.652L106.606 167.638L106.705 166.428C106.626 166.474 106.518 166.49 106.382 166.479L106.121 166.458L106.134 166.297L106.381 166.317C106.492 166.326 106.578 166.317 106.635 166.288C106.692 166.26 106.723 166.211 106.729 166.143L106.899 166.156L106.776 167.652ZM108.242 166.241C108.392 166.253 108.521 166.287 108.631 166.341C108.74 166.396 108.821 166.466 108.873 166.555C108.925 166.641 108.949 166.742 108.94 166.853L108.907 167.254C108.892 167.439 108.815 167.579 108.677 167.673C108.537 167.766 108.354 167.804 108.123 167.785C107.982 167.773 107.864 167.745 107.762 167.701C107.661 167.654 107.586 167.595 107.535 167.522C107.484 167.45 107.463 167.366 107.471 167.273L107.473 167.253L107.645 167.267L107.643 167.287C107.636 167.375 107.678 167.452 107.764 167.514C107.853 167.573 107.975 167.611 108.134 167.624C108.313 167.638 108.456 167.611 108.56 167.544C108.666 167.478 108.722 167.375 108.733 167.242L108.748 167.06C108.602 167.172 108.404 167.215 108.148 167.194C107.922 167.175 107.752 167.123 107.641 167.038C107.529 166.954 107.477 166.838 107.489 166.693L107.492 166.659C107.504 166.509 107.577 166.399 107.71 166.325C107.846 166.252 108.022 166.223 108.242 166.241ZM108.166 167.036C108.299 167.046 108.419 167.038 108.524 167.01C108.628 166.982 108.71 166.936 108.763 166.877L108.766 166.838C108.775 166.72 108.733 166.621 108.637 166.543C108.541 166.464 108.403 166.419 108.224 166.404C108.059 166.39 107.927 166.407 107.828 166.454C107.728 166.5 107.677 166.571 107.669 166.669L107.666 166.705C107.65 166.898 107.817 167.007 108.166 167.036ZM110.754 167.82L110.741 167.976L109.375 167.864L109.387 167.724L110.051 167.404C110.199 167.334 110.311 167.275 110.383 167.228C110.455 167.182 110.507 167.136 110.535 167.092C110.564 167.049 110.582 166.996 110.587 166.935L110.589 166.912C110.597 166.812 110.563 166.732 110.488 166.671C110.413 166.61 110.3 166.574 110.15 166.561C109.996 166.549 109.878 166.567 109.792 166.617C109.708 166.664 109.661 166.743 109.652 166.849L109.648 166.894L109.474 166.88L109.478 166.833C109.49 166.679 109.557 166.563 109.672 166.488C109.79 166.413 109.952 166.383 110.156 166.4C110.358 166.416 110.513 166.47 110.62 166.563C110.726 166.654 110.773 166.777 110.762 166.922L110.76 166.944C110.753 167.024 110.731 167.095 110.692 167.155C110.653 167.214 110.591 167.275 110.504 167.332C110.418 167.391 110.293 167.458 110.129 167.538L109.716 167.737L110.754 167.822L110.754 167.82ZM112.034 167.181C112.249 167.201 112.411 167.25 112.521 167.332C112.63 167.414 112.678 167.525 112.667 167.661L112.665 167.691C112.652 167.843 112.582 167.953 112.455 168.023C112.329 168.092 112.151 168.116 111.92 168.097C111.7 168.079 111.531 168.027 111.413 167.942C111.294 167.857 111.241 167.748 111.252 167.614L111.254 167.594L111.426 167.608L111.425 167.628C111.418 167.707 111.46 167.777 111.552 167.832C111.643 167.888 111.77 167.923 111.931 167.936C112.105 167.951 112.239 167.936 112.333 167.894C112.428 167.852 112.477 167.78 112.485 167.681L112.488 167.649C112.495 167.558 112.456 167.484 112.373 167.432C112.289 167.377 112.162 167.344 111.992 167.33L111.761 167.311L111.773 167.157L112.421 166.77L111.351 166.682L111.364 166.526L112.712 166.636L112.699 166.793L112.034 167.181Z" fill="#3F654E"/>
</g>
<path d="M311.364 33.3525C311.907 32.5422 310.185 41.8022 304.586 53C299.586 63 293.864 71.3525 293.864 71.3525C293.864 71.3525 267.242 61.4028 249.863 54.8525C241.133 53.0916 235.696 52.0007 226.864 50.8525C202.067 47.6288 180.363 44.589 161.363 49.3525C146.017 53.2 140.863 56.8526 125.863 64.8525C115.559 70.3483 110.363 75.3525 98.3633 75.3525C88.6139 75.3525 77.6056 69.3525 76.3657 60.3525C74.5057 46.8525 82.3633 41.8525 86.8639 39.3525C107.382 35.2095 119.037 33.4502 139.864 31.3525C171.929 28.1228 190.137 29.062 222.364 29.3525C257.154 29.6661 311.364 33.3525 311.364 33.3525Z" fill="white"/>
<path d="M86.8639 39.3525C107.415 36.5372 119.121 35.7641 139.864 35.8525C174.885 36.0018 208.363 41.8525 228.363 46.8525C236.663 48.9276 242.124 51.2047 249.863 54.8525M86.8639 39.3525C107.382 35.2095 119.037 33.4502 139.864 31.3525C171.929 28.1228 190.137 29.062 222.364 29.3525C257.154 29.6661 311.364 33.3525 311.364 33.3525M86.8639 39.3525C82.3633 41.8525 74.5057 46.8525 76.3657 60.3525C77.6056 69.3525 88.6139 75.3525 98.3633 75.3525C110.363 75.3525 115.559 70.3483 125.863 64.8525C140.863 56.8526 146.017 53.2 161.363 49.3525C180.363 44.589 202.067 47.6288 226.864 50.8525C235.696 52.0007 241.133 53.0916 249.863 54.8525M293.864 71.3525C296.857 57.3536 301.364 46.8525 311.364 33.3525M293.864 71.3525C293.864 71.3525 299.586 63 304.586 53C310.185 41.8022 311.907 32.5422 311.364 33.3525M293.864 71.3525C293.864 71.3525 267.242 61.4028 249.863 54.8525" stroke="#B8B8B8"/>
</svg>
