<?xml version="1.0" encoding="UTF-8" standalone="no"?>
<!-- Created with Inkscape (http://www.inkscape.org/) -->

<svg
   xmlns:dc="http://purl.org/dc/elements/1.1/"
   xmlns:cc="http://creativecommons.org/ns#"
   xmlns:rdf="http://www.w3.org/1999/02/22-rdf-syntax-ns#"
   xmlns:svg="http://www.w3.org/2000/svg"
   xmlns="http://www.w3.org/2000/svg"
   version="1.1"
   width="300"
   height="194.62758"
   id="svg2">
  <title
     id="title3016">EFTPOS Logo</title>
  <defs
     id="defs4">
    <clipPath
       id="Clip0">
      <path
         d="m 0,0 192.756,0 0,192.756 L 0,192.756 0,0 z"
         transform="translate(68.4994,61.4987)"
         id="path3027" />
    </clipPath>
  </defs>
  <metadata
     id="metadata7">
    <rdf:RDF>
      <cc:Work
         rdf:about="">
        <dc:format>image/svg+xml</dc:format>
        <dc:type
           rdf:resource="http://purl.org/dc/dcmitype/StillImage" />
        <dc:title>EFTPOS Logo</dc:title>
      </cc:Work>
    </rdf:RDF>
  </metadata>
  <g
     transform="translate(-265.15738,-408.99626)"
     id="layer1">
    <g
       transform="matrix(1.3655916,0,0,1.3655916,-96.939295,-220.67982)"
       id="g3003">
      <path
         d="m 265.15737,591.12006 0,-120.41187 c 0,0 1.60156,-9.60688 15.05125,-9.60688 13.44975,0 194.38625,0.321 194.38625,0.321 0,0 10.2475,0 10.2475,14.09063 0,14.09049 0,118.48837 0,118.48837 0,0 -0.96125,9.6075 -13.45125,9.6075 -12.48875,0 -193.42362,0 -193.42362,0 0,0 -10.88877,0.96125 -12.81013,-12.48875 z"
         id="path3033"
         style="fill:#8d1238;fill-rule:evenodd;stroke:none" />
      <path
         d="m 478.6445,544.04506 0.005,-20.7095 -54.65375,0 c 0,0 -0.96,0.21487 -0.96,-0.85325 0,-1.06813 0.007,-11.84937 0.007,-11.84937 0,0 -0.22,-0.88501 1.2725,-0.88501 1.49375,0 49.53,-0.033 49.53,-0.033 0,0 4.48375,0.17087 4.48375,-4.84613 0,-5.01838 0,-14.7315 0,-14.7315 0,0 -0.53625,-19.21388 -22.7375,-22.096 -5.22875,0 -29.995,0 -29.995,0 0,0 -23.7725,0.0245 -25.37375,24.25538 0,21.99099 0.075,30.71787 0.075,30.71787 0,0 1.28125,19.9605 23.91,21.04675 L 478.644,544.045 z"
         id="path3035"
         style="fill:#ffffff;fill-rule:evenodd;stroke:none" />
      <path
         d="m 423.75575,488.24256 31.54375,0 0.005,6.24388 c 0,0 0.315,0.64087 -0.965,0.64087 -1.2825,0 -31.595,0 -31.595,0 l -0.03,-5.76412 c 0,0 -0.15875,-1.12063 1.04125,-1.12063 z"
         id="path3037"
         style="fill:#8d1238;fill-rule:evenodd;stroke:none" />
      <path
         d="m 325.04225,584.99881 -1.7615,6.79125 -20.6555,-0.03 c 0,0 -6.1645,0.08 -6.3245,-6.805 1.521,-6.805 3.68288,-13.85125 3.68288,-13.85125 0,0 1.44049,-5.76375 8.64624,-5.685 6.72488,0.0762 14.01001,0.055 14.01001,0.055 0,0 6.36724,0.4375 5.76537,6.35 -0.48088,4.725 -0.96063,5.285 -0.96063,5.285 0,0 0.23925,2.9625 -4.56424,2.8575 l -16.09251,-0.055 c 0,0 -1.12062,-0.16125 -1.60162,1.04 -0.47963,1.20125 -1.04,2.5625 -1.04,2.5625 0,0 -0.31975,1.42625 0.88137,1.50625 l 20.01463,-0.0212 z"
         id="path3039"
         style="fill:#ffffff;fill-rule:evenodd;stroke:none" />
      <path
         d="m 308.55025,572.38631 11.36838,0 c 0,0 0.802,-0.16125 0.64087,0.72 -0.15987,0.88125 0.2405,2.24125 -1.68088,2.24125 -1.92137,0 -11.36849,0.045 -11.36849,0.045 0,0 -0.96063,0.115 -0.72138,-0.685 0.2405,-0.8025 0.481,-2.4025 1.7615,-2.32125 z"
         id="path3041"
         style="fill:#8d1238;fill-rule:evenodd;stroke:none" />
      <path
         d="m 342.17575,591.76631 7.28525,-25.78 c 0,0 1.84075,-5.685 6.80412,-5.685 1.12063,-0.08 2.32176,0.08 2.32176,0.08 l -1.20113,5.36375 6.00462,0.06 -1.84199,7.51125 -5.20263,-0.045 c 0,0 -0.96075,-0.16 -1.4405,1.20125 -0.64088,1.81375 -5.04513,17.3275 -5.04513,17.3275 l -7.68437,-0.0338 z"
         id="path3043"
         style="fill:#ffffff;fill-rule:evenodd;stroke:none" />
      <path
         d="m 325.44325,591.81006 9.607,-33.705 c 0,0 2.32175,-5.04375 7.44625,-5.04375 5.12325,0 7.6855,0.0287 7.6855,0.0287 l -1.68213,6.78125 -4.00262,-0.006 c 0,0 -2.24125,-0.23875 -2.72213,1.28125 -0.47975,1.52125 -0.80087,2.6425 -0.80087,2.6425 0,0 -0.7995,1.84125 0.80087,1.84125 1.60275,0 5.20375,0.03 5.20375,0.03 l -2.00062,7.335 -4.2445,0 c 0,0 -2.16063,-0.335 -2.72088,1.6825 -0.66525,2.39375 -4.80475,17.1325 -4.80475,17.1325 l -7.76487,0 z"
         id="path3045"
         style="fill:#ffffff;fill-rule:evenodd;stroke:none" />
      <path
         d="m 356.50575,598.56506 7.8455,-27.62125 c 0,0 1.92262,-5.36375 7.52562,-5.36375 5.60425,0 15.13013,0 15.13013,0 0,0 6.405,0.24125 5.685,7.125 l -3.4425,13.13 c 0,0 -1.20125,5.925 -9.20625,5.925 -8.00525,0 -11.20838,0 -11.20838,0 l 1.92263,-7.52625 9.36575,0.0713 c 0,0 1.92125,0.32875 2.32125,-1.51125 0.64125,-2.2425 2.4025,-8.64625 2.4025,-8.64625 0,0 0.72,-1.20125 -0.9625,-1.20125 -1.68,0 -10.6465,0 -10.6465,0 0,0 -1.51988,-0.32125 -2.00075,1.28 -0.56163,1.8425 -7.04475,24.4175 -7.04475,24.4175 l -7.68675,-0.0788 z"
         id="path3047"
         style="fill:#ffffff;fill-rule:evenodd;stroke:none" />
      <path
         d="m 392.452,583.03256 3.0425,-11.20875 c 0,0 1.76125,-6.24375 7.605,-6.24375 5.845,0 15.1325,0 15.1325,0 0,0 7.445,0.48 6.005,7.20625 -1.44125,6.725 -3.36375,12.96875 -3.36375,12.96875 0,0 -1.36125,6.005 -8.80625,6.005 -7.44625,0 -12.88875,0 -12.88875,0 0,0 -8.5675,0 -6.72625,-8.7275 z"
         id="path3049"
         style="fill:#ffffff;fill-rule:evenodd;stroke:none" />
      <path
         d="m 404.782,572.86506 10.08625,0.055 c 0,0 1.7625,-0.295 1.52125,0.90625 -0.23875,1.20125 -2.40125,8.72625 -2.40125,8.72625 0,0 -0.48,1.28125 -1.84125,1.36125 -1.92375,0.1125 -11.0475,0 -11.0475,0 0,0 -1.20125,0.0812 -0.80125,-1.20125 0.55125,-1.76375 2.56125,-8.96625 2.56125,-8.96625 0,0 0.08,-0.88125 1.9225,-0.88125 z"
         id="path3051"
         style="fill:#8d1238;fill-rule:evenodd;stroke:none" />
      <path
         d="m 422.79575,591.80006 1.68125,-7.135 18.1725,-0.0312 c 0,0 1.60125,0.32125 2.0025,-1.44125 0.16,-1.28 0.16,-1.43 0.16,-1.43 l -10.56875,-0.01 c 0,0 -8.24625,0.4 -7.765,-7.44625 0.48,-7.84625 6.645,-8.8875 8.72625,-8.8875 2.08125,0 20.255,0 20.255,0 l -1.84125,6.80625 -17.29375,0 c 0,0 -1.28,-0.16 -1.52,1.36125 0,0 -0.88125,1.52 0.72,1.60125 1.60125,0.0788 10.72875,0 10.72875,0 0,0 7.125,-0.24125 6.725,6.64375 -0.40125,6.88625 -4.255,9.92875 -8.81625,9.92875 l -21.36625,0.04 z"
         id="path3053"
         style="fill:#ffffff;fill-rule:evenodd;stroke:none" />
    </g>
  </g>
</svg>
