<?xml version="1.0" encoding="utf-8"?>
<!-- Generator: Adobe Illustrator 19.0.0, SVG Export Plug-In . SVG Version: 6.00 Build 0)  -->
<svg version="1.1" id="Layer_1" xmlns="http://www.w3.org/2000/svg" xmlns:xlink="http://www.w3.org/1999/xlink" x="0px" y="0px"
	 viewBox="0 0 40 40" style="enable-background:new 0 0 40 40;" xml:space="preserve">
<style type="text/css">
	.st0{fill:#2DACDD;}
</style>
<g id="Star">
	<path id="XMLID_28_" class="st0" d="M8.7,38.3c0.3,0,0.6-0.1,0.8-0.3L20,30.6L30.4,38c0.6,0.4,1.5,0.3,2-0.3
		c0.3-0.4,0.3-0.8,0.2-1.2l-4-12l0.6-0.4c0.6-0.4,0.8-1.3,0.4-1.9c-0.4-0.6-1.3-0.8-1.9-0.4c0,0,0,0-0.1,0l-1.4,1
		c-0.5,0.3-0.7,1-0.5,1.5l3,8.9l-7.8-5.5c-0.5-0.4-1.2-0.4-1.6,0l-7.8,5.5l3-8.9c0.2-0.6,0-1.2-0.5-1.5l-7.8-5.5h9.6
		c0.6,0,1.1-0.4,1.3-0.9l3-8.9l3,8.9c0.2,0.6,0.7,0.9,1.3,0.9h9.6l-2.5,1.8c-0.6,0.4-0.8,1.3-0.4,1.9c0.4,0.6,1.3,0.8,1.9,0.4
		c0,0,0,0,0.1,0l6-4.3c0.6-0.4,0.8-1.3,0.3-1.9c-0.3-0.4-0.7-0.6-1.1-0.6H25.3l-4-12c-0.2-0.7-1-1.1-1.8-0.9
		c-0.4,0.1-0.8,0.5-0.9,0.9l-4,12H1.8c-0.8,0-1.4,0.6-1.4,1.4c0,0.4,0.2,0.8,0.6,1.1l10.4,7.4l-4,12c-0.2,0.7,0.2,1.5,0.9,1.7
		C8.5,38.3,8.6,38.3,8.7,38.3L8.7,38.3z"/>
</g>
</svg>
