<?xml version="1.0" encoding="utf-8"?>
<!-- Generator: Adobe Illustrator 19.0.0, SVG Export Plug-In . SVG Version: 6.00 Build 0)  -->
<svg version="1.1" id="Layer_1" xmlns="http://www.w3.org/2000/svg" xmlns:xlink="http://www.w3.org/1999/xlink" x="0px" y="0px"
	 viewBox="0 0 20 20" style="enable-background:new 0 0 20 20;" xml:space="preserve">
<style type="text/css">
	.st0{fill:#FFFFFF;}
</style>
<g id="XMLID_5_">
	<g id="XMLID_31_">
		<g id="XMLID_32_">
			<path id="XMLID_33_" class="st0" d="M17.6,0.3h-9c-1.1,0-2.1,0.9-2.1,2.1v4.2c0,0.4,0.3,0.7,0.7,0.7s0.7-0.3,0.7-0.7V2.4
				c0-0.4,0.3-0.7,0.7-0.7h9c0.4,0,0.7,0.3,0.7,0.7v15.3c0,0.4-0.3,0.7-0.7,0.7h-9c-0.4,0-0.7-0.3-0.7-0.7v-4.2
				c0-0.4-0.3-0.7-0.7-0.7s-0.7,0.3-0.7,0.7v4.2c0,1.1,0.9,2.1,2.1,2.1h9c1.1,0,2.1-0.9,2.1-2.1V2.4C19.7,1.2,18.8,0.3,17.6,0.3z"/>
		</g>
	</g>
</g>
<g id="XMLID_2_">
	<g id="XMLID_3_">
		<path id="XMLID_4_" class="st0" d="M14.2,9.3H2.7L4.9,7c0.3-0.3,0.3-0.7,0-1C4.7,5.8,4.2,5.8,4,6L0.5,9.5C0.4,9.6,0.4,9.7,0.3,9.7
			c-0.1,0.2-0.1,0.4,0,0.5c0,0.1,0.1,0.2,0.2,0.2L4,14c0.3,0.3,0.7,0.3,1,0c0.3-0.3,0.3-0.7,0-1c0,0,0,0,0,0l-2.3-2.3h11.5
			c0.4,0,0.7-0.3,0.7-0.7S14.5,9.3,14.2,9.3z"/>
	</g>
</g>
</svg>
