<svg width="20" height="20" viewBox="0 0 20 20" fill="none" xmlns="http://www.w3.org/2000/svg">
<path d="M15.8 10.1C15.5 9.8 15 9.8 14.7 10.1C14.4 10.4 14.4 10.9 14.7 11.2C16 12.5 16.7 14.2 16.7 16C16.7 16.9 14.1 18.2 10 18.2C5.90005 18.2 3.30005 16.9 3.30005 16C3.30005 14.2 4.00005 12.5 5.30005 11.3C5.60005 11 5.60005 10.5 5.30005 10.2C5.00005 9.9 4.50005 9.9 4.20005 10.2C2.70005 11.7 1.80005 13.8 1.80005 16C1.80005 18.4 6.00005 19.7 10 19.7C14 19.7 18.2001 18.4 18.2001 16C18.2001 13.8 17.3 11.7 15.8 10.1Z" fill="white"/>
<path d="M10 10.7C12.9 10.7 15.2 8.39999 15.2 5.49999C15.2 2.59999 12.9 0.299988 10 0.299988C7.10005 0.299988 4.80005 2.59999 4.80005 5.49999C4.80005 8.39999 7.10005 10.7 10 10.7ZM10 1.79999C12.1 1.79999 13.7 3.49999 13.7 5.49999C13.7 7.49999 12.1 9.29999 10 9.29999C7.90005 9.29999 6.30005 7.59999 6.30005 5.49999C6.30005 3.49999 7.90005 1.79999 10 1.79999Z" fill="white"/>
</svg>
