<?xml version="1.0" encoding="utf-8"?>
<!-- Generator: Adobe Illustrator 19.0.0, SVG Export Plug-In . SVG Version: 6.00 Build 0)  -->
<svg version="1.1" id="Layer_1" xmlns="http://www.w3.org/2000/svg" xmlns:xlink="http://www.w3.org/1999/xlink" x="0px" y="0px"
	 viewBox="0 0 20 20" style="enable-background:new 0 0 20 20;" xml:space="preserve">
<style type="text/css">
	.st0{fill:#2DACDD;}
</style>
<g id="group_friend_team_unity">
	<path id="XMLID_13_" class="st0" d="M9.4,12.5c-0.3,0.3-0.3,0.8,0,1.1c0,0,0,0,0,0c0.8,0.9,1.3,2.1,1.3,3.4c0,0.5-1.6,1.4-4.2,1.4
		S2.3,17.5,2.3,17c0-1.2,0.4-2.4,1.2-3.4c0.3-0.3,0.3-0.8-0.1-1.1c-0.3-0.3-0.8-0.3-1.1,0.1c-1.1,1.2-1.7,2.8-1.6,4.4
		c0,1.7,2.4,2.9,5.7,2.9s5.7-1.3,5.7-2.9c0-1.6-0.6-3.2-1.7-4.4C10.2,12.3,9.7,12.2,9.4,12.5C9.4,12.5,9.4,12.5,9.4,12.5z"/>
	<path id="XMLID_12_" class="st0" d="M17.7,8C17.4,7.7,17,7.7,16.6,8c-0.3,0.3-0.3,0.8-0.1,1.1c0,0,0,0,0,0c0.8,0.9,1.3,2.1,1.3,3.4
		c0,0.5-1.6,1.4-4.2,1.4c-0.4,0-0.8,0.3-0.8,0.8s0.3,0.8,0.8,0.8c3.2,0,5.7-1.3,5.7-2.9C19.4,10.8,18.8,9.2,17.7,8L17.7,8z"/>
	<path id="XMLID_9_" class="st0" d="M6.5,12.3c2.1,0,3.8-1.7,3.8-3.8S8.6,4.7,6.5,4.7S2.7,6.4,2.7,8.5C2.7,10.6,4.4,12.3,6.5,12.3z
		 M6.5,6.3c1.3,0,2.3,1,2.3,2.3s-1,2.3-2.3,2.3s-2.3-1-2.3-2.3C4.2,7.3,5.2,6.3,6.5,6.3z"/>
	<path id="XMLID_6_" class="st0" d="M13.7,7.8c2.1,0,3.8-1.7,3.8-3.8s-1.7-3.8-3.8-3.8S9.9,1.9,9.9,4C9.9,6.1,11.6,7.8,13.7,7.8z
		 M13.7,1.7c1.3,0,2.3,1,2.3,2.3s-1,2.3-2.3,2.3s-2.3-1-2.3-2.3C11.4,2.7,12.4,1.7,13.7,1.7z"/>
</g>
</svg>
