<?xml version="1.0" encoding="utf-8"?>
<!-- Generator: Adobe Illustrator 19.0.0, SVG Export Plug-In . SVG Version: 6.00 Build 0)  -->
<svg version="1.1" id="Layer_1" xmlns="http://www.w3.org/2000/svg" xmlns:xlink="http://www.w3.org/1999/xlink" x="0px" y="0px"
	 viewBox="0 0 20 20" style="enable-background:new 0 0 20 20;" xml:space="preserve">
<style type="text/css">
	.st0{fill:#2DACDD;}
</style>
<path id="XMLID_2_" class="st0" d="M19.6,7.6L16.5,5V2.9c0-0.3-0.3-0.6-0.6-0.6c-0.3,0-0.6,0.3-0.6,0.6V4l-4-3.4
	C10.5,0,9.5,0,8.9,0.6l-8.4,7C0.2,7.8,0.2,8.2,0.4,8.5S1,8.8,1.2,8.6l8.4-7c0.2-0.2,0.6-0.2,0.8,0l7,5.8v10.5c0,0.3-0.3,0.6-0.6,0.6
	h-3.1v-6.7c0-1-0.8-1.8-1.8-1.8H8.2c-1,0-1.8,0.8-1.8,1.8v6.7H3.3c-0.3,0-0.6-0.3-0.6-0.6v-7.4c0-0.3-0.3-0.6-0.6-0.6
	s-0.6,0.3-0.6,0.6v7.4c0,1,0.8,1.8,1.8,1.8l0,0h13.5c1,0,1.8-0.8,1.8-1.8l0,0V8.4l0.2,0.2c0.1,0.1,0.2,0.1,0.4,0.1
	c0.3,0,0.6-0.3,0.6-0.6C19.9,7.9,19.8,7.7,19.6,7.6z M7.6,18.5v-6.7c0-0.3,0.3-0.6,0.6-0.6h3.7c0.3,0,0.6,0.3,0.6,0.6v6.7H7.6z"/>
</svg>
