<?xml version="1.0" encoding="utf-8"?>
<!-- Generator: Adobe Illustrator 19.0.0, SVG Export Plug-In . SVG Version: 6.00 Build 0)  -->
<svg version="1.1" id="Layer_1" xmlns="http://www.w3.org/2000/svg" xmlns:xlink="http://www.w3.org/1999/xlink" x="0px" y="0px"
	 viewBox="0 0 40 40" style="enable-background:new 0 0 40 40;" xml:space="preserve">
<style type="text/css">
	.st0{fill:#2DACDD;stroke:#2DACDD;stroke-width:0.75;stroke-miterlimit:10;}
</style>
<path id="XMLID_31_" class="st0" d="M34.7,24.6c-2.1-2.1-5.6-2.1-7.7,0l-2,2c-0.8,0.8-2,0.8-2.8,0.1c-3.2-2.7-6.1-5.6-8.8-8.8
	c-0.7-0.8-0.6-2.1,0.1-2.8l2-2c2.1-2.1,2.1-5.6,0-7.7l-3-3c-1-1-2.4-1.6-3.9-1.6S5.8,1.4,4.8,2.4c-2.2,2.2-3.6,5.2-3.9,8.3
	c-0.3,3.1,0.6,6.3,2.4,8.8C8.1,26.2,13.8,32,20.5,36.8c2.3,1.6,5,2.5,7.7,2.5c0.4,0,0.7,0,1.1,0c3.1-0.3,6.1-1.6,8.3-3.9
	c1-1,1.6-2.4,1.6-3.9s-0.6-2.8-1.6-3.9L34.7,24.6z M21.4,35.5C14.9,30.9,9.2,25.2,4.5,18.7C1.2,13.9,1.7,7.5,5.8,3.4
	c0.7-0.7,1.7-1.2,2.8-1.2c1.1,0,2.1,0.4,2.8,1.2l3,3c0.7,0.7,1.2,1.7,1.2,2.8s-0.4,2.1-1.2,2.8l-0.1,0.1L9.4,7.3
	C9.1,7,8.6,7,8.3,7.3C8,7.6,8,8,8.3,8.3l4.9,4.9L12.4,14c-1.3,1.3-1.4,3.4-0.2,4.9c2.7,3.3,5.7,6.3,9,9c1.4,1.2,3.5,1.1,4.9-0.2
	l0.8-0.8l8.5,8.5C31.3,38.4,25.7,38.5,21.4,35.5z M36.6,34.2c0,0-0.1,0.1-0.1,0.1c0,0,0,0,0,0l-8.5-8.5l0.1-0.1
	c0.7-0.7,1.7-1.2,2.8-1.2c1.1,0,2.1,0.4,2.8,1.2l3,3c0.7,0.7,1.2,1.7,1.2,2.8C37.8,32.5,37.4,33.5,36.6,34.2z"/>
<path id="XMLID_30_" class="st0" d="M6.8,5C6.6,5,6.4,5.1,6.3,5.2C6.1,5.3,6.1,5.5,6.1,5.7c0,0.2,0.1,0.4,0.2,0.5
	c0.1,0.1,0.3,0.2,0.5,0.2c0.2,0,0.4-0.1,0.5-0.2c0.1-0.1,0.2-0.3,0.2-0.5c0-0.2-0.1-0.4-0.2-0.5C7.2,5.1,7,5,6.8,5z"/>
<path id="XMLID_29_" class="st0" d="M17.2,28.4c-1.5-1.4-3-2.8-4.4-4.3c-0.3-0.3-0.8-0.3-1.1,0c-0.3,0.3-0.3,0.8,0,1.1
	c1.4,1.5,3,3,4.5,4.4c0.1,0.1,0.3,0.2,0.5,0.2c0.2,0,0.4-0.1,0.6-0.3C17.6,29.1,17.6,28.7,17.2,28.4z"/>
<path id="XMLID_28_" class="st0" d="M10.9,21.9c-0.3-0.3-0.7-0.3-1.1-0.1c-0.3,0.3-0.3,0.7-0.1,1.1l0,0c0.1,0.2,0.4,0.3,0.6,0.3
	c0.2,0,0.3-0.1,0.5-0.2C11.1,22.7,11.1,22.2,10.9,21.9L10.9,21.9z"/>
</svg>
