<?xml version="1.0" encoding="utf-8"?>
<!-- Generator: Adobe Illustrator 19.0.0, SVG Export Plug-In . SVG Version: 6.00 Build 0)  -->
<svg version="1.1" id="Layer_1" xmlns="http://www.w3.org/2000/svg" xmlns:xlink="http://www.w3.org/1999/xlink" x="0px" y="0px"
	 viewBox="0 0 20 20" style="enable-background:new 0 0 20 20;" xml:space="preserve">
<style type="text/css">
	.st0{fill:#FFFFFF;}
</style>
<g id="XMLID_54_">
	<g id="XMLID_162_">
		<g id="XMLID_169_">
			<g id="XMLID_170_">
				<path id="XMLID_171_" class="st0" d="M18.3,9.2H1.7C1.3,9.2,1,9.6,1,10c0,0.4,0.3,0.8,0.7,0.8h16.6c0.4,0,0.7-0.3,0.7-0.8
					S18.7,9.2,18.3,9.2z"/>
			</g>
		</g>
		<g id="XMLID_166_">
			<g id="XMLID_167_">
				<path id="XMLID_168_" class="st0" d="M18.3,3H1.7C1.3,3,1,3.3,1,3.8s0.3,0.8,0.7,0.8h16.6c0.4,0,0.7-0.3,0.7-0.8S18.7,3,18.3,3z
					"/>
			</g>
		</g>
		<g id="XMLID_163_">
			<g id="XMLID_164_">
				<path id="XMLID_165_" class="st0" d="M18.3,15.4H1.7c-0.4,0-0.7,0.3-0.7,0.8C1,16.7,1.3,17,1.7,17h16.6c0.4,0,0.7-0.3,0.7-0.8
					C19,15.8,18.7,15.4,18.3,15.4z"/>
			</g>
		</g>
	</g>
</g>
</svg>
