<?xml version="1.0" encoding="utf-8"?>
<!-- Generator: Adobe Illustrator 19.0.0, SVG Export Plug-In . SVG Version: 6.00 Build 0)  -->
<svg version="1.1" id="Layer_1" xmlns="http://www.w3.org/2000/svg" xmlns:xlink="http://www.w3.org/1999/xlink" x="0px" y="0px"
	 viewBox="0 0 40 40" style="enable-background:new 0 0 40 40;" xml:space="preserve">
<style type="text/css">
	.st0{fill:#2DACDD;}
</style>
<g id="XMLID_28_">
	<g id="XMLID_29_">
		<path id="XMLID_30_" class="st0" d="M36.1,23.4l-2.9-7.3l2.9-7.3c0.1-0.4,0.1-0.8-0.1-1.1c-0.2-0.3-0.6-0.5-1-0.5H21.5V4.6
			c0-0.6-0.5-1.2-1.2-1.2H6.1v-2c0-0.6-0.5-1.2-1.2-1.2S3.8,0.8,3.8,1.4c0,4.8,0,33,0,37.1c0,0.6,0.5,1.2,1.2,1.2
			c0.6,0,1.2-0.5,1.2-1.2V21.2h9.2v2.7c0,0.6,0.5,1.2,1.2,1.2H35c0.4,0,0.7-0.2,1-0.5C36.2,24.2,36.2,23.8,36.1,23.4z M19.2,18.8
			c-1.3,0-11.7,0-13.1,0V5.8h13.1C19.2,7.1,19.2,17.4,19.2,18.8z M19.3,22.7l1.9-1.9c0.2-0.2,0.3-0.5,0.3-0.8V9.6h11.8l-2.4,6.1
			c-0.1,0.3-0.1,0.6,0,0.9l2.4,6.1H19.3z"/>
	</g>
</g>
</svg>
