<?xml version="1.0" encoding="utf-8"?>
<!-- Generator: Adobe Illustrator 19.0.0, SVG Export Plug-In . SVG Version: 6.00 Build 0)  -->
<svg version="1.1" id="Layer_1" xmlns="http://www.w3.org/2000/svg" xmlns:xlink="http://www.w3.org/1999/xlink" x="0px" y="0px"
	 viewBox="0 0 20 20" style="enable-background:new 0 0 20 20;" xml:space="preserve">
<style type="text/css">
	.st0{fill:#2DACDD;}
</style>
<path id="XMLID_9_" class="st0" d="M1.4,0.3h13c0.4,0,0.7,0.3,0.7,0.6v9h3.5c0.4,0,0.7,0.3,0.7,0.6v6.9c0,1.3-1.2,2.4-2.6,2.4H3.3
	c-1.4,0-2.6-1.1-2.6-2.3V0.9C0.7,0.5,1,0.3,1.4,0.3L1.4,0.3z M16.7,18.5c0.7,0,1.2-0.5,1.2-1.1v-6.3h-2.9c0,6.9,0,7,0.1,7.3
	C15.3,18.5,15.6,18.5,16.7,18.5z M2.1,17.4c0,0.6,0.5,1.1,1.2,1.1h10.5c-0.1-0.5-0.1,0.5-0.1-17H2.1L2.1,17.4z"/>
<path id="XMLID_8_" class="st0" d="M11,5.5H4.6C4.3,5.5,4,5.2,4,4.9s0.3-0.6,0.7-0.6H11c0.4,0,0.7,0.3,0.7,0.6S11.4,5.5,11,5.5z"/>
<path id="XMLID_7_" class="st0" d="M11,8.9H4.6C4.3,8.9,4,8.6,4,8.3c0-0.3,0.3-0.6,0.7-0.6H11c0.4,0,0.7,0.3,0.7,0.6
	C11.7,8.6,11.4,8.9,11,8.9z"/>
<path id="XMLID_6_" class="st0" d="M11,12.3H4.6c-0.4,0-0.7-0.3-0.7-0.6c0-0.3,0.3-0.6,0.7-0.6H11c0.4,0,0.7,0.3,0.7,0.6
	C11.7,12.1,11.4,12.3,11,12.3z"/>
<path id="XMLID_5_" class="st0" d="M11,15.8H4.6c-0.4,0-0.7-0.3-0.7-0.6s0.3-0.6,0.7-0.6H11c0.4,0,0.7,0.3,0.7,0.6
	S11.4,15.8,11,15.8z"/>
</svg>
