<?xml version="1.0" encoding="utf-8"?>
<!-- Generator: Adobe Illustrator 19.0.0, SVG Export Plug-In . SVG Version: 6.00 Build 0)  -->
<svg version="1.1" id="Layer_1" xmlns="http://www.w3.org/2000/svg" xmlns:xlink="http://www.w3.org/1999/xlink" x="0px" y="0px"
	 viewBox="0 0 20 20" style="enable-background:new 0 0 20 20;" xml:space="preserve">
<style type="text/css">
	.st0{fill:#2DACDD;}
</style>
<g id="XMLID_7_">
	<g id="XMLID_8_">
		<path id="XMLID_9_" class="st0" d="M10,0.3c-5.4,0-9.7,4.3-9.7,9.7c0,5.4,4.3,9.7,9.7,9.7c5.4,0,9.7-4.3,9.7-9.7
			C19.7,4.6,15.4,0.3,10,0.3z M10,18.4c-4.6,0-8.4-3.8-8.4-8.4S5.4,1.6,10,1.6s8.4,3.8,8.4,8.4S14.6,18.4,10,18.4z"/>
	</g>
</g>
<g id="XMLID_2_">
	<g id="XMLID_3_">
		<path id="XMLID_4_" class="st0" d="M13.2,5.9L8.5,8.2C8.4,8.3,8.3,8.4,8.2,8.5l-2.3,4.7c-0.3,0.5,0.3,1.1,0.9,0.9l4.7-2.3
			c0.1-0.1,0.2-0.2,0.3-0.3l2.3-4.7C14.3,6.2,13.8,5.7,13.2,5.9z M10.7,10.7l-2.8,1.4l1.4-2.8l2.8-1.4L10.7,10.7z"/>
	</g>
</g>
</svg>
