<?xml version="1.0" encoding="utf-8"?>
<!-- Generator: Adobe Illustrator 19.0.0, SVG Export Plug-In . SVG Version: 6.00 Build 0)  -->
<svg version="1.1" id="Layer_1" xmlns="http://www.w3.org/2000/svg" xmlns:xlink="http://www.w3.org/1999/xlink" x="0px" y="0px"
	 viewBox="0 0 20 20" style="enable-background:new 0 0 20 20;" xml:space="preserve">
<style type="text/css">
	.st0{fill:#FFFFFF;}
</style>
<path id="XMLID_7_" class="st0" d="M10,14.1c-2.3,0-4.1-1.8-4.1-4.1S7.7,5.9,10,5.9c2.3,0,4.1,1.8,4.1,4.1S12.3,14.1,10,14.1z
	 M10,7.1c-1.6,0-2.9,1.3-2.9,2.9s1.3,2.9,2.9,2.9c1.6,0,2.9-1.3,2.9-2.9S11.6,7.1,10,7.1z"/>
<path id="XMLID_4_" class="st0" d="M11.4,19.9H8.6c-0.7,0-1.2-0.5-1.4-1.1l-0.3-1.5c-0.6-0.2-1.1-0.6-1.6-0.9l-1.5,0.5
	c-0.6,0.2-1.3-0.1-1.7-0.6l-1.4-2.4c-0.3-0.6-0.2-1.3,0.3-1.8l1.2-1.1c0-0.3-0.1-0.6-0.1-0.9s0-0.6,0.1-0.9L1.1,8
	C0.6,7.6,0.5,6.9,0.8,6.3l1.4-2.4c0.3-0.6,1-0.8,1.7-0.6l1.5,0.5c0.5-0.4,1-0.7,1.6-0.9l0.3-1.5C7.4,0.6,8,0.2,8.6,0.2h2.7
	c0.7,0,1.2,0.5,1.4,1.1l0.3,1.5c0.6,0.2,1.1,0.6,1.6,0.9l1.5-0.5c0.6-0.2,1.3,0.1,1.7,0.6l1.4,2.4c0.3,0.6,0.2,1.3-0.3,1.8l-1.2,1.1
	c0,0.3,0.1,0.6,0.1,0.9s0,0.6-0.1,0.9l1.2,1.1c0,0,0,0,0,0c0.5,0.5,0.6,1.2,0.3,1.7l-1.4,2.4c-0.3,0.6-1,0.8-1.7,0.6l-1.5-0.5
	c-0.5,0.4-1,0.7-1.6,0.9l-0.3,1.5C12.6,19.4,12,19.9,11.4,19.9z M5.4,15c0.1,0,0.3,0,0.4,0.1C6.4,15.6,7,16,7.7,16.2
	C7.8,16.3,8,16.4,8,16.6l0.4,1.9c0,0.1,0.1,0.1,0.2,0.1h2.7c0.1,0,0.2-0.1,0.2-0.1l0.4-1.9c0-0.2,0.2-0.4,0.4-0.4
	c0.7-0.2,1.3-0.6,1.8-1.1c0.2-0.1,0.4-0.2,0.6-0.1l1.8,0.6c0.1,0,0.2,0,0.2-0.1l1.4-2.4c0-0.1,0-0.2,0-0.2l-1.4-1.3
	c-0.2-0.1-0.2-0.3-0.2-0.5c0.1-0.4,0.1-0.7,0.1-1.1c0-0.3,0-0.7-0.1-1.1c0-0.2,0-0.4,0.2-0.5l1.4-1.3c0.1-0.1,0.1-0.2,0-0.2
	l-1.4-2.4c0-0.1-0.1-0.1-0.2-0.1L14.8,5c-0.2,0.1-0.4,0-0.6-0.1c-0.6-0.5-1.2-0.8-1.8-1.1C12.2,3.8,12,3.6,12,3.4l-0.4-1.9
	c0-0.1-0.1-0.1-0.2-0.1H8.6c-0.1,0-0.2,0.1-0.2,0.1L8,3.4c0,0.2-0.2,0.4-0.4,0.4C7,4.1,6.4,4.4,5.8,4.9C5.7,5,5.4,5.1,5.2,5L3.4,4.4
	c-0.1,0-0.2,0-0.2,0.1L1.9,6.9c0,0.1,0,0.2,0,0.2l1.4,1.3c0.2,0.1,0.2,0.3,0.2,0.5C3.4,9.3,3.4,9.7,3.4,10s0,0.7,0.1,1.1
	c0,0.2,0,0.4-0.2,0.5l-1.4,1.3c-0.1,0.1-0.1,0.2,0,0.2l1.4,2.4c0,0.1,0.1,0.1,0.2,0.1L5.2,15C5.3,15,5.4,15,5.4,15z"/>
</svg>
