<?xml version="1.0" encoding="utf-8"?>
<!-- Generator: Adobe Illustrator 19.0.0, SVG Export Plug-In . SVG Version: 6.00 Build 0)  -->
<svg version="1.1" id="Layer_1" xmlns="http://www.w3.org/2000/svg" xmlns:xlink="http://www.w3.org/1999/xlink" x="0px" y="0px"
	 viewBox="0 0 20 20" style="enable-background:new 0 0 20 20;" xml:space="preserve">
<style type="text/css">
	.st0{fill:#2DACDD;stroke:#2DACDD;stroke-width:0.5;stroke-miterlimit:10;}
</style>
<g id="XMLID_2_">
	<g id="XMLID_8_">
		<g id="XMLID_9_">
			<path id="XMLID_10_" class="st0" d="M19.5,9.8c-1-1.7-2.3-3.1-4-4c-1.7-1-3.6-1.5-5.6-1.5S6.1,4.8,4.4,5.8c-1.6,1-3,2.4-4,4
				c-0.1,0.1-0.1,0.3,0,0.4c1,1.7,2.3,3.1,4,4c1.7,1,3.6,1.5,5.6,1.5s3.9-0.5,5.6-1.5c1.6-1,3-2.4,4-4C19.6,10.1,19.6,9.9,19.5,9.8z
				 M15.2,13.5C13.6,14.5,11.8,15,10,15s-3.6-0.5-5.2-1.4c-1.4-0.9-2.7-2.1-3.5-3.5c0.9-1.5,2.1-2.7,3.5-3.5C6.4,5.5,8.2,5,10,5
				s3.6,0.5,5.2,1.4c1.4,0.9,2.7,2.1,3.5,3.5C17.8,11.5,16.6,12.7,15.2,13.5z"/>
		</g>
	</g>
	<g id="XMLID_3_">
		<g id="XMLID_4_">
			<path id="XMLID_5_" class="st0" d="M10,6.4C8,6.4,6.4,8,6.4,10S8,13.6,10,13.6s3.6-1.6,3.6-3.6C13.6,8,12,6.4,10,6.4z M10,12.8
				c-1.5,0-2.8-1.3-2.8-2.8c0-1.6,1.3-2.8,2.8-2.8c1.5,0,2.8,1.3,2.8,2.8C12.8,11.6,11.5,12.8,10,12.8z"/>
		</g>
	</g>
</g>
</svg>
