<?xml version="1.0" encoding="utf-8"?>
<!-- Generator: Adobe Illustrator 19.0.0, SVG Export Plug-In . SVG Version: 6.00 Build 0)  -->
<svg version="1.1" id="Layer_1" xmlns="http://www.w3.org/2000/svg" xmlns:xlink="http://www.w3.org/1999/xlink" x="0px" y="0px"
	 viewBox="0 0 20 20" style="enable-background:new 0 0 20 20;" xml:space="preserve">
<style type="text/css">
	.st0{fill:#2DACDD;}
</style>
<g id="user_account_people_man">
	<path id="XMLID_5_" class="st0" d="M15.8,10.1c-0.3-0.3-0.8-0.3-1.1,0c-0.3,0.3-0.3,0.8,0,1.1c0,0,0,0,0,0c1.3,1.3,2,3,2,4.8
		c0,0.9-2.6,2.2-6.7,2.2S3.3,16.9,3.3,16c0-1.8,0.7-3.5,2-4.7c0.3-0.3,0.3-0.8,0-1.1c-0.3-0.3-0.8-0.3-1.1,0c0,0,0,0,0,0
		c-1.5,1.5-2.4,3.6-2.4,5.8c0,2.4,4.2,3.7,8.2,3.7s8.2-1.3,8.2-3.7C18.2,13.8,17.3,11.7,15.8,10.1z"/>
	<path id="XMLID_2_" class="st0" d="M10,10.7c2.9,0,5.2-2.3,5.2-5.2S12.9,0.3,10,0.3S4.8,2.6,4.8,5.5C4.8,8.4,7.1,10.7,10,10.7z
		 M10,1.8c2.1,0,3.7,1.7,3.7,3.7S12.1,9.3,10,9.3S6.3,7.6,6.3,5.5C6.3,3.5,7.9,1.8,10,1.8z"/>
</g>
</svg>
