<?xml version="1.0" encoding="utf-8"?>
<!-- Generator: Adobe Illustrator 19.0.0, SVG Export Plug-In . SVG Version: 6.00 Build 0)  -->
<svg version="1.1" id="Layer_1" xmlns="http://www.w3.org/2000/svg" xmlns:xlink="http://www.w3.org/1999/xlink" x="0px" y="0px"
	 viewBox="0 0 40 40" style="enable-background:new 0 0 40 40;" xml:space="preserve">
<style type="text/css">
	.st0{fill:#2DACDD;}
</style>
<g id="XMLID_28_">
	<g id="XMLID_29_">
		<path id="XMLID_30_" class="st0" d="M38.9,14.2c-0.7-0.9-1.8-1.4-3-1.4h-6.8l1.6-5.7c0.7-2.5-1.1-4.9-3.6-4.9
			c-1.1,0-2.2,0.5-2.9,1.3l-7.7,9.1c-0.1,0.2-0.3,0.3-0.5,0.3h-3.5V12c0-0.8-0.7-1.5-1.5-1.5H2c-0.8,0-1.5,0.7-1.5,1.5v23.9
			c0,0.8,0.7,1.5,1.5,1.5h9c0.8,0,1.5-0.7,1.5-1.5v-0.8h19.9c1.8,0,3.3-1.2,3.7-2.9l3.5-14.6C39.9,16.4,39.7,15.2,38.9,14.2z
			 M9.5,34.3H3.6V13.6h5.9C9.5,14.1,9.5,33.8,9.5,34.3z M36.7,16.8l-3.5,14.6c-0.1,0.3-0.4,0.6-0.7,0.6H12.6V15.9h3.5
			c1.1,0,2.2-0.5,2.9-1.3l7.7-9.1c0.5-0.6,1.5,0,1.2,0.8l-1.8,6.2c-0.5,1.7,0.8,3.4,2.6,3.4H36c0.3,0,0.5,0.2,0.5,0.3
			C36.7,16.3,36.7,16.6,36.7,16.8z"/>
	</g>
</g>
</svg>
