<?xml version="1.0" encoding="utf-8"?>
<!-- Generator: Adobe Illustrator 19.0.0, SVG Export Plug-In . SVG Version: 6.00 Build 0)  -->
<svg version="1.1" id="Layer_1" xmlns="http://www.w3.org/2000/svg" xmlns:xlink="http://www.w3.org/1999/xlink" x="0px" y="0px"
	 viewBox="0 0 20 20" style="enable-background:new 0 0 20 20;" xml:space="preserve">
<style type="text/css">
	.st0{fill:#2DACDD;stroke:#2DACDD;stroke-width:0.25;stroke-miterlimit:10;}
</style>
<path id="XMLID_5_" class="st0" d="M17.5,12.3c-1.1-1.1-2.8-1.1-3.9,0l-1,1c-0.4,0.4-1,0.4-1.4,0.1C9.5,12.1,8,10.6,6.7,9
	c-0.4-0.4-0.3-1,0.1-1.4l1-1c1.1-1.1,1.1-2.8,0-3.9L6.3,1.1C5.7,0.6,5,0.3,4.3,0.3s-1.4,0.3-2,0.8c-1.1,1.1-1.8,2.6-2,4.2
	C0.3,6.9,0.7,8.5,1.6,9.8c2.4,3.4,5.3,6.3,8.7,8.7c1.1,0.8,2.5,1.2,3.9,1.2c0.2,0,0.4,0,0.6,0c1.6-0.1,3.1-0.8,4.2-2
	c0.5-0.5,0.8-1.2,0.8-2c0-0.7-0.3-1.4-0.8-2L17.5,12.3z M10.8,17.8c-3.3-2.3-6.2-5.2-8.5-8.5C0.5,6.9,0.8,3.7,2.9,1.6
	c0.4-0.4,0.9-0.6,1.4-0.6c0.5,0,1,0.2,1.4,0.6l1.5,1.5C7.6,3.5,7.8,4,7.8,4.6S7.6,5.6,7.2,6L7.2,6L4.7,3.6c-0.1-0.1-0.4-0.1-0.5,0
	C4,3.7,4,4,4.2,4.1l2.5,2.5L6.2,7C5.5,7.7,5.5,8.7,6.1,9.4c1.4,1.6,2.9,3.2,4.5,4.5c0.7,0.6,1.8,0.6,2.5-0.1l0.4-0.4l4.3,4.3
	C15.8,19.3,12.9,19.4,10.8,17.8z M18.4,17.2C18.4,17.2,18.4,17.2,18.4,17.2C18.4,17.3,18.4,17.2,18.4,17.2L14,12.9l0.1-0.1
	c0.4-0.4,0.9-0.6,1.4-0.6c0.5,0,1,0.2,1.4,0.6l1.5,1.5c0.4,0.4,0.6,0.9,0.6,1.4C19,16.3,18.8,16.8,18.4,17.2z"/>
<path id="XMLID_4_" class="st0" d="M3.4,2.4c-0.1,0-0.2,0-0.3,0.1C3,2.6,3,2.7,3,2.8S3,3,3.1,3.1c0.1,0.1,0.2,0.1,0.3,0.1
	c0.1,0,0.2,0,0.3-0.1C3.7,3,3.8,2.9,3.8,2.8s0-0.2-0.1-0.3C3.6,2.5,3.5,2.4,3.4,2.4z"/>
<path id="XMLID_3_" class="st0" d="M8.7,14.2c-0.8-0.7-1.5-1.4-2.2-2.2c-0.1-0.2-0.4-0.2-0.5,0c-0.2,0.1-0.2,0.4,0,0.5
	c0.7,0.8,1.5,1.5,2.3,2.2c0.1,0.1,0.2,0.1,0.3,0.1c0.1,0,0.2,0,0.3-0.1C8.8,14.6,8.8,14.4,8.7,14.2z"/>
<path id="XMLID_2_" class="st0" d="M5.4,11c-0.1-0.2-0.4-0.2-0.5,0c-0.2,0.1-0.2,0.4,0,0.5l0,0c0.1,0.1,0.2,0.1,0.3,0.1
	c0.1,0,0.2,0,0.2-0.1C5.6,11.4,5.6,11.1,5.4,11L5.4,11z"/>
</svg>
