<?xml version="1.0" standalone="no"?>
<!DOCTYPE svg PUBLIC "-//W3C//DTD SVG 1.1//EN" "http://www.w3.org/Graphics/SVG/1.1/DTD/svg11.dtd" >
<svg xmlns="http://www.w3.org/2000/svg" xmlns:xlink="http://www.w3.org/1999/xlink" version="1.1">
<metadata>
Created by FontForge 20170731 at Fri Apr  9 14:40:07 2021
 By Aleksey,,,
Copyright 2017 The Bona Nova Project Authors (https://github.com/kosmynkab/Bona-Nova)
</metadata>
<defs>
<font id="BonaNova-Regular" horiz-adv-x="0" >
  <font-face 
    font-family="Bona Nova"
    font-weight="400"
    font-stretch="normal"
    units-per-em="1000"
    panose-1="0 0 0 0 0 0 0 0 0 0"
    ascent="800"
    descent="-200"
    x-height="440"
    cap-height="665"
    bbox="-417 -454.114 1482 1090"
    underline-thickness="50"
    underline-position="-225"
    unicode-range="U+000D-1F91E"
  />
<missing-glyph horiz-adv-x="830" 
d="M415 -10q-73 0 -137.5 27.5t-113.5 76.5t-76.5 113.5t-27.5 137.5q0 74 27.5 138t76.5 113t113.5 76.5t137.5 27.5q74 0 138 -27.5t113 -76.5t76.5 -113t27.5 -138q0 -73 -27.5 -137.5t-76.5 -113.5t-113 -76.5t-138 -27.5zM308 526q-22 0 -37.5 -26t-15.5 -63
q0 -35 15.5 -61t37.5 -26q23 0 38 26t15 61q0 37 -15 63t-38 26zM521 526q-22 0 -37.5 -26t-15.5 -63q0 -35 15.5 -61t37.5 -26q23 0 38 26t15 61q0 37 -15 63t-38 26zM593 134l26 10q-27 65 -83.5 100.5t-120.5 35.5t-120.5 -35.5t-83.5 -100.5l26 -10q31 62 79.5 86.5
t98.5 24.5t98.5 -24.5t79.5 -86.5z" />
    <glyph glyph-name="fi" unicode="fi" horiz-adv-x="602" 
d="M48 0v23q22 1 35 6t19 21t6 51v298h-69v41h69v71q0 99 45.5 164t125.5 94.5t181 20.5q12 -69 0 -138h-23q-5 46 -25.5 69t-70.5 23q-67 0 -110.5 -58t-43.5 -178v-68h116q31 0 67 3t70 8t57 10l6 -6q-1 -8 -2.5 -42.5t-1.5 -81.5v-230q0 -35 6.5 -51t25 -21t53.5 -6v-23
h-225v23q22 1 35 6t19 21t6 51v255q0 26 -11 34.5t-41 8.5h-149q-17 0 -24 -7t-7 -24v-267q0 -35 5.5 -51t19 -21t35.5 -6v-23h-199z" />
    <glyph glyph-name="fl" unicode="fl" horiz-adv-x="604" 
d="M48 0v23q22 1 35 6t19 21t6 51v298h-69v41h69v71q0 88 38 150t102 95.5t143 33.5q30 0 61 -4.5t53 -13.5q-1 -8 -2.5 -43t-1.5 -83v-545q0 -35 7 -51t25.5 -21t52.5 -6v-23h-225v23q22 1 35 6t19 21t6 51v553q1 46 -21.5 68t-57.5 22q-64 0 -109.5 -58.5t-45.5 -177.5
v-68h146v-41h-115q-17 0 -24 -7t-7 -24v-267q0 -35 5.5 -51t19 -21t35.5 -6v-23h-199z" />
    <glyph glyph-name="uniFEF5" unicode="&#xfedf;&#xfe82;" horiz-adv-x="582" arabic-form="isolated" 
d="M374 803q-29 -50 -75.5 -74.5t-105.5 -27.5q-32 -1 -57 5t-40 13.5t-18 8.5q-1 -2 -7 -12.5t-13.5 -22.5t-11.5 -19h-11q6 27 11 51.5t16.5 37.5t36.5 4q26 -9 55.5 -14t57.5 -4q42 2 80.5 15t69.5 41zM202 -29l12 83q36 4 63.5 19t50.5 47q36 52 57 109
q-20 32 -44.5 63.5t-51.5 61.5q-30 34 -61 64t-67 63q-14 -7 -32 -7q-18 7 -40 20t-37.5 29t-16.5 30q0 21 4 40t17 49h11q70 -51 134.5 -111t119.5 -128q22 -26 43 -53.5t40 -55.5q3 11 5 23q10 53 12.5 110.5t2.5 121.5q-1 20 -5.5 38t-9.5 37q-7 28 5.5 44t43.5 47
q6 -13 16 -33.5t25.5 -39.5t37.5 -30q-13 -26 -28 -43t-24 -30q-3 -73 -6.5 -127t-15.5 -106q-8 -38 -20 -74q36 -63 48.5 -125t-16.5 -116q-18 -4 -54.5 -8t-79 -7t-79.5 -5.5t-55 -2.5zM349 62l-2 -2q31 1 58.5 4.5t48.5 8.5q-4 24 -13.5 49t-22.5 50q-27 -56 -69 -110z
" />
    <glyph glyph-name="uniFEF6" unicode="&#xfee0;&#xfe82;" horiz-adv-x="713" arabic-form="final" 
d="M377 804q-30 -50 -75.5 -74.5t-104.5 -27.5q-32 -1 -56.5 5t-39.5 13.5t-18 8.5q-1 -2 -7 -12.5t-13.5 -22.5t-11.5 -19h-11q6 27 11 51.5t16.5 37.5t36.5 4t54.5 -14t57.5 -4q42 2 80 15t69 41zM465 326q33 120 12 299q-2 19 11 45t26 42h11q19 -109 30.5 -202.5
t23.5 -169.5q12 -77 27.5 -133t41.5 -85.5t68 -29.5q18 0 27.5 -14.5t9.5 -31.5t-9.5 -31.5t-27.5 -14.5q-56 0 -89.5 19.5t-53 60.5t-31.5 106.5t-26 157.5q-13 -103 -49.5 -176.5t-95.5 -121.5q-53 -43 -124.5 -66.5t-161.5 -30.5l-2 11q118 58 199 117t128 130
q-35 89 -91.5 166t-144.5 132q-7 -4 -19.5 -11.5t-20.5 -7.5q-18 7 -40 20t-38 29t-16 30q0 21 6 46.5t20 53.5h11q81 -41 153.5 -105.5t127 -142t82.5 -158.5q15 32 25 67z" />
    <glyph glyph-name="uniFEF7" unicode="&#xfedf;&#xfe84;" horiz-adv-x="582" arabic-form="isolated" 
d="M202 -29l12 83q36 4 63.5 19t50.5 47q36 52 57 109q-20 32 -44.5 63.5t-51.5 61.5q-30 34 -61 64t-67 63q-14 -7 -32 -7q-18 7 -40 20t-37.5 29t-16.5 30q0 21 4 40t17 49h11q70 -51 134.5 -111t119.5 -128q22 -26 43 -53.5t40 -55.5q3 11 5 23q10 53 12.5 110.5
t2.5 121.5q-1 20 -5.5 38t-9.5 37q-7 28 5.5 44t43.5 47q6 -13 16 -33.5t25.5 -39.5t37.5 -30q-13 -26 -28 -43t-24 -30q-3 -73 -6.5 -127t-15.5 -106q-8 -38 -20 -74q36 -63 48.5 -125t-16.5 -116q-18 -4 -54.5 -8t-79 -7t-79.5 -5.5t-55 -2.5zM349 62l-2 -2q31 1 58.5 4.5
t48.5 8.5q-4 24 -13.5 49t-22.5 50q-27 -56 -69 -110zM148 812q-3 17 -19.5 22.5t-33.5 0.5q-13 -4 -23.5 -13.5t-10.5 -24.5q0 -16 15.5 -25t43.5 -9q11 0 29 2t39 5l1 -3l-25 -42q-31 -2 -54.5 -6.5t-43.5 -14t-43 -28.5l-3 4q4 8 14 18.5t20 20.5t13 14q-34 15 -40 38
t22 57q21 25 48.5 36t48.5 6.5t21 -28.5q0 -15 -15 -30h-4z" />
    <glyph glyph-name="uniFEF8" unicode="&#xfee0;&#xfe84;" horiz-adv-x="713" arabic-form="final" 
d="M465 326q33 120 12 299q-2 19 11 45t26 42h11q19 -109 30.5 -202.5t23.5 -169.5q12 -77 27.5 -133t41.5 -85.5t68 -29.5q18 0 27.5 -14.5t9.5 -31.5t-9.5 -31.5t-27.5 -14.5q-56 0 -89.5 19.5t-53 60.5t-31.5 106.5t-26 157.5q-13 -103 -49.5 -176.5t-95.5 -121.5
q-53 -43 -124.5 -66.5t-161.5 -30.5l-2 11q118 58 199 117t128 130q-35 89 -91.5 166t-144.5 132q-7 -4 -19.5 -11.5t-20.5 -7.5q-18 7 -40 20t-38 29t-16 30q0 21 6 46.5t20 53.5h11q81 -41 153.5 -105.5t127 -142t82.5 -158.5q15 32 25 67zM138 812q-3 17 -19.5 22.5
t-33.5 0.5q-13 -4 -23.5 -13.5t-10.5 -24.5q0 -16 15.5 -25t43.5 -9q11 0 29 2t39 5l1 -3l-25 -42q-31 -2 -54.5 -6.5t-43.5 -14t-43 -28.5l-3 4q4 8 14 18.5t20 20.5t13 14q-34 15 -40 38t22 57q21 25 48.5 36t48.5 6.5t21 -28.5q0 -15 -15 -30h-4z" />
    <glyph glyph-name="uniFEF9" unicode="&#xfedf;&#xfe88;" horiz-adv-x="582" arabic-form="isolated" 
d="M202 -29l12 83q36 4 63.5 19t50.5 47q36 52 57 109q-20 32 -44.5 63.5t-51.5 61.5q-30 34 -61 64t-67 63q-14 -7 -32 -7q-18 7 -40 20t-37.5 29t-16.5 30q0 21 4 40t17 49h11q70 -51 134.5 -111t119.5 -128q22 -26 43 -53.5t40 -55.5q3 11 5 23q10 53 12.5 110.5
t2.5 121.5q-1 20 -5.5 38t-9.5 37q-7 28 5.5 44t43.5 47q6 -13 16 -33.5t25.5 -39.5t37.5 -30q-13 -26 -28 -43t-24 -30q-3 -73 -6.5 -127t-15.5 -106q-8 -38 -20 -74q36 -63 48.5 -125t-16.5 -116q-18 -4 -54.5 -8t-79 -7t-79.5 -5.5t-55 -2.5zM349 62l-2 -2q31 1 58.5 4.5
t48.5 8.5q-4 24 -13.5 49t-22.5 50q-27 -56 -69 -110zM348 -128q-3 17 -19.5 22.5t-33.5 0.5q-13 -4 -23.5 -13.5t-10.5 -24.5q0 -16 15.5 -25t43.5 -9q11 0 29 2t39 5l1 -3l-25 -42q-31 -2 -54.5 -6.5t-43.5 -14t-43 -28.5l-3 4q4 8 14 18.5t20 20.5t13 14q-34 15 -40 38
t22 57q21 25 48.5 36t48.5 6.5t21 -28.5q0 -15 -15 -30h-4z" />
    <glyph glyph-name="uniFEFA" unicode="&#xfee0;&#xfe88;" horiz-adv-x="713" arabic-form="final" 
d="M465 326q33 120 12 299q-2 19 11 45t26 42h11q19 -109 30.5 -202.5t23.5 -169.5q12 -77 27.5 -133t41.5 -85.5t68 -29.5q18 0 27.5 -14.5t9.5 -31.5t-9.5 -31.5t-27.5 -14.5q-56 0 -89.5 19.5t-53 60.5t-31.5 106.5t-26 157.5q-13 -103 -49.5 -176.5t-95.5 -121.5
q-53 -43 -124.5 -66.5t-161.5 -30.5l-2 11q118 58 199 117t128 130q-35 89 -91.5 166t-144.5 132q-7 -4 -19.5 -11.5t-20.5 -7.5q-18 7 -40 20t-38 29t-16 30q0 21 6 46.5t20 53.5h11q81 -41 153.5 -105.5t127 -142t82.5 -158.5q15 32 25 67zM428 -128q-3 17 -19.5 22.5
t-33.5 0.5q-13 -4 -23.5 -13.5t-10.5 -24.5q0 -16 15.5 -25t43.5 -9q11 0 29 2t39 5l1 -3l-25 -42q-31 -2 -54.5 -6.5t-43.5 -14t-43 -28.5l-3 4q4 8 14 18.5t20 20.5t13 14q-34 15 -40 38t22 57q21 25 48.5 36t48.5 6.5t21 -28.5q0 -15 -15 -30h-4z" />
    <glyph glyph-name="uniFEFB" unicode="&#xfedf;&#xfe8e;" horiz-adv-x="582" arabic-form="isolated" 
d="M202 -29l12 83q36 4 63.5 19t50.5 47q36 52 57 109q-20 32 -44.5 63.5t-51.5 61.5q-30 34 -61 64t-67 63q-14 -7 -32 -7q-18 7 -40 20t-37.5 29t-16.5 30q0 21 4 40t17 49h11q70 -51 134.5 -111t119.5 -128q22 -26 43 -53.5t40 -55.5q3 11 5 23q10 53 12.5 110.5
t2.5 121.5q-1 20 -5.5 38t-9.5 37q-7 28 5.5 44t43.5 47q6 -13 16 -33.5t25.5 -39.5t37.5 -30q-13 -26 -28 -43t-24 -30q-3 -73 -6.5 -127t-15.5 -106q-8 -38 -20 -74q36 -63 48.5 -125t-16.5 -116q-18 -4 -54.5 -8t-79 -7t-79.5 -5.5t-55 -2.5zM349 62l-2 -2q31 1 58.5 4.5
t48.5 8.5q-4 24 -13.5 49t-22.5 50q-27 -56 -69 -110z" />
    <glyph glyph-name="uniFEFC" unicode="&#xfee0;&#xfe8e;" horiz-adv-x="713" arabic-form="final" 
d="M465 326q33 120 12 299q-2 19 11 45t26 42h11q19 -109 30.5 -202.5t23.5 -169.5q12 -77 27.5 -133t41.5 -85.5t68 -29.5q18 0 27.5 -14.5t9.5 -31.5t-9.5 -31.5t-27.5 -14.5q-56 0 -89.5 19.5t-53 60.5t-31.5 106.5t-26 157.5q-13 -103 -49.5 -176.5t-95.5 -121.5
q-53 -43 -124.5 -66.5t-161.5 -30.5l-2 11q118 58 199 117t128 130q-35 89 -91.5 166t-144.5 132q-7 -4 -19.5 -11.5t-20.5 -7.5q-18 7 -40 20t-38 29t-16 30q0 21 6 46.5t20 53.5h11q81 -41 153.5 -105.5t127 -142t82.5 -158.5q15 32 25 67z" />
    <glyph glyph-name="f_f" unicode="ff" horiz-adv-x="643" 
d="M48 0v23q22 1 35 6t19 21t6 51v298h-69v41h69v46q0 88 39 150t108 95.5t157 33.5q66 0 117 -14q74 50 184 39q12 -69 0 -138h-23q-4 46 -20 69t-51 23q-118 0 -118 -236v-68h148v-41h-117q-17 0 -24 -7t-7 -24v-267q0 -35 7.5 -51t30 -21t67.5 -6v-23h-245v23q22 1 35 6
t19 21t6 51v298h-203q-17 0 -24 -7t-7 -24v-267q0 -35 6 -51t19 -21t35 -6v-23h-199zM187 483v-43h234v71q0 52 11 95.5t31 76.5q-13 17 -36 26.5t-58 9.5q-81 0 -131.5 -58.5t-50.5 -177.5z" />
    <glyph glyph-name="f_f_i" unicode="ffi" horiz-adv-x="915" 
d="M48 0v23q22 1 35 6t19 21t6 51v298h-69v41h69v46q0 88 39 150t108 95.5t157 33.5q37 0 73 -5t59 -14q92 55 229 44q12 -69 0 -138h-23q-5 46 -25.5 69t-70.5 23q-67 0 -110.5 -58t-43.5 -178v-68h116q31 0 67 3t70 8t57 10l6 -6q-1 -8 -2.5 -42.5t-1.5 -81.5v-230
q0 -35 6.5 -51t25 -21t53.5 -6v-23h-225v23q22 1 35 6t19 21t6 51v255q0 26 -11 34.5t-41 8.5h-149q-17 0 -24 -7t-7 -24v-267q0 -35 5.5 -51t19 -21t35.5 -6v-23h-199v23q22 1 35 6t19 21t6 51v298h-203q-17 0 -24 -7t-7 -24v-267q0 -35 6 -51t19 -21t35 -6v-23h-199z
M187 483v-43h234v71q0 50 12 91t35 74q-12 20 -36.5 31.5t-62.5 11.5q-81 0 -131.5 -58.5t-50.5 -177.5z" />
    <glyph glyph-name="f_f_iacute.liga" unicode="ff&#xed;" horiz-adv-x="915" 
d="M48 0v23q22 1 35 6t19 21t6 51v298h-69v41h69v46q0 88 39 150t108 95.5t157 33.5q66 0 117 -14q74 50 184 39q12 -69 0 -138h-23q-4 46 -20 69t-51 23q-118 0 -118 -236v-68h115q31 0 67 3t70 8t57 10l6 -6q-1 -8 -2.5 -42.5t-1.5 -81.5v-230q0 -35 6.5 -51t25 -21
t53.5 -6v-23h-225v23q22 1 35 6t19 21t6 51v255q0 18 -6.5 27t-28.5 12.5t-67 3.5h-98q-17 0 -24 -7t-7 -24v-267q0 -35 7.5 -51t30 -21t67.5 -6v-23h-245v23q22 1 35 6t19 21t6 51v298h-203q-17 0 -24 -7t-7 -24v-267q0 -35 6 -51t19 -21t35 -6v-23h-199zM830 734
q18 1 39.5 -6.5t34.5 -22.5q-22 -45 -64 -91.5t-88 -75.5l-11 19q35 38 57.5 85.5t31.5 91.5zM187 483v-43h234v71q0 52 11 95.5t31 76.5q-13 17 -36 26.5t-58 9.5q-81 0 -131.5 -58.5t-50.5 -177.5z" />
    <glyph glyph-name="f_f_l" unicode="ffl" horiz-adv-x="917" 
d="M48 0v23q22 1 35 6t19 21t6 51v298h-69v41h69v46q0 88 39 150t108 95.5t157 33.5q36 0 72 -5t59 -13q70 43 161 43q30 0 61 -4.5t53 -13.5q-1 -8 -2.5 -43t-1.5 -83v-545q0 -35 7 -51t25.5 -21t52.5 -6v-23h-225v23q22 1 35 6t19 21t6 51v553q1 46 -21.5 68t-57.5 22
q-64 0 -109.5 -58.5t-45.5 -177.5v-68h146v-41h-115q-17 0 -24 -7t-7 -24v-267q0 -35 5.5 -51t19 -21t35.5 -6v-23h-199v23q22 1 35 6t19 21t6 51v298h-203q-17 0 -24 -7t-7 -24v-267q0 -35 6 -51t19 -21t35 -6v-23h-199zM187 483v-43h234v71q0 49 12.5 90.5t34.5 73.5
q-11 20 -35.5 32t-63.5 12q-81 0 -131.5 -58.5t-50.5 -177.5z" />
    <glyph glyph-name="f_iacute.liga" unicode="f&#xed;" horiz-adv-x="602" 
d="M499 101q0 -35 6.5 -51t25 -21t53.5 -6v-23h-225v23q22 1 35 6t19 21t6 51v255q0 18 -6.5 27t-28.5 12.5t-67 3.5h-98q-17 0 -24 -7t-7 -24v-267q0 -35 7.5 -51t30 -21t67.5 -6v-23h-245v23q22 1 35 6t19 21t6 51v298h-69v41h69v71q0 99 37 164t103 94.5t152 20.5
q12 -69 0 -138h-23q-4 46 -20 69t-51 23q-118 0 -118 -236v-68h115q31 0 67 3t70 8t57 10l6 -6q-1 -8 -2.5 -42.5t-1.5 -81.5v-230zM517 734q18 1 39.5 -6.5t34.5 -22.5q-22 -45 -64 -91.5t-88 -75.5l-11 19q35 38 57.5 85.5t31.5 91.5z" />
    <glyph glyph-name="lam_alefWaslaar" unicode="&#xfedf;&#xfb51;" horiz-adv-x="578" 
d="M202 -29l12 83q36 4 63.5 19t50.5 47q36 52 57 109q-20 32 -44.5 63.5t-51.5 61.5q-30 34 -61 64t-67 63q-14 -7 -32 -7q-18 7 -40 20t-37.5 29t-16.5 30q0 21 4 40t17 49h11q70 -51 134.5 -111t119.5 -128q22 -26 43 -53.5t40 -55.5q3 11 5 23q10 53 12.5 110.5
t2.5 121.5q-1 20 -5.5 38t-9.5 37q-7 28 5.5 44t43.5 47q6 -13 16 -33.5t25.5 -39.5t37.5 -30q-13 -26 -28 -43t-24 -30q-3 -73 -6.5 -127t-15.5 -106q-8 -38 -20 -74q36 -63 48.5 -125t-16.5 -116q-18 -4 -54.5 -8t-79 -7t-79.5 -5.5t-55 -2.5zM349 62l-2 -2q31 1 58.5 4.5
t48.5 8.5q-4 24 -13.5 49t-22.5 50q-27 -56 -69 -110zM194 827q21 0 30.5 -13.5t8.5 -33.5t-11.5 -39.5t-30 -32t-46.5 -10.5q-42 4 -62.5 4.5t-26 -4.5t-4.5 -19l-7 -4q-19 24 -10 46.5t40 22.5h7q28 40 56 61.5t56 21.5zM211 771q1 5 -8 13t-27 8q-13 0 -32 -11.5
t-39 -36.5q11 -1 22.5 -1.5t22.5 -1.5q28 -1 44 11t17 19z" />
    <glyph glyph-name="lam_alefWaslaar.fina" unicode="&#xfee0;&#xfb51;" horiz-adv-x="713" 
d="M465 326q33 120 12 299q-2 19 11 45t26 42h11q19 -109 30.5 -202.5t23.5 -169.5q12 -77 27.5 -133t41.5 -85.5t68 -29.5q18 0 27.5 -14.5t9.5 -31.5t-9.5 -31.5t-27.5 -14.5q-56 0 -89.5 19.5t-53 60.5t-31.5 106.5t-26 157.5q-13 -103 -49.5 -176.5t-95.5 -121.5
q-53 -43 -124.5 -66.5t-161.5 -30.5l-2 11q118 58 199 117t128 130q-35 89 -91.5 166t-144.5 132q-7 -4 -19.5 -11.5t-20.5 -7.5q-18 7 -40 20t-38 29t-16 30q0 21 6 46.5t20 53.5h11q81 -41 153.5 -105.5t127 -142t82.5 -158.5q15 32 25 67zM183 827q21 0 30.5 -13.5
t8.5 -33.5t-11.5 -39.5t-30 -32t-46.5 -10.5q-42 4 -62.5 4.5t-26 -4.5t-4.5 -19l-7 -4q-19 24 -10 46.5t40 22.5h7q28 40 56 61.5t56 21.5zM200 771q1 5 -8 13t-27 8q-13 0 -32 -11.5t-39 -36.5q11 -1 22.5 -1.5t22.5 -1.5q28 -1 44 11t17 19z" />
    <glyph glyph-name="uni066E.init" unicode="&#x66e;" horiz-adv-x="363" 
d="M213 410q50 -61 73.5 -128t23.5 -120q0 -25 -5 -47.5t-19 -37.5q-30 -33 -66 -49.5t-88.5 -22t-132.5 -5.5q-27 0 -48 14.5t-21 30.5q-1 18 20.5 32.5t48.5 14.5q52 0 105 3.5t96.5 13t65.5 27.5q-7 54 -34 101.5t-57 74.5l26 98h12z" />
    <glyph glyph-name="uni066E.medi" unicode="&#x66e;" horiz-adv-x="384" 
d="M167 222q0 35 11 58t29 47h15q-5 -64 11.5 -117.5t55 -85.5t96.5 -32h5q16 0 25 -12.5t9 -27.5v-10q0 -16 -8.5 -29t-25.5 -13h-25q-47 0 -85.5 22t-64.5 58q-26 -50 -81.5 -65t-133.5 -15q-35 0 -52.5 14.5t-17.5 31.5q-1 17 17 31.5t53 14.5q69 0 116 4.5t75 21.5
q-24 50 -24 104z" />
    <glyph glyph-name="uni066E.fina" unicode="&#x66e;" horiz-adv-x="1034" 
d="M95 280q-12 -33 -12 -60q0 -49 33.5 -79.5t88 -47t119.5 -23t127 -6.5q51 0 107 4t110.5 11.5t100 17t73.5 19.5q-25 51 -25 106q0 35 11 58t29 47h15q-5 -64 11.5 -117.5t55 -85.5t96.5 -32h5q16 0 25 -12.5t9 -27.5v-10q0 -16 -8.5 -29t-25.5 -13h-25q-42 0 -78 18.5
t-62 48.5q-56 -39 -132.5 -59.5t-158 -28.5t-153.5 -8t-143 7.5t-129 27.5t-92.5 55.5t-34.5 92.5q0 56 38 131z" />
    <glyph glyph-name="uni066F.fina" unicode="&#x66f;" horiz-adv-x="639" 
d="M105 103q-38 -123 -2 -192q41 -81 172 -84q59 -1 105 9.5t86.5 32.5t82.5 56q5 17 4 35.5t-6 39.5h-36q-84 0 -134 26t-50 66q0 25 10.5 54t27.5 56q23 37 52.5 63t54.5 26q26 0 49.5 -27.5t41.5 -68.5q10 -24 18.5 -50.5t13.5 -52.5h45q19 0 29 -10.5t10 -24.5v-16
q0 -41 -39 -41h-37q-2 -57 -18.5 -97t-49.5 -69t-84 -54q-46 -22 -95 -32t-105 -9q-99 2 -154.5 51t-63.5 123q-4 44 9.5 94t46.5 100zM377 137q9 -24 32 -33.5t55 -10.5t67 -1q-8 36 -29 67q-16 22 -35 36t-35 14q-14 0 -27 -11.5t-20.5 -28.5t-7.5 -32z" />
    <glyph glyph-name="uni06A1.init" unicode="&#x6a1;" horiz-adv-x="442" 
d="M160 0h-158q-28 0 -50 13.5t-22 32.5q0 20 22 33t50 13h134q60 0 96.5 5t60 16.5t44.5 30.5q2 16 -1 35t-10 41q-16 -29 -40.5 -41t-50.5 -13q-27 -1 -52.5 9.5t-41.5 30t-16 44.5q0 30 8.5 63.5t23 62.5t34 48.5t40.5 22.5q28 4 55 -15t49.5 -54t36.5 -79.5t15 -90.5
q3 -97 -53.5 -152.5t-173.5 -55.5zM302 287q-13 35 -35 54t-45 19q-22 0 -38.5 -17.5t-19.5 -53.5q5 -15 27 -22.5t45 -7.5t42.5 7t23.5 21z" />
    <glyph glyph-name="uni06A1.medi" unicode="&#x6a1;" horiz-adv-x="424" 
d="M285 371q23 -1 38 -20t22 -47.5t7.5 -57.5t-5.5 -52q-4 -23 -19.5 -48.5t-31.5 -42.5q22 -7 56.5 -9t71.5 -2q20 0 30 -15.5t10 -33.5q0 -16 -9 -29.5t-27 -13.5h-20q-128 0 -216 51q-54 -25 -96 -38t-96 -13q-34 0 -52 14.5t-19 31.5q0 17 17.5 31.5t53.5 14.5
q35 0 63.5 3t60.5 13q-19 29 -16 62.5t19 67.5q17 35 42.5 66t55.5 50t60 17zM307 198q1 16 -6 33t-17 32q-9 14 -20.5 15.5t-25.5 -1.5q-28 -8 -53 -27.5t-30 -40.5q2 -24 20.5 -42.5t37.5 -26.5q13 3 33.5 12.5t38.5 22t22 23.5z" />
    <glyph glyph-name="uni06A1.fina" unicode="&#x6a1;" horiz-adv-x="962" 
d="M962 92q21 0 30.5 -15t9.5 -33q0 -16 -10 -30t-30 -14q-72 0 -125 12.5t-97 38.5q-76 -34 -167 -52t-182 -20q-106 -1 -186.5 16.5t-127.5 55t-53 97t36 143.5l25 -5q-22 -57 -3.5 -97.5t65.5 -65.5t113 -37t139 -13q68 -1 138 8t135 27q-19 29 -16 63t19 67
q17 35 42.5 66t56 50t59.5 17q23 -1 38 -20t22 -47.5t7.5 -57.5t-5.5 -52q-4 -23 -19.5 -48.5t-31.5 -42.5q6 -3 26.5 -5.5t46 -4t45.5 -1.5zM761 140q13 3 33.5 12.5t38.5 22t22 23.5q1 16 -6 33t-17 32q-9 14 -20.5 15.5t-25.5 -1.5q-28 -8 -53 -27.5t-30 -40.5
q2 -24 20.5 -42.5t37.5 -26.5z" />
    <glyph glyph-name="uniFB51" unicode="&#x671;" horiz-adv-x="232" arabic-form="final" 
d="M237 0q-47 0 -74 12.5t-40 40.5t-19 75q-4 35 -10.5 101t-15 149.5t-18.5 170.5l57 83l14 -3q11 -119 16.5 -218.5t8.5 -165.5t6 -86q6 -42 19 -54.5t38 -12.5h24q13 0 21 -12t8 -30v-10q0 -23 -11 -31.5t-24 -8.5zM172 807q21 0 30.5 -13.5t8.5 -33.5t-11.5 -39.5
t-30 -32t-46.5 -10.5q-42 4 -62.5 4.5t-26 -4.5t-4.5 -19l-7 -4q-19 24 -10 46.5t40 22.5h7q28 40 56 61.5t56 21.5zM189 751q1 5 -8 13t-27 8q-13 0 -32 -11.5t-39 -36.5q11 -1 22.5 -1.5t22.5 -1.5q28 -1 44 11t17 19z" />
    <glyph glyph-name="uniFB6B" unicode="&#x6a4;" horiz-adv-x="962" arabic-form="final" 
d="M962 92q21 0 30.5 -15t9.5 -33q0 -16 -10 -30t-30 -14q-72 0 -125 12.5t-97 38.5q-76 -34 -167 -52t-182 -20q-106 -1 -186.5 16.5t-127.5 55t-53 97t36 143.5l25 -5q-22 -57 -3.5 -97.5t65.5 -65.5t113 -37t139 -13q68 -1 138 8t135 27q-19 29 -16 63t19 67
q17 35 42.5 66t56 50t59.5 17q23 -1 38 -20t22 -47.5t7.5 -57.5t-5.5 -52q-4 -23 -19.5 -48.5t-31.5 -42.5q6 -3 26.5 -5.5t46 -4t45.5 -1.5zM761 140q13 3 33.5 12.5t38.5 22t22 23.5q1 16 -6 33t-17 32q-9 14 -20.5 15.5t-25.5 -1.5q-28 -8 -53 -27.5t-30 -40.5
q2 -24 20.5 -42.5t37.5 -26.5zM812 530q-1 2 -12 13l-24 24l-21 21v5l57 57h4q14 -13 29 -28t27 -29v-5l-56 -58h-4zM948 458l-56 -58h-4q-1 2 -12 13l-24 24l-21 21v5l57 57h4q14 -13 29 -28t27 -29v-5zM677 458v5l57 57h4q14 -13 29 -28t27 -29v-5l-56 -58h-4q-1 2 -12 13
l-24 24z" />
    <glyph glyph-name="uniFB6C" unicode="&#x6a4;" horiz-adv-x="442" arabic-form="initial" 
d="M160 0h-158q-28 0 -50 13.5t-22 32.5q0 20 22 33t50 13h134q60 0 96.5 5t60 16.5t44.5 30.5q2 16 -1 35t-10 41q-16 -29 -40.5 -41t-50.5 -13q-27 -1 -52.5 9.5t-41.5 30t-16 44.5q0 30 8.5 63.5t23 62.5t34 48.5t40.5 22.5q28 4 55 -15t49.5 -54t36.5 -79.5t15 -90.5
q3 -97 -53.5 -152.5t-173.5 -55.5zM302 287q-13 35 -35 54t-45 19q-22 0 -38.5 -17.5t-19.5 -53.5q5 -15 27 -22.5t45 -7.5t42.5 7t23.5 21zM232 620q-1 2 -12 13l-24 24l-21 21v5l57 57h4q14 -13 29 -28t27 -29v-5l-56 -58h-4zM368 548l-56 -58h-4q-1 2 -12 13l-24 24
l-21 21v5l57 57h4q14 -13 29 -28t27 -29v-5zM97 548v5l57 57h4q14 -13 29 -28t27 -29v-5l-56 -58h-4q-1 2 -12 13l-24 24z" />
    <glyph glyph-name="uniFB6D" unicode="&#x6a4;" horiz-adv-x="414" arabic-form="medial" 
d="M285 371q23 -1 38 -20t22 -47.5t7.5 -57.5t-5.5 -52q-4 -23 -19.5 -48.5t-31.5 -42.5q22 -7 56.5 -9t71.5 -2q20 0 30 -15.5t10 -33.5q0 -16 -9 -29.5t-27 -13.5h-20q-128 0 -216 51q-54 -25 -96 -38t-96 -13q-34 0 -52 14.5t-19 31.5q0 17 17.5 31.5t53.5 14.5
q35 0 63.5 3t60.5 13q-19 29 -16 62.5t19 67.5q17 35 42.5 66t55.5 50t60 17zM307 198q1 16 -6 33t-17 32q-9 14 -20.5 15.5t-25.5 -1.5q-28 -8 -53 -27.5t-30 -40.5q2 -24 20.5 -42.5t37.5 -26.5q13 3 33.5 12.5t38.5 22t22 23.5zM262 540q-1 2 -12 13l-24 24l-21 21v5
l57 57h4q14 -13 29 -28t27 -29v-5l-56 -58h-4zM398 468l-56 -58h-4q-1 2 -12 13l-24 24l-21 21v5l57 57h4q14 -13 29 -28t27 -29v-5zM127 468v5l57 57h4q14 -13 29 -28t27 -29v-5l-56 -58h-4q-1 2 -12 13l-24 24z" />
    <glyph glyph-name="uniFB9F" unicode="&#x6ba;" horiz-adv-x="697" arabic-form="final" 
d="M696 92q21 0 31 -14.5t10 -31.5t-10.5 -31.5t-30.5 -14.5q-26 0 -48 9t-39 28q-1 -55 -28.5 -102t-74 -81.5t-105.5 -54t-124 -19.5q-107 0 -163.5 52t-56.5 145q0 40 10.5 80.5t23.5 78.5l22 -2q-31 -121 20 -188.5t176 -67.5q74 0 139 31.5t119 77.5q5 34 -3.5 70
t-25.5 71t-37 63l38 72h7q16 -25 28.5 -48.5t24.5 -43.5q20 -35 41.5 -57t55.5 -22z" />
    <glyph glyph-name="uniFE82" unicode="&#x622;" horiz-adv-x="232" arabic-form="final" 
d="M237 0q-47 0 -74 12.5t-40 40.5t-19 75q-4 35 -10.5 101t-15 149.5t-18.5 170.5l57 83l14 -3q11 -119 16.5 -218.5t8.5 -165.5t6 -86q6 -42 19 -54.5t38 -12.5h24q13 0 21 -12t8 -30v-10q0 -23 -11 -31.5t-24 -8.5zM262 783q-25 -50 -65.5 -74.5t-91.5 -27.5
q-28 -1 -49.5 5t-34.5 13.5t-16 8.5q-1 -2 -6.5 -12.5t-11.5 -22.5t-10 -19h-10q6 27 10.5 51.5t14.5 37.5t31 4q23 -9 48.5 -14t49.5 -4q37 2 70.5 15t60.5 41z" />
    <glyph glyph-name="uniFE84" unicode="&#x623;" horiz-adv-x="232" arabic-form="final" 
d="M237 0q-47 0 -74 12.5t-40 40.5t-19 75q-4 35 -10.5 101t-15 149.5t-18.5 170.5l57 83l14 -3q11 -119 16.5 -218.5t8.5 -165.5t6 -86q6 -42 19 -54.5t38 -12.5h24q13 0 21 -12t8 -30v-10q0 -23 -11 -31.5t-24 -8.5zM138 772q-3 17 -19.5 22.5t-33.5 0.5
q-13 -4 -23.5 -13.5t-10.5 -24.5q0 -16 15.5 -25t43.5 -9q11 0 29 2t39 5l1 -3l-25 -42q-31 -2 -54.5 -6.5t-43.5 -14t-43 -28.5l-3 4q4 8 14 18.5t20 20.5t13 14q-34 15 -40 38t22 57q21 25 48.5 36t48.5 6.5t21 -28.5q0 -15 -15 -30h-4z" />
    <glyph glyph-name="uniFE86" unicode="&#x624;" horiz-adv-x="373" arabic-form="final" 
d="M125 427l-3 4q4 8 15.5 20t22 23t14.5 15q-38 17 -44.5 42t24.5 63q22 27 53 39.5t54 7t23 -31.5q0 -16 -17 -33h-4q-3 18 -21.5 24t-36.5 2q-15 -5 -26.5 -15.5t-11.5 -26.5q0 -18 17 -28t48 -10q12 0 32 2.5t43 5.5l1 -3l-28 -46q-34 -3 -59.5 -7.5t-47.5 -15.5
t-48 -31zM231 0q-22 0 -51.5 4.5t-57 15.5t-45.5 30.5t-18 48.5q0 20 9 55.5t24 69.5q25 58 57.5 92t67.5 34q37 0 64 -36t43 -86q11 -33 16.5 -69t6.5 -67h26q21 0 30.5 -13t9.5 -33q0 -19 -9.5 -32.5t-30.5 -13.5h-36q-7 -33 -22.5 -72t-36.5 -76.5t-45.5 -68t-49.5 -47.5
q-19 -13 -38 -17t-44 -3q-19 1 -56.5 4.5t-81 12t-80.5 21.5v8q93 -3 177.5 24.5t144.5 82t80 131.5h-54zM266 92h31q-5 36 -20.5 71t-34.5 60q-30 39 -58 39q-22 0 -39 -20t-26.5 -45t-9.5 -40q0 -26 25 -40t61.5 -19.5t70.5 -5.5z" />
    <glyph glyph-name="uniFE88" unicode="&#x625;" horiz-adv-x="239" arabic-form="final" 
d="M239 0q-47 0 -73 12.5t-37.5 40.5t-17.5 75q-3 28 -8 76t-11.5 109.5t-14 130.5t-16.5 138l62 96l13 -2q9 -97 14.5 -183.5t9 -156t5.5 -115.5t4 -62q6 -42 22.5 -54.5t47.5 -12.5q20 0 30.5 -14.5t9.5 -31.5q0 -17 -10 -31.5t-30 -14.5zM178 -128q-3 17 -19.5 22.5
t-33.5 0.5q-13 -4 -23.5 -13.5t-10.5 -24.5q0 -16 15.5 -25t43.5 -9q11 0 29 2t39 5l1 -3l-25 -42q-31 -2 -54.5 -6.5t-43.5 -14t-43 -28.5l-3 4q4 8 14 18.5t20 20.5t13 14q-34 15 -40 38t22 57q21 25 48.5 36t48.5 6.5t21 -28.5q0 -15 -15 -30h-4z" />
    <glyph glyph-name="uniFE8A" unicode="&#x626;" horiz-adv-x="773" arabic-form="final" 
d="M165 297l-3 4q4 8 15.5 20t22 23t14.5 15q-38 17 -44.5 42t24.5 63q22 27 53 39.5t54 7t23 -31.5q0 -16 -17 -33h-4q-3 18 -21.5 24t-36.5 2q-15 -5 -26.5 -15.5t-11.5 -26.5q0 -18 17 -28t48 -10q12 0 32 2.5t43 5.5l1 -3l-28 -46q-34 -3 -59.5 -7.5t-47.5 -15
t-48 -31.5zM454 2q8 44 34 67t54 23h230q22 0 31.5 -14.5t9.5 -31.5t-9.5 -30.5t-31.5 -13.5h-47q13 -16 20.5 -35.5t7.5 -40.5q0 -47 -34 -82t-89.5 -58t-121.5 -34t-130 -11q-106 0 -175 27.5t-102.5 76t-33.5 109.5q0 45 18 96t58 103l16 -7q-21 -40 -30.5 -76.5
t-9.5 -66.5q0 -85 70 -133.5t193 -48.5q39 0 85.5 5.5t93.5 17t87.5 29.5t65.5 44q-4 26 -40 44.5t-93.5 28.5t-126.5 10l3 2h-3z" />
    <glyph glyph-name="uniFE8B" unicode="&#x626;" horiz-adv-x="363" arabic-form="initial" 
d="M65 413l-3 4q4 8 15.5 20t22 23t14.5 15q-38 17 -44.5 42t24.5 63q22 27 53 39.5t54 7t23 -31.5q0 -16 -17 -33h-4q-3 18 -21.5 24t-36.5 2q-15 -5 -26.5 -15.5t-11.5 -26.5q0 -18 17 -28t48 -10q12 0 32 2.5t43 5.5l1 -3l-28 -46q-34 -3 -59.5 -7.5t-47.5 -15.5t-48 -31
zM-1 0q-27 0 -48 14.5t-21 30.5q-1 18 20.5 32.5t48.5 14.5q52 0 105 3.5t96.5 13t65.5 27.5q-7 54 -34 101.5t-57 74.5l26 98h12q50 -61 73.5 -128t23.5 -120q0 -25 -5 -47.5t-19 -37.5q-30 -33 -66 -49.5t-88.5 -22t-132.5 -5.5z" />
    <glyph glyph-name="uniFE8C" unicode="&#x626;" horiz-adv-x="384" arabic-form="medial" 
d="M55 367l-3 4q4 8 15.5 20t22 23t14.5 15q-38 17 -44.5 42t24.5 63q22 27 53 39.5t54 7t23 -31.5q0 -16 -17 -33h-4q-3 18 -21.5 24t-36.5 2q-15 -5 -26.5 -15.5t-11.5 -26.5q0 -18 17 -28t48 -10q12 0 32 2.5t43 5.5l1 -3l-28 -46q-34 -3 -59.5 -7.5t-47.5 -15.5t-48 -31
zM0 0q-35 0 -52.5 14.5t-17.5 31.5q-1 17 17 31.5t53 14.5q69 0 116 4.5t75 21.5q-24 50 -24 104q0 35 11 58t29 47h15q-5 -64 11.5 -117.5t55 -85.5t96.5 -32h5q16 0 25 -12.5t9 -27.5v-10q0 -16 -8.5 -29t-25.5 -13h-25q-47 0 -85.5 22t-64.5 58q-26 -50 -81.5 -65
t-133.5 -15z" />
    <glyph glyph-name="uniFE8E" unicode="&#x627;" horiz-adv-x="239" arabic-form="final" 
d="M239 0q-47 0 -73 12.5t-37.5 40.5t-17.5 75q-3 28 -8 76t-11.5 109.5t-14 130.5t-16.5 138l62 96l13 -2q9 -97 14.5 -183.5t9 -156t5.5 -115.5t4 -62q6 -42 22.5 -54.5t47.5 -12.5q20 0 30.5 -14.5t9.5 -31.5q0 -17 -10 -31.5t-30 -14.5z" />
    <glyph glyph-name="uniFE90" unicode="&#x628;" horiz-adv-x="1034" arabic-form="final" 
d="M95 280q-12 -33 -12 -60q0 -49 33.5 -79.5t88 -47t119.5 -23t127 -6.5q51 0 107 4t110.5 11.5t100 17t73.5 19.5q-25 51 -25 106q0 35 11 58t29 47h15q-5 -64 11.5 -117.5t55 -85.5t96.5 -32h5q16 0 25 -12.5t9 -27.5v-10q0 -16 -8.5 -29t-25.5 -13h-25q-42 0 -78 18.5
t-62 48.5q-56 -39 -132.5 -59.5t-158 -28.5t-153.5 -8t-143 7.5t-129 27.5t-92.5 55.5t-34.5 92.5q0 56 38 131zM522 -206q-1 2 -12 13l-24 24l-21 21v5l57 57h4q14 -13 29 -28t27 -29v-5l-56 -58h-4z" />
    <glyph glyph-name="uniFE91" unicode="&#x628;" horiz-adv-x="363" arabic-form="initial" 
d="M213 410q50 -61 73.5 -128t23.5 -120q0 -25 -5 -47.5t-19 -37.5q-30 -33 -66 -49.5t-88.5 -22t-132.5 -5.5q-27 0 -48 14.5t-21 30.5q-1 18 20.5 32.5t48.5 14.5q52 0 105 3.5t96.5 13t65.5 27.5q-7 54 -34 101.5t-57 74.5l26 98h12zM152 -206q-1 2 -12 13l-24 24l-21 21
v5l57 57h4q14 -13 29 -28t27 -29v-5l-56 -58h-4z" />
    <glyph glyph-name="uniFE92" unicode="&#x628;" horiz-adv-x="384" arabic-form="medial" 
d="M167 222q0 35 11 58t29 47h15q-5 -64 11.5 -117.5t55 -85.5t96.5 -32h5q16 0 25 -12.5t9 -27.5v-10q0 -16 -8.5 -29t-25.5 -13h-25q-47 0 -85.5 22t-64.5 58q-26 -50 -81.5 -65t-133.5 -15q-35 0 -52.5 14.5t-17.5 31.5q-1 17 17 31.5t53 14.5q69 0 116 4.5t75 21.5
q-24 50 -24 104zM172 -206q-1 2 -12 13l-24 24l-21 21v5l57 57h4q14 -13 29 -28t27 -29v-5l-56 -58h-4z" />
    <glyph glyph-name="uniFE94" unicode="&#x629;" horiz-adv-x="501" arabic-form="final" 
d="M354 531q15 -100 27 -173t23 -129q11 -51 20 -81t26 -43t52 -13q20 0 29.5 -14t9.5 -31t-9.5 -32t-29.5 -15q-65 0 -96.5 39t-52.5 123q-29 -54 -72 -78t-87 -24q-58 0 -96.5 33.5t-38.5 83.5q0 38 21 76t56 70.5t77.5 56.5t85.5 34q-3 14 -6 28.5t-6 29.5l57 59h10z
M103 236q0 -33 18 -54t46.5 -31t60.5 -10q34 0 66 13.5t51 43.5q-3 12 -5.5 25t-5.5 27q-4 20 -9 42.5t-10 47.5q-39 -5 -80.5 -17.5t-76.5 -33.5t-55 -53zM328 580q-1 2 -12 13l-24 24l-21 21v5l57 57h4q14 -13 29 -28t27 -29v-5l-56 -58h-4zM174 580q-1 2 -12 13l-24 24
l-21 21v5l57 57h4q14 -13 29 -28t27 -29v-5l-56 -58h-4z" />
    <glyph glyph-name="uniFE96" unicode="&#x62a;" horiz-adv-x="1034" arabic-form="final" 
d="M95 280q-12 -33 -12 -60q0 -49 33.5 -79.5t88 -47t119.5 -23t127 -6.5q51 0 107 4t110.5 11.5t100 17t73.5 19.5q-25 51 -25 106q0 35 11 58t29 47h15q-5 -64 11.5 -117.5t55 -85.5t96.5 -32h5q16 0 25 -12.5t9 -27.5v-10q0 -16 -8.5 -29t-25.5 -13h-25q-42 0 -78 18.5
t-62 48.5q-56 -39 -132.5 -59.5t-158 -28.5t-153.5 -8t-143 7.5t-129 27.5t-92.5 55.5t-34.5 92.5q0 56 38 131zM608 350q-1 2 -12 13l-24 24l-21 21v5l57 57h4q14 -13 29 -28t27 -29v-5l-56 -58h-4zM454 350q-1 2 -12 13l-24 24l-21 21v5l57 57h4q14 -13 29 -28t27 -29v-5
l-56 -58h-4z" />
    <glyph glyph-name="uniFE97" unicode="&#x62a;" horiz-adv-x="363" arabic-form="initial" 
d="M213 410q50 -61 73.5 -128t23.5 -120q0 -25 -5 -47.5t-19 -37.5q-30 -33 -66 -49.5t-88.5 -22t-132.5 -5.5q-27 0 -48 14.5t-21 30.5q-1 18 20.5 32.5t48.5 14.5q52 0 105 3.5t96.5 13t65.5 27.5q-7 54 -34 101.5t-57 74.5l26 98h12zM248 470q-1 2 -12 13l-24 24l-21 21
v5l57 57h4q14 -13 29 -28t27 -29v-5l-56 -58h-4zM94 470q-1 2 -12 13l-24 24l-21 21v5l57 57h4q14 -13 29 -28t27 -29v-5l-56 -58h-4z" />
    <glyph glyph-name="uniFE98" unicode="&#x62a;" horiz-adv-x="384" arabic-form="medial" 
d="M167 222q0 35 11 58t29 47h15q-5 -64 11.5 -117.5t55 -85.5t96.5 -32h5q16 0 25 -12.5t9 -27.5v-10q0 -16 -8.5 -29t-25.5 -13h-25q-47 0 -85.5 22t-64.5 58q-26 -50 -81.5 -65t-133.5 -15q-35 0 -52.5 14.5t-17.5 31.5q-1 17 17 31.5t53 14.5q69 0 116 4.5t75 21.5
q-24 50 -24 104zM248 390q-1 2 -12 13l-24 24l-21 21v5l57 57h4q14 -13 29 -28t27 -29v-5l-56 -58h-4zM94 390q-1 2 -12 13l-24 24l-21 21v5l57 57h4q14 -13 29 -28t27 -29v-5l-56 -58h-4z" />
    <glyph glyph-name="uniFE9A" unicode="&#x62b;" horiz-adv-x="1034" arabic-form="final" 
d="M95 280q-12 -33 -12 -60q0 -49 33.5 -79.5t88 -47t119.5 -23t127 -6.5q51 0 107 4t110.5 11.5t100 17t73.5 19.5q-25 51 -25 106q0 35 11 58t29 47h15q-5 -64 11.5 -117.5t55 -85.5t96.5 -32h5q16 0 25 -12.5t9 -27.5v-10q0 -16 -8.5 -29t-25.5 -13h-25q-42 0 -78 18.5
t-62 48.5q-56 -39 -132.5 -59.5t-158 -28.5t-153.5 -8t-143 7.5t-129 27.5t-92.5 55.5t-34.5 92.5q0 56 38 131zM552 480q-1 2 -12 13l-24 24l-21 21v5l57 57h4q14 -13 29 -28t27 -29v-5l-56 -58h-4zM688 408l-56 -58h-4q-1 2 -12 13l-24 24l-21 21v5l57 57h4q14 -13 29 -28
t27 -29v-5zM417 408v5l57 57h4q14 -13 29 -28t27 -29v-5l-56 -58h-4q-1 2 -12 13l-24 24z" />
    <glyph glyph-name="uniFE9B" unicode="&#x62b;" horiz-adv-x="363" arabic-form="initial" 
d="M213 410q50 -61 73.5 -128t23.5 -120q0 -25 -5 -47.5t-19 -37.5q-30 -33 -66 -49.5t-88.5 -22t-132.5 -5.5q-27 0 -48 14.5t-21 30.5q-1 18 20.5 32.5t48.5 14.5q52 0 105 3.5t96.5 13t65.5 27.5q-7 54 -34 101.5t-57 74.5l26 98h12zM172 610q-1 2 -12 13l-24 24l-21 21
v5l57 57h4q14 -13 29 -28t27 -29v-5l-56 -58h-4zM308 538l-56 -58h-4q-1 2 -12 13l-24 24l-21 21v5l57 57h4q14 -13 29 -28t27 -29v-5zM37 538v5l57 57h4q14 -13 29 -28t27 -29v-5l-56 -58h-4q-1 2 -12 13l-24 24z" />
    <glyph glyph-name="uniFE9C" unicode="&#x62b;" horiz-adv-x="384" arabic-form="medial" 
d="M167 222q0 35 11 58t29 47h15q-5 -64 11.5 -117.5t55 -85.5t96.5 -32h5q16 0 25 -12.5t9 -27.5v-10q0 -16 -8.5 -29t-25.5 -13h-25q-47 0 -85.5 22t-64.5 58q-26 -50 -81.5 -65t-133.5 -15q-35 0 -52.5 14.5t-17.5 31.5q-1 17 17 31.5t53 14.5q69 0 116 4.5t75 21.5
q-24 50 -24 104zM162 510q-1 2 -12 13l-24 24l-21 21v5l57 57h4q14 -13 29 -28t27 -29v-5l-56 -58h-4zM298 438l-56 -58h-4q-1 2 -12 13l-24 24l-21 21v5l57 57h4q14 -13 29 -28t27 -29v-5zM27 438v5l57 57h4q14 -13 29 -28t27 -29v-5l-56 -58h-4q-1 2 -12 13l-24 24z" />
    <glyph glyph-name="uniFE9E" unicode="&#x62c;" horiz-adv-x="640" arabic-form="final" 
d="M608 370l-41 -79h-1v0q-42 -1 -83.5 -10t-81.5 -25q-7 -50 23.5 -87t84.5 -57t119 -20h19q7 0 20 -8t13 -33v-10q0 -25 -13 -33t-20 -8h-29q-74 0 -135 28.5t-95 81.5t-27 128q-69 -35 -123.5 -87.5t-86.5 -116.5t-32 -133q0 -65 33 -121.5t102.5 -92t178.5 -39.5
q72 -2 138.5 16.5t114.5 38.5l2 -9q-69 -62 -149 -94.5t-169 -32.5q-93 0 -162.5 34t-108 97t-38.5 149q0 67 23.5 133.5t64.5 127.5t95.5 110t116.5 81q-78 6 -128 12.5t-87 6.5q-34 0 -58 -9.5t-38 -35.5h-9q5 57 39.5 95.5t86.5 38.5q21 0 59 -5.5t86 -13t100.5 -13
t102.5 -5.5q47 0 86 6zM372 -116q-1 2 -12 13l-24 24l-21 21v5l57 57h4q14 -13 29 -28t27 -29v-5l-56 -58h-4z" />
    <glyph glyph-name="uniFE9F" unicode="&#x62c;" horiz-adv-x="769" arabic-form="initial" 
d="M140 0h-140q-34 0 -52 14t-18 31q-1 17 16.5 32t53.5 15h126q72 0 128.5 12t102.5 29t86 33.5t78 25.5q-33 17 -75.5 40t-88.5 42t-91 22q-51 4 -95.5 -4.5t-73.5 -33.5h-8q15 112 127 121q62 5 117.5 -12.5t106 -44t97.5 -49.5t91 -30q32 -5 59.5 -7t52.5 1l5 -6
l-31 -86q-18 3 -38 3.5t-41 1.5q-38 2 -76.5 -12t-81 -37t-92 -46t-110 -39t-135.5 -16zM312 -206q-1 2 -12 13l-24 24l-21 21v5l57 57h4q14 -13 29 -28t27 -29v-5l-56 -58h-4z" />
    <glyph glyph-name="uniFEA0" unicode="&#x62c;" horiz-adv-x="782" arabic-form="medial" 
d="M581 0q-36 0 -57 19t-32 49t-15 66q-30 -21 -61 -44t-70 -43.5t-93.5 -33.5t-132.5 -13h-120q-35 0 -52.5 14.5t-17.5 30.5q-1 18 17 32.5t53 14.5h116q65 0 114 9.5t92.5 26.5t89 39.5t103.5 47.5q-49 29 -115.5 52.5t-133.5 28.5q-51 4 -95.5 -4.5t-73.5 -33.5h-8
q15 112 127 121q65 5 120 -7.5t104 -31.5q51 -19 97.5 -39t90.5 -28q32 -5 59.5 -7t52.5 1l5 -6l-41 -83q-28 5 -54.5 5t-52.5 -3t-47 -10t-40 -17q5 -22 17 -41.5t44 -19.5h210q21 0 31.5 -15t9.5 -32q0 -17 -10.5 -31t-30.5 -14h-200zM312 -206q-1 2 -12 13l-24 24l-21 21
v5l57 57h4q14 -13 29 -28t27 -29v-5l-56 -58h-4z" />
    <glyph glyph-name="uniFEA2" unicode="&#x62d;" horiz-adv-x="640" arabic-form="final" 
d="M608 370l-41 -79h-1v0q-42 -1 -83.5 -10t-81.5 -25q-7 -50 23.5 -87t84.5 -57t119 -20h19q7 0 20 -8t13 -33v-10q0 -25 -13 -33t-20 -8h-29q-74 0 -135 28.5t-95 81.5t-27 128q-69 -35 -123.5 -87.5t-86.5 -116.5t-32 -133q0 -65 33 -121.5t102.5 -92t178.5 -39.5
q72 -2 138.5 16.5t114.5 38.5l2 -9q-69 -62 -149 -94.5t-169 -32.5q-93 0 -162.5 34t-108 97t-38.5 149q0 67 23.5 133.5t64.5 127.5t95.5 110t116.5 81q-78 6 -128 12.5t-87 6.5q-34 0 -58 -9.5t-38 -35.5h-9q5 57 39.5 95.5t86.5 38.5q21 0 59 -5.5t86 -13t100.5 -13
t102.5 -5.5q47 0 86 6z" />
    <glyph glyph-name="uniFEA3" unicode="&#x62d;" horiz-adv-x="769" arabic-form="initial" 
d="M140 0h-140q-34 0 -52 14t-18 31q-1 17 16.5 32t53.5 15h126q72 0 128.5 12t102.5 29t86 33.5t78 25.5q-33 17 -75.5 40t-88.5 42t-91 22q-51 4 -95.5 -4.5t-73.5 -33.5h-8q15 112 127 121q62 5 117.5 -12.5t106 -44t97.5 -49.5t91 -30q32 -5 59.5 -7t52.5 1l5 -6
l-31 -86q-18 3 -38 3.5t-41 1.5q-38 2 -76.5 -12t-81 -37t-92 -46t-110 -39t-135.5 -16z" />
    <glyph glyph-name="uniFEA4" unicode="&#x62d;" horiz-adv-x="782" arabic-form="medial" 
d="M581 0q-36 0 -57 19t-32 49t-15 66q-30 -21 -61 -44t-70 -43.5t-93.5 -33.5t-132.5 -13h-120q-35 0 -52.5 14.5t-17.5 30.5q-1 18 17 32.5t53 14.5h116q65 0 114 9.5t92.5 26.5t89 39.5t103.5 47.5q-49 29 -115.5 52.5t-133.5 28.5q-51 4 -95.5 -4.5t-73.5 -33.5h-8
q15 112 127 121q65 5 120 -7.5t104 -31.5q51 -19 97.5 -39t90.5 -28q32 -5 59.5 -7t52.5 1l5 -6l-41 -83q-28 5 -54.5 5t-52.5 -3t-47 -10t-40 -17q5 -22 17 -41.5t44 -19.5h210q21 0 31.5 -15t9.5 -32q0 -17 -10.5 -31t-30.5 -14h-200z" />
    <glyph glyph-name="uniFEA6" unicode="&#x62e;" horiz-adv-x="640" arabic-form="final" 
d="M608 370l-41 -79h-1v0q-42 -1 -83.5 -10t-81.5 -25q-7 -50 23.5 -87t84.5 -57t119 -20h19q7 0 20 -8t13 -33v-10q0 -25 -13 -33t-20 -8h-29q-74 0 -135 28.5t-95 81.5t-27 128q-69 -35 -123.5 -87.5t-86.5 -116.5t-32 -133q0 -65 33 -121.5t102.5 -92t178.5 -39.5
q72 -2 138.5 16.5t114.5 38.5l2 -9q-69 -62 -149 -94.5t-169 -32.5q-93 0 -162.5 34t-108 97t-38.5 149q0 67 23.5 133.5t64.5 127.5t95.5 110t116.5 81q-78 6 -128 12.5t-87 6.5q-34 0 -58 -9.5t-38 -35.5h-9q5 57 39.5 95.5t86.5 38.5q21 0 59 -5.5t86 -13t100.5 -13
t102.5 -5.5q47 0 86 6zM362 490q-1 2 -12 13l-24 24l-21 21v5l57 57h4q14 -13 29 -28t27 -29v-5l-56 -58h-4z" />
    <glyph glyph-name="uniFEA7" unicode="&#x62e;" horiz-adv-x="769" arabic-form="initial" 
d="M140 0h-140q-34 0 -52 14t-18 31q-1 17 16.5 32t53.5 15h126q72 0 128.5 12t102.5 29t86 33.5t78 25.5q-33 17 -75.5 40t-88.5 42t-91 22q-51 4 -95.5 -4.5t-73.5 -33.5h-8q15 112 127 121q62 5 117.5 -12.5t106 -44t97.5 -49.5t91 -30q32 -5 59.5 -7t52.5 1l5 -6
l-31 -86q-18 3 -38 3.5t-41 1.5q-38 2 -76.5 -12t-81 -37t-92 -46t-110 -39t-135.5 -16zM312 480q-1 2 -12 13l-24 24l-21 21v5l57 57h4q14 -13 29 -28t27 -29v-5l-56 -58h-4z" />
    <glyph glyph-name="uniFEA8" unicode="&#x62e;" horiz-adv-x="782" arabic-form="medial" 
d="M581 0q-36 0 -57 19t-32 49t-15 66q-30 -21 -61 -44t-70 -43.5t-93.5 -33.5t-132.5 -13h-120q-35 0 -52.5 14.5t-17.5 30.5q-1 18 17 32.5t53 14.5h116q65 0 114 9.5t92.5 26.5t89 39.5t103.5 47.5q-49 29 -115.5 52.5t-133.5 28.5q-51 4 -95.5 -4.5t-73.5 -33.5h-8
q15 112 127 121q65 5 120 -7.5t104 -31.5q51 -19 97.5 -39t90.5 -28q32 -5 59.5 -7t52.5 1l5 -6l-41 -83q-28 5 -54.5 5t-52.5 -3t-47 -10t-40 -17q5 -22 17 -41.5t44 -19.5h210q21 0 31.5 -15t9.5 -32q0 -17 -10.5 -31t-30.5 -14h-200zM302 480q-1 2 -12 13l-24 24l-21 21
v5l57 57h4q14 -13 29 -28t27 -29v-5l-56 -58h-4z" />
    <glyph glyph-name="uniFEAA" unicode="&#x62f;" horiz-adv-x="548" arabic-form="final" 
d="M281 378l29 70h8q5 -15 13 -48t19 -73t23 -78q19 -52 39.5 -87t52 -52.5t82.5 -17.5h1q24 0 32 -15t8 -32q-1 -17 -9 -31t-31 -14h-16q-55 0 -95.5 32.5t-71.5 92.5q-43 -65 -101 -91.5t-132 -26.5q-51 0 -71.5 19t-20.5 50q0 24 11 57h13q5 -23 27.5 -29t50.5 -6
q33 0 74 8t76.5 24.5t51.5 41.5q-9 21 -17 46q-13 38 -24 78.5t-22 81.5z" />
    <glyph glyph-name="uniFEAC" unicode="&#x630;" horiz-adv-x="548" arabic-form="final" 
d="M281 378l29 70h8q5 -15 13 -48t19 -73t23 -78q19 -52 39.5 -87t52 -52.5t82.5 -17.5h1q24 0 32 -15t8 -32q-1 -17 -9 -31t-31 -14h-16q-55 0 -95.5 32.5t-71.5 92.5q-43 -65 -101 -91.5t-132 -26.5q-51 0 -71.5 19t-20.5 50q0 24 11 57h13q5 -23 27.5 -29t50.5 -6
q33 0 74 8t76.5 24.5t51.5 41.5q-9 21 -17 46q-13 38 -24 78.5t-22 81.5zM241 530q-1 2 -12 13l-24 24l-21 21v5l57 57h4q14 -13 29 -28t27 -29v-5l-56 -58h-4z" />
    <glyph glyph-name="uniFEAE" unicode="&#x631;" horiz-adv-x="315" arabic-form="final" 
d="M9 -279q-41 2 -82.5 9t-81.5 19l1 7q74 4 123.5 22.5t86 50t70.5 71.5q40 47 66 125q-18 8 -33.5 20t-27.5 28q4 18 9 39.5t12 47.5h11q29 -39 62.5 -53.5t89.5 -14.5q22 0 31 -13t9 -33q0 -19 -9 -32.5t-31 -13.5q-23 0 -45 3t-44 9q-2 -27 -9.5 -53t-18.5 -53
q-24 -64 -52 -103.5t-63 -62.5q-19 -13 -34 -16.5t-40 -2.5z" />
    <glyph glyph-name="uniFEB0" unicode="&#x632;" horiz-adv-x="315" arabic-form="final" 
d="M9 -279q-41 2 -82.5 9t-81.5 19l1 7q74 4 123.5 22.5t86 50t70.5 71.5q40 47 66 125q-18 8 -33.5 20t-27.5 28q4 18 9 39.5t12 47.5h11q29 -39 62.5 -53.5t89.5 -14.5q22 0 31 -13t9 -33q0 -19 -9 -32.5t-31 -13.5q-23 0 -45 3t-44 9q-2 -27 -9.5 -53t-18.5 -53
q-24 -64 -52 -103.5t-63 -62.5q-19 -13 -34 -16.5t-40 -2.5zM158 290q-1 2 -12 13l-24 24l-21 21v5l57 57h4q14 -13 29 -28t27 -29v-5l-56 -58h-4z" />
    <glyph glyph-name="uniFEB2" unicode="&#x633;" horiz-adv-x="1179" arabic-form="final" 
d="M115 10q-21 -55 -21 -107q0 -85 52.5 -132.5t140.5 -47.5q95 0 177 35t125 105q0 64 -22 115.5t-58 112.5l22 83h10l8 -11.5t18.5 -26t18 -26l7.5 -11.5q14 -10 33.5 -14.5t40.5 -4.5q51 0 80.5 14.5t48.5 44t39 73.5l22 1q-9 -39 -21 -71q13 -13 35 -23.5t45.5 -16.5
t40.5 -3q20 11 35.5 43t24.5 75l24 10q2 -70 32.5 -102.5t105.5 -32.5q20 0 30.5 -14.5t9.5 -32.5q0 -16 -10 -30.5t-30 -14.5q-70 0 -111 24.5t-65 64.5q-6 -16 -17.5 -35.5t-25 -34t-25.5 -14.5q-19 0 -46 9t-53.5 22t-42.5 27q-29 -38 -71 -57.5t-99 -15.5q2 -17 3 -34.5
t1 -34.5q0 -70 -27.5 -125t-75.5 -92.5t-110.5 -57t-132.5 -19.5q-72 0 -126.5 26t-85.5 74.5t-31 113.5q0 42 14.5 88t44.5 92z" />
    <glyph glyph-name="uniFEB3" unicode="&#x633;" horiz-adv-x="674" arabic-form="initial" 
d="M-5 0q-28 0 -46.5 13.5t-18.5 32.5q0 20 18.5 33t46.5 13h25q52 0 87 6.5t62.5 27.5t54.5 64l16 -3q-5 -24 -13.5 -46t-22.5 -42q44 -12 85 -3q36 8 66.5 32.5t50.5 62.5l17 -2q-5 -20 -14 -39q15 -22 44 -36.5t61 -19t55 4.5q0 23 -3 44t-11 46l40 73h9q14 -45 14.5 -83
t-10.5 -83q-8 -33 -23.5 -59t-44.5 -36q-38 -13 -79.5 3t-72.5 50q-6 7 -11.5 14.5t-9.5 12.5q-20 -25 -46 -42.5t-55 -22.5q-57 -11 -120 22q-23 -16 -43 -24.5t-45 -11t-63 -2.5z" />
    <glyph glyph-name="uniFEB4" unicode="&#x633;" horiz-adv-x="744" arabic-form="medial" 
d="M406 191l17 -2q-7 -25 -18 -49q13 -12 35 -22.5t45 -15.5t39 -3q20 11 35.5 43t24.5 75l24 10q2 -70 32.5 -102.5t106.5 -32.5q20 0 29.5 -15t9.5 -32q-1 -17 -11 -31t-30 -14q-69 0 -110 24.5t-65 64.5q-6 -16 -17.5 -35.5t-25 -34t-25.5 -14.5q-20 0 -49 9.5t-56 24
t-42 28.5q-19 -19 -41.5 -32.5t-47.5 -18.5q-57 -11 -120 22q-23 -16 -43 -24.5t-45 -11t-63 -2.5q-28 0 -46.5 13.5t-18.5 32.5q0 20 18.5 33t46.5 13h25q52 0 87 6.5t62.5 27.5t54.5 64l16 -3q-5 -24 -13.5 -46t-22.5 -42q44 -12 85 -3q36 8 66.5 32.5t50.5 62.5z" />
    <glyph glyph-name="uniFEB6" unicode="&#x634;" horiz-adv-x="1179" arabic-form="final" 
d="M115 10q-21 -55 -21 -107q0 -85 52.5 -132.5t140.5 -47.5q95 0 177 35t125 105q0 64 -22 115.5t-58 112.5l22 83h10l8 -11.5t18.5 -26t18 -26l7.5 -11.5q14 -10 33.5 -14.5t40.5 -4.5q51 0 80.5 14.5t48.5 44t39 73.5l22 1q-9 -39 -21 -71q13 -13 35 -23.5t45.5 -16.5
t40.5 -3q20 11 35.5 43t24.5 75l24 10q2 -70 32.5 -102.5t105.5 -32.5q20 0 30.5 -14.5t9.5 -32.5q0 -16 -10 -30.5t-30 -14.5q-70 0 -111 24.5t-65 64.5q-6 -16 -17.5 -35.5t-25 -34t-25.5 -14.5q-19 0 -46 9t-53.5 22t-42.5 27q-29 -38 -71 -57.5t-99 -15.5q2 -17 3 -34.5
t1 -34.5q0 -70 -27.5 -125t-75.5 -92.5t-110.5 -57t-132.5 -19.5q-72 0 -126.5 26t-85.5 74.5t-31 113.5q0 42 14.5 88t44.5 92zM822 480q-1 2 -12 13l-24 24l-21 21v5l57 57h4q14 -13 29 -28t27 -29v-5l-56 -58h-4zM958 408l-56 -58h-4q-1 2 -12 13l-24 24l-21 21v5l57 57
h4q14 -13 29 -28t27 -29v-5zM687 408v5l57 57h4q14 -13 29 -28t27 -29v-5l-56 -58h-4q-1 2 -12 13l-24 24z" />
    <glyph glyph-name="uniFEB7" unicode="&#x634;" horiz-adv-x="674" arabic-form="initial" 
d="M-5 0q-28 0 -46.5 13.5t-18.5 32.5q0 20 18.5 33t46.5 13h25q52 0 87 6.5t62.5 27.5t54.5 64l16 -3q-5 -24 -13.5 -46t-22.5 -42q44 -12 85 -3q36 8 66.5 32.5t50.5 62.5l17 -2q-5 -20 -14 -39q15 -22 44 -36.5t61 -19t55 4.5q0 23 -3 44t-11 46l40 73h9q14 -45 14.5 -83
t-10.5 -83q-8 -33 -23.5 -59t-44.5 -36q-38 -13 -79.5 3t-72.5 50q-6 7 -11.5 14.5t-9.5 12.5q-20 -25 -46 -42.5t-55 -22.5q-57 -11 -120 22q-23 -16 -43 -24.5t-45 -11t-63 -2.5zM422 480q-1 2 -12 13l-24 24l-21 21v5l57 57h4q14 -13 29 -28t27 -29v-5l-56 -58h-4z
M558 408l-56 -58h-4q-1 2 -12 13l-24 24l-21 21v5l57 57h4q14 -13 29 -28t27 -29v-5zM287 408v5l57 57h4q14 -13 29 -28t27 -29v-5l-56 -58h-4q-1 2 -12 13l-24 24z" />
    <glyph glyph-name="uniFEB8" unicode="&#x634;" horiz-adv-x="744" arabic-form="medial" 
d="M406 191l17 -2q-7 -25 -18 -49q13 -12 35 -22.5t45 -15.5t39 -3q20 11 35.5 43t24.5 75l24 10q2 -70 32.5 -102.5t106.5 -32.5q20 0 29.5 -15t9.5 -32q-1 -17 -11 -31t-30 -14q-69 0 -110 24.5t-65 64.5q-6 -16 -17.5 -35.5t-25 -34t-25.5 -14.5q-20 0 -49 9.5t-56 24
t-42 28.5q-19 -19 -41.5 -32.5t-47.5 -18.5q-57 -11 -120 22q-23 -16 -43 -24.5t-45 -11t-63 -2.5q-28 0 -46.5 13.5t-18.5 32.5q0 20 18.5 33t46.5 13h25q52 0 87 6.5t62.5 27.5t54.5 64l16 -3q-5 -24 -13.5 -46t-22.5 -42q44 -12 85 -3q36 8 66.5 32.5t50.5 62.5zM422 480
q-1 2 -12 13l-24 24l-21 21v5l57 57h4q14 -13 29 -28t27 -29v-5l-56 -58h-4zM558 408l-56 -58h-4q-1 2 -12 13l-24 24l-21 21v5l57 57h4q14 -13 29 -28t27 -29v-5zM287 408v5l57 57h4q14 -13 29 -28t27 -29v-5l-56 -58h-4q-1 2 -12 13l-24 24z" />
    <glyph glyph-name="uniFEBA" unicode="&#x635;" horiz-adv-x="1195" arabic-form="final" 
d="M281 -333q-72 0 -126.5 26t-85.5 74.5t-31 113.5q0 42 14.5 88t44.5 92l18 -11q-21 -55 -21 -107q0 -85 52.5 -132.5t140.5 -47.5q95 0 177 35t125 105q0 64 -22 115.5t-58 112.5l22 83h10q1 0 10.5 -14.5t23 -37.5t24.5 -49q15 -3 27 -6t21 -6q32 50 72 98t84.5 87.5
t92 63t95.5 23.5q42 0 77 -14.5t56 -43.5t21 -71q0 -50 -19 -88t-53 -66l42 2h80q17 0 28.5 -13t11.5 -33q0 -19 -11.5 -32.5t-28.5 -13.5h-455v0q-31 0 -60 2t-55 7q1 -17 1 -35q0 -49 -11 -95.5t-34 -75.5q-50 -66 -131.5 -101t-168.5 -35zM698 92q77 -5 153.5 4.5
t140 33.5t99.5 62q-17 50 -60 74t-85 24q-33 0 -67.5 -17.5t-68 -47t-62.5 -64t-50 -69.5z" />
    <glyph glyph-name="uniFEBB" unicode="&#x635;" horiz-adv-x="820" arabic-form="initial" 
d="M1 0q-36 0 -53.5 15.5t-17.5 32.5t17.5 30.5t37.5 13.5q52 0 81.5 9t48 33.5t38.5 68.5l17 4q0 -25 16.5 -49t42 -40t52.5 -20q48 73 100.5 133t111 95.5t123.5 35.5q40 0 75 -14t57 -42t22 -71q0 -63 -30.5 -108t-84 -73t-123 -41t-146.5 -13q-76 0 -139 18t-105 65
q-26 -37 -59.5 -60t-81.5 -23zM325 92q47 -6 104 -2.5t114 16t103.5 33t72.5 48.5q-19 48 -56 70.5t-79 22.5q-51 0 -97.5 -27t-87 -69.5t-74.5 -91.5z" />
    <glyph glyph-name="uniFEBC" unicode="&#x635;" horiz-adv-x="820" arabic-form="medial" 
d="M281 98q48 73 100.5 133t111 95.5t123.5 35.5q40 0 75 -14t57 -42t22 -71q0 -46 -17.5 -82t-48.5 -63l36 2h80q17 0 28.5 -13t11.5 -33q0 -19 -11.5 -32.5t-28.5 -13.5h-434q-76 0 -139 18t-105 65q-26 -37 -59.5 -60t-81.5 -23q-37 0 -54 16t-17 35q0 16 17 28.5
t33 12.5q52 0 82.5 9t50.5 33.5t40 68.5l17 4q0 -25 16.5 -49t42 -40t52.5 -20zM325 92q47 -6 104 -2.5t114 16t103.5 33t72.5 48.5q-19 48 -56 70.5t-79 22.5q-51 0 -97.5 -27t-87 -69.5t-74.5 -91.5z" />
    <glyph glyph-name="uniFEBE" unicode="&#x636;" horiz-adv-x="1195" arabic-form="final" 
d="M281 -333q-72 0 -126.5 26t-85.5 74.5t-31 113.5q0 42 14.5 88t44.5 92l18 -11q-21 -55 -21 -107q0 -85 52.5 -132.5t140.5 -47.5q95 0 177 35t125 105q0 64 -22 115.5t-58 112.5l22 83h10q1 0 10.5 -14.5t23 -37.5t24.5 -49q15 -3 27 -6t21 -6q32 50 72 98t84.5 87.5
t92 63t95.5 23.5q42 0 77 -14.5t56 -43.5t21 -71q0 -50 -19 -88t-53 -66l42 2h80q17 0 28.5 -13t11.5 -33q0 -19 -11.5 -32.5t-28.5 -13.5h-455v0q-31 0 -60 2t-55 7q1 -17 1 -35q0 -49 -11 -95.5t-34 -75.5q-50 -66 -131.5 -101t-168.5 -35zM698 92q77 -5 153.5 4.5
t140 33.5t99.5 62q-17 50 -60 74t-85 24q-33 0 -67.5 -17.5t-68 -47t-62.5 -64t-50 -69.5zM872 440q-1 2 -12 13l-24 24l-21 21v5l57 57h4q14 -13 29 -28t27 -29v-5l-56 -58h-4z" />
    <glyph glyph-name="uniFEBF" unicode="&#x636;" horiz-adv-x="820" arabic-form="initial" 
d="M1 0q-36 0 -53.5 15.5t-17.5 32.5t17.5 30.5t37.5 13.5q52 0 81.5 9t48 33.5t38.5 68.5l17 4q0 -25 16.5 -49t42 -40t52.5 -20q48 73 100.5 133t111 95.5t123.5 35.5q40 0 75 -14t57 -42t22 -71q0 -63 -30.5 -108t-84 -73t-123 -41t-146.5 -13q-76 0 -139 18t-105 65
q-26 -37 -59.5 -60t-81.5 -23zM325 92q47 -6 104 -2.5t114 16t103.5 33t72.5 48.5q-19 48 -56 70.5t-79 22.5q-51 0 -97.5 -27t-87 -69.5t-74.5 -91.5zM522 436q-1 2 -12 13l-24 24l-21 21v5l57 57h4q14 -13 29 -28t27 -29v-5l-56 -58h-4z" />
    <glyph glyph-name="uniFEC0" unicode="&#x636;" horiz-adv-x="820" arabic-form="medial" 
d="M281 98q48 73 100.5 133t111 95.5t123.5 35.5q40 0 75 -14t57 -42t22 -71q0 -46 -17.5 -82t-48.5 -63l36 2h80q17 0 28.5 -13t11.5 -33q0 -19 -11.5 -32.5t-28.5 -13.5h-434q-76 0 -139 18t-105 65q-26 -37 -59.5 -60t-81.5 -23q-37 0 -54 16t-17 35q0 16 17 28.5
t33 12.5q52 0 82.5 9t50.5 33.5t40 68.5l17 4q0 -25 16.5 -49t42 -40t52.5 -20zM325 92q47 -6 104 -2.5t114 16t103.5 33t72.5 48.5q-19 48 -56 70.5t-79 22.5q-51 0 -97.5 -27t-87 -69.5t-74.5 -91.5zM522 440q-1 2 -12 13l-24 24l-21 21v5l57 57h4q14 -13 29 -28t27 -29
v-5l-56 -58h-4z" />
    <glyph glyph-name="uniFEC2" unicode="&#x637;" horiz-adv-x="796" arabic-form="final" 
d="M249 89q44 67 90 116q7 82 -2.5 156t-26 139.5t-30.5 123.5q-7 28 7 44t45 47q6 -13 16 -33.5t25.5 -39.5t37.5 -30q-13 -26 -25 -42t-21 -29q4 -18 10.5 -61t10.5 -102.5t-1 -128.5q23 19 47.5 36t50.5 31q43 24 89 33.5t86.5 1.5t69.5 -36.5t38 -79.5q-1 -46 -19 -81
t-48 -62h97q17 0 28.5 -13t11.5 -33q0 -19 -11.5 -32.5t-28.5 -13.5h-443h-58.5h-57.5q-18 0 -50 10.5t-66 25t-60.5 27.5t-34.5 19l-6 18q54 -8 117 -9.5t112 -1.5zM301 88q54 -1 118.5 2t115.5 14q50 11 101 31.5t79 51.5q-24 45 -57 64t-70 18.5t-75 -14.5
q-51 -19 -107.5 -58.5t-104.5 -108.5z" />
    <glyph glyph-name="uniFEC3" unicode="&#x637;" horiz-adv-x="618" arabic-form="initial" 
d="M55 92q23 36 46.5 65t47.5 53q6 81 -3.5 154t-26 138t-30.5 122q-7 28 7 44t45 47q6 -13 16 -33.5t25.5 -39.5t37.5 -30q-13 -26 -25 -42t-21 -29q4 -18 10.5 -60.5t10.5 -101.5t-1 -127q23 18 47 34t49 30q43 24 89 33.5t86.5 1.5t69.5 -36.5t38 -79.5
q-2 -66 -37.5 -111t-95 -72.5t-132.5 -42.5q-30 -6 -76 -7.5t-96 -1.5h-92h-45q-28 0 -48.5 13.5t-20.5 32.5q0 20 20.5 33t48.5 13h56zM108 90q54 -1 118.5 1.5t115.5 12.5q50 11 101 31.5t79 51.5q-24 45 -57 64t-70 18.5t-75 -14.5q-51 -19 -107.5 -57.5t-104.5 -107.5z
" />
    <glyph glyph-name="uniFEC4" unicode="&#x637;" horiz-adv-x="600" arabic-form="medial" 
d="M55 92q23 36 46.5 65t47.5 53q6 81 -3.5 154t-26 138t-30.5 122q-7 28 7 44t45 47q6 -13 16 -33.5t25.5 -39.5t37.5 -30q-13 -26 -25 -42t-21 -29q4 -18 10.5 -60.5t10.5 -101.5t-1 -127q23 18 47 34t49 30q43 24 89 33.5t86.5 1.5t69.5 -36.5t38 -79.5q-1 -46 -19 -81.5
t-49 -61.5h95q17 0 28.5 -13t11.5 -33q0 -19 -11.5 -32.5t-28.5 -13.5h-415q-36 -1 -73 -0.5t-68 0.5h-47q-28 0 -47.5 13.5t-19.5 32.5q0 20 19.5 33t47.5 13h58zM108 90q54 -1 118.5 1.5t115.5 12.5q50 11 101 31.5t79 51.5q-24 45 -57 64t-70 18.5t-75 -14.5
q-51 -19 -107.5 -57.5t-104.5 -107.5z" />
    <glyph glyph-name="uniFEC6" unicode="&#x638;" horiz-adv-x="796" arabic-form="final" 
d="M249 89q44 67 90 116q7 82 -2.5 156t-26 139.5t-30.5 123.5q-7 28 7 44t45 47q6 -13 16 -33.5t25.5 -39.5t37.5 -30q-13 -26 -25 -42t-21 -29q4 -18 10.5 -61t10.5 -102.5t-1 -128.5q23 19 47.5 36t50.5 31q43 24 89 33.5t86.5 1.5t69.5 -36.5t38 -79.5q-1 -46 -19 -81
t-48 -62h97q17 0 28.5 -13t11.5 -33q0 -19 -11.5 -32.5t-28.5 -13.5h-443h-58.5h-57.5q-18 0 -50 10.5t-66 25t-60.5 27.5t-34.5 19l-6 18q54 -8 117 -9.5t112 -1.5zM301 88q54 -1 118.5 2t115.5 14q50 11 101 31.5t79 51.5q-24 45 -57 64t-70 18.5t-75 -14.5
q-51 -19 -107.5 -58.5t-104.5 -108.5zM562 450q-1 2 -12 13l-24 24l-21 21v5l57 57h4q14 -13 29 -28t27 -29v-5l-56 -58h-4z" />
    <glyph glyph-name="uniFEC7" unicode="&#x638;" horiz-adv-x="618" arabic-form="initial" 
d="M55 92q23 36 46.5 65t47.5 53q6 81 -3.5 154t-26 138t-30.5 122q-7 28 7 44t45 47q6 -13 16 -33.5t25.5 -39.5t37.5 -30q-13 -26 -25 -42t-21 -29q4 -18 10.5 -60.5t10.5 -101.5t-1 -127q23 18 47 34t49 30q43 24 89 33.5t86.5 1.5t69.5 -36.5t38 -79.5
q-2 -66 -37.5 -111t-95 -72.5t-132.5 -42.5q-30 -6 -76 -7.5t-96 -1.5h-92h-45q-28 0 -48.5 13.5t-20.5 32.5q0 20 20.5 33t48.5 13h56zM108 90q54 -1 118.5 1.5t115.5 12.5q50 11 101 31.5t79 51.5q-24 45 -57 64t-70 18.5t-75 -14.5q-51 -19 -107.5 -57.5t-104.5 -107.5z
M369 450q-1 2 -12 13l-24 24l-21 21v5l57 57h4q14 -13 29 -28t27 -29v-5l-56 -58h-4z" />
    <glyph glyph-name="uniFEC8" unicode="&#x638;" horiz-adv-x="600" arabic-form="medial" 
d="M55 92q23 36 46.5 65t47.5 53q6 81 -3.5 154t-26 138t-30.5 122q-7 28 7 44t45 47q6 -13 16 -33.5t25.5 -39.5t37.5 -30q-13 -26 -25 -42t-21 -29q4 -18 10.5 -60.5t10.5 -101.5t-1 -127q23 18 47 34t49 30q43 24 89 33.5t86.5 1.5t69.5 -36.5t38 -79.5q-1 -46 -19 -81.5
t-49 -61.5h95q17 0 28.5 -13t11.5 -33q0 -19 -11.5 -32.5t-28.5 -13.5h-415q-36 -1 -73 -0.5t-68 0.5h-47q-28 0 -47.5 13.5t-19.5 32.5q0 20 19.5 33t47.5 13h58zM108 90q54 -1 118.5 1.5t115.5 12.5q50 11 101 31.5t79 51.5q-24 45 -57 64t-70 18.5t-75 -14.5
q-51 -19 -107.5 -57.5t-104.5 -107.5zM369 450q-1 2 -12 13l-24 24l-21 21v5l57 57h4q14 -13 29 -28t27 -29v-5l-56 -58h-4z" />
    <glyph glyph-name="uniFECA" unicode="&#x639;" horiz-adv-x="561" arabic-form="final" 
d="M315 -454q-66 2 -124 22.5t-100 58t-62 88.5t-10 114q12 73 51 131t90 103t97 80q-42 39 -74 70t-53 44q-15 10 -23 8.5t-18 -10.5l-6 19q9 30 40.5 49t78 28t101 9.5t109 -6.5t100.5 -20q-7 -42 -14 -60.5t-17 -27.5t-27 -24l-91 -79q35 -18 80 -34.5t118 -16.5
q20 0 29.5 -14.5t9.5 -32.5q0 -16 -9.5 -30.5t-29.5 -14.5q-46 0 -87.5 8.5t-82 30.5t-86.5 62q-43 -28 -91.5 -60t-88 -73t-56.5 -94q-21 -67 15 -121.5t116.5 -87.5t192.5 -37q72 -2 138.5 16.5t114.5 38.5l2 -9q-71 -64 -154 -97t-179 -31zM313 182q26 19 54.5 37
t54.5 46q-52 14 -104 15.5t-104 -15.5l15 -12.5t34.5 -29t34.5 -29z" />
    <glyph glyph-name="uniFECB" unicode="&#x639;" horiz-adv-x="578" arabic-form="initial" 
d="M558 204q-17 -28 -30.5 -49.5t-26.5 -36.5q-54 -16 -113.5 -33t-118.5 -33q-83 -22 -151.5 -37t-113.5 -15q-37 0 -55.5 14.5t-18.5 31.5t18.5 31.5t55.5 14.5q32 0 68 4t76 11q-34 21 -56.5 50.5t-22.5 66.5q0 39 16.5 77t45 68.5t65 49t76.5 18.5q41 0 78.5 -22
t67.5 -67l-7 -11q-34 17 -62 23t-67 6q-38 0 -74.5 -10t-63.5 -33.5t-37 -63.5q16 -26 43 -51.5t61 -45t71 -26.5q69 17 139 37.5t133 38.5z" />
    <glyph glyph-name="uniFECC" unicode="&#x639;" horiz-adv-x="532" arabic-form="medial" 
d="M532 92q20 0 30.5 -14.5t9.5 -32.5q0 -16 -10 -30.5t-30 -14.5h-10q-66 0 -123.5 31.5t-114.5 74.5q-82 -58 -146.5 -82t-136.5 -24q-35 0 -53 15t-18 32t18 31t53 14q41 0 75.5 5.5t71.5 18.5t84 34q-23 20 -49.5 47t-51.5 50q-17 16 -29 15.5t-26 -9.5l-3 18
q9 31 41.5 50.5t79 29.5t100 10.5t106 -7t94.5 -22.5q-10 -31 -17 -47.5t-15 -26t-23 -22.5l-96 -83q38 -22 81 -41.5t108 -19.5zM190 269q9 -6 27.5 -22.5t40 -35t39.5 -30.5q26 18 53.5 39t55.5 49q-50 13 -108 12t-108 -12z" />
    <glyph glyph-name="uniFECE" unicode="&#x63a;" horiz-adv-x="561" arabic-form="final" 
d="M315 -454q-66 2 -124 22.5t-100 58t-62 88.5t-10 114q12 73 51 131t90 103t97 80q-42 39 -74 70t-53 44q-15 10 -23 8.5t-18 -10.5l-6 19q9 30 40.5 49t78 28t101 9.5t109 -6.5t100.5 -20q-7 -42 -14 -60.5t-17 -27.5t-27 -24l-91 -79q35 -18 80 -34.5t118 -16.5
q20 0 29.5 -14.5t9.5 -32.5q0 -16 -9.5 -30.5t-29.5 -14.5q-46 0 -87.5 8.5t-82 30.5t-86.5 62q-43 -28 -91.5 -60t-88 -73t-56.5 -94q-21 -67 15 -121.5t116.5 -87.5t192.5 -37q72 -2 138.5 16.5t114.5 38.5l2 -9q-71 -64 -154 -97t-179 -31zM313 182q26 19 54.5 37
t54.5 46q-52 14 -104 15.5t-104 -15.5l15 -12.5t34.5 -29t34.5 -29zM302 440q-1 2 -12 13l-24 24l-21 21v5l57 57h4q14 -13 29 -28t27 -29v-5l-56 -58h-4z" />
    <glyph glyph-name="uniFECF" unicode="&#x63a;" horiz-adv-x="578" arabic-form="initial" 
d="M558 204q-17 -28 -30.5 -49.5t-26.5 -36.5q-54 -16 -113.5 -33t-118.5 -33q-83 -22 -151.5 -37t-113.5 -15q-37 0 -55.5 14.5t-18.5 31.5t18.5 31.5t55.5 14.5q32 0 68 4t76 11q-34 21 -56.5 50.5t-22.5 66.5q0 39 16.5 77t45 68.5t65 49t76.5 18.5q41 0 78.5 -22
t67.5 -67l-7 -11q-34 17 -62 23t-67 6q-38 0 -74.5 -10t-63.5 -33.5t-37 -63.5q16 -26 43 -51.5t61 -45t71 -26.5q69 17 139 37.5t133 38.5zM221 524q-1 2 -12 13l-24 24l-21 21v5l57 57h4q14 -13 29 -28t27 -29v-5l-56 -58h-4z" />
    <glyph glyph-name="uniFED0" unicode="&#x63a;" horiz-adv-x="532" arabic-form="medial" 
d="M532 92q20 0 30.5 -14.5t9.5 -32.5q0 -16 -10 -30.5t-30 -14.5h-10q-66 0 -123.5 31.5t-114.5 74.5q-82 -58 -146.5 -82t-136.5 -24q-35 0 -53 15t-18 32t18 31t53 14q41 0 75.5 5.5t71.5 18.5t84 34q-23 20 -49.5 47t-51.5 50q-17 16 -29 15.5t-26 -9.5l-3 18
q9 31 41.5 50.5t79 29.5t100 10.5t106 -7t94.5 -22.5q-10 -31 -17 -47.5t-15 -26t-23 -22.5l-96 -83q38 -22 81 -41.5t108 -19.5zM190 269q9 -6 27.5 -22.5t40 -35t39.5 -30.5q26 18 53.5 39t55.5 49q-50 13 -108 12t-108 -12zM272 440q-1 2 -12 13l-24 24l-21 21v5l57 57h4
q14 -13 29 -28t27 -29v-5l-56 -58h-4z" />
    <glyph glyph-name="uniFED2" unicode="&#x641;" horiz-adv-x="962" arabic-form="final" 
d="M962 92q21 0 30.5 -15t9.5 -33q0 -16 -10 -30t-30 -14q-72 0 -125 12.5t-97 38.5q-76 -34 -167 -52t-182 -20q-106 -1 -186.5 16.5t-127.5 55t-53 97t36 143.5l25 -5q-22 -57 -3.5 -97.5t65.5 -65.5t113 -37t139 -13q68 -1 138 8t135 27q-19 29 -16 63t19 67
q17 35 42.5 66t56 50t59.5 17q23 -1 38 -20t22 -47.5t7.5 -57.5t-5.5 -52q-4 -23 -19.5 -48.5t-31.5 -42.5q6 -3 26.5 -5.5t46 -4t45.5 -1.5zM761 140q13 3 33.5 12.5t38.5 22t22 23.5q1 16 -6 33t-17 32q-9 14 -20.5 15.5t-25.5 -1.5q-28 -8 -53 -27.5t-30 -40.5
q2 -24 20.5 -42.5t37.5 -26.5zM792 450q-1 2 -12 13l-24 24l-21 21v5l57 57h4q14 -13 29 -28t27 -29v-5l-56 -58h-4z" />
    <glyph glyph-name="uniFED3" unicode="&#x641;" horiz-adv-x="442" arabic-form="initial" 
d="M160 0h-158q-28 0 -50 13.5t-22 32.5q0 20 22 33t50 13h134q60 0 96.5 5t60 16.5t44.5 30.5q2 16 -1 35t-10 41q-16 -29 -40.5 -41t-50.5 -13q-27 -1 -52.5 9.5t-41.5 30t-16 44.5q0 30 8.5 63.5t23 62.5t34 48.5t40.5 22.5q28 4 55 -15t49.5 -54t36.5 -79.5t15 -90.5
q3 -97 -53.5 -152.5t-173.5 -55.5zM302 287q-13 35 -35 54t-45 19q-22 0 -38.5 -17.5t-19.5 -53.5q5 -15 27 -22.5t45 -7.5t42.5 7t23.5 21zM202 510q-1 2 -12 13l-24 24l-21 21v5l57 57h4q14 -13 29 -28t27 -29v-5l-56 -58h-4z" />
    <glyph glyph-name="uniFED4" unicode="&#x641;" horiz-adv-x="414" arabic-form="medial" 
d="M285 371q23 -1 38 -20t22 -47.5t7.5 -57.5t-5.5 -52q-4 -23 -19.5 -48.5t-31.5 -42.5q22 -7 56.5 -9t71.5 -2q20 0 30 -15.5t10 -33.5q0 -16 -9 -29.5t-27 -13.5h-20q-128 0 -216 51q-54 -25 -96 -38t-96 -13q-34 0 -52 14.5t-19 31.5q0 17 17.5 31.5t53.5 14.5
q35 0 63.5 3t60.5 13q-19 29 -16 62.5t19 67.5q17 35 42.5 66t55.5 50t60 17zM307 198q1 16 -6 33t-17 32q-9 14 -20.5 15.5t-25.5 -1.5q-28 -8 -53 -27.5t-30 -40.5q2 -24 20.5 -42.5t37.5 -26.5q13 3 33.5 12.5t38.5 22t22 23.5zM242 448q-1 2 -12 13l-24 24l-21 21v5
l57 57h4q14 -13 29 -28t27 -29v-5l-56 -58h-4z" />
    <glyph glyph-name="uniFED6" unicode="&#x642;" horiz-adv-x="639" arabic-form="final" 
d="M105 103q-38 -123 -2 -192q41 -81 172 -84q59 -1 105 9.5t86.5 32.5t82.5 56q5 17 4 35.5t-6 39.5h-36q-84 0 -134 26t-50 66q0 25 10.5 54t27.5 56q23 37 52.5 63t54.5 26q26 0 49.5 -27.5t41.5 -68.5q10 -24 18.5 -50.5t13.5 -52.5h45q19 0 29 -10.5t10 -24.5v-16
q0 -41 -39 -41h-37q-2 -57 -18.5 -97t-49.5 -69t-84 -54q-46 -22 -95 -32t-105 -9q-99 2 -154.5 51t-63.5 123q-4 44 9.5 94t46.5 100zM377 137q9 -24 32 -33.5t55 -10.5t67 -1q-8 36 -29 67q-16 22 -35 36t-35 14q-14 0 -27 -11.5t-20.5 -28.5t-7.5 -32zM538 350
q-1 2 -12 13l-24 24l-21 21v5l57 57h4q14 -13 29 -28t27 -29v-5l-56 -58h-4zM384 350q-1 2 -12 13l-24 24l-21 21v5l57 57h4q14 -13 29 -28t27 -29v-5l-56 -58h-4z" />
    <glyph glyph-name="uniFED7" unicode="&#x642;" horiz-adv-x="442" arabic-form="initial" 
d="M160 0h-158q-28 0 -50 13.5t-22 32.5q0 20 22 33t50 13h134q60 0 96.5 5t60 16.5t44.5 30.5q2 16 -1 35t-10 41q-16 -29 -40.5 -41t-50.5 -13q-27 -1 -52.5 9.5t-41.5 30t-16 44.5q0 30 8.5 63.5t23 62.5t34 48.5t40.5 22.5q28 4 55 -15t49.5 -54t36.5 -79.5t15 -90.5
q3 -97 -53.5 -152.5t-173.5 -55.5zM302 287q-13 35 -35 54t-45 19q-22 0 -38.5 -17.5t-19.5 -53.5q5 -15 27 -22.5t45 -7.5t42.5 7t23.5 21zM298 510q-1 2 -12 13l-24 24l-21 21v5l57 57h4q14 -13 29 -28t27 -29v-5l-56 -58h-4zM144 510q-1 2 -12 13l-24 24l-21 21v5l57 57
h4q14 -13 29 -28t27 -29v-5l-56 -58h-4z" />
    <glyph glyph-name="uniFED8" unicode="&#x642;" horiz-adv-x="414" arabic-form="medial" 
d="M285 371q23 -1 38 -20t22 -47.5t7.5 -57.5t-5.5 -52q-4 -23 -19.5 -48.5t-31.5 -42.5q22 -7 56.5 -9t71.5 -2q20 0 30 -15.5t10 -33.5q0 -16 -9 -29.5t-27 -13.5h-20q-128 0 -216 51q-54 -25 -96 -38t-96 -13q-34 0 -52 14.5t-19 31.5q0 17 17.5 31.5t53.5 14.5
q35 0 63.5 3t60.5 13q-19 29 -16 62.5t19 67.5q17 35 42.5 66t55.5 50t60 17zM307 198q1 16 -6 33t-17 32q-9 14 -20.5 15.5t-25.5 -1.5q-28 -8 -53 -27.5t-30 -40.5q2 -24 20.5 -42.5t37.5 -26.5q13 3 33.5 12.5t38.5 22t22 23.5zM336 420q-1 2 -12 13l-24 24l-21 21v5
l57 57h4q14 -13 29 -28t27 -29v-5l-56 -58h-4zM182 420q-1 2 -12 13l-24 24l-21 21v5l57 57h4q14 -13 29 -28t27 -29v-5l-56 -58h-4z" />
    <glyph glyph-name="uniFEDA" unicode="&#x643;" horiz-adv-x="759" arabic-form="final" 
d="M758 0q-46 0 -73.5 18t-40.5 61q-44 -34 -101 -56t-120 -31.5t-124 -8.5q-113 3 -185 40t-89 106t35 166l25 -5q-27 -76 1 -122.5t97.5 -68t165.5 -25.5q56 -2 110.5 4t100 20.5t73.5 38.5q-7 58 -19 177t-29 282l58 82l13 -2q11 -224 20 -354.5t13 -162.5
q4 -28 9.5 -42.5t18.5 -19.5t41 -5q21 0 31 -14.5t10 -31.5t-10.5 -31.5t-30.5 -14.5zM416 248q-24 -15 -56 -12t-80 19l5 13q27 -3 59.5 2t57.5 18t28 32q-13 -2 -30.5 -1.5t-31.5 6t-19 16.5q-8 21 -2 48t22 52.5t37.5 43t45.5 20.5l5 -5q-7 -31 -18 -60q-19 0 -39 -8
t-20 -28q0 -12 9.5 -16.5t37.5 -0.5q42 7 39 -40q-1 -27 -14.5 -56t-35.5 -43z" />
    <glyph glyph-name="uniFEDB" unicode="&#x643;" horiz-adv-x="551" arabic-form="initial" 
d="M1 0q-35 0 -52.5 14.5t-17.5 31.5q-1 17 17 31.5t53 14.5q101 0 164.5 4.5t99.5 15t55 29.5q-1 39 -29.5 78t-76.5 82.5t-108 97.5l-11 -17q-13 7 -33 20.5t-25 22.5q-6 26 -6 49q0 55 27 95t76 69t113.5 52t140.5 44.5t157 45.5l6 -7l-23 -92q-27 -4 -70 -14.5
t-93.5 -25t-101 -31t-93.5 -32.5t-70 -30.5t-30 -25.5q54 -40 106.5 -83t95 -88.5t68 -91.5t25.5 -92q0 -58 -28.5 -91.5t-79 -49.5t-116.5 -21t-140 -5z" />
    <glyph glyph-name="uniFEDC" unicode="&#x643;" horiz-adv-x="721" arabic-form="medial" 
d="M354 233q13 -13 20 -33t8 -45q2 -25 -4.5 -48.5t-25.5 -40.5q-29 -26 -75 -40t-121 -21q-32 -3 -71 -4t-84 -1q-35 0 -53 14t-18 31q-1 17 17 32t54 15h104.5t54.5 0.5t27.5 1t23.5 1.5q40 3 78 12.5t66 30.5q-7 24 -23 48.5t-37 46.5q-21 23 -50 47.5t-60.5 48.5t-58 46
t-43.5 38q-8 8 -11 12.5t-3 14.5q0 20 8.5 49t19.5 47q34 43 100 83.5t145 76.5q75 35 154 62t143 43l4 -7q-10 -47 -26 -95q-55 -14 -124 -35t-137 -46q-64 -23 -119 -47.5t-89.5 -48t-37.5 -44.5q98 -61 154 -97t90 -65q7 -6 25.5 -21t42.5 -35t48.5 -40.5t44 -36.5
t28.5 -23q36 -27 61.5 -42t52.5 -20.5t64 -5.5q20 0 30 -14.5t10 -31.5t-10 -31.5t-30 -14.5q-52 0 -103.5 22.5t-90.5 55.5q-16 14 -41 36.5t-51.5 47t-48 44.5t-32.5 27z" />
    <glyph glyph-name="uniFEDE" unicode="&#x644;" horiz-adv-x="677" arabic-form="final" 
d="M678 92q20 0 29.5 -14.5t9.5 -31.5t-9.5 -31.5t-29.5 -14.5q-48 0 -77 19q-4 -68 -21 -101q-72 -73 -150.5 -107t-150.5 -34q-64 0 -115.5 24t-81.5 69t-30 107q0 33 9.5 71t31.5 80l19 -5q-20 -77 0.5 -134t73 -88.5t127.5 -31.5q60 0 125.5 25.5t121.5 79.5
q-3 39 -5.5 78t-5.5 76q-3 28 -9 79.5t-14.5 118t-18 141t-20.5 147.5l63 96l12 -2q9 -97 16.5 -188.5t13 -167t9.5 -126.5t6 -67q5 -30 12 -44.5t21 -18.5t38 -4z" />
    <glyph glyph-name="uniFEDF" unicode="&#x644;" horiz-adv-x="260" arabic-form="initial" 
d="M216 612q-13 -26 -25 -42t-21 -29q0 -11 6 -62t10.5 -134t1.5 -190q-4 -59 -19 -93t-54 -48t-116 -14q-34 0 -51.5 14.5t-17.5 32.5q0 17 17.5 31t51.5 14q35 0 70 2.5t69 17.5q2 79 -4.5 167t-19 176.5t-29.5 168.5q-7 28 7 44t45 47q6 -13 16 -33.5t25.5 -39.5
t37.5 -30z" />
    <glyph glyph-name="uniFEE0" unicode="&#x644;" horiz-adv-x="285" arabic-form="medial" 
d="M285 0q-37 0 -66 15t-46 51q-19 -27 -48.5 -41t-62.5 -19.5t-63 -5.5q-34 0 -51.5 14.5t-17.5 31.5t17.5 31.5t51.5 14.5q40 0 85.5 5t73.5 21q0 5 -1 10q-4 37 -12.5 112t-19 175t-22.5 212l60 83l11 -3q8 -149 16 -265t15 -188.5t10 -94.5q5 -30 11.5 -44.5t20.5 -18.5
t38 -4q20 0 30.5 -14t10.5 -31q0 -18 -10.5 -32.5t-30.5 -14.5z" />
    <glyph glyph-name="uniFEE2" unicode="&#x645;" horiz-adv-x="588" arabic-form="final" 
d="M105 109l33 -329l-40 -51h-8l-39 312q4 82 46.5 149.5t127.5 109t215 43.5l11 -10q-4 -43 -6 -85.5t9 -77.5t41.5 -56.5t90.5 -21.5q21 0 31.5 -14.5t10.5 -31.5t-10.5 -31.5t-31.5 -14.5q-40 0 -70.5 9t-52.5 24q-18 -30 -31 -40t-42 -5q-58 10 -107.5 37.5t-86.5 64.5
q-21 21 -27 36.5t-1 30t18 34.5q-19 -16 -38 -36.5t-43 -45.5zM211 210q37 -48 87.5 -82t122.5 -51q-23 36 -29 80.5t-2 87.5q-67 3 -108 -6t-71 -29z" />
    <glyph glyph-name="uniFEE3" unicode="&#x645;" horiz-adv-x="481" arabic-form="initial" 
d="M-1 0q-34 0 -51.5 14.5t-17.5 31.5t17.5 31.5t51.5 14.5q41 0 73.5 3.5t57.5 21t42 58.5q12 29 25 56t28 49q42 61 85 63t82 -54q22 -31 35.5 -71.5t13.5 -81.5q-1 -22 -10 -46t-22.5 -42.5t-29.5 -24.5q-22 -8 -57.5 -2t-76 23.5t-76.5 43.5q-28 -52 -70 -70t-100 -18z
M237 223q-8 -9 -15 -23t-14 -31q46 -31 90 -46.5t84 -12.5q-9 35 -20 62.5t-26 45.5q-23 28 -49 30.5t-50 -25.5z" />
    <glyph glyph-name="uniFEE4" unicode="&#x645;" horiz-adv-x="533" arabic-form="medial" 
d="M358 -1q-44 -8 -100 5.5t-111 58.5q-21 -36 -54 -49.5t-94 -13.5q-26 0 -47.5 13t-21.5 34t21.5 33t47.5 12q50 0 79.5 6.5t46 20.5t27.5 35q14 26 27.5 60t26.5 59q20 39 49 50t59.5 -3.5t54.5 -51.5q4 -6 8 -13q28 -45 49 -82t45 -59t61 -22q21 0 31.5 -15t9.5 -32
q0 -17 -10.5 -31t-30.5 -14q-14 0 -36 2.5t-46.5 15.5t-45.5 44q-17 -48 -46 -63zM185 142q-1 -3 -2 -5q31 -28 69.5 -40t74.5 -12.5t60 7.5q-46 101 -91 131t-80 -21q-8 -12 -15.5 -27t-15.5 -33z" />
    <glyph glyph-name="uniFEE6" unicode="&#x646;" horiz-adv-x="697" arabic-form="final" 
d="M352 310q-1 2 -12 13l-24 24l-21 21v5l57 57h4q14 -13 29 -28t27 -29v-5l-56 -58h-4zM696 92q21 0 31 -14.5t10 -31.5t-10.5 -31.5t-30.5 -14.5q-26 0 -48 9t-39 28q-1 -55 -28.5 -102t-74 -81.5t-105.5 -54t-124 -19.5q-107 0 -163.5 52t-56.5 145q0 40 10.5 80.5
t23.5 78.5l22 -2q-31 -121 20 -188.5t176 -67.5q74 0 139 31.5t119 77.5q5 34 -3.5 70t-25.5 71t-37 63l38 72h7q16 -25 28.5 -48.5t24.5 -43.5q20 -35 41.5 -57t55.5 -22z" />
    <glyph glyph-name="uniFEE7" unicode="&#x646;" horiz-adv-x="363" arabic-form="initial" 
d="M213 410q50 -61 73.5 -128t23.5 -120q0 -25 -5 -47.5t-19 -37.5q-30 -33 -66 -49.5t-88.5 -22t-132.5 -5.5q-27 0 -48 14.5t-21 30.5q-1 18 20.5 32.5t48.5 14.5q52 0 105 3.5t96.5 13t65.5 27.5q-7 54 -34 101.5t-57 74.5l26 98h12zM145 453q-1 2 -12 13l-24 24l-21 21
v5l57 57h4q14 -13 29 -28t27 -29v-5l-56 -58h-4z" />
    <glyph glyph-name="uniFEE8" unicode="&#x646;" horiz-adv-x="384" arabic-form="medial" 
d="M167 222q0 35 11 58t29 47h15q-5 -64 11.5 -117.5t55 -85.5t96.5 -32h5q16 0 25 -12.5t9 -27.5v-10q0 -16 -8.5 -29t-25.5 -13h-25q-47 0 -85.5 22t-64.5 58q-26 -50 -81.5 -65t-133.5 -15q-35 0 -52.5 14.5t-17.5 31.5q-1 17 17 31.5t53 14.5q69 0 116 4.5t75 21.5
q-24 50 -24 104zM142 440q-1 2 -12 13l-24 24l-21 21v5l57 57h4q14 -13 29 -28t27 -29v-5l-56 -58h-4z" />
    <glyph glyph-name="uniFEEA" unicode="&#x647;" horiz-adv-x="501" arabic-form="final" 
d="M354 531q15 -100 27 -173t23 -129q11 -51 20 -81t26 -43t52 -13q20 0 29.5 -14t9.5 -31t-9.5 -32t-29.5 -15q-65 0 -96.5 39t-52.5 123q-29 -54 -72 -78t-87 -24q-58 0 -96.5 33.5t-38.5 83.5q0 38 21 76t56 70.5t77.5 56.5t85.5 34q-3 14 -6 28.5t-6 29.5l57 59h10z
M103 236q0 -33 18 -54t46.5 -31t60.5 -10q34 0 66 13.5t51 43.5q-3 12 -5.5 25t-5.5 27q-4 20 -9 42.5t-10 47.5q-39 -5 -80.5 -17.5t-76.5 -33.5t-55 -53z" />
    <glyph glyph-name="uniFEEB" unicode="&#x647;" horiz-adv-x="520" arabic-form="initial" 
d="M-1 0q-34 0 -51.5 14.5t-17.5 31.5t17.5 31.5t51.5 14.5q28 0 54.5 3.5t50.5 9.5q-19 31 -25.5 67.5t6.5 76.5q10 32 27.5 65t38.5 58q-37 18 -41 55t19 76h9q-1 -9 16.5 -25t46 -35.5t60 -39t59 -36.5t43.5 -27q54 -35 79.5 -77.5t27.5 -84t-15 -77.5q-18 -39 -55 -65
t-86.5 -31.5t-107.5 17.5q-16 6 -31 15q-42 -19 -88 -28t-88 -9zM289 218q0 8 -7.5 26t-19.5 38t-24.5 34.5t-21.5 16.5q-12 -1 -29 -12t-34 -28t-29 -35t-14 -33q-2 -22 16.5 -48.5t46.5 -47.5q44 19 74.5 43t41.5 46zM315 199q-3 -34 -18.5 -61.5t-39.5 -49.5
q27 -6 60.5 -9.5t63.5 6t46 40.5q8 14 0 34t-25.5 42t-38.5 41.5t-40 32.5q-7 5 -13 8q9 -47 5 -84z" />
    <glyph glyph-name="uniFEEC" unicode="&#x647;" horiz-adv-x="410" arabic-form="medial" 
d="M354 -102q0 22 -26.5 45t-70 39t-94.5 18h-32q13 -43 38.5 -69.5t54.5 -40.5t53 -18.5t33 -4.5q19 0 31.5 7.5t12.5 23.5zM251 297q-26 0 -52 -28t-45 -74t-24 -100q40 3 77 14t64.5 33t38.5 60q5 21 -3 43t-23 37t-33 15zM0 0q-35 0 -52.5 14.5t-17.5 31.5t17.5 31.5
t53.5 14.5q20 0 44.5 -0.5t50.5 1.5q4 63 22.5 110t46 83.5t58.5 68.5q53 55 87.5 44t41.5 -85q7 -70 -14 -126t-61 -96h132q21 0 31.5 -15t9.5 -33q-1 -16 -11 -30t-30 -14h-77q23 -18 37 -44t14 -58q0 -63 -28.5 -90t-69.5 -28q-43 -1 -83 26t-68.5 76.5t-37.5 117.5h-96z
" />
    <glyph glyph-name="uniFEEE" unicode="&#x648;" horiz-adv-x="373" arabic-form="final" 
d="M373 92q21 0 30.5 -13t9.5 -33q0 -19 -9.5 -32.5t-30.5 -13.5h-36q-7 -33 -22.5 -72t-36.5 -76.5t-45.5 -68t-49.5 -47.5q-19 -13 -38 -17t-44 -3q-19 1 -56.5 4.5t-81 12t-80.5 21.5v8q93 -3 177.5 24.5t144.5 82t80 131.5h-54q-22 0 -51.5 4.5t-57 15.5t-45.5 30.5
t-18 48.5q0 20 9 55.5t24 69.5q25 58 57.5 92t67.5 34q37 0 64 -36t43 -86q11 -33 16.5 -69t6.5 -67h26zM266 92h31q-5 36 -20.5 71t-34.5 60q-30 39 -58 39q-22 0 -39 -20t-26.5 -45t-9.5 -40q0 -26 25 -40t61.5 -19.5t70.5 -5.5z" />
    <glyph glyph-name="uniFEF0" unicode="&#x649;" horiz-adv-x="773" arabic-form="final" 
d="M159 146q-21 -40 -30.5 -76.5t-9.5 -66.5q0 -85 70 -133.5t193 -48.5q39 0 85.5 5.5t93.5 17t87.5 29.5t65.5 44q-4 26 -40 44.5t-93.5 28.5t-126.5 10l3 2h-3q8 44 34 67t54 23h230q22 0 31.5 -14.5t9.5 -31.5t-9.5 -30.5t-31.5 -13.5h-47q13 -16 20.5 -35.5t7.5 -40.5
q0 -47 -34 -82t-89.5 -58t-121.5 -34t-130 -11q-106 0 -175 27.5t-102.5 76t-33.5 109.5q0 45 18 96t58 103z" />
    <glyph glyph-name="uniFEF2" unicode="&#x64a;" horiz-adv-x="773" arabic-form="final" 
d="M159 146q-21 -40 -30.5 -76.5t-9.5 -66.5q0 -85 70 -133.5t193 -48.5q39 0 85.5 5.5t93.5 17t87.5 29.5t65.5 44q-4 26 -40 44.5t-93.5 28.5t-126.5 10l3 2h-3q8 44 34 67t54 23h230q22 0 31.5 -14.5t9.5 -31.5t-9.5 -30.5t-31.5 -13.5h-47q13 -16 20.5 -35.5t7.5 -40.5
q0 -47 -34 -82t-89.5 -58t-121.5 -34t-130 -11q-106 0 -175 27.5t-102.5 76t-33.5 109.5q0 45 18 96t58 103zM468 -415q-1 2 -12 13l-24 24l-21 21v5l57 57h4q14 -13 29 -28t27 -29v-5l-56 -58h-4zM314 -415q-1 2 -12 13l-24 24l-21 21v5l57 57h4q14 -13 29 -28t27 -29v-5
l-56 -58h-4z" />
    <glyph glyph-name="uniFEF3" unicode="&#x64a;" horiz-adv-x="363" arabic-form="initial" 
d="M213 410q50 -61 73.5 -128t23.5 -120q0 -25 -5 -47.5t-19 -37.5q-30 -33 -66 -49.5t-88.5 -22t-132.5 -5.5q-27 0 -48 14.5t-21 30.5q-1 18 20.5 32.5t48.5 14.5q52 0 105 3.5t96.5 13t65.5 27.5q-7 54 -34 101.5t-57 74.5l26 98h12zM238 -205q-1 2 -12 13l-24 24l-21 21
v5l57 57h4q14 -13 29 -28t27 -29v-5l-56 -58h-4zM84 -205q-1 2 -12 13l-24 24l-21 21v5l57 57h4q14 -13 29 -28t27 -29v-5l-56 -58h-4z" />
    <glyph glyph-name="uniFEF4" unicode="&#x64a;" horiz-adv-x="384" arabic-form="medial" 
d="M167 222q0 35 11 58t29 47h15q-5 -64 11.5 -117.5t55 -85.5t96.5 -32h5q16 0 25 -12.5t9 -27.5v-10q0 -16 -8.5 -29t-25.5 -13h-25q-47 0 -85.5 22t-64.5 58q-26 -50 -81.5 -65t-133.5 -15q-35 0 -52.5 14.5t-17.5 31.5q-1 17 17 31.5t53 14.5q69 0 116 4.5t75 21.5
q-24 50 -24 104zM248 -205q-1 2 -12 13l-24 24l-21 21v5l57 57h4q14 -13 29 -28t27 -29v-5l-56 -58h-4zM94 -205q-1 2 -12 13l-24 24l-21 21v5l57 57h4q14 -13 29 -28t27 -29v-5l-56 -58h-4z" />
    <glyph glyph-name=".notdef" horiz-adv-x="830" 
d="M415 -10q-73 0 -137.5 27.5t-113.5 76.5t-76.5 113.5t-27.5 137.5q0 74 27.5 138t76.5 113t113.5 76.5t137.5 27.5q74 0 138 -27.5t113 -76.5t76.5 -113t27.5 -138q0 -73 -27.5 -137.5t-76.5 -113.5t-113 -76.5t-138 -27.5zM308 526q-22 0 -37.5 -26t-15.5 -63
q0 -35 15.5 -61t37.5 -26q23 0 38 26t15 61q0 37 -15 63t-38 26zM521 526q-22 0 -37.5 -26t-15.5 -63q0 -35 15.5 -61t37.5 -26q23 0 38 26t15 61q0 37 -15 63t-38 26zM593 134l26 10q-27 65 -83.5 100.5t-120.5 35.5t-120.5 -35.5t-83.5 -100.5l26 -10q31 62 79.5 86.5
t98.5 24.5t98.5 -24.5t79.5 -86.5z" />
    <glyph glyph-name=".null" 
 />
    <glyph glyph-name="nonmarkingreturn" horiz-adv-x="333" 
 />
    <glyph glyph-name="CR" unicode="&#xd;" horiz-adv-x="600" 
 />
    <glyph glyph-name="space" unicode=" " horiz-adv-x="296" 
 />
    <glyph glyph-name="exclam" unicode="!" horiz-adv-x="194" 
d="M87 202q-1 119 -3.5 234.5t-11.5 228.5l92 42q-1 -114 -12 -244t-37 -261h-28zM97 -15q-22 0 -37 15t-15 37q0 21 15 36t37 15t37 -15t15 -36q0 -22 -15 -37t-37 -15z" />
    <glyph glyph-name="quotedbl" unicode="&#x22;" horiz-adv-x="263" 
d="M109 680q-3 -33 -7 -76t-9.5 -87.5t-12.5 -84.5h-23q-7 40 -12.5 84.5t-9.5 87.5t-7 76q41 8 81 0zM235 680q-3 -33 -7 -76t-9.5 -87.5t-12.5 -84.5h-23q-7 40 -12.5 84.5t-9.5 87.5t-7 76q41 8 81 0z" />
    <glyph glyph-name="numbersign" unicode="#" horiz-adv-x="529" 
d="M487 200l-10 -51h-99l-26 -149h-52l26 149h-180l-26 -149h-51l26 149h-100l9 51h100l38 215h-100l10 51h99l26 149h51l-26 -149h180l26 149h52l-26 -149h100l-9 -51h-100l-38 -215h100zM155 200h180l38 215h-180z" />
    <glyph glyph-name="dollar" unicode="$" horiz-adv-x="479" 
d="M234 -15q-12 0 -24 1l-18 -107l-40 4l19 109q-40 10 -72.5 36t-32.5 77q0 19 5 41t13 36h23q3 -54 22 -89.5t50 -52.5l34 201q-33 15 -63.5 32.5t-50 44.5t-19.5 70q0 47 23.5 81t64.5 52.5t91 18.5h5l17 102l41 -5l-17 -100q25 -4 48.5 -10.5t39.5 -13.5v-116h-23
q-5 36 -22 61.5t-51 35.5l-31 -185q36 -15 70 -33.5t56.5 -48t22.5 -77.5q0 -44 -20.5 -81.5t-61 -60.5t-99.5 -23zM149 419q0 -35 22.5 -56t55.5 -37l30 174h-4q-54 0 -79 -23.5t-25 -57.5zM342 116q0 42 -27 66t-64 42l-34 -197q12 -2 25 -2q54 0 77 28t23 63z" />
    <glyph glyph-name="percent" unicode="%" horiz-adv-x="788" 
d="M566 570l31 -16l-370 -580l-31 16zM192 543q36 0 66.5 -19t49 -55t18.5 -88t-19 -89.5t-50 -57t-67 -19.5q-35 0 -66 19t-50 55.5t-19 87.5q0 53 19.5 90t50.5 56.5t67 19.5zM194 240q29 0 46 31.5t17 100.5q0 61 -16 103.5t-53 42.5q-28 0 -45.5 -31.5t-17.5 -100.5
q0 -61 16 -103.5t53 -42.5zM599 313q35 0 65.5 -19t49.5 -55t19 -88t-19 -89.5t-50 -57t-67 -19.5q-35 0 -66 19t-50 55.5t-19 87.5q0 53 19 90t50.5 56.5t67.5 19.5zM601 10q29 0 46 31.5t17 100.5q0 61 -16 103.5t-53 42.5q-28 0 -45.5 -31.5t-17.5 -100.5
q0 -61 16 -103.5t53 -42.5z" />
    <glyph glyph-name="ampersand" unicode="&#x26;" horiz-adv-x="742" 
d="M510 390h196v-23q-43 -1 -64.5 -4.5t-29 -13.5t-10.5 -30q-8 -78 -42 -145q17 -25 33 -51q27 -43 51 -64.5t46.5 -28.5t46.5 -7v-23q-13 -4 -25 -5t-23 -1q-61 0 -104 27t-71 70q-2 4 -5 7q-45 -52 -106.5 -82.5t-132.5 -30.5q-58 0 -106 23t-76 63.5t-28 93.5
q0 59 26.5 101.5t68 73t86.5 54.5q-37 34 -58 66.5t-21 81.5q0 43 22.5 74t58.5 47.5t74 16.5q34 0 66.5 -14.5t54.5 -42t22 -67.5q0 -47 -32.5 -81.5t-82.5 -60.5q38 -31 85.5 -78.5t102.5 -123.5q25 52 30 111q3 28 -12.5 35.5t-40.5 8.5v23zM235 559q0 -40 22.5 -65.5
t60.5 -57.5q33 25 51 53t18 66q0 42 -20.5 65.5t-55.5 23.5q-31 0 -53.5 -22.5t-22.5 -62.5zM144 185q0 -62 44 -98t108 -36q53 0 101.5 23t85.5 63q-62 87 -116 140t-96 90l-4 4q-50 -34 -86.5 -78t-36.5 -108z" />
    <glyph glyph-name="quotesingle" unicode="'" horiz-adv-x="137" 
d="M109 680q-3 -33 -7 -76t-9.5 -87.5t-12.5 -84.5h-23q-7 40 -12.5 84.5t-9.5 87.5t-7 76q41 8 81 0z" />
    <glyph glyph-name="parenleft" unicode="(" horiz-adv-x="307" 
d="M269 740q-66 -94 -101 -204t-35 -244q0 -133 35 -258t101 -219l-25 -14q-57 65 -98.5 145t-63.5 168.5t-22 177.5q0 134 49 249.5t135 212.5z" />
    <glyph glyph-name="parenright" unicode=")" horiz-adv-x="294" 
d="M38 740l25 14q86 -97 135.5 -212.5t49.5 -249.5q0 -89 -22.5 -177.5t-63.5 -168.5t-99 -145l-25 14q66 94 101 219t35 258q0 134 -35 244t-101 204z" />
    <glyph glyph-name="asterisk" unicode="*" horiz-adv-x="435" 
d="M397 578l-138 -60l76 -130l-18 -13l-100 111l-100 -111l-18 13l76 130l-137 60l7 21l146 -32l15 149h22l15 -149l147 32z" />
    <glyph glyph-name="plus" unicode="+" horiz-adv-x="547" 
d="M253 46v159h-158v41h158v158h41v-158h158v-41h-158v-159h-41z" />
    <glyph glyph-name="comma" unicode="," horiz-adv-x="172" 
d="M115 99q8 -18 10 -35.5t2 -31.5q0 -49 -18 -89.5t-45.5 -65.5t-55.5 -30v24q23 17 36 53.5t13 70.5q0 13 -2 30t-10 31q10 14 30 27t40 16z" />
    <glyph glyph-name="hyphen" unicode="-" horiz-adv-x="308" 
d="M284 227l-257 -23l-3 56l256 22z" />
    <glyph glyph-name="period" unicode="." horiz-adv-x="194" 
d="M97 -15q-22 0 -37 15t-15 37q0 21 15 36t37 15t37 -15t15 -36q0 -22 -15 -37t-37 -15z" />
    <glyph glyph-name="slash" unicode="/" horiz-adv-x="368" 
d="M326 790h42l-326 -940h-42z" />
    <glyph glyph-name="zero" unicode="0" horiz-adv-x="510" 
d="M256 455q62 0 106.5 -33t68.5 -86.5t24 -117.5q0 -65 -24.5 -118t-69 -84t-106.5 -31q-61 0 -106 31t-69.5 83.5t-24.5 117.5q0 64 24 118t69.5 87t107.5 33zM256 68q42 0 78 17t58 51t22 83q0 48 -21.5 82.5t-57.5 52.5t-80 18q-43 0 -79 -18t-57.5 -52.5t-21.5 -82.5
q0 -49 22 -83t58.5 -51t78.5 -17z" />
    <glyph glyph-name="one" unicode="1" horiz-adv-x="406" 
d="M254 101q0 -35 8 -51t32 -21t71 -6v-23h-301v23q49 1 72 6t30.5 21t7.5 51v263l-92 -80l-21 23l165 145h35q-4 -19 -5.5 -38t-1.5 -38v-275z" />
    <glyph glyph-name="two" unicode="2" horiz-adv-x="447" 
d="M377 149h23l-8 -149h-359v23q12 7 26.5 15.5t30.5 21.5q28 21 58.5 51t57 65t43.5 71.5t17 70.5q0 31 -18 53.5t-62 22.5q-39 0 -68.5 -19t-58.5 -52l-19 16q35 60 78.5 88t101.5 28q66 0 98.5 -32.5t32.5 -85.5q0 -52 -24.5 -94.5t-67.5 -83t-98 -85.5v-3h113
q56 0 77.5 20.5t25.5 57.5z" />
    <glyph glyph-name="three" unicode="3" horiz-adv-x="474" 
d="M230 155v-3q29 2 62 -6t61.5 -27t46.5 -51t18 -78q0 -60 -33.5 -112.5t-91 -85t-131.5 -32.5q-43 0 -83.5 12.5t-73.5 37.5q12 39 44 61q30 -35 60.5 -55t71.5 -20q49 0 82.5 24t51.5 63.5t18 83.5q0 59 -29 94t-80 43.5t-118 -12.5v31q70 25 109.5 59t56.5 70t17 66
q0 38 -22 57t-62 19q-38 0 -72.5 -19t-70.5 -62l-17 16q41 63 87 94.5t109 31.5q59 0 95.5 -27.5t36.5 -83.5q0 -62 -42 -108t-101 -81z" />
    <glyph glyph-name="four" unicode="4" horiz-adv-x="494" 
d="M97 71h207v278h-3zM380 -225l-82 -15q2 42 4 104t2 136h-293v23q12 13 21.5 26t19.5 26l258 348q11 14 19.5 27.5t14.5 24.5h35l-1 -404h70v-71h-42q-16 0 -22 -11t-6 -29q0 -46 0.5 -93t1.5 -92z" />
    <glyph glyph-name="five" unicode="5" horiz-adv-x="438" 
d="M380 445l-14 -77h-254l-14 -122q302 -59 302 -255q0 -65 -30.5 -117.5t-85.5 -83t-130 -30.5q-35 0 -84.5 10.5t-87.5 39.5q12 39 44 61q31 -35 62.5 -55t74.5 -20q56 0 91 24t52 62t17 79q0 49 -25.5 90.5t-84.5 73t-161 48.5l33 267h219q24 0 42.5 1t33.5 4z" />
    <glyph glyph-name="six" unicode="6" horiz-adv-x="546" 
d="M414 664q-130 -40 -202 -142t-72 -248q0 -73 18 -129.5t50 -88.5t73 -32q35 0 64.5 22.5t47.5 63.5t18 95q0 82 -38 118.5t-91 36.5q-22 0 -43 -5t-36 -12l-16 16q20 26 53 41t73 15q44 0 85 -20.5t67 -64t26 -112.5q0 -75 -32 -127t-82 -79t-105 -27q-63 0 -112 34
t-77 96t-28 146q0 86 29 158t79.5 127.5t115 92t135.5 51.5v-26z" />
    <glyph glyph-name="seven" unicode="7" horiz-adv-x="469" 
d="M433 440v-23q-9 -15 -25.5 -55t-38 -96t-44.5 -121t-45 -132t-40.5 -128.5t-29.5 -109.5h-91q25 57 54 123.5t57.5 134.5t54.5 131.5t45 116t29 87.5h-218q-48 0 -64.5 -19.5t-20.5 -60.5h-23v152h400z" />
    <glyph glyph-name="eight" unicode="8" horiz-adv-x="499" 
d="M444 163q0 -55 -26.5 -95t-71.5 -61.5t-101 -21.5q-47 0 -90.5 16.5t-71.5 51t-28 88.5q0 45 19 80.5t49.5 60.5t65.5 41q-33 21 -62.5 46t-48 58t-18.5 77q0 52 26 91.5t71.5 62t102.5 22.5q49 0 89.5 -17.5t65 -51t24.5 -83.5q0 -48 -21.5 -84.5t-51.5 -61.5t-57 -39
q37 -22 67.5 -46t49 -56t18.5 -78zM137 528q0 -42 21 -72t53.5 -52.5t66.5 -42.5q33 25 61 68t28 94q0 50 -29.5 86.5t-85.5 36.5q-55 0 -85 -35.5t-30 -82.5zM130 148q0 -52 31.5 -90.5t86.5 -38.5q51 0 83.5 35t32.5 89q0 36 -16 61.5t-48.5 49t-82.5 52.5
q-45 -30 -66 -74.5t-21 -83.5z" />
    <glyph glyph-name="nine" unicode="9" horiz-adv-x="546" 
d="M122 -224q89 26 152.5 82t97.5 137t34 182q0 109 -38 174t-100 65q-34 0 -64.5 -21t-49.5 -61t-19 -96q0 -80 38 -119t92 -39q22 0 42.5 5t35.5 12l16 -16q-19 -25 -52.5 -40.5t-72.5 -15.5q-44 0 -85.5 23t-67.5 69t-26 114q0 77 32.5 126.5t84 73.5t106.5 24
q63 0 111 -31.5t75 -90.5t27 -143q0 -88 -30 -162t-81.5 -131.5t-118 -94.5t-139.5 -52v26z" />
    <glyph glyph-name="colon" unicode=":" horiz-adv-x="194" 
d="M97 -15q-22 0 -37 15t-15 37q0 21 15 36t37 15t37 -15t15 -36q0 -22 -15 -37t-37 -15zM97 314q-22 0 -37 15t-15 37q0 21 15 36t37 15t37 -15t15 -36q0 -22 -15 -37t-37 -15z" />
    <glyph glyph-name="semicolon" unicode=";" horiz-adv-x="180" 
d="M115 99q8 -18 10 -35.5t2 -31.5q0 -49 -18 -89.5t-45.5 -65.5t-55.5 -30v24q23 17 36 53.5t13 70.5q0 13 -2 30t-10 31q10 14 30 27t40 16zM83 314q-22 0 -37 15t-15 37q0 21 15 36t37 15t37 -15t15 -36q0 -22 -15 -37t-37 -15z" />
    <glyph glyph-name="less" unicode="&#x3c;" horiz-adv-x="547" 
d="M448 404v-47l-293 -131l293 -132v-47l-357 162v33z" />
    <glyph glyph-name="equal" unicode="=" horiz-adv-x="547" 
d="M452 135h-357v41h357v-41zM452 275h-357v41h357v-41z" />
    <glyph glyph-name="greater" unicode="&#x3e;" horiz-adv-x="547" 
d="M99 404l357 -162v-33l-357 -162v47l293 132l-293 131v47z" />
    <glyph glyph-name="question" unicode="?" horiz-adv-x="355" 
d="M239 194q-61 -4 -101.5 19.5t-40.5 72.5q0 40 29.5 71.5t78.5 70.5q41 32 61 58t20 69q0 48 -30 70t-67 22q-39 0 -70.5 -26.5t-38.5 -85.5h-23v118q29 16 65 21.5t61 5.5q43 0 81 -15.5t62.5 -48.5t24.5 -88q0 -46 -22 -78.5t-73 -75.5q-44 -37 -68 -58t-24 -44
q0 -28 24.5 -40.5t50.5 -11.5v-26zM178 -15q-22 0 -37 15t-15 37q0 21 15 36t37 15t37 -15t15 -36q0 -22 -15 -37t-37 -15z" />
    <glyph glyph-name="at" unicode="@" horiz-adv-x="844" 
d="M327 50q-40 0 -62.5 32t-22.5 78q0 47 21 98.5t55.5 96.5t75 73t80.5 28q19 0 32 -6.5t24 -15.5l64 22q-11 -120 -15 -199t-4 -108q0 -14 4.5 -30t24.5 -16q24 0 51 18t51 50t39 75.5t15 94.5q0 76 -35 133t-99 88.5t-150 31.5q-87 0 -152 -30.5t-109 -82.5t-66 -115.5
t-22 -129.5q0 -48 13.5 -99.5t44 -98t81.5 -80t126 -47.5t178 1v-26q-132 -24 -228 -3.5t-158.5 72.5t-93 123t-30.5 147q0 75 27.5 146.5t81 129t130 91.5t174.5 34q100 0 172 -36.5t111.5 -100t39.5 -144.5q0 -55 -18.5 -108t-54 -95t-86 -67t-115.5 -25q-19 25 -17.5 74
t8.5 106h-2q-41 -85 -88.5 -132.5t-95.5 -47.5zM355 120q24 0 51.5 23.5t53 60.5t41.5 79.5t16 79.5q0 22 -9 41.5t-39 19.5q-31 0 -59 -23.5t-49.5 -60t-33.5 -77t-12 -75.5q0 -30 10 -49t30 -19z" />
    <glyph glyph-name="A" unicode="A" horiz-adv-x="635" 
d="M543 100q12 -35 23 -50.5t26.5 -20t41.5 -6.5v-23h-239v23q34 2 50.5 7t18.5 21t-10 49l-57 172q-5 -5 -15 -6.5t-21 -1.5h-131q-22 0 -33 -5t-19 -27l-47 -132q-13 -38 0.5 -56.5t77.5 -20.5v-23h-207v23q32 2 50.5 20.5t32.5 56.5l177 486q10 26 19 51t16 51h49
q7 -26 15.5 -51t18.5 -51zM363 300q13 0 18 3.5t0 15.5l-82 243h-2l-96 -265q5 2 12 2.5t16 0.5h134z" />
    <glyph glyph-name="B" unicode="B" horiz-adv-x="663" 
d="M66 0v23q27 1 42.5 6t21.5 21t6 50v465q0 35 -7.5 50.5t-27.5 20.5t-60 6v23h95q49 0 80 1.5t57.5 2.5t61.5 1q106 0 155 -36.5t49 -95.5q0 -61 -40 -97t-98 -57v-2q61 -3 108.5 -23.5t75.5 -57.5t28 -90q0 -52 -27.5 -100.5t-86 -79.5t-152.5 -31h-281zM221 370
q13 9 24.5 11.5t27.5 3.5q30 3 60.5 9.5t56 21.5t41.5 41.5t16 67.5q0 47 -22 70t-55 31t-68 8q-43 0 -62 -11t-19 -58v-195zM339 36q71 0 110.5 26t55.5 64.5t16 76.5q0 55 -27.5 87.5t-74 47t-104.5 14.5q-49 0 -71.5 -12.5t-22.5 -46.5v-193q0 -29 10 -42.5t35.5 -17.5
t72.5 -4z" />
    <glyph glyph-name="C" unicode="C" horiz-adv-x="704" 
d="M406 -15q-73 0 -136 24.5t-110.5 70t-73.5 108.5t-26 139q0 82 30 147.5t82 111.5t120 70t144 24q37 0 75.5 -5t72 -13.5t55.5 -18.5v-158h-23q-4 59 -33 92.5t-71.5 48t-88.5 14.5q-71 0 -132 -32t-97.5 -97.5t-36.5 -167.5q0 -97 34 -168.5t90.5 -110.5t125.5 -39
q63 0 111.5 29.5t79.5 74.5t41 91h23l-6 -117q-38 -47 -98 -82.5t-152 -35.5z" />
    <glyph glyph-name="D" unicode="D" horiz-adv-x="765" 
d="M66 0v23q27 1 42 6t21.5 21t6.5 50v465q0 35 -7.5 50.5t-27.5 20.5t-60 6v23h95q68 0 120.5 2.5t89.5 2.5q108 0 188.5 -35.5t125.5 -105.5t45 -176q0 -82 -30 -147.5t-81.5 -111.5t-116 -70t-134.5 -24h-277zM313 36q152 0 223.5 81.5t71.5 220.5q0 107 -35.5 172
t-100.5 94.5t-154 29.5q-55 0 -76 -11.5t-21 -57.5v-465q0 -43 20.5 -53.5t71.5 -10.5z" />
    <glyph glyph-name="E" unicode="E" horiz-adv-x="628" 
d="M66 0v23q27 1 42 6t21.5 21t6.5 50v465q0 35 -7.5 50.5t-27.5 20.5t-60 6v23h476v-140h-23q-1 32 -10 55.5t-33 36t-71 12.5h-115q-21 0 -32.5 -10t-11.5 -54v-188q8 6 19.5 8t27.5 2h141q59 0 62 66h23v-170h-23q-1 41 -14 54.5t-48 13.5h-139q-27 0 -38 -9t-11 -35
v-207q0 -43 15.5 -53.5t60.5 -10.5h139q49 0 77 16.5t41 44t16 59.5h23l-8 -156h-519z" />
    <glyph glyph-name="F" unicode="F" horiz-adv-x="571" 
d="M66 0v23q27 1 42.5 6t21.5 21t6 50v465q0 35 -7.5 50.5t-27.5 20.5t-60 6v23h466v-140h-23q-1 32 -10 55.5t-33 36t-71 12.5h-105q-21 0 -32.5 -10t-11.5 -54v-208q8 6 19.5 8t27.5 2h141q59 0 62 67h23v-170h-23q-1 40 -14 53.5t-48 13.5h-139q-27 0 -38 -9t-11 -35
v-187q0 -34 7.5 -50t30.5 -21t67 -6v-23h-260z" />
    <glyph glyph-name="G" unicode="G" horiz-adv-x="731" 
d="M396 -15q-68 0 -129 24.5t-107.5 69.5t-73 108t-26.5 140q0 82 30 147.5t82 111.5t120 70t144 24q54 0 111.5 -11t91.5 -26v-153h-23q-4 59 -33.5 91.5t-72 45.5t-85.5 13q-73 0 -134 -32.5t-97.5 -97.5t-36.5 -165t36 -172t95.5 -111t129.5 -39q47 0 86 18.5t56 56.5
q3 7 7.5 29.5t4.5 62.5q0 49 -10.5 70.5t-36.5 27.5t-72 7v23h233v-23q-21 -1 -27.5 -12.5t-6.5 -34.5v-58q0 -27 1 -51t7 -50q-17 -17 -54.5 -41.5t-90.5 -43.5t-119 -19z" />
    <glyph glyph-name="H" unicode="H" horiz-adv-x="801" 
d="M66 0v23q27 1 42.5 6t21.5 21t6 50v465q0 35 -7.5 50.5t-27.5 20.5t-60 6v23h250v-23q-27 -1 -42 -6t-21.5 -20.5t-6.5 -50.5v-175q8 6 19.5 8t27.5 2h264q27 0 38 9t11 36v120q0 35 -7.5 50.5t-27.5 20.5t-60 6v23h250v-23q-27 -1 -42 -6t-21.5 -20.5t-6.5 -50.5v-465
q0 -34 7 -50t27.5 -21t59.5 -6v-23h-249v23q27 1 42.5 6t21.5 21t6 50v275q-8 -7 -20 -9t-27 -2h-264q-27 0 -38 -9t-11 -35v-220q0 -34 7.5 -50t27.5 -21t59 -6v-23h-249z" />
    <glyph glyph-name="I" unicode="I" horiz-adv-x="375" 
d="M75 0v23q27 1 42.5 6t21.5 21t6 50v465q0 35 -7.5 50.5t-27.5 20.5t-60 6v23h250v-23q-27 -1 -42 -6t-21.5 -20.5t-6.5 -50.5v-465q0 -34 7.5 -50t28 -21t59.5 -6v-23h-250z" />
    <glyph glyph-name="J" unicode="J" horiz-adv-x="348" 
d="M51 -225v22q34 6 51 27.5t23 64t6 111.5v565q0 35 -7.5 50.5t-27.5 20.5t-60 6v23h250v-23q-27 -1 -42 -6t-21.5 -20.5t-6.5 -50.5v-578q0 -72 -22.5 -119t-60 -70t-82.5 -23z" />
    <glyph glyph-name="K" unicode="K" horiz-adv-x="688" 
d="M630 -6q-58 0 -89 22.5t-58 56.5l-207 260q-13 16 -20 22t-15 6t-14 -5.5t-6 -23.5v-232q0 -34 7.5 -50t27.5 -21t59 -6v-23h-249v23q27 1 42.5 6t21.5 21t6 50v465q0 35 -7.5 50.5t-27.5 20.5t-60 6v23h250v-23q-27 -1 -42 -6t-21.5 -20.5t-6.5 -50.5v-167h2l214 174
q24 20 31 30t7 18q0 10 -11 15.5t-42 6.5v23h210v-23q-30 -2 -54 -15t-55 -38l-190 -155q-16 -12 0 -33l234 -298q27 -34 44.5 -51t34 -23t38.5 -6v-23q-27 -6 -54 -6z" />
    <glyph glyph-name="L" unicode="L" horiz-adv-x="563" 
d="M66 0v23q27 1 42 6t21.5 21t6.5 50v465q0 35 -7.5 50.5t-27.5 20.5t-60 6v23h250v-23q-27 -1 -42 -6t-21.5 -20.5t-6.5 -50.5v-465q0 -43 15.5 -53.5t60.5 -10.5h91q50 0 77.5 16.5t40 44t15.5 59.5h23l-8 -156h-470z" />
    <glyph glyph-name="M" unicode="M" horiz-adv-x="928" 
d="M432 -8q-8 23 -19 46.5t-30 65.5l-191 425h-2l-20 -429q-1 -37 17 -56t79 -21v-23h-213v23q39 2 54.5 21t16.5 56l23 465q2 35 -4.5 50.5t-25.5 20.5t-57 6v23h170q8 -26 17.5 -49t22.5 -51l202 -444h2l186 444q11 26 19.5 50.5t15.5 49.5h158v-23q-28 -1 -44 -6
t-21.5 -20.5t-4.5 -50.5l21 -465q2 -34 9 -50t25.5 -20.5t51.5 -6.5v-23h-232v23q24 2 38 6.5t19.5 20.5t3.5 50l-19 436h-2l-183 -432q-17 -42 -26.5 -65.5t-15.5 -46.5h-41z" />
    <glyph glyph-name="N" unicode="N" horiz-adv-x="778" 
d="M632 -8q-15 23 -33 46.5t-49 57.5l-365 413h-2v-409q0 -37 18.5 -56t77.5 -21v-23h-211v23q41 2 55.5 21t14.5 56v465q0 39 -22.5 57t-72.5 20v23h136q15 -25 32.5 -49t38.5 -47l369 -413h2v409q0 37 -18.5 56t-77.5 21v23h211v-23q-40 -2 -55 -21t-15 -56v-465
q0 -28 0.5 -53.5t1.5 -54.5h-36z" />
    <glyph glyph-name="O" unicode="O" horiz-adv-x="790" 
d="M395 680q68 0 128 -24t107 -69.5t73.5 -109.5t26.5 -143t-26.5 -143t-73 -110t-107.5 -71t-129 -25q-67 0 -127.5 24t-107 69.5t-73 109.5t-26.5 143t26.5 143t73 110t107 71t128.5 25zM409 25q60 0 110.5 33t81.5 97.5t31 159.5q0 104 -36 176.5t-93 110.5t-122 38
q-60 0 -111 -33t-82 -97.5t-31 -159.5q0 -104 36 -176.5t94 -110.5t122 -38z" />
    <glyph glyph-name="P" unicode="P" horiz-adv-x="580" 
d="M66 0v23q27 1 42.5 6t21.5 21t6 50v465q0 35 -7.5 50.5t-27.5 20.5t-60 6v23h95q68 0 110.5 2.5t68.5 2.5q104 0 167 -40.5t63 -115.5q0 -36 -16.5 -71t-52.5 -62.5t-94 -41t-141 -5.5v30q80 -7 125.5 12.5t64.5 55t19 76.5q0 51 -22.5 78.5t-59 37.5t-78.5 10
q-34 0 -51.5 -12t-17.5 -57v-465q0 -34 7.5 -50t30 -21t66.5 -6v-23h-259z" />
    <glyph glyph-name="Q" unicode="Q" horiz-adv-x="790" 
d="M395 680q68 0 128 -24t107 -69.5t73.5 -109.5t26.5 -143q0 -90 -34.5 -161t-94 -117.5t-132.5 -62.5q53 -65 129.5 -122.5t181 -93.5t242.5 -36q64 0 135.5 11.5t149 43.5t158.5 94l17 -17q-113 -103 -240.5 -142.5t-258.5 -38.5q-150 2 -266 43t-203.5 107.5
t-151.5 143.5q-83 8 -151.5 52t-109.5 119t-41 174q0 79 26.5 143t73 110t107 71t128.5 25zM409 25q60 0 110.5 33t81.5 97.5t31 159.5q0 104 -36 176.5t-93 110.5t-122 38q-60 0 -111 -33t-82 -97.5t-31 -159.5q0 -104 36 -176.5t94 -110.5t122 -38z" />
    <glyph glyph-name="R" unicode="R" horiz-adv-x="679" 
d="M634 -6q-41 0 -68 11t-46 29t-36 39l-206 253q-13 16 -19.5 20.5t-17.5 5.5v30q96 -8 150 27t54 107q0 49 -22 74.5t-57 34.5t-74 9q-36 0 -53.5 -11.5t-17.5 -57.5v-465q0 -34 7.5 -50t27.5 -21t59 -6v-23h-249v23q27 1 42.5 6t21.5 21t6 50v465q0 35 -7.5 50.5
t-27.5 20.5t-60 6v23h95q69 0 109 2.5t74 2.5q114 0 167.5 -41.5t53.5 -105.5q0 -66 -50.5 -109t-128.5 -55v-2l207 -254q28 -33 45.5 -50.5t33.5 -23.5t38 -6v-23q-13 -4 -26 -5t-25 -1z" />
    <glyph glyph-name="S" unicode="S" horiz-adv-x="549" 
d="M262 -15q-28 0 -62 6.5t-64.5 20.5t-50 38.5t-19.5 60.5q0 20 5 42t13 36h23q4 -76 50 -120t117 -44q49 0 78.5 18t43 46.5t13.5 60.5q0 46 -23 75.5t-59.5 50t-77 39t-77 41.5t-59.5 57t-23 86q0 54 27 94.5t76 63.5t115 23q58 0 95.5 -9t60.5 -18v-145h-23
q-6 64 -38 98t-102 34q-49 0 -79.5 -15.5t-44 -40t-13.5 -51.5q0 -40 23 -66t59.5 -45t78 -38t78 -44t59.5 -62t23 -94q0 -62 -28.5 -106.5t-79 -68.5t-115.5 -24z" />
    <glyph glyph-name="T" unicode="T" horiz-adv-x="621" 
d="M41 665h539v-156h-23q-2 35 -11 62t-34 42.5t-76 15.5h-83v-529q0 -34 7.5 -50t28 -21t59.5 -6v-23h-250v23q27 1 42.5 6t21.5 21t6 50v529h-84q-50 0 -75 -15.5t-34 -42.5t-11 -62h-23v156z" />
    <glyph glyph-name="U" unicode="U" horiz-adv-x="774" 
d="M301 -15q-86 0 -129.5 47.5t-43.5 129.5v403q0 35 -7 50.5t-25.5 20.5t-53.5 6v23h241v-23q-27 -1 -42 -6t-21.5 -20.5t-6.5 -50.5v-380q0 -58 24.5 -96.5t88.5 -38.5q47 0 89 21t74.5 58.5t51 86.5t18.5 106v243q0 35 -7 50.5t-27.5 20.5t-59.5 6v23h244v-23
q-27 -1 -42 -6t-21.5 -20.5t-6.5 -50.5v-466q0 -34 6.5 -49.5t23 -20.5t45.5 -6v-23h-142q-6 16 -9 38.5t-3 61.5v85h-2q-39 -94 -102.5 -147t-154.5 -53z" />
    <glyph glyph-name="V" unicode="V" horiz-adv-x="637" 
d="M291 -8q-6 26 -10.5 43.5t-14.5 43.5l-180 486q-12 35 -23 50.5t-25 20.5t-37 6v23h229l-1 -23q-33 -1 -47.5 -6.5t-14.5 -21.5t12 -49l159 -437h2l162 437q14 38 0.5 56.5t-75.5 20.5v23h206v-23q-56 -4 -82 -77l-180 -486q-10 -27 -15.5 -44t-11.5 -43h-53z" />
    <glyph glyph-name="W" unicode="W" horiz-adv-x="955" 
d="M226 -8q-4 26 -7.5 43.5t-10.5 43.5l-122 486q-8 35 -16.5 50.5t-21 20.5t-32.5 6v23h234l-1 -23q-40 -1 -58 -6.5t-20 -21.5t6 -49l104 -412h2l188 520h51q10 -28 19 -54.5t19 -53.5l157 -412h3l107 412q19 73 -78 77l1 23h191v-23q-46 -4 -66 -77l-129 -486
q-7 -26 -10.5 -43.5t-7.5 -43.5h-52q-5 26 -11 43.5t-16 43.5l-173 463h-2l-171 -463q-10 -28 -14.5 -44.5t-10.5 -42.5h-52z" />
    <glyph glyph-name="X" unicode="X" horiz-adv-x="573" 
d="M0 0v23q32 2 54.5 19.5t44.5 57.5l126 226q8 15 9 26.5t-7 27.5l-101 185q-18 34 -32 50t-30 21t-41 6v23h233v-23q-42 -2 -52.5 -15t16.5 -62l83 -151h2l85 151q22 39 14.5 57t-51.5 20v23h182v-23q-30 -2 -50.5 -19t-44.5 -58l-93 -160q-17 -28 -2 -57l137 -248
q20 -35 33 -50.5t27 -20t34 -6.5v-23h-227v23q30 2 44.5 7t13.5 21t-20 49l-118 215h-2l-117 -215q-22 -40 -8 -57.5t68 -19.5v-23h-210z" />
    <glyph glyph-name="Y" unicode="Y" horiz-adv-x="553" 
d="M363 665h186v-23q-22 -2 -41.5 -19.5t-43.5 -57.5l-127 -214q-10 -16 -14.5 -29t-4.5 -39v-183q0 -34 7 -50t27.5 -21t59.5 -6v-23h-249v23q27 1 42.5 6t21.5 21t6 50v183q0 26 -4 39t-13 29l-120 214q-19 34 -32 50t-27 21t-36 6v23h223v-23q-44 -2 -51 -15.5t20 -61.5
l106 -193h2l114 193q23 40 9 57.5t-61 19.5v23z" />
    <glyph glyph-name="Z" unicode="Z" horiz-adv-x="587" 
d="M37 0v23q10 12 19 25.5t17 26.5l341 552v2l-220 -7q-40 -1 -60.5 -15.5t-27.5 -39.5t-10 -58h-23v156h453v-23q-10 -13 -18.5 -26t-16.5 -26l-342 -552v-2l237 8q50 2 78.5 17.5t41.5 40.5t15 54h23l-8 -156h-499z" />
    <glyph glyph-name="bracketleft" unicode="[" horiz-adv-x="298" 
d="M276 -180h-179v920h179v-23q-47 -1 -71 -5.5t-32 -20.5t-8 -51v-720q0 -35 8 -51t32 -20.5t71 -5.5v-23z" />
    <glyph glyph-name="backslash" unicode="\" horiz-adv-x="368" 
d="M42 790l326 -940h-42l-326 940h42z" />
    <glyph glyph-name="bracketright" unicode="]" horiz-adv-x="298" 
d="M22 740h179v-920h-179v23q47 1 71 5.5t32 20.5t8 51v720q0 35 -8 51t-32 20.5t-71 5.5v23z" />
    <glyph glyph-name="asciicircum" unicode="^" horiz-adv-x="457" 
d="M407 308h-47l-131 293l-132 -293h-47l161 357h34z" />
    <glyph glyph-name="underscore" unicode="_" horiz-adv-x="377" 
d="M377 -32h-377v32h377v-32z" />
    <glyph glyph-name="grave" unicode="`" horiz-adv-x="155" 
d="M63 751q9 -44 31.5 -91.5t57.5 -85.5l-11 -19q-46 29 -88 75.5t-64 91.5q13 15 34.5 22.5t39.5 6.5z" />
    <glyph glyph-name="a" unicode="a" horiz-adv-x="480" 
d="M158 -15q-47 0 -76.5 24.5t-29.5 70.5q0 37 23 68t76 57t144 48v65q0 41 -17.5 68t-66.5 27q-47 0 -74.5 -29.5t-38.5 -91.5h-23v125q35 17 74.5 27.5t87.5 10.5q55 0 84.5 -14.5t41.5 -40.5t12 -61v-242q0 -53 33 -53q12 0 27.5 8t36.5 33l16 -16q-46 -79 -110 -79
q-66 0 -81 67h-2q-55 -72 -137 -72zM195 44q48 0 100 44v134q-72 -18 -106 -39.5t-44.5 -43t-10.5 -39.5q0 -29 18 -42.5t43 -13.5z" />
    <glyph glyph-name="b" unicode="b" horiz-adv-x="560" 
d="M337 457q47 0 87.5 -24.5t65 -71t24.5 -114.5q0 -64 -22.5 -112.5t-60 -81.5t-83 -49.5t-91.5 -16.5q-33 0 -59 5t-46 13l-54 -15v667q0 28 -8.5 36t-22.5 8q-13 0 -27.5 -4t-26.5 -10l-10 23l173 80l6 -6q-1 -8 -2.5 -43t-1.5 -83v-292q26 37 65.5 64t93.5 27zM283 32
q65 0 107 43.5t42 137.5q0 86 -35 135t-91 49q-34 0 -67 -18t-61 -44v-262q24 -25 53.5 -33t51.5 -8z" />
    <glyph glyph-name="c" unicode="c" horiz-adv-x="471" 
d="M249 -15q-52 0 -98.5 24.5t-75.5 74t-29 123.5q0 79 33.5 134.5t88.5 84.5t117 29q31 0 67.5 -8t65.5 -28v-131h-23q-5 52 -26 80t-48.5 39t-54.5 11q-66 0 -102 -49.5t-36 -123.5q0 -59 20.5 -102.5t56.5 -67.5t81 -24q35 0 69.5 15.5t62.5 42.5l16 -16
q-28 -47 -76 -77.5t-109 -30.5z" />
    <glyph glyph-name="d" unicode="d" horiz-adv-x="564" 
d="M536 77l10 -23l-163 -75l-6 6q2 9 4.5 35.5t2.5 56.5h-1q-26 -37 -65.5 -64.5t-94.5 -27.5q-47 0 -87.5 24.5t-65 71.5t-24.5 114q0 64 22.5 112.5t60 81.5t83 49.5t91.5 16.5t79 -9v211q0 28 -8.5 36t-22.5 8q-13 0 -27.5 -4t-26.5 -10l-10 23l173 80l6 -6
q-1 -8 -2.5 -43t-1.5 -83v-546q0 -28 8.5 -36t22.5 -8q21 0 43 9zM254 45q35 0 67.5 18t60.5 44v262q-24 26 -53.5 33.5t-51.5 7.5q-64 0 -106.5 -43.5t-42.5 -137.5q0 -86 35 -135t91 -49z" />
    <glyph glyph-name="e" unicode="e" horiz-adv-x="462" 
d="M249 -15q-51 0 -97.5 24t-76 72.5t-29.5 123.5q0 76 30 132t80 87t109 31q43 0 79.5 -17t59 -52t22.5 -89l-300 -39v-11q0 -92 42 -144t112 -52q40 0 74 16.5t61 41.5l16 -16q-28 -48 -74.5 -78t-107.5 -30zM244 418q-52 0 -80 -37t-35 -91l207 27q-6 43 -26 72t-66 29z
" />
    <glyph glyph-name="f" unicode="f" horiz-adv-x="330" 
d="M400 790q12 -69 0 -138h-23q-4 46 -20 69t-51 23q-118 0 -118 -236v-68h148v-41h-117q-17 0 -24 -7t-7 -24v-267q0 -35 7.5 -51t30 -21t67.5 -6v-23h-245v23q22 1 35 6t19 21t6 51v298h-69v41h69v71q0 99 37 164t103 94.5t152 20.5z" />
    <glyph glyph-name="g" unicode="g" horiz-adv-x="496" 
d="M198 -235q-41 0 -77 10t-58 32t-22 58q0 61 74 105l23 -4q-13 -19 -20 -41.5t-7 -42.5q0 -38 27 -59.5t82 -21.5q52 0 92.5 18t64.5 48t24 65q0 23 -12.5 36t-45.5 18l-213 36q-41 8 -41 55q0 26 17.5 54t52.5 56q-41 13 -70 42.5t-29 77.5q0 46 27 79t70 51t91 18
q35 0 70 -10t60 -31q25 6 42 32t22 71h21q9 -11 13.5 -28.5t4.5 -31.5q0 -30 -19.5 -46.5t-61.5 -19.5q21 -30 21 -68q0 -45 -27 -78.5t-70 -51.5t-91 -18q-24 0 -47 5q-14 -12 -22.5 -27t-8.5 -30q0 -11 6.5 -20t19.5 -11l208 -35q45 -7 69 -27.5t24 -59.5q0 -35 -20 -71
t-57 -66.5t-89.5 -49t-117.5 -18.5zM246 209q45 0 70 29t25 72q0 49 -29.5 80t-76.5 31q-45 0 -70 -28.5t-25 -72.5q0 -49 30 -80t76 -31z" />
    <glyph glyph-name="h" unicode="h" horiz-adv-x="574" 
d="M475 101q0 -35 6.5 -51t25 -21t52.5 -6v-23h-224v23q23 1 36 6t18.5 21t5.5 51v215q0 35 -15 55t-54 20q-32 0 -68.5 -14t-74.5 -44v-232q0 -35 7 -51t25.5 -21t52.5 -6v-23h-225v23q23 1 36 6t18.5 21t5.5 51v556q0 28 -8 36t-23 8q-13 0 -27.5 -4t-26.5 -10l-10 23
l173 80l6 -6q-1 -8 -2.5 -43t-1.5 -83v-294q39 40 83 65.5t96 25.5q62 0 87.5 -31.5t25.5 -83.5v-239z" />
    <glyph glyph-name="i" unicode="i" horiz-adv-x="293" 
d="M190 101q0 -35 7 -51t25.5 -21t52.5 -6v-23h-225v23q22 1 35 6t19 21t6 51v226q0 28 -8.5 36.5t-22.5 8.5q-13 0 -27.5 -4.5t-26.5 -9.5l-10 23l173 79l6 -6q-1 -8 -2.5 -43t-1.5 -83v-227zM150 554q-22 0 -37 15t-15 37q0 21 15 36t37 15t37 -15t15 -36q0 -22 -15 -37
t-37 -15z" />
    <glyph glyph-name="j" unicode="j" horiz-adv-x="282" 
d="M184 460l6 -6q-1 -8 -2.5 -43t-1.5 -83v-341q0 -98 -45 -159t-132 -63v22q46 8 71.5 55.5t25.5 159.5v325q0 28 -8.5 36.5t-22.5 8.5q-13 0 -27.5 -4.5t-26.5 -9.5l-10 23zM143 554q-22 0 -37 15t-15 37q0 21 15 36t37 15t37 -15t15 -36q0 -22 -15 -37t-37 -15z" />
    <glyph glyph-name="k" unicode="k" horiz-adv-x="526" 
d="M183 101q0 -35 6 -51t19 -21t35 -6v-23h-200v23q23 1 36 6t18.5 21t5.5 51v556q0 28 -8 36t-23 8q-13 0 -27.5 -4t-26.5 -10l-10 23l173 80l6 -6q-1 -8 -2.5 -43t-1.5 -83v-446h2l123 136q19 20 25.5 29.5t6.5 17.5t-9 14t-47 8v23h200v-23q-37 -2 -59.5 -13.5
t-48.5 -39.5l-74 -80l118 -181q24 -35 41 -52.5t34.5 -22.5t39.5 -5v-23q-25 -6 -50 -6q-54 0 -85 21.5t-54 54.5l-102 152l-61 -66v-55z" />
    <glyph glyph-name="l" unicode="l" horiz-adv-x="286" 
d="M183 101q0 -35 7 -51t25.5 -21t52.5 -6v-23h-225v23q22 1 35 6t19 21t6 51v556q0 28 -8.5 36t-22.5 8q-13 0 -27.5 -4t-26.5 -10l-10 23l173 80l6 -6q-1 -8 -2.5 -43t-1.5 -83v-557z" />
    <glyph glyph-name="m" unicode="m" horiz-adv-x="853" 
d="M49 0v23q23 1 36 6t18.5 21t5.5 51v227q0 27 -8 35.5t-22 8.5q-11 0 -21.5 -2.5t-21.5 -7.5l-10 23l161 75l6 -6q-2 -9 -4.5 -35t-2.5 -55h2q38 40 77.5 65.5t91.5 25.5q56 0 82 -25t31 -67q37 42 77.5 67t91.5 25q64 0 89 -31.5t25 -83.5v-239q0 -35 7 -51t25.5 -21
t52.5 -6v-23h-225v23q22 1 35 6t19 21t6 51v215q0 35 -15.5 55t-53.5 20q-60 0 -133 -58v-232q0 -35 6.5 -51t23 -21t46.5 -6v-23h-216v23q22 1 35 6t19 21t6 51v215q0 35 -15.5 55t-53.5 20q-62 0 -133 -58v-232q0 -35 6.5 -51t22.5 -21t46 -6v-23h-215z" />
    <glyph glyph-name="n" unicode="n" horiz-adv-x="581" 
d="M481 101q0 -35 6.5 -51t25 -21t53.5 -6v-23h-225v23q22 1 35 6t19 21t6 51v215q0 35 -15.5 55t-53.5 20q-33 0 -69 -14t-74 -44v-232q0 -35 6.5 -51t25 -21t53.5 -6v-23h-225v23q23 1 36 6t18.5 21t5.5 51v227q0 27 -8 35.5t-22 8.5q-11 0 -21.5 -2.5t-21.5 -7.5l-10 23
l161 75l6 -6q-2 -9 -4.5 -35t-2.5 -55h2q38 40 82.5 65.5t96.5 25.5q64 0 89 -31.5t25 -83.5v-239z" />
    <glyph glyph-name="o" unicode="o" horiz-adv-x="535" 
d="M274 455q58 0 106.5 -28.5t78.5 -79.5t30 -119q0 -60 -20.5 -105.5t-54.5 -76t-74.5 -46t-79.5 -15.5q-57 0 -106 28.5t-78.5 79.5t-29.5 119q0 60 20.5 105.5t54.5 76t74 46t79 15.5zM277 25q59 0 93 42.5t34 131.5q0 61 -18.5 110t-51.5 77.5t-77 28.5q-58 0 -92 -42.5
t-34 -131.5q0 -60 18.5 -109t51.5 -78t76 -29z" />
    <glyph glyph-name="p" unicode="p" horiz-adv-x="567" 
d="M280 -202v-23h-235v23q23 1 36 6t18.5 21t5.5 51v452q0 27 -8 35.5t-22 8.5q-11 0 -21.5 -2.5t-21.5 -7.5l-10 23l161 75l6 -6q-2 -9 -4.5 -35t-2.5 -55h2v-1q26 37 65.5 64.5t94.5 27.5q47 0 87.5 -24.5t65 -71t24.5 -114.5q0 -64 -22.5 -112.5t-60 -81.5t-83 -49.5
t-91.5 -16.5q-23 0 -42.5 2.5t-36.5 6.5v-118q0 -35 7 -51t27.5 -21t60.5 -6zM290 30q65 0 107 43.5t42 137.5q0 86 -35 135t-91 49q-34 0 -67 -18t-61 -44v-262q24 -25 53.5 -33t51.5 -8z" />
    <glyph glyph-name="q" unicode="q" horiz-adv-x="548" 
d="M537 -142l10 -23l-163 -76l-6 6q2 8 3 43t1 83v185q-26 -37 -65.5 -64t-93.5 -27q-47 0 -87.5 24.5t-65 71.5t-24.5 114q0 64 22.5 112.5t60 81.5t83 49.5t91.5 16.5q33 0 59 -5t46 -13l54 13v-557q0 -28 8 -36.5t23 -8.5q11 0 22 3t22 7zM254 45q35 0 67.5 18t60.5 44
v262q-24 26 -53.5 33.5t-51.5 7.5q-64 0 -106.5 -43.5t-42.5 -137.5q0 -86 35 -135t91 -49z" />
    <glyph glyph-name="r" unicode="r" horiz-adv-x="391" 
d="M49 0v23q23 1 36 6t18.5 21t5.5 51v229q0 26 -8 34t-22 8q-11 0 -21.5 -2.5t-21.5 -7.5l-10 23l161 75l6 -6q-2 -9 -4.5 -38.5t-2.5 -64.5h2q41 61 90.5 82t103.5 17q8 -74 0 -148h-23q-4 41 -18.5 57.5t-40.5 16.5q-33 0 -59 -14t-52 -46v-215q0 -35 7 -51t27.5 -21
t60.5 -6v-23h-235z" />
    <glyph glyph-name="s" unicode="s" horiz-adv-x="411" 
d="M191 -15q-71 0 -109 27t-38 69q0 15 6 33.5t21 36.5h23q1 -64 27 -98t82 -34q50 0 74 24t24 55q0 28 -17.5 46t-45 31.5t-58.5 26t-58.5 28t-45 38.5t-17.5 58q0 55 44 92t123 37q31 0 63 -5.5t60 -21.5v-115h-23q-7 59 -38 83.5t-73 24.5q-41 0 -62 -18t-21 -47
q0 -27 17.5 -44.5t45 -30.5t58 -25.5t58 -29t45 -41t17.5 -61.5q0 -67 -52 -103t-130 -36z" />
    <glyph glyph-name="t" unicode="t" horiz-adv-x="363" 
d="M322 87l16 -16q-24 -36 -55 -61t-81 -25q-40 0 -63.5 16t-33.5 42.5t-10 57.5v298h-69v41h69v137l85 15q-3 -38 -4 -76t-1 -76h148v-41h-117q-17 0 -24 -7t-7 -24v-246q0 -32 11.5 -55t47.5 -23q21 0 43 10.5t45 32.5z" />
    <glyph glyph-name="u" unicode="u" horiz-adv-x="567" 
d="M542 77l10 -23l-162 -75l-6 6q2 9 4.5 35.5t2.5 56.5h-2q-39 -40 -80.5 -66t-93.5 -26q-63 0 -87.5 32t-24.5 83v230q0 26 -8.5 34t-22.5 8q-20 0 -43 -10l-10 23l162 75l6 -6q-1 -8 -2.5 -42.5t-1.5 -80.5v-206q0 -35 14.5 -55t52.5 -20q32 0 66.5 13.5t71.5 43.5v223
q0 26 -8 34t-23 8q-13 0 -27 -4.5t-25 -9.5l-10 23l171 79l6 -6q-1 -8 -2.5 -42.5t-1.5 -80.5v-219q0 -28 8.5 -36t22.5 -8q22 0 43 9z" />
    <glyph glyph-name="v" unicode="v" horiz-adv-x="464" 
d="M213 -10q-7 26 -13.5 45t-17.5 44l-112 263q-14 34 -25.5 49t-24 20t-30.5 6v23h211v-23q-34 -1 -48 -6.5t-12 -21t15 -47.5l97 -230h2l95 230q20 47 7.5 60t-65.5 15v23h177v-23q-15 -1 -27 -6.5t-22.5 -21t-24.5 -47.5l-111 -263q-11 -27 -16 -45t-11 -44h-44z" />
    <glyph glyph-name="w" unicode="w" horiz-adv-x="708" 
d="M206 -8q-7 26 -13 44t-17 43l-106 263q-13 34 -24 49t-24 20t-32 6v23h201v-23q-29 -1 -41 -6.5t-9.5 -21t14.5 -47.5l91 -229h2l90 224l-2 5q-13 34 -23.5 49t-21 20t-23.5 6v23h190v-23q-30 -1 -42.5 -6.5t-11 -21t13.5 -47.5l88 -229h2l85 229q17 47 4.5 60t-62.5 15
v23h177v-23q-25 -2 -41 -15t-34 -60l-99 -263q-10 -27 -15.5 -44t-10.5 -43h-44q-7 26 -14 44t-17 43l-78 203l-82 -203q-11 -27 -16.5 -44t-11.5 -43h-43z" />
    <glyph glyph-name="x" unicode="x" horiz-adv-x="479" 
d="M11 0v23q17 1 28 6t25 21.5t39 49.5l87 120l-89 122q-24 33 -37 48.5t-24 20.5t-29 6v23h210v-23q-31 -1 -44.5 -6.5t-8 -20.5t29.5 -48l62 -84l60 84q24 33 27 48t-14 20.5t-53 6.5v23h180v-23q-19 -1 -31 -6.5t-25 -20.5t-37 -48l-84 -116l92 -126q25 -34 39.5 -50
t25.5 -21t26 -6v-23h-211v23q33 1 46 6t7.5 21t-30.5 50l-65 88l-63 -88q-37 -50 -26 -62.5t66 -14.5v-23h-179z" />
    <glyph glyph-name="y" unicode="y" horiz-adv-x="472" 
d="M69 -235q-34 0 -54 21.5t-20 59.5q0 17 4 34t11 35h23q3 -43 15 -64t39 -21q30 0 62.5 45.5t75.5 132.5l-149 334q-15 34 -26.5 49t-24 20t-30.5 6v23h213v-23q-33 -1 -46.5 -6.5t-11.5 -21t15 -47.5l100 -230h2l93 230q20 47 6 60t-67 15v23h178v-23q-15 -1 -27 -6.5
t-22.5 -21t-23.5 -47.5l-107 -263q-42 -104 -75.5 -174t-69 -105t-83.5 -35z" />
    <glyph glyph-name="z" unicode="z" horiz-adv-x="470" 
d="M39 0v23q11 12 22 25.5t20 26.5l231 331v3l-127 -4q-41 -1 -61 -13.5t-26.5 -35.5t-8.5 -58h-23v142h355v-23q-10 -11 -21.5 -25t-20.5 -27l-232 -331v-3l135 4q49 1 76.5 16.5t40 40.5t15.5 55h23l-8 -147h-390z" />
    <glyph glyph-name="braceleft" unicode="{" horiz-adv-x="289" 
d="M277 -157v-23q-74 -3 -116.5 13.5t-60.5 55t-18 99.5q0 51 5 96t5 85q0 56 -16.5 81.5t-60.5 27.5v22q44 2 60.5 28t16.5 81q0 40 -5 81.5t-5 84.5q0 60 18 97.5t60.5 54t116.5 13.5v-23q-75 -2 -101 -35t-26 -107q0 -45 5 -86t5 -76q0 -40 -11 -73t-53 -50v-2
q42 -17 53 -49.5t11 -73.5q0 -35 -5 -79.5t-5 -97.5q0 -76 26 -109.5t101 -35.5z" />
    <glyph glyph-name="bar" unicode="|" horiz-adv-x="196" 
d="M77 790h42v-1015h-42v1015z" />
    <glyph glyph-name="braceright" unicode="}" horiz-adv-x="292" 
d="M12 -157q75 2 101 35.5t26 109.5q0 53 -5 97.5t-5 79.5q0 41 11 73.5t53 49.5v2q-42 17 -53 50t-11 73q0 35 5 76t5 86q0 74 -26 107t-101 35v23q74 3 116.5 -13.5t60.5 -54t18 -97.5q0 -43 -5 -84.5t-5 -81.5q0 -55 17 -81t60 -28v-22q-43 -2 -60 -27.5t-17 -81.5
q0 -40 5 -85t5 -96q0 -61 -18 -99.5t-60.5 -55t-116.5 -13.5v23z" />
    <glyph glyph-name="asciitilde" unicode="~" horiz-adv-x="547" 
d="M184 235q-28 0 -42.5 -15.5t-22.5 -44.5l-24 5q6 47 31 71t61 24q27 0 49.5 -9.5t42.5 -22.5t40.5 -22.5t43.5 -9.5q28 0 43 16.5t22 47.5l24 -5q-6 -46 -31 -72.5t-61 -26.5q-27 0 -49.5 9.5t-42.5 22.5t-40.5 22.5t-43.5 9.5z" />
    <glyph glyph-name="uni00A0" unicode="&#xa0;" horiz-adv-x="296" 
 />
    <glyph glyph-name="exclamdown" unicode="&#xa1;" horiz-adv-x="194" 
d="M112 458q22 0 37 -15t15 -37q0 -21 -15 -36t-37 -15t-37 15t-15 36q0 22 15 37t37 15zM122 241q1 -119 3.5 -234.5t11.5 -228.5l-92 -42q1 114 12.5 244t36.5 261h28z" />
    <glyph glyph-name="cent" unicode="&#xa2;" horiz-adv-x="604" 
d="M339 -15q-26 0 -50 3l-19 -109l-40 4l19 114q-65 18 -107 59t-62 94.5t-20 107.5q0 74 34.5 136.5t98 101.5t149.5 43l17 103l41 -5l-17 -98q44 -2 85.5 -12.5t71.5 -23.5v-129h-23q-9 58 -48.5 88t-92.5 36l-80 -467q22 -6 47 -6q48 0 89 20t69.5 57t37.5 88h23l-6 -114
q-31 -41 -87.5 -66t-129.5 -25zM150 278q0 -47 11.5 -92t35 -82t61.5 -58l77 454q-89 -4 -137 -63.5t-48 -158.5z" />
    <glyph glyph-name="sterling" unicode="&#xa3;" horiz-adv-x="505" 
d="M66 0v23q49 24 70 57t21 82q0 36 -8.5 60.5t-17.5 47.5h-92v31h80q-4 14 -6.5 29.5t-2.5 34.5q0 88 55.5 134.5t144.5 46.5q43 0 81 -9t60 -18v-133h-23q-5 54 -35 89t-95 35q-55 0 -82.5 -29.5t-27.5 -92.5q0 -28 4.5 -48.5t11.5 -38.5h149v-31h-138q6 -16 10 -34.5
t4 -42.5q0 -43 -14 -71t-38 -48v-3h167q56 0 77.5 24t25.5 62h23l-8 -157h-396z" />
    <glyph glyph-name="currency" unicode="&#xa4;" horiz-adv-x="670" 
d="M335 40q-52 0 -98.5 18t-82.5 50l-67 -68l-26 27l67 67q-32 36 -50 82.5t-18 98.5t18 98.5t50 82.5l-67 67l26 27l67 -67q37 31 83 49t98 18t98.5 -18t82.5 -50l68 68l26 -27l-67 -67q31 -37 49 -83t18 -98t-18 -98t-49 -83l67 -67l-26 -27l-68 68q-36 -32 -82.5 -50
t-98.5 -18zM335 75q65 0 118.5 33t85 87.5t31.5 119.5t-31.5 119.5t-85 87.5t-118.5 33t-118.5 -33t-85 -87.5t-31.5 -119.5t31.5 -119.5t85 -87.5t118.5 -33z" />
    <glyph glyph-name="yen" unicode="&#xa5;" horiz-adv-x="472" 
d="M433 141h-163v-41q0 -34 7 -50t25.5 -21t52.5 -6v-23h-226v23q22 1 35 6t19 21t6 50v41h-155v32h155v30q0 17 -1.5 28t-5.5 20h-148v32h131l-79 142q-19 34 -31.5 50t-24.5 21t-29 6v23h198v-23q-37 -2 -42.5 -15.5t21.5 -61.5l74 -133h2l87 133q26 39 12 57t-55 20v23
h170v-23q-22 -2 -38.5 -20.5t-41.5 -56.5l-91 -142h136v-32h-155q-8 -17 -8 -48v-30h163v-32z" />
    <glyph glyph-name="brokenbar" unicode="&#xa6;" horiz-adv-x="196" 
d="M77 790h42v-315h-42v315zM77 90h42v-315h-42v315z" />
    <glyph glyph-name="section" unicode="&#xa7;" horiz-adv-x="542" 
d="M478 -37q0 -56 -28.5 -98.5t-77 -66t-110.5 -23.5q-28 0 -62 6t-64.5 20.5t-50 39.5t-19.5 62q0 18 5 40t13 36h23q4 -76 49.5 -122t116.5 -46q47 0 76 19t42.5 49t13.5 61q0 42 -23 69t-58.5 46.5t-76 37.5t-76.5 40t-58.5 54.5t-22.5 81.5q0 41 16 72t46 54
q-28 19 -45 46.5t-17 67.5q0 49 26 87.5t75.5 61t119.5 22.5q47 0 85.5 -9t60.5 -18v-145h-23q-7 67 -38 101.5t-98 34.5q-49 0 -79 -16.5t-43.5 -42t-13.5 -53.5q0 -38 23 -62t59 -41t76 -33.5t76 -39t59 -57.5t23 -89q0 -40 -12.5 -73t-35.5 -58q21 -21 34.5 -49t13.5 -67
zM155 295q0 -41 23 -67t60 -44.5t78 -35.5t77 -40q9 15 13.5 33t4.5 37q0 46 -21 76t-54.5 49.5t-72 35.5t-74.5 34q-18 -16 -26 -36t-8 -42z" />
    <glyph glyph-name="dieresis" unicode="&#xa8;" horiz-adv-x="280" 
d="M46 578q-21 0 -35 14t-14 35q0 20 14 34t35 14q20 0 34.5 -14t14.5 -34q0 -21 -14.5 -35t-34.5 -14zM234 578q-21 0 -35 14t-14 35q0 20 14 34t35 14q20 0 34.5 -14t14.5 -34q0 -21 -14.5 -35t-34.5 -14z" />
    <glyph glyph-name="copyright" unicode="&#xa9;" horiz-adv-x="815" 
d="M408 -15q-72 0 -135 27t-111 75t-75 111t-27 135t27 134.5t75 110.5t111 75t135 27t134.5 -27t110.5 -75t75 -110.5t27 -134.5t-27 -135t-75 -111t-110.5 -75t-134.5 -27zM408 18q64 0 120.5 24.5t99 68t67 100.5t24.5 122t-24.5 121.5t-67 100t-99 68t-120.5 24.5
q-65 0 -121.5 -24.5t-99.5 -68t-67 -100t-24 -121.5t24 -122t67 -100.5t99.5 -68t121.5 -24.5zM412 135q-69 0 -112.5 29.5t-64.5 74t-21 90.5q0 55 26.5 100.5t74.5 73t113 27.5q35 0 69 -8t58 -19v-91h-17q-7 47 -41.5 68t-78.5 21q-68 0 -104 -42t-36 -115
q0 -44 14 -85.5t44 -68t79 -26.5q51 0 90 31t49 86h16l-4 -81q-22 -29 -62 -47t-92 -18z" />
    <glyph glyph-name="ordfeminine" unicode="&#xaa;" horiz-adv-x="289" 
d="M287 416l8 -10q-25 -45 -65 -45q-45 0 -53 41h-2q-13 -20 -33 -30.5t-42 -10.5q-27 0 -42.5 15.5t-15.5 39.5q0 33 30.5 55.5t102.5 40.5v33q0 24 -9.5 38t-32.5 14q-51 0 -65 -68h-12v69q19 10 44 16.5t55 6.5q47 0 65.5 -17.5t18.5 -49.5v-128q0 -27 17 -27
q6 0 13.5 3.5t17.5 13.5zM175 421v73q-49 -13 -62 -32t-13 -32q0 -16 8.5 -24t21.5 -8t24 6.5t21 16.5z" />
    <glyph glyph-name="guillemotleft" unicode="&#xab;" horiz-adv-x="358" 
d="M105 259q0 -7 3 -13t7 -11l106 -142l-17 -16l-180 171v22l180 171l17 -16l-106 -142q-4 -5 -7 -11t-3 -13zM261 259q0 -7 2.5 -13t5.5 -11l66 -103l-16 -16l-124 132v22l124 132l16 -16l-66 -103q-3 -5 -5.5 -11t-2.5 -13z" />
    <glyph glyph-name="logicalnot" unicode="&#xac;" horiz-adv-x="547" 
d="M476 350v-182h-41v141h-363v41h404z" />
    <glyph glyph-name="uni00AD" unicode="&#xad;" horiz-adv-x="308" 
d="M284 227l-257 -23l-3 56l256 22z" />
    <glyph glyph-name="registered" unicode="&#xae;" horiz-adv-x="787" 
d="M394 -15q-72 0 -135 27t-111 75t-75 111t-27 135t27 134.5t75 110.5t111 75t135 27t134.5 -27t110.5 -75t75 -110.5t27 -134.5t-27 -135t-75 -111t-110.5 -75t-134.5 -27zM394 18q64 0 120.5 24.5t99 68t67 100.5t24.5 122t-24.5 121.5t-67 100t-99 68t-120.5 24.5
q-65 0 -121.5 -24.5t-99.5 -68t-67 -100t-24 -121.5t24 -122t67 -100.5t99.5 -68t121.5 -24.5zM566 142q-44 0 -64.5 16.5t-38.5 39.5l-88 116q-8 10 -13.5 14t-13.5 4v22q65 -6 93 18.5t28 59.5t-22 50t-59 15q-28 0 -41 -8t-13 -41v-231q0 -37 12 -45.5t49 -9.5v-16h-161
v16q23 1 33 9.5t10 45.5v231q0 37 -12 45.5t-49 9.5v16h61q44 0 69.5 2t46.5 2q76 0 107.5 -25t31.5 -63q0 -33 -24 -60t-78 -38v-1l89 -117q19 -25 31.5 -37t24 -16t27.5 -4v-16q-10 -3 -19 -3.5t-17 -0.5z" />
    <glyph glyph-name="macron" unicode="&#xaf;" horiz-adv-x="262" 
d="M-1 650h266v-50h-266v50z" />
    <glyph glyph-name="degree" unicode="&#xb0;" horiz-adv-x="320" 
d="M160 449q-49 0 -81.5 33t-32.5 81q0 49 32.5 82t81.5 33q48 0 81 -33t33 -82q0 -48 -33 -81t-81 -33zM160 491q30 0 49.5 21.5t19.5 50.5q0 30 -19.5 51.5t-49.5 21.5q-31 0 -50 -21.5t-19 -51.5q0 -29 19 -50.5t50 -21.5z" />
    <glyph glyph-name="plusminus" unicode="&#xb1;" horiz-adv-x="547" 
d="M253 80v159h-158v41h158v158h41v-158h158v-41h-158v-159h-41zM452 -5h-357v41h357v-41z" />
    <glyph glyph-name="uni00B2" unicode="&#xb2;" horiz-adv-x="322" 
d="M254 472h21l-5 -102h-252v13q5 2 13.5 7.5t17.5 12.5q77 62 109.5 119.5t32.5 100.5q0 25 -12 42.5t-46 17.5q-29 0 -51.5 -15t-42.5 -44l-11 9q23 50 53.5 75t77.5 25q46 0 72.5 -24t26.5 -67q0 -49 -34 -101t-114 -114v-1h87q30 0 42.5 11.5t14.5 34.5z" />
    <glyph glyph-name="uni00B3" unicode="&#xb3;" horiz-adv-x="312" 
d="M181 566v-2q22 0 44 -9.5t37.5 -29t15.5 -50.5q0 -48 -40 -81t-105 -33q-28 0 -54.5 7t-45.5 21q6 29 24 48q17 -25 37 -39t45 -14q37 0 54.5 25t17.5 56q0 41 -31.5 59t-87.5 2v19q57 20 80 44.5t23 49.5q0 20 -12.5 32.5t-38.5 12.5q-47 0 -87 -44l-10 9q20 35 48.5 59
t74.5 24q38 0 62.5 -19.5t24.5 -54.5q0 -34 -22 -56t-54 -36z" />
    <glyph glyph-name="acute" unicode="&#xb4;" horiz-adv-x="155" 
d="M89 751q18 1 39.5 -6.5t34.5 -22.5q-22 -45 -64 -91.5t-88 -75.5l-11 19q35 38 57.5 85.5t31.5 91.5z" />
    <glyph glyph-name="uni00B5" unicode="&#xb5;" horiz-adv-x="551" 
d="M185 -15q-22 0 -38.5 5t-29.5 14q8 -54 23.5 -109t36.5 -105q-22 -15 -53.5 -22.5t-53.5 -7.5l3 349l1 331q21 8 42 9t42 1q-3 -38 -4 -73.5t-1 -73.5v-178q0 -35 14.5 -55t52.5 -20q32 0 66.5 13.5t71.5 43.5v333q20 8 40 9t40 1v-368q0 -17 10 -27.5t27 -10.5
q14 0 25.5 6.5t29.5 26.5l16 -16q-40 -76 -101 -76q-34 0 -60.5 20t-26.5 66v5q-38 -39 -80 -65t-93 -26z" />
    <glyph glyph-name="paragraph" unicode="&#xb6;" horiz-adv-x="561" 
d="M424 525h95v-23q-39 -1 -59.5 -6t-28 -20.5t-7.5 -50.5v-438q0 -72 -24.5 -119t-63 -70t-81.5 -23q-19 0 -36 4t-29 11q0 13 9 27t22.5 23.5t27.5 9.5q5 -15 14 -24.5t21 -9.5q34 0 44.5 43t10.5 141v169q-83 -7 -141 5.5t-94 39.5t-52.5 62.5t-16.5 73.5q0 46 23 87
t70 67t119 26q26 0 74 -2.5t103 -2.5z" />
    <glyph glyph-name="periodcentered" unicode="&#xb7;" horiz-adv-x="194" 
d="M97 314q-22 0 -37 15t-15 37q0 21 15 36t37 15t37 -15t15 -36q0 -22 -15 -37t-37 -15z" />
    <glyph glyph-name="cedilla" unicode="&#xb8;" horiz-adv-x="136" 
d="M78 -58q41 -9 65 -34t24 -59q0 -33 -23.5 -58.5t-65.5 -25.5q-48 0 -78 35l9 14q41 -19 67.5 -11t26.5 33q0 19 -17 33t-51 20l28 124h31z" />
    <glyph glyph-name="uni00B9" unicode="&#xb9;" horiz-adv-x="285" 
d="M169 436q0 -31 10 -37.5t47 -7.5v-21h-179v21q36 1 46 7.5t10 37.5v228l-50 -39l-16 21l109 87h26q-2 -10 -3 -20.5t-1 -21.5z" />
    <glyph glyph-name="ordmasculine" unicode="&#xba;" horiz-adv-x="312" 
d="M160 621q53 0 88.5 -34t35.5 -92q0 -43 -19.5 -73t-49.5 -45.5t-63 -15.5q-52 0 -88 35t-36 92q0 44 19.5 73.5t50 44.5t62.5 15zM162 384q26 0 42 23t16 71q0 50 -19 85.5t-50 35.5q-27 0 -43 -22.5t-16 -71.5q0 -51 19 -86t51 -35z" />
    <glyph glyph-name="guillemotright" unicode="&#xbb;" horiz-adv-x="358" 
d="M253 259q0 7 -3 13t-7 11l-106 142l17 16l180 -171v-22l-180 -171l-17 16l106 142q4 5 7 11t3 13zM97 259q0 7 -2.5 13t-5.5 11l-66 103l16 16l124 -132v-22l-124 -132l-16 16l66 103q3 5 5.5 11t2.5 13z" />
    <glyph glyph-name="onequarter" unicode="&#xbc;" horiz-adv-x="684" 
d="M169 376q0 -31 10 -37.5t47 -7.5v-21h-179v21q36 1 46 7.5t10 37.5v228l-50 -39l-16 21l109 87h26q-2 -10 -3 -20.5t-1 -21.5zM571 691l31 -16l-447 -702l-31 16zM535 274l-111 -144h113v144h-2zM534 0q1 20 1.5 37.5t1.5 40.5h-177v13q8 7 14.5 15t11.5 15l166 214
q13 17 19 28h27l-1 -233h41v-52h-26q-9 0 -12 -6t-3 -15q0 -14 0.5 -28t0.5 -29h-64z" />
    <glyph glyph-name="onehalf" unicode="&#xbd;" horiz-adv-x="743" 
d="M169 376q0 -31 10 -37.5t47 -7.5v-21h-179v21q36 1 46 7.5t10 37.5v228l-50 -39l-16 21l109 87h26q-2 -10 -3 -20.5t-1 -21.5zM571 691l31 -16l-447 -702l-31 16zM675 102h21l-5 -102h-252v13q5 2 13.5 7.5t17.5 12.5q77 62 109.5 119.5t32.5 100.5q0 25 -12 42.5
t-46 17.5q-29 0 -51.5 -15t-42.5 -44l-11 9q23 50 53.5 75t77.5 25q46 0 72.5 -24t26.5 -67q0 -49 -34 -101t-114 -114v-1h87q30 0 42.5 11.5t14.5 34.5z" />
    <glyph glyph-name="threequarters" unicode="&#xbe;" horiz-adv-x="691" 
d="M181 506v-2q22 0 44 -9.5t37.5 -29t15.5 -50.5q0 -48 -40 -81t-105 -33q-28 0 -54.5 7t-45.5 21q6 29 24 48q17 -25 37 -39t45 -14q37 0 54.5 25t17.5 56q0 41 -31.5 59t-87.5 2v19q57 20 80 44.5t23 49.5q0 20 -12.5 32.5t-38.5 12.5q-47 0 -87 -44l-10 9q20 35 48.5 59
t74.5 24q38 0 62.5 -19.5t24.5 -54.5q0 -34 -22 -56t-54 -36zM578 691l31 -16l-447 -702l-31 16zM542 274l-111 -144h113v144h-2zM541 0q1 20 1.5 37.5t1.5 40.5h-177v13q8 7 14.5 15t11.5 15l166 214q13 17 19 28h27l-1 -233h41v-52h-26q-9 0 -12 -6t-3 -15q0 -14 0.5 -28
t0.5 -29h-64z" />
    <glyph glyph-name="questiondown" unicode="&#xbf;" horiz-adv-x="351" 
d="M193 459q22 0 37 -15t15 -37q0 -21 -15 -36t-37 -15t-37 15t-15 36q0 22 15 37t37 15zM132 250q62 5 102 -19t40 -73q0 -40 -29 -71.5t-79 -70.5q-40 -32 -60.5 -58t-20.5 -69q0 -48 30 -70t67 -22q39 0 70.5 26.5t38.5 85.5h23v-118q-29 -16 -65 -21.5t-61 -5.5
q-42 0 -80.5 15.5t-63 49t-24.5 87.5q0 46 22 78.5t73 75.5q44 38 68 59t24 43q0 29 -24.5 41.5t-50.5 10.5v26z" />
    <glyph glyph-name="Agrave" unicode="&#xc0;" horiz-adv-x="635" 
d="M543 100q12 -35 23 -50.5t26.5 -20t41.5 -6.5v-23h-239v23q34 2 50.5 7t18.5 21t-10 49l-57 172q-5 -5 -15 -6.5t-21 -1.5h-131q-22 0 -33 -5t-19 -27l-47 -132q-13 -38 0.5 -56.5t77.5 -20.5v-23h-207v23q32 2 50.5 20.5t32.5 56.5l177 486q10 26 19 51t16 51h49
q7 -26 15.5 -51t18.5 -51zM363 300q13 0 18 3.5t0 15.5l-82 243h-2l-96 -265q5 2 12 2.5t16 0.5h134zM259 870q19 -34 43 -66.5t65 -60.5l-11 -19q-55 20 -98.5 50.5t-72.5 66.5q13 14 34 22t40 7z" />
    <glyph glyph-name="Aacute" unicode="&#xc1;" horiz-adv-x="635" 
d="M543 100q12 -35 23 -50.5t26.5 -20t41.5 -6.5v-23h-239v23q34 2 50.5 7t18.5 21t-10 49l-57 172q-5 -5 -15 -6.5t-21 -1.5h-131q-22 0 -33 -5t-19 -27l-47 -132q-13 -38 0.5 -56.5t77.5 -20.5v-23h-207v23q32 2 50.5 20.5t32.5 56.5l177 486q10 26 19 51t16 51h49
q7 -26 15.5 -51t18.5 -51zM363 300q13 0 18 3.5t0 15.5l-82 243h-2l-96 -265q5 2 12 2.5t16 0.5h134zM373 870q20 1 41 -7t34 -22q-28 -36 -71.5 -66.5t-99.5 -50.5l-11 19q41 28 65 60.5t42 66.5z" />
    <glyph glyph-name="Acircumflex" unicode="&#xc2;" horiz-adv-x="635" 
d="M543 100q12 -35 23 -50.5t26.5 -20t41.5 -6.5v-23h-239v23q34 2 50.5 7t18.5 21t-10 49l-57 172q-5 -5 -15 -6.5t-21 -1.5h-131q-22 0 -33 -5t-19 -27l-47 -132q-13 -38 0.5 -56.5t77.5 -20.5v-23h-207v23q32 2 50.5 20.5t32.5 56.5l177 486q10 26 19 51t16 51h49
q7 -26 15.5 -51t18.5 -51zM363 300q13 0 18 3.5t0 15.5l-82 243h-2l-96 -265q5 2 12 2.5t16 0.5h134zM425 724q-28 11 -57 29t-56 40q-27 -22 -53.5 -40t-51.5 -29l-19 9q34 33 65.5 70.5t61.5 77.5h2q30 -40 62 -77.5t65 -70.5z" />
    <glyph glyph-name="Atilde" unicode="&#xc3;" horiz-adv-x="635" 
d="M543 100q12 -35 23 -50.5t26.5 -20t41.5 -6.5v-23h-239v23q34 2 50.5 7t18.5 21t-10 49l-57 172q-5 -5 -15 -6.5t-21 -1.5h-131q-22 0 -33 -5t-19 -27l-47 -132q-13 -38 0.5 -56.5t77.5 -20.5v-23h-207v23q32 2 50.5 20.5t32.5 56.5l177 486q10 26 19 51t16 51h49
q7 -26 15.5 -51t18.5 -51zM363 300q13 0 18 3.5t0 15.5l-82 243h-2l-96 -265q5 2 12 2.5t16 0.5h134zM240 791q-21 0 -36 -13.5t-27 -44.5l-22 5q16 63 42 88t61 25q30 0 54.5 -14.5t46.5 -29t44 -14.5q21 0 36 13.5t27 44.5l23 -5q-16 -63 -42.5 -88t-61.5 -25
q-29 0 -54 14.5t-47 29t-44 14.5z" />
    <glyph glyph-name="Adieresis" unicode="&#xc4;" horiz-adv-x="635" 
d="M543 100q12 -35 23 -50.5t26.5 -20t41.5 -6.5v-23h-239v23q34 2 50.5 7t18.5 21t-10 49l-57 172q-5 -5 -15 -6.5t-21 -1.5h-131q-22 0 -33 -5t-19 -27l-47 -132q-13 -38 0.5 -56.5t77.5 -20.5v-23h-207v23q32 2 50.5 20.5t32.5 56.5l177 486q10 26 19 51t16 51h49
q7 -26 15.5 -51t18.5 -51zM363 300q13 0 18 3.5t0 15.5l-82 243h-2l-96 -265q5 2 12 2.5t16 0.5h134zM213 746q-20 0 -34.5 14.5t-14.5 34.5t14.5 34.5t34.5 14.5q21 0 35.5 -14.5t14.5 -34.5t-14.5 -34.5t-35.5 -14.5zM419 746q-20 0 -34.5 14.5t-14.5 34.5t14.5 34.5
t34.5 14.5q21 0 35.5 -14.5t14.5 -34.5t-14.5 -34.5t-35.5 -14.5z" />
    <glyph glyph-name="Aring" unicode="&#xc5;" horiz-adv-x="635" 
d="M543 100q12 -35 23 -50.5t26.5 -20t41.5 -6.5v-23h-239v23q34 2 50.5 7t18.5 21t-10 49l-57 172q-5 -5 -15 -6.5t-21 -1.5h-131q-22 0 -33 -5t-19 -27l-47 -132q-13 -38 0.5 -56.5t77.5 -20.5v-23h-207v23q32 2 50.5 20.5t32.5 56.5l177 486q10 26 19 51t16 51h49
q7 -26 15.5 -51t18.5 -51zM363 300q13 0 18 3.5t0 15.5l-82 243h-2l-96 -265q5 2 12 2.5t16 0.5h134zM318 661q-44 0 -75 27.5t-31 68.5t31 71t78 30q44 0 75.5 -27.5t31.5 -68.5t-31.5 -71t-78.5 -30zM321 696q19 0 34.5 15t15.5 48t-16 49t-36 16q-19 0 -34.5 -15.5
t-15.5 -47.5q0 -34 16.5 -49.5t35.5 -15.5z" />
    <glyph glyph-name="AE" unicode="&#xc6;" horiz-adv-x="880" 
d="M822 156h23l-8 -156h-491v23q27 1 42.5 6t21.5 21t6 50v172q-6 -5 -16 -6.5t-21 -1.5h-99q-18 0 -30 -3.5t-20 -17.5l-82 -143q-22 -37 -10 -56t76 -21v-23h-212v23q32 2 52.5 21t42.5 56l304 519q-13 14 -36 18t-57 5v23h461v-140h-23q-1 32 -10 55.5t-33 36t-71 12.5
h-87q-21 0 -32.5 -10t-11.5 -54v-188q8 6 19.5 8t27.5 2h113q59 0 62 66h23v-170h-23q-1 41 -14 54.5t-48 13.5h-111q-27 0 -38 -9t-11 -35v-207q0 -43 15.5 -53.5t60.5 -10.5h111q49 0 77 16.5t41 44t16 59.5zM416 329v234h-2l-152 -266q5 2 12.5 2.5t15.5 0.5h100
q15 0 20.5 5.5t5.5 23.5z" />
    <glyph glyph-name="Ccedilla" unicode="&#xc7;" horiz-adv-x="704" 
d="M406 -15q-73 0 -136 24.5t-110.5 70t-73.5 108.5t-26 139q0 82 30 147.5t82 111.5t120 70t144 24q37 0 75.5 -5t72 -13.5t55.5 -18.5v-158h-23q-4 59 -33 92.5t-71.5 48t-88.5 14.5q-71 0 -132 -32t-97.5 -97.5t-36.5 -167.5q0 -97 34 -168.5t90.5 -110.5t125.5 -39
q63 0 111.5 29.5t79.5 74.5t41 91h23l-6 -117q-38 -47 -98 -82.5t-152 -35.5zM412 -58q41 -9 65 -34t24 -59q0 -33 -23.5 -58.5t-65.5 -25.5q-48 0 -78 35l9 14q41 -19 67.5 -11t26.5 33q0 19 -17 33t-51 20l28 124h31z" />
    <glyph glyph-name="Egrave" unicode="&#xc8;" horiz-adv-x="628" 
d="M66 0v23q27 1 42 6t21.5 21t6.5 50v465q0 35 -7.5 50.5t-27.5 20.5t-60 6v23h476v-140h-23q-1 32 -10 55.5t-33 36t-71 12.5h-115q-21 0 -32.5 -10t-11.5 -54v-188q8 6 19.5 8t27.5 2h141q59 0 62 66h23v-170h-23q-1 41 -14 54.5t-48 13.5h-139q-27 0 -38 -9t-11 -35
v-207q0 -43 15.5 -53.5t60.5 -10.5h139q49 0 77 16.5t41 44t16 59.5h23l-8 -156h-519zM273 870q19 -34 43 -66.5t65 -60.5l-11 -19q-55 20 -98.5 50.5t-72.5 66.5q13 14 34 22t40 7z" />
    <glyph glyph-name="Eacute" unicode="&#xc9;" horiz-adv-x="628" 
d="M66 0v23q27 1 42 6t21.5 21t6.5 50v465q0 35 -7.5 50.5t-27.5 20.5t-60 6v23h476v-140h-23q-1 32 -10 55.5t-33 36t-71 12.5h-115q-21 0 -32.5 -10t-11.5 -54v-188q8 6 19.5 8t27.5 2h141q59 0 62 66h23v-170h-23q-1 41 -14 54.5t-48 13.5h-139q-27 0 -38 -9t-11 -35
v-207q0 -43 15.5 -53.5t60.5 -10.5h139q49 0 77 16.5t41 44t16 59.5h23l-8 -156h-519zM387 870q20 1 41 -7t34 -22q-28 -36 -71.5 -66.5t-99.5 -50.5l-11 19q41 28 65 60.5t42 66.5z" />
    <glyph glyph-name="Ecircumflex" unicode="&#xca;" horiz-adv-x="628" 
d="M66 0v23q27 1 42 6t21.5 21t6.5 50v465q0 35 -7.5 50.5t-27.5 20.5t-60 6v23h476v-140h-23q-1 32 -10 55.5t-33 36t-71 12.5h-115q-21 0 -32.5 -10t-11.5 -54v-188q8 6 19.5 8t27.5 2h141q59 0 62 66h23v-170h-23q-1 41 -14 54.5t-48 13.5h-139q-27 0 -38 -9t-11 -35
v-207q0 -43 15.5 -53.5t60.5 -10.5h139q49 0 77 16.5t41 44t16 59.5h23l-8 -156h-519zM439 724q-28 11 -57 29t-56 40q-27 -22 -53.5 -40t-51.5 -29l-19 9q34 33 65.5 70.5t61.5 77.5h2q30 -40 62 -77.5t65 -70.5z" />
    <glyph glyph-name="Edieresis" unicode="&#xcb;" horiz-adv-x="628" 
d="M66 0v23q27 1 42 6t21.5 21t6.5 50v465q0 35 -7.5 50.5t-27.5 20.5t-60 6v23h476v-140h-23q-1 32 -10 55.5t-33 36t-71 12.5h-115q-21 0 -32.5 -10t-11.5 -54v-188q8 6 19.5 8t27.5 2h141q59 0 62 66h23v-170h-23q-1 41 -14 54.5t-48 13.5h-139q-27 0 -38 -9t-11 -35
v-207q0 -43 15.5 -53.5t60.5 -10.5h139q49 0 77 16.5t41 44t16 59.5h23l-8 -156h-519zM227 746q-20 0 -34.5 14.5t-14.5 34.5t14.5 34.5t34.5 14.5q21 0 35.5 -14.5t14.5 -34.5t-14.5 -34.5t-35.5 -14.5zM433 746q-20 0 -34.5 14.5t-14.5 34.5t14.5 34.5t34.5 14.5
q21 0 35.5 -14.5t14.5 -34.5t-14.5 -34.5t-35.5 -14.5z" />
    <glyph glyph-name="Igrave" unicode="&#xcc;" horiz-adv-x="375" 
d="M75 0v23q27 1 42.5 6t21.5 21t6 50v465q0 35 -7.5 50.5t-27.5 20.5t-60 6v23h250v-23q-27 -1 -42 -6t-21.5 -20.5t-6.5 -50.5v-465q0 -34 7.5 -50t28 -21t59.5 -6v-23h-250zM131 870q19 -34 43 -66.5t65 -60.5l-11 -19q-55 20 -98.5 50.5t-72.5 66.5q13 14 34 22t40 7z
" />
    <glyph glyph-name="Iacute" unicode="&#xcd;" horiz-adv-x="375" 
d="M75 0v23q27 1 42.5 6t21.5 21t6 50v465q0 35 -7.5 50.5t-27.5 20.5t-60 6v23h250v-23q-27 -1 -42 -6t-21.5 -20.5t-6.5 -50.5v-465q0 -34 7.5 -50t28 -21t59.5 -6v-23h-250zM245 870q20 1 41 -7t34 -22q-28 -36 -71.5 -66.5t-99.5 -50.5l-11 19q41 28 65 60.5t42 66.5z
" />
    <glyph glyph-name="Icircumflex" unicode="&#xce;" horiz-adv-x="375" 
d="M75 0v23q27 1 42.5 6t21.5 21t6 50v465q0 35 -7.5 50.5t-27.5 20.5t-60 6v23h250v-23q-27 -1 -42 -6t-21.5 -20.5t-6.5 -50.5v-465q0 -34 7.5 -50t28 -21t59.5 -6v-23h-250zM297 724q-28 11 -57 29t-56 40q-27 -22 -53.5 -40t-51.5 -29l-19 9q34 33 65.5 70.5t61.5 77.5
h2q30 -40 62 -77.5t65 -70.5z" />
    <glyph glyph-name="Idieresis" unicode="&#xcf;" horiz-adv-x="375" 
d="M75 0v23q27 1 42.5 6t21.5 21t6 50v465q0 35 -7.5 50.5t-27.5 20.5t-60 6v23h250v-23q-27 -1 -42 -6t-21.5 -20.5t-6.5 -50.5v-465q0 -34 7.5 -50t28 -21t59.5 -6v-23h-250zM85 746q-20 0 -34.5 14.5t-14.5 34.5t14.5 34.5t34.5 14.5q21 0 35.5 -14.5t14.5 -34.5
t-14.5 -34.5t-35.5 -14.5zM291 746q-20 0 -34.5 14.5t-14.5 34.5t14.5 34.5t34.5 14.5q21 0 35.5 -14.5t14.5 -34.5t-14.5 -34.5t-35.5 -14.5z" />
    <glyph glyph-name="Eth" unicode="&#xd0;" horiz-adv-x="765" 
d="M66 0v23q27 1 42 6t21.5 21t6.5 50v465q0 35 -7.5 50.5t-27.5 20.5t-60 6v23h95q68 0 120.5 2.5t89.5 2.5q108 0 188.5 -35.5t125.5 -105.5t45 -176q0 -82 -30 -147.5t-81.5 -111.5t-116 -70t-134.5 -24h-277zM313 36q152 0 223.5 81.5t71.5 220.5q0 107 -35.5 172
t-100.5 94.5t-154 29.5q-55 0 -76 -11.5t-21 -57.5v-465q0 -43 20.5 -53.5t71.5 -10.5zM381 331h-344v36h344v-36z" />
    <glyph glyph-name="Ntilde" unicode="&#xd1;" horiz-adv-x="778" 
d="M632 -8q-15 23 -33 46.5t-49 57.5l-365 413h-2v-409q0 -37 18.5 -56t77.5 -21v-23h-211v23q41 2 55.5 21t14.5 56v465q0 39 -22.5 57t-72.5 20v23h136q15 -25 32.5 -49t38.5 -47l369 -413h2v409q0 37 -18.5 56t-77.5 21v23h211v-23q-40 -2 -55 -21t-15 -56v-465
q0 -28 0.5 -53.5t1.5 -54.5h-36zM327 791q-21 0 -36 -13.5t-27 -44.5l-22 5q16 63 42 88t61 25q30 0 54.5 -14.5t46.5 -29t44 -14.5q21 0 36 13.5t27 44.5l23 -5q-16 -63 -42.5 -88t-61.5 -25q-29 0 -54 14.5t-47 29t-44 14.5z" />
    <glyph glyph-name="Ograve" unicode="&#xd2;" horiz-adv-x="790" 
d="M395 680q68 0 128 -24t107 -69.5t73.5 -109.5t26.5 -143t-26.5 -143t-73 -110t-107.5 -71t-129 -25q-67 0 -127.5 24t-107 69.5t-73 109.5t-26.5 143t26.5 143t73 110t107 71t128.5 25zM409 25q60 0 110.5 33t81.5 97.5t31 159.5q0 104 -36 176.5t-93 110.5t-122 38
q-60 0 -111 -33t-82 -97.5t-31 -159.5q0 -104 36 -176.5t94 -110.5t122 -38zM339 870q19 -34 43 -66.5t65 -60.5l-11 -19q-55 20 -98.5 50.5t-72.5 66.5q13 14 34 22t40 7z" />
    <glyph glyph-name="Oacute" unicode="&#xd3;" horiz-adv-x="790" 
d="M395 680q68 0 128 -24t107 -69.5t73.5 -109.5t26.5 -143t-26.5 -143t-73 -110t-107.5 -71t-129 -25q-67 0 -127.5 24t-107 69.5t-73 109.5t-26.5 143t26.5 143t73 110t107 71t128.5 25zM409 25q60 0 110.5 33t81.5 97.5t31 159.5q0 104 -36 176.5t-93 110.5t-122 38
q-60 0 -111 -33t-82 -97.5t-31 -159.5q0 -104 36 -176.5t94 -110.5t122 -38zM453 870q20 1 41 -7t34 -22q-28 -36 -71.5 -66.5t-99.5 -50.5l-11 19q41 28 65 60.5t42 66.5z" />
    <glyph glyph-name="Ocircumflex" unicode="&#xd4;" horiz-adv-x="790" 
d="M395 680q68 0 128 -24t107 -69.5t73.5 -109.5t26.5 -143t-26.5 -143t-73 -110t-107.5 -71t-129 -25q-67 0 -127.5 24t-107 69.5t-73 109.5t-26.5 143t26.5 143t73 110t107 71t128.5 25zM409 25q60 0 110.5 33t81.5 97.5t31 159.5q0 104 -36 176.5t-93 110.5t-122 38
q-60 0 -111 -33t-82 -97.5t-31 -159.5q0 -104 36 -176.5t94 -110.5t122 -38zM505 724q-28 11 -57 29t-56 40q-27 -22 -53.5 -40t-51.5 -29l-19 9q34 33 65.5 70.5t61.5 77.5h2q30 -40 62 -77.5t65 -70.5z" />
    <glyph glyph-name="Otilde" unicode="&#xd5;" horiz-adv-x="790" 
d="M395 680q68 0 128 -24t107 -69.5t73.5 -109.5t26.5 -143t-26.5 -143t-73 -110t-107.5 -71t-129 -25q-67 0 -127.5 24t-107 69.5t-73 109.5t-26.5 143t26.5 143t73 110t107 71t128.5 25zM409 25q60 0 110.5 33t81.5 97.5t31 159.5q0 104 -36 176.5t-93 110.5t-122 38
q-60 0 -111 -33t-82 -97.5t-31 -159.5q0 -104 36 -176.5t94 -110.5t122 -38zM320 791q-21 0 -36 -13.5t-27 -44.5l-22 5q16 63 42 88t61 25q30 0 54.5 -14.5t46.5 -29t44 -14.5q21 0 36 13.5t27 44.5l23 -5q-16 -63 -42.5 -88t-61.5 -25q-29 0 -54 14.5t-47 29t-44 14.5z
" />
    <glyph glyph-name="Odieresis" unicode="&#xd6;" horiz-adv-x="790" 
d="M395 680q68 0 128 -24t107 -69.5t73.5 -109.5t26.5 -143t-26.5 -143t-73 -110t-107.5 -71t-129 -25q-67 0 -127.5 24t-107 69.5t-73 109.5t-26.5 143t26.5 143t73 110t107 71t128.5 25zM409 25q60 0 110.5 33t81.5 97.5t31 159.5q0 104 -36 176.5t-93 110.5t-122 38
q-60 0 -111 -33t-82 -97.5t-31 -159.5q0 -104 36 -176.5t94 -110.5t122 -38zM293 746q-20 0 -34.5 14.5t-14.5 34.5t14.5 34.5t34.5 14.5q21 0 35.5 -14.5t14.5 -34.5t-14.5 -34.5t-35.5 -14.5zM499 746q-20 0 -34.5 14.5t-14.5 34.5t14.5 34.5t34.5 14.5q21 0 35.5 -14.5
t14.5 -34.5t-14.5 -34.5t-35.5 -14.5z" />
    <glyph glyph-name="multiply" unicode="&#xd7;" horiz-adv-x="547" 
d="M449 372l-147 -146l147 -147l-29 -29l-146 147l-147 -147l-29 29l147 147l-147 146l29 29l147 -147l146 147z" />
    <glyph glyph-name="Oslash" unicode="&#xd8;" horiz-adv-x="790" 
d="M395 680q87 0 162 -40l39 56l28 -18l-39 -55q65 -44 105 -118t40 -171q0 -79 -26.5 -143t-73 -110t-107.5 -71t-129 -25q-117 0 -206 69l-60 -85l-28 18l62 89q-46 45 -74 110t-28 145q0 79 26.5 143t73 110t107 71t128.5 25zM157 350q0 -63 14 -115t39 -91l311 445
q-63 51 -140 51q-60 0 -111 -33t-82 -97.5t-31 -159.5zM409 25q60 0 110.5 33t81.5 97.5t31 159.5q0 83 -24 146.5t-62 104.5l-316 -451q36 -44 82.5 -67t96.5 -23z" />
    <glyph glyph-name="Ugrave" unicode="&#xd9;" horiz-adv-x="774" 
d="M301 -15q-86 0 -129.5 47.5t-43.5 129.5v403q0 35 -7 50.5t-25.5 20.5t-53.5 6v23h241v-23q-27 -1 -42 -6t-21.5 -20.5t-6.5 -50.5v-380q0 -58 24.5 -96.5t88.5 -38.5q47 0 89 21t74.5 58.5t51 86.5t18.5 106v243q0 35 -7 50.5t-27.5 20.5t-59.5 6v23h244v-23
q-27 -1 -42 -6t-21.5 -20.5t-6.5 -50.5v-466q0 -34 6.5 -49.5t23 -20.5t45.5 -6v-23h-142q-6 16 -9 38.5t-3 61.5v85h-2q-39 -94 -102.5 -147t-154.5 -53zM325 870q19 -34 43 -66.5t65 -60.5l-11 -19q-55 20 -98.5 50.5t-72.5 66.5q13 14 34 22t40 7z" />
    <glyph glyph-name="Uacute" unicode="&#xda;" horiz-adv-x="774" 
d="M301 -15q-86 0 -129.5 47.5t-43.5 129.5v403q0 35 -7 50.5t-25.5 20.5t-53.5 6v23h241v-23q-27 -1 -42 -6t-21.5 -20.5t-6.5 -50.5v-380q0 -58 24.5 -96.5t88.5 -38.5q47 0 89 21t74.5 58.5t51 86.5t18.5 106v243q0 35 -7 50.5t-27.5 20.5t-59.5 6v23h244v-23
q-27 -1 -42 -6t-21.5 -20.5t-6.5 -50.5v-466q0 -34 6.5 -49.5t23 -20.5t45.5 -6v-23h-142q-6 16 -9 38.5t-3 61.5v85h-2q-39 -94 -102.5 -147t-154.5 -53zM439 870q20 1 41 -7t34 -22q-28 -36 -71.5 -66.5t-99.5 -50.5l-11 19q41 28 65 60.5t42 66.5z" />
    <glyph glyph-name="Ucircumflex" unicode="&#xdb;" horiz-adv-x="774" 
d="M301 -15q-86 0 -129.5 47.5t-43.5 129.5v403q0 35 -7 50.5t-25.5 20.5t-53.5 6v23h241v-23q-27 -1 -42 -6t-21.5 -20.5t-6.5 -50.5v-380q0 -58 24.5 -96.5t88.5 -38.5q47 0 89 21t74.5 58.5t51 86.5t18.5 106v243q0 35 -7 50.5t-27.5 20.5t-59.5 6v23h244v-23
q-27 -1 -42 -6t-21.5 -20.5t-6.5 -50.5v-466q0 -34 6.5 -49.5t23 -20.5t45.5 -6v-23h-142q-6 16 -9 38.5t-3 61.5v85h-2q-39 -94 -102.5 -147t-154.5 -53zM491 724q-28 11 -57 29t-56 40q-27 -22 -53.5 -40t-51.5 -29l-19 9q34 33 65.5 70.5t61.5 77.5h2q30 -40 62 -77.5
t65 -70.5z" />
    <glyph glyph-name="Udieresis" unicode="&#xdc;" horiz-adv-x="774" 
d="M301 -15q-86 0 -129.5 47.5t-43.5 129.5v403q0 35 -7 50.5t-25.5 20.5t-53.5 6v23h241v-23q-27 -1 -42 -6t-21.5 -20.5t-6.5 -50.5v-380q0 -58 24.5 -96.5t88.5 -38.5q47 0 89 21t74.5 58.5t51 86.5t18.5 106v243q0 35 -7 50.5t-27.5 20.5t-59.5 6v23h244v-23
q-27 -1 -42 -6t-21.5 -20.5t-6.5 -50.5v-466q0 -34 6.5 -49.5t23 -20.5t45.5 -6v-23h-142q-6 16 -9 38.5t-3 61.5v85h-2q-39 -94 -102.5 -147t-154.5 -53zM279 746q-20 0 -34.5 14.5t-14.5 34.5t14.5 34.5t34.5 14.5q21 0 35.5 -14.5t14.5 -34.5t-14.5 -34.5t-35.5 -14.5z
M485 746q-20 0 -34.5 14.5t-14.5 34.5t14.5 34.5t34.5 14.5q21 0 35.5 -14.5t14.5 -34.5t-14.5 -34.5t-35.5 -14.5z" />
    <glyph glyph-name="Yacute" unicode="&#xdd;" horiz-adv-x="553" 
d="M363 665h186v-23q-22 -2 -41.5 -19.5t-43.5 -57.5l-127 -214q-10 -16 -14.5 -29t-4.5 -39v-183q0 -34 7 -50t27.5 -21t59.5 -6v-23h-249v23q27 1 42.5 6t21.5 21t6 50v183q0 26 -4 39t-13 29l-120 214q-19 34 -32 50t-27 21t-36 6v23h223v-23q-44 -2 -51 -15.5t20 -61.5
l106 -193h2l114 193q23 40 9 57.5t-61 19.5v23zM356 870q20 1 41 -7t34 -22q-28 -36 -71.5 -66.5t-99.5 -50.5l-11 19q41 28 65 60.5t42 66.5z" />
    <glyph glyph-name="Thorn" unicode="&#xde;" horiz-adv-x="580" 
d="M66 0v23q27 1 42.5 6t21.5 21t6 50v465q0 35 -7.5 50.5t-27.5 20.5t-60 6v23h250v-23q-27 -1 -42 -6t-21.5 -20.5t-6.5 -50.5v-50q32 3 55 4.5t44 1.5q114 0 169.5 -42t55.5 -119q0 -55 -30.5 -102t-97.5 -72.5t-177 -15.5v30q81 -7 126.5 12.5t64.5 56.5t19 83
q0 55 -21.5 83.5t-57.5 39t-80 10.5q-34 0 -52 -11.5t-18 -55.5v-318q0 -34 7.5 -50t27.5 -21t59 -6v-23h-249z" />
    <glyph glyph-name="germandbls" unicode="&#xdf;" horiz-adv-x="593" 
d="M39 399v41h67v52q0 69 22.5 124t61 94.5t86.5 60.5t99 21q49 0 81 -18.5t48 -47.5t16 -61q0 -34 -14.5 -59t-36 -45t-43 -39t-36 -40.5t-14.5 -49.5q0 -32 19 -58.5t47 -51t55.5 -52t46.5 -61.5t19 -80q0 -48 -22 -80t-58.5 -48t-80.5 -16q-52 0 -90.5 23.5t-38.5 66.5
q0 13 4.5 32t12.5 37h23q5 -64 31.5 -94.5t66.5 -30.5q41 0 60.5 25t19.5 57q0 35 -18.5 63t-46 53t-55 51.5t-46 58t-18.5 73.5q0 35 13.5 60.5t33 46t39.5 40t33.5 42.5t13.5 55q0 39 -25.5 69.5t-73.5 30.5q-67 0 -111 -65t-44 -190v-388q0 -35 5.5 -51t19 -21t35.5 -6
v-23h-200v23q23 1 36 6t18.5 21t5.5 51v298h-67z" />
    <glyph glyph-name="agrave" unicode="&#xe0;" horiz-adv-x="480" 
d="M158 -15q-47 0 -76.5 24.5t-29.5 70.5q0 37 23 68t76 57t144 48v65q0 41 -17.5 68t-66.5 27q-47 0 -74.5 -29.5t-38.5 -91.5h-23v125q35 17 74.5 27.5t87.5 10.5q55 0 84.5 -14.5t41.5 -40.5t12 -61v-242q0 -53 33 -53q12 0 27.5 8t36.5 33l16 -16q-46 -79 -110 -79
q-66 0 -81 67h-2q-55 -72 -137 -72zM195 44q48 0 100 44v134q-72 -18 -106 -39.5t-44.5 -43t-10.5 -39.5q0 -29 18 -42.5t43 -13.5zM183 734q9 -44 31.5 -91.5t57.5 -85.5l-11 -19q-46 29 -88 75.5t-64 91.5q13 15 34.5 22.5t39.5 6.5z" />
    <glyph glyph-name="aacute" unicode="&#xe1;" horiz-adv-x="480" 
d="M158 -15q-47 0 -76.5 24.5t-29.5 70.5q0 37 23 68t76 57t144 48v65q0 41 -17.5 68t-66.5 27q-47 0 -74.5 -29.5t-38.5 -91.5h-23v125q35 17 74.5 27.5t87.5 10.5q55 0 84.5 -14.5t41.5 -40.5t12 -61v-242q0 -53 33 -53q12 0 27.5 8t36.5 33l16 -16q-46 -79 -110 -79
q-66 0 -81 67h-2q-55 -72 -137 -72zM195 44q48 0 100 44v134q-72 -18 -106 -39.5t-44.5 -43t-10.5 -39.5q0 -29 18 -42.5t43 -13.5zM299 734q18 1 39.5 -6.5t34.5 -22.5q-22 -45 -64 -91.5t-88 -75.5l-11 19q35 38 57.5 85.5t31.5 91.5z" />
    <glyph glyph-name="acircumflex" unicode="&#xe2;" horiz-adv-x="480" 
d="M158 -15q-47 0 -76.5 24.5t-29.5 70.5q0 37 23 68t76 57t144 48v65q0 41 -17.5 68t-66.5 27q-47 0 -74.5 -29.5t-38.5 -91.5h-23v125q35 17 74.5 27.5t87.5 10.5q55 0 84.5 -14.5t41.5 -40.5t12 -61v-242q0 -53 33 -53q12 0 27.5 8t36.5 33l16 -16q-46 -79 -110 -79
q-66 0 -81 67h-2q-55 -72 -137 -72zM195 44q48 0 100 44v134q-72 -18 -106 -39.5t-44.5 -43t-10.5 -39.5q0 -29 18 -42.5t43 -13.5zM349 518q-31 21 -59 49t-53 60q-25 -32 -50.5 -60t-53.5 -49l-19 9q37 47 68.5 99t57.5 108h2q26 -56 57.5 -108t68.5 -99z" />
    <glyph glyph-name="atilde" unicode="&#xe3;" horiz-adv-x="480" 
d="M158 -15q-47 0 -76.5 24.5t-29.5 70.5q0 37 23 68t76 57t144 48v65q0 41 -17.5 68t-66.5 27q-47 0 -74.5 -29.5t-38.5 -91.5h-23v125q35 17 74.5 27.5t87.5 10.5q55 0 84.5 -14.5t41.5 -40.5t12 -61v-242q0 -53 33 -53q12 0 27.5 8t36.5 33l16 -16q-46 -79 -110 -79
q-66 0 -81 67h-2q-55 -72 -137 -72zM195 44q48 0 100 44v134q-72 -18 -106 -39.5t-44.5 -43t-10.5 -39.5q0 -29 18 -42.5t43 -13.5zM172 600q-22 0 -34.5 -13.5t-20.5 -45.5l-23 5q7 63 29.5 88t57.5 25q30 0 52 -14.5t41.5 -29.5t40.5 -15q22 0 35 14t20 45l23 -5
q-7 -63 -29.5 -88t-57.5 -25q-29 0 -51.5 15t-41.5 29.5t-41 14.5z" />
    <glyph glyph-name="adieresis" unicode="&#xe4;" horiz-adv-x="480" 
d="M158 -15q-47 0 -76.5 24.5t-29.5 70.5q0 37 23 68t76 57t144 48v65q0 41 -17.5 68t-66.5 27q-47 0 -74.5 -29.5t-38.5 -91.5h-23v125q35 17 74.5 27.5t87.5 10.5q55 0 84.5 -14.5t41.5 -40.5t12 -61v-242q0 -53 33 -53q12 0 27.5 8t36.5 33l16 -16q-46 -79 -110 -79
q-66 0 -81 67h-2q-55 -72 -137 -72zM195 44q48 0 100 44v134q-72 -18 -106 -39.5t-44.5 -43t-10.5 -39.5q0 -29 18 -42.5t43 -13.5zM148 561q-21 0 -35 14t-14 35q0 20 14 34t35 14q20 0 34.5 -14t14.5 -34q0 -21 -14.5 -35t-34.5 -14zM336 561q-21 0 -35 14t-14 35
q0 20 14 34t35 14q20 0 34.5 -14t14.5 -34q0 -21 -14.5 -35t-34.5 -14z" />
    <glyph glyph-name="aring" unicode="&#xe5;" horiz-adv-x="480" 
d="M158 -15q-47 0 -76.5 24.5t-29.5 70.5q0 37 23 68t76 57t144 48v65q0 41 -17.5 68t-66.5 27q-47 0 -74.5 -29.5t-38.5 -91.5h-23v125q35 17 74.5 27.5t87.5 10.5q55 0 84.5 -14.5t41.5 -40.5t12 -61v-242q0 -53 33 -53q12 0 27.5 8t36.5 33l16 -16q-46 -79 -110 -79
q-66 0 -81 67h-2q-55 -72 -137 -72zM195 44q48 0 100 44v134q-72 -18 -106 -39.5t-44.5 -43t-10.5 -39.5q0 -29 18 -42.5t43 -13.5zM242 517q-46 0 -75 28.5t-29 69.5t29.5 70t74.5 29q46 0 75 -28.5t29 -69.5t-30 -70t-74 -29zM244 551q20 0 34.5 16.5t14.5 45.5
q0 35 -17.5 50.5t-36.5 15.5t-33.5 -16.5t-14.5 -45.5q0 -34 17 -50t36 -16z" />
    <glyph glyph-name="ae" unicode="&#xe6;" horiz-adv-x="707" 
d="M660 109l16 -16q-28 -48 -74.5 -78t-107.5 -30q-50 0 -95 23.5t-72 70.5q-43 -58 -87.5 -76t-79.5 -18q-48 0 -78 24.5t-30 69.5q0 36 21 68.5t74 59.5t149 48v63q0 42 -17.5 71t-66.5 29q-47 0 -74.5 -29.5t-38.5 -91.5h-23v120q35 17 74.5 27.5t87.5 10.5
q54 0 83.5 -17.5t39.5 -47.5q29 31 67.5 48t81.5 17t79.5 -17t59 -52t22.5 -89l-299 -59q3 -87 44.5 -137t108.5 -50q40 0 74 16.5t61 41.5zM490 418q-38 0 -63 -20t-38 -53.5t-16 -73.5l209 40q-5 45 -25 76t-67 31zM196 44q23 0 55.5 15t60.5 50q-9 26 -12.5 53t-3.5 61
q-74 -17 -108 -39t-43.5 -44t-9.5 -40q0 -29 18 -42.5t43 -13.5z" />
    <glyph glyph-name="ccedilla" unicode="&#xe7;" horiz-adv-x="471" 
d="M249 -15q-52 0 -98.5 24.5t-75.5 74t-29 123.5q0 79 33.5 134.5t88.5 84.5t117 29q31 0 67.5 -8t65.5 -28v-131h-23q-5 52 -26 80t-48.5 39t-54.5 11q-66 0 -102 -49.5t-36 -123.5q0 -59 20.5 -102.5t56.5 -67.5t81 -24q35 0 69.5 15.5t62.5 42.5l16 -16
q-28 -47 -76 -77.5t-109 -30.5zM270 -58q41 -9 65 -34t24 -59q0 -33 -23.5 -58.5t-65.5 -25.5q-48 0 -78 35l9 14q41 -19 67.5 -11t26.5 33q0 19 -17 33t-51 20l28 124h31z" />
    <glyph glyph-name="egrave" unicode="&#xe8;" horiz-adv-x="462" 
d="M249 -15q-51 0 -97.5 24t-76 72.5t-29.5 123.5q0 76 30 132t80 87t109 31q43 0 79.5 -17t59 -52t22.5 -89l-300 -39v-11q0 -92 42 -144t112 -52q40 0 74 16.5t61 41.5l16 -16q-28 -48 -74.5 -78t-107.5 -30zM244 418q-52 0 -80 -37t-35 -91l207 27q-6 43 -26 72t-66 29z
M188 734q9 -44 31.5 -91.5t57.5 -85.5l-11 -19q-46 29 -88 75.5t-64 91.5q13 15 34.5 22.5t39.5 6.5z" />
    <glyph glyph-name="eacute" unicode="&#xe9;" horiz-adv-x="462" 
d="M249 -15q-51 0 -97.5 24t-76 72.5t-29.5 123.5q0 76 30 132t80 87t109 31q43 0 79.5 -17t59 -52t22.5 -89l-300 -39v-11q0 -92 42 -144t112 -52q40 0 74 16.5t61 41.5l16 -16q-28 -48 -74.5 -78t-107.5 -30zM244 418q-52 0 -80 -37t-35 -91l207 27q-6 43 -26 72t-66 29z
M304 734q18 1 39.5 -6.5t34.5 -22.5q-22 -45 -64 -91.5t-88 -75.5l-11 19q35 38 57.5 85.5t31.5 91.5z" />
    <glyph glyph-name="ecircumflex" unicode="&#xea;" horiz-adv-x="462" 
d="M249 -15q-51 0 -97.5 24t-76 72.5t-29.5 123.5q0 76 30 132t80 87t109 31q43 0 79.5 -17t59 -52t22.5 -89l-300 -39v-11q0 -92 42 -144t112 -52q40 0 74 16.5t61 41.5l16 -16q-28 -48 -74.5 -78t-107.5 -30zM244 418q-52 0 -80 -37t-35 -91l207 27q-6 43 -26 72t-66 29z
M354 518q-31 21 -59 49t-53 60q-25 -32 -50.5 -60t-53.5 -49l-19 9q37 47 68.5 99t57.5 108h2q26 -56 57.5 -108t68.5 -99z" />
    <glyph glyph-name="edieresis" unicode="&#xeb;" horiz-adv-x="462" 
d="M249 -15q-51 0 -97.5 24t-76 72.5t-29.5 123.5q0 76 30 132t80 87t109 31q43 0 79.5 -17t59 -52t22.5 -89l-300 -39v-11q0 -92 42 -144t112 -52q40 0 74 16.5t61 41.5l16 -16q-28 -48 -74.5 -78t-107.5 -30zM244 418q-52 0 -80 -37t-35 -91l207 27q-6 43 -26 72t-66 29z
M153 561q-21 0 -35 14t-14 35q0 20 14 34t35 14q20 0 34.5 -14t14.5 -34q0 -21 -14.5 -35t-34.5 -14zM341 561q-21 0 -35 14t-14 35q0 20 14 34t35 14q20 0 34.5 -14t14.5 -34q0 -21 -14.5 -35t-34.5 -14z" />
    <glyph glyph-name="igrave" unicode="&#xec;" horiz-adv-x="293" 
d="M190 101q0 -35 7 -51t25.5 -21t52.5 -6v-23h-225v23q22 1 35 6t19 21t6 51v226q0 28 -8.5 36.5t-22.5 8.5q-13 0 -27.5 -4.5t-26.5 -9.5l-10 23l173 79l6 -6q-1 -8 -2.5 -43t-1.5 -83v-227zM92 734q9 -44 31.5 -91.5t57.5 -85.5l-11 -19q-46 29 -88 75.5t-64 91.5
q13 15 34.5 22.5t39.5 6.5z" />
    <glyph glyph-name="iacute" unicode="&#xed;" horiz-adv-x="293" 
d="M190 101q0 -35 7 -51t25.5 -21t52.5 -6v-23h-225v23q22 1 35 6t19 21t6 51v226q0 28 -8.5 36.5t-22.5 8.5q-13 0 -27.5 -4.5t-26.5 -9.5l-10 23l173 79l6 -6q-1 -8 -2.5 -43t-1.5 -83v-227zM208 734q18 1 39.5 -6.5t34.5 -22.5q-22 -45 -64 -91.5t-88 -75.5l-11 19
q35 38 57.5 85.5t31.5 91.5z" />
    <glyph glyph-name="icircumflex" unicode="&#xee;" horiz-adv-x="293" 
d="M190 101q0 -35 7 -51t25.5 -21t52.5 -6v-23h-225v23q22 1 35 6t19 21t6 51v226q0 28 -8.5 36.5t-22.5 8.5q-13 0 -27.5 -4.5t-26.5 -9.5l-10 23l173 79l6 -6q-1 -8 -2.5 -43t-1.5 -83v-227zM258 518q-31 21 -59 49t-53 60q-25 -32 -50.5 -60t-53.5 -49l-19 9
q37 47 68.5 99t57.5 108h2q26 -56 57.5 -108t68.5 -99z" />
    <glyph glyph-name="idieresis" unicode="&#xef;" horiz-adv-x="293" 
d="M190 101q0 -35 7 -51t25.5 -21t52.5 -6v-23h-225v23q22 1 35 6t19 21t6 51v226q0 28 -8.5 36.5t-22.5 8.5q-13 0 -27.5 -4.5t-26.5 -9.5l-10 23l173 79l6 -6q-1 -8 -2.5 -43t-1.5 -83v-227zM57 561q-21 0 -35 14t-14 35q0 20 14 34t35 14q20 0 34.5 -14t14.5 -34
q0 -21 -14.5 -35t-34.5 -14zM245 561q-21 0 -35 14t-14 35q0 20 14 34t35 14q20 0 34.5 -14t14.5 -34q0 -21 -14.5 -35t-34.5 -14z" />
    <glyph glyph-name="eth" unicode="&#xf0;" horiz-adv-x="530" 
d="M260 -15q-58 0 -107 28t-78 77.5t-29 114.5q0 70 33.5 119t87 75t111.5 26q61 0 107 -27h2q-7 42 -25.5 91.5t-50.5 98t-78 90.5l-73 -68l-19 19l71 66q-23 19 -49.5 34.5t-56.5 28.5l10 32q37 -13 69 -29t60 -35l68 64l19 -19l-65 -60q84 -61 131.5 -138.5t66.5 -157.5
t19 -150q0 -78 -19 -132t-51.5 -86.5t-72.5 -47t-81 -14.5zM276 25q56 0 94.5 39t38.5 127q0 52 -15.5 97t-47.5 73t-82 28q-56 0 -94.5 -38t-38.5 -124q0 -52 15.5 -98t47.5 -75t82 -29z" />
    <glyph glyph-name="ntilde" unicode="&#xf1;" horiz-adv-x="581" 
d="M481 101q0 -35 6.5 -51t25 -21t53.5 -6v-23h-225v23q22 1 35 6t19 21t6 51v215q0 35 -15.5 55t-53.5 20q-33 0 -69 -14t-74 -44v-232q0 -35 6.5 -51t25 -21t53.5 -6v-23h-225v23q23 1 36 6t18.5 21t5.5 51v227q0 27 -8 35.5t-22 8.5q-11 0 -21.5 -2.5t-21.5 -7.5l-10 23
l161 75l6 -6q-2 -9 -4.5 -35t-2.5 -55h2q38 40 82.5 65.5t96.5 25.5q64 0 89 -31.5t25 -83.5v-239zM233 600q-22 0 -34.5 -13.5t-20.5 -45.5l-23 5q7 63 29.5 88t57.5 25q30 0 52 -14.5t41.5 -29.5t40.5 -15q22 0 35 14t20 45l23 -5q-7 -63 -29.5 -88t-57.5 -25
q-29 0 -51.5 15t-41.5 29.5t-41 14.5z" />
    <glyph glyph-name="ograve" unicode="&#xf2;" horiz-adv-x="535" 
d="M274 455q58 0 106.5 -28.5t78.5 -79.5t30 -119q0 -60 -20.5 -105.5t-54.5 -76t-74.5 -46t-79.5 -15.5q-57 0 -106 28.5t-78.5 79.5t-29.5 119q0 60 20.5 105.5t54.5 76t74 46t79 15.5zM277 25q59 0 93 42.5t34 131.5q0 61 -18.5 110t-51.5 77.5t-77 28.5q-58 0 -92 -42.5
t-34 -131.5q0 -60 18.5 -109t51.5 -78t76 -29zM199 734q9 -44 31.5 -91.5t57.5 -85.5l-11 -19q-46 29 -88 75.5t-64 91.5q13 15 34.5 22.5t39.5 6.5z" />
    <glyph glyph-name="oacute" unicode="&#xf3;" horiz-adv-x="535" 
d="M274 455q58 0 106.5 -28.5t78.5 -79.5t30 -119q0 -60 -20.5 -105.5t-54.5 -76t-74.5 -46t-79.5 -15.5q-57 0 -106 28.5t-78.5 79.5t-29.5 119q0 60 20.5 105.5t54.5 76t74 46t79 15.5zM277 25q59 0 93 42.5t34 131.5q0 61 -18.5 110t-51.5 77.5t-77 28.5q-58 0 -92 -42.5
t-34 -131.5q0 -60 18.5 -109t51.5 -78t76 -29zM315 734q18 1 39.5 -6.5t34.5 -22.5q-22 -45 -64 -91.5t-88 -75.5l-11 19q35 38 57.5 85.5t31.5 91.5z" />
    <glyph glyph-name="ocircumflex" unicode="&#xf4;" horiz-adv-x="535" 
d="M274 455q58 0 106.5 -28.5t78.5 -79.5t30 -119q0 -60 -20.5 -105.5t-54.5 -76t-74.5 -46t-79.5 -15.5q-57 0 -106 28.5t-78.5 79.5t-29.5 119q0 60 20.5 105.5t54.5 76t74 46t79 15.5zM277 25q59 0 93 42.5t34 131.5q0 61 -18.5 110t-51.5 77.5t-77 28.5q-58 0 -92 -42.5
t-34 -131.5q0 -60 18.5 -109t51.5 -78t76 -29zM365 518q-31 21 -59 49t-53 60q-25 -32 -50.5 -60t-53.5 -49l-19 9q37 47 68.5 99t57.5 108h2q26 -56 57.5 -108t68.5 -99z" />
    <glyph glyph-name="otilde" unicode="&#xf5;" horiz-adv-x="535" 
d="M274 455q58 0 106.5 -28.5t78.5 -79.5t30 -119q0 -60 -20.5 -105.5t-54.5 -76t-74.5 -46t-79.5 -15.5q-57 0 -106 28.5t-78.5 79.5t-29.5 119q0 60 20.5 105.5t54.5 76t74 46t79 15.5zM277 25q59 0 93 42.5t34 131.5q0 61 -18.5 110t-51.5 77.5t-77 28.5q-58 0 -92 -42.5
t-34 -131.5q0 -60 18.5 -109t51.5 -78t76 -29zM188 600q-22 0 -34.5 -13.5t-20.5 -45.5l-23 5q7 63 29.5 88t57.5 25q30 0 52 -14.5t41.5 -29.5t40.5 -15q22 0 35 14t20 45l23 -5q-7 -63 -29.5 -88t-57.5 -25q-29 0 -51.5 15t-41.5 29.5t-41 14.5z" />
    <glyph glyph-name="odieresis" unicode="&#xf6;" horiz-adv-x="535" 
d="M274 455q58 0 106.5 -28.5t78.5 -79.5t30 -119q0 -60 -20.5 -105.5t-54.5 -76t-74.5 -46t-79.5 -15.5q-57 0 -106 28.5t-78.5 79.5t-29.5 119q0 60 20.5 105.5t54.5 76t74 46t79 15.5zM277 25q59 0 93 42.5t34 131.5q0 61 -18.5 110t-51.5 77.5t-77 28.5q-58 0 -92 -42.5
t-34 -131.5q0 -60 18.5 -109t51.5 -78t76 -29zM164 561q-21 0 -35 14t-14 35q0 20 14 34t35 14q20 0 34.5 -14t14.5 -34q0 -21 -14.5 -35t-34.5 -14zM352 561q-21 0 -35 14t-14 35q0 20 14 34t35 14q20 0 34.5 -14t14.5 -34q0 -21 -14.5 -35t-34.5 -14z" />
    <glyph glyph-name="divide" unicode="&#xf7;" horiz-adv-x="547" 
d="M274 309q-21 0 -36 15t-15 36t15 35.5t36 14.5t36 -14.5t15 -35.5t-15 -36t-36 -15zM452 205h-357v41h357v-41zM274 47q-21 0 -36 15t-15 36t15 35.5t36 14.5t36 -14.5t15 -35.5t-15 -36t-36 -15z" />
    <glyph glyph-name="oslash" unicode="&#xf8;" horiz-adv-x="535" 
d="M274 455q62 0 113 -32l50 71l28 -19l-51 -73q34 -30 54.5 -74.5t20.5 -99.5q0 -60 -20.5 -105.5t-54.5 -76t-74.5 -46t-79.5 -15.5q-62 0 -114 33l-49 -70l-28 19l50 72q-33 30 -53 74t-20 99q0 60 20.5 105.5t54.5 76t74 46t79 15.5zM131 241q0 -81 32 -139l187 268
q-18 21 -41.5 33t-51.5 12q-58 0 -92 -42.5t-34 -131.5zM277 25q59 0 93 42.5t34 131.5q0 83 -33 141l-188 -268q19 -22 42.5 -34.5t51.5 -12.5z" />
    <glyph glyph-name="ugrave" unicode="&#xf9;" horiz-adv-x="567" 
d="M542 77l10 -23l-162 -75l-6 6q2 9 4.5 35.5t2.5 56.5h-2q-39 -40 -80.5 -66t-93.5 -26q-63 0 -87.5 32t-24.5 83v230q0 26 -8.5 34t-22.5 8q-20 0 -43 -10l-10 23l162 75l6 -6q-1 -8 -2.5 -42.5t-1.5 -80.5v-206q0 -35 14.5 -55t52.5 -20q32 0 66.5 13.5t71.5 43.5v223
q0 26 -8 34t-23 8q-13 0 -27 -4.5t-25 -9.5l-10 23l171 79l6 -6q-1 -8 -2.5 -42.5t-1.5 -80.5v-219q0 -28 8.5 -36t22.5 -8q22 0 43 9zM230 734q9 -44 31.5 -91.5t57.5 -85.5l-11 -19q-46 29 -88 75.5t-64 91.5q13 15 34.5 22.5t39.5 6.5z" />
    <glyph glyph-name="uacute" unicode="&#xfa;" horiz-adv-x="567" 
d="M542 77l10 -23l-162 -75l-6 6q2 9 4.5 35.5t2.5 56.5h-2q-39 -40 -80.5 -66t-93.5 -26q-63 0 -87.5 32t-24.5 83v230q0 26 -8.5 34t-22.5 8q-20 0 -43 -10l-10 23l162 75l6 -6q-1 -8 -2.5 -42.5t-1.5 -80.5v-206q0 -35 14.5 -55t52.5 -20q32 0 66.5 13.5t71.5 43.5v223
q0 26 -8 34t-23 8q-13 0 -27 -4.5t-25 -9.5l-10 23l171 79l6 -6q-1 -8 -2.5 -42.5t-1.5 -80.5v-219q0 -28 8.5 -36t22.5 -8q22 0 43 9zM346 734q18 1 39.5 -6.5t34.5 -22.5q-22 -45 -64 -91.5t-88 -75.5l-11 19q35 38 57.5 85.5t31.5 91.5z" />
    <glyph glyph-name="ucircumflex" unicode="&#xfb;" horiz-adv-x="567" 
d="M542 77l10 -23l-162 -75l-6 6q2 9 4.5 35.5t2.5 56.5h-2q-39 -40 -80.5 -66t-93.5 -26q-63 0 -87.5 32t-24.5 83v230q0 26 -8.5 34t-22.5 8q-20 0 -43 -10l-10 23l162 75l6 -6q-1 -8 -2.5 -42.5t-1.5 -80.5v-206q0 -35 14.5 -55t52.5 -20q32 0 66.5 13.5t71.5 43.5v223
q0 26 -8 34t-23 8q-13 0 -27 -4.5t-25 -9.5l-10 23l171 79l6 -6q-1 -8 -2.5 -42.5t-1.5 -80.5v-219q0 -28 8.5 -36t22.5 -8q22 0 43 9zM396 518q-31 21 -59 49t-53 60q-25 -32 -50.5 -60t-53.5 -49l-19 9q37 47 68.5 99t57.5 108h2q26 -56 57.5 -108t68.5 -99z" />
    <glyph glyph-name="udieresis" unicode="&#xfc;" horiz-adv-x="567" 
d="M542 77l10 -23l-162 -75l-6 6q2 9 4.5 35.5t2.5 56.5h-2q-39 -40 -80.5 -66t-93.5 -26q-63 0 -87.5 32t-24.5 83v230q0 26 -8.5 34t-22.5 8q-20 0 -43 -10l-10 23l162 75l6 -6q-1 -8 -2.5 -42.5t-1.5 -80.5v-206q0 -35 14.5 -55t52.5 -20q32 0 66.5 13.5t71.5 43.5v223
q0 26 -8 34t-23 8q-13 0 -27 -4.5t-25 -9.5l-10 23l171 79l6 -6q-1 -8 -2.5 -42.5t-1.5 -80.5v-219q0 -28 8.5 -36t22.5 -8q22 0 43 9zM195 561q-21 0 -35 14t-14 35q0 20 14 34t35 14q20 0 34.5 -14t14.5 -34q0 -21 -14.5 -35t-34.5 -14zM383 561q-21 0 -35 14t-14 35
q0 20 14 34t35 14q20 0 34.5 -14t14.5 -34q0 -21 -14.5 -35t-34.5 -14z" />
    <glyph glyph-name="yacute" unicode="&#xfd;" horiz-adv-x="472" 
d="M69 -235q-34 0 -54 21.5t-20 59.5q0 17 4 34t11 35h23q3 -43 15 -64t39 -21q30 0 62.5 45.5t75.5 132.5l-149 334q-15 34 -26.5 49t-24 20t-30.5 6v23h213v-23q-33 -1 -46.5 -6.5t-11.5 -21t15 -47.5l100 -230h2l93 230q20 47 6 60t-67 15v23h178v-23q-15 -1 -27 -6.5
t-22.5 -21t-23.5 -47.5l-107 -263q-42 -104 -75.5 -174t-69 -105t-83.5 -35zM296 734q18 1 39.5 -6.5t34.5 -22.5q-22 -45 -64 -91.5t-88 -75.5l-11 19q35 38 57.5 85.5t31.5 91.5z" />
    <glyph glyph-name="thorn" unicode="&#xfe;" horiz-adv-x="564" 
d="M261 -13q-46 0 -79 9v-120q0 -35 7.5 -51t28 -21t59.5 -6v-23h-234v23q22 1 35 6t19 21t6 51v781q0 28 -8.5 36t-22.5 8q-13 0 -27.5 -4t-26.5 -10l-10 23l172 80l6 -6q-1 -8 -2.5 -43t-1.5 -83v-292q26 37 65.5 64t93.5 27q47 0 87.5 -24.5t65 -71t24.5 -114.5
q0 -64 -22.5 -112.5t-60 -81.5t-83 -49.5t-91.5 -16.5zM310 397q-34 0 -67 -18t-61 -44v-262q24 -25 53.5 -33t51.5 -8q65 0 107 43.5t42 137.5q0 86 -35 135t-91 49z" />
    <glyph glyph-name="ydieresis" unicode="&#xff;" horiz-adv-x="472" 
d="M69 -235q-34 0 -54 21.5t-20 59.5q0 17 4 34t11 35h23q3 -43 15 -64t39 -21q30 0 62.5 45.5t75.5 132.5l-149 334q-15 34 -26.5 49t-24 20t-30.5 6v23h213v-23q-33 -1 -46.5 -6.5t-11.5 -21t15 -47.5l100 -230h2l93 230q20 47 6 60t-67 15v23h178v-23q-15 -1 -27 -6.5
t-22.5 -21t-23.5 -47.5l-107 -263q-42 -104 -75.5 -174t-69 -105t-83.5 -35zM145 561q-21 0 -35 14t-14 35q0 20 14 34t35 14q20 0 34.5 -14t14.5 -34q0 -21 -14.5 -35t-34.5 -14zM333 561q-21 0 -35 14t-14 35q0 20 14 34t35 14q20 0 34.5 -14t14.5 -34q0 -21 -14.5 -35
t-34.5 -14z" />
    <glyph glyph-name="Amacron" unicode="&#x100;" horiz-adv-x="635" 
d="M543 100q12 -35 23 -50.5t26.5 -20t41.5 -6.5v-23h-239v23q34 2 50.5 7t18.5 21t-10 49l-57 172q-5 -5 -15 -6.5t-21 -1.5h-131q-22 0 -33 -5t-19 -27l-47 -132q-13 -38 0.5 -56.5t77.5 -20.5v-23h-207v23q32 2 50.5 20.5t32.5 56.5l177 486q10 26 19 51t16 51h49
q7 -26 15.5 -51t18.5 -51zM363 300q13 0 18 3.5t0 15.5l-82 243h-2l-96 -265q5 2 12 2.5t16 0.5h134zM152 823h328v-59h-328v59z" />
    <glyph glyph-name="amacron" unicode="&#x101;" horiz-adv-x="480" 
d="M158 -15q-47 0 -76.5 24.5t-29.5 70.5q0 37 23 68t76 57t144 48v65q0 41 -17.5 68t-66.5 27q-47 0 -74.5 -29.5t-38.5 -91.5h-23v125q35 17 74.5 27.5t87.5 10.5q55 0 84.5 -14.5t41.5 -40.5t12 -61v-242q0 -53 33 -53q12 0 27.5 8t36.5 33l16 -16q-46 -79 -110 -79
q-66 0 -81 67h-2q-55 -72 -137 -72zM195 44q48 0 100 44v134q-72 -18 -106 -39.5t-44.5 -43t-10.5 -39.5q0 -29 18 -42.5t43 -13.5zM109 633h266v-50h-266v50z" />
    <glyph glyph-name="Abreve" unicode="&#x102;" horiz-adv-x="635" 
d="M543 100q12 -35 23 -50.5t26.5 -20t41.5 -6.5v-23h-239v23q34 2 50.5 7t18.5 21t-10 49l-57 172q-5 -5 -15 -6.5t-21 -1.5h-131q-22 0 -33 -5t-19 -27l-47 -132q-13 -38 0.5 -56.5t77.5 -20.5v-23h-207v23q32 2 50.5 20.5t32.5 56.5l177 486q10 26 19 51t16 51h49
q7 -26 15.5 -51t18.5 -51zM363 300q13 0 18 3.5t0 15.5l-82 243h-2l-96 -265q5 2 12 2.5t16 0.5h134zM426 870l19 -9q-8 -70 -44 -105t-84 -35q-49 0 -85 35t-44 105l19 9q20 -46 49 -63t61 -17t61 17t48 63z" />
    <glyph glyph-name="abreve" unicode="&#x103;" horiz-adv-x="480" 
d="M158 -15q-47 0 -76.5 24.5t-29.5 70.5q0 37 23 68t76 57t144 48v65q0 41 -17.5 68t-66.5 27q-47 0 -74.5 -29.5t-38.5 -91.5h-23v125q35 17 74.5 27.5t87.5 10.5q55 0 84.5 -14.5t41.5 -40.5t12 -61v-242q0 -53 33 -53q12 0 27.5 8t36.5 33l16 -16q-46 -79 -110 -79
q-66 0 -81 67h-2q-55 -72 -137 -72zM195 44q48 0 100 44v134q-72 -18 -106 -39.5t-44.5 -43t-10.5 -39.5q0 -29 18 -42.5t43 -13.5zM349 703l19 -9q-7 -89 -44 -127t-82 -38q-44 0 -81 38t-44 127l19 9q12 -44 31 -68t40 -33t40 -9q29 0 56 22t46 88z" />
    <glyph glyph-name="Aogonek" unicode="&#x104;" horiz-adv-x="634" 
d="M462 -235q-37 0 -64.5 20t-27.5 63q0 49 34.5 90.5t82.5 65.5l-90 268q-5 -5 -15 -6.5t-21 -1.5h-131q-22 0 -33 -5t-19 -27l-47 -132q-13 -38 0.5 -56.5t77.5 -20.5v-23h-207v23q32 2 50.5 20.5t32.5 56.5l177 486q10 26 19 51t16 51h49q7 -26 15.5 -51t18.5 -51
l163 -486q12 -35 22.5 -50.5t26.5 -20t41 -6.5v-23h-65q-43 0 -70.5 -22t-40.5 -52.5t-13 -54.5q0 -38 27 -52t61 -4l11 -16q-16 -19 -37 -26.5t-44 -7.5zM362 300q14 0 19 3.5t0 15.5l-82 243h-2l-96 -265q5 2 12 2.5t16 0.5h133z" />
    <glyph glyph-name="aogonek" unicode="&#x105;" horiz-adv-x="481" 
d="M361 -235q-36 0 -61 22t-25 59q0 68 100 137v2q-30 3 -50.5 22t-26.5 50h-2q-55 -72 -137 -72q-47 0 -77 24.5t-30 70.5q0 37 23 68t76.5 57t144.5 48v65q0 38 -17.5 66t-66.5 28q-47 0 -74.5 -29.5t-38.5 -91.5h-23v126q35 13 74.5 25.5t87.5 12.5q55 0 84.5 -14.5
t41.5 -40.5t12 -61v-247q0 -53 33 -53q12 0 27.5 8t36.5 33l16 -16q-16 -30 -40 -53.5t-48 -45.5t-40 -46t-16 -55q0 -34 27 -45.5t61 -3.5l11 -16q-16 -19 -39.5 -26.5t-43.5 -7.5zM196 44q48 0 100 44v134q-72 -18 -106 -39.5t-44.5 -43t-10.5 -39.5q0 -29 18 -42.5
t43 -13.5z" />
    <glyph glyph-name="Cacute" unicode="&#x106;" horiz-adv-x="704" 
d="M406 -15q-73 0 -136 24.5t-110.5 70t-73.5 108.5t-26 139q0 82 30 147.5t82 111.5t120 70t144 24q37 0 75.5 -5t72 -13.5t55.5 -18.5v-158h-23q-4 59 -33 92.5t-71.5 48t-88.5 14.5q-71 0 -132 -32t-97.5 -97.5t-36.5 -167.5q0 -97 34 -168.5t90.5 -110.5t125.5 -39
q63 0 111.5 29.5t79.5 74.5t41 91h23l-6 -117q-38 -47 -98 -82.5t-152 -35.5zM469 870q20 1 41 -7t34 -22q-28 -36 -71.5 -66.5t-99.5 -50.5l-11 19q41 28 65 60.5t42 66.5z" />
    <glyph glyph-name="cacute" unicode="&#x107;" horiz-adv-x="471" 
d="M249 -15q-52 0 -98.5 24.5t-75.5 74t-29 123.5q0 79 33.5 134.5t88.5 84.5t117 29q31 0 67.5 -8t65.5 -28v-131h-23q-5 52 -26 80t-48.5 39t-54.5 11q-66 0 -102 -49.5t-36 -123.5q0 -59 20.5 -102.5t56.5 -67.5t81 -24q35 0 69.5 15.5t62.5 42.5l16 -16
q-28 -47 -76 -77.5t-109 -30.5zM314 734q18 1 39.5 -6.5t34.5 -22.5q-22 -45 -64 -91.5t-88 -75.5l-11 19q35 38 57.5 85.5t31.5 91.5z" />
    <glyph glyph-name="Ccircumflex" unicode="&#x108;" horiz-adv-x="704" 
d="M406 -15q-73 0 -136 24.5t-110.5 70t-73.5 108.5t-26 139q0 82 30 147.5t82 111.5t120 70t144 24q37 0 75.5 -5t72 -13.5t55.5 -18.5v-158h-23q-4 59 -33 92.5t-71.5 48t-88.5 14.5q-71 0 -132 -32t-97.5 -97.5t-36.5 -167.5q0 -97 34 -168.5t90.5 -110.5t125.5 -39
q63 0 111.5 29.5t79.5 74.5t41 91h23l-6 -117q-38 -47 -98 -82.5t-152 -35.5zM521 724q-28 11 -57 29t-56 40q-27 -22 -53.5 -40t-51.5 -29l-19 9q34 33 65.5 70.5t61.5 77.5h2q30 -40 62 -77.5t65 -70.5z" />
    <glyph glyph-name="ccircumflex" unicode="&#x109;" horiz-adv-x="471" 
d="M249 -15q-52 0 -98.5 24.5t-75.5 74t-29 123.5q0 79 33.5 134.5t88.5 84.5t117 29q31 0 67.5 -8t65.5 -28v-131h-23q-5 52 -26 80t-48.5 39t-54.5 11q-66 0 -102 -49.5t-36 -123.5q0 -59 20.5 -102.5t56.5 -67.5t81 -24q35 0 69.5 15.5t62.5 42.5l16 -16
q-28 -47 -76 -77.5t-109 -30.5zM364 518q-31 21 -59 49t-53 60q-25 -32 -50.5 -60t-53.5 -49l-19 9q37 47 68.5 99t57.5 108h2q26 -56 57.5 -108t68.5 -99z" />
    <glyph glyph-name="Cdotaccent" unicode="&#x10a;" horiz-adv-x="704" 
d="M406 -15q-73 0 -136 24.5t-110.5 70t-73.5 108.5t-26 139q0 82 30 147.5t82 111.5t120 70t144 24q37 0 75.5 -5t72 -13.5t55.5 -18.5v-158h-23q-4 59 -33 92.5t-71.5 48t-88.5 14.5q-71 0 -132 -32t-97.5 -97.5t-36.5 -167.5q0 -97 34 -168.5t90.5 -110.5t125.5 -39
q63 0 111.5 29.5t79.5 74.5t41 91h23l-6 -117q-38 -47 -98 -82.5t-152 -35.5zM412 741q-22 0 -36.5 15t-14.5 37q0 21 14.5 36t36.5 15t37 -15t15 -36q0 -22 -15 -37t-37 -15z" />
    <glyph glyph-name="cdotaccent" unicode="&#x10b;" horiz-adv-x="471" 
d="M249 -15q-52 0 -98.5 24.5t-75.5 74t-29 123.5q0 79 33.5 134.5t88.5 84.5t117 29q31 0 67.5 -8t65.5 -28v-131h-23q-5 52 -26 80t-48.5 39t-54.5 11q-66 0 -102 -49.5t-36 -123.5q0 -59 20.5 -102.5t56.5 -67.5t81 -24q35 0 69.5 15.5t62.5 42.5l16 -16
q-28 -47 -76 -77.5t-109 -30.5zM256 554q-22 0 -37 15t-15 37q0 21 15 36t37 15t37 -15t15 -36q0 -22 -15 -37t-37 -15z" />
    <glyph glyph-name="Ccaron" unicode="&#x10c;" horiz-adv-x="704" 
d="M406 -15q-73 0 -136 24.5t-110.5 70t-73.5 108.5t-26 139q0 82 30 147.5t82 111.5t120 70t144 24q37 0 75.5 -5t72 -13.5t55.5 -18.5v-158h-23q-4 59 -33 92.5t-71.5 48t-88.5 14.5q-71 0 -132 -32t-97.5 -97.5t-36.5 -167.5q0 -97 34 -168.5t90.5 -110.5t125.5 -39
q63 0 111.5 29.5t79.5 74.5t41 91h23l-6 -117q-38 -47 -98 -82.5t-152 -35.5zM521 871l19 -9q-33 -33 -65 -70.5t-62 -77.5h-2q-30 40 -61.5 77.5t-65.5 70.5l19 9q57 -23 114 -69q26 22 53 40t51 29z" />
    <glyph glyph-name="ccaron" unicode="&#x10d;" horiz-adv-x="471" 
d="M249 -15q-52 0 -98.5 24.5t-75.5 74t-29 123.5q0 79 33.5 134.5t88.5 84.5t117 29q31 0 67.5 -8t65.5 -28v-131h-23q-5 52 -26 80t-48.5 39t-54.5 11q-66 0 -102 -49.5t-36 -123.5q0 -59 20.5 -102.5t56.5 -67.5t81 -24q35 0 69.5 15.5t62.5 42.5l16 -16
q-28 -47 -76 -77.5t-109 -30.5zM364 724l19 -9q-73 -93 -126 -207h-2q-52 114 -126 207l19 9q61 -42 112 -108q26 32 51 59.5t53 48.5z" />
    <glyph glyph-name="Dcaron" unicode="&#x10e;" horiz-adv-x="765" 
d="M66 0v23q27 1 42 6t21.5 21t6.5 50v465q0 35 -7.5 50.5t-27.5 20.5t-60 6v23h95q68 0 120.5 2.5t89.5 2.5q108 0 188.5 -35.5t125.5 -105.5t45 -176q0 -82 -30 -147.5t-81.5 -111.5t-116 -70t-134.5 -24h-277zM313 36q152 0 223.5 81.5t71.5 220.5q0 107 -35.5 172
t-100.5 94.5t-154 29.5q-55 0 -76 -11.5t-21 -57.5v-465q0 -43 20.5 -53.5t71.5 -10.5zM490 871l19 -9q-33 -33 -65 -70.5t-62 -77.5h-2q-30 40 -61.5 77.5t-65.5 70.5l19 9q57 -23 114 -69q26 22 53 40t51 29z" />
    <glyph glyph-name="dcaron" unicode="&#x10f;" horiz-adv-x="561" 
d="M527 788q33 17 68 2q-1 -51 -13 -110.5t-40 -106.5h-23q14 50 15 109.5t-7 105.5zM536 77l10 -23l-163 -75l-6 6q2 9 4.5 35.5t2.5 56.5h-1q-26 -37 -65.5 -64.5t-94.5 -27.5q-47 0 -87.5 24.5t-65 71.5t-24.5 114q0 64 22.5 112.5t60 81.5t83 49.5t91.5 16.5t79 -9v211
q0 28 -8.5 36t-22.5 8q-13 0 -27.5 -4t-26.5 -10l-10 23l173 80l6 -6q-1 -8 -2.5 -43t-1.5 -83v-546q0 -28 8.5 -36t22.5 -8q21 0 43 9zM254 45q35 0 67.5 18t60.5 44v262q-24 26 -53.5 33.5t-51.5 7.5q-64 0 -106.5 -43.5t-42.5 -137.5q0 -86 35 -135t91 -49z" />
    <glyph glyph-name="Dcroat" unicode="&#x110;" horiz-adv-x="765" 
d="M66 0v23q27 1 42 6t21.5 21t6.5 50v465q0 35 -7.5 50.5t-27.5 20.5t-60 6v23h95q68 0 120.5 2.5t89.5 2.5q108 0 188.5 -35.5t125.5 -105.5t45 -176q0 -82 -30 -147.5t-81.5 -111.5t-116 -70t-134.5 -24h-277zM313 36q152 0 223.5 81.5t71.5 220.5q0 107 -35.5 172
t-100.5 94.5t-154 29.5q-55 0 -76 -11.5t-21 -57.5v-465q0 -43 20.5 -53.5t71.5 -10.5zM381 331h-344v36h344v-36z" />
    <glyph glyph-name="dcroat" unicode="&#x111;" horiz-adv-x="564" 
d="M536 77l10 -23l-163 -75l-6 6q2 9 4.5 35.5t2.5 56.5h-1q-26 -37 -65.5 -64.5t-94.5 -27.5q-47 0 -87.5 24.5t-65 71.5t-24.5 114q0 64 22.5 112.5t60 81.5t83 49.5t91.5 16.5t79 -9v211q0 28 -8.5 36t-22.5 8q-13 0 -27.5 -4t-26.5 -10l-10 23l173 80l6 -6
q-1 -8 -2.5 -43t-1.5 -83v-546q0 -28 8.5 -36t22.5 -8q21 0 43 9zM254 45q35 0 67.5 18t60.5 44v262q-24 26 -53.5 33.5t-51.5 7.5q-64 0 -106.5 -43.5t-42.5 -137.5q0 -86 35 -135t91 -49zM536 556h-304v36h304v-36z" />
    <glyph glyph-name="Emacron" unicode="&#x112;" horiz-adv-x="628" 
d="M66 0v23q27 1 42 6t21.5 21t6.5 50v465q0 35 -7.5 50.5t-27.5 20.5t-60 6v23h476v-140h-23q-1 32 -10 55.5t-33 36t-71 12.5h-115q-21 0 -32.5 -10t-11.5 -54v-188q8 6 19.5 8t27.5 2h141q59 0 62 66h23v-170h-23q-1 41 -14 54.5t-48 13.5h-139q-27 0 -38 -9t-11 -35
v-207q0 -43 15.5 -53.5t60.5 -10.5h139q49 0 77 16.5t41 44t16 59.5h23l-8 -156h-519zM166 823h328v-59h-328v59z" />
    <glyph glyph-name="emacron" unicode="&#x113;" horiz-adv-x="462" 
d="M249 -15q-51 0 -97.5 24t-76 72.5t-29.5 123.5q0 76 30 132t80 87t109 31q43 0 79.5 -17t59 -52t22.5 -89l-300 -39v-11q0 -92 42 -144t112 -52q40 0 74 16.5t61 41.5l16 -16q-28 -48 -74.5 -78t-107.5 -30zM244 418q-52 0 -80 -37t-35 -91l207 27q-6 43 -26 72t-66 29z
M114 633h266v-50h-266v50z" />
    <glyph glyph-name="Ebreve" unicode="&#x114;" horiz-adv-x="628" 
d="M66 0v23q27 1 42 6t21.5 21t6.5 50v465q0 35 -7.5 50.5t-27.5 20.5t-60 6v23h476v-140h-23q-1 32 -10 55.5t-33 36t-71 12.5h-115q-21 0 -32.5 -10t-11.5 -54v-188q8 6 19.5 8t27.5 2h141q59 0 62 66h23v-170h-23q-1 41 -14 54.5t-48 13.5h-139q-27 0 -38 -9t-11 -35
v-207q0 -43 15.5 -53.5t60.5 -10.5h139q49 0 77 16.5t41 44t16 59.5h23l-8 -156h-519zM440 870l19 -9q-8 -70 -44 -105t-84 -35q-49 0 -85 35t-44 105l19 9q20 -46 49 -63t61 -17t61 17t48 63z" />
    <glyph glyph-name="ebreve" unicode="&#x115;" horiz-adv-x="462" 
d="M249 -15q-51 0 -97.5 24t-76 72.5t-29.5 123.5q0 76 30 132t80 87t109 31q43 0 79.5 -17t59 -52t22.5 -89l-300 -39v-11q0 -92 42 -144t112 -52q40 0 74 16.5t61 41.5l16 -16q-28 -48 -74.5 -78t-107.5 -30zM244 418q-52 0 -80 -37t-35 -91l207 27q-6 43 -26 72t-66 29z
M354 703l19 -9q-7 -89 -44 -127t-82 -38q-44 0 -81 38t-44 127l19 9q12 -44 31 -68t40 -33t40 -9q29 0 56 22t46 88z" />
    <glyph glyph-name="Edotaccent" unicode="&#x116;" horiz-adv-x="628" 
d="M66 0v23q27 1 42 6t21.5 21t6.5 50v465q0 35 -7.5 50.5t-27.5 20.5t-60 6v23h476v-140h-23q-1 32 -10 55.5t-33 36t-71 12.5h-115q-21 0 -32.5 -10t-11.5 -54v-188q8 6 19.5 8t27.5 2h141q59 0 62 66h23v-170h-23q-1 41 -14 54.5t-48 13.5h-139q-27 0 -38 -9t-11 -35
v-207q0 -43 15.5 -53.5t60.5 -10.5h139q49 0 77 16.5t41 44t16 59.5h23l-8 -156h-519zM330 741q-22 0 -36.5 15t-14.5 37q0 21 14.5 36t36.5 15t37 -15t15 -36q0 -22 -15 -37t-37 -15z" />
    <glyph glyph-name="edotaccent" unicode="&#x117;" horiz-adv-x="462" 
d="M249 -15q-51 0 -97.5 24t-76 72.5t-29.5 123.5q0 76 30 132t80 87t109 31q43 0 79.5 -17t59 -52t22.5 -89l-300 -39v-11q0 -92 42 -144t112 -52q40 0 74 16.5t61 41.5l16 -16q-28 -48 -74.5 -78t-107.5 -30zM244 418q-52 0 -80 -37t-35 -91l207 27q-6 43 -26 72t-66 29z
M246 554q-22 0 -37 15t-15 37q0 21 15 36t37 15t37 -15t15 -36q0 -22 -15 -37t-37 -15z" />
    <glyph glyph-name="Eogonek" unicode="&#x118;" horiz-adv-x="628" 
d="M66 0v23q27 1 42 6t21.5 21t6.5 50v465q0 35 -7.5 50.5t-27.5 20.5t-60 6v23h476v-140h-23q-1 32 -10 55.5t-33 36t-71 12.5h-115q-21 0 -32.5 -10t-11.5 -54v-188q8 6 19.5 8t27.5 2h141q59 0 62 66h23v-170h-23q-1 41 -14 54.5t-48 13.5h-139q-27 0 -38 -9t-11 -35
v-207q0 -43 15.5 -53.5t60.5 -10.5h139q49 0 77 16.5t41 44t16 59.5h23l-8 -156h-519zM422 -235q-37 0 -64.5 20t-27.5 64q0 36 17.5 64.5t42.5 49.5t48 35v2h90q-43 0 -70.5 -22t-40.5 -52.5t-13 -54.5q0 -38 27 -52t61 -4l11 -16q-16 -19 -37.5 -26.5t-43.5 -7.5z" />
    <glyph glyph-name="eogonek" unicode="&#x119;" horiz-adv-x="462" 
d="M355 14q-52 -45 -71 -80.5t-19 -64.5q0 -41 27.5 -51t59.5 -3l11 -16q-16 -19 -39.5 -26.5t-43.5 -7.5q-35 0 -60 22t-25 59q0 41 28.5 78t62.5 63v2q-8 -2 -19 -3t-21 -1q-51 0 -97 24t-74.5 72.5t-28.5 123.5q0 76 30 132t80 87t109 31q43 0 79.5 -17t59 -52t22.5 -89
l-300 -39v-11q0 -92 42 -144t111 -52q41 0 75 16.5t61 41.5l16 -16q-16 -28 -36.5 -45t-39.5 -34zM244 418q-52 0 -80 -37t-35 -91l207 27q-6 43 -26 72t-66 29z" />
    <glyph glyph-name="Ecaron" unicode="&#x11a;" horiz-adv-x="628" 
d="M66 0v23q27 1 42 6t21.5 21t6.5 50v465q0 35 -7.5 50.5t-27.5 20.5t-60 6v23h476v-140h-23q-1 32 -10 55.5t-33 36t-71 12.5h-115q-21 0 -32.5 -10t-11.5 -54v-188q8 6 19.5 8t27.5 2h141q59 0 62 66h23v-170h-23q-1 41 -14 54.5t-48 13.5h-139q-27 0 -38 -9t-11 -35
v-207q0 -43 15.5 -53.5t60.5 -10.5h139q49 0 77 16.5t41 44t16 59.5h23l-8 -156h-519zM439 871l19 -9q-33 -33 -65 -70.5t-62 -77.5h-2q-30 40 -61.5 77.5t-65.5 70.5l19 9q57 -23 114 -69q26 22 53 40t51 29z" />
    <glyph glyph-name="ecaron" unicode="&#x11b;" horiz-adv-x="462" 
d="M249 -15q-51 0 -97.5 24t-76 72.5t-29.5 123.5q0 76 30 132t80 87t109 31q43 0 79.5 -17t59 -52t22.5 -89l-300 -39v-11q0 -92 42 -144t112 -52q40 0 74 16.5t61 41.5l16 -16q-28 -48 -74.5 -78t-107.5 -30zM244 418q-52 0 -80 -37t-35 -91l207 27q-6 43 -26 72t-66 29z
M354 724l19 -9q-73 -93 -126 -207h-2q-52 114 -126 207l19 9q61 -42 112 -108q26 32 51 59.5t53 48.5z" />
    <glyph glyph-name="Gcircumflex" unicode="&#x11c;" horiz-adv-x="731" 
d="M396 -15q-68 0 -129 24.5t-107.5 69.5t-73 108t-26.5 140q0 82 30 147.5t82 111.5t120 70t144 24q54 0 111.5 -11t91.5 -26v-153h-23q-4 59 -33.5 91.5t-72 45.5t-85.5 13q-73 0 -134 -32.5t-97.5 -97.5t-36.5 -165t36 -172t95.5 -111t129.5 -39q47 0 86 18.5t56 56.5
q3 7 7.5 29.5t4.5 62.5q0 49 -10.5 70.5t-36.5 27.5t-72 7v23h233v-23q-21 -1 -27.5 -12.5t-6.5 -34.5v-58q0 -27 1 -51t7 -50q-17 -17 -54.5 -41.5t-90.5 -43.5t-119 -19zM516 724q-28 11 -57 29t-56 40q-27 -22 -53.5 -40t-51.5 -29l-19 9q34 33 65.5 70.5t61.5 77.5h2
q30 -40 62 -77.5t65 -70.5z" />
    <glyph glyph-name="gcircumflex" unicode="&#x11d;" horiz-adv-x="496" 
d="M198 -235q-41 0 -77 10t-58 32t-22 58q0 61 74 105l23 -4q-13 -19 -20 -41.5t-7 -42.5q0 -38 27 -59.5t82 -21.5q52 0 92.5 18t64.5 48t24 65q0 23 -12.5 36t-45.5 18l-213 36q-41 8 -41 55q0 26 17.5 54t52.5 56q-41 13 -70 42.5t-29 77.5q0 46 27 79t70 51t91 18
q35 0 70 -10t60 -31q25 6 42 32t22 71h21q9 -11 13.5 -28.5t4.5 -31.5q0 -30 -19.5 -46.5t-61.5 -19.5q21 -30 21 -68q0 -45 -27 -78.5t-70 -51.5t-91 -18q-24 0 -47 5q-14 -12 -22.5 -27t-8.5 -30q0 -11 6.5 -20t19.5 -11l208 -35q45 -7 69 -27.5t24 -59.5q0 -35 -20 -71
t-57 -66.5t-89.5 -49t-117.5 -18.5zM246 209q45 0 70 29t25 72q0 49 -29.5 80t-76.5 31q-45 0 -70 -28.5t-25 -72.5q0 -49 30 -80t76 -31zM357 518q-31 21 -59 49t-53 60q-25 -32 -50.5 -60t-53.5 -49l-19 9q37 47 68.5 99t57.5 108h2q26 -56 57.5 -108t68.5 -99z" />
    <glyph glyph-name="Gbreve" unicode="&#x11e;" horiz-adv-x="731" 
d="M396 -15q-68 0 -129 24.5t-107.5 69.5t-73 108t-26.5 140q0 82 30 147.5t82 111.5t120 70t144 24q54 0 111.5 -11t91.5 -26v-153h-23q-4 59 -33.5 91.5t-72 45.5t-85.5 13q-73 0 -134 -32.5t-97.5 -97.5t-36.5 -165t36 -172t95.5 -111t129.5 -39q47 0 86 18.5t56 56.5
q3 7 7.5 29.5t4.5 62.5q0 49 -10.5 70.5t-36.5 27.5t-72 7v23h233v-23q-21 -1 -27.5 -12.5t-6.5 -34.5v-58q0 -27 1 -51t7 -50q-17 -17 -54.5 -41.5t-90.5 -43.5t-119 -19zM517 870l19 -9q-8 -70 -44 -105t-84 -35q-49 0 -85 35t-44 105l19 9q20 -46 49 -63t61 -17t61 17
t48 63z" />
    <glyph glyph-name="gbreve" unicode="&#x11f;" horiz-adv-x="496" 
d="M198 -235q-41 0 -77 10t-58 32t-22 58q0 61 74 105l23 -4q-13 -19 -20 -41.5t-7 -42.5q0 -38 27 -59.5t82 -21.5q52 0 92.5 18t64.5 48t24 65q0 23 -12.5 36t-45.5 18l-213 36q-41 8 -41 55q0 26 17.5 54t52.5 56q-41 13 -70 42.5t-29 77.5q0 46 27 79t70 51t91 18
q35 0 70 -10t60 -31q25 6 42 32t22 71h21q9 -11 13.5 -28.5t4.5 -31.5q0 -30 -19.5 -46.5t-61.5 -19.5q21 -30 21 -68q0 -45 -27 -78.5t-70 -51.5t-91 -18q-24 0 -47 5q-14 -12 -22.5 -27t-8.5 -30q0 -11 6.5 -20t19.5 -11l208 -35q45 -7 69 -27.5t24 -59.5q0 -35 -20 -71
t-57 -66.5t-89.5 -49t-117.5 -18.5zM246 209q45 0 70 29t25 72q0 49 -29.5 80t-76.5 31q-45 0 -70 -28.5t-25 -72.5q0 -49 30 -80t76 -31zM357 703l19 -9q-7 -89 -44 -127t-82 -38q-44 0 -81 38t-44 127l19 9q12 -44 31 -68t40 -33t40 -9q29 0 56 22t46 88z" />
    <glyph glyph-name="Gdotaccent" unicode="&#x120;" horiz-adv-x="731" 
d="M396 -15q-68 0 -129 24.5t-107.5 69.5t-73 108t-26.5 140q0 82 30 147.5t82 111.5t120 70t144 24q54 0 111.5 -11t91.5 -26v-153h-23q-4 59 -33.5 91.5t-72 45.5t-85.5 13q-73 0 -134 -32.5t-97.5 -97.5t-36.5 -165t36 -172t95.5 -111t129.5 -39q47 0 86 18.5t56 56.5
q3 7 7.5 29.5t4.5 62.5q0 49 -10.5 70.5t-36.5 27.5t-72 7v23h233v-23q-21 -1 -27.5 -12.5t-6.5 -34.5v-58q0 -27 1 -51t7 -50q-17 -17 -54.5 -41.5t-90.5 -43.5t-119 -19zM407 741q-22 0 -36.5 15t-14.5 37q0 21 14.5 36t36.5 15t37 -15t15 -36q0 -22 -15 -37t-37 -15z" />
    <glyph glyph-name="gdotaccent" unicode="&#x121;" horiz-adv-x="496" 
d="M198 -235q-41 0 -77 10t-58 32t-22 58q0 61 74 105l23 -4q-13 -19 -20 -41.5t-7 -42.5q0 -38 27 -59.5t82 -21.5q52 0 92.5 18t64.5 48t24 65q0 23 -12.5 36t-45.5 18l-213 36q-41 8 -41 55q0 26 17.5 54t52.5 56q-41 13 -70 42.5t-29 77.5q0 46 27 79t70 51t91 18
q35 0 70 -10t60 -31q25 6 42 32t22 71h21q9 -11 13.5 -28.5t4.5 -31.5q0 -30 -19.5 -46.5t-61.5 -19.5q21 -30 21 -68q0 -45 -27 -78.5t-70 -51.5t-91 -18q-24 0 -47 5q-14 -12 -22.5 -27t-8.5 -30q0 -11 6.5 -20t19.5 -11l208 -35q45 -7 69 -27.5t24 -59.5q0 -35 -20 -71
t-57 -66.5t-89.5 -49t-117.5 -18.5zM246 209q45 0 70 29t25 72q0 49 -29.5 80t-76.5 31q-45 0 -70 -28.5t-25 -72.5q0 -49 30 -80t76 -31zM249 554q-22 0 -37 15t-15 37q0 21 15 36t37 15t37 -15t15 -36q0 -22 -15 -37t-37 -15z" />
    <glyph glyph-name="uni0122" unicode="&#x122;" horiz-adv-x="731" 
d="M396 -15q-68 0 -129 24.5t-107.5 69.5t-73 108t-26.5 140q0 82 30 147.5t82 111.5t120 70t144 24q54 0 111.5 -11t91.5 -26v-153h-23q-4 59 -33.5 91.5t-72 45.5t-85.5 13q-73 0 -134 -32.5t-97.5 -97.5t-36.5 -165t36 -172t95.5 -111t129.5 -39q47 0 86 18.5t56 56.5
q3 7 7.5 29.5t4.5 62.5q0 49 -10.5 70.5t-36.5 27.5t-72 7v23h233v-23q-21 -1 -27.5 -12.5t-6.5 -34.5v-58q0 -27 1 -51t7 -50q-17 -17 -54.5 -41.5t-90.5 -43.5t-119 -19zM427 -40q8 -16 10.5 -30.5t2.5 -27.5q0 -35 -16 -62.5t-39.5 -44.5t-48.5 -21v22q17 14 26 34.5
t9 37.5q0 31 -11 53q14 16 30 26t37 13z" />
    <glyph glyph-name="uni0123" unicode="&#x123;" horiz-adv-x="592" 
d="M226 520q-7 16 -10 30.5t-3 27.5q0 36 16 63t40 44t48 21v-22q-17 -14 -26 -34.5t-9 -37.5q0 -31 11 -53q-14 -16 -30 -26t-37 -13zM198 -235q-41 0 -77 10t-58 32t-22 58q0 61 74 105l23 -4q-13 -19 -20 -41.5t-7 -42.5q0 -38 27 -59.5t82 -21.5q52 0 92.5 18t64.5 48
t24 65q0 23 -12.5 36t-45.5 18l-213 36q-41 8 -41 55q0 26 17.5 54t52.5 56q-41 13 -70 42.5t-29 77.5q0 46 27 79t70 51t91 18q35 0 70 -10t60 -31q25 6 42 32t22 71h21q9 -11 13.5 -28.5t4.5 -31.5q0 -30 -19.5 -46.5t-61.5 -19.5q21 -30 21 -68q0 -45 -27 -78.5
t-70 -51.5t-91 -18q-24 0 -47 5q-14 -12 -22.5 -27t-8.5 -30q0 -11 6.5 -20t19.5 -11l208 -35q45 -7 69 -27.5t24 -59.5q0 -35 -20 -71t-57 -66.5t-89.5 -49t-117.5 -18.5zM246 209q45 0 70 29t25 72q0 49 -29.5 80t-76.5 31q-45 0 -70 -28.5t-25 -72.5q0 -49 30 -80t76 -31
z" />
    <glyph glyph-name="Hcircumflex" unicode="&#x124;" horiz-adv-x="801" 
d="M66 0v23q27 1 42.5 6t21.5 21t6 50v465q0 35 -7.5 50.5t-27.5 20.5t-60 6v23h250v-23q-27 -1 -42 -6t-21.5 -20.5t-6.5 -50.5v-175q8 6 19.5 8t27.5 2h264q27 0 38 9t11 36v120q0 35 -7.5 50.5t-27.5 20.5t-60 6v23h250v-23q-27 -1 -42 -6t-21.5 -20.5t-6.5 -50.5v-465
q0 -34 7 -50t27.5 -21t59.5 -6v-23h-249v23q27 1 42.5 6t21.5 21t6 50v275q-8 -7 -20 -9t-27 -2h-264q-27 0 -38 -9t-11 -35v-220q0 -34 7.5 -50t27.5 -21t59 -6v-23h-249zM510 724q-28 11 -57 29t-56 40q-27 -22 -53.5 -40t-51.5 -29l-19 9q34 33 65.5 70.5t61.5 77.5h2
q30 -40 62 -77.5t65 -70.5z" />
    <glyph glyph-name="hcircumflex" unicode="&#x125;" horiz-adv-x="574" 
d="M475 101q0 -35 6.5 -51t25 -21t52.5 -6v-23h-224v23q23 1 36 6t18.5 21t5.5 51v215q0 35 -15 55t-54 20q-32 0 -68.5 -14t-74.5 -44v-232q0 -35 7 -51t25.5 -21t52.5 -6v-23h-225v23q23 1 36 6t18.5 21t5.5 51v556q0 28 -8 36t-23 8q-13 0 -27.5 -4t-26.5 -10l-10 23
l173 80l6 -6q-1 -8 -2.5 -43t-1.5 -83v-294q39 40 83 65.5t96 25.5q62 0 87.5 -31.5t25.5 -83.5v-239zM250 809q-28 11 -57 29t-56 40q-27 -22 -53.5 -40t-51.5 -29l-19 9q34 33 65.5 70.5t61.5 77.5h2q30 -40 62 -77.5t65 -70.5z" />
    <glyph glyph-name="Hbar" unicode="&#x126;" horiz-adv-x="773" 
d="M59 0v23q27 1 42.5 6t21.5 21t6 50v406h-96v36h96v23q0 35 -7.5 50.5t-27.5 20.5t-60 6v23h250v-23q-27 -1 -42 -6t-21.5 -20.5t-6.5 -50.5v-23h360v23q0 35 -7.5 50.5t-27.5 20.5t-60 6v23h250v-23q-27 -1 -42 -6t-21.5 -20.5t-6.5 -50.5v-23h95v-36h-95v-406
q0 -34 7 -50t27.5 -21t59.5 -6v-23h-249v23q27 1 42.5 6t21.5 21t6 50v275q-8 -7 -20 -9t-27 -2h-264q-27 0 -38 -9t-11 -35v-220q0 -34 7.5 -50t27.5 -21t59 -6v-23h-249zM574 445v61h-360v-116q8 6 19.5 8t27.5 2h264q27 0 38 9t11 36z" />
    <glyph glyph-name="hbar" unicode="&#x127;" horiz-adv-x="574" 
d="M475 101q0 -35 6.5 -51t25 -21t52.5 -6v-23h-224v23q23 1 36 6t18.5 21t5.5 51v215q0 35 -15 55t-54 20q-32 0 -68.5 -14t-74.5 -44v-232q0 -35 7 -51t25.5 -21t52.5 -6v-23h-225v23q23 1 36 6t18.5 21t5.5 51v556q0 28 -8 36t-23 8q-13 0 -27.5 -4t-26.5 -10l-10 23
l173 80l6 -6q-1 -8 -2.5 -43t-1.5 -83v-294q39 40 83 65.5t96 25.5q62 0 87.5 -31.5t25.5 -83.5v-239zM323 556h-304v36h304v-36z" />
    <glyph glyph-name="Itilde" unicode="&#x128;" horiz-adv-x="375" 
d="M75 0v23q27 1 42.5 6t21.5 21t6 50v465q0 35 -7.5 50.5t-27.5 20.5t-60 6v23h250v-23q-27 -1 -42 -6t-21.5 -20.5t-6.5 -50.5v-465q0 -34 7.5 -50t28 -21t59.5 -6v-23h-250zM112 791q-21 0 -36 -13.5t-27 -44.5l-22 5q16 63 42 88t61 25q30 0 54.5 -14.5t46.5 -29
t44 -14.5q21 0 36 13.5t27 44.5l23 -5q-16 -63 -42.5 -88t-61.5 -25q-29 0 -54 14.5t-47 29t-44 14.5z" />
    <glyph glyph-name="itilde" unicode="&#x129;" horiz-adv-x="293" 
d="M190 101q0 -35 7 -51t25.5 -21t52.5 -6v-23h-225v23q22 1 35 6t19 21t6 51v226q0 28 -8.5 36.5t-22.5 8.5q-13 0 -27.5 -4.5t-26.5 -9.5l-10 23l173 79l6 -6q-1 -8 -2.5 -43t-1.5 -83v-227zM81 600q-22 0 -34.5 -13.5t-20.5 -45.5l-23 5q7 63 29.5 88t57.5 25
q30 0 52 -14.5t41.5 -29.5t40.5 -15q22 0 35 14t20 45l23 -5q-7 -63 -29.5 -88t-57.5 -25q-29 0 -51.5 15t-41.5 29.5t-41 14.5z" />
    <glyph glyph-name="Imacron" unicode="&#x12a;" horiz-adv-x="375" 
d="M75 0v23q27 1 42.5 6t21.5 21t6 50v465q0 35 -7.5 50.5t-27.5 20.5t-60 6v23h250v-23q-27 -1 -42 -6t-21.5 -20.5t-6.5 -50.5v-465q0 -34 7.5 -50t28 -21t59.5 -6v-23h-250zM24 823h328v-59h-328v59z" />
    <glyph glyph-name="imacron" unicode="&#x12b;" horiz-adv-x="293" 
d="M190 101q0 -35 7 -51t25.5 -21t52.5 -6v-23h-225v23q22 1 35 6t19 21t6 51v226q0 28 -8.5 36.5t-22.5 8.5q-13 0 -27.5 -4.5t-26.5 -9.5l-10 23l173 79l6 -6q-1 -8 -2.5 -43t-1.5 -83v-227zM18 633h266v-50h-266v50z" />
    <glyph glyph-name="Ibreve" unicode="&#x12c;" horiz-adv-x="375" 
d="M75 0v23q27 1 42.5 6t21.5 21t6 50v465q0 35 -7.5 50.5t-27.5 20.5t-60 6v23h250v-23q-27 -1 -42 -6t-21.5 -20.5t-6.5 -50.5v-465q0 -34 7.5 -50t28 -21t59.5 -6v-23h-250zM298 870l19 -9q-8 -70 -44 -105t-84 -35q-49 0 -85 35t-44 105l19 9q20 -46 49 -63t61 -17
t61 17t48 63z" />
    <glyph glyph-name="ibreve" unicode="&#x12d;" horiz-adv-x="293" 
d="M190 101q0 -35 7 -51t25.5 -21t52.5 -6v-23h-225v23q22 1 35 6t19 21t6 51v226q0 28 -8.5 36.5t-22.5 8.5q-13 0 -27.5 -4.5t-26.5 -9.5l-10 23l173 79l6 -6q-1 -8 -2.5 -43t-1.5 -83v-227zM258 703l19 -9q-7 -89 -44 -127t-82 -38q-44 0 -81 38t-44 127l19 9
q12 -44 31 -68t40 -33t40 -9q29 0 56 22t46 88z" />
    <glyph glyph-name="Iogonek" unicode="&#x12e;" horiz-adv-x="375" 
d="M75 0v23q27 1 42.5 6t21.5 21t6 50v465q0 35 -7.5 50.5t-27.5 20.5t-60 6v23h250v-23q-27 -1 -42 -6t-21.5 -20.5t-6.5 -50.5v-465q0 -34 7.5 -50t28 -21t59.5 -6v-23h-250zM151 -235q-37 0 -64.5 20t-27.5 64q0 36 17.5 64.5t42.5 49.5t48 35v2h90q-43 0 -70.5 -22
t-40.5 -52.5t-13 -54.5q0 -38 27 -52t61 -4l11 -16q-16 -19 -37.5 -26.5t-43.5 -7.5z" />
    <glyph glyph-name="iogonek" unicode="&#x12f;" horiz-adv-x="293" 
d="M150 554q-22 0 -37 15t-15 37q0 21 15 36t37 15t37 -15t15 -36q0 -22 -15 -37t-37 -15zM190 101q0 -35 7 -51t25.5 -21t52.5 -6v-23h-38q-43 0 -70.5 -22t-40.5 -52.5t-13 -54.5q0 -38 27 -52t61 -4l11 -16q-16 -19 -37 -26.5t-44 -7.5q-37 0 -64.5 20t-27.5 63
q0 47 32 87.5t78 64.5h-99v23q22 1 35 6t19 21t6 51v226q0 28 -8.5 36.5t-22.5 8.5q-13 0 -27.5 -4.5t-26.5 -9.5l-10 23l173 79l6 -6q-1 -8 -2.5 -43t-1.5 -83v-227z" />
    <glyph glyph-name="Idotaccent" unicode="&#x130;" horiz-adv-x="375" 
d="M75 0v23q27 1 42.5 6t21.5 21t6 50v465q0 35 -7.5 50.5t-27.5 20.5t-60 6v23h250v-23q-27 -1 -42 -6t-21.5 -20.5t-6.5 -50.5v-465q0 -34 7.5 -50t28 -21t59.5 -6v-23h-250zM188 741q-22 0 -36.5 15t-14.5 37q0 21 14.5 36t36.5 15t37 -15t15 -36q0 -22 -15 -37t-37 -15z
" />
    <glyph glyph-name="dotlessi" unicode="&#x131;" horiz-adv-x="293" 
d="M190 101q0 -35 7 -51t25.5 -21t52.5 -6v-23h-225v23q22 1 35 6t19 21t6 51v226q0 28 -8.5 36.5t-22.5 8.5q-13 0 -27.5 -4.5t-26.5 -9.5l-10 23l173 79l6 -6q-1 -8 -2.5 -43t-1.5 -83v-227z" />
    <glyph glyph-name="IJ" unicode="&#x132;" horiz-adv-x="723" 
d="M75 0v23q27 1 42.5 6t21.5 21t6 50v465q0 35 -7.5 50.5t-27.5 20.5t-60 6v23h250v-23q-27 -1 -42 -6t-21.5 -20.5t-6.5 -50.5v-465q0 -34 7.5 -50t28 -21t59.5 -6v-23h-250zM426 -225v22q34 6 51 27.5t23 64t6 111.5v565q0 35 -7.5 50.5t-27.5 20.5t-60 6v23h250v-23
q-27 -1 -42 -6t-21.5 -20.5t-6.5 -50.5v-578q0 -72 -22.5 -119t-60 -70t-82.5 -23z" />
    <glyph glyph-name="ij" unicode="&#x133;" horiz-adv-x="575" 
d="M190 101q0 -35 7 -51t25.5 -21t52.5 -6v-23h-225v23q22 1 35 6t19 21t6 51v226q0 28 -8.5 36.5t-22.5 8.5q-13 0 -27.5 -4.5t-26.5 -9.5l-10 23l173 79l6 -6q-1 -8 -2.5 -43t-1.5 -83v-227zM150 554q-22 0 -37 15t-15 37q0 21 15 36t37 15t37 -15t15 -36q0 -22 -15 -37
t-37 -15zM477 460l6 -6q-1 -8 -2.5 -43t-1.5 -83v-341q0 -98 -45 -159t-132 -63v22q46 8 71.5 55.5t25.5 159.5v325q0 28 -8.5 36.5t-22.5 8.5q-13 0 -27.5 -4.5t-26.5 -9.5l-10 23zM436 554q-22 0 -37 15t-15 37q0 21 15 36t37 15t37 -15t15 -36q0 -22 -15 -37t-37 -15z
" />
    <glyph glyph-name="Jcircumflex" unicode="&#x134;" horiz-adv-x="348" 
d="M51 -225v22q34 6 51 27.5t23 64t6 111.5v565q0 35 -7.5 50.5t-27.5 20.5t-60 6v23h250v-23q-27 -1 -42 -6t-21.5 -20.5t-6.5 -50.5v-578q0 -72 -22.5 -119t-60 -70t-82.5 -23zM283 724q-28 11 -57 29t-56 40q-27 -22 -53.5 -40t-51.5 -29l-19 9q34 33 65.5 70.5
t61.5 77.5h2q30 -40 62 -77.5t65 -70.5z" />
    <glyph glyph-name="jcircumflex" unicode="&#x135;" horiz-adv-x="282" 
d="M184 460l6 -6q-1 -8 -2.5 -43t-1.5 -83v-341q0 -98 -45 -159t-132 -63v22q46 8 71.5 55.5t25.5 159.5v325q0 28 -8.5 36.5t-22.5 8.5q-13 0 -27.5 -4.5t-26.5 -9.5l-10 23zM251 518q-31 21 -59 49t-53 60q-25 -32 -50.5 -60t-53.5 -49l-19 9q37 47 68.5 99t57.5 108h2
q26 -56 57.5 -108t68.5 -99z" />
    <glyph glyph-name="uni0136" unicode="&#x136;" horiz-adv-x="688" 
d="M630 -6q-58 0 -89 22.5t-58 56.5l-207 260q-13 16 -20 22t-15 6t-14 -5.5t-6 -23.5v-232q0 -34 7.5 -50t27.5 -21t59 -6v-23h-249v23q27 1 42.5 6t21.5 21t6 50v465q0 35 -7.5 50.5t-27.5 20.5t-60 6v23h250v-23q-27 -1 -42 -6t-21.5 -20.5t-6.5 -50.5v-167h2l214 174
q24 20 31 30t7 18q0 10 -11 15.5t-42 6.5v23h210v-23q-30 -2 -54 -15t-55 -38l-190 -155q-16 -12 0 -33l234 -298q27 -34 44.5 -51t34 -23t38.5 -6v-23q-27 -6 -54 -6zM374 -40q8 -16 10.5 -30.5t2.5 -27.5q0 -35 -16 -62.5t-39.5 -44.5t-48.5 -21v22q17 14 26 34.5t9 37.5
q0 31 -11 53q14 16 30 26t37 13z" />
    <glyph glyph-name="uni0137" unicode="&#x137;" horiz-adv-x="526" 
d="M183 101q0 -35 6 -51t19 -21t35 -6v-23h-200v23q23 1 36 6t18.5 21t5.5 51v556q0 28 -8 36t-23 8q-13 0 -27.5 -4t-26.5 -10l-10 23l173 80l6 -6q-1 -8 -2.5 -43t-1.5 -83v-446h2l123 136q19 20 25.5 29.5t6.5 17.5t-9 14t-47 8v23h200v-23q-37 -2 -59.5 -13.5
t-48.5 -39.5l-74 -80l118 -181q24 -35 41 -52.5t34.5 -22.5t39.5 -5v-23q-25 -6 -50 -6q-54 0 -85 21.5t-54 54.5l-102 152l-61 -66v-55zM301 -40q8 -16 10.5 -30.5t2.5 -27.5q0 -35 -16 -62.5t-39.5 -44.5t-48.5 -21v22q17 14 26 34.5t9 37.5q0 31 -11 53q14 16 30 26
t37 13z" />
    <glyph glyph-name="kgreenlandic" unicode="&#x138;" horiz-adv-x="524" 
d="M51 0v23q23 1 36 6t18.5 21t5.5 51v238q0 35 -6.5 51t-25 21t-53.5 6v23h225v-23q-22 -1 -35.5 -6t-19 -21t-5.5 -51v-96h2l122 104q23 20 29 30t6 18q0 19 -33 22v23h179v-23q-22 -2 -45 -14.5t-54 -38.5l-96 -80q-12 -10 -11 -18t8 -16l128 -150q28 -32 43 -49
t28.5 -22.5t35.5 -5.5v-23q-25 -6 -58 -6q-35 0 -57 11t-37.5 28.5t-32.5 36.5l-103 120q-10 13 -17.5 17t-15.5 4t-14.5 -5t-6.5 -19v-86q0 -35 6.5 -51t22.5 -21t46 -6v-23h-215z" />
    <glyph glyph-name="Lacute" unicode="&#x139;" horiz-adv-x="563" 
d="M66 0v23q27 1 42 6t21.5 21t6.5 50v465q0 35 -7.5 50.5t-27.5 20.5t-60 6v23h250v-23q-27 -1 -42 -6t-21.5 -20.5t-6.5 -50.5v-465q0 -43 15.5 -53.5t60.5 -10.5h91q50 0 77.5 16.5t40 44t15.5 59.5h23l-8 -156h-470zM238 870q20 1 41 -7t34 -22q-28 -36 -71.5 -66.5
t-99.5 -50.5l-11 19q41 28 65 60.5t42 66.5z" />
    <glyph glyph-name="lacute" unicode="&#x13a;" horiz-adv-x="286" 
d="M183 101q0 -35 7 -51t25.5 -21t52.5 -6v-23h-225v23q22 1 35 6t19 21t6 51v556q0 28 -8.5 36t-22.5 8q-13 0 -27.5 -4t-26.5 -10l-10 23l173 80l6 -6q-1 -8 -2.5 -43t-1.5 -83v-557zM198 955q20 1 41 -7t34 -22q-28 -36 -71.5 -66.5t-99.5 -50.5l-11 19q41 28 65 60.5
t42 66.5z" />
    <glyph glyph-name="uni013B" unicode="&#x13b;" horiz-adv-x="563" 
d="M66 0v23q27 1 42 6t21.5 21t6.5 50v465q0 35 -7.5 50.5t-27.5 20.5t-60 6v23h250v-23q-27 -1 -42 -6t-21.5 -20.5t-6.5 -50.5v-465q0 -43 15.5 -53.5t60.5 -10.5h91q50 0 77.5 16.5t40 44t15.5 59.5h23l-8 -156h-470zM350 -40q8 -16 10.5 -30.5t2.5 -27.5
q0 -35 -16 -62.5t-39.5 -44.5t-48.5 -21v22q17 14 26 34.5t9 37.5q0 31 -11 53q14 16 30 26t37 13z" />
    <glyph glyph-name="uni013C" unicode="&#x13c;" horiz-adv-x="286" 
d="M183 101q0 -35 7 -51t25.5 -21t52.5 -6v-23h-225v23q22 1 35 6t19 21t6 51v556q0 28 -8.5 36t-22.5 8q-13 0 -27.5 -4t-26.5 -10l-10 23l173 80l6 -6q-1 -8 -2.5 -43t-1.5 -83v-557zM170 -40q8 -16 10.5 -30.5t2.5 -27.5q0 -35 -16 -62.5t-39.5 -44.5t-48.5 -21v22
q17 14 26 34.5t9 37.5q0 31 -11 53q14 16 30 26t37 13z" />
    <glyph glyph-name="Lcaron" unicode="&#x13d;" horiz-adv-x="537" 
d="M66 0v23q27 1 42 6t21.5 21t6.5 50v465q0 35 -7.5 50.5t-27.5 20.5t-60 6v23h250v-23q-27 -1 -42 -6t-21.5 -20.5t-6.5 -50.5v-465q0 -43 15.5 -53.5t60.5 -10.5h91q50 0 77.5 16.5t40 44t15.5 59.5h23l-8 -156h-470zM429 665q33 17 68 2q-1 -51 -13 -110.5t-40 -106.5
h-23q14 50 15 109.5t-7 105.5z" />
    <glyph glyph-name="lcaron" unicode="&#x13e;" horiz-adv-x="277" 
d="M183 101q0 -35 7 -51t25.5 -21t52.5 -6v-23h-225v23q22 1 35 6t19 21t6 51v556q0 28 -8.5 36t-22.5 8q-13 0 -27.5 -4t-26.5 -10l-10 23l173 80l6 -6q-1 -8 -2.5 -43t-1.5 -83v-557zM243 788q33 17 68 2q-1 -51 -13 -110.5t-40 -106.5h-23q14 50 15 109.5t-7 105.5z" />
    <glyph glyph-name="Ldot" unicode="&#x13f;" horiz-adv-x="563" 
d="M66 0v23q27 1 42 6t21.5 21t6.5 50v465q0 35 -7.5 50.5t-27.5 20.5t-60 6v23h250v-23q-27 -1 -42 -6t-21.5 -20.5t-6.5 -50.5v-465q0 -43 15.5 -53.5t60.5 -10.5h91q50 0 77.5 16.5t40 44t15.5 59.5h23l-8 -156h-470zM497 314q-22 0 -37 15t-15 37q0 21 15 36t37 15
t37 -15t15 -36q0 -22 -15 -37t-37 -15z" />
    <glyph glyph-name="ldot" unicode="&#x140;" horiz-adv-x="358" 
d="M183 101q0 -35 7 -51t25.5 -21t52.5 -6v-23h-225v23q22 1 35 6t19 21t6 51v556q0 28 -8.5 36t-22.5 8q-13 0 -27.5 -4t-26.5 -10l-10 23l173 80l6 -6q-1 -8 -2.5 -43t-1.5 -83v-557zM301 314q-22 0 -37 15t-15 37q0 21 15 36t37 15t37 -15t15 -36q0 -22 -15 -37t-37 -15z
" />
    <glyph glyph-name="Lslash" unicode="&#x141;" horiz-adv-x="571" 
d="M74 0v23q27 1 42 6t21.5 21t6.5 50v217l-118 -54v46l118 54v202q0 35 -7.5 50.5t-27.5 20.5t-60 6v23h250v-23q-27 -1 -42 -6t-21.5 -20.5t-6.5 -50.5v-173l244 112v-46l-244 -112v-246q0 -43 15.5 -53.5t60.5 -10.5h91q50 0 77.5 16.5t40 44t15.5 59.5h23l-8 -156h-470z
" />
    <glyph glyph-name="lslash" unicode="&#x142;" horiz-adv-x="303" 
d="M192 101q0 -35 7 -51t25.5 -21t52.5 -6v-23h-225v23q22 1 35 6t19 21t6 51v229l-90 -51v46l90 51v281q0 28 -8.5 36t-22.5 8q-13 0 -27.5 -4t-26.5 -10l-10 23l173 80l6 -6q-1 -8 -2.5 -43t-1.5 -83v-246l89 51v-46l-89 -51v-265z" />
    <glyph glyph-name="Nacute" unicode="&#x143;" horiz-adv-x="778" 
d="M632 -8q-15 23 -33 46.5t-49 57.5l-365 413h-2v-409q0 -37 18.5 -56t77.5 -21v-23h-211v23q41 2 55.5 21t14.5 56v465q0 39 -22.5 57t-72.5 20v23h136q15 -25 32.5 -49t38.5 -47l369 -413h2v409q0 37 -18.5 56t-77.5 21v23h211v-23q-40 -2 -55 -21t-15 -56v-465
q0 -28 0.5 -53.5t1.5 -54.5h-36zM460 870q20 1 41 -7t34 -22q-28 -36 -71.5 -66.5t-99.5 -50.5l-11 19q41 28 65 60.5t42 66.5z" />
    <glyph glyph-name="nacute" unicode="&#x144;" horiz-adv-x="581" 
d="M481 101q0 -35 6.5 -51t25 -21t53.5 -6v-23h-225v23q22 1 35 6t19 21t6 51v215q0 35 -15.5 55t-53.5 20q-33 0 -69 -14t-74 -44v-232q0 -35 6.5 -51t25 -21t53.5 -6v-23h-225v23q23 1 36 6t18.5 21t5.5 51v227q0 27 -8 35.5t-22 8.5q-11 0 -21.5 -2.5t-21.5 -7.5l-10 23
l161 75l6 -6q-2 -9 -4.5 -35t-2.5 -55h2q38 40 82.5 65.5t96.5 25.5q64 0 89 -31.5t25 -83.5v-239zM360 734q18 1 39.5 -6.5t34.5 -22.5q-22 -45 -64 -91.5t-88 -75.5l-11 19q35 38 57.5 85.5t31.5 91.5z" />
    <glyph glyph-name="uni0145" unicode="&#x145;" horiz-adv-x="778" 
d="M632 -8q-15 23 -33 46.5t-49 57.5l-365 413h-2v-409q0 -37 18.5 -56t77.5 -21v-23h-211v23q41 2 55.5 21t14.5 56v465q0 39 -22.5 57t-72.5 20v23h136q15 -25 32.5 -49t38.5 -47l369 -413h2v409q0 37 -18.5 56t-77.5 21v23h211v-23q-40 -2 -55 -21t-15 -56v-465
q0 -28 0.5 -53.5t1.5 -54.5h-36zM414 -40q8 -16 10.5 -30.5t2.5 -27.5q0 -35 -16 -62.5t-39.5 -44.5t-48.5 -21v22q17 14 26 34.5t9 37.5q0 31 -11 53q14 16 30 26t37 13z" />
    <glyph glyph-name="uni0146" unicode="&#x146;" horiz-adv-x="581" 
d="M481 101q0 -35 6.5 -51t25 -21t53.5 -6v-23h-225v23q22 1 35 6t19 21t6 51v215q0 35 -15.5 55t-53.5 20q-33 0 -69 -14t-74 -44v-232q0 -35 6.5 -51t25 -21t53.5 -6v-23h-225v23q23 1 36 6t18.5 21t5.5 51v227q0 27 -8 35.5t-22 8.5q-11 0 -21.5 -2.5t-21.5 -7.5l-10 23
l161 75l6 -6q-2 -9 -4.5 -35t-2.5 -55h2q38 40 82.5 65.5t96.5 25.5q64 0 89 -31.5t25 -83.5v-239zM335 -40q8 -16 10.5 -30.5t2.5 -27.5q0 -35 -16 -62.5t-39.5 -44.5t-48.5 -21v22q17 14 26 34.5t9 37.5q0 31 -11 53q14 16 30 26t37 13z" />
    <glyph glyph-name="Ncaron" unicode="&#x147;" horiz-adv-x="778" 
d="M632 -8q-15 23 -33 46.5t-49 57.5l-365 413h-2v-409q0 -37 18.5 -56t77.5 -21v-23h-211v23q41 2 55.5 21t14.5 56v465q0 39 -22.5 57t-72.5 20v23h136q15 -25 32.5 -49t38.5 -47l369 -413h2v409q0 37 -18.5 56t-77.5 21v23h211v-23q-40 -2 -55 -21t-15 -56v-465
q0 -28 0.5 -53.5t1.5 -54.5h-36zM512 871l19 -9q-33 -33 -65 -70.5t-62 -77.5h-2q-30 40 -61.5 77.5t-65.5 70.5l19 9q57 -23 114 -69q26 22 53 40t51 29z" />
    <glyph glyph-name="ncaron" unicode="&#x148;" horiz-adv-x="581" 
d="M481 101q0 -35 6.5 -51t25 -21t53.5 -6v-23h-225v23q22 1 35 6t19 21t6 51v215q0 35 -15.5 55t-53.5 20q-33 0 -69 -14t-74 -44v-232q0 -35 6.5 -51t25 -21t53.5 -6v-23h-225v23q23 1 36 6t18.5 21t5.5 51v227q0 27 -8 35.5t-22 8.5q-11 0 -21.5 -2.5t-21.5 -7.5l-10 23
l161 75l6 -6q-2 -9 -4.5 -35t-2.5 -55h2q38 40 82.5 65.5t96.5 25.5q64 0 89 -31.5t25 -83.5v-239zM410 724l19 -9q-73 -93 -126 -207h-2q-52 114 -126 207l19 9q61 -42 112 -108q26 32 51 59.5t53 48.5z" />
    <glyph glyph-name="Eng" unicode="&#x14a;" horiz-adv-x="778" 
d="M525 642v23h211v-23q-40 -2 -55 -21t-15 -56v-526q0 -140 -54.5 -211t-176.5 -58q-12 69 0 138h23q4 -43 18.5 -67.5t39.5 -24.5q27 0 41.5 26t20.5 65t7 78.5t1 66.5v3l-401 455h-2v-410q0 -37 18.5 -56t77.5 -21v-23h-211v23q41 2 55.5 21t14.5 56v465q0 39 -22.5 57
t-72.5 20v23h136q15 -25 33 -49t38 -47l369 -414h2v410q0 37 -18.5 56t-77.5 21z" />
    <glyph glyph-name="eng" unicode="&#x14b;" horiz-adv-x="573" 
d="M331 -184q27 0 41.5 26t20.5 65t7 78.5t1 66.5v266q0 35 -15.5 55t-53.5 20q-33 0 -69 -14t-74 -44v-234q0 -35 6.5 -51t25 -21t53.5 -6v-23h-225v23q23 1 36 6t18.5 21t5.5 51v229q0 28 -8 36.5t-22 8.5q-11 0 -21.5 -2.5t-21.5 -7.5l-10 23l161 75l6 -6q-2 -9 -4.5 -35
t-2.5 -56h2q38 40 82.5 65.5t96.5 25.5q63 0 88.5 -31.5t25.5 -83.5v-303q0 -140 -54.5 -211t-176.5 -58q-12 69 0 138h23q4 -43 18.5 -67.5t39.5 -24.5z" />
    <glyph glyph-name="Omacron" unicode="&#x14c;" horiz-adv-x="790" 
d="M395 680q68 0 128 -24t107 -69.5t73.5 -109.5t26.5 -143t-26.5 -143t-73 -110t-107.5 -71t-129 -25q-67 0 -127.5 24t-107 69.5t-73 109.5t-26.5 143t26.5 143t73 110t107 71t128.5 25zM409 25q60 0 110.5 33t81.5 97.5t31 159.5q0 104 -36 176.5t-93 110.5t-122 38
q-60 0 -111 -33t-82 -97.5t-31 -159.5q0 -104 36 -176.5t94 -110.5t122 -38zM232 823h328v-59h-328v59z" />
    <glyph glyph-name="omacron" unicode="&#x14d;" horiz-adv-x="535" 
d="M274 455q58 0 106.5 -28.5t78.5 -79.5t30 -119q0 -60 -20.5 -105.5t-54.5 -76t-74.5 -46t-79.5 -15.5q-57 0 -106 28.5t-78.5 79.5t-29.5 119q0 60 20.5 105.5t54.5 76t74 46t79 15.5zM277 25q59 0 93 42.5t34 131.5q0 61 -18.5 110t-51.5 77.5t-77 28.5q-58 0 -92 -42.5
t-34 -131.5q0 -60 18.5 -109t51.5 -78t76 -29zM125 633h266v-50h-266v50z" />
    <glyph glyph-name="Obreve" unicode="&#x14e;" horiz-adv-x="790" 
d="M395 680q68 0 128 -24t107 -69.5t73.5 -109.5t26.5 -143t-26.5 -143t-73 -110t-107.5 -71t-129 -25q-67 0 -127.5 24t-107 69.5t-73 109.5t-26.5 143t26.5 143t73 110t107 71t128.5 25zM409 25q60 0 110.5 33t81.5 97.5t31 159.5q0 104 -36 176.5t-93 110.5t-122 38
q-60 0 -111 -33t-82 -97.5t-31 -159.5q0 -104 36 -176.5t94 -110.5t122 -38zM506 870l19 -9q-8 -70 -44 -105t-84 -35q-49 0 -85 35t-44 105l19 9q20 -46 49 -63t61 -17t61 17t48 63z" />
    <glyph glyph-name="obreve" unicode="&#x14f;" horiz-adv-x="535" 
d="M274 455q58 0 106.5 -28.5t78.5 -79.5t30 -119q0 -60 -20.5 -105.5t-54.5 -76t-74.5 -46t-79.5 -15.5q-57 0 -106 28.5t-78.5 79.5t-29.5 119q0 60 20.5 105.5t54.5 76t74 46t79 15.5zM277 25q59 0 93 42.5t34 131.5q0 61 -18.5 110t-51.5 77.5t-77 28.5q-58 0 -92 -42.5
t-34 -131.5q0 -60 18.5 -109t51.5 -78t76 -29zM365 703l19 -9q-7 -89 -44 -127t-82 -38q-44 0 -81 38t-44 127l19 9q12 -44 31 -68t40 -33t40 -9q29 0 56 22t46 88z" />
    <glyph glyph-name="Ohungarumlaut" unicode="&#x150;" horiz-adv-x="790" 
d="M395 680q68 0 128 -24t107 -69.5t73.5 -109.5t26.5 -143t-26.5 -143t-73 -110t-107.5 -71t-129 -25q-67 0 -127.5 24t-107 69.5t-73 109.5t-26.5 143t26.5 143t73 110t107 71t128.5 25zM409 25q60 0 110.5 33t81.5 97.5t31 159.5q0 104 -36 176.5t-93 110.5t-122 38
q-60 0 -111 -33t-82 -97.5t-31 -159.5q0 -104 36 -176.5t94 -110.5t122 -38zM545 880q20 1 41 -7t33 -22q-28 -36 -71.5 -66.5t-99.5 -50.5l-11 19q42 28 66 60.5t42 66.5zM404 880q20 1 40.5 -7t33.5 -22q-28 -36 -71.5 -66.5t-99.5 -50.5l-11 19q41 28 65.5 60.5
t42.5 66.5z" />
    <glyph glyph-name="ohungarumlaut" unicode="&#x151;" horiz-adv-x="535" 
d="M274 455q58 0 106.5 -28.5t78.5 -79.5t30 -119q0 -60 -20.5 -105.5t-54.5 -76t-74.5 -46t-79.5 -15.5q-57 0 -106 28.5t-78.5 79.5t-29.5 119q0 60 20.5 105.5t54.5 76t74 46t79 15.5zM277 25q59 0 93 42.5t34 131.5q0 61 -18.5 110t-51.5 77.5t-77 28.5q-58 0 -92 -42.5
t-34 -131.5q0 -60 18.5 -109t51.5 -78t76 -29zM389 734q17 1 39 -6.5t34 -22.5q-20 -49 -58 -93t-85 -74l-11 21q32 38 52 82.5t29 92.5zM227 734q17 1 39 -6.5t33 -22.5q-19 -49 -57 -93t-85 -74l-11 19q32 39 51.5 84t29.5 93z" />
    <glyph glyph-name="OE" unicode="&#x152;" horiz-adv-x="987" 
d="M933 156h23l-8 -156h-521q-75 0 -141 22t-117 64.5t-80 104t-29 140.5t29 141t79.5 105t117.5 65.5t142 22.5h453v-140h-23q-1 32 -10.5 55.5t-33 36t-70.5 12.5h-106q-21 0 -32.5 -10t-11.5 -54v-183q8 6 19.5 8t27.5 2h131q60 0 63 66h23v-170h-23q-1 41 -14.5 54.5
t-48.5 13.5h-129q-27 0 -38 -9t-11 -35v-212q0 -43 15.5 -53.5t60.5 -10.5h129q49 0 77 16.5t41 44t16 59.5zM509 113v440q0 35 -7.5 51t-28 20.5t-61.5 4.5q-71 0 -129 -30t-92 -91.5t-34 -156.5q0 -105 38 -175t102.5 -105t141.5 -35q27 1 42.5 6t21.5 21t6 50z" />
    <glyph glyph-name="oe" unicode="&#x153;" horiz-adv-x="828" 
d="M274 455q58 0 106.5 -28.5t78.5 -79.5t30 -119q0 -60 -20.5 -105.5t-54.5 -76t-74.5 -46t-79.5 -15.5q-57 0 -106 28.5t-78.5 79.5t-29.5 119q0 60 20.5 105.5t54.5 76t74 46t79 15.5zM277 25q59 0 93 42.5t34 131.5q0 61 -18.5 110t-51.5 77.5t-77 28.5q-58 0 -92 -42.5
t-34 -131.5q0 -60 18.5 -109t51.5 -78t76 -29zM615 -15q-51 0 -97.5 24t-76 72.5t-29.5 123.5q0 76 30 132t80 87t109 31q43 0 79.5 -17t59 -52t22.5 -89l-300 -39v-11q0 -92 42 -144t112 -52q40 0 74 16.5t61 41.5l16 -16q-28 -48 -74.5 -78t-107.5 -30zM610 418
q-52 0 -80 -37t-35 -91l207 27q-6 43 -26 72t-66 29z" />
    <glyph glyph-name="Racute" unicode="&#x154;" horiz-adv-x="679" 
d="M634 -6q-41 0 -68 11t-46 29t-36 39l-206 253q-13 16 -19.5 20.5t-17.5 5.5v30q96 -8 150 27t54 107q0 49 -22 74.5t-57 34.5t-74 9q-36 0 -53.5 -11.5t-17.5 -57.5v-465q0 -34 7.5 -50t27.5 -21t59 -6v-23h-249v23q27 1 42.5 6t21.5 21t6 50v465q0 35 -7.5 50.5
t-27.5 20.5t-60 6v23h95q69 0 109 2.5t74 2.5q114 0 167.5 -41.5t53.5 -105.5q0 -66 -50.5 -109t-128.5 -55v-2l207 -254q28 -33 45.5 -50.5t33.5 -23.5t38 -6v-23q-13 -4 -26 -5t-25 -1zM365 870q20 1 41 -7t34 -22q-28 -36 -71.5 -66.5t-99.5 -50.5l-11 19q41 28 65 60.5
t42 66.5z" />
    <glyph glyph-name="racute" unicode="&#x155;" horiz-adv-x="391" 
d="M49 0v23q23 1 36 6t18.5 21t5.5 51v229q0 26 -8 34t-22 8q-11 0 -21.5 -2.5t-21.5 -7.5l-10 23l161 75l6 -6q-2 -9 -4.5 -38.5t-2.5 -64.5h2q41 61 90.5 82t103.5 17q8 -74 0 -148h-23q-4 41 -18.5 57.5t-40.5 16.5q-33 0 -59 -14t-52 -46v-215q0 -35 7 -51t27.5 -21
t60.5 -6v-23h-235zM285 734q18 1 39.5 -6.5t34.5 -22.5q-22 -45 -64 -91.5t-88 -75.5l-11 19q35 38 57.5 85.5t31.5 91.5z" />
    <glyph glyph-name="uni0156" unicode="&#x156;" horiz-adv-x="679" 
d="M634 -6q-41 0 -68 11t-46 29t-36 39l-206 253q-13 16 -19.5 20.5t-17.5 5.5v30q96 -8 150 27t54 107q0 49 -22 74.5t-57 34.5t-74 9q-36 0 -53.5 -11.5t-17.5 -57.5v-465q0 -34 7.5 -50t27.5 -21t59 -6v-23h-249v23q27 1 42.5 6t21.5 21t6 50v465q0 35 -7.5 50.5
t-27.5 20.5t-60 6v23h95q69 0 109 2.5t74 2.5q114 0 167.5 -41.5t53.5 -105.5q0 -66 -50.5 -109t-128.5 -55v-2l207 -254q28 -33 45.5 -50.5t33.5 -23.5t38 -6v-23q-13 -4 -26 -5t-25 -1zM414 -40q8 -16 10.5 -30.5t2.5 -27.5q0 -35 -16 -62.5t-39.5 -44.5t-48.5 -21v22
q17 14 26 34.5t9 37.5q0 31 -11 53q14 16 30 26t37 13z" />
    <glyph glyph-name="uni0157" unicode="&#x157;" horiz-adv-x="391" 
d="M49 0v23q23 1 36 6t18.5 21t5.5 51v229q0 26 -8 34t-22 8q-11 0 -21.5 -2.5t-21.5 -7.5l-10 23l161 75l6 -6q-2 -9 -4.5 -38.5t-2.5 -64.5h2q41 61 90.5 82t103.5 17q8 -74 0 -148h-23q-4 41 -18.5 57.5t-40.5 16.5q-33 0 -59 -14t-52 -46v-215q0 -35 7 -51t27.5 -21
t60.5 -6v-23h-235zM186 -40q8 -16 10.5 -30.5t2.5 -27.5q0 -35 -16 -62.5t-39.5 -44.5t-48.5 -21v22q17 14 26 34.5t9 37.5q0 31 -11 53q14 16 30 26t37 13z" />
    <glyph glyph-name="Rcaron" unicode="&#x158;" horiz-adv-x="679" 
d="M634 -6q-41 0 -68 11t-46 29t-36 39l-206 253q-13 16 -19.5 20.5t-17.5 5.5v30q96 -8 150 27t54 107q0 49 -22 74.5t-57 34.5t-74 9q-36 0 -53.5 -11.5t-17.5 -57.5v-465q0 -34 7.5 -50t27.5 -21t59 -6v-23h-249v23q27 1 42.5 6t21.5 21t6 50v465q0 35 -7.5 50.5
t-27.5 20.5t-60 6v23h95q69 0 109 2.5t74 2.5q114 0 167.5 -41.5t53.5 -105.5q0 -66 -50.5 -109t-128.5 -55v-2l207 -254q28 -33 45.5 -50.5t33.5 -23.5t38 -6v-23q-13 -4 -26 -5t-25 -1zM417 871l19 -9q-33 -33 -65 -70.5t-62 -77.5h-2q-30 40 -61.5 77.5t-65.5 70.5l19 9
q57 -23 114 -69q26 22 53 40t51 29z" />
    <glyph glyph-name="rcaron" unicode="&#x159;" horiz-adv-x="391" 
d="M49 0v23q23 1 36 6t18.5 21t5.5 51v229q0 26 -8 34t-22 8q-11 0 -21.5 -2.5t-21.5 -7.5l-10 23l161 75l6 -6q-2 -9 -4.5 -38.5t-2.5 -64.5h2q41 61 90.5 82t103.5 17q8 -74 0 -148h-23q-4 41 -18.5 57.5t-40.5 16.5q-33 0 -59 -14t-52 -46v-215q0 -35 7 -51t27.5 -21
t60.5 -6v-23h-235zM335 724l19 -9q-73 -93 -126 -207h-2q-52 114 -126 207l19 9q61 -42 112 -108q26 32 51 59.5t53 48.5z" />
    <glyph glyph-name="Sacute" unicode="&#x15a;" horiz-adv-x="549" 
d="M262 -15q-28 0 -62 6.5t-64.5 20.5t-50 38.5t-19.5 60.5q0 20 5 42t13 36h23q4 -76 50 -120t117 -44q49 0 78.5 18t43 46.5t13.5 60.5q0 46 -23 75.5t-59.5 50t-77 39t-77 41.5t-59.5 57t-23 86q0 54 27 94.5t76 63.5t115 23q58 0 95.5 -9t60.5 -18v-145h-23
q-6 64 -38 98t-102 34q-49 0 -79.5 -15.5t-44 -40t-13.5 -51.5q0 -40 23 -66t59.5 -45t78 -38t78 -44t59.5 -62t23 -94q0 -62 -28.5 -106.5t-79 -68.5t-115.5 -24zM350 870q20 1 41 -7t34 -22q-28 -36 -71.5 -66.5t-99.5 -50.5l-11 19q41 28 65 60.5t42 66.5z" />
    <glyph glyph-name="sacute" unicode="&#x15b;" horiz-adv-x="411" 
d="M191 -15q-71 0 -109 27t-38 69q0 15 6 33.5t21 36.5h23q1 -64 27 -98t82 -34q50 0 74 24t24 55q0 28 -17.5 46t-45 31.5t-58.5 26t-58.5 28t-45 38.5t-17.5 58q0 55 44 92t123 37q31 0 63 -5.5t60 -21.5v-115h-23q-7 59 -38 83.5t-73 24.5q-41 0 -62 -18t-21 -47
q0 -27 17.5 -44.5t45 -30.5t58 -25.5t58 -29t45 -41t17.5 -61.5q0 -67 -52 -103t-130 -36zM265 734q18 1 39.5 -6.5t34.5 -22.5q-22 -45 -64 -91.5t-88 -75.5l-11 19q35 38 57.5 85.5t31.5 91.5z" />
    <glyph glyph-name="Scircumflex" unicode="&#x15c;" horiz-adv-x="549" 
d="M262 -15q-28 0 -62 6.5t-64.5 20.5t-50 38.5t-19.5 60.5q0 20 5 42t13 36h23q4 -76 50 -120t117 -44q49 0 78.5 18t43 46.5t13.5 60.5q0 46 -23 75.5t-59.5 50t-77 39t-77 41.5t-59.5 57t-23 86q0 54 27 94.5t76 63.5t115 23q58 0 95.5 -9t60.5 -18v-145h-23
q-6 64 -38 98t-102 34q-49 0 -79.5 -15.5t-44 -40t-13.5 -51.5q0 -40 23 -66t59.5 -45t78 -38t78 -44t59.5 -62t23 -94q0 -62 -28.5 -106.5t-79 -68.5t-115.5 -24zM402 724q-28 11 -57 29t-56 40q-27 -22 -53.5 -40t-51.5 -29l-19 9q34 33 65.5 70.5t61.5 77.5h2
q30 -40 62 -77.5t65 -70.5z" />
    <glyph glyph-name="scircumflex" unicode="&#x15d;" horiz-adv-x="411" 
d="M191 -15q-71 0 -109 27t-38 69q0 15 6 33.5t21 36.5h23q1 -64 27 -98t82 -34q50 0 74 24t24 55q0 28 -17.5 46t-45 31.5t-58.5 26t-58.5 28t-45 38.5t-17.5 58q0 55 44 92t123 37q31 0 63 -5.5t60 -21.5v-115h-23q-7 59 -38 83.5t-73 24.5q-41 0 -62 -18t-21 -47
q0 -27 17.5 -44.5t45 -30.5t58 -25.5t58 -29t45 -41t17.5 -61.5q0 -67 -52 -103t-130 -36zM315 518q-31 21 -59 49t-53 60q-25 -32 -50.5 -60t-53.5 -49l-19 9q37 47 68.5 99t57.5 108h2q26 -56 57.5 -108t68.5 -99z" />
    <glyph glyph-name="Scedilla" unicode="&#x15e;" horiz-adv-x="549" 
d="M262 -15q-28 0 -62 6.5t-64.5 20.5t-50 38.5t-19.5 60.5q0 20 5 42t13 36h23q4 -76 50 -120t117 -44q49 0 78.5 18t43 46.5t13.5 60.5q0 46 -23 75.5t-59.5 50t-77 39t-77 41.5t-59.5 57t-23 86q0 54 27 94.5t76 63.5t115 23q58 0 95.5 -9t60.5 -18v-145h-23
q-6 64 -38 98t-102 34q-49 0 -79.5 -15.5t-44 -40t-13.5 -51.5q0 -40 23 -66t59.5 -45t78 -38t78 -44t59.5 -62t23 -94q0 -62 -28.5 -106.5t-79 -68.5t-115.5 -24zM285 -58q41 -9 65 -34t24 -59q0 -33 -23.5 -58.5t-65.5 -25.5q-48 0 -78 35l9 14q41 -19 67.5 -11t26.5 33
q0 19 -17 33t-51 20l28 124h31z" />
    <glyph glyph-name="scedilla" unicode="&#x15f;" horiz-adv-x="411" 
d="M191 -15q-71 0 -109 27t-38 69q0 15 6 33.5t21 36.5h23q1 -64 27 -98t82 -34q50 0 74 24t24 55q0 28 -17.5 46t-45 31.5t-58.5 26t-58.5 28t-45 38.5t-17.5 58q0 55 44 92t123 37q31 0 63 -5.5t60 -21.5v-115h-23q-7 59 -38 83.5t-73 24.5q-41 0 -62 -18t-21 -47
q0 -27 17.5 -44.5t45 -30.5t58 -25.5t58 -29t45 -41t17.5 -61.5q0 -67 -52 -103t-130 -36zM226 -58q41 -9 65 -34t24 -59q0 -33 -23.5 -58.5t-65.5 -25.5q-48 0 -78 35l9 14q41 -19 67.5 -11t26.5 33q0 19 -17 33t-51 20l28 124h31z" />
    <glyph glyph-name="Scaron" unicode="&#x160;" horiz-adv-x="549" 
d="M262 -15q-28 0 -62 6.5t-64.5 20.5t-50 38.5t-19.5 60.5q0 20 5 42t13 36h23q4 -76 50 -120t117 -44q49 0 78.5 18t43 46.5t13.5 60.5q0 46 -23 75.5t-59.5 50t-77 39t-77 41.5t-59.5 57t-23 86q0 54 27 94.5t76 63.5t115 23q58 0 95.5 -9t60.5 -18v-145h-23
q-6 64 -38 98t-102 34q-49 0 -79.5 -15.5t-44 -40t-13.5 -51.5q0 -40 23 -66t59.5 -45t78 -38t78 -44t59.5 -62t23 -94q0 -62 -28.5 -106.5t-79 -68.5t-115.5 -24zM402 871l19 -9q-33 -33 -65 -70.5t-62 -77.5h-2q-30 40 -61.5 77.5t-65.5 70.5l19 9q57 -23 114 -69
q26 22 53 40t51 29z" />
    <glyph glyph-name="scaron" unicode="&#x161;" horiz-adv-x="411" 
d="M191 -15q-71 0 -109 27t-38 69q0 15 6 33.5t21 36.5h23q1 -64 27 -98t82 -34q50 0 74 24t24 55q0 28 -17.5 46t-45 31.5t-58.5 26t-58.5 28t-45 38.5t-17.5 58q0 55 44 92t123 37q31 0 63 -5.5t60 -21.5v-115h-23q-7 59 -38 83.5t-73 24.5q-41 0 -62 -18t-21 -47
q0 -27 17.5 -44.5t45 -30.5t58 -25.5t58 -29t45 -41t17.5 -61.5q0 -67 -52 -103t-130 -36zM315 724l19 -9q-73 -93 -126 -207h-2q-52 114 -126 207l19 9q61 -42 112 -108q26 32 51 59.5t53 48.5z" />
    <glyph glyph-name="uni0162" unicode="&#x162;" horiz-adv-x="621" 
d="M41 665h539v-156h-23q-2 35 -11 62t-34 42.5t-76 15.5h-83v-529q0 -34 7.5 -50t28 -21t59.5 -6v-23h-250v23q27 1 42.5 6t21.5 21t6 50v529h-84q-50 0 -75 -15.5t-34 -42.5t-11 -62h-23v156zM321 -58q41 -9 65 -34t24 -59q0 -33 -23.5 -58.5t-65.5 -25.5q-48 0 -78 35
l9 14q41 -19 67.5 -11t26.5 33q0 19 -17 33t-51 20l28 124h31z" />
    <glyph glyph-name="uni0163" unicode="&#x163;" horiz-adv-x="363" 
d="M322 87l16 -16q-24 -36 -55 -61t-81 -25q-40 0 -63.5 16t-33.5 42.5t-10 57.5v298h-69v41h69v137l85 15q-3 -38 -4 -76t-1 -76h148v-41h-117q-17 0 -24 -7t-7 -24v-246q0 -32 11.5 -55t47.5 -23q21 0 43 10.5t45 32.5zM224 -58q41 -9 65 -34t24 -59q0 -33 -23.5 -58.5
t-65.5 -25.5q-48 0 -78 35l9 14q41 -19 67.5 -11t26.5 33q0 19 -17 33t-51 20l28 124h31z" />
    <glyph glyph-name="Tcaron" unicode="&#x164;" horiz-adv-x="621" 
d="M41 665h539v-156h-23q-2 35 -11 62t-34 42.5t-76 15.5h-83v-529q0 -34 7.5 -50t28 -21t59.5 -6v-23h-250v23q27 1 42.5 6t21.5 21t6 50v529h-84q-50 0 -75 -15.5t-34 -42.5t-11 -62h-23v156zM420 871l19 -9q-33 -33 -65 -70.5t-62 -77.5h-2q-30 40 -61.5 77.5t-65.5 70.5
l19 9q57 -23 114 -69q26 22 53 40t51 29z" />
    <glyph glyph-name="tcaron" unicode="&#x165;" horiz-adv-x="342" 
d="M322 87l16 -16q-24 -36 -55 -61t-81 -25q-40 0 -63.5 16t-33.5 42.5t-10 57.5v298h-69v41h69v137l85 15q-3 -38 -4 -76t-1 -76h148v-41h-117q-17 0 -24 -7t-7 -24v-246q0 -32 11.5 -55t47.5 -23q21 0 43 10.5t45 32.5zM241 788q33 17 68 2q-1 -51 -13 -110.5t-40 -106.5
h-23q14 50 15 109.5t-7 105.5z" />
    <glyph glyph-name="Tbar" unicode="&#x166;" horiz-adv-x="621" 
d="M483 360h-130v-260q0 -34 7.5 -50t28 -21t59.5 -6v-23h-250v23q27 1 42.5 6t21.5 21t6 50v260h-129v36h129v233h-84q-50 0 -75 -15.5t-34 -42.5t-11 -62h-23v156h539v-156h-23q-2 35 -11 62t-34 42.5t-76 15.5h-83v-233h130v-36z" />
    <glyph glyph-name="tbar" unicode="&#x167;" horiz-adv-x="363" 
d="M322 87l16 -16q-24 -36 -55 -61t-81 -25q-40 0 -63.5 16t-33.5 42.5t-10 57.5v167h-69v36h69v95h-69v41h69v137l85 15q-3 -38 -4 -76t-1 -76h148v-41h-117q-17 0 -24 -7t-7 -24v-64h147v-36h-147v-146q0 -32 11.5 -55t47.5 -23q21 0 43 10.5t45 32.5z" />
    <glyph glyph-name="Utilde" unicode="&#x168;" horiz-adv-x="774" 
d="M301 -15q-86 0 -129.5 47.5t-43.5 129.5v403q0 35 -7 50.5t-25.5 20.5t-53.5 6v23h241v-23q-27 -1 -42 -6t-21.5 -20.5t-6.5 -50.5v-380q0 -58 24.5 -96.5t88.5 -38.5q47 0 89 21t74.5 58.5t51 86.5t18.5 106v243q0 35 -7 50.5t-27.5 20.5t-59.5 6v23h244v-23
q-27 -1 -42 -6t-21.5 -20.5t-6.5 -50.5v-466q0 -34 6.5 -49.5t23 -20.5t45.5 -6v-23h-142q-6 16 -9 38.5t-3 61.5v85h-2q-39 -94 -102.5 -147t-154.5 -53zM306 791q-21 0 -36 -13.5t-27 -44.5l-22 5q16 63 42 88t61 25q30 0 54.5 -14.5t46.5 -29t44 -14.5q21 0 36 13.5
t27 44.5l23 -5q-16 -63 -42.5 -88t-61.5 -25q-29 0 -54 14.5t-47 29t-44 14.5z" />
    <glyph glyph-name="utilde" unicode="&#x169;" horiz-adv-x="567" 
d="M542 77l10 -23l-162 -75l-6 6q2 9 4.5 35.5t2.5 56.5h-2q-39 -40 -80.5 -66t-93.5 -26q-63 0 -87.5 32t-24.5 83v230q0 26 -8.5 34t-22.5 8q-20 0 -43 -10l-10 23l162 75l6 -6q-1 -8 -2.5 -42.5t-1.5 -80.5v-206q0 -35 14.5 -55t52.5 -20q32 0 66.5 13.5t71.5 43.5v223
q0 26 -8 34t-23 8q-13 0 -27 -4.5t-25 -9.5l-10 23l171 79l6 -6q-1 -8 -2.5 -42.5t-1.5 -80.5v-219q0 -28 8.5 -36t22.5 -8q22 0 43 9zM219 600q-22 0 -34.5 -13.5t-20.5 -45.5l-23 5q7 63 29.5 88t57.5 25q30 0 52 -14.5t41.5 -29.5t40.5 -15q22 0 35 14t20 45l23 -5
q-7 -63 -29.5 -88t-57.5 -25q-29 0 -51.5 15t-41.5 29.5t-41 14.5z" />
    <glyph glyph-name="Umacron" unicode="&#x16a;" horiz-adv-x="774" 
d="M301 -15q-86 0 -129.5 47.5t-43.5 129.5v403q0 35 -7 50.5t-25.5 20.5t-53.5 6v23h241v-23q-27 -1 -42 -6t-21.5 -20.5t-6.5 -50.5v-380q0 -58 24.5 -96.5t88.5 -38.5q47 0 89 21t74.5 58.5t51 86.5t18.5 106v243q0 35 -7 50.5t-27.5 20.5t-59.5 6v23h244v-23
q-27 -1 -42 -6t-21.5 -20.5t-6.5 -50.5v-466q0 -34 6.5 -49.5t23 -20.5t45.5 -6v-23h-142q-6 16 -9 38.5t-3 61.5v85h-2q-39 -94 -102.5 -147t-154.5 -53zM218 823h328v-59h-328v59z" />
    <glyph glyph-name="umacron" unicode="&#x16b;" horiz-adv-x="567" 
d="M542 77l10 -23l-162 -75l-6 6q2 9 4.5 35.5t2.5 56.5h-2q-39 -40 -80.5 -66t-93.5 -26q-63 0 -87.5 32t-24.5 83v230q0 26 -8.5 34t-22.5 8q-20 0 -43 -10l-10 23l162 75l6 -6q-1 -8 -2.5 -42.5t-1.5 -80.5v-206q0 -35 14.5 -55t52.5 -20q32 0 66.5 13.5t71.5 43.5v223
q0 26 -8 34t-23 8q-13 0 -27 -4.5t-25 -9.5l-10 23l171 79l6 -6q-1 -8 -2.5 -42.5t-1.5 -80.5v-219q0 -28 8.5 -36t22.5 -8q22 0 43 9zM156 633h266v-50h-266v50z" />
    <glyph glyph-name="Ubreve" unicode="&#x16c;" horiz-adv-x="774" 
d="M301 -15q-86 0 -129.5 47.5t-43.5 129.5v403q0 35 -7 50.5t-25.5 20.5t-53.5 6v23h241v-23q-27 -1 -42 -6t-21.5 -20.5t-6.5 -50.5v-380q0 -58 24.5 -96.5t88.5 -38.5q47 0 89 21t74.5 58.5t51 86.5t18.5 106v243q0 35 -7 50.5t-27.5 20.5t-59.5 6v23h244v-23
q-27 -1 -42 -6t-21.5 -20.5t-6.5 -50.5v-466q0 -34 6.5 -49.5t23 -20.5t45.5 -6v-23h-142q-6 16 -9 38.5t-3 61.5v85h-2q-39 -94 -102.5 -147t-154.5 -53zM492 870l19 -9q-8 -70 -44 -105t-84 -35q-49 0 -85 35t-44 105l19 9q20 -46 49 -63t61 -17t61 17t48 63z" />
    <glyph glyph-name="ubreve" unicode="&#x16d;" horiz-adv-x="567" 
d="M542 77l10 -23l-162 -75l-6 6q2 9 4.5 35.5t2.5 56.5h-2q-39 -40 -80.5 -66t-93.5 -26q-63 0 -87.5 32t-24.5 83v230q0 26 -8.5 34t-22.5 8q-20 0 -43 -10l-10 23l162 75l6 -6q-1 -8 -2.5 -42.5t-1.5 -80.5v-206q0 -35 14.5 -55t52.5 -20q32 0 66.5 13.5t71.5 43.5v223
q0 26 -8 34t-23 8q-13 0 -27 -4.5t-25 -9.5l-10 23l171 79l6 -6q-1 -8 -2.5 -42.5t-1.5 -80.5v-219q0 -28 8.5 -36t22.5 -8q22 0 43 9zM396 703l19 -9q-7 -89 -44 -127t-82 -38q-44 0 -81 38t-44 127l19 9q12 -44 31 -68t40 -33t40 -9q29 0 56 22t46 88z" />
    <glyph glyph-name="Uring" unicode="&#x16e;" horiz-adv-x="774" 
d="M301 -15q-86 0 -129.5 47.5t-43.5 129.5v403q0 35 -7 50.5t-25.5 20.5t-53.5 6v23h241v-23q-27 -1 -42 -6t-21.5 -20.5t-6.5 -50.5v-380q0 -58 24.5 -96.5t88.5 -38.5q47 0 89 21t74.5 58.5t51 86.5t18.5 106v243q0 35 -7 50.5t-27.5 20.5t-59.5 6v23h244v-23
q-27 -1 -42 -6t-21.5 -20.5t-6.5 -50.5v-466q0 -34 6.5 -49.5t23 -20.5t45.5 -6v-23h-142q-6 16 -9 38.5t-3 61.5v85h-2q-39 -94 -102.5 -147t-154.5 -53zM381 693q-44 0 -75 27.5t-31 68.5t31 71t78 30q44 0 75.5 -27.5t31.5 -68.5t-31.5 -71t-78.5 -30zM384 728
q19 0 34.5 15t15.5 48t-16 49t-36 16q-19 0 -34.5 -15.5t-15.5 -47.5q0 -34 16.5 -49.5t35.5 -15.5z" />
    <glyph glyph-name="uring" unicode="&#x16f;" horiz-adv-x="567" 
d="M542 77l10 -23l-162 -75l-6 6q2 9 4.5 35.5t2.5 56.5h-2q-39 -40 -80.5 -66t-93.5 -26q-63 0 -87.5 32t-24.5 83v230q0 26 -8.5 34t-22.5 8q-20 0 -43 -10l-10 23l162 75l6 -6q-1 -8 -2.5 -42.5t-1.5 -80.5v-206q0 -35 14.5 -55t52.5 -20q32 0 66.5 13.5t71.5 43.5v223
q0 26 -8 34t-23 8q-13 0 -27 -4.5t-25 -9.5l-10 23l171 79l6 -6q-1 -8 -2.5 -42.5t-1.5 -80.5v-219q0 -28 8.5 -36t22.5 -8q22 0 43 9zM289 517q-46 0 -75 28.5t-29 69.5t29.5 70t74.5 29q46 0 75 -28.5t29 -69.5t-30 -70t-74 -29zM291 551q20 0 34.5 16.5t14.5 45.5
q0 35 -17.5 50.5t-36.5 15.5t-33.5 -16.5t-14.5 -45.5q0 -34 17 -50t36 -16z" />
    <glyph glyph-name="Uhungarumlaut" unicode="&#x170;" horiz-adv-x="774" 
d="M301 -15q-86 0 -129.5 47.5t-43.5 129.5v403q0 35 -7 50.5t-25.5 20.5t-53.5 6v23h241v-23q-27 -1 -42 -6t-21.5 -20.5t-6.5 -50.5v-380q0 -58 24.5 -96.5t88.5 -38.5q47 0 89 21t74.5 58.5t51 86.5t18.5 106v243q0 35 -7 50.5t-27.5 20.5t-59.5 6v23h244v-23
q-27 -1 -42 -6t-21.5 -20.5t-6.5 -50.5v-466q0 -34 6.5 -49.5t23 -20.5t45.5 -6v-23h-142q-6 16 -9 38.5t-3 61.5v85h-2q-39 -94 -102.5 -147t-154.5 -53zM531 880q20 1 41 -7t33 -22q-28 -36 -71.5 -66.5t-99.5 -50.5l-11 19q42 28 66 60.5t42 66.5zM390 880q20 1 40.5 -7
t33.5 -22q-28 -36 -71.5 -66.5t-99.5 -50.5l-11 19q41 28 65.5 60.5t42.5 66.5z" />
    <glyph glyph-name="uhungarumlaut" unicode="&#x171;" horiz-adv-x="567" 
d="M542 77l10 -23l-162 -75l-6 6q2 9 4.5 35.5t2.5 56.5h-2q-39 -40 -80.5 -66t-93.5 -26q-63 0 -87.5 32t-24.5 83v230q0 26 -8.5 34t-22.5 8q-20 0 -43 -10l-10 23l162 75l6 -6q-1 -8 -2.5 -42.5t-1.5 -80.5v-206q0 -35 14.5 -55t52.5 -20q32 0 66.5 13.5t71.5 43.5v223
q0 26 -8 34t-23 8q-13 0 -27 -4.5t-25 -9.5l-10 23l171 79l6 -6q-1 -8 -2.5 -42.5t-1.5 -80.5v-219q0 -28 8.5 -36t22.5 -8q22 0 43 9zM420 734q17 1 39 -6.5t34 -22.5q-20 -49 -58 -93t-85 -74l-11 21q32 38 52 82.5t29 92.5zM258 734q17 1 39 -6.5t33 -22.5
q-19 -49 -57 -93t-85 -74l-11 19q32 39 51.5 84t29.5 93z" />
    <glyph glyph-name="Uogonek" unicode="&#x172;" horiz-adv-x="774" 
d="M301 -15q-86 0 -129.5 47.5t-43.5 129.5v403q0 35 -7 50.5t-25.5 20.5t-53.5 6v23h241v-23q-27 -1 -42 -6t-21.5 -20.5t-6.5 -50.5v-380q0 -58 24.5 -96.5t88.5 -38.5q47 0 89 21t74.5 58.5t51 86.5t18.5 106v243q0 35 -7 50.5t-27.5 20.5t-59.5 6v23h244v-23
q-27 -1 -42 -6t-21.5 -20.5t-6.5 -50.5v-466q0 -34 6.5 -49.5t23 -20.5t45.5 -6v-23h-142q-6 16 -9 38.5t-3 61.5v85h-2q-39 -94 -102.5 -147t-154.5 -53zM565 -235q-37 0 -64.5 20t-27.5 64q0 36 17.5 64.5t42.5 49.5t48 35v2h90q-43 0 -70.5 -22t-40.5 -52.5t-13 -54.5
q0 -38 27 -52t61 -4l11 -16q-16 -19 -37.5 -26.5t-43.5 -7.5z" />
    <glyph glyph-name="uogonek" unicode="&#x173;" horiz-adv-x="566" 
d="M399 -235q-37 0 -61.5 22t-24.5 59q0 29 15 55t38 47t48 35v3q-10 14 -16.5 38.5t-6.5 52.5h-2q-38 -40 -80 -66t-94 -26q-63 0 -87.5 32t-24.5 83l1 230q0 28 -8.5 36.5t-22.5 8.5q-11 0 -22 -2.5t-22 -7.5l-10 23l162 75l6 -6q-1 -8 -2.5 -43t-1.5 -83v-206
q0 -35 14.5 -55t52.5 -20q32 0 66.5 13.5t71.5 43.5v223q0 28 -8 36.5t-23 8.5q-13 0 -27.5 -4.5t-25.5 -9.5l-10 23l172 79l6 -6q-1 -8 -2.5 -43t-1.5 -83v-219q0 -28 8 -36t22 -8q22 0 43 9l10 -23l-77 -53q-52 -36 -71.5 -70.5t-19.5 -65.5q0 -35 26.5 -46.5t60.5 -3.5
l11 -16q-16 -19 -39.5 -26.5t-42.5 -7.5z" />
    <glyph glyph-name="Wcircumflex" unicode="&#x174;" horiz-adv-x="955" 
d="M226 -8q-4 26 -7.5 43.5t-10.5 43.5l-122 486q-8 35 -16.5 50.5t-21 20.5t-32.5 6v23h234l-1 -23q-40 -1 -58 -6.5t-20 -21.5t6 -49l104 -412h2l188 520h51q10 -28 19 -54.5t19 -53.5l157 -412h3l107 412q19 73 -78 77l1 23h191v-23q-46 -4 -66 -77l-129 -486
q-7 -26 -10.5 -43.5t-7.5 -43.5h-52q-5 26 -11 43.5t-16 43.5l-173 463h-2l-171 -463q-10 -28 -14.5 -44.5t-10.5 -42.5h-52zM604 724q-28 11 -57 29t-56 40q-27 -22 -53.5 -40t-51.5 -29l-19 9q34 33 65.5 70.5t61.5 77.5h2q30 -40 62 -77.5t65 -70.5z" />
    </font>
</defs>
</svg>
