<svg width="46" height="41" viewBox="0 0 46 41" fill="none" xmlns="http://www.w3.org/2000/svg">
<path d="M45.0282 0.625745C44.7313 0.385294 44.3843 0.214515 44.0129 0.125961C43.6414 0.0374076 43.2548 0.0333305 42.8816 0.114031L23 4.59153L3.11844 0.0628594C2.73928 -0.02288 2.34557 -0.0208839 1.96729 0.0686947C1.589 0.158273 1.23612 0.333074 0.935486 0.579792C0.634854 0.826511 0.3944 1.13865 0.232424 1.49244C0.0704489 1.84623 -0.00877869 2.23236 0.000771448 2.62143V33.836C-0.013666 34.4274 0.17706 35.0056 0.540485 35.4721C0.90391 35.9386 1.41757 36.2646 1.99404 36.3946L22.4378 41H23.5622L44.006 36.3946C44.5824 36.2646 45.0961 35.9386 45.4595 35.4721C45.8229 35.0056 46.0137 34.4274 45.9992 33.836V2.62143C45.9975 2.23712 45.9092 1.85815 45.7411 1.51265C45.573 1.16716 45.3293 0.864016 45.0282 0.625745ZM5.11171 5.81964L20.4445 9.27372V35.2432L5.11171 31.7891V5.81964ZM40.8883 31.7891L25.5555 35.2432V9.27372L40.8883 5.81964V31.7891Z" fill="black"/>
</svg>
