<svg width="41" height="41" viewBox="0 0 41 41" fill="none" xmlns="http://www.w3.org/2000/svg">
<path d="M20.5 0C9.17924 0 0 9.17924 0 20.5C0 31.8208 9.17924 41 20.5 41C31.8208 41 41 31.8208 41 20.5C41 9.17924 31.8208 0 20.5 0ZM20.5 37.5223C11.1011 37.5223 3.47768 29.8989 3.47768 20.5C3.47768 11.1011 11.1011 3.47768 20.5 3.47768C29.8989 3.47768 37.5223 11.1011 37.5223 20.5C37.5223 29.8989 29.8989 37.5223 20.5 37.5223Z" fill="black"/>
<path d="M28.4941 26.2931L21.9689 21.5753V10.25C21.9689 10.0486 21.8042 9.88391 21.6028 9.88391H19.4018C19.2005 9.88391 19.0358 10.0486 19.0358 10.25V22.852C19.0358 22.971 19.0907 23.0808 19.1868 23.1494L26.7553 28.6679C26.92 28.7869 27.1488 28.7503 27.2678 28.5902L28.5765 26.8056C28.6955 26.6363 28.6589 26.4075 28.4941 26.2931V26.2931Z" fill="black"/>
</svg>
