<svg width="29" height="30" viewBox="0 0 29 30" fill="none" xmlns="http://www.w3.org/2000/svg">
<circle cx="14" cy="15" r="10.5" stroke="#818181" stroke-width="3"/>
<path d="M15.7837 17.6196C15.7837 17.2303 15.6462 16.9023 15.3711 16.6357C15.1003 16.3691 14.6411 16.1279 13.9937 15.9121C13.0923 15.637 12.4342 15.2795 12.0195 14.8394C11.609 14.395 11.4038 13.8322 11.4038 13.1509C11.4038 12.4569 11.6048 11.8877 12.0068 11.4434C12.4131 10.999 12.9696 10.7345 13.6763 10.6499V9.25977H14.6221V10.6562C15.333 10.7536 15.8853 11.0519 16.2788 11.5513C16.6766 12.0506 16.8755 12.734 16.8755 13.6016H15.7075C15.7075 13.0049 15.5658 12.5309 15.2822 12.1797C14.9987 11.8285 14.6157 11.6528 14.1333 11.6528C13.6297 11.6528 13.2446 11.784 12.978 12.0464C12.7114 12.3045 12.5781 12.6663 12.5781 13.1318C12.5781 13.5635 12.7178 13.9084 12.9971 14.1665C13.2806 14.4204 13.744 14.6532 14.3872 14.8647C15.0347 15.0721 15.5382 15.3027 15.8979 15.5566C16.2619 15.8063 16.5285 16.0983 16.6978 16.4326C16.8713 16.7669 16.958 17.1584 16.958 17.6069C16.958 18.3221 16.7422 18.8976 16.3105 19.3335C15.8831 19.7694 15.2822 20.0275 14.5078 20.1079V21.3203H13.5684V20.1079C12.7812 20.036 12.1634 19.7567 11.7148 19.27C11.2705 18.7791 11.0483 18.1147 11.0483 17.2769H12.2227C12.2227 17.8651 12.3771 18.3179 12.686 18.6353C12.995 18.9526 13.4329 19.1113 14 19.1113C14.5544 19.1113 14.9902 18.978 15.3076 18.7114C15.625 18.4448 15.7837 18.0809 15.7837 17.6196Z" fill="#818181"/>
</svg>
