<svg width="512" height="512" viewBox="0 0 512 512" fill="none" xmlns="http://www.w3.org/2000/svg">
<g clip-path="url(#clip0)">
<path d="M32 34.8374C-8.23467 76.6294 -1.22705e-06 121.024 -1.22705e-06 255.893C-1.22705e-06 367.893 -19.5413 480.171 82.7307 506.603C114.667 514.816 397.632 514.816 429.525 506.56C472.107 495.573 506.752 461.035 511.488 400.811C512.149 392.405 512.149 119.531 511.467 110.955C506.432 46.8054 466.944 9.83476 414.912 2.34676C402.987 0.618761 400.597 0.106761 339.413 9.45971e-05C122.389 0.106761 74.816 -9.55724 32 34.8374V34.8374Z" fill="url(#paint0_linear)"/>
<path d="M256.004 108.143C195.383 108.143 137.818 102.754 115.83 159.14C106.748 182.428 108.067 212.673 108.067 255.979C108.067 293.981 106.848 329.697 115.83 352.802C137.768 409.221 195.8 403.816 255.97 403.816C314.02 403.816 373.872 409.855 396.127 352.802C405.226 329.28 403.89 299.486 403.89 255.979C403.89 198.226 407.079 160.941 379.048 132.949C350.666 104.589 312.283 108.143 255.937 108.143H256.004ZM242.748 134.784C369.198 134.584 385.292 120.537 376.41 315.668C373.255 384.681 320.664 377.108 256.02 377.108C138.152 377.108 134.763 373.738 134.763 255.912C134.763 136.719 144.112 134.851 242.748 134.751V134.784ZM334.972 159.323C325.172 159.323 317.225 167.264 317.225 177.056C317.225 186.849 325.172 194.789 334.972 194.789C344.772 194.789 352.719 186.849 352.719 177.056C352.719 167.264 344.772 159.323 334.972 159.323V159.323ZM256.004 180.059C214.048 180.059 180.04 214.057 180.04 255.979C180.04 297.901 214.048 331.883 256.004 331.883C297.959 331.883 331.951 297.901 331.951 255.979C331.951 214.057 297.959 180.059 256.004 180.059V180.059ZM256.004 206.7C321.199 206.7 321.282 305.258 256.004 305.258C190.825 305.258 190.725 206.7 256.004 206.7Z" fill="white"/>
</g>
<defs>
<linearGradient id="paint0_linear" x1="32.9818" y1="479.298" x2="508.832" y2="67.4556" gradientUnits="userSpaceOnUse">
<stop stop-color="#FFDD55"/>
<stop offset="0.5" stop-color="#FF543E"/>
<stop offset="1" stop-color="#C837AB"/>
</linearGradient>
<clipPath id="clip0">
<rect width="512" height="512" fill="white"/>
</clipPath>
</defs>
</svg>
