<svg width="390" height="388" viewBox="0 0 390 388" fill="none" xmlns="http://www.w3.org/2000/svg">
<g clip-path="url(#clip0)">
<path d="M389.404 330.724C389.404 362.036 364.021 387.417 332.711 387.417H56.693C25.382 387.417 0 362.036 0 330.724V56.693C0 25.382 25.382 0 56.693 0H332.711C364.022 0 389.404 25.382 389.404 56.693V330.724V330.724Z" fill="#FAAB62"/>
<path d="M387.404 329.317C387.404 360.306 362.282 385.427 331.293 385.427H58.11C27.121 385.427 2 360.306 2 329.317V58.1C2 27.111 27.122 1.98999 58.11 1.98999H331.293C362.282 1.98999 387.404 27.112 387.404 58.1V329.317Z" fill="#F7931E"/>
<path d="M194 83C162.519 83 137 108.52 137 139.999C137 171.479 162.519 197 194 197C225.481 197 251 171.479 251 139.999C251 108.52 225.481 83 194 83ZM194 163.562C180.987 163.562 170.437 153.012 170.437 140C170.437 126.987 180.987 116.438 194 116.438C207.013 116.438 217.563 126.987 217.563 140C217.563 153.012 207.013 163.562 194 163.562Z" fill="white"/>
<path d="M214.351 241.994C237.118 237.356 250.761 226.574 251.483 225.995C258.145 220.652 259.216 210.92 253.873 204.257C248.531 197.595 238.8 196.525 232.136 201.867C231.995 201.981 217.443 213.144 193.501 213.16C169.559 213.144 154.7 201.981 154.559 201.867C147.895 196.525 138.164 197.595 132.822 204.257C127.479 210.92 128.55 220.652 135.212 225.995C135.943 226.582 150.15 237.645 173.555 242.174L140.935 276.264C135.007 282.412 135.186 292.201 141.333 298.129C144.334 301.022 148.201 302.46 152.066 302.46C156.117 302.46 160.164 300.877 163.198 297.73L193.502 265.449L226.866 297.939C232.911 303.975 242.7 303.965 248.734 297.922C254.768 291.878 254.761 282.088 248.717 276.054L214.351 241.994Z" fill="white"/>
<path d="M193.501 213.159C193.462 213.159 193.54 213.16 193.501 213.161C193.463 213.16 193.541 213.159 193.501 213.159Z" fill="white"/>
</g>
<defs>
<clipPath id="clip0">
<rect width="389.404" height="387.417" fill="white"/>
</clipPath>
</defs>
</svg>
