<svg width="39" height="30" viewBox="0 0 39 30" fill="none" xmlns="http://www.w3.org/2000/svg">
<path d="M15.5 17.5073C15.5 17.224 15.5802 16.9464 15.7314 16.7068L14.4629 15.9063L15.7314 16.7068L23.2314 4.82111C23.82 3.88841 25.18 3.88841 25.7686 4.82111L33.2686 16.7068C33.4198 16.9464 33.5 17.224 33.5 17.5073V22.9999C33.5 23.8283 32.8284 24.4999 32 24.4999H17C16.1716 24.4999 15.5 23.8283 15.5 22.9999V17.5073Z" stroke="#818181" stroke-width="3"/>
<path d="M6.50001 17.5073C6.50001 17.224 6.58025 16.9464 6.73145 16.7068L5.46289 15.9063L6.73145 16.7068L14.2314 4.82111C14.82 3.88841 16.18 3.88841 16.7686 4.82111L24.2686 16.7068C24.4198 16.9464 24.5 17.224 24.5 17.5073V22.9999C24.5 23.8283 23.8284 24.4999 23 24.4999H8.00001C7.17158 24.4999 6.50001 23.8283 6.50001 22.9999V17.5073Z" stroke="#818181" stroke-width="3"/>
</svg>
