<svg width="64" height="67" viewBox="0 0 64 67" fill="none" xmlns="http://www.w3.org/2000/svg">
<path d="M56 24L34 2L12 24" stroke="black" stroke-width="1.5"/>
<path d="M12.9189 58H11.8291V51.8652H4.5166V58H3.43555V45.2031H4.5166V50.9512H11.8291V45.2031H12.9189V58ZM21.9365 58C21.8311 57.7012 21.7637 57.2588 21.7344 56.6729C21.3652 57.1533 20.8936 57.5254 20.3193 57.7891C19.751 58.0469 19.1475 58.1758 18.5088 58.1758C17.5947 58.1758 16.8535 57.9209 16.2852 57.4111C15.7227 56.9014 15.4414 56.2568 15.4414 55.4775C15.4414 54.5518 15.8252 53.8193 16.5928 53.2803C17.3662 52.7412 18.4414 52.4717 19.8184 52.4717H21.7256V51.3906C21.7256 50.7109 21.5146 50.1777 21.0928 49.791C20.6768 49.3984 20.0674 49.2021 19.2646 49.2021C18.5322 49.2021 17.9258 49.3896 17.4453 49.7646C16.9648 50.1396 16.7246 50.5908 16.7246 51.1182L15.6699 51.1094C15.6699 50.3535 16.0215 49.7002 16.7246 49.1494C17.4277 48.5928 18.292 48.3145 19.3174 48.3145C20.3779 48.3145 21.2129 48.5811 21.8223 49.1143C22.4375 49.6416 22.7539 50.3799 22.7715 51.3291V55.8291C22.7715 56.749 22.8682 57.4375 23.0615 57.8945V58H21.9365ZM18.6318 57.2441C19.335 57.2441 19.9619 57.0742 20.5127 56.7344C21.0693 56.3945 21.4736 55.9404 21.7256 55.3721V53.2803H19.8447C18.7959 53.292 17.9756 53.4854 17.3838 53.8604C16.792 54.2295 16.4961 54.7393 16.4961 55.3896C16.4961 55.9229 16.6924 56.3652 17.085 56.7168C17.4834 57.0684 17.999 57.2441 18.6318 57.2441ZM25.6982 58V48.4902H29.1875C30.3945 48.4902 31.3203 48.707 31.9648 49.1406C32.6094 49.5684 32.9316 50.1982 32.9316 51.0303C32.9316 51.5049 32.7881 51.9297 32.501 52.3047C32.2139 52.6738 31.7949 52.9434 31.2441 53.1133C31.8652 53.2305 32.3633 53.4971 32.7383 53.9131C33.1191 54.3291 33.3096 54.8125 33.3096 55.3633C33.3096 56.2012 32.999 56.8516 32.3779 57.3145C31.7627 57.7715 30.8896 58 29.7588 58H25.6982ZM26.7441 53.623V57.1211H29.7939C30.585 57.1211 31.1943 56.9688 31.6221 56.6641C32.0498 56.3594 32.2637 55.9199 32.2637 55.3457C32.2637 54.8184 32.0498 54.3994 31.6221 54.0889C31.1943 53.7783 30.585 53.623 29.7939 53.623H26.7441ZM26.7441 52.7441H29.4072C31.0596 52.7207 31.8857 52.1582 31.8857 51.0566C31.8857 50.4766 31.6572 50.0547 31.2002 49.791C30.749 49.5215 30.0781 49.3867 29.1875 49.3867H26.7441V52.7441ZM39.3389 58.1758C38.5303 58.1758 37.7979 57.9766 37.1416 57.5781C36.4912 57.1797 35.9844 56.626 35.6211 55.917C35.2578 55.2021 35.0762 54.4023 35.0762 53.5176V53.1396C35.0762 52.2256 35.252 51.4023 35.6035 50.6699C35.9609 49.9375 36.4561 49.3633 37.0889 48.9473C37.7217 48.5254 38.4072 48.3145 39.1455 48.3145C40.2998 48.3145 41.2139 48.71 41.8877 49.501C42.5674 50.2861 42.9072 51.3613 42.9072 52.7266V53.3154H36.1221V53.5176C36.1221 54.5957 36.4297 55.4951 37.0449 56.2158C37.666 56.9307 38.4453 57.2881 39.3828 57.2881C39.9453 57.2881 40.4404 57.1855 40.8682 56.9805C41.3018 56.7754 41.6943 56.4473 42.0459 55.9961L42.7051 56.4971C41.9316 57.6162 40.8096 58.1758 39.3389 58.1758ZM39.1455 49.2109C38.3545 49.2109 37.6865 49.501 37.1416 50.0811C36.6025 50.6611 36.2744 51.4404 36.1572 52.4189H41.8613V52.3047C41.832 51.3906 41.5713 50.6465 41.0791 50.0723C40.5869 49.498 39.9424 49.2109 39.1455 49.2109ZM52.6016 53.3418C52.6016 54.8242 52.2734 56.002 51.6172 56.875C50.9609 57.7422 50.082 58.1758 48.9805 58.1758C47.6797 58.1758 46.6836 57.7188 45.9922 56.8047V61.6562H44.9463V48.4902H45.9219L45.9746 49.835C46.6602 48.8213 47.6533 48.3145 48.9541 48.3145C50.0908 48.3145 50.9814 48.7451 51.626 49.6064C52.2764 50.4678 52.6016 51.6631 52.6016 53.1924V53.3418ZM51.5469 53.1572C51.5469 51.9443 51.2979 50.9863 50.7998 50.2832C50.3018 49.5801 49.6074 49.2285 48.7168 49.2285C48.0723 49.2285 47.5186 49.3838 47.0557 49.6943C46.5928 50.0049 46.2383 50.4561 45.9922 51.0479V55.6094C46.2441 56.1543 46.6045 56.5703 47.0732 56.8574C47.542 57.1445 48.0957 57.2881 48.7344 57.2881C49.6191 57.2881 50.3076 56.9365 50.7998 56.2334C51.2979 55.5244 51.5469 54.499 51.5469 53.1572ZM57.7871 52.3486L60.3535 48.4902H61.6016L58.376 53.1572L61.7422 58H60.5029L57.7959 53.9746L55.0889 58H53.8496L57.207 53.1572L53.9814 48.4902H55.2207L57.7871 52.3486Z" fill="black"/>
</svg>
