<svg width="456" height="456" viewBox="0 0 456 456" fill="none" xmlns="http://www.w3.org/2000/svg">
<g clip-path="url(#clip0)">
<path d="M455.731 0H0V455.731H455.731V0Z" fill="#15ACE5"/>
<path d="M352.042 252.274C353.57 244.417 354.38 236.304 354.38 228C354.38 158.203 297.798 101.621 228.001 101.621C219.697 101.621 211.584 102.431 203.727 103.959C192.926 97.6384 180.365 94 166.947 94C126.659 94 94 126.659 94 166.947C94 180.365 97.6393 192.926 103.959 203.726C102.431 211.583 101.621 219.696 101.621 228C101.621 297.797 158.203 354.379 228 354.379C236.304 354.379 244.417 353.569 252.274 352.041C263.075 358.362 275.636 362 289.053 362C329.341 362 362 329.341 362 289.053C362.002 275.635 358.362 263.075 352.042 252.274ZM230.402 314.792C185.494 314.792 163.04 297.952 156.131 276.793C149.222 255.635 164.335 249.589 169.085 249.158C173.835 248.726 183.911 249.877 186.789 258.657C189.782 267.783 199.743 285.861 221.334 288.02C242.924 290.179 257.174 280.248 261.492 269.884C265.81 259.521 258.037 245.271 224.788 240.522C191.539 235.772 156.995 221.09 156.995 187.841C156.995 154.592 194.994 141.206 231.265 141.206C267.537 141.206 285.926 161.692 289.991 169.705C295.028 179.637 293.301 196.184 281.355 199.068C268.832 202.091 262.355 195.182 253.287 178.341C243.91 160.927 210.539 165.387 199.312 175.319C188.085 185.25 191.107 199.5 237.742 208.568C284.378 217.636 301.65 234.476 301.65 260.816C301.65 287.157 275.31 314.792 230.402 314.792Z" fill="white"/>
</g>
<defs>
<clipPath id="clip0">
<rect width="455.731" height="455.731" fill="white"/>
</clipPath>
</defs>
</svg>
