<svg width="27" height="25" viewBox="0 0 27 25" fill="none" xmlns="http://www.w3.org/2000/svg">
<path d="M17.142 8.11605L17.3781 8.58018L17.8937 8.65285L25.9755 9.7917L20.1485 15.3002L19.7568 15.6705L19.8507 16.2012L21.2304 23.9964C21.2282 23.9971 21.2255 23.9978 21.222 23.9983L21.2206 23.9986C21.2159 23.9994 21.2102 23.9995 21.2049 23.9987C21.2004 23.998 21.1982 23.997 21.1982 23.997L21.194 23.9948L13.9542 20.3042L13.5001 20.0726L13.0459 20.3042L5.80617 23.9948L5.80465 23.9956C5.7993 23.9983 5.79099 24.0005 5.78132 23.9999C5.77667 23.9996 5.77272 23.9986 5.76954 23.9976L7.14941 16.2012L7.24334 15.6705L6.85167 15.3002L1.02458 9.7917L9.10641 8.65285L9.62205 8.58018L9.85817 8.11605L13.4736 1.00911C13.4737 1.00908 13.4737 1.00904 13.4738 1.009C13.4752 1.00779 13.4792 1.00502 13.4861 1.00278C13.5006 0.998012 13.5125 0.999921 13.521 1.00401L13.5221 1.00455C13.5234 1.00517 13.5244 1.00572 13.525 1.00614L17.142 8.11605Z" stroke="#CCCCCC" stroke-width="2"/>
</svg>
