<svg width="23" height="23" viewBox="0 0 23 23" fill="none" xmlns="http://www.w3.org/2000/svg">
<path d="M20.5792 10.8935H23.0003C23.0003 4.68353 18.3119 0 12.0934 0V2.42105C17.0106 2.42105 20.5792 5.98363 20.5792 10.8935Z" fill="#545454"/>
<path d="M12.1056 7.26313C14.6513 7.26313 15.7372 8.34897 15.7372 10.8947H18.1582C18.1582 6.99076 16.0096 4.84207 12.1056 4.84207V7.26313ZM16.248 13.852C16.0154 13.6406 15.7098 13.5279 15.3956 13.5376C15.0814 13.5473 14.7833 13.6787 14.5642 13.9041L11.6674 16.8832C10.9701 16.75 9.56834 16.313 8.12539 14.8737C6.68245 13.4295 6.24545 12.0241 6.11592 11.3317L9.0926 8.43371C9.31826 8.21476 9.44987 7.91659 9.45959 7.60232C9.46931 7.28805 9.35636 6.98233 9.14466 6.74986L4.67176 1.83149C4.45997 1.59829 4.16562 1.45684 3.85121 1.43718C3.53681 1.41751 3.22712 1.52119 2.98792 1.72618L0.361078 3.97897C0.151792 4.18901 0.0268755 4.46857 0.0100255 4.7646C-0.00813236 5.06723 -0.354343 12.236 5.20439 17.7971C10.0538 22.6453 16.1282 23 17.8011 23C18.0457 23 18.1958 22.9927 18.2357 22.9903C18.5317 22.9737 18.8111 22.8482 19.0201 22.638L21.2717 20.01C21.4769 19.7709 21.5807 19.4613 21.5613 19.1469C21.5419 18.8325 21.4006 18.5381 21.1676 18.3261L16.248 13.852Z" fill="#545454"/>
</svg>
