<svg width="18" height="12" viewBox="0 0 18 12" fill="none" xmlns="http://www.w3.org/2000/svg">
<path d="M17.0885 5.31291C15.2981 2.00297 12.1581 0 8.68349 0C5.20884 0 2.06359 2.00297 0.289081 5.31291L0.14032 5.56262L0.278456 5.81764C2.06891 9.12759 5.20884 11.1306 8.68349 11.1306C12.1581 11.1306 15.3034 9.15415 17.0885 5.81764L17.2267 5.56262L17.0885 5.31291ZM8.68349 10.0414C5.69231 10.0414 2.94554 8.37315 1.35166 5.56262C2.94554 2.75209 5.69231 1.08383 8.68349 1.08383C11.6747 1.08383 14.3896 2.7574 16.01 5.56262C14.3896 8.37315 11.6693 10.0414 8.68349 10.0414Z" fill="#ABABAB"/>
<path d="M8.83759 9.22328C10.8505 9.22328 12.4823 7.59151 12.4823 5.57862C12.4823 3.56573 10.8505 1.93396 8.83759 1.93396C6.8247 1.93396 5.19293 3.56573 5.19293 5.57862C5.19293 7.59151 6.8247 9.22328 8.83759 9.22328Z" fill="#ABABAB"/>
</svg>
