<svg width="456" height="456" viewBox="0 0 456 456" fill="none" xmlns="http://www.w3.org/2000/svg">
<g clip-path="url(#clip0)">
<path d="M455.731 0H0V455.731H455.731V0Z" fill="#1BD741"/>
<path d="M102.136 353.731L119.747 291.184C108.422 271.944 102.46 250.055 102.46 227.568C102.46 158.329 158.789 102 228.028 102C297.266 102 353.595 158.329 353.595 227.568C353.595 296.806 297.266 353.135 228.028 353.135C206.453 353.135 185.328 347.613 166.64 337.127L102.136 353.731ZM169.937 314.283L173.781 316.63C190.075 326.577 208.834 331.835 228.028 331.835C285.521 331.835 332.294 285.061 332.294 227.568C332.294 170.075 285.521 123.3 228.028 123.3C170.535 123.3 123.76 170.075 123.76 227.568C123.76 247.6 129.454 267.054 140.224 283.825L142.812 287.856L132.671 323.876L169.937 314.283Z" fill="white"/>
<path d="M192.754 169.125L184.606 168.681C182.047 168.541 179.537 169.396 177.602 171.077C173.652 174.507 167.336 181.138 165.396 189.78C162.503 202.665 166.974 218.443 178.545 234.221C190.116 250 211.679 275.245 249.809 286.027C262.097 289.501 271.762 287.159 279.22 282.388C285.126 278.61 289.198 272.546 290.665 265.69L291.966 259.614C292.379 257.683 291.399 255.723 289.605 254.896L262.068 242.204C260.28 241.38 258.161 241.901 256.958 243.459L246.148 257.473C245.331 258.532 243.934 258.951 242.671 258.508C235.268 255.906 210.47 245.52 196.863 219.31C196.273 218.173 196.419 216.793 197.256 215.823L207.588 203.871C208.643 202.651 208.91 200.935 208.276 199.452L196.406 171.682C195.774 170.203 194.358 169.212 192.754 169.125Z" fill="white"/>
</g>
<defs>
<clipPath id="clip0">
<rect width="455.731" height="455.731" fill="white"/>
</clipPath>
</defs>
</svg>
