<svg width="512" height="512" viewBox="0 0 512 512" fill="none" xmlns="http://www.w3.org/2000/svg">
<path d="M256 512C397.385 512 512 397.385 512 256C512 114.615 397.385 0 256 0C114.615 0 0 114.615 0 256C0 397.385 114.615 512 256 512Z" fill="#D22215"/>
<path d="M341.649 152.333H170.351C136.743 152.333 109.499 179.578 109.499 213.185V298.817C109.499 332.425 136.744 359.669 170.351 359.669H341.649C375.257 359.669 402.501 332.424 402.501 298.817V213.185C402.501 179.578 375.256 152.333 341.649 152.333ZM300.494 260.167L220.374 298.379C218.238 299.398 215.771 297.843 215.771 295.478V216.664C215.771 214.264 218.303 212.709 220.441 213.794L300.561 254.395C302.947 255.602 302.904 259.019 300.494 260.167Z" fill="white"/>
</svg>
