<svg width="454" height="173" viewBox="0 0 454 173" fill="none" xmlns="http://www.w3.org/2000/svg">
<path fill-rule="evenodd" clip-rule="evenodd" d="M179.336 0.321323V1.6375H170.37V5.93555H178.966V7.25167H170.37V11.5497H179.336V12.8659H168.91V0.321323H179.336ZM96.9532 135.412L94.6087 140.615L102.835 144.337L105.179 139.134L106.516 139.751L101.313 151.35L99.9557 150.753L102.3 145.55L94.0741 141.828L91.7297 147.031L90.393 146.414L95.6165 134.815L96.9532 135.412ZM112.048 141.808L110.649 141.293L106.269 153.242L107.688 153.756L112.048 141.808V141.808ZM117.888 157.581C116.306 157.177 114.876 156.319 113.775 155.113C113.403 154.636 113.162 154.07 113.075 153.472C112.988 152.873 113.06 152.262 113.282 151.699V151.514L114.68 151.987V152.172C114.104 153.941 115.297 155.319 118.299 156.285C119.351 156.704 120.481 156.887 121.61 156.82C121.963 156.792 122.301 156.663 122.582 156.448C122.863 156.232 123.076 155.94 123.194 155.607V155.442C123.301 155.177 123.335 154.888 123.292 154.606C123.248 154.324 123.129 154.058 122.947 153.838C122.324 153.188 121.566 152.683 120.726 152.357L118.217 151.144C115.647 149.951 114.66 148.47 115.256 146.722V146.537C115.399 146.022 115.682 145.557 116.074 145.194C116.467 144.831 116.952 144.584 117.477 144.481C118.917 144.225 120.4 144.382 121.754 144.933C123.24 145.33 124.576 146.152 125.6 147.298C126.016 147.762 126.299 148.331 126.418 148.942C126.538 149.554 126.49 150.187 126.279 150.774V150.979L124.88 150.506V150.301C125.456 148.594 124.346 147.298 121.569 146.352C120.578 145.956 119.508 145.794 118.443 145.879C118.099 145.901 117.769 146.024 117.495 146.232C117.221 146.441 117.014 146.726 116.901 147.052V147.216C116.811 147.461 116.788 147.726 116.835 147.983C116.882 148.239 116.997 148.479 117.168 148.676C117.756 149.267 118.455 149.735 119.225 150.054L121.734 151.267C122.847 151.719 123.839 152.423 124.633 153.324C124.879 153.688 125.032 154.108 125.079 154.545C125.126 154.982 125.064 155.424 124.901 155.833V156.018C124.743 156.539 124.445 157.007 124.038 157.37C123.632 157.733 123.134 157.976 122.598 158.074C121.076 158.303 119.52 158.119 118.094 157.54L117.888 157.581ZM128.87 148.779L129.219 147.504L141.702 150.959L141.332 152.234L135.821 150.712L132.777 161.694L131.338 161.303L134.381 150.321L128.87 148.779V148.779ZM147.378 165.354C148.644 165.643 149.958 165.643 151.224 165.354C152.329 165.089 153.331 164.502 154.103 163.668C154.904 162.786 155.438 161.695 155.645 160.521V160.234C155.929 159.077 155.872 157.863 155.481 156.738C155.081 155.648 154.365 154.703 153.424 154.023C152.367 153.27 151.165 152.744 149.894 152.479C148.624 152.213 147.312 152.214 146.041 152.481C144.933 152.738 143.929 153.326 143.162 154.167C142.355 155.055 141.813 156.153 141.599 157.334V157.622C141.341 158.781 141.398 159.988 141.764 161.118C142.159 162.204 142.877 163.144 143.821 163.812C144.87 164.596 146.088 165.124 147.378 165.354V165.354ZM147.646 164.018C146.164 163.782 144.818 163.014 143.862 161.858C143.462 161.296 143.191 160.652 143.067 159.974C142.943 159.295 142.968 158.598 143.142 157.93V157.622C143.243 156.94 143.495 156.289 143.879 155.716C144.263 155.143 144.77 154.663 145.363 154.311C146.69 153.611 148.231 153.435 149.681 153.817C151.141 154.031 152.477 154.76 153.445 155.874C153.839 156.439 154.106 157.083 154.227 157.761C154.347 158.439 154.319 159.135 154.144 159.802V160.131C154.041 160.81 153.79 161.458 153.41 162.03C153.03 162.602 152.53 163.084 151.944 163.442C150.609 164.118 149.074 164.286 147.625 163.915L147.646 164.018ZM172.323 160.583C172.261 161.07 172.085 161.536 171.81 161.943C171.535 162.351 171.168 162.688 170.74 162.928C169.688 163.444 168.492 163.589 167.347 163.339H167.244L170.925 169.035V169.262L169.239 168.994L165.352 163.113L161.239 162.434L160.396 167.637L158.936 167.411L160.992 154.846L168.642 156.079C169.813 156.193 170.906 156.717 171.727 157.56C172.061 157.944 172.302 158.4 172.431 158.892C172.559 159.384 172.572 159.9 172.467 160.398V160.665L172.323 160.583ZM167.511 162.043C168.286 162.208 169.092 162.122 169.814 161.796C170.096 161.642 170.337 161.424 170.519 161.16C170.702 160.896 170.819 160.593 170.863 160.275V160.028C170.921 159.713 170.905 159.39 170.815 159.083C170.726 158.776 170.566 158.494 170.349 158.259C169.784 157.73 169.062 157.398 168.293 157.313L162.123 156.326L161.362 161.056L167.532 162.043H167.511ZM178.575 157.293L177.197 169.961L175.716 169.796L177.094 157.149L178.575 157.293V157.293ZM189.084 171.38C187.761 171.288 186.475 170.901 185.32 170.249C184.326 169.684 183.518 168.84 182.997 167.822C182.498 166.743 182.299 165.55 182.421 164.367V163.997C182.502 162.81 182.916 161.67 183.613 160.707C184.284 159.757 185.232 159.038 186.328 158.65C187.579 158.204 188.917 158.056 190.235 158.218C191.441 158.299 192.617 158.628 193.69 159.185C194.62 159.664 195.412 160.372 195.994 161.241C196.521 162.028 196.76 162.972 196.672 163.915V164.1L195.191 163.976V163.791C195.28 163.063 195.089 162.328 194.657 161.735C194.194 161.086 193.57 160.568 192.847 160.234C191.993 159.828 191.074 159.578 190.132 159.493C188.612 159.254 187.057 159.591 185.773 160.439C185.221 160.85 184.769 161.379 184.449 161.988C184.128 162.596 183.948 163.269 183.922 163.956V164.367C183.822 165.047 183.874 165.74 184.073 166.398C184.272 167.056 184.613 167.661 185.074 168.172C186.194 169.215 187.656 169.815 189.187 169.858C190.131 169.965 191.088 169.888 192.004 169.632C192.784 169.448 193.496 169.049 194.06 168.48C194.56 167.995 194.867 167.344 194.924 166.65V166.444L196.425 166.588V166.794C196.332 167.731 195.935 168.612 195.294 169.303C194.566 170.056 193.65 170.602 192.641 170.886C191.485 171.246 190.267 171.365 189.063 171.236L189.084 171.38ZM212.651 159.74V165.457L221.761 165.601V159.905H223.242L223.016 172.634H221.556V166.917L212.466 166.773V172.47H210.985L211.211 159.74H212.651ZM234.614 172.716C233.311 172.783 232.01 172.551 230.81 172.038C229.777 171.616 228.891 170.901 228.26 169.981C227.624 168.97 227.282 167.803 227.273 166.609V166.321C227.205 165.128 227.468 163.939 228.033 162.886C228.591 161.893 229.427 161.085 230.44 160.563C231.614 160.005 232.89 159.697 234.189 159.658C235.489 159.619 236.782 159.85 237.987 160.336C239.016 160.765 239.901 161.478 240.537 162.393C241.169 163.405 241.511 164.572 241.524 165.766V166.053C241.592 167.246 241.329 168.435 240.763 169.488C240.199 170.476 239.364 171.282 238.357 171.812C237.192 172.386 235.913 172.695 234.614 172.716ZM234.614 171.339C236.124 171.388 237.595 170.858 238.727 169.858C239.214 169.375 239.59 168.792 239.828 168.149C240.065 167.506 240.16 166.819 240.105 166.136V165.807C240.122 165.116 239.988 164.43 239.711 163.798C239.433 163.165 239.02 162.601 238.501 162.146C237.331 161.24 235.863 160.807 234.388 160.933C232.879 160.89 231.41 161.419 230.275 162.413C229.782 162.897 229.401 163.482 229.159 164.129C228.918 164.776 228.821 165.468 228.877 166.156V166.485C228.859 167.173 228.994 167.855 229.272 168.485C229.549 169.114 229.962 169.674 230.481 170.125C231.662 171.009 233.122 171.439 234.594 171.339H234.614ZM262.315 170.845L260.855 170.948L260.074 160.11L254.973 171.339L253.431 171.441L246.83 161.056L247.611 171.935L246.172 172.038L245.226 159.349L247.282 159.185L254.089 169.776L259.271 158.321L261.328 158.157L262.253 170.866L262.315 170.845ZM276.237 156.223L276.402 157.56L267.353 158.671L267.888 162.989L276.546 161.92L276.711 163.236L268.053 164.326L268.587 168.645L277.636 167.534L277.8 168.871L267.271 170.166L265.708 157.519L276.237 156.223V156.223ZM291.229 153.858L292.381 159.452L301.285 157.622L300.154 152.028L301.594 151.74L304.144 164.203L302.704 164.511L301.491 159L292.587 160.83L293.718 166.403L292.278 166.712L289.728 154.229L291.168 153.941L291.229 153.858ZM315.475 161.467C314.225 161.856 312.901 161.948 311.609 161.735C310.491 161.544 309.454 161.03 308.627 160.254C307.769 159.422 307.157 158.368 306.859 157.211V156.923C306.542 155.772 306.542 154.557 306.859 153.406C307.167 152.312 307.789 151.333 308.648 150.589C309.64 149.737 310.815 149.125 312.082 148.8C313.326 148.414 314.644 148.329 315.928 148.553C317.053 148.751 318.096 149.273 318.93 150.054C319.778 150.883 320.382 151.929 320.678 153.077V153.365C320.995 154.516 320.995 155.731 320.678 156.882C320.37 157.975 319.748 158.955 318.889 159.699C317.907 160.55 316.737 161.156 315.475 161.467ZM315.105 160.151C316.567 159.836 317.854 158.976 318.704 157.745C319.061 157.159 319.287 156.503 319.365 155.821C319.443 155.139 319.372 154.448 319.156 153.797V153.468C319.006 152.798 318.71 152.17 318.291 151.626C317.872 151.083 317.339 150.637 316.73 150.321C315.339 149.801 313.819 149.736 312.388 150.135C310.958 150.534 309.692 151.377 308.771 152.542C308.413 153.132 308.188 153.792 308.109 154.477C308.031 155.162 308.103 155.856 308.319 156.511V156.82C308.47 157.492 308.768 158.122 309.191 158.666C309.614 159.21 310.152 159.654 310.766 159.966C312.145 160.572 313.701 160.639 315.126 160.151H315.105ZM320.287 148.327L325.675 146.27L329.603 156.964L331.002 156.45L327.074 145.756L332.441 143.699L331.927 142.548L319.773 147.01L320.226 148.285L320.287 148.327ZM344.657 137.078L345.191 138.311L336.842 141.972L338.59 145.941L346.59 142.445L347.125 143.679L339.125 147.175L340.873 151.185L349.243 147.525L349.777 148.738L340.05 152.995L334.95 141.334L344.657 137.078V137.078ZM349.387 134.857L348.07 135.535L353.952 146.825L363.864 141.664L363.247 140.471L354.548 144.954L349.304 134.857H349.387ZM23.4544 85.8917C16.6063 86.3441 11.5062 88.2772 11.5062 95.9273C11.4429 97.6026 11.7385 99.2721 12.3731 100.824C13.0077 102.376 13.9666 103.774 15.1857 104.925C16.4047 106.076 17.8558 106.953 19.4415 107.497C21.0272 108.042 22.7109 108.241 24.3799 108.081C35.3204 107.629 39.3716 96.5031 34.6623 87.7219C28.1227 76.9048 3.69162 78.5706 3.30088 60.6175C3.03354 48.4431 13.9123 42.8289 24.8528 42.8289C32.153 42.7362 39.3144 44.8272 45.4177 48.8338L45.7056 49.0394L41.5926 62.3243L40.0091 59.4041C37.1094 53.975 31.2691 48.9778 24.7912 48.9778C19.4443 48.9778 13.316 51.0343 13.4599 57.3477C13.4739 58.5067 13.7554 59.6468 14.2824 60.6792C17.8196 67.5067 36.1224 70.0773 42.7442 78.1387C46.1512 82.1139 48.1533 87.1009 48.4407 92.3284C48.9549 105.49 36.7188 113.86 24.5444 114.395C13.1309 114.888 0.730223 108.534 0.0310182 96.0301C-0.750446 82.2106 13.3982 75.054 23.9274 84.3493L25.5315 85.7683L23.475 85.8917H23.4544ZM363.186 51.2193C363.186 46.0987 361.273 45.1938 359.073 43.3224H379.185C376.902 45.1938 375.072 46.1192 375.072 51.2193V99.8347C375.072 104.935 376.964 105.881 379.185 107.732H359.073C361.355 105.881 363.186 104.955 363.186 99.8347V51.2193ZM409.415 62.9618V99.8347C409.415 104.955 411.307 105.881 413.528 107.732H398.557C400.84 105.881 402.67 104.955 402.67 99.8347V51.2193C402.67 46.0987 400.758 45.1938 398.557 43.3224H408.963L443.101 92.2256V51.2193C443.101 46.0987 441.044 45.2144 438.988 43.3224H454C451.717 45.1938 449.887 46.0987 449.887 51.2193V111.33H443.286L409.415 62.9618V62.9618ZM222.275 48.9778C215.921 48.9778 208.805 52.1859 208.25 59.2602C207.736 65.7175 211.767 68.4115 217.196 70.0361C199.387 80.442 190.091 62.7973 200.97 51.0959C206.132 45.5434 214.81 42.87 222.275 42.87C240.784 42.87 253.472 57.3682 253.472 75.4859C253.472 93.6035 240.887 108.39 222.275 108.39C210.163 108.39 195.767 102.549 192.97 89.5316C191.017 80.4008 197.083 77.419 204.857 76.0411C204.314 77.9318 204.064 79.8945 204.117 81.8609C204.61 92.3696 209.402 102.22 222.275 102.22C236.403 102.22 240.784 86.9816 240.784 75.4859C240.784 63.9901 236.28 49.1011 222.275 49.1011V48.9778ZM155.069 101.089H170.329C175.696 101.089 177.732 99.2177 179.665 96.2358L181.351 93.6446V107.732H139.029C141.312 105.881 143.142 104.955 143.142 99.8347V51.2193C143.142 46.0987 141.25 45.1938 139.029 43.3224H159.182C156.9 45.1733 155.069 46.1192 155.069 51.2193V101.089ZM322.961 65.5941L304 107.732H299.167L280.412 63.7228V99.8347C280.412 104.955 282.304 105.881 284.525 107.732H269.492C271.775 105.881 273.605 104.955 273.605 99.8347V51.2193C273.605 46.0987 271.693 45.1938 269.492 43.3224H284.155L304.165 90.1897L325.305 43.3224H338.837C336.554 45.1938 334.724 46.0987 334.724 51.2193V99.8347C334.724 104.955 336.636 105.881 338.837 107.732H318.642C320.843 105.942 322.899 104.894 322.899 99.8347V65.5941H322.961ZM93.6628 108.328C75.0311 108.328 62.4454 93.5623 62.4454 75.4241C62.4454 57.2859 75.1133 42.8083 93.6628 42.8083C112.212 42.8083 124.86 57.3065 124.86 75.4241C124.86 93.5418 112.274 108.328 93.6628 108.328ZM93.6628 48.9778C79.6787 48.9778 75.1545 63.7844 75.1545 75.3624C75.1545 86.9404 79.5553 102.097 93.6628 102.097C107.77 102.097 112.171 86.8582 112.171 75.3624C112.171 63.8667 107.667 48.9778 93.6628 48.9778ZM189.433 12.9893C187.858 13.0877 186.287 12.7308 184.909 11.961C184.412 11.6339 184.009 11.1833 183.738 10.6533C183.468 10.1234 183.34 9.53232 183.367 8.938V8.87631H184.827V9.08197C184.827 10.9122 186.39 11.8171 189.516 11.8171C190.62 11.8754 191.723 11.6857 192.744 11.2618C193.069 11.133 193.347 10.9087 193.541 10.6187C193.736 10.3286 193.838 9.98643 193.834 9.6372V9.4727C193.847 9.1912 193.788 8.91098 193.662 8.65891C193.536 8.40684 193.348 8.19135 193.114 8.03314C192.318 7.64022 191.451 7.40957 190.564 7.35453L187.85 7.04601C185.074 6.71697 183.737 5.64762 183.737 3.85848V3.65282C183.727 3.13541 183.857 2.62495 184.114 2.17585C184.371 1.72675 184.746 1.35587 185.197 1.1028C186.457 0.422359 187.88 0.102148 189.31 0.177354C190.818 0.0719256 192.323 0.423105 193.629 1.18507C194.11 1.50352 194.501 1.94244 194.76 2.45833C195.02 2.97421 195.14 3.54909 195.109 4.12583V4.35202H193.649V4.12583C193.649 2.37782 192.21 1.49353 189.31 1.49353C188.266 1.43879 187.224 1.62892 186.266 2.04876C185.95 2.16987 185.679 2.38429 185.488 2.66349C185.297 2.94268 185.195 3.27343 185.197 3.61171V3.79679C185.185 4.05299 185.244 4.30745 185.368 4.53232C185.491 4.7572 185.674 4.94382 185.896 5.0718C186.618 5.44466 187.409 5.66185 188.22 5.7093L190.914 6.05893C192.116 6.14536 193.28 6.51915 194.307 7.14887C194.653 7.41232 194.929 7.75602 195.111 8.15019C195.294 8.54435 195.378 8.97711 195.356 9.41101V9.59609C195.369 10.1297 195.234 10.6565 194.965 11.1177C194.697 11.5789 194.305 11.9563 193.834 12.2078C192.49 12.9017 190.984 13.2214 189.474 13.1332L189.433 12.9893ZM197.536 1.55523V0.239046H210.266V1.55523H204.631V12.7836H203.171V1.55523H197.536ZM211.931 12.9893C211.803 12.9959 211.674 12.9755 211.553 12.9295C211.433 12.8834 211.324 12.8127 211.232 12.7219C211.141 12.6352 211.069 12.5294 211.023 12.4122C210.977 12.295 210.957 12.1691 210.965 12.0433C210.96 11.9209 210.981 11.799 211.028 11.6855C211.074 11.5721 211.143 11.4697 211.232 11.3852C211.425 11.2171 211.675 11.1289 211.931 11.1385C212.181 11.132 212.423 11.2202 212.61 11.3852C212.698 11.4697 212.768 11.5721 212.814 11.6855C212.86 11.799 212.882 11.9209 212.877 12.0433C212.885 12.1691 212.865 12.295 212.819 12.4122C212.773 12.5294 212.701 12.6352 212.61 12.7219C212.521 12.8111 212.416 12.881 212.299 12.927C212.182 12.973 212.057 12.9942 211.931 12.9893V12.9893ZM233.627 12.7836H232.188V2.70685C231.394 3.19958 230.466 3.42986 229.535 3.36494H227.355V2.00766H229.411C230.12 2.04077 230.826 1.89952 231.468 1.59633C231.688 1.46743 231.868 1.28002 231.988 1.05491C232.107 0.829804 232.162 0.575833 232.146 0.321323H233.586V12.8659L233.627 12.7836ZM244.876 0.0334478C246 0.00731468 247.118 0.20298 248.167 0.609261C249.03 0.937024 249.785 1.49969 250.346 2.23384C250.843 2.9445 251.102 3.79385 251.087 4.66054V8.01256C251.122 8.70944 250.992 9.40483 250.706 10.0413C250.42 10.6778 249.986 11.2371 249.442 11.6731C248.121 12.6174 246.517 13.0818 244.897 12.9893C243.863 13.0075 242.833 12.8475 241.853 12.5163C241.063 12.2678 240.353 11.8135 239.797 11.2001C239.324 10.6212 239.075 9.89097 239.097 9.14366V8.97911H240.558V9.14366C240.568 9.51854 240.681 9.88341 240.884 10.1988C241.087 10.5141 241.372 10.7679 241.709 10.9328C242.679 11.4334 243.765 11.6676 244.855 11.6114C246.094 11.6941 247.324 11.3612 248.352 10.6654C248.762 10.3597 249.091 9.9579 249.309 9.49536C249.528 9.03282 249.63 8.52364 249.606 8.01256V6.49078C248.223 7.59382 246.476 8.13696 244.712 8.01256C243.205 8.10861 241.702 7.78093 240.372 7.06659C239.898 6.78094 239.509 6.3719 239.248 5.88302C238.988 5.39414 238.865 4.84371 238.892 4.29032V4.00245C238.875 3.41935 239.013 2.84216 239.291 2.32936C239.569 1.81656 239.978 1.38632 240.475 1.08221C241.788 0.296625 243.307 -0.0759402 244.835 0.0128629L244.876 0.0334478ZM244.773 6.69644C245.779 6.71801 246.781 6.56493 247.735 6.24401C248.48 6.0094 249.144 5.56713 249.647 4.969V4.76334C249.656 4.29275 249.543 3.82782 249.32 3.41352C249.097 2.99922 248.77 2.64957 248.372 2.39839C247.309 1.75401 246.076 1.4458 244.835 1.51412C243.705 1.45448 242.578 1.68824 241.565 2.19273C241.205 2.35938 240.901 2.6267 240.689 2.96241C240.477 3.29812 240.367 3.6879 240.372 4.08473V4.39319C240.372 6.01781 241.853 6.81982 244.773 6.81982V6.69644ZM261.616 12.9893C260.482 13.0097 259.359 12.7779 258.326 12.3107C257.426 11.914 256.661 11.2637 256.125 10.4393C255.593 9.62023 255.321 8.65984 255.344 7.68357V5.35974C255.318 4.37667 255.591 3.40886 256.125 2.58347C256.661 1.75907 257.426 1.10875 258.326 0.71206C259.359 0.244832 260.482 0.0130577 261.616 0.0334478C262.736 0.0108104 263.847 0.242828 264.865 0.71206C265.761 1.1147 266.524 1.76373 267.066 2.58347C267.589 3.41394 267.86 4.37825 267.847 5.35974V7.68357C267.863 8.66537 267.591 9.63028 267.066 10.4598C266.519 11.2744 265.757 11.922 264.865 12.3312C263.843 12.7841 262.734 13.0087 261.616 12.9893V12.9893ZM261.616 11.632C262.871 11.701 264.11 11.322 265.112 10.5626C265.53 10.2159 265.862 9.77773 266.083 9.28204C266.304 8.78636 266.408 8.24645 266.387 7.7041V5.35974C266.401 4.62961 266.193 3.91236 265.791 3.30325C265.379 2.69336 264.801 2.21494 264.125 1.92538C263.327 1.58036 262.464 1.41201 261.595 1.43184C260.333 1.35974 259.087 1.73876 258.079 2.50119C257.654 2.85218 257.316 3.29647 257.092 3.79942C256.867 4.30237 256.761 4.8504 256.783 5.40084V7.74527C256.761 8.28974 256.867 8.83173 257.092 9.32805C257.317 9.82436 257.655 10.2612 258.079 10.6037C259.095 11.366 260.348 11.7447 261.616 11.6731V11.632ZM282.386 6.36739C284.196 6.88151 285.101 7.84805 285.101 9.24646V9.45212C285.117 10.0017 284.974 10.5443 284.69 11.0149C284.405 11.4854 283.991 11.8639 283.497 12.105C281.986 12.7773 280.336 13.0804 278.685 12.9893C277.033 13.0757 275.385 12.7728 273.873 12.105C273.376 11.8648 272.959 11.4872 272.671 11.0169C272.383 10.5466 272.236 10.0035 272.248 9.45212V9.24646C272.248 7.82748 273.173 6.86095 274.983 6.36739C274.364 6.15799 273.811 5.78918 273.379 5.29804C273.007 4.85583 272.809 4.29247 272.824 3.71451V3.50891C272.82 3.1701 272.884 2.83394 273.011 2.51983C273.138 2.20572 273.326 1.91984 273.564 1.67861C274.133 1.10273 274.841 0.68462 275.621 0.465292C277.637 -0.110759 279.774 -0.110759 281.79 0.465292C282.575 0.671492 283.287 1.09153 283.846 1.67861C284.082 1.92085 284.266 2.2074 284.39 2.52159C284.514 2.83578 284.573 3.17138 284.566 3.50891V3.71451C284.579 4.28873 284.39 4.84931 284.032 5.29804C283.592 5.78925 283.032 6.15772 282.407 6.36739H282.386ZM274.284 3.69399C274.284 5.13353 275.744 5.85327 278.685 5.85327C281.625 5.85327 283.106 5.13353 283.106 3.69399V3.50891C283.103 3.15835 282.993 2.81714 282.791 2.53063C282.589 2.24411 282.304 2.02581 281.975 1.90479C280.933 1.47985 279.809 1.29028 278.685 1.34957C277.567 1.28991 276.45 1.47955 275.415 1.90479C275.084 2.02329 274.798 2.24092 274.596 2.52799C274.393 2.81506 274.284 3.15765 274.284 3.50891V3.69399ZM283.682 9.32874C283.678 8.96187 283.559 8.60556 283.341 8.31028C283.123 8.01501 282.818 7.79578 282.469 7.68357C279.993 6.99847 277.377 6.99847 274.901 7.68357C274.554 7.79658 274.251 8.01665 274.037 8.31223C273.823 8.6078 273.707 8.96365 273.708 9.32874V9.51381C273.713 9.87793 273.833 10.2311 274.051 10.5229C274.269 10.8146 274.574 11.0301 274.921 11.1385C276.131 11.5524 277.408 11.7337 278.685 11.6731C279.962 11.7378 281.24 11.5563 282.448 11.1385C282.8 11.0337 283.109 10.8198 283.33 10.5277C283.552 10.2357 283.675 9.88053 283.682 9.51381V9.32874Z" fill="white"/>
</svg>
