<svg width="81" height="81" viewBox="0 0 81 81" fill="none" xmlns="http://www.w3.org/2000/svg">
<circle cx="40.5" cy="40.5" r="40.5"  />
<path d="M19.0374 23.918C19.0374 22.6235 19.5516 21.3821 20.4668 20.4669C21.3821 19.5516 22.6235 19.0374 23.9179 19.0374H31.9221C32.434 19.0378 32.9329 19.1992 33.3481 19.4987C33.7633 19.7983 34.0737 20.2208 34.2355 20.7065L37.891 31.6708C38.0763 32.228 38.0544 32.8333 37.8293 33.3757C37.6043 33.918 37.1913 34.3611 36.666 34.6235L31.1583 37.381C33.858 43.3562 38.6438 48.1419 44.6189 50.8417L47.3765 45.3339C47.6389 44.8087 48.0819 44.3956 48.6243 44.1706C49.1667 43.9456 49.772 43.9237 50.3292 44.1089L61.2934 47.7645C61.7796 47.9264 62.2024 48.2372 62.502 48.6529C62.8016 49.0685 62.9627 49.5679 62.9626 50.0803V58.082C62.9626 59.3764 62.4484 60.6178 61.5331 61.5331C60.6178 62.4484 59.3764 62.9626 58.082 62.9626H55.6417C35.4263 62.9626 19.0374 46.5736 19.0374 26.3582V23.918Z" fill="white"/>
</svg>
