<svg width="97" height="97" viewBox="0 0 97 97" fill="none" xmlns="http://www.w3.org/2000/svg">
<path fill-rule="evenodd" clip-rule="evenodd" d="M16.5978 6.26883L18.7661 11.0701L26.4197 7.61112L24.2514 2.80988L25.542 2.24199L30.3949 12.9544L29.1043 13.5223L26.936 8.72107L19.2695 12.18L21.4378 16.9813L20.1471 17.5363L15.3071 6.8238L16.5978 6.26883ZM73.4641 83.4243C65.3789 91.5095 54.413 96.0517 42.9788 96.0517C31.5446 96.0517 20.5787 91.5095 12.4935 83.4243C4.40831 75.3391 -0.133911 64.3732 -0.133911 52.939C-0.133911 41.5048 4.40831 30.5389 12.4935 22.4537L13.397 23.3442C5.54796 31.1915 1.13775 41.8354 1.13654 52.9344C1.13533 64.0334 5.54322 74.6782 13.3905 82.5272C21.2378 90.3763 31.8817 94.7865 42.9807 94.7877C54.0797 94.7889 64.7246 90.381 72.5736 82.5337L73.4641 83.4372V83.4243ZM51.6133 12.3478C50.4269 12.179 49.2959 11.7372 48.3092 11.0572C47.4406 10.4367 46.7793 9.56851 46.412 8.5662C46.035 7.53367 45.9502 6.41719 46.1667 5.33956V5.08141C46.317 3.99237 46.7634 2.96553 47.4574 2.11292C48.1417 1.32903 49.0382 0.759797 50.0387 0.473797C51.2086 0.176129 52.4304 0.145243 53.6138 0.383441C54.7957 0.554146 55.9221 0.995874 56.905 1.6741C57.7632 2.28881 58.4227 3.14126 58.8023 4.12634C59.1742 5.16021 59.2546 6.27648 59.0346 7.35298V7.624C58.8811 8.70434 58.4348 9.72204 57.7439 10.5667C57.067 11.3564 56.1672 11.9233 55.1626 12.1929C54.0035 12.5018 52.7884 12.5372 51.6133 12.2962V12.3478ZM51.8456 11.0572C53.1874 11.3854 54.6037 11.1917 55.8079 10.5151C56.3393 10.1694 56.7889 9.712 57.1255 9.17482C57.462 8.63763 57.6775 8.03354 57.7568 7.40461V7.10775C57.9026 6.48848 57.91 5.84466 57.7784 5.22222C57.6468 4.59978 57.3794 4.01403 56.9953 3.50681C56.105 2.44916 54.8449 1.77068 53.4718 1.60954C52.1242 1.28698 50.7044 1.48522 49.4966 2.16455C48.9599 2.50691 48.5049 2.96289 48.1637 3.50035C47.8225 4.03781 47.6034 4.64365 47.5219 5.27504V5.57187C47.3761 6.19196 47.3699 6.83671 47.5038 7.45948C47.6378 8.08226 47.9085 8.66749 48.2963 9.17281C49.1874 10.2559 50.4555 10.9614 51.8456 11.1475V11.0572ZM76.8715 12.7995L80.524 16.6715L72.9091 23.925L73.8642 24.9317L81.4662 17.6653L85.1187 21.5373L86.0093 20.6855L77.7362 11.9864L76.8456 12.8383L76.8715 12.7995ZM96.554 48.9379L95.3407 49.1444L93.8565 40.8584L89.9071 41.5683L91.3268 49.5058L90.0361 49.7252L88.6164 41.7877L84.6541 42.4976L86.1384 50.7836L84.8477 51.003L83.1311 41.3747L94.747 39.2967L96.4636 48.9379H96.554ZM92.953 72.0019L83.3635 67.6654L79.6722 75.8223L78.5493 75.3189L82.7956 65.91L93.508 70.7629L92.953 72.0019Z" fill="#4F5E58"/>
</svg>
