<svg width="170" height="171" viewBox="0 0 170 171" fill="none" xmlns="http://www.w3.org/2000/svg">
<path opacity="0.2" d="M165.196 159.848L148.717 158.322L147.727 169.009L144.428 168.71L146.691 144.329L149.974 144.629L148.984 155.315L165.478 156.842L166.468 146.155L169.767 146.454L167.521 170.834L164.222 170.535L165.196 159.848ZM105.69 130.888C107.936 131.958 109.994 133.406 111.565 135.374C112.948 137.121 113.812 139.104 114.016 141.339C114.236 143.653 113.717 145.872 112.712 147.95L112.476 148.437C111.471 150.531 110.073 152.341 108.141 153.631C106.271 154.875 104.198 155.441 101.967 155.473C99.4694 155.489 97.0344 154.78 94.8037 153.71C92.573 152.64 90.5152 151.192 88.9757 149.224C87.5933 147.462 86.745 145.478 86.5408 143.243C86.3208 140.93 86.8393 138.711 87.829 136.633L88.0645 136.145C89.0541 134.067 90.4522 132.257 92.3845 130.982C94.2538 129.739 96.3275 129.173 98.5582 129.141C101.056 129.11 103.475 129.818 105.69 130.888ZM47.661 115.07L62.8674 99.9918L65.2237 102.368L50.0174 117.447L57.5735 125.112L55.4056 127.252L37.9372 109.561L40.1051 107.405L47.661 115.07ZM19.7304 75.3126L26.6267 72.0231L19.5733 57.1967L22.3224 55.8746L29.3757 70.701L36.3034 67.3957L28.936 51.9082L31.6851 50.6019L40.4821 69.0799L18.4266 79.6252L9.62962 61.1472L12.3787 59.8409L19.7304 75.3126ZM21.27 18.4779L19.3377 0.330551L22.3696 0L24.6473 21.4527L0.345552 24.0496L0 20.7601L21.27 18.4779ZM104.355 133.705C101.904 132.525 99.1552 131.848 96.4689 132.651C93.9398 133.406 92.2432 135.216 91.1278 137.562L90.8607 138.112C89.7454 140.458 89.3999 142.944 90.4053 145.384C91.4735 147.981 93.6883 149.697 96.1546 150.877C98.621 152.057 101.386 152.734 104.072 151.932C106.617 151.176 108.329 149.382 109.46 147.021L109.727 146.454C110.843 144.109 111.188 141.622 110.167 139.198C109.067 136.601 106.821 134.886 104.355 133.705Z" fill="white"/>
</svg>
