<svg width="111" height="112" viewBox="0 0 111 112" fill="none" xmlns="http://www.w3.org/2000/svg">
<path fill-rule="evenodd" clip-rule="evenodd" d="M9.20588 24.3104L13.1681 20.1415L10.4707 17.5602L11.2709 16.7342L17.4144 22.5938L16.6142 23.4198L13.9296 20.8385L9.9544 24.9944L12.6519 27.5757L11.8517 28.4147L5.72109 22.5551L6.50837 21.7291L9.20588 24.3104ZM69.6343 108.461C60.3655 111.829 50.3284 112.482 40.7011 110.345C31.0738 108.208 22.256 103.369 15.2828 96.3956C8.30954 89.4224 3.47032 80.6045 1.33314 70.9772C-0.80403 61.35 -0.150424 51.3128 3.21721 42.044L4.19813 42.4054C0.899477 51.4868 0.259753 61.3208 2.35407 70.7531C4.44839 80.1853 9.1898 88.8245 16.0218 95.6565C22.8539 102.489 31.4931 107.23 40.9253 109.324C50.3576 111.419 60.1916 110.779 69.273 107.48L69.6343 108.461V108.461ZM29.8821 14.3594C29.1253 14.7772 28.2809 15.0115 27.417 15.0435C26.6571 15.0657 25.9074 14.8637 25.2616 14.4627C24.5815 14.0323 24.036 13.4197 23.687 12.6945L23.5966 12.5267C23.2094 11.8256 23.0304 11.0286 23.0804 10.2293C23.1317 9.47014 23.4055 8.74291 23.8677 8.13846C24.403 7.4586 25.0874 6.91101 25.8682 6.53806C26.6212 6.12402 27.4616 5.89404 28.3205 5.86691C29.0848 5.84216 29.8392 6.04425 30.4888 6.4477C31.1593 6.87613 31.6959 7.48432 32.0375 8.20298L32.1279 8.37077C32.5027 9.06716 32.6812 9.85235 32.6442 10.6423C32.5832 11.4016 32.3055 12.1273 31.844 12.7332C31.3172 13.4162 30.636 13.9646 29.8564 14.3336L29.8821 14.3594ZM53.4625 2.36922L49.9777 9.27424H48.8548L44.9828 2.53702L45.1506 9.3646H44.0148L43.8084 0.872057H45.2926L49.3453 7.88031L53.0107 0.678467H54.5079L54.7144 9.15809H53.5786L53.4109 2.3434L53.4625 2.36922ZM68.7438 4.26649L67.892 6.77037L73.2869 8.5902L72.9513 9.59691L67.5693 7.72544L66.7175 10.3068L72.3448 12.2169L72.0092 13.2107L65.2848 10.9392L68.0082 2.8984L74.7324 5.18284L74.3969 6.17666L68.7567 4.27939L68.7438 4.26649ZM96.0412 26.3754L99.3711 31.0605L102.404 28.9051L103.075 29.8344L96.1574 34.7518L95.4862 33.8225L98.5192 31.6671L95.1894 26.8917L92.1563 29.0471L91.4981 28.1049L98.416 23.1875L99.0742 24.1297L96.0412 26.2851V26.3754ZM101.126 48.8329C100.931 47.9835 100.931 47.1009 101.126 46.2515C101.289 45.5096 101.666 44.8319 102.211 44.3026C102.789 43.7576 103.509 43.3864 104.289 43.2314H104.469C105.244 43.0396 106.055 43.0619 106.818 43.2959C107.543 43.536 108.181 43.9851 108.651 44.5866C109.164 45.2784 109.529 46.0689 109.722 46.9085C109.916 47.7481 109.933 48.6186 109.774 49.4653C109.602 50.2065 109.221 50.8829 108.677 51.4142C108.096 51.9583 107.377 52.3332 106.599 52.4983H106.418C105.648 52.6903 104.84 52.668 104.082 52.4338C103.357 52.1937 102.72 51.7446 102.249 51.1431C101.703 50.4692 101.319 49.6787 101.126 48.8329V48.8329ZM109.296 68.0636L101.927 67.1343L102.069 65.9857L109.438 66.915L109.903 63.2108L110.961 63.3527L109.877 71.9098L108.819 71.7678L109.296 68.0636ZM104.469 84.313L102.12 83.0998L99.5389 88.1721L98.5967 87.6945L101.178 82.6222L98.8032 81.409L96.0928 86.7007L95.1506 86.2232L98.3902 79.899L105.941 83.7709L102.74 90.1339L101.798 89.6563L104.508 84.3646L104.469 84.313ZM88.6844 95.9289L84.1026 100.304L83.3799 99.5298L88.7877 94.3672L94.6473 100.511L93.8084 101.298L88.6458 95.916L88.6844 95.9289ZM29.3142 13.3269C30.1809 12.9383 30.8745 12.2447 31.2632 11.378C31.4083 10.9688 31.4627 10.5329 31.4226 10.1005C31.3825 9.66816 31.2488 9.24969 31.0308 8.87414L30.9405 8.68055C30.7631 8.28168 30.5 7.92682 30.1698 7.64127C29.8397 7.35572 29.4506 7.14646 29.0303 7.02847C28.0955 6.87658 27.1365 7.02763 26.2936 7.45953C25.4507 7.89144 24.768 8.58158 24.3453 9.42912C24.1889 9.84888 24.1275 10.2981 24.1655 10.7444C24.2034 11.1907 24.3397 11.6231 24.5646 12.0104L24.6679 12.204C24.8475 12.6 25.1116 12.9519 25.4416 13.2351C25.7715 13.5182 26.1594 13.7258 26.5781 13.8432C27.5146 14.0356 28.4892 13.8747 29.3142 13.3914V13.3269ZM102.146 48.5489C102.314 49.4837 102.819 50.3242 103.566 50.9108C103.928 51.1531 104.338 51.3144 104.767 51.3834C105.197 51.4525 105.637 51.4278 106.057 51.3109H106.263C106.691 51.2338 107.098 51.0645 107.454 50.815C107.811 50.5654 108.109 50.2414 108.328 49.8654C108.756 49.0133 108.844 48.0306 108.573 47.1163C108.412 46.1722 107.906 45.3215 107.154 44.7286C106.79 44.4857 106.377 44.3253 105.945 44.2584C105.512 44.1915 105.07 44.2198 104.65 44.3414H104.443C104.013 44.4183 103.605 44.5888 103.249 44.8409C102.892 45.0929 102.595 45.4203 102.378 45.7998C101.975 46.6849 101.92 47.6894 102.223 48.6134L102.146 48.5489Z" fill="#4F5E58"/>
</svg>
