<svg width="159" height="133" viewBox="0 0 159 133" fill="none" xmlns="http://www.w3.org/2000/svg">
<path d="M47.6614 33L79.5 58.1724L111.339 33L152 58.1724L135.122 100.931L79.5 133L23.8783 100.931L7 58.1724L47.6614 33Z" fill="#F5F5F5"/>
<path d="M45.0265 1L79.5 24.7966L113.974 1L158 28.1862L139.725 74.3655L79.5 109L19.2751 74.3655L1 28.1862L45.0265 1Z" stroke="#3F654E" stroke-opacity="0.46"/>
<path d="M76.2061 52.7174C68.9444 53.1874 63.535 55.2516 63.5258 63.3796C63.5166 71.2126 69.2854 76.622 77.183 76.2811C88.7944 75.7834 93.1072 63.9785 88.1309 54.6618C81.1733 43.1703 55.2412 44.9489 54.8265 25.8915C54.5501 12.9623 66.0877 7 77.7082 7C85.2833 7 93.2361 9.0458 99.4934 13.3862L99.8066 13.6074L95.5031 27.7069L93.8259 24.5921C90.7295 18.8325 84.5461 13.5429 77.653 13.5429C71.9856 13.5429 65.4795 15.7822 65.6269 22.4265C65.6546 23.6706 65.9402 24.8502 66.5116 25.9468C70.2714 33.1993 89.679 35.9362 96.7195 44.4881C100.231 48.7456 102.562 53.9799 102.774 59.546C103.318 73.5165 90.3333 82.4093 77.4042 82.9714C65.2768 83.4967 52.1264 76.7695 51.3708 63.4809C50.5414 48.8193 65.5716 41.2259 76.7406 51.0863L78.4363 52.5792L76.2061 52.7174Z" fill="#3F654E"/>
<path d="M113.613 70.7253C116.664 70.7253 119.142 73.2042 119.142 76.2545C119.142 79.314 116.664 81.7837 113.613 81.7837C110.554 81.7837 108.084 79.3048 108.084 76.2545C108.075 73.2042 110.554 70.7253 113.613 70.7253Z" fill="#3F654E"/>
</svg>
