<svg width="52" height="53" viewBox="0 0 52 53" fill="none" xmlns="http://www.w3.org/2000/svg">
<path fill-rule="evenodd" clip-rule="evenodd" d="M20.2054 4.53552C19.7577 4.68193 19.277 4.69574 18.8216 4.57529C18.652 4.51652 18.5005 4.41503 18.3817 4.28066C18.263 4.14629 18.1811 3.98359 18.1439 3.80834V3.70609L18.6336 3.5811V3.68336C18.8045 4.34236 19.6075 4.2117 20.1086 4.08104C20.4204 4.01744 20.7142 3.88548 20.9686 3.69472C21.0448 3.63977 21.1028 3.56339 21.1353 3.47535C21.1678 3.3873 21.1732 3.2916 21.1508 3.20047V3.14935C21.1367 3.07557 21.1027 3.00699 21.0526 2.95096C21.0024 2.89493 20.938 2.85353 20.8661 2.8312C20.6178 2.78294 20.3626 2.78294 20.1143 2.8312L19.3227 2.93914C18.7533 3.01868 18.0414 2.9846 17.8649 2.31423V2.25742C17.8224 2.10493 17.8217 1.9439 17.8628 1.79105C17.9039 1.6382 17.9852 1.49911 18.0983 1.38822C18.4352 1.11327 18.8293 0.916588 19.2519 0.812429C19.6744 0.708271 20.115 0.699253 20.5415 0.786025C20.7068 0.845736 20.8541 0.946411 20.9697 1.07859C21.0853 1.21077 21.1652 1.37011 21.202 1.54161V1.64386L20.7123 1.76885V1.66659C20.5471 1.04167 19.8239 1.14393 19.3398 1.26891C19.0461 1.33041 18.7698 1.45657 18.5311 1.63818C18.4569 1.69202 18.4004 1.76673 18.369 1.85275C18.3375 1.93877 18.3325 2.03219 18.3546 2.12107V2.16652C18.3678 2.23336 18.3992 2.29528 18.4454 2.34541C18.4917 2.39554 18.5509 2.43193 18.6166 2.45057C18.8421 2.49648 19.0745 2.49648 19.3 2.45057L20.0972 2.34832C20.4488 2.28532 20.8104 2.30872 21.1508 2.41649C21.2722 2.46501 21.38 2.54196 21.4653 2.64085C21.5505 2.73973 21.6106 2.85763 21.6406 2.98459V3.04141C21.6862 3.19771 21.6869 3.36366 21.6426 3.52035C21.5983 3.67703 21.5108 3.81816 21.39 3.92765C21.0515 4.21674 20.6432 4.41257 20.2054 4.49575V4.53552ZM19.3057 12.5913V12.7617H18.1667V13.3014H19.2544V13.4661H18.1667V14.0342H19.3057V14.199H17.9845V12.614L19.3057 12.5913ZM20.5813 14.2047C20.383 14.2153 20.1856 14.17 20.0118 14.074C19.9497 14.0324 19.8992 13.9755 19.8653 13.9089C19.8314 13.8422 19.8152 13.768 19.8182 13.6934V13.665H20.0061V13.6934C20.0061 13.9206 20.1998 14.0399 20.5756 14.0399C20.7161 14.0462 20.8562 14.021 20.9856 13.9661C21.0266 13.9499 21.0616 13.9217 21.086 13.8851C21.1104 13.8486 21.1231 13.8055 21.1223 13.7616C21.1245 13.7267 21.1172 13.692 21.1011 13.661C21.0851 13.63 21.0609 13.6038 21.0312 13.5854C20.9302 13.5347 20.8196 13.5057 20.7066 13.5002L20.3649 13.4548C20.0118 13.415 19.8353 13.2844 19.8353 13.0514C19.8349 12.9857 19.8521 12.921 19.8851 12.864C19.9181 12.8071 19.9658 12.76 20.0232 12.7276C20.1844 12.6432 20.3654 12.604 20.5472 12.614C20.7453 12.5966 20.9441 12.6403 21.1166 12.739C21.1777 12.78 21.2271 12.8361 21.26 12.9018C21.293 12.9675 21.3083 13.0406 21.3046 13.1139H21.1166C21.1166 12.8924 20.9344 12.7787 20.5472 12.7787C20.4146 12.7717 20.2821 12.795 20.1599 12.8469C20.1199 12.8627 20.0855 12.8901 20.0611 12.9255C20.0368 12.9609 20.0236 13.0028 20.0232 13.0458C20.0219 13.0782 20.0291 13.1105 20.0441 13.1394C20.059 13.1683 20.0813 13.1928 20.1086 13.2105C20.2018 13.2545 20.3021 13.2814 20.4048 13.29L20.7465 13.3355C20.9 13.3433 21.0491 13.3902 21.1793 13.4718C21.2226 13.505 21.2572 13.5482 21.28 13.5977C21.3028 13.6472 21.3132 13.7015 21.3103 13.7559C21.3116 13.824 21.2942 13.8912 21.2601 13.9503C21.226 14.0094 21.1764 14.058 21.1166 14.0911C20.9398 14.1774 20.7436 14.2165 20.5472 14.2047H20.5813ZM21.6064 12.7617V12.5913H23.2237V12.7617H22.5062V14.1763H22.324V12.7617H21.6064ZM23.4458 14.2047C23.4291 14.2057 23.4123 14.2032 23.3967 14.1973C23.381 14.1914 23.3667 14.1823 23.3547 14.1706C23.3331 14.1475 23.3211 14.117 23.3211 14.0854C23.3211 14.0537 23.3331 14.0233 23.3547 14.0002C23.3843 13.9902 23.4163 13.9902 23.4458 14.0002C23.4736 13.9914 23.5035 13.9914 23.5313 14.0002C23.5484 14.0169 23.56 14.0383 23.5648 14.0616C23.5695 14.085 23.5672 14.1093 23.558 14.1313C23.5488 14.1533 23.5332 14.1721 23.5132 14.1851C23.4932 14.1982 23.4697 14.205 23.4458 14.2047ZM26.1965 14.1763H26.0142V12.898C25.912 12.9557 25.7955 12.9833 25.6783 12.9776H25.3992V12.8071H25.6612C25.7515 12.8132 25.8418 12.7956 25.9231 12.756C25.9524 12.74 25.9765 12.716 25.9926 12.6868C26.0087 12.6576 26.0162 12.6245 26.0142 12.5913H26.1965V14.1763ZM27.6202 12.5685C27.7618 12.5653 27.9028 12.5884 28.0359 12.6367C28.1446 12.6805 28.2406 12.7508 28.315 12.8412C28.3772 12.9334 28.409 13.0426 28.4061 13.1537V13.5741C28.4106 13.6623 28.3944 13.7503 28.3588 13.8312C28.3232 13.912 28.2692 13.9835 28.2011 14.0399C28.035 14.1567 27.8345 14.2147 27.6316 14.2047C27.5004 14.2055 27.3698 14.1863 27.2443 14.1479C27.1449 14.1156 27.0562 14.0566 26.9881 13.9774C26.9298 13.9048 26.8977 13.8148 26.8969 13.7218H27.0849C27.085 13.7699 27.0991 13.8169 27.1254 13.8572C27.1516 13.8975 27.189 13.9294 27.2329 13.949C27.3559 14.0122 27.4935 14.0416 27.6316 14.0342C27.7886 14.0429 27.9443 14.0011 28.0758 13.915C28.1263 13.8753 28.1666 13.8242 28.1933 13.7659C28.22 13.7076 28.2325 13.6438 28.2296 13.5798V13.3866C28.0535 13.525 27.8325 13.5937 27.6088 13.5798C27.4114 13.5957 27.2136 13.5543 27.0393 13.4605C26.9792 13.4239 26.9301 13.3719 26.8971 13.31C26.864 13.248 26.8482 13.1784 26.8514 13.1082V13.0685C26.8493 12.9949 26.8666 12.9221 26.9016 12.8573C26.9366 12.7925 26.988 12.738 27.0507 12.6992C27.2236 12.6008 27.4216 12.5554 27.6202 12.5685ZM27.6202 13.4093C27.7479 13.4125 27.8751 13.3933 27.996 13.3525C28.0911 13.324 28.1749 13.2664 28.2353 13.1878V13.148C28.2369 13.0884 28.2231 13.0293 28.1951 12.9766C28.1672 12.9238 28.1261 12.8792 28.0758 12.8469C27.9398 12.7674 27.7833 12.7298 27.6259 12.739C27.4823 12.732 27.3393 12.7613 27.2101 12.8242C27.1657 12.8463 27.1283 12.8804 27.1022 12.9225C27.076 12.9647 27.0622 13.0132 27.0621 13.0628V13.1026C27.0621 13.3071 27.25 13.4093 27.6316 13.4093H27.6202ZM29.7558 14.2047C29.6125 14.2079 29.4704 14.1787 29.3401 14.1195C29.224 14.069 29.1251 13.9862 29.0553 13.8809C28.9903 13.777 28.9567 13.6567 28.9585 13.5343V13.2389C28.9575 13.1148 28.991 12.9929 29.0553 12.8867C29.1257 12.7833 29.2246 12.7024 29.3401 12.6538C29.4704 12.5976 29.6109 12.5687 29.7529 12.5687C29.8949 12.5687 30.0354 12.5976 30.1658 12.6538C30.2788 12.7038 30.3755 12.7845 30.4449 12.8867C30.5092 12.9929 30.5427 13.1148 30.5417 13.2389V13.5343C30.5427 13.6584 30.5092 13.7803 30.4449 13.8866C30.3755 13.9887 30.2788 14.0694 30.1658 14.1195C30.0372 14.1781 29.8971 14.2072 29.7558 14.2047ZM29.7558 14.0342C29.9136 14.0426 30.0692 13.9942 30.1943 13.8979C30.2481 13.8541 30.291 13.7985 30.3196 13.7354C30.3483 13.6724 30.3619 13.6035 30.3594 13.5343V13.2389C30.3621 13.1445 30.3363 13.0515 30.2854 12.9719C30.2329 12.8962 30.1598 12.8371 30.0747 12.8015C29.972 12.7584 29.8615 12.7371 29.7501 12.739C29.5904 12.7298 29.4328 12.7781 29.3059 12.8753C29.2521 12.9191 29.2092 12.9747 29.1806 13.0378C29.1519 13.1009 29.1383 13.1697 29.1407 13.2389V13.5343C29.1383 13.6035 29.1519 13.6724 29.1806 13.7354C29.2092 13.7985 29.2521 13.8541 29.3059 13.8979C29.435 13.995 29.5944 14.0433 29.7558 14.0342ZM32.3868 13.3639C32.6146 13.4321 32.7342 13.5514 32.7342 13.7332C32.7358 13.8027 32.7173 13.8713 32.6809 13.9307C32.6446 13.9901 32.5919 14.0379 32.5292 14.0683C32.338 14.1541 32.1291 14.1931 31.9198 14.182C31.7105 14.1937 31.5014 14.1547 31.3105 14.0683C31.2467 14.0387 31.1928 13.9913 31.1554 13.9318C31.118 13.8724 31.0987 13.8034 31.0998 13.7332C31.0998 13.5514 31.2193 13.4321 31.4471 13.3639C31.3695 13.3404 31.3003 13.295 31.2478 13.2332C31.1989 13.1787 31.1724 13.1076 31.1738 13.0344V13.006C31.1746 12.9198 31.207 12.837 31.2649 12.7731C31.3395 12.7028 31.429 12.6504 31.5269 12.6197C31.6547 12.5837 31.7871 12.5665 31.9198 12.5685C32.0508 12.5661 32.1813 12.5833 32.3071 12.6197C32.4067 12.6462 32.4973 12.6992 32.5691 12.7731C32.599 12.8039 32.6224 12.8404 32.6381 12.8804C32.6537 12.9204 32.6612 12.9631 32.6602 13.006V13.0344C32.6611 13.1066 32.6369 13.1768 32.5918 13.2332C32.5381 13.2962 32.4667 13.3417 32.3868 13.3639ZM31.3617 13.0287C31.3617 13.2105 31.544 13.3014 31.9312 13.3014C32.3185 13.3014 32.5007 13.2105 32.5007 13.0287C32.5003 12.9843 32.4864 12.9411 32.4611 12.9046C32.4357 12.8681 32.3999 12.8401 32.3583 12.8242C32.2262 12.7722 32.0845 12.7489 31.9426 12.756C31.8007 12.7484 31.6589 12.7716 31.5269 12.8242C31.4849 12.8394 31.4487 12.8673 31.4232 12.9039C31.3977 12.9405 31.3842 12.9841 31.3845 13.0287H31.3617ZM32.552 13.7445C32.5518 13.6978 32.5369 13.6523 32.5093 13.6145C32.4817 13.5768 32.4428 13.5487 32.3982 13.5343C32.2447 13.4807 32.0822 13.4575 31.9198 13.4661C31.7574 13.4566 31.5947 13.4798 31.4415 13.5343C31.3969 13.5487 31.358 13.5768 31.3304 13.6145C31.3028 13.6523 31.2878 13.6978 31.2877 13.7445C31.289 13.7903 31.3045 13.8345 31.332 13.8711C31.3596 13.9077 31.3978 13.935 31.4415 13.949C31.595 14.0027 31.7574 14.0258 31.9198 14.0172C32.0803 14.0254 32.2409 14.0022 32.3925 13.949C32.4377 13.9367 32.4777 13.9102 32.5064 13.8733C32.5352 13.8364 32.5511 13.7912 32.552 13.7445ZM34.9153 34.9008C35.2014 34.9008 35.4811 34.9854 35.719 35.144C35.9568 35.3025 36.1423 35.5279 36.2518 35.7916C36.3612 36.0552 36.3899 36.3454 36.3341 36.6253C36.2782 36.9052 36.1405 37.1623 35.9382 37.3641C35.7359 37.5659 35.4781 37.7034 35.1976 37.759C34.917 37.8147 34.6261 37.7861 34.3618 37.6769C34.0975 37.5677 33.8716 37.3827 33.7126 37.1455C33.5537 36.9081 33.4689 36.6292 33.4689 36.3438C33.4689 35.9611 33.6212 35.594 33.8925 35.3234C34.1638 35.0528 34.5317 34.9008 34.9153 34.9008ZM25.1429 30.2082C23.2465 30.3332 21.8342 30.8729 21.8285 32.9863C21.811 33.4498 21.893 33.9118 22.069 34.3411C22.245 34.7705 22.511 35.1574 22.8491 35.4758C23.1872 35.7943 23.5897 36.037 24.0295 36.1877C24.4693 36.3383 24.9363 36.3935 25.3992 36.3494C28.4289 36.2188 29.5564 33.1453 28.2466 30.7138C26.43 27.7199 19.6588 28.1858 19.5506 23.2205C19.4765 19.8517 22.4891 18.3007 25.5245 18.3007C27.5464 18.2727 29.5303 18.8505 31.2194 19.9596L31.2991 20.0164L30.1601 23.692L29.7216 22.8797C28.9129 21.3799 27.2956 19.9994 25.496 19.9994C24.0153 19.9994 22.3183 20.5675 22.3581 22.3172C22.3612 22.6357 22.4392 22.949 22.5859 23.2319C23.5711 25.1237 28.6396 25.8395 30.479 28.0665C31.4237 29.1649 31.9818 30.5417 32.0679 31.9864C32.2046 35.628 28.8161 37.9458 25.439 38.0878C22.2727 38.2299 18.8387 36.4744 18.6394 33.0147C18.4229 29.1913 22.3524 27.2143 25.2682 29.7821L25.7124 30.1741L25.1429 30.2082ZM28.3833 3.93901C28.002 3.91391 27.6317 3.80113 27.3013 3.60951C27.0084 3.44092 26.774 3.18725 26.6293 2.88234C26.4834 2.56646 26.4282 2.21641 26.4698 1.87111V1.78589C26.4943 1.43646 26.6145 1.10045 26.8172 0.814432C27.0202 0.552368 27.2952 0.354957 27.6088 0.246326C27.9737 0.117466 28.3635 0.0746854 28.7478 0.121342C29.1271 0.147311 29.4954 0.260057 29.8241 0.450844C30.1117 0.624322 30.343 0.876787 30.4904 1.17802C30.6387 1.49522 30.6959 1.84724 30.6556 2.19492V2.27446C30.6291 2.62438 30.507 2.96037 30.3025 3.24592C30.1011 3.5071 29.8281 3.70443 29.5166 3.81403C29.1513 3.94091 28.7619 3.98364 28.3776 3.93901H28.3833ZM35.4336 5.35928L37.9507 6.55797L37.7628 6.98974L34.7844 5.57516L36.4017 2.20061L36.8573 2.42217L35.445 5.37063L35.4336 5.35928ZM42.2674 10.9324C42.0058 10.654 41.811 10.3198 41.6979 9.95525C41.5984 9.63517 41.5984 9.29251 41.6979 8.97242C41.8036 8.63896 42.0009 8.34176 42.2674 8.1146L42.3301 8.05778C42.5893 7.81922 42.9079 7.65442 43.2527 7.58057C43.5822 7.52032 43.9222 7.55581 44.2322 7.68283C44.583 7.83436 44.8946 8.06361 45.1434 8.35319C45.4064 8.62838 45.6014 8.96103 45.7129 9.32465C45.8108 9.64691 45.8108 9.9909 45.7129 10.3132C45.6028 10.6429 45.4062 10.9372 45.1434 11.1653L45.0807 11.2221C44.8272 11.4624 44.5118 11.6277 44.1695 11.6993C43.8395 11.7601 43.4988 11.7226 43.19 11.5914C42.8409 11.4421 42.5296 11.217 42.2788 10.9324H42.2674ZM50.3997 19.2211L47.0227 18.7325L46.8575 18.2723L49.1355 15.7329L46.288 16.7612L46.1172 16.2896L49.6366 15.0114L49.8587 15.6306L47.4954 18.3007L51.0262 18.8234L51.2483 19.4426L47.7345 20.7209L47.558 20.2493L50.4054 19.2211H50.3997ZM51.9943 25.9417L48.2528 25.9702V25.4589L52 25.4305V25.9417H51.9943ZM50.5478 32.0489L47.7004 31.1797L47.8427 30.7025L51.4248 31.7876L51.2881 32.2477L47.6719 33.8384L50.5193 34.7076L50.377 35.1791L46.7892 34.0941L46.9315 33.6339L50.5478 32.0489ZM25.365 50.4271L22.8422 50.1942L22.6884 51.8247L22.1816 51.7792L22.529 48.0581L23.0358 48.1036L22.882 49.734L25.4106 49.9669L25.5587 48.3365L26.0655 48.3819L25.7181 52.103L25.2169 52.0576L25.365 50.4271ZM16.2532 46.0072C16.6006 46.1642 16.9082 46.3972 17.153 46.689C17.3651 46.9486 17.4958 47.2647 17.5288 47.598C17.5575 47.9469 17.4885 48.297 17.3295 48.6092L17.2954 48.683C17.1486 49.0028 16.9185 49.2775 16.6291 49.4784C16.3482 49.6618 16.0194 49.7586 15.6837 49.7567C15.302 49.7505 14.9265 49.6593 14.5846 49.4897C14.2382 49.3311 13.9325 49.096 13.6905 48.8023C13.464 48.5476 13.3192 48.231 13.2748 47.8934C13.2461 47.5444 13.3151 47.1943 13.4741 46.8821L13.5083 46.8083C13.6531 46.4905 13.8814 46.2177 14.1689 46.0186C14.4497 45.8352 14.7785 45.7384 15.1142 45.7402C15.4942 45.7458 15.8681 45.837 16.2077 46.0072H16.2532ZM7.36348 43.5985L9.69271 41.2977L10.0515 41.6612L7.72226 43.9337L8.86124 45.104L8.52523 45.4335L5.84866 42.735L6.18464 42.4055L7.32362 43.5758L7.36348 43.5985ZM3.02398 37.5311L4.08322 37.0312L3.00122 34.7588L3.42263 34.5599L4.50464 36.8323L5.56391 36.3267L4.42494 33.9691L4.84635 33.7646L6.19034 36.6051L2.81328 38.2128L1.46359 35.3723L1.88501 35.1735L3.02398 37.5368V37.5311ZM3.26316 28.8618L2.96705 26.0895L3.42833 26.0383L3.78141 29.3106L0.056935 29.7083L0 29.2084L3.26316 28.8618ZM28.4004 3.4618C28.8158 3.52361 29.2396 3.43059 29.5906 3.20047C29.7418 3.08215 29.8655 2.93247 29.953 2.7618C30.0405 2.59112 30.0898 2.40352 30.0975 2.21197V2.12107C30.1246 1.9302 30.1096 1.73573 30.0535 1.55125C29.9975 1.36677 29.9016 1.19674 29.7728 1.05304C29.4633 0.78423 29.0772 0.618863 28.6686 0.580145C28.2601 0.541427 27.8496 0.631299 27.4949 0.837152C27.3429 0.955185 27.2184 1.10467 27.13 1.27532C27.0415 1.44597 26.9911 1.63373 26.9824 1.82566V1.92224C26.9541 2.11225 26.9686 2.30614 27.0247 2.48988C27.0809 2.67362 27.1773 2.8426 27.307 2.98459C27.6137 3.27981 28.0199 3.45002 28.446 3.4618H28.4004ZM42.575 10.6086C42.8385 10.9355 43.2136 11.1539 43.6285 11.2221C43.8195 11.2375 44.0115 11.2114 44.1914 11.1457C44.3713 11.08 44.5348 10.9762 44.6707 10.8415L44.739 10.779C44.8893 10.6581 45.0114 10.5061 45.0969 10.3334C45.1825 10.1608 45.2294 9.97166 45.2345 9.77914C45.1865 9.36858 45.0107 8.98337 44.7318 8.67766C44.4529 8.37195 44.085 8.16112 43.6798 8.07482C43.4882 8.05671 43.295 8.08091 43.1139 8.14572C42.9328 8.21052 42.7682 8.31434 42.6319 8.44978L42.5636 8.51795C42.4136 8.63749 42.292 8.78859 42.2073 8.96044C42.1227 9.1323 42.0771 9.32067 42.0738 9.51213C42.0918 9.94025 42.2707 10.3459 42.575 10.6483V10.6086ZM15.9912 46.439C15.6228 46.2379 15.193 46.1793 14.7839 46.2743C14.6008 46.3322 14.4326 46.4294 14.2909 46.5589C14.1493 46.6884 14.0377 46.8472 13.9639 47.0242L13.924 47.1094C13.8298 47.2822 13.7748 47.4735 13.763 47.6699C13.7512 47.8662 13.7828 48.0628 13.8557 48.2456C14.0372 48.6226 14.3514 48.9198 14.7384 49.0807C15.1079 49.285 15.5414 49.3419 15.9514 49.2398C16.1349 49.1825 16.3034 49.0856 16.4452 48.956C16.5869 48.8264 16.6983 48.6672 16.7714 48.4899L16.817 48.4047C16.9083 48.2359 16.9612 48.0492 16.972 47.8577C16.9829 47.6663 16.9513 47.4748 16.8797 47.2969C16.7026 46.9113 16.3879 46.6055 15.9969 46.439H15.9912Z" fill="white"/>
</svg>
