<svg width="61" height="84" viewBox="0 0 61 84" fill="none" xmlns="http://www.w3.org/2000/svg">
<path d="M4.38551 0.642851V0.082044L0 0.15683V5.37204H4.38551V4.82994H0.604907V2.9607H4.21533V2.4186H0.604907V0.642851H4.38551Z" fill="#3F654E"/>
<path d="M8.55785 5.39348C7.92036 5.41604 7.28825 5.26664 6.72947 4.9608C6.52309 4.8237 6.35567 4.63663 6.24316 4.41739C6.13065 4.19816 6.07676 3.95404 6.08671 3.70838V3.61494H6.71054V3.70838C6.71054 4.45608 7.35325 4.84865 8.60084 4.84865C9.06719 4.86939 9.53224 4.78634 9.9618 4.60564C10.0977 4.55242 10.2139 4.45948 10.295 4.33924C10.3761 4.21901 10.4182 4.07722 10.4156 3.93274C10.4228 3.81815 10.3984 3.70374 10.3452 3.60171C10.2919 3.49968 10.2117 3.41379 10.1131 3.35322C9.77769 3.18627 9.41061 3.09076 9.03558 3.07285L7.90144 2.92333C6.72945 2.79248 6.14348 2.36258 6.14348 1.59619C6.14206 1.37974 6.19914 1.16685 6.30881 0.979532C6.41848 0.792213 6.57667 0.637255 6.76719 0.530701C7.30212 0.253118 7.90316 0.12391 8.50635 0.15683C9.16414 0.0997674 9.82382 0.243284 10.3967 0.568068C10.5993 0.703097 10.7633 0.887669 10.8726 1.10383C10.9819 1.31999 11.0327 1.56041 11.0204 1.80177H10.3967C10.3967 1.07277 9.79176 0.698928 8.50635 0.698928C8.0662 0.675862 7.62655 0.752577 7.22096 0.923229C7.08811 0.975285 6.97388 1.06533 6.89307 1.18187C6.81225 1.29841 6.76842 1.43617 6.76719 1.57747C6.76285 1.68439 6.78671 1.79059 6.83642 1.88563C6.88613 1.98067 6.96003 2.06129 7.05078 2.11957C7.35993 2.26434 7.69292 2.35295 8.03378 2.38124L9.16791 2.53081C9.67769 2.55649 10.1723 2.71093 10.6046 2.97941C10.7484 3.08852 10.8632 3.23064 10.9389 3.3935C11.0147 3.55635 11.0491 3.73503 11.0393 3.91403C11.0437 4.13826 10.9862 4.35941 10.8729 4.55373C10.7597 4.74805 10.595 4.90818 10.3967 5.01688C9.82525 5.29345 9.19278 5.42286 8.55785 5.39348Z" fill="#3F654E"/>
<path d="M12.0223 0.082044V0.642851H14.4041V5.29725H15.009V0.642851H17.3907V0.082044H12.0223Z" fill="#3F654E"/>
<path d="M17.9647 5.36645C18.0168 5.38577 18.0724 5.39406 18.1279 5.39075C18.2073 5.39189 18.2852 5.36945 18.3515 5.3264C18.4179 5.28335 18.4696 5.22166 18.5001 5.14922C18.5306 5.07679 18.5385 4.99697 18.5227 4.92007C18.5069 4.84317 18.4682 4.7727 18.4115 4.71779C18.3192 4.68909 18.2202 4.68909 18.1279 4.71779C18.0298 4.68503 17.9236 4.68503 17.8255 4.71779C17.7538 4.79392 17.7138 4.8941 17.7138 4.99817C17.7138 5.10223 17.7538 5.20247 17.8255 5.2786C17.8652 5.31721 17.9126 5.34713 17.9647 5.36645Z" fill="#3F654E"/>
<path d="M26.6532 5.29725H27.2581V0.082044H26.6532C26.6598 0.191434 26.6348 0.30047 26.5813 0.396418C26.5278 0.492367 26.4479 0.571311 26.3508 0.624142C26.0808 0.754339 25.7809 0.812332 25.4812 0.792366H24.6116V1.35317H25.538C25.9273 1.37201 26.3139 1.28124 26.6532 1.09145V5.29725Z" fill="#3F654E"/>
<path d="M58.8661 74.2875C58.0765 73.7658 57.1482 73.4873 56.1986 73.4873C54.9252 73.4873 53.7039 73.9875 52.8035 74.8779C51.903 75.7683 51.3973 76.976 51.3973 78.2352C51.3973 79.1743 51.6788 80.0922 52.2064 80.8729C52.734 81.6537 53.4838 82.2623 54.3611 82.6217C55.2385 82.981 56.2039 83.075 57.1353 82.8918C58.0667 82.7086 58.9222 82.2565 59.5937 81.5925C60.2652 80.9285 60.7225 80.0824 60.9077 79.1614C61.093 78.2404 60.9979 77.2858 60.6345 76.4183C60.2711 75.5507 59.6556 74.8092 58.8661 74.2875Z" fill="#3F654E"/>
<path d="M12.7595 67.188C12.7784 60.2344 17.4664 58.4586 23.7611 58.0473L25.6514 57.9352L24.1769 56.6454C14.4986 48.1964 1.45546 54.7014 2.17378 67.2814C2.83538 78.6651 14.2339 84.441 24.744 83.9737C35.9534 83.5064 47.2008 75.8799 46.7471 63.8981C46.4612 59.1445 44.6088 54.6144 41.4732 51.0003C35.3675 43.6729 18.5438 41.3176 15.2735 35.093C14.7867 34.1622 14.5278 33.1314 14.5175 32.0836C14.3852 26.3263 20.0183 24.457 24.9331 24.457C30.9064 24.457 36.2748 28.9993 38.9591 33.9341L40.4146 36.6071L44.1952 24.5131L43.9306 24.3261C38.324 20.677 31.739 18.7757 25.0276 18.868C14.9523 18.868 4.95259 23.971 5.19833 35.0556C5.55748 51.3928 28.0331 49.8601 34.0631 59.711C38.4108 67.7113 34.668 77.8239 24.6116 78.2539C23.0751 78.3988 21.525 78.2173 20.0652 77.7216C18.6053 77.2258 17.2695 76.4272 16.1472 75.3794C15.0249 74.3315 14.1421 73.0586 13.5578 71.6459C12.9735 70.2331 12.7014 68.7132 12.7595 67.188Z" fill="#3F654E"/>
<path fill-rule="evenodd" clip-rule="evenodd" d="M39.0725 5.39075C38.597 5.40127 38.1253 5.30537 37.6926 5.11032C37.3074 4.94443 36.9792 4.67177 36.7474 4.32527C36.5316 3.98367 36.42 3.58773 36.426 3.185V2.21301C36.4226 1.80473 36.5339 1.40354 36.7474 1.05409C36.9811 0.713775 37.3093 0.447595 37.6926 0.28769C38.1254 0.103039 38.5917 0.00777154 39.063 0.00777154C39.5344 0.00777154 40.0007 0.103039 40.4334 0.28769C40.8086 0.45238 41.1297 0.717925 41.3598 1.05409C41.5733 1.40354 41.6845 1.80473 41.6811 2.21301V3.185C41.6845 3.59327 41.5733 3.99452 41.3598 4.34398C41.1297 4.68014 40.8086 4.94563 40.4334 5.11032C40.0067 5.30323 39.5416 5.39909 39.0725 5.39075ZM40.5281 4.38134C40.1128 4.69823 39.5963 4.85738 39.0725 4.82994C38.5367 4.85978 38.0076 4.70084 37.5792 4.38134C37.4007 4.23727 37.2582 4.05432 37.1631 3.84678C37.068 3.63923 37.0228 3.41271 37.0309 3.185V2.21301C37.0228 1.9853 37.068 1.75883 37.1631 1.55129C37.2582 1.34375 37.4007 1.16074 37.5792 1.01667C38.0003 0.696984 38.5236 0.537771 39.0536 0.568068C39.4232 0.561962 39.7902 0.632014 40.131 0.773714C40.4135 0.890901 40.6561 1.08544 40.8304 1.33446C40.9995 1.59637 41.0851 1.90244 41.0762 2.21301V3.185C41.0843 3.41271 41.0391 3.63923 40.944 3.84678C40.8489 4.05432 40.7066 4.23727 40.5281 4.38134Z" fill="#3F654E"/>
<path fill-rule="evenodd" clip-rule="evenodd" d="M48.9587 3.83924C48.9587 3.24109 48.5618 2.84856 47.8057 2.62425C48.0708 2.55125 48.3077 2.4015 48.4861 2.1943C48.6359 2.00867 48.716 1.77755 48.713 1.54011V1.44661C48.7164 1.30542 48.6915 1.16495 48.6396 1.03338C48.5877 0.901813 48.5098 0.781762 48.4106 0.680215C48.1723 0.437238 47.8717 0.262821 47.541 0.17554C47.1235 0.0559655 46.6902 -0.000740154 46.2556 0.00731574C45.8149 0.000438974 45.3755 0.0571041 44.9513 0.17554C44.6266 0.276543 44.3293 0.449089 44.0818 0.680215C43.8896 0.890508 43.782 1.16317 43.7793 1.44661V1.54011C43.7746 1.78106 43.8625 2.01478 44.0251 2.1943C44.1991 2.39762 44.4288 2.54693 44.6866 2.62425C43.9305 2.84856 43.5336 3.24109 43.5336 3.83924C43.53 4.07022 43.5942 4.29727 43.7183 4.49298C43.8424 4.68868 44.0211 4.84466 44.233 4.94209C44.8668 5.22636 45.5608 5.35466 46.2556 5.31596C46.9503 5.35245 47.6438 5.22425 48.2782 4.94209C48.4865 4.84196 48.6613 4.68482 48.782 4.48933C48.9026 4.29383 48.9639 4.0682 48.9587 3.83924ZM44.4031 1.5214C44.4031 2.11956 45.008 2.4186 46.2934 2.4186C47.5788 2.4186 48.1837 2.11956 48.1837 1.5214C48.1822 1.37532 48.1364 1.23306 48.0521 1.11307C47.9678 0.993083 47.849 0.900875 47.7112 0.848443C47.2726 0.677287 46.8022 0.600817 46.3313 0.624142C45.8603 0.59905 45.3894 0.675581 44.9513 0.848443C44.8119 0.898624 44.6916 0.990298 44.607 1.11079C44.5224 1.23128 44.4776 1.37471 44.4787 1.5214H44.4031ZM48.2121 3.44894C48.3038 3.57317 48.3534 3.72289 48.3538 3.87667C48.3511 4.03036 48.2981 4.179 48.2027 4.30034C48.1072 4.42168 47.9746 4.50914 47.8246 4.54957C47.3213 4.72451 46.7884 4.80069 46.2556 4.77387C45.7166 4.80218 45.1772 4.72599 44.6678 4.54957C44.5229 4.50328 44.3959 4.41371 44.3045 4.29321C44.2131 4.17271 44.1617 4.02723 44.1574 3.87667C44.1578 3.72289 44.2074 3.57317 44.2991 3.44894C44.3907 3.32472 44.5198 3.23231 44.6678 3.185C45.1765 3.00568 45.7165 2.9294 46.2556 2.9607C46.7946 2.93239 47.3341 3.00858 47.8435 3.185C47.9915 3.23231 48.1205 3.32472 48.2121 3.44894Z" fill="#3F654E"/>
<path fill-rule="evenodd" clip-rule="evenodd" d="M31.9839 0.00731574C32.4539 -0.00342112 32.9219 0.0726413 33.3637 0.231617C33.7246 0.37574 34.043 0.60709 34.29 0.904516C34.4965 1.20775 34.6023 1.56717 34.5925 1.93263V3.31586C34.6073 3.60607 34.5536 3.8957 34.4354 4.16178C34.3173 4.42785 34.1381 4.66305 33.912 4.84865C33.3606 5.2327 32.6953 5.42352 32.0217 5.39075C31.5861 5.39332 31.1527 5.33028 30.7363 5.20381C30.4061 5.0977 30.1117 4.90364 29.8856 4.643C29.6923 4.40408 29.5857 4.10787 29.5831 3.80188H30.207C30.2075 3.96005 30.2542 4.11467 30.3414 4.24729C30.4285 4.3799 30.5525 4.48486 30.6985 4.54957C31.1066 4.75735 31.5633 4.8541 32.0217 4.82994C32.543 4.85856 33.0598 4.72098 33.4961 4.43742C33.6636 4.30692 33.7974 4.1388 33.8861 3.947C33.9749 3.75521 34.0162 3.54528 34.0065 3.33457V2.69903C33.4221 3.15425 32.6885 3.38051 31.946 3.33457C31.2908 3.38704 30.6342 3.25071 30.0557 2.94204C29.8563 2.82179 29.6933 2.65075 29.5836 2.44689C29.4739 2.24303 29.4215 2.01377 29.432 1.78307V1.65226C29.4251 1.41019 29.4825 1.17056 29.5986 0.957342C29.7147 0.744121 29.8854 0.564736 30.0935 0.437205C30.6673 0.113517 31.3247 -0.0359686 31.9839 0.00731574ZM33.2314 2.58688C32.8299 2.72113 32.4076 2.78436 31.9839 2.77376H32.0217C30.7552 2.77376 30.1314 2.43734 30.1314 1.76441V1.63355C30.1316 1.47048 30.1776 1.31065 30.2644 1.172C30.3512 1.03334 30.4752 0.921305 30.6228 0.848443C31.0516 0.641677 31.5263 0.54525 32.0028 0.568068C32.5251 0.537869 33.0447 0.661465 33.4961 0.923229C33.6631 1.02935 33.7995 1.17631 33.8923 1.34987C33.985 1.52343 34.0309 1.71771 34.0254 1.91393V2.04479C33.8249 2.30345 33.5471 2.49313 33.2314 2.58688Z" fill="#3F654E"/>
</svg>
