<svg width="105" height="159" viewBox="0 0 105 159" fill="none" xmlns="http://www.w3.org/2000/svg">
<g filter="url(#filter0_d_495_13214)">
<circle cx="53.0527" cy="133" r="10" fill="#3F654E"/>
<circle cx="53.0527" cy="133" r="12" stroke="white" stroke-width="4"/>
</g>
<path d="M52.4096 110C21.1198 110 0 85.2232 0 54.7909C0 24.3657 21.2544 0 52.4096 0C83.5648 0 104.819 24.3586 104.819 54.7909C104.819 85.2232 83.6924 110 52.4096 110Z" fill="#3F654E"/>
<path d="M51.7356 65.5491C46.1509 65.9105 41.9907 67.4981 41.9836 73.749C41.9765 79.7731 46.4131 83.9332 52.4868 83.671C61.4167 83.2883 64.7335 74.2096 60.9064 67.0445C55.5556 58.2068 35.6123 59.5746 35.2933 44.9183C35.0807 34.975 43.9539 30.3896 52.8908 30.3896C58.7165 30.3896 64.8326 31.963 69.6448 35.3011L69.8858 35.4712L66.5761 46.3145L65.2863 43.9191C62.905 39.4896 58.1495 35.4215 52.8483 35.4215C48.4897 35.4215 43.4932 37.1437 43.5995 42.2536C43.6207 43.2104 43.8405 44.1175 44.2799 44.9609C47.1714 50.5385 62.097 52.6434 67.5116 59.2203C70.2118 62.4945 72.0049 66.5201 72.1679 70.8007C72.5861 81.5449 62.6002 88.384 52.6569 88.8163C43.3302 89.2203 33.2168 84.0466 32.6356 73.8269C31.9978 62.5512 43.557 56.7114 52.1467 64.2947L53.4507 65.4428L51.7356 65.5491Z" fill="white"/>
<path d="M80.5101 79.3977C82.856 79.3977 84.7624 81.3042 84.7624 83.65C84.7624 86.0029 82.856 87.9023 80.5101 87.9023C78.1572 87.9023 76.2578 85.9959 76.2578 83.65C76.2578 81.2971 78.1643 79.3977 80.5101 79.3977Z" fill="white"/>
<path d="M35.4573 15.1524V15.6414H32.105V17.236H35.3155V17.7251H32.105V19.3268H35.4573V19.8158H31.5664V15.1382H35.4573V15.1524ZM39.2205 19.9079C38.4764 19.9079 37.9094 19.7803 37.5338 19.5252C37.1511 19.2701 36.9597 18.8944 36.9597 18.3983V18.3204H37.4984V18.3983C37.4984 19.0787 38.0795 19.4189 39.2489 19.4189C39.7805 19.4189 40.1844 19.348 40.4608 19.2134C40.7372 19.0787 40.8719 18.8732 40.8719 18.611V18.5472C40.8719 18.3062 40.7797 18.129 40.5955 18.0156C40.4112 17.9022 40.0923 17.8172 39.6458 17.7605L38.6323 17.64C37.5976 17.5195 37.0802 17.1227 37.0802 16.4494V16.3785C37.0802 15.9674 37.2645 15.6485 37.6259 15.4217C37.9874 15.1949 38.5047 15.0815 39.1709 15.0815C39.8796 15.0815 40.4183 15.2091 40.7797 15.4572C41.1483 15.7052 41.3255 16.0738 41.3255 16.5557V16.6336H40.7868V16.5557C40.7868 15.9037 40.2482 15.5706 39.1709 15.5706C38.6748 15.5706 38.2992 15.6414 38.0299 15.7761C37.7606 15.9107 37.633 16.1092 37.633 16.3643V16.4281C37.633 16.6336 37.7181 16.7966 37.8952 16.9029C38.0653 17.0093 38.3559 17.0943 38.7599 17.1439L39.7734 17.2715C40.3545 17.3494 40.7726 17.4841 41.0349 17.6754C41.2971 17.8668 41.4247 18.1503 41.4247 18.5188V18.5897C41.4247 19.0149 41.2333 19.3409 40.8577 19.5677C40.475 19.7945 39.9293 19.9079 39.2205 19.9079ZM42.2468 15.6485V15.1595H47.0023V15.6485H44.8974V19.8299H44.3517V15.6485H42.2468ZM47.6472 19.9079C47.5409 19.9079 47.4559 19.8725 47.3921 19.8087C47.3283 19.7449 47.2928 19.6599 47.2928 19.5536C47.2928 19.4543 47.3283 19.3693 47.3921 19.3055C47.4559 19.2417 47.548 19.2063 47.6472 19.2063C47.7535 19.2063 47.8385 19.2417 47.9023 19.3055C47.9661 19.3693 48.0016 19.4543 48.0016 19.5536C48.0016 19.6599 47.9661 19.7449 47.9023 19.8087C47.8385 19.8796 47.7535 19.9079 47.6472 19.9079ZM54.9399 19.8299H54.4083V16.0454C54.1745 16.2084 53.8414 16.2864 53.4162 16.2864H52.6011V15.7832H53.3736C53.7209 15.7832 53.9831 15.7336 54.1532 15.6273C54.3233 15.528 54.4083 15.365 54.4083 15.1524H54.9399V19.8299ZM59.1426 15.0745C59.6104 15.0745 60.0214 15.1453 60.3758 15.2871C60.7301 15.4288 60.9995 15.6273 61.1837 15.8895C61.368 16.1446 61.4672 16.4494 61.4672 16.7966V18.0511C61.4672 18.6322 61.2617 19.0858 60.8577 19.4118C60.4466 19.7378 59.8797 19.9008 59.1639 19.9008C58.7244 19.9008 58.3488 19.8441 58.0228 19.7307C57.6968 19.6103 57.4488 19.4472 57.2787 19.2346C57.1015 19.022 57.0165 18.7669 57.0165 18.4763V18.4125H57.5551V18.4763C57.5551 18.7527 57.7039 18.9795 57.9874 19.1496C58.278 19.3126 58.6678 19.3976 59.1639 19.3976C59.7237 19.3976 60.1561 19.2772 60.4679 19.0433C60.7797 18.8094 60.9286 18.4763 60.9286 18.0582V17.4912C60.5033 17.8739 59.9009 18.0582 59.1001 18.0582C58.3914 18.0582 57.8527 17.9377 57.4842 17.7038C57.1157 17.4699 56.9243 17.1227 56.9243 16.6691V16.5628C56.9243 16.095 57.1227 15.7336 57.5196 15.4713C57.9094 15.2091 58.4552 15.0745 59.1426 15.0745ZM59.1071 17.562C59.5253 17.562 59.8938 17.5054 60.2127 17.392C60.5317 17.2786 60.7726 17.1156 60.9215 16.9171V16.7966C60.9215 16.4281 60.7656 16.1304 60.4466 15.9107C60.1277 15.691 59.6883 15.5847 59.1284 15.5847C58.6111 15.5847 58.2071 15.6698 57.9094 15.8399C57.6188 16.01 57.47 16.2438 57.47 16.5486V16.662C57.47 17.2644 58.0157 17.562 59.1071 17.562ZM67.3495 19.3409V19.8299H63.076V19.3905L65.0604 18.2282C65.4998 17.9731 65.8329 17.7605 66.0455 17.5975C66.2581 17.4345 66.407 17.2786 66.4849 17.1368C66.5629 16.9951 66.6054 16.825 66.6054 16.6336V16.5628C66.6054 16.2509 66.4778 16.01 66.2298 15.8399C65.9817 15.6698 65.6203 15.5847 65.1525 15.5847C64.6706 15.5847 64.3021 15.6698 64.054 15.847C63.806 16.0171 63.6784 16.2722 63.6784 16.6053V16.747H63.1327V16.5982C63.1327 16.1163 63.3099 15.7407 63.65 15.4784C63.9973 15.2162 64.4934 15.0815 65.1312 15.0815C65.762 15.0815 66.2581 15.2091 66.6125 15.4713C66.9668 15.7265 67.144 16.095 67.144 16.5486V16.6195C67.144 16.8675 67.0944 17.0943 66.9881 17.2928C66.8818 17.4841 66.7046 17.6896 66.4495 17.8881C66.1944 18.0936 65.8258 18.3345 65.3368 18.6251L64.1036 19.348H67.3495V19.3409ZM71.1624 17.0305C71.8357 17.0376 72.3531 17.151 72.7145 17.3778C73.076 17.6046 73.2532 17.9377 73.2532 18.3629V18.455C73.2532 18.9299 73.0618 19.2913 72.6862 19.5394C72.3106 19.7874 71.7649 19.9079 71.042 19.9079C70.3545 19.9079 69.8159 19.7874 69.4261 19.5536C69.0363 19.3197 68.845 18.9937 68.845 18.5755V18.5117H69.3835V18.5755C69.3835 18.8236 69.5324 19.0291 69.83 19.1779C70.1277 19.3267 70.5317 19.4047 71.0349 19.4047C71.5806 19.4047 71.9987 19.3268 72.2751 19.1708C72.5586 19.0149 72.6933 18.781 72.6933 18.4692V18.37C72.6933 18.0865 72.5515 17.8668 72.2822 17.7251C72.0058 17.5762 71.6018 17.5054 71.0703 17.5054H70.3474V17.0234L72.2609 15.6556H68.9158V15.1666H73.1327V15.6556L71.1624 17.0305Z" fill="white"/>
<defs>
<filter id="filter0_d_495_13214" x="31.0527" y="115" width="44" height="44" filterUnits="userSpaceOnUse" color-interpolation-filters="sRGB">
<feFlood flood-opacity="0" result="BackgroundImageFix"/>
<feColorMatrix in="SourceAlpha" type="matrix" values="0 0 0 0 0 0 0 0 0 0 0 0 0 0 0 0 0 0 127 0" result="hardAlpha"/>
<feOffset dy="4"/>
<feGaussianBlur stdDeviation="4"/>
<feComposite in2="hardAlpha" operator="out"/>
<feColorMatrix type="matrix" values="0 0 0 0 0 0 0 0 0 0 0 0 0 0 0 0 0 0 0.36 0"/>
<feBlend mode="normal" in2="BackgroundImageFix" result="effect1_dropShadow_495_13214"/>
<feBlend mode="normal" in="SourceGraphic" in2="effect1_dropShadow_495_13214" result="shape"/>
</filter>
</defs>
</svg>
