<svg width="30" height="34" viewBox="0 0 30 34" fill="none" xmlns="http://www.w3.org/2000/svg">
<path d="M4.26667 14.6471V3C4.26667 1.89543 5.1621 1 6.26667 1H17.3333M26.2 14.6471H3C1.89543 14.6471 1 15.5425 1 16.6471V24.4118C1 25.5163 1.89543 26.4118 3 26.4118H4.26667M26.2 14.6471V10.4118M26.2 14.6471H27C28.1046 14.6471 29 15.5425 29 16.6471V24.4118C29 25.5163 28.1046 26.4118 27 26.4118H26.2M26.2 26.4118H4.26667M26.2 26.4118V31C26.2 32.1046 25.3046 33 24.2 33H6.26667C5.1621 33 4.26667 32.1046 4.26667 31V26.4118M17.3333 1L26.2 10.4118M17.3333 1V8.41177C17.3333 9.51633 18.2288 10.4118 19.3333 10.4118H26.2" stroke="#DA5063"/>
<path d="M6.82941 24V18.4706H8.98588C9.47036 18.4706 9.88375 18.5469 10.2261 18.6997C10.5683 18.8524 10.8317 19.0736 11.016 19.3632C11.2003 19.6528 11.2924 19.9978 11.2924 20.398C11.2924 20.7982 11.2003 21.1431 11.016 21.4328C10.8317 21.7171 10.5683 21.9383 10.2261 22.0963C9.88375 22.249 9.47036 22.3254 8.98588 22.3254H7.26387L7.61933 21.9541V24H6.82941ZM7.61933 22.0331L7.26387 21.6382H8.96219C9.46773 21.6382 9.84952 21.5302 10.1076 21.3143C10.3709 21.0984 10.5025 20.7929 10.5025 20.398C10.5025 20.003 10.3709 19.6976 10.1076 19.4817C9.84952 19.2658 9.46773 19.1578 8.96219 19.1578H7.26387L7.61933 18.7629V22.0331ZM12.4529 24V18.4706H14.7832C15.373 18.4706 15.8917 18.5864 16.3393 18.8182C16.7922 19.0499 17.1424 19.3737 17.3899 19.7897C17.6427 20.2058 17.7691 20.6876 17.7691 21.2353C17.7691 21.783 17.6427 22.2648 17.3899 22.6808C17.1424 23.0969 16.7922 23.4207 16.3393 23.6524C15.8917 23.8841 15.373 24 14.7832 24H12.4529ZM13.2429 23.3128H14.7358C15.1939 23.3128 15.5889 23.2259 15.9207 23.0521C16.2577 22.8783 16.5184 22.6361 16.7027 22.3254C16.887 22.0094 16.9792 21.6461 16.9792 21.2353C16.9792 20.8193 16.887 20.4559 16.7027 20.1452C16.5184 19.8345 16.2577 19.5923 15.9207 19.4185C15.5889 19.2447 15.1939 19.1578 14.7358 19.1578H13.2429V23.3128ZM19.6899 21.0852H22.5415V21.7645H19.6899V21.0852ZM19.7689 24H18.979V18.4706H22.8812V19.1578H19.7689V24Z" fill="#DA5063"/>
</svg>
