<svg width="93" height="89" viewBox="0 0 93 89" fill="none" xmlns="http://www.w3.org/2000/svg">
<path d="M3.95201 20.7495L7.41843 17.1087L5.0639 14.8631L5.75611 14.1382L11.1247 19.2561L10.4325 19.981L8.07797 17.7355L4.61155 21.3763L6.96607 23.6219L6.27387 24.3468L0.905273 19.2234L1.59748 18.4985L3.95201 20.7495ZM22.0418 12.0126C21.3714 12.356 20.641 12.5903 19.8834 12.6067C19.2076 12.6176 18.5699 12.4595 17.9976 12.1053C17.3981 11.7346 16.962 11.2005 16.6405 10.5792L16.5642 10.432C16.2426 9.80521 16.0627 9.13481 16.1118 8.43171C16.1554 7.75587 16.4007 7.14542 16.804 6.60584C17.2618 5.99539 17.8777 5.54302 18.5481 5.19965C19.2185 4.85628 19.9434 4.62736 20.701 4.61646C21.3768 4.60556 22.0145 4.76906 22.5923 5.12334C23.1918 5.49396 23.6278 6.02811 23.9494 6.64945L24.0257 6.7966C24.3419 7.41794 24.5217 8.08834 24.4726 8.79144C24.429 9.46728 24.1838 10.0777 23.7804 10.6173C23.3226 11.2168 22.7067 11.6692 22.0418 12.0126ZM42.6496 1.4825L39.6028 7.51605L38.6217 7.5433L35.2807 1.65146L35.4333 7.62507L34.4414 7.65231L34.256 0.234362L35.5586 0.201661L39.0959 6.33332L42.3062 0.0327008L43.6088 0L43.7996 7.41795L42.8077 7.4452L42.6496 1.4825ZM56.0139 3.13396L55.2726 5.33045L59.9872 6.92742L59.6929 7.80492L54.9783 6.20797L54.2316 8.4099L59.1587 10.0777L58.8644 10.9552L52.9889 8.96585L55.3708 1.93489L61.2462 3.92427L60.9519 4.80177L56.0139 3.13396ZM79.881 22.4664L82.7915 26.5651L85.4404 24.6792L86.0236 25.4968L79.9791 29.7971L79.3959 28.9796L82.0448 27.0938L79.1343 22.9951L76.48 24.8809L75.8968 24.0633L81.9413 19.763L82.5244 20.5806L79.881 22.4664ZM84.3612 42.1694C84.1922 41.4391 84.1432 40.6651 84.3122 39.9294C84.4648 39.2699 84.7754 38.6921 85.2605 38.2234C85.7674 37.7329 86.3887 37.4385 87.0755 37.2805L87.239 37.2423C87.9203 37.0843 88.6234 37.0734 89.2938 37.2914C89.937 37.4985 90.4711 37.8855 90.8962 38.4087C91.3758 38.9973 91.6647 39.7059 91.8336 40.4417C92.0026 41.172 92.0462 41.9351 91.8718 42.6709C91.7138 43.3304 91.4085 43.9081 90.918 44.3823C90.4111 44.8728 89.7843 45.1672 89.103 45.3252L88.9395 45.3633C88.2582 45.5214 87.566 45.5269 86.8956 45.3089C86.2525 45.1017 85.7183 44.7148 85.2932 44.1915C84.819 43.6029 84.5302 42.8998 84.3612 42.1694ZM91.4957 58.9893L85.0534 58.1717L85.1788 57.1688L91.6211 57.9864L92.0298 54.7489L92.9455 54.8634L91.9972 62.3467L91.0815 62.2322L91.4957 58.9893ZM87.2826 73.1875L85.2223 72.1301L82.9496 76.5612L82.1266 76.1416L84.3993 71.7104L82.3282 70.6476L79.9573 75.2749L79.1343 74.8553L81.963 69.3341L88.5689 72.7187L85.7402 78.2399L84.9172 77.8203L87.2826 73.1875ZM73.4823 83.396L69.4762 87.2112L68.8386 86.5409L73.5695 82.0334L78.6874 87.402L77.9625 88.0942L73.4823 83.396ZM21.6057 11.1678C22.3415 10.7917 23.0119 10.2521 23.3117 9.45638C23.5951 8.70968 23.4698 7.96844 23.11 7.26534L23.0228 7.09638C22.6631 6.38783 22.1344 5.85914 21.355 5.65202C20.532 5.43401 19.709 5.65202 18.9732 6.0281C18.232 6.40962 17.567 6.94922 17.2618 7.74498C16.9729 8.49713 17.0928 9.23836 17.458 9.94691L17.5452 10.1159C17.9104 10.819 18.4391 11.3531 19.213 11.5548C20.0415 11.7728 20.8699 11.5493 21.6057 11.1678ZM85.2823 41.9569C85.4676 42.7635 85.8273 43.543 86.5195 44.028C87.179 44.4859 87.9257 44.5458 88.6942 44.366L88.8796 44.3223C89.6535 44.1425 90.2966 43.761 90.6891 43.0579C91.1033 42.3166 91.087 41.4664 90.9016 40.6597C90.7163 39.8476 90.3511 39.0682 89.6535 38.5777C88.994 38.1144 88.2473 38.0544 87.4733 38.2288L87.288 38.2724C86.5141 38.4523 85.871 38.8338 85.484 39.5424C85.0807 40.2836 85.097 41.1448 85.2823 41.9569Z" fill="#3F654E"/>
</svg>
