<svg width="223" height="230" viewBox="0 0 223 230" fill="none" xmlns="http://www.w3.org/2000/svg">
<path opacity="0.2" d="M15.6594 29.1975C12.8769 29.9213 9.43387 30.4406 6.65131 29.4493C4.26176 28.5996 2.84698 26.8371 2.21815 24.4139L2.06098 23.7687L5.26807 22.9347L5.42524 23.5799C6.54141 27.9072 11.7921 27.0417 15.062 26.2077C16.9014 25.7357 19.228 24.9646 20.6743 23.69C21.6647 22.8088 22.1834 21.7545 21.8376 20.4327L21.7591 20.118C21.4918 19.0952 20.9258 18.3556 19.904 18.0252C18.552 17.5846 16.3825 17.8049 14.9834 17.9937L9.81119 18.6861C6.03821 19.1896 1.43216 18.9693 0.300267 14.5791L0.205851 14.2171C-0.344374 12.0456 0.221541 10.1574 1.74645 8.5366C3.61722 6.55391 6.5099 5.45241 9.08809 4.79151C11.7763 4.09914 15.0305 3.62708 17.703 4.60269C20.0297 5.43668 21.3816 7.18336 21.9947 9.54371L22.1678 10.1888L18.9608 11.0228L18.7878 10.3777C17.7346 6.27069 13.0025 6.94732 9.84266 7.76557C8.08194 8.22191 5.94394 8.94574 4.56052 10.1731C3.60156 11.0228 3.09852 12.0614 3.41294 13.336L3.49162 13.6507C3.72743 14.5791 4.29332 15.2085 5.20512 15.4918C6.4785 15.9009 8.38067 15.7435 9.68549 15.5704L14.8734 14.9095C16.9957 14.642 19.7468 14.5004 21.7748 15.3187C23.4884 16.0268 24.4943 17.3958 24.9502 19.1739L25.0447 19.5358C25.6263 21.7703 25.0289 23.7058 23.4254 25.358C21.4446 27.3722 18.332 28.5209 15.6594 29.1975ZM68.9525 25.2793C66.4844 25.0433 64.032 24.4139 61.8939 23.1078C59.9917 21.9434 58.4984 20.3855 57.5395 18.3714C56.5333 16.2785 56.2503 14.0126 56.4704 11.7152L56.5176 11.1645C56.7377 8.86707 57.4136 6.66404 58.797 4.77576C60.1175 2.96616 61.8626 1.70734 63.9534 0.920558C66.2958 0.039362 68.8112 -0.133728 71.2951 0.0865709C73.7632 0.322606 76.1999 0.967742 78.3222 2.2738C80.2244 3.43824 81.7022 5.01183 82.6769 7.02599C83.683 9.11883 83.9659 11.3847 83.7458 13.6821L83.6986 14.2171C83.4785 16.5145 82.7868 18.7018 81.4191 20.5587C80.0986 22.3525 78.3535 23.6271 76.2627 24.4139C73.9203 25.3265 71.405 25.5154 68.9525 25.2793ZM114.999 34.5948L131.458 42.4626L130.138 45.2164L110.707 35.9166L121.255 13.8238L124.242 15.2557L114.999 34.5948ZM159.473 71.0858C157.806 69.229 156.454 67.1047 155.762 64.6971C155.149 62.5571 155.134 60.3698 155.778 58.2455C156.454 56.0268 157.79 54.17 159.504 52.6436L159.913 52.2817C161.626 50.7396 163.623 49.5909 165.918 49.1503C168.119 48.7254 170.257 48.9772 172.316 49.8269C174.627 50.771 176.608 52.3603 178.259 54.2014C179.909 56.0425 181.261 58.1668 181.937 60.5744C182.535 62.7144 182.566 64.9017 181.906 67.026C181.23 69.2447 179.894 71.1015 178.18 72.6436L177.771 73.0055C176.058 74.5476 174.077 75.6806 171.798 76.1212C169.597 76.5461 167.459 76.2943 165.399 75.4445C163.088 74.5161 161.123 72.9426 159.473 71.0858ZM212.593 125.452L190.537 122.242L189.436 119.205L204.339 102.573L185.836 109.308L184.72 106.239L207.704 97.8678L209.166 101.912L193.712 119.41L216.774 122.84L218.237 126.884L195.253 135.256L194.137 132.172L212.593 125.452ZM223 169.481L198.538 169.67L198.507 166.318L222.969 166.129L223 169.481ZM213.552 209.481L194.797 203.784L195.74 200.684L219.148 207.797L218.237 210.787L194.593 221.204L213.347 226.9L212.404 230L188.996 222.887L189.908 219.898L213.552 209.481ZM69.2356 22.1637C71.9553 22.4154 74.7692 22.1007 77.0015 20.417C79.1081 18.8434 80.0672 16.5303 80.3188 13.9497L80.3815 13.336C80.6173 10.7238 80.0829 8.30056 78.2907 6.36508C76.4042 4.30371 73.716 3.45397 70.9963 3.2022C68.2609 2.95043 65.4469 3.28092 63.1989 4.96463C61.0766 6.53819 60.0862 8.85131 59.8504 11.432L59.7874 12.0457C59.5516 14.6578 60.0861 17.0653 61.8939 19.0008C63.7961 21.0779 66.5002 21.9119 69.2356 22.1637ZM161.799 69.0087C163.623 71.0386 165.902 72.7223 168.685 73.0213C171.31 73.3045 173.558 72.2659 175.508 70.535L175.964 70.1259C177.913 68.3793 179.171 66.2392 179.171 63.5799C179.186 60.7789 177.787 58.3399 175.964 56.31C174.124 54.2644 171.845 52.5964 169.046 52.2974C166.405 52.0142 164.142 53.0213 162.192 54.7679L161.736 55.1771C159.787 56.9237 158.545 59.0637 158.561 61.723C158.545 64.5083 159.976 66.963 161.799 69.0087Z" fill="white"/>
</svg>
