<svg width="432" height="70" viewBox="0 0 432 70" fill="none" xmlns="http://www.w3.org/2000/svg">
<path d="M22.295 41.9168C15.7816 42.335 10.931 44.1892 10.9247 51.4622C10.9185 58.4792 16.0879 63.3237 23.1701 63.0178C33.5777 62.5683 37.447 51.999 32.9902 43.6585C26.7518 33.364 3.4987 34.9559 3.1299 17.894C2.87986 6.31343 13.2313 0.969482 23.6452 0.969482C30.4398 0.969482 37.5658 2.8049 43.179 6.68799L43.4603 6.88152L39.5973 19.5109L38.0971 16.7266C35.3155 11.5637 29.771 6.82534 23.5951 6.82534C18.5132 6.82534 12.6812 8.83555 12.8062 14.785C12.8312 15.8963 13.0875 16.9514 13.6001 17.9377C16.9755 24.4304 34.3779 26.8838 40.6912 34.5439C43.8354 38.3583 45.9294 43.0467 46.1232 48.0286C46.6045 60.5456 34.9654 68.4991 23.3764 69.0048C12.4999 69.4792 0.704597 63.4486 0.0295061 51.5496C-0.714344 38.4145 12.7624 31.6222 22.7825 40.4496L24.3015 41.7919L22.295 41.9168ZM345.601 8.96042C345.601 4.09095 343.788 3.21694 341.619 1.4502H360.765C358.596 3.22319 356.784 4.11592 356.784 8.96042V55.1767C356.784 60.0212 358.596 60.9202 360.765 62.6869H341.619C343.794 60.9139 345.601 60.0462 345.601 55.1767V8.96042ZM389.601 20.1165V55.1704C389.601 60.0399 391.413 60.9139 393.582 62.6807H379.28C381.456 60.9077 383.262 60.0399 383.262 55.1704V8.96042C383.262 4.09095 381.449 3.21694 379.28 1.4502H389.182L421.68 47.9411V8.96665C421.68 4.09718 419.761 3.2419 417.698 1.45643H432C429.825 3.22942 428.018 4.09718 428.018 8.96665V66.108H421.736L389.601 20.1165ZM211.389 6.82534C205.351 6.82534 198.569 9.87813 198.044 16.6267C197.562 22.7697 201.394 25.3418 206.557 26.8776C189.605 36.7788 180.766 20.0104 191.111 8.88551C196.031 3.59152 204.288 0.975731 211.389 0.975731C229.048 0.975731 241.093 14.7663 241.093 31.9905C241.093 49.2147 229.123 63.2425 211.389 63.2425C199.856 63.2425 186.161 57.6988 183.504 45.3129C181.648 36.6353 187.492 33.8072 194.818 32.49C194.337 34.1194 194.031 36.192 194.118 38.0274C194.581 48.0161 199.15 57.3929 211.389 57.3929C224.841 57.3929 228.967 42.8906 228.967 31.9156C228.967 20.9468 224.672 6.82534 211.389 6.82534ZM147.462 56.3566H161.989C167.096 56.3566 169.027 54.5836 170.877 51.7431L172.484 49.2834V62.6869H132.229C134.398 60.9139 136.21 60.0462 136.21 55.1767V8.96665C136.21 4.09718 134.398 3.22317 132.229 1.45643H151.369C149.206 3.22317 147.374 4.10342 147.387 8.96665L147.462 56.3566ZM307.283 22.6199L289.231 62.6807H284.636L266.772 20.8469V55.1704C266.772 60.0399 268.578 60.9139 270.753 62.6807H256.451C258.627 60.9077 260.433 60.0399 260.433 55.1704V8.96042C260.433 4.09095 258.62 3.21694 256.451 1.4502H270.397L289.456 45.9996L309.565 1.4502H322.448C320.272 3.22319 318.466 4.09095 318.466 8.96042V55.1704C318.466 60.0399 320.279 60.9139 322.448 62.6807H303.226C305.327 60.9764 307.289 59.9712 307.289 55.1704V22.6199H307.283ZM89.0415 63.2425C71.3078 63.2425 59.3375 49.2147 59.3375 31.9905C59.3375 14.7663 71.3828 0.975731 89.0415 0.975731C106.7 0.975731 118.745 14.7663 118.745 31.9905C118.745 49.2147 106.775 63.2425 89.0415 63.2425ZM89.0415 6.82534C75.7459 6.82534 71.3641 20.8969 71.3828 31.9031C71.4078 42.8969 75.5771 57.3867 89.0415 57.3867C102.493 57.3867 106.619 42.8844 106.619 31.9094C106.619 20.9468 102.324 6.82534 89.0415 6.82534Z" fill="#3F654E"/>
</svg>
