<svg width="32" height="32" viewBox="0 0 32 32" fill="none" xmlns="http://www.w3.org/2000/svg">
<path d="M25.3841 7.55951L25.8044 7.28872L25.3841 7.55951ZM29.9403 14.6315L30.3606 14.3607L29.9403 14.6315ZM26.0512 24.2872H26.5512C26.5512 24.0111 26.3273 23.7872 26.0512 23.7872V24.2872ZM7.17937 24.2872V23.7872C6.90323 23.7872 6.67937 24.0111 6.67937 24.2872H7.17937ZM3.29026 14.6315L3.71058 14.9023L3.29026 14.6315ZM7.84643 7.55951L7.42611 7.28872L7.84643 7.55951ZM2.75862 10.6338C2.53655 10.4697 2.22347 10.5167 2.05934 10.7387C1.8952 10.9608 1.94216 11.2739 2.16423 11.438L2.75862 10.6338ZM6.74197 14.1998L6.44477 14.6019L6.74197 14.1998ZM26.4886 14.1998L26.7858 14.6019L26.4886 14.1998ZM31.0663 11.438C31.2884 11.2739 31.3353 10.9608 31.1712 10.7387C31.0071 10.5167 30.694 10.4697 30.4719 10.6338L31.0663 11.438ZM7.9657 18.9051C7.68956 18.9051 7.4657 19.129 7.4657 19.4051C7.4657 19.6813 7.68956 19.9051 7.9657 19.9051V18.9051ZM7.98143 19.9051C8.25757 19.9051 8.48143 19.6813 8.48143 19.4051C8.48143 19.129 8.25757 18.9051 7.98143 18.9051V19.9051ZM25.2648 18.9051C24.9887 18.9051 24.7648 19.129 24.7648 19.4051C24.7648 19.6813 24.9887 19.9051 25.2648 19.9051V18.9051ZM25.2806 19.9051C25.5567 19.9051 25.7806 19.6813 25.7806 19.4051C25.7806 19.129 25.5567 18.9051 25.2806 18.9051V19.9051ZM10.5773 6.65387H22.6532V5.65387H10.5773V6.65387ZM24.9638 7.83031L29.52 14.9023L30.3606 14.3607L25.8044 7.28872L24.9638 7.83031ZM30.2691 17.3997V25.6821H31.2691V17.3997H30.2691ZM29.1965 26.5769H27.6238V27.5769H29.1965V26.5769ZM26.5512 25.6821V24.2872H25.5512V25.6821H26.5512ZM26.0512 23.7872H7.17937V24.7872H26.0512V23.7872ZM6.67937 24.2872V25.6821H7.67937V24.2872H6.67937ZM5.60672 26.5769H4.03408V27.5769H5.60672V26.5769ZM2.96143 25.6821V17.3997H1.96143V25.6821H2.96143ZM3.71058 14.9023L8.26675 7.83031L7.42611 7.28872L2.86993 14.3607L3.71058 14.9023ZM2.96143 17.3997C2.96143 16.528 3.21765 15.6674 3.71058 14.9023L2.86993 14.3607C2.27658 15.2817 1.96143 16.3294 1.96143 17.3997H2.96143ZM4.03408 26.5769C3.3836 26.5769 2.96143 26.1216 2.96143 25.6821H1.96143C1.96143 26.7833 2.94745 27.5769 4.03408 27.5769V26.5769ZM6.67937 25.6821C6.67937 26.1216 6.2572 26.5769 5.60672 26.5769V27.5769C6.69335 27.5769 7.67937 26.7833 7.67937 25.6821H6.67937ZM27.6238 26.5769C26.9733 26.5769 26.5512 26.1216 26.5512 25.6821H25.5512C25.5512 26.7833 26.5372 27.5769 27.6238 27.5769V26.5769ZM30.2691 25.6821C30.2691 26.1216 29.8469 26.5769 29.1965 26.5769V27.5769C30.2831 27.5769 31.2691 26.7833 31.2691 25.6821H30.2691ZM29.52 14.9023C30.0129 15.6674 30.2691 16.528 30.2691 17.3997H31.2691C31.2691 16.3294 30.954 15.2817 30.3606 14.3607L29.52 14.9023ZM22.6532 6.65387C23.6305 6.65387 24.5054 7.11887 24.9638 7.83031L25.8044 7.28872C25.1428 6.26172 23.9334 5.65387 22.6532 5.65387V6.65387ZM10.5773 5.65387C9.29717 5.65387 8.08776 6.26172 7.42611 7.28872L8.26675 7.83031C8.7251 7.11887 9.60003 6.65387 10.5773 6.65387V5.65387ZM2.16423 11.438L6.44477 14.6019L7.03916 13.7977L2.75862 10.6338L2.16423 11.438ZM7.74875 15.0231H25.4818V14.0231H7.74875V15.0231ZM26.7858 14.6019L31.0663 11.438L30.4719 10.6338L26.1914 13.7977L26.7858 14.6019ZM25.4818 15.0231C25.9513 15.0231 26.4129 14.8775 26.7858 14.6019L26.1914 13.7977C25.999 13.9399 25.748 14.0231 25.4818 14.0231V15.0231ZM6.44477 14.6019C6.81764 14.8775 7.27921 15.0231 7.74875 15.0231V14.0231C7.48249 14.0231 7.23155 13.9399 7.03916 13.7977L6.44477 14.6019ZM7.9657 19.9051H7.98143V18.9051H7.9657V19.9051ZM8.25202 19.4051C8.25202 19.4388 8.23778 19.4818 8.18994 19.5242C8.14117 19.5675 8.06334 19.6026 7.9657 19.6026V20.6026C8.61805 20.6026 9.25202 20.1212 9.25202 19.4051H8.25202ZM7.9657 19.6026C7.86805 19.6026 7.79023 19.5675 7.74146 19.5242C7.69362 19.4818 7.67937 19.4388 7.67937 19.4051H6.67937C6.67937 20.1212 7.31335 20.6026 7.9657 20.6026V19.6026ZM7.67937 19.4051C7.67937 19.3715 7.69362 19.3285 7.74146 19.2861C7.79023 19.2428 7.86805 19.2077 7.9657 19.2077V18.2077C7.31335 18.2077 6.67937 18.6891 6.67937 19.4051H7.67937ZM7.9657 19.2077C8.06334 19.2077 8.14117 19.2428 8.18994 19.2861C8.23778 19.3285 8.25202 19.3715 8.25202 19.4051H9.25202C9.25202 18.6891 8.61805 18.2077 7.9657 18.2077V19.2077ZM25.2648 19.9051H25.2806V18.9051H25.2648V19.9051ZM25.5512 19.4051C25.5512 19.4388 25.5369 19.4818 25.4891 19.5242C25.4403 19.5675 25.3625 19.6026 25.2648 19.6026V20.6026C25.9172 20.6026 26.5512 20.1212 26.5512 19.4051H25.5512ZM25.2648 19.6026C25.1672 19.6026 25.0894 19.5675 25.0406 19.5242C24.9928 19.4818 24.9785 19.4388 24.9785 19.4051H23.9785C23.9785 20.1212 24.6125 20.6026 25.2648 20.6026V19.6026ZM24.9785 19.4051C24.9785 19.3715 24.9928 19.3285 25.0406 19.2861C25.0894 19.2428 25.1672 19.2077 25.2648 19.2077V18.2077C24.6125 18.2077 23.9785 18.6891 23.9785 19.4051H24.9785ZM25.2648 19.2077C25.3625 19.2077 25.4403 19.2428 25.4891 19.2861C25.5369 19.3285 25.5512 19.3715 25.5512 19.4051H26.5512C26.5512 18.6891 25.9172 18.2077 25.2648 18.2077V19.2077Z" fill="#DA5063"/>
</svg>
