<svg width="32" height="32" viewBox="0 0 32 32" fill="none" xmlns="http://www.w3.org/2000/svg">
<g clip-path="url(#clip0_457_9586)">
<path d="M7.40739 12.3454H24.6909M7.40739 12.3454L8.64192 27.7771H23.4564L24.6909 12.3454M7.40739 12.3454H6.17285V9.8763H6.79012M24.6909 12.3454H25.9254V9.8763H24.6909M6.79012 9.8763L7.20937 8.61853C7.3408 8.22427 7.5242 7.84928 7.75473 7.50349V7.50349C8.89555 5.79225 11.2573 5.42557 12.8633 6.71035L12.9628 6.78996L13.3037 6.05138C14.6277 3.1826 18.7051 3.1826 20.0291 6.05138L20.37 6.78996L21.0245 6.69646C22.9596 6.42002 24.6909 7.92156 24.6909 9.8763V9.8763M6.79012 9.8763H15.7405M24.6909 9.8763H15.7405M15.7405 9.8763L25.9254 22.8389" stroke="#DA5063" stroke-linejoin="round"/>
</g>
<defs>
<clipPath id="clip0_457_9586">
<rect width="32" height="32" fill="white"/>
</clipPath>
</defs>
</svg>
