<svg width="128" height="142" viewBox="0 0 128 142" fill="none" xmlns="http://www.w3.org/2000/svg">
<path fill-rule="evenodd" clip-rule="evenodd" d="M8.88958 16.5667C7.21225 17.1139 5.41152 17.1655 3.70532 16.7153C3.06988 16.4957 2.50225 16.1163 2.05744 15.6141C1.61263 15.1119 1.30572 14.5038 1.16651 13.8488V13.4666L3.00124 12.9995V13.3817C3.64128 15.8447 6.64949 15.3564 8.52693 14.868C9.69501 14.6303 10.7954 14.1371 11.7485 13.4241C12.034 13.2188 12.2515 12.9333 12.3731 12.6042C12.4947 12.2751 12.5149 11.9174 12.4312 11.5769V11.3858C12.3782 11.11 12.2511 10.8537 12.0632 10.6443C11.8753 10.4349 11.6338 10.2802 11.3644 10.1967C10.4345 10.0163 9.47825 10.0163 8.54828 10.1967L5.58276 10.6001C3.44932 10.8974 0.782512 10.77 0.121143 8.26448V8.05214C-0.0377521 7.48223 -0.0403632 6.88037 0.113457 6.30908C0.267277 5.7378 0.571857 5.21792 0.995797 4.80345C2.25795 3.77585 3.73419 3.04072 5.31725 2.65142C6.90032 2.26213 8.55059 2.22842 10.1484 2.55274C10.7677 2.77591 11.3197 3.15219 11.7526 3.64621C12.1856 4.14024 12.4851 4.73578 12.6231 5.37676V5.75894L10.7884 6.22608V5.84389C10.1697 3.50824 7.46026 3.89041 5.64683 4.35754C4.54636 4.5874 3.51125 5.05895 2.61724 5.73772C2.33909 5.93893 2.1276 6.21816 2.00978 6.53967C1.89196 6.86118 1.87318 7.21034 1.95587 7.54253V7.7124C2.00515 7.96223 2.12293 8.19365 2.29613 8.38102C2.46933 8.56839 2.69125 8.70441 2.93731 8.77406C3.78198 8.94566 4.6528 8.94566 5.49747 8.77406L8.48422 8.39188C9.80111 8.15644 11.1559 8.24389 12.4312 8.64667C12.8858 8.82802 13.2899 9.11565 13.6092 9.48523C13.9286 9.85481 14.1538 10.2955 14.2659 10.77V10.9823C14.4368 11.5665 14.4394 12.1868 14.2735 12.7724C14.1075 13.358 13.7796 13.8855 13.3272 14.2947C12.0592 15.3752 10.5294 16.1071 8.88958 16.418V16.5667ZM5.51883 46.6754V47.3124H1.25193V49.3295H5.32676V49.9453H1.25193V52.0686H5.51883V52.6844H0.569212V46.7603L5.51883 46.6754ZM10.2977 52.7057C9.55463 52.7452 8.81535 52.5759 8.16428 52.2173C7.93136 52.0616 7.7424 51.8491 7.61542 51.6C7.48844 51.351 7.42761 51.0737 7.43885 50.7946V50.6885H8.14292V50.7946C8.14292 51.644 8.8683 52.0899 10.2764 52.0899C10.8027 52.1134 11.3276 52.0191 11.8124 51.8138C11.9657 51.7534 12.097 51.6478 12.1885 51.5112C12.2799 51.3747 12.3274 51.2136 12.3245 51.0495C12.3327 50.9193 12.3052 50.7894 12.2451 50.6735C12.185 50.5576 12.0944 50.46 11.9831 50.3912C11.6046 50.2015 11.1903 50.0931 10.767 50.0727L9.487 49.9029C8.16427 49.7542 7.50292 49.2659 7.50292 48.3953C7.50131 48.1495 7.56574 47.9076 7.68952 47.6949C7.81329 47.4821 7.99183 47.3061 8.20686 47.185C8.8106 46.8697 9.48895 46.7229 10.1697 46.7603C10.9121 46.6955 11.6567 46.8585 12.3032 47.2275C12.5319 47.3808 12.717 47.5905 12.8403 47.8361C12.9637 48.0816 13.0211 48.3547 13.0071 48.6289H12.3032C12.3032 47.8008 11.6205 47.3761 10.1697 47.3761C9.67295 47.3499 9.17675 47.4371 8.719 47.6309C8.56906 47.69 8.44014 47.7923 8.34892 47.9247C8.25771 48.0571 8.20825 48.2136 8.20686 48.3741C8.20196 48.4955 8.22888 48.6162 8.28499 48.7241C8.3411 48.8321 8.42451 48.9237 8.52693 48.9899C8.87584 49.1543 9.25166 49.255 9.63637 49.2871L10.9164 49.457C11.4917 49.4862 12.05 49.6616 12.5378 49.9666C12.7001 50.0905 12.8297 50.252 12.9152 50.4369C13.0007 50.6219 13.0395 50.8249 13.0285 51.0282C13.0334 51.2829 12.9685 51.5342 12.8407 51.7549C12.7129 51.9756 12.5271 52.1575 12.3032 52.281C11.6408 52.6036 10.9058 52.75 10.1697 52.7057H10.2977ZM14.1379 47.3124V46.6754H20.1968V47.3124H17.5088V52.5995H16.8261V47.3124H14.1379ZM21.0289 52.7057C20.9662 52.7094 20.9035 52.7 20.8446 52.6781C20.7858 52.6561 20.7324 52.6221 20.6876 52.5783C20.6066 52.4918 20.5616 52.3779 20.5616 52.2597C20.5616 52.1415 20.6066 52.0277 20.6876 51.9412C20.7983 51.904 20.9182 51.904 21.0289 51.9412C21.1331 51.9086 21.2448 51.9086 21.349 51.9412C21.413 52.0036 21.4567 52.0837 21.4745 52.171C21.4923 52.2584 21.4834 52.349 21.449 52.4313C21.4145 52.5136 21.3561 52.5837 21.2813 52.6326C21.2064 52.6815 21.1185 52.707 21.0289 52.7057ZM31.3335 52.5995H30.6508V47.822C30.2679 48.0376 29.8315 48.1407 29.3921 48.1193H28.3466V47.4822H29.328C29.6663 47.5049 30.0047 47.4391 30.3095 47.2912C30.4191 47.2311 30.5092 47.1415 30.5697 47.0325C30.6301 46.9235 30.6582 46.7996 30.6508 46.6754H31.3335V52.5995ZM36.6671 46.5905C37.1977 46.5783 37.7258 46.6647 38.2245 46.8453C38.6317 47.009 38.9912 47.2718 39.2699 47.6096C39.5029 47.9541 39.6223 48.3624 39.6113 48.7775V50.3488C39.6281 50.6784 39.5674 51.0074 39.4341 51.3097C39.3007 51.6119 39.0985 51.8791 38.8433 52.0899C38.221 52.5261 37.4701 52.7429 36.7098 52.7057C36.2182 52.7086 35.729 52.637 35.2591 52.4933C34.8864 52.3728 34.5542 52.1524 34.299 51.8563C34.0808 51.5849 33.9605 51.2484 33.9576 50.9008H34.6617C34.6623 51.0805 34.715 51.2561 34.8134 51.4068C34.9117 51.5574 35.0517 51.6767 35.2164 51.7502C35.677 51.9862 36.1925 52.0961 36.7098 52.0686C37.2982 52.1011 37.8814 51.9449 38.3738 51.6228C38.563 51.4745 38.7139 51.2835 38.8141 51.0657C38.9143 50.8478 38.9608 50.6094 38.9499 50.37V49.6481C38.2904 50.1652 37.4624 50.4222 36.6244 50.37C35.8849 50.4296 35.1439 50.2747 34.491 49.9241C34.2659 49.7875 34.082 49.5932 33.9581 49.3617C33.8343 49.1301 33.7752 48.8697 33.787 48.6076V48.459C33.7792 48.1841 33.844 47.9119 33.975 47.6696C34.1061 47.4274 34.2987 47.2237 34.5337 47.0788C35.1812 46.7111 35.9232 46.5413 36.6671 46.5905ZM36.6671 49.733C37.1454 49.745 37.6219 49.6732 38.0751 49.5207C38.4314 49.4142 38.745 49.1987 38.9713 48.9049V48.7563C38.9775 48.5334 38.9257 48.3127 38.821 48.1155C38.7164 47.9184 38.5623 47.7514 38.3738 47.6309C37.8645 47.3336 37.278 47.1932 36.6885 47.2275C36.1507 47.2015 35.6149 47.3111 35.131 47.5459C34.9645 47.6287 34.8245 47.756 34.7265 47.9135C34.6285 48.071 34.5766 48.2525 34.5764 48.4378V48.5864C34.5764 49.3508 35.2804 49.733 36.7098 49.733H36.6671ZM44.6675 52.7057C44.1309 52.7176 43.5986 52.6087 43.1102 52.3871C42.6755 52.1987 42.305 51.889 42.0434 51.4954C41.7999 51.1073 41.6739 50.6576 41.6807 50.2001V49.096C41.6768 48.6322 41.8025 48.1765 42.0434 47.7795C42.3071 47.393 42.6776 47.0906 43.1102 46.909C43.5986 46.6992 44.1249 46.591 44.6569 46.591C45.1888 46.591 45.7151 46.6992 46.2036 46.909C46.627 47.0961 46.9893 47.3977 47.2491 47.7795C47.49 48.1765 47.6156 48.6322 47.6117 49.096V50.2001C47.6156 50.6639 47.49 51.1197 47.2491 51.5166C46.9893 51.8985 46.627 52.2 46.2036 52.3871C45.7219 52.6063 45.1971 52.7152 44.6675 52.7057ZM44.6675 52.0686C45.2587 52.0998 45.8416 51.919 46.3103 51.5591C46.5118 51.3954 46.6724 51.1876 46.7798 50.9518C46.8871 50.7161 46.9382 50.4588 46.929 50.2001V49.096C46.939 48.7432 46.8424 48.3955 46.6516 48.098C46.4549 47.8152 46.181 47.5942 45.8623 47.4611C45.4776 47.3001 45.0634 47.2205 44.6462 47.2275C44.048 47.193 43.4574 47.3739 42.9822 47.737C42.7807 47.9007 42.6199 48.1086 42.5126 48.3443C42.4053 48.5801 42.3542 48.8373 42.3634 49.096V50.2001C42.3542 50.4588 42.4053 50.7161 42.5126 50.9518C42.6199 51.1876 42.7807 51.3954 42.9822 51.5591C43.4657 51.922 44.0629 52.1025 44.6675 52.0686ZM54.5241 49.5631C55.3774 49.8179 55.8254 50.2638 55.8254 50.9433C55.8313 51.2034 55.7621 51.4597 55.6259 51.6817C55.4898 51.9038 55.2925 52.0823 55.0574 52.196C54.3413 52.5165 53.5587 52.6622 52.7746 52.6207C51.9904 52.6647 51.2071 52.5189 50.4918 52.196C50.2528 52.0854 50.051 51.9082 49.9109 51.6859C49.7708 51.4636 49.6984 51.2057 49.7024 50.9433C49.7024 50.2638 50.1504 49.8179 51.0038 49.5631C50.7129 49.4753 50.4536 49.3057 50.2572 49.0747C50.0737 48.8708 49.9745 48.6053 49.9798 48.3316V48.2254C49.9828 47.9035 50.1043 47.5937 50.3212 47.3549C50.6006 47.0923 50.936 46.8963 51.3025 46.7816C51.7813 46.647 52.2772 46.5827 52.7746 46.5905C53.2651 46.5813 53.7542 46.6458 54.2254 46.7816C54.5986 46.8807 54.9378 47.0789 55.2068 47.3549C55.3188 47.4702 55.4067 47.6066 55.4653 47.756C55.5239 47.9055 55.552 48.065 55.5481 48.2254V48.3316C55.5515 48.6013 55.4611 48.8639 55.2921 49.0747C55.0907 49.3101 54.8233 49.4802 54.5241 49.5631ZM50.6839 48.3104C50.6839 48.9898 51.3666 49.3295 52.8173 49.3295C54.2681 49.3295 54.9508 48.9898 54.9508 48.3104C54.9491 48.1444 54.8973 47.9828 54.8022 47.8465C54.7071 47.7102 54.573 47.6055 54.4174 47.5459C53.9224 47.3515 53.3915 47.2647 52.86 47.2912C52.3285 47.2627 51.797 47.3496 51.3025 47.5459C51.1452 47.603 51.0095 47.7071 50.914 47.844C50.8185 47.9808 50.7679 48.1437 50.7692 48.3104H50.6839ZM55.1427 50.9858C55.1422 50.8111 55.0863 50.641 54.9828 50.4999C54.8794 50.3588 54.7338 50.2538 54.5668 50.2001C53.9918 49.9997 53.383 49.9132 52.7746 49.9453C52.1661 49.9098 51.5567 49.9964 50.9826 50.2001C50.8156 50.2538 50.6699 50.3588 50.5664 50.4999C50.463 50.641 50.407 50.8111 50.4065 50.9858C50.4114 51.1568 50.4694 51.3221 50.5725 51.4589C50.6757 51.5958 50.819 51.6976 50.9826 51.7502C51.5576 51.9506 52.1663 52.0371 52.7746 52.0049C53.3759 52.0354 53.9774 51.9489 54.5454 51.7502C54.7147 51.7042 54.8644 51.6049 54.9721 51.467C55.0798 51.3292 55.1397 51.1604 55.1427 50.9858ZM63.9966 130.058C65.0683 130.058 66.116 130.375 67.0072 130.967C67.8983 131.56 68.5929 132.402 69.0031 133.388C69.4132 134.373 69.5205 135.458 69.3114 136.504C69.1024 137.55 68.5863 138.511 67.8284 139.265C67.0706 140.019 66.105 140.533 65.0538 140.741C64.0026 140.949 62.9129 140.843 61.9228 140.434C60.9326 140.026 60.0863 139.335 59.4909 138.448C58.8954 137.561 58.5777 136.518 58.5777 135.452C58.5777 134.021 59.1485 132.649 60.1647 131.638C61.181 130.627 62.5594 130.058 63.9966 130.058ZM27.3867 112.52C20.2823 112.987 14.9913 115.004 14.97 122.903C14.9043 124.635 15.2115 126.362 15.8709 127.967C16.5304 129.571 17.5267 131.017 18.7934 132.208C20.06 133.398 21.5677 134.305 23.2154 134.868C24.863 135.431 26.6124 135.637 28.3466 135.473C39.6966 134.984 43.9208 123.497 39.0139 114.409C32.2082 103.22 6.84155 104.961 6.43619 86.4028C6.15885 73.8115 17.4448 68.0148 28.816 68.0148C36.3907 67.91 43.8227 70.0698 50.1505 74.2149L50.4492 74.4272L46.1823 88.1651L44.5395 85.1288C41.51 79.5232 35.4511 74.3635 28.7094 74.3635C23.1624 74.3635 16.8047 76.4869 16.9541 83.0267C16.9657 84.217 17.2579 85.388 17.8074 86.4453C21.4982 93.5159 40.486 96.1913 47.3771 104.515C50.916 108.62 53.0066 113.766 53.3293 119.166C53.8414 132.776 41.1473 141.439 28.496 141.97C16.634 142.501 3.7693 135.94 3.0226 123.009C2.21189 108.719 16.9327 101.33 27.856 110.927L29.5201 112.392L27.3867 112.52ZM39.526 14.3372C38.0975 14.2434 36.71 13.8218 35.4724 13.1057C34.3751 12.4755 33.4969 11.5274 32.9549 10.3878C32.4085 9.20719 32.2016 7.89887 32.3575 6.60829V6.28977C32.4494 4.98378 32.8996 3.72793 33.659 2.65891C34.4193 1.67943 35.4496 0.941599 36.6244 0.535585C37.9914 0.0539638 39.4518 -0.105929 40.8913 0.0684509C42.3125 0.165512 43.6923 0.586907 44.9235 1.29998C46.0007 1.94836 46.8673 2.89196 47.4196 4.01784C47.9752 5.2034 48.1894 6.51909 48.0384 7.81857V8.11584C47.9392 9.42369 47.4817 10.6795 46.7157 11.7467C45.9612 12.7229 44.9385 13.4604 43.7715 13.8701C42.4029 14.3443 40.9441 14.504 39.5046 14.3372H39.526ZM65.938 19.6455L75.3679 24.1257L74.6638 25.7394L63.5059 20.4524L69.5648 7.83982L71.2716 8.66792L65.9807 19.6879L65.938 19.6455ZM91.5393 40.4753C90.5591 39.4347 89.8296 38.1858 89.4059 36.8232C89.0331 35.6268 89.0331 34.3462 89.4059 33.1498C89.8016 31.9035 90.5408 30.7927 91.5393 29.9436L91.7741 29.7313C92.7451 28.8397 93.9386 28.2237 95.2303 27.9477C96.465 27.7225 97.7386 27.8552 98.8997 28.3299C100.214 28.8962 101.381 29.7531 102.313 30.8354C103.299 31.8639 104.029 33.1072 104.447 34.4663C104.814 35.6707 104.814 36.9564 104.447 38.1609C104.035 39.3933 103.298 40.4932 102.313 41.3459L102.079 41.5582C101.129 42.4564 99.9471 43.0739 98.6651 43.3418C97.4287 43.569 96.1524 43.4287 94.9956 42.9384C93.6878 42.3805 92.5215 41.539 91.582 40.4753H91.5393ZM122.005 71.4546L109.354 69.6286L108.735 67.9086L117.269 58.4174L106.601 62.2606L105.961 60.4982L119.146 55.7208L119.978 58.0352L111.124 68.0148L124.352 69.9682L125.184 72.2827L112.021 77.0602L111.359 75.2978L122.026 71.4546H122.005ZM127.979 96.5735L113.962 96.6797V94.7687L128 94.6625V96.5735H127.979ZM122.56 119.399L111.893 116.151L112.426 114.367L125.845 118.423L125.333 120.142L111.786 126.088L122.453 129.336L121.92 131.099L108.479 127.043L109.012 125.323L122.56 119.399ZM39.5899 12.5536C41.1463 12.7846 42.7338 12.4369 44.0489 11.5769C44.6153 11.1346 45.0784 10.5752 45.4062 9.93729C45.7341 9.29939 45.9188 8.5982 45.9476 7.88227V7.54253C46.0492 6.82916 45.993 6.10232 45.783 5.41282C45.5729 4.72332 45.214 4.08781 44.7315 3.5507C43.5719 2.54603 42.1253 1.92796 40.5948 1.78325C39.0643 1.63854 37.5266 1.97444 36.1977 2.74383C35.6284 3.18498 35.162 3.74371 34.8306 4.38152C34.4991 5.01933 34.3104 5.72108 34.2777 6.43842V6.79938C34.1719 7.50955 34.2261 8.23425 34.4364 8.92099C34.6467 9.60773 35.0079 10.2393 35.4937 10.77C36.6427 11.8734 38.1646 12.5095 39.7606 12.5536H39.5899ZM92.6915 39.265C93.6787 40.4868 95.0839 41.3033 96.6383 41.5582C97.3537 41.6157 98.0731 41.5182 98.747 41.2727C99.421 41.0271 100.034 40.6391 100.543 40.1356L100.799 39.902C101.361 39.4501 101.819 38.8818 102.139 38.2366C102.46 37.5913 102.636 36.8845 102.655 36.165C102.475 34.6305 101.816 33.1907 100.771 32.0481C99.7267 30.9055 98.3484 30.1175 96.8304 29.795C96.1128 29.7273 95.3891 29.8177 94.7106 30.06C94.0321 30.3022 93.4155 30.6902 92.9048 31.1964L92.6488 31.4512C92.087 31.898 91.6313 32.4627 91.3142 33.105C90.997 33.7474 90.8262 34.4514 90.814 35.167C90.8812 36.7671 91.5515 38.2833 92.6915 39.4136V39.265Z" fill="#3F654E"/>
</svg>
