<svg width="32" height="32" viewBox="0 0 32 32" fill="none" xmlns="http://www.w3.org/2000/svg">
<path d="M8.00016 25.3333C8.00016 26.0697 7.40321 26.6666 6.66683 26.6666C5.93045 26.6666 5.3335 26.0697 5.3335 25.3333C5.3335 24.5969 5.93045 24 6.66683 24C7.40321 24 8.00016 24.5969 8.00016 25.3333Z" fill="#DA5063"/>
<path d="M5.3335 14.6666C8.51609 14.6666 11.5683 15.9309 13.8188 18.1814C16.0692 20.4318 17.3335 23.484 17.3335 26.6666M5.3335 5.33331C10.9914 5.33331 16.4177 7.58093 20.4184 11.5817C24.4192 15.5825 26.6668 21.0087 26.6668 26.6666M8.00016 25.3333C8.00016 26.0697 7.40321 26.6666 6.66683 26.6666C5.93045 26.6666 5.3335 26.0697 5.3335 25.3333C5.3335 24.5969 5.93045 24 6.66683 24C7.40321 24 8.00016 24.5969 8.00016 25.3333Z" stroke="#DA5063" stroke-linecap="round" stroke-linejoin="round"/>
</svg>
