<svg width="24" height="25" viewBox="0 0 24 25" fill="none" xmlns="http://www.w3.org/2000/svg">
<path fill-rule="evenodd" clip-rule="evenodd" d="M22.4954 6.9156C22.6475 6.4476 22.4954 6.10303 21.7666 6.10303H19.3604C18.7481 6.10303 18.4658 6.40046 18.3127 6.72874C18.3127 6.72874 17.089 9.46817 15.3556 11.2476C14.7946 11.7636 14.5398 11.9273 14.2336 11.9273C14.0806 11.9273 13.8505 11.7636 13.8505 11.2947V6.9156C13.8505 6.35331 13.6818 6.10303 13.1722 6.10303H9.38824C9.006 6.10303 8.77592 6.3636 8.77592 6.61131C8.77592 7.1436 9.64307 7.26703 9.73198 8.76531V12.0207C9.73198 12.7347 9.59174 12.8642 9.28558 12.8642C8.46976 12.8642 6.48522 10.1119 5.30733 6.96274C5.07908 6.34988 4.84809 6.10303 4.23302 6.10303H1.82498C1.1375 6.10303 1 6.40046 1 6.72874C1 7.31331 1.81582 10.2173 4.7995 14.0582C6.78863 16.681 9.58899 18.103 12.14 18.103C13.6699 18.103 13.8587 17.7876 13.8587 17.2433V15.2607C13.8587 14.629 14.0036 14.503 14.4885 14.503C14.846 14.503 15.4574 14.6676 16.8855 15.9319C18.5171 17.431 18.7857 18.103 19.7042 18.103H22.1104C22.7979 18.103 23.1425 17.7876 22.9445 17.1636C22.7264 16.543 21.9472 15.6422 20.9142 14.5733C20.3532 13.9647 19.5117 13.309 19.256 12.9807C18.8994 12.5599 19.0011 12.3722 19.256 11.9976C19.256 11.9976 22.1892 8.20388 22.4945 6.9156H22.4954Z" fill="white"/>
</svg>
