<svg width="35" height="20" viewBox="0 0 35 20" fill="none" xmlns="http://www.w3.org/2000/svg">
<path fill-rule="evenodd" clip-rule="evenodd" d="M33.6694 1.5211C33.9038 0.750062 33.6694 0.182373 32.5467 0.182373H28.8398C27.8965 0.182373 27.4615 0.672393 27.2257 1.21325C27.2257 1.21325 25.3405 5.72652 22.6701 8.65817C21.8058 9.50829 21.4132 9.77801 20.9416 9.77801C20.7058 9.77801 20.3513 9.50829 20.3513 8.73584V1.5211C20.3513 0.594724 20.0915 0.182373 19.3063 0.182373H13.4769C12.888 0.182373 12.5336 0.61167 12.5336 1.01979C12.5336 1.89674 13.8695 2.10009 14.0065 4.56855V9.93194C14.0065 11.1083 13.7904 11.3215 13.3187 11.3215C12.0619 11.3215 9.00458 6.78705 7.18995 1.59877C6.83832 0.589075 6.48246 0.182373 5.53489 0.182373H1.82515C0.766024 0.182373 0.554199 0.672393 0.554199 1.21325C0.554199 2.17635 1.81102 6.96075 6.40761 13.2886C9.472 17.6099 13.7862 19.9526 17.7162 19.9526C20.0731 19.9526 20.364 19.433 20.364 18.5362V15.2699C20.364 14.2291 20.5871 14.0216 21.3342 14.0216C21.8849 14.0216 22.8268 14.2927 25.027 16.3756C27.5406 18.8455 27.9544 19.9526 29.3694 19.9526H33.0763C34.1354 19.9526 34.6664 19.433 34.3614 18.4049C34.0253 17.3825 32.8249 15.8983 31.2334 14.1374C30.3692 13.1347 29.0728 12.0544 28.6788 11.5136C28.1295 10.8202 28.2862 10.5109 28.6788 9.89381C28.6788 9.89381 33.1977 3.64358 33.668 1.5211H33.6694Z" fill="#6181A8"/>
</svg>
