<svg width="22" height="23" viewBox="0 0 22 23" fill="none" xmlns="http://www.w3.org/2000/svg">
<path d="M16.038 13.2872C15.7623 13.1477 14.4196 12.4925 14.1687 12.399C13.9177 12.3096 13.7356 12.2628 13.5527 12.5385C13.3739 12.8073 12.8473 13.4227 12.6864 13.6021C12.5256 13.7815 12.3674 13.7953 12.0959 13.6736C11.8202 13.534 10.9395 13.2473 9.89381 12.3096C9.07706 11.5829 8.53325 10.6878 8.37169 10.4121C8.21081 10.1398 8.35381 9.98584 8.48994 9.84972C8.61506 9.72459 8.76562 9.53484 8.90519 9.36984C9.03788 9.20484 9.0805 9.09415 9.17744 8.9154C9.26681 8.72221 9.22075 8.57165 9.15269 8.43553C9.08463 8.2994 8.53669 6.94984 8.30775 6.41221C8.08912 5.87872 7.86019 5.94678 7.69175 5.94678C7.53431 5.93234 7.35144 5.93234 7.16925 5.93234C6.98706 5.93234 6.68937 6.0004 6.43844 6.26165C6.1875 6.53734 5.47869 7.19596 5.47869 8.52834C5.47869 9.86415 6.45975 11.1567 6.59587 11.3498C6.73544 11.5286 8.52569 14.2786 11.2723 15.4604C11.9274 15.7361 12.4362 15.9011 12.8336 16.0372C13.4887 16.2448 14.0869 16.216 14.5592 16.1479C15.0817 16.062 16.1776 15.4852 16.4072 14.841C16.6402 14.1927 16.6402 13.6557 16.5722 13.534C16.5041 13.4089 16.3254 13.3408 16.0497 13.2192L16.038 13.2872ZM11.0571 20.0405H11.0426C9.41669 20.0405 7.80931 19.5998 6.40544 18.7762L6.07613 18.5796L2.63863 19.4747L3.56263 16.13L3.34056 15.7863C2.43269 14.3428 1.95106 12.6722 1.95113 10.9669C1.95113 5.97565 6.03694 1.90428 11.0639 1.90428C13.4991 1.90428 15.7836 2.85303 17.5024 4.57178C18.3503 5.40956 19.0228 6.4078 19.4808 7.50827C19.9388 8.60873 20.173 9.78938 20.1699 10.9813C20.163 15.9692 16.0806 20.0405 11.0605 20.0405H11.0571ZM18.8093 3.26484C16.7179 1.24496 13.9679 0.103027 11.0426 0.103027C5.00913 0.103027 0.09625 4.99459 0.0928125 11.0061C0.0928125 12.9256 0.594 14.7983 1.55375 16.4559L0 22.103L5.808 20.5885C7.41696 21.4559 9.21541 21.9122 11.0433 21.9167H11.0468C17.0837 21.9167 21.9966 17.0252 22 11.0095C22 8.09865 20.8649 5.35896 18.7956 3.2999L18.8093 3.26484Z" fill="white"/>
</svg>
