<svg width="33" height="33" viewBox="0 0 33 33" fill="none" xmlns="http://www.w3.org/2000/svg">
<path d="M23.4227 19.2446C23.0217 19.0416 21.0687 18.0886 20.7037 17.9526C20.3387 17.8226 20.0737 17.7546 19.8077 18.1556C19.5477 18.5466 18.7817 19.4416 18.5477 19.7026C18.3137 19.9636 18.0837 19.9836 17.6887 19.8066C17.2877 19.6036 16.0067 19.1866 14.4857 17.8226C13.2977 16.7656 12.5067 15.4636 12.2717 15.0626C12.0377 14.6666 12.2457 14.4426 12.4437 14.2446C12.6257 14.0626 12.8447 13.7866 13.0477 13.5466C13.2407 13.3066 13.3027 13.1456 13.4437 12.8856C13.5737 12.6046 13.5067 12.3856 13.4077 12.1876C13.3087 11.9896 12.5117 10.0266 12.1787 9.24463C11.8607 8.46863 11.5277 8.56763 11.2827 8.56763C11.0537 8.54663 10.7877 8.54663 10.5227 8.54663C10.2577 8.54663 9.82473 8.64563 9.45973 9.02563C9.09473 9.42663 8.06373 10.3846 8.06373 12.3226C8.06373 14.2656 9.49073 16.1456 9.68873 16.4266C9.89173 16.6866 12.4957 20.6866 16.4907 22.4056C17.4437 22.8066 18.1837 23.0466 18.7617 23.2446C19.7147 23.5466 20.5847 23.5046 21.2717 23.4056C22.0317 23.2806 23.6257 22.4416 23.9597 21.5046C24.2987 20.5616 24.2987 19.7806 24.1997 19.6036C24.1007 19.4216 23.8407 19.3226 23.4397 19.1456L23.4227 19.2446ZM16.1777 29.0676H16.1567C13.7917 29.0676 11.4537 28.4266 9.41173 27.2286L8.93273 26.9426L3.93273 28.2446L5.27673 23.3796L4.95373 22.8796C3.63319 20.78 2.93262 18.35 2.93273 15.8696C2.93273 8.60963 8.87573 2.68763 16.1877 2.68763C19.7297 2.68763 23.0527 4.06763 25.5527 6.56763C26.786 7.78622 27.7643 9.23821 28.4304 10.8389C29.0966 12.4396 29.4373 14.1569 29.4327 15.8906C29.4227 23.1456 23.4847 29.0676 16.1827 29.0676H16.1777ZM27.4537 4.66663C24.4117 1.72863 20.4117 0.067627 16.1567 0.067627C7.38073 0.067627 0.234727 7.18263 0.229727 15.9266C0.229727 18.7186 0.958727 21.4426 2.35473 23.8536L0.0947266 32.0676L8.54273 29.8646C10.883 31.1264 13.499 31.7901 16.1577 31.7966H16.1627C24.9437 31.7966 32.0897 24.6816 32.0947 15.9316C32.0947 11.6976 30.4437 7.71263 27.4337 4.71763L27.4537 4.66663Z" fill="#47B452"/>
</svg>
