<?xml version="1.0" standalone="no"?>
<!DOCTYPE svg PUBLIC "-//W3C//DTD SVG 20010904//EN"
 "http://www.w3.org/TR/2001/REC-SVG-20010904/DTD/svg10.dtd">
<svg version="1.0" xmlns="http://www.w3.org/2000/svg"
 width="700.000000pt" height="700.000000pt" viewBox="0 0 700.000000 700.000000"
 preserveAspectRatio="xMidYMid meet">
<metadata>
Created by potrace 1.14, written by Peter Selinger 2001-2017
</metadata>
<g transform="translate(0.000000,700.000000) scale(0.100000,-0.100000)"
fill="#000000" stroke="none">
<path d="M3047 6564 c-1 -1 -51 -4 -112 -8 -60 -3 -119 -7 -130 -10 -11 -2
-42 -7 -69 -10 -61 -9 -169 -31 -216 -46 -19 -6 -42 -13 -50 -15 -104 -24
-427 -173 -495 -227 -5 -5 -30 -22 -55 -38 -102 -66 -252 -198 -355 -311 -165
-181 -306 -409 -390 -634 -42 -113 -100 -335 -110 -422 -4 -32 -9 -76 -12 -98
-13 -111 -9 -315 12 -490 8 -72 61 -283 97 -383 203 -581 691 -1051 1288
-1240 96 -30 257 -66 340 -76 25 -3 65 -8 90 -11 35 -5 727 -9 813 -6 16 1 17
18 17 216 0 118 -3 215 -7 216 -5 1 -179 2 -388 4 -209 1 -405 5 -435 9 -63 7
-98 14 -195 35 -27 7 -90 25 -140 42 -78 27 -131 51 -279 127 -29 15 -156 100
-166 112 -3 3 -21 17 -40 31 -152 113 -340 356 -435 561 -31 69 -91 237 -99
282 -2 12 -7 32 -10 46 -29 126 -40 362 -24 511 55 482 334 914 758 1170 195
118 427 195 655 216 39 4 674 7 1413 7 738 1 1343 3 1343 6 7 27 2 423 -5 428
-8 4 -2604 10 -2609 6z"/>
<path d="M3224 4441 c-2 -2 -4 -101 -4 -220 l0 -216 378 -1 c207 0 406 -4 442
-8 533 -58 995 -380 1239 -863 49 -96 114 -274 126 -343 3 -19 11 -55 16 -80
31 -136 31 -383 0 -560 -80 -466 -395 -895 -820 -1114 -154 -79 -340 -143
-471 -160 -25 -3 -65 -9 -90 -12 -25 -4 -659 -7 -1410 -8 l-1365 -1 -1 -218
c-2 -215 -2 -217 20 -218 112 -4 2689 0 2745 5 927 77 1682 772 1830 1686 17
106 23 197 23 335 -1 666 -333 1280 -899 1663 -34 23 -65 42 -69 42 -4 0 -15
6 -23 14 -56 50 -354 173 -518 215 -78 20 -89 22 -173 36 -25 4 -54 9 -65 11
-76 14 -898 28 -911 15z"/>
</g>
</svg>
