<?xml version="1.0" encoding="utf-8"?>
<!-- Generator: Adobe Illustrator 19.0.0, SVG Export Plug-In . SVG Version: 6.00 Build 0)  -->
<svg version="1.1" id="logo_1_" xmlns="http://www.w3.org/2000/svg" xmlns:xlink="http://www.w3.org/1999/xlink" x="0px" y="0px"
	 viewBox="0 0 181 105" style="enable-background:new 0 0 181 105;" xml:space="preserve">
<style type="text/css">
	.st0{fill:#2CB5E6;}
</style>
<g id="CallerID_x0D_Reputation">
	<path d="M52.1,32.2l-2.1,3c-1.2-1-2.6-1.5-4.2-1.5c-1.9,0-3.4,0.6-4.6,1.9c-1.2,1.2-1.8,2.8-1.8,4.7c0,1.9,0.6,3.4,1.9,4.7
		c1.2,1.3,2.8,1.9,4.6,1.9c0.7,0,1.5-0.1,2.2-0.4s1.4-0.7,2-1.1l2,3c-1,0.8-2,1.3-3.2,1.7c-1.1,0.4-2.4,0.6-3.6,0.6
		c-2.9,0-5.3-1-7.2-2.9c-1.9-2-2.8-4.4-2.8-7.3s1-5.4,2.9-7.4c1.9-2,4.4-3,7.3-3C48,29.9,50.2,30.6,52.1,32.2z"/>
	<path d="M64.1,38.4v-1.8h4v13.5h-4v-1.7c-0.4,0.7-0.9,1.3-1.7,1.6s-1.5,0.5-2.4,0.5c-2,0-3.5-0.7-4.7-2.2c-1.1-1.4-1.6-3.1-1.6-5.1
		c0-1.8,0.6-3.4,1.7-4.8c1.2-1.5,2.7-2.2,4.5-2.2c0.9,0,1.8,0.2,2.5,0.5S63.8,37.7,64.1,38.4z M61,47.3c1,0,1.9-0.4,2.5-1.1
		s0.9-1.7,0.9-2.8c0-1-0.3-1.9-0.9-2.7c-0.6-0.7-1.5-1.1-2.5-1.1c-1,0-1.8,0.4-2.4,1.1c-0.6,0.7-0.9,1.6-0.9,2.7
		c0,1.1,0.3,1.9,0.9,2.7C59.2,46.9,60,47.3,61,47.3z"/>
	<path d="M71.4,50.1V30.3h4v19.9H71.4z"/>
	<path d="M78.6,50.1V30.3h4v19.9H78.6z"/>
	<path d="M99.4,44.6H89.3l0.1,0.4c0.2,0.8,0.6,1.4,1.2,1.9c0.6,0.5,1.3,0.7,2.1,0.7c0.6,0,1.3-0.2,2-0.6c0.7-0.4,1.3-0.9,1.7-1.5
		l2.8,1.9c-0.9,1.1-1.8,1.9-2.8,2.4c-1,0.5-2.2,0.7-3.6,0.7c-2.1,0-3.8-0.6-5.2-1.9c-1.4-1.3-2.2-3-2.2-5c0-0.9,0.2-1.8,0.5-2.7
		c0.5-1.5,1.4-2.7,2.6-3.5c1.2-0.8,2.6-1.2,4.3-1.2c2.1,0,3.8,0.8,5.1,2.3c1.2,1.4,1.7,3.2,1.7,5.4L99.4,44.6z M89.2,42h6.3
		c0-0.8-0.3-1.5-0.9-2.1s-1.3-0.9-2.1-0.9c-0.9,0-1.6,0.3-2.2,0.8C89.8,40.4,89.4,41.1,89.2,42z"/>
	<path d="M102.1,50.1V36.6h4v2.3c0.2-0.8,0.6-1.5,1.3-2c0.7-0.5,1.5-0.7,2.4-0.7c0.2,0,0.4,0,0.6,0.1c0.2,0,0.5,0.1,0.7,0.1
		l-0.7,3.9c-0.2-0.1-0.4-0.2-0.6-0.2c-0.2,0-0.5-0.1-0.8-0.1c-1,0-1.7,0.3-2.3,1c-0.3,0.3-0.5,0.7-0.6,1c-0.1,0.3-0.1,0.8-0.1,1.5
		v6.6H102.1z"/>
	<path class="st0" d="M112.4,50.1V30.3h4.1v19.9H112.4z"/>
	<path class="st0" d="M119.7,50.1V30.3h5.9c3,0,5.5,0.8,7.4,2.5c2,1.8,3.1,4.1,3.1,7.1c0,3-0.9,5.4-2.7,7.4
		c-1.8,1.9-4.2,2.9-7.2,2.9H119.7z M123.8,46.5h2.4c1.8,0,3.2-0.6,4.3-1.9c1-1.2,1.5-2.7,1.5-4.5c0-1.7-0.6-3.2-1.7-4.4
		s-2.6-1.8-4.3-1.8h-2.2V46.5z"/>
	<path d="M35.8,71.9V52.1H42c2.2,0,3.8,0.5,5,1.4c1.3,1,2,2.6,2,4.7c0,1.3-0.4,2.4-1.1,3.3c-0.7,0.9-1.7,1.5-3,1.9l-0.4,0.1l5.6,8.5
		h-4.8l-5.6-9v9H35.8z M39.8,61.3h1.6c1.1,0,1.9-0.3,2.5-0.8s0.9-1.3,0.9-2.4c0-0.9-0.3-1.6-1-2.1c-0.6-0.5-1.4-0.7-2.4-0.7h-1.7
		V61.3z"/>
	<path d="M65.3,66.4H55.1l0.1,0.4c0.2,0.8,0.6,1.4,1.2,1.9c0.6,0.5,1.3,0.7,2.1,0.7c0.6,0,1.3-0.2,2-0.6c0.7-0.4,1.3-0.9,1.7-1.5
		l2.8,1.9c-0.9,1.1-1.8,1.9-2.8,2.4c-1,0.5-2.2,0.7-3.6,0.7c-2.1,0-3.8-0.6-5.2-1.9c-1.4-1.3-2.2-3-2.2-5c0-0.9,0.2-1.8,0.5-2.7
		c0.5-1.5,1.4-2.7,2.6-3.5c1.2-0.8,2.6-1.2,4.3-1.2c2.1,0,3.8,0.8,5.1,2.3c1.2,1.4,1.7,3.2,1.7,5.4L65.3,66.4z M55.1,63.9h6.3
		c0-0.8-0.3-1.5-0.9-2.1c-0.6-0.6-1.3-0.9-2.1-0.9c-0.9,0-1.6,0.3-2.2,0.8C55.6,62.2,55.3,63,55.1,63.9z"/>
	<path d="M68,77.1V58.4h4v2c0.3-0.8,0.9-1.4,1.6-1.8c0.7-0.4,1.6-0.6,2.5-0.6c1.9,0,3.5,0.7,4.6,2.1c1.1,1.3,1.6,3,1.6,5
		c0,2-0.5,3.7-1.6,5.1c-1.2,1.5-2.7,2.2-4.7,2.2c-0.9,0-1.7-0.2-2.4-0.6c-0.7-0.4-1.3-1-1.6-1.8v7.1H68z M75.2,69.1
		c1,0,1.8-0.4,2.4-1.2c0.6-0.8,0.9-1.7,0.9-2.7c0-1-0.3-1.9-0.8-2.7c-0.6-0.8-1.4-1.2-2.4-1.2c-1.1,0-1.9,0.4-2.5,1.1
		c-0.6,0.7-0.9,1.6-0.9,2.7c0,1.1,0.3,2.1,0.9,2.8C73.3,68.7,74.1,69.1,75.2,69.1z"/>
	<path d="M85.1,66.2v-7.8h4v7.4c0,0.9,0.2,1.6,0.5,2.1c0.4,0.5,1,0.7,1.8,0.7s1.5-0.3,1.9-0.8c0.3-0.5,0.5-1.1,0.5-2v-7.4h4v7.8
		c0,3.6-1.8,5.6-5.3,6.1l-1.1,0.1l-1.1-0.1C86.8,71.8,85.1,69.8,85.1,66.2z"/>
	<path d="M99.5,61.7v-3.3h2v-3.4h4v3.4h3.3v3.3h-3.3v5c0,0.8,0.1,1.3,0.3,1.7c0.3,0.5,0.7,0.8,1.4,0.8c0.2,0,0.5,0,0.8-0.1
		c0.3,0,0.5-0.1,0.7-0.2l0.6,2.9c-0.5,0.1-1,0.3-1.6,0.4c-0.5,0.1-1.1,0.1-1.6,0.1c-0.8,0-1.5-0.1-2.1-0.3s-1.1-0.6-1.6-1.2
		c-0.4-0.5-0.6-1-0.7-1.5c-0.1-0.5-0.2-1.2-0.2-1.9v-5.7H99.5z"/>
	<path d="M120.5,60.3v-1.8h4v13.5h-4v-1.7c-0.4,0.7-0.9,1.3-1.7,1.6c-0.7,0.4-1.5,0.5-2.4,0.5c-2,0-3.5-0.7-4.7-2.2
		c-1.1-1.4-1.6-3.1-1.6-5.1c0-1.8,0.6-3.4,1.7-4.8c1.2-1.5,2.7-2.2,4.5-2.2c0.9,0,1.8,0.2,2.5,0.5S120.1,59.5,120.5,60.3z
		 M117.4,69.1c1,0,1.9-0.4,2.5-1.1s0.9-1.7,0.9-2.8c0-1-0.3-1.9-0.9-2.7s-1.5-1.1-2.5-1.1c-1,0-1.8,0.4-2.4,1.1s-0.9,1.6-0.9,2.7
		s0.3,1.9,0.9,2.7C115.5,68.7,116.3,69.1,117.4,69.1z"/>
	<path d="M126.1,61.7v-3.3h2v-3.4h4v3.4h3.3v3.3h-3.3v5c0,0.8,0.1,1.3,0.3,1.7c0.3,0.5,0.7,0.8,1.4,0.8c0.2,0,0.5,0,0.8-0.1
		c0.3,0,0.5-0.1,0.7-0.2l0.6,2.9c-0.5,0.1-1,0.3-1.6,0.4c-0.5,0.1-1.1,0.1-1.6,0.1c-0.8,0-1.5-0.1-2.1-0.3s-1.1-0.6-1.6-1.2
		c-0.4-0.5-0.6-1-0.7-1.5c-0.1-0.5-0.2-1.2-0.2-1.9v-5.7H126.1z"/>
	<path d="M136.9,54.6c0-0.6,0.2-1.1,0.7-1.5c0.5-0.4,1-0.6,1.7-0.6c0.6,0,1.2,0.2,1.7,0.6c0.5,0.4,0.7,0.9,0.7,1.5
		c0,0.6-0.2,1.1-0.7,1.5s-1,0.6-1.7,0.6c-0.6,0-1.2-0.2-1.7-0.6C137.2,55.7,136.9,55.2,136.9,54.6z M137.3,71.9V58.4h4v13.5H137.3z"
		/>
	<path d="M144,65.2c0-2.1,0.7-3.8,2.1-5.1c1.4-1.3,3.1-2,5.3-2c2.1,0,3.8,0.7,5.3,2c1.4,1.3,2.1,3,2.1,5.1c0,2.1-0.7,3.8-2.1,5.2
		c-1.4,1.4-3.2,2-5.3,2c-2.1,0-3.9-0.7-5.3-2C144.6,69,144,67.3,144,65.2z M147.7,65.2c0,1.1,0.3,2,1,2.7s1.5,1.1,2.6,1.1
		c1.1,0,1.9-0.4,2.6-1.1c0.7-0.7,1-1.6,1-2.7c0-1.1-0.3-2-1-2.7s-1.5-1.1-2.5-1.1c-1.1,0-2,0.4-2.7,1.1
		C148.1,63.1,147.7,64.1,147.7,65.2z"/>
	<path d="M161.4,71.9V58.4h4l0,1.9c0.4-0.7,1-1.3,1.7-1.7s1.6-0.6,2.5-0.6c1.6,0,2.8,0.5,3.5,1.5c0.6,0.9,0.9,2.1,0.9,3.8v8.6h-4
		v-7.6c0-0.2,0-0.4,0-0.5c0-0.1,0-0.3,0-0.4c0-0.2-0.1-0.3-0.1-0.4c-0.1-0.5-0.4-1-0.7-1.3c-0.4-0.3-0.9-0.5-1.4-0.5
		c-0.9,0-1.5,0.3-1.9,1c-0.4,0.6-0.6,1.4-0.6,2.4v7.2H161.4z"/>
</g>
<g id="Shape_4_copy">
	<g>
		<path class="st0" d="M90.4,77.1c-1.5,2.1-3.1,4.1-4.9,5.9c-2.1,2.1-4.4,3.9-6.8,5.5c-2.4,1.6-4.9,2.9-7.5,3.9
			c-2.6,1-5.3,1.8-8,2.4c-3,0.6-6,0.8-9,0.8c0,0,0,0,0,0c-1.3,0-2.3,1-2.3,2.3c0,1.3,1,2.3,2.3,2.3c0.3,0,0.5,0,0.8,0
			c3.1,0,6.1-0.3,9.1-0.9c3-0.6,6-1.5,8.9-2.6c2.9-1.2,5.7-2.6,8.3-4.4c2.7-1.8,5.2-3.8,7.5-6.1c2.3-2.3,4.4-4.8,6.1-7.5
			c0,0,0,0,0,0C93.6,77.6,92.5,76.6,90.4,77.1z M102,5.6c-4.5-4.5-13.7-3.1-26.4,4c-0.9-0.4-1.8-0.9-2.8-1.2C70,7.3,67,6.4,64,5.8
			c-6-1.2-12.3-1.2-18.3,0c-3,0.6-6,1.5-8.9,2.6c-2.9,1.2-5.7,2.6-8.3,4.4c-2.7,1.8-5.2,3.8-7.5,6.1c-2.3,2.3-4.4,4.8-6.1,7.5
			c-1.7,2.6-3.2,5.4-4.4,8.3c-1.2,2.8-2,5.8-2.6,8.8c-0.6,3-0.9,6-0.9,9.1s0.3,6.1,0.9,9.1c0.6,3,1.5,6,2.6,8.8
			c0.4,0.9,0.8,1.8,1.2,2.7c-7.2,12.7-8.6,21.7-4,26.2c1.7,1.7,4.2,2.6,7.2,2.6c5.1,0,11.9-2.4,20.3-7.2c0,0,0,0,0,0c0,0,0,0,0,0
			c6.7-3.8,13.9-9,21.1-15.1c-0.1-0.6-0.1-1.3-0.6-1.9c-0.5-0.6-1.5-1.1-2.4-1.6C46.6,81.8,40,86.5,33.9,90.2c-1-0.5-2-1.1-2.9-1.7
			c-2.4-1.6-4.7-3.4-6.8-5.5c-2.1-2.1-3.9-4.3-5.6-6.7c-1.6-2.4-2.9-4.9-4-7.5c-1-2.6-1.8-5.2-2.4-8c-0.5-2.7-0.8-5.5-0.8-8.2
			c0-2.8,0.3-5.5,0.8-8.2c0.5-2.7,1.3-5.4,2.4-8c1.1-2.6,2.4-5.1,4-7.5c1.6-2.4,3.5-4.7,5.6-6.7c2.1-2.1,4.4-3.9,6.8-5.5
			c2.4-1.6,4.9-2.9,7.5-3.9c2.6-1,5.3-1.8,8-2.4c5.4-1,11.1-1,16.5,0c2.7,0.5,5.4,1.3,8,2.4c2.6,1.1,5.2,2.4,7.5,3.9
			c1.8,1.2,3.6,2.6,5.2,4c0.9,0.8,2.4,0.8,3.3-0.2c0.9-0.9,0.8-2.4-0.2-3.2c-1.8-1.6-3.7-3.1-5.8-4.4c-0.3-0.2-0.5-0.3-0.8-0.5
			c10.5-5.4,16.4-5.4,18.4-3.4c2.2,2.2,2,9.1-5.4,21.8c1.1,1.7,2.4,2.8,4.6,1.2C105.2,19.2,106.6,10.1,102,5.6z M14.3,77.9
			c0.2,0.3,0.3,0.5,0.5,0.8c1.8,2.7,3.8,5.2,6.1,7.5c2.3,2.3,4.8,4.3,7.5,6.1c0.3,0.2,0.5,0.3,0.8,0.5c-10.5,5.4-16.4,5.4-18.4,3.4
			C8.8,94.2,8.9,88.3,14.3,77.9z"/>
	</g>
</g>
<g id="Shape_4">
	<g>
		<path class="st0" d="M134.3,26c-0.4-0.1-0.9-0.2-1.3-0.2c-0.9-0.1-1.5,0.5-1.6,1.2c-0.1,0.7,0.2,1.6,1.1,1.8
			c0.4,0.1,0.8,0.1,1.1,0.2c3.5,0.9,5.8,4,5.5,7.7c-0.1,0.8,0.4,1.4,1.2,1.6c0.5,0.1,1,0,1.3-0.2c0.2-0.2,0.5-0.5,0.6-1.1
			C142.6,31.8,139.3,27.3,134.3,26z M135.5,20.1c-0.7-0.2-1.4-0.3-2.1-0.4c-0.9-0.1-1.5,0.5-1.6,1.2c-0.1,0.7,0.2,1.6,1.1,1.8
			c0.6,0.2,1.3,0.2,1.9,0.4c6.6,1.7,10.8,7.6,10.3,14.4c-0.1,0.8,0.4,1.4,1.2,1.6c0.5,0.1,1,0,1.3-0.2c0.2-0.2,0.5-0.5,0.6-1.1
			C148.8,29.4,143.6,22.1,135.5,20.1z"/>
	</g>
</g>
</svg>
