<svg width="51" height="50" viewBox="0 0 51 50" fill="none" xmlns="http://www.w3.org/2000/svg">
<path d="M50.4457 22.3315H9.90351L34.1692 0.983146C34.5572 0.639045 34.3217 0 33.8089 0H27.6767C27.4064 0 27.15 0.0983142 26.9491 0.273876L0.764025 23.3006C0.5242 23.5112 0.331861 23.7717 0.200042 24.0643C0.0682217 24.3569 0 24.6748 0 24.9965C0 25.3181 0.0682217 25.6361 0.200042 25.9287C0.331861 26.2213 0.5242 26.4817 0.764025 26.6924L27.1015 49.8596C27.2055 49.9508 27.3302 50 27.4618 50H33.802C34.3147 50 34.5503 49.3539 34.1623 49.0169L9.90351 27.6685H50.4457C50.7506 27.6685 51 27.4157 51 27.1067V22.8933C51 22.5843 50.7506 22.3315 50.4457 22.3315Z" fill="#979797"/>
</svg>
