<svg width="24" height="24" viewBox="0 0 24 24" fill="none" xmlns="http://www.w3.org/2000/svg">
<path fill-rule="evenodd" clip-rule="evenodd" d="M10.4132 2.06322C12.6917 1.85474 14.9643 2.51311 16.7896 3.90888C17.8807 4.74326 18.7653 5.80541 19.392 7.01053C19.5194 7.25553 19.4241 7.55742 19.1791 7.68482C18.9341 7.81222 18.6322 7.71689 18.5048 7.4719C17.9448 6.39504 17.155 5.44719 16.1821 4.70325C14.555 3.45902 12.5314 2.87358 10.5043 3.05906C8.47716 3.24455 6.58876 4.188 5.2065 5.70834C3.82407 7.22888 3.04687 9.21781 3.02771 11.2891C3.00854 13.3604 3.7488 15.3639 5.10292 16.9106C6.45688 18.4571 8.32757 19.4363 10.351 19.6604C12.3743 19.8845 14.4083 19.3377 16.0581 18.1248C17.0868 17.3684 17.9206 16.3866 18.5048 15.2631C18.6322 15.0181 18.9341 14.9228 19.1791 15.0502C19.4241 15.1776 19.5194 15.4795 19.392 15.7245C18.7382 16.9817 17.8043 18.0821 16.6504 18.9304C14.7995 20.2913 12.5151 20.9062 10.2409 20.6543C7.9668 20.4025 5.86769 19.3022 4.35053 17.5693C2.83354 15.8366 2.00633 13.5949 2.02775 11.2799C2.04917 8.96479 2.91773 6.73922 4.46659 5.03564C6.01563 3.33185 8.13482 2.2717 10.4132 2.06322ZM16.5547 10.1035C16.5547 9.82737 16.7785 9.60352 17.0547 9.60352H23.3705C23.6466 9.60352 23.8705 9.82737 23.8705 10.1035C23.8705 10.3797 23.6466 10.6035 23.3705 10.6035H17.0547C16.7785 10.6035 16.5547 10.3797 16.5547 10.1035ZM17.0547 12.7617C16.7785 12.7617 16.5547 12.9856 16.5547 13.2617C16.5547 13.5379 16.7785 13.7617 17.0547 13.7617H19.581C19.8571 13.7617 20.081 13.5379 20.081 13.2617C20.081 12.9856 19.8571 12.7617 19.581 12.7617H17.0547ZM11.3691 5.81445C11.6453 5.81445 11.8691 6.03831 11.8691 6.31445V11.0582L14.1191 12.1831C14.3661 12.3066 14.4662 12.607 14.3427 12.854C14.2192 13.1009 13.9188 13.2011 13.6718 13.0776L11.1496 11.8164C11.1438 11.8136 11.1381 11.8107 11.1324 11.8076C11.044 11.7601 10.9753 11.6895 10.9303 11.607C10.9016 11.5545 10.882 11.4962 10.8736 11.4344C10.8701 11.4087 10.8686 11.3826 10.8691 11.3564V6.31445C10.8691 6.03831 11.093 5.81445 11.3691 5.81445Z" fill="#B8B8B8"/>
</svg>
