<svg width="198" height="108" viewBox="0 0 198 108" fill="none" xmlns="http://www.w3.org/2000/svg">
<rect width="198" height="108" fill="url(#paint0_linear)"/>
<path d="M32.1549 28.873H40.5973C44.4443 28.873 47.2337 29.4235 48.9654 30.5244C50.7096 31.613 51.5816 33.3509 51.5816 35.7383C51.5816 37.3587 51.1982 38.6885 50.4313 39.7275C49.6767 40.7666 48.6686 41.3913 47.4068 41.6016V41.7871C49.1262 42.1706 50.3632 42.888 51.1178 43.9395C51.8847 44.9909 52.2682 46.3887 52.2682 48.1328C52.2682 50.6068 51.3714 52.5365 49.5777 53.9219C47.7965 55.3073 45.372 56 42.3043 56H32.1549V28.873ZM37.9068 39.6162H41.2467C42.8053 39.6162 43.9309 39.375 44.6236 38.8926C45.3287 38.4102 45.6813 37.6123 45.6813 36.499C45.6813 35.46 45.2978 34.7178 44.5309 34.2725C43.7763 33.8148 42.5764 33.5859 40.9313 33.5859H37.9068V39.6162ZM37.9068 44.1807V51.25H41.6549C43.2382 51.25 44.4072 50.9469 45.1617 50.3408C45.9163 49.7347 46.2936 48.807 46.2936 47.5576C46.2936 45.3063 44.6855 44.1807 41.4693 44.1807H37.9068ZM71.6326 56L69.6658 49.543H59.7761L57.8093 56H51.6121L61.1863 28.7617H68.2185L77.8298 56H71.6326ZM68.2927 44.7188C66.4744 38.8678 65.4477 35.5589 65.2127 34.792C64.99 34.0251 64.8292 33.4189 64.7302 32.9736C64.322 34.557 63.1531 38.472 61.2234 44.7188H68.2927ZM100.683 28.873V46.4258C100.683 48.4297 100.231 50.1862 99.328 51.6953C98.4374 53.2044 97.1448 54.361 95.4501 55.165C93.7555 55.9691 91.7516 56.3711 89.4384 56.3711C85.9501 56.3711 83.2411 55.4805 81.3114 53.6992C79.3818 51.9056 78.4169 49.4564 78.4169 46.3516V28.873H84.1503V45.4795C84.1503 47.57 84.5709 49.1038 85.412 50.0811C86.2532 51.0583 87.6448 51.5469 89.5868 51.5469C91.467 51.5469 92.8277 51.0583 93.6689 50.0811C94.5224 49.0915 94.9491 47.5452 94.9491 45.4424V28.873H100.683ZM121.272 56L119.305 49.543H109.415L107.448 56H101.251L110.825 28.7617H117.857L127.469 56H121.272ZM117.932 44.7188C116.113 38.8678 115.087 35.5589 114.852 34.792C114.629 34.0251 114.468 33.4189 114.369 32.9736C113.961 34.557 112.792 38.472 110.862 44.7188H117.932ZM133.993 40.915H135.849C137.667 40.915 139.009 40.612 139.875 40.0059C140.741 39.3997 141.174 38.4473 141.174 37.1484C141.174 35.862 140.729 34.9466 139.838 34.4023C138.96 33.8581 137.593 33.5859 135.738 33.5859H133.993V40.915ZM133.993 45.5908V56H128.241V28.873H136.146C139.832 28.873 142.559 29.5472 144.328 30.8955C146.097 32.2314 146.982 34.2663 146.982 37C146.982 38.5957 146.543 40.0182 145.664 41.2676C144.786 42.5046 143.543 43.4756 141.935 44.1807C146.017 50.279 148.676 54.2188 149.913 56H143.531L137.055 45.5908H133.993ZM161.132 56H155.38V33.6602H148.014V28.873H168.498V33.6602H161.132V56Z" fill="white"/>
<path d="M40.6997 71.0034H47.2793L47.2793 79.1455C45.554 79.8779 43.6131 80.2441 41.4565 80.2441C38.6408 80.2441 36.4801 79.4507 34.9746 77.8638C33.4772 76.2687 32.7285 74.0145 32.7285 71.1011C32.7285 69.2863 33.0988 67.679 33.8394 66.2793C34.5881 64.8714 35.6541 63.785 37.0376 63.02C38.4292 62.255 40.0243 61.8726 41.8228 61.8726C43.7677 61.8726 45.5133 62.2306 47.0596 62.9468L46.5591 64.0698C45.0129 63.3537 43.4097 62.9956 41.7495 62.9956C39.3976 62.9956 37.5299 63.724 36.1465 65.1807C34.7712 66.6292 34.0835 68.5864 34.0835 71.0522C34.0835 73.7378 34.7386 75.7601 36.0488 77.1191C37.359 78.4701 39.2837 79.1455 41.8228 79.1455C43.4666 79.1455 44.8623 78.9136 46.0098 78.4497L46.0098 72.1753H40.6997V71.0034ZM65.7666 72.2241V80H64.5215V62.1533H68.7695C70.9831 62.1533 72.6188 62.5643 73.6768 63.3862C74.7347 64.2 75.2637 65.4289 75.2637 67.0728C75.2637 68.269 74.9463 69.2782 74.3115 70.1001C73.6849 70.922 72.7287 71.512 71.4429 71.8701L76.2891 80H74.7998L70.1978 72.2241H65.7666ZM65.7666 71.1499H69.1724C70.6779 71.1499 71.8457 70.8162 72.6758 70.1489C73.5059 69.4735 73.9209 68.4806 73.9209 67.1704C73.9209 65.8114 73.514 64.8226 72.7002 64.2041C71.8864 63.5856 70.5599 63.2764 68.7207 63.2764H65.7666V71.1499ZM107.142 71.0522C107.142 73.8843 106.434 76.1263 105.018 77.7783C103.602 79.4222 101.649 80.2441 99.1587 80.2441C96.6766 80.2441 94.7275 79.4222 93.3115 77.7783C91.8955 76.1263 91.1875 73.8761 91.1875 71.0278C91.1875 68.1877 91.8996 65.9538 93.3237 64.3262C94.756 62.6904 96.7091 61.8726 99.1831 61.8726C101.673 61.8726 103.622 62.6945 105.03 64.3384C106.438 65.9741 107.142 68.2121 107.142 71.0522ZM92.5425 71.0522C92.5425 73.6076 93.1121 75.5851 94.2515 76.9849C95.3908 78.3765 97.0265 79.0723 99.1587 79.0723C101.307 79.0723 102.947 78.3805 104.078 76.9971C105.217 75.6136 105.787 73.632 105.787 71.0522C105.787 68.4806 105.217 66.5112 104.078 65.144C102.947 63.7687 101.315 63.0811 99.1831 63.0811C97.0591 63.0811 95.4193 63.7728 94.2637 65.1563C93.1162 66.5397 92.5425 68.505 92.5425 71.0522ZM137.128 62.1533V73.7012C137.128 75.752 136.534 77.3551 135.346 78.5107C134.158 79.6663 132.502 80.2441 130.378 80.2441C128.311 80.2441 126.695 79.6663 125.532 78.5107C124.376 77.347 123.798 75.7275 123.798 73.6523V62.1533H125.056V73.7012C125.056 75.4183 125.532 76.757 126.484 77.7173C127.436 78.6694 128.783 79.1455 130.524 79.1455C132.225 79.1455 133.544 78.6776 134.479 77.7417C135.415 76.7977 135.883 75.4915 135.883 73.8232V62.1533H137.128ZM165.491 67.2803C165.491 69.0055 164.905 70.328 163.733 71.2476C162.562 72.1672 160.901 72.627 158.753 72.627H155.994V80H154.749V62.1533H159.119C163.367 62.1533 165.491 63.8623 165.491 67.2803ZM155.994 71.5527H158.448C160.458 71.5527 161.91 71.2231 162.806 70.564C163.701 69.8966 164.148 68.8184 164.148 67.3291C164.148 65.9538 163.725 64.9365 162.879 64.2773C162.033 63.61 160.722 63.2764 158.948 63.2764H155.994V71.5527Z" fill="white"/>
<defs>
<linearGradient id="paint0_linear" x1="0" y1="108" x2="198" y2="-1.60933e-06" gradientUnits="userSpaceOnUse">
<stop stop-color="#363636"/>
<stop offset="1" stop-color="#505050"/>
</linearGradient>
</defs>
</svg>
