<svg width="56" height="56" viewBox="0 0 56 56" fill="none" xmlns="http://www.w3.org/2000/svg">
<path d="M47 27.1907C47 36.6849 38.4934 44.3814 28 44.3814C24.9667 44.3814 22.0994 43.7383 19.5556 42.5945C16.3862 41.1694 13.7191 38.9673 11.8587 36.2636C10.0467 33.6302 9 30.521 9 27.1907C9 17.6965 17.5066 10 28 10C38.4934 10 47 17.6965 47 27.1907Z" fill="white"/>
<path d="M11.8587 36.2636L10.328 41.7316C9.91721 43.199 11.2328 44.5684 12.7155 44.2168L19.5556 42.5945C16.3862 41.1694 13.7191 38.9673 11.8587 36.2636Z" fill="white"/>
<circle cx="20" cy="28" r="2" fill="#2B2A29"/>
<circle cx="28" cy="28" r="2" fill="#2B2A29"/>
<circle cx="36" cy="28" r="2" fill="#2B2A29"/>
</svg>
