<svg width="25" height="26" viewBox="0 0 25 26" fill="none" xmlns="http://www.w3.org/2000/svg">
<path d="M12.4997 23.4163C18.2526 23.4163 22.9163 18.7526 22.9163 12.9997C22.9163 7.24671 18.2526 2.58301 12.4997 2.58301C6.74671 2.58301 2.08301 7.24671 2.08301 12.9997C2.08301 18.7526 6.74671 23.4163 12.4997 23.4163Z" stroke="#AFB4B8" stroke-width="1.64062"/>
<path d="M6.25 5.40713C7.06275 6.14725 8.73703 8.17028 8.93209 10.3413C9.11442 12.3706 10.4539 14.0197 12.5 14.042C13.2864 14.0505 14.0816 13.4825 14.0796 12.6962C14.079 12.4529 14.0389 12.2043 13.976 11.9756C13.8886 11.6574 13.8809 11.2915 14.0625 10.917C14.6978 9.60714 15.9473 9.25529 16.9374 8.54393C17.3765 8.22843 17.777 7.89561 17.9536 7.62752C18.4414 6.88739 18.929 5.40713 18.6851 4.66699" stroke="#AFB4B8" stroke-width="1.64062"/>
<path d="M22.917 14.042C22.5738 15.0118 22.331 17.5576 18.4568 17.598C18.4568 17.598 15.0259 17.598 13.9967 19.5377C13.1732 21.0894 13.6535 22.7704 13.9967 23.417" stroke="#AFB4B8" stroke-width="1.64062"/>
</svg>
