<svg width="35" height="35" viewBox="0 0 35 35" fill="none" xmlns="http://www.w3.org/2000/svg">
<path d="M19.01 3.11818C17.2995 3.11528 15.6027 3.42923 14.0023 4.04475C14.1205 4.04475 14.2415 4.04475 14.3625 4.04475C15.9141 4.03231 17.4401 4.44814 18.7788 5.24819C20.1144 6.01934 21.227 7.13605 22.0043 8.48568C22.7862 9.82894 23.1933 11.3646 23.1817 12.9266C23.1789 14.3947 22.8382 15.8416 22.1871 17.151C21.5656 18.4514 20.6363 19.5735 19.483 20.4159C18.406 21.2175 17.107 21.6495 15.7736 21.6495C13.738 21.6495 12.1503 21.2319 11.0106 20.3967L10.3601 16.038C10.874 16.7133 11.5409 17.2513 12.3035 17.606C13.0679 17.9876 13.9066 18.189 14.7576 18.1954C15.6161 18.2037 16.4578 17.9529 17.1768 17.4745C17.9133 16.9924 18.5093 16.3173 18.9024 15.5199C19.3171 14.6936 19.5318 13.7781 19.5287 12.8499C19.5378 11.9025 19.2974 10.97 18.8325 10.1497C18.3821 9.33404 17.7212 8.65992 16.9214 8.20059C16.117 7.72679 15.2027 7.48162 14.2738 7.49059C12.6852 7.49059 11.4218 8.03885 10.4649 9.13538C9.508 10.2319 9.03223 11.7478 9.03223 13.6777V27.9326C10.6933 29.602 12.7318 30.8288 14.9678 31.5047C17.2038 32.1806 19.5686 32.2848 21.8534 31.8081C24.1382 31.3313 26.2728 30.2884 28.0689 28.7712C29.865 27.254 31.2672 25.3093 32.1519 23.1087C33.0367 20.908 33.3767 18.5191 33.1419 16.1528C32.9071 13.7864 32.1048 11.5154 30.8058 9.54011C29.5067 7.56481 27.7509 5.94597 25.6933 4.82647C23.6356 3.70698 21.3394 3.12123 19.0073 3.12093L19.01 3.11818Z" fill="#2B2A29"/>
<path d="M5.48634 13.0801H2.2124V31.7923H5.48634V13.0801Z" fill="#2B2A29"/>
<path d="M2 5.39622C2 4.35706 2.84241 3.51465 3.88158 3.51465C4.92074 3.51465 5.76315 4.35706 5.76315 5.39622V5.47092C5.76315 6.51008 4.92074 7.35249 3.88158 7.35249C2.84241 7.35249 2 6.51008 2 5.47091V5.39622Z" fill="url(#paint0_radial_385_1158)"/>

</svg>
