<svg width="46" height="44" viewBox="0 0 46 44" fill="none" xmlns="http://www.w3.org/2000/svg">
<path d="M26.241 3.94143C23.993 3.93761 21.7629 4.35023 19.6595 5.1592C19.8149 5.1592 19.9739 5.1592 20.1329 5.1592C22.1721 5.14286 24.1777 5.68938 25.9372 6.74087C27.6926 7.75438 29.1548 9.22206 30.1765 10.9959C31.2041 12.7613 31.7392 14.7795 31.7239 16.8325C31.7202 18.762 31.2724 20.6637 30.4167 22.3845C29.5999 24.0937 28.3785 25.5685 26.8628 26.6756C25.4472 27.7291 23.7401 28.2969 21.9876 28.2969C19.3121 28.2969 17.2254 27.748 15.7276 26.6503L14.8726 20.9218C15.5481 21.8093 16.4245 22.5164 17.4268 22.9826C18.4314 23.4841 19.5337 23.7488 20.6522 23.7572C21.7805 23.7681 22.8867 23.4385 23.8317 22.8097C24.7997 22.1761 25.583 21.2889 26.0997 20.2408C26.6447 19.1548 26.9269 17.9516 26.9228 16.7316C26.9347 15.4865 26.6188 14.2609 26.0079 13.1828C25.4159 12.1108 24.5472 11.2249 23.4961 10.6212C22.4388 9.99846 21.2372 9.67623 20.0163 9.68802C17.9285 9.68802 16.2681 10.4086 15.0104 11.8497C13.7527 13.2909 13.1274 15.2833 13.1274 17.8197V36.5546C15.3106 38.7488 17.9897 40.3612 20.9285 41.2495C23.8672 42.1378 26.9752 42.2747 29.9781 41.6481C32.981 41.0216 35.7865 39.6508 38.1471 37.6568C40.5076 35.6628 42.3506 33.1069 43.5134 30.2147C44.6761 27.3224 45.123 24.1827 44.8144 21.0726C44.5059 17.9626 43.4514 14.9778 41.7441 12.3817C40.0368 9.78556 37.7292 7.65796 35.0248 6.18661C32.3205 4.71527 29.3026 3.94543 26.2375 3.94504L26.241 3.94143Z" fill="white"/>
<path d="M8.46793 17.0332H4.16504V41.6264H8.46793V17.0332Z" fill="white"/>
<rect x="3.88599" y="4.46289" width="4.94586" height="5.04402" rx="2.47293" fill="url(#paint0_radial_245_2069)"/>

</svg>
