<svg width="32" height="32" viewBox="0 0 32 32" fill="none" xmlns="http://www.w3.org/2000/svg">
<path d="M27.8483 9.69541C26.7266 14.0699 24.4501 18.0625 21.2568 21.2558C18.0635 24.4491 14.0708 26.7257 9.69639 27.8474C6.33043 28.7042 3.4707 25.8099 3.4707 22.3354V20.7633C3.4707 19.8955 4.1766 19.199 5.0397 19.1125C6.47097 18.9703 7.87595 18.6322 9.21531 18.1079L11.605 20.4976C15.4958 18.6324 18.6334 15.4948 20.4986 11.604L18.1089 9.21433C18.6338 7.87505 18.9723 6.47007 19.1151 5.03872C19.2 4.17405 19.8964 3.46973 20.7643 3.46973H22.3364C25.8108 3.46973 28.7052 6.32945 27.8483 9.69541Z" stroke-width="1.5" stroke-linecap="round" stroke-linejoin="round"/>
</svg>
