<svg width="291" height="428" viewBox="0 0 291 428" fill="none" xmlns="http://www.w3.org/2000/svg">
<g opacity="0.2">
<path d="M119.304 237.22C189.352 237.22 235.608 184.788 235.608 120.11C235.608 55.432 183.537 3 119.304 3C55.071 3 3 55.432 3 120.11V375.172" stroke="#FF0000" stroke-width="4.30246"/>
<path d="M29.1692 401.34V146.278C29.1692 81.6 81.2402 29.168 145.473 29.168C209.706 29.168 261.777 81.6 261.777 146.278C261.777 210.956 209.706 263.388 139.658 263.388H119.305" stroke="#FF0000" stroke-width="4.30246"/>
<path d="M55.3381 427.509V172.447C55.3381 107.769 107.409 55.3369 171.642 55.3369C235.875 55.3369 287.946 107.769 287.946 172.447C287.946 237.125 232.967 289.557 157.104 289.557H119.305" stroke="#FF0000" stroke-width="4.30246"/>
</g>
</svg>
