<svg width="36" height="29" viewBox="0 0 36 29" fill="none" xmlns="http://www.w3.org/2000/svg">
<path d="M28.4084 3.16351L28.8354 2.90328L28.4084 3.16351ZM33.8164 12.036L34.2434 11.7757V11.7757L33.8164 12.036ZM29.2002 24.15H29.7002C29.7002 23.8739 29.4763 23.65 29.2002 23.65V24.15ZM6.8002 24.15V23.65C6.52405 23.65 6.3002 23.8739 6.3002 24.15H6.8002ZM2.18398 12.036L2.61092 12.2962H2.61092L2.18398 12.036ZM7.59196 3.16351L7.16502 2.90328L7.59196 3.16351ZM1.50802 7.13098C1.29041 6.96098 0.976189 6.99957 0.806183 7.21717C0.636178 7.43478 0.674766 7.749 0.892373 7.91901L1.50802 7.13098ZM6.28101 11.4944L5.97319 11.8884L6.28101 11.4944ZM29.7194 11.4944L30.0272 11.8884L29.7194 11.4944ZM35.108 7.91901C35.3256 7.749 35.3642 7.43478 35.1942 7.21717C35.0242 6.99957 34.71 6.96098 34.4924 7.13098L35.108 7.91901ZM7.73353 17.525C7.45739 17.525 7.23353 17.7489 7.23353 18.025C7.23353 18.3011 7.45739 18.525 7.73353 18.525V17.525ZM7.7522 18.525C8.02834 18.525 8.2522 18.3011 8.2522 18.025C8.2522 17.7489 8.02834 17.525 7.7522 17.525V18.525ZM28.2669 17.525C27.9907 17.525 27.7669 17.7489 27.7669 18.025C27.7669 18.3011 27.9907 18.525 28.2669 18.525V17.525ZM28.2855 18.525C28.5617 18.525 28.7855 18.3011 28.7855 18.025C28.7855 17.7489 28.5617 17.525 28.2855 17.525V18.525ZM10.8334 1.89999H25.167V0.899994H10.8334V1.89999ZM27.9815 3.42374L33.3895 12.2962L34.2434 11.7757L28.8354 2.90328L27.9815 3.42374ZM34.3002 15.5089V25.9H35.3002V15.5089H34.3002ZM32.9335 27.15H31.0669V28.15H32.9335V27.15ZM29.7002 25.9V24.15H28.7002V25.9H29.7002ZM29.2002 23.65H6.8002V24.65H29.2002V23.65ZM6.3002 24.15V25.9H7.3002V24.15H6.3002ZM4.93353 27.15H3.06686V28.15H4.93353V27.15ZM1.7002 25.9V15.5089H0.700195V25.9H1.7002ZM2.61092 12.2962L8.0189 3.42374L7.16502 2.90328L1.75704 11.7757L2.61092 12.2962ZM1.7002 15.5089C1.7002 14.3842 2.01317 13.2769 2.61092 12.2962L1.75704 11.7757C1.06542 12.9104 0.700195 14.1973 0.700195 15.5089H1.7002ZM3.06686 27.15C2.28119 27.15 1.7002 26.5604 1.7002 25.9H0.700195C0.700195 27.1725 1.79068 28.15 3.06686 28.15V27.15ZM6.3002 25.9C6.3002 26.5604 5.71921 27.15 4.93353 27.15V28.15C6.20971 28.15 7.3002 27.1725 7.3002 25.9H6.3002ZM31.0669 27.15C30.2812 27.15 29.7002 26.5604 29.7002 25.9H28.7002C28.7002 27.1725 29.7907 28.15 31.0669 28.15V27.15ZM34.3002 25.9C34.3002 26.5604 33.7192 27.15 32.9335 27.15V28.15C34.2097 28.15 35.3002 27.1725 35.3002 25.9H34.3002ZM33.3895 12.2962C33.9872 13.2769 34.3002 14.3842 34.3002 15.5089H35.3002C35.3002 14.1973 34.935 12.9104 34.2434 11.7757L33.3895 12.2962ZM25.167 1.89999C26.3427 1.89999 27.4128 2.4908 27.9815 3.42374L28.8354 2.90328C28.0746 1.65519 26.6707 0.899994 25.167 0.899994V1.89999ZM10.8334 0.899994C9.32968 0.899994 7.92576 1.65519 7.16502 2.90328L8.0189 3.42374C8.58755 2.4908 9.65766 1.89999 10.8334 1.89999V0.899994ZM0.892373 7.91901L5.97319 11.8884L6.58883 11.1004L1.50802 7.13098L0.892373 7.91901ZM7.47602 12.4H28.5244V11.4H7.47602V12.4ZM30.0272 11.8884L35.108 7.91901L34.4924 7.13098L29.4116 11.1004L30.0272 11.8884ZM28.5244 12.4C29.0695 12.4 29.6014 12.221 30.0272 11.8884L29.4116 11.1004C29.1664 11.2919 28.8526 11.4 28.5244 11.4V12.4ZM5.97319 11.8884C6.39899 12.221 6.93089 12.4 7.47602 12.4V11.4C7.14779 11.4 6.83397 11.2919 6.58883 11.1004L5.97319 11.8884ZM7.73353 18.525H7.7522V17.525H7.73353V18.525ZM8.16686 18.025C8.16686 18.2022 8.00374 18.4 7.73353 18.4V19.4C8.49425 19.4 9.16686 18.8143 9.16686 18.025H8.16686ZM7.73353 18.4C7.46332 18.4 7.3002 18.2022 7.3002 18.025H6.3002C6.3002 18.8143 6.97281 19.4 7.73353 19.4V18.4ZM7.3002 18.025C7.3002 17.8478 7.46332 17.65 7.73353 17.65V16.65C6.97281 16.65 6.3002 17.2357 6.3002 18.025H7.3002ZM7.73353 17.65C8.00374 17.65 8.16686 17.8478 8.16686 18.025H9.16686C9.16686 17.2357 8.49425 16.65 7.73353 16.65V17.65ZM28.2669 18.525H28.2855V17.525H28.2669V18.525ZM28.7002 18.025C28.7002 18.2022 28.5371 18.4 28.2669 18.4V19.4C29.0276 19.4 29.7002 18.8143 29.7002 18.025H28.7002ZM28.2669 18.4C27.9967 18.4 27.8335 18.2022 27.8335 18.025H26.8335C26.8335 18.8143 27.5061 19.4 28.2669 19.4V18.4ZM27.8335 18.025C27.8335 17.8478 27.9967 17.65 28.2669 17.65V16.65C27.5061 16.65 26.8335 17.2357 26.8335 18.025H27.8335ZM28.2669 17.65C28.5371 17.65 28.7002 17.8478 28.7002 18.025H29.7002C29.7002 17.2357 29.0276 16.65 28.2669 16.65V17.65Z" fill="#DA5063"/>
</svg>
