<svg width="42" height="42" viewBox="0 0 42 42" fill="none" xmlns="http://www.w3.org/2000/svg">
<path d="M35 12.25H7C5.067 12.25 3.5 13.817 3.5 15.75V33.25C3.5 35.183 5.067 36.75 7 36.75H35C36.933 36.75 38.5 35.183 38.5 33.25V15.75C38.5 13.817 36.933 12.25 35 12.25Z" stroke="#DA5063" stroke-linecap="round" stroke-linejoin="round"/>
<path d="M28 36.75V8.75C28 7.82174 27.6313 6.9315 26.9749 6.27513C26.3185 5.61875 25.4283 5.25 24.5 5.25H17.5C16.5717 5.25 15.6815 5.61875 15.0251 6.27513C14.3687 6.9315 14 7.82174 14 8.75V36.75" stroke="#DA5063" stroke-linecap="round" stroke-linejoin="round"/>
</svg>
