<svg width="42" height="42" viewBox="0 0 42 42" fill="none" xmlns="http://www.w3.org/2000/svg">
<path d="M10.2667 18.6471V7C10.2667 5.89543 11.1621 5 12.2667 5H23.3333M32.2 18.6471H9C7.89543 18.6471 7 19.5425 7 20.6471V28.4118C7 29.5163 7.89543 30.4118 9 30.4118H10.2667M32.2 18.6471V14.4118M32.2 18.6471H33C34.1046 18.6471 35 19.5425 35 20.6471V28.4118C35 29.5163 34.1046 30.4118 33 30.4118H32.2M32.2 30.4118H10.2667M32.2 30.4118V35C32.2 36.1046 31.3046 37 30.2 37H12.2667C11.1621 37 10.2667 36.1046 10.2667 35V30.4118M23.3333 5L32.2 14.4118M23.3333 5V12.4118C23.3333 13.5163 24.2288 14.4118 25.3333 14.4118H32.2" stroke="#DA5063"/>
<path d="M12.8294 28V22.4706H14.9859C15.4704 22.4706 15.8838 22.5469 16.2261 22.6997C16.5683 22.8524 16.8317 23.0736 17.016 23.3632C17.2003 23.6528 17.2924 23.9978 17.2924 24.398C17.2924 24.7982 17.2003 25.1431 17.016 25.4328C16.8317 25.7171 16.5683 25.9383 16.2261 26.0963C15.8838 26.249 15.4704 26.3254 14.9859 26.3254H13.2639L13.6193 25.9541V28H12.8294ZM13.6193 26.0331L13.2639 25.6382H14.9622C15.4677 25.6382 15.8495 25.5302 16.1076 25.3143C16.3709 25.0984 16.5025 24.7929 16.5025 24.398C16.5025 24.003 16.3709 23.6976 16.1076 23.4817C15.8495 23.2658 15.4677 23.1578 14.9622 23.1578H13.2639L13.6193 22.7629V26.0331ZM18.4529 28V22.4706H20.7832C21.373 22.4706 21.8917 22.5864 22.3393 22.8182C22.7922 23.0499 23.1424 23.3737 23.3899 23.7897C23.6427 24.2058 23.7691 24.6876 23.7691 25.2353C23.7691 25.783 23.6427 26.2648 23.3899 26.6808C23.1424 27.0969 22.7922 27.4207 22.3393 27.6524C21.8917 27.8841 21.373 28 20.7832 28H18.4529ZM19.2429 27.3128H20.7358C21.1939 27.3128 21.5889 27.2259 21.9207 27.0521C22.2577 26.8783 22.5184 26.6361 22.7027 26.3254C22.887 26.0094 22.9792 25.6461 22.9792 25.2353C22.9792 24.8193 22.887 24.4559 22.7027 24.1452C22.5184 23.8345 22.2577 23.5923 21.9207 23.4185C21.5889 23.2447 21.1939 23.1578 20.7358 23.1578H19.2429V27.3128ZM25.6899 25.0852H28.5415V25.7645H25.6899V25.0852ZM25.7689 28H24.979V22.4706H28.8812V23.1578H25.7689V28Z" fill="#DA5063"/>
</svg>
