<svg width="37" height="38" viewBox="0 0 37 38" fill="none" xmlns="http://www.w3.org/2000/svg">
<path d="M2.07753 7.69058L3.94963 5.81701L24.0505 8.18194L24.2912 8.21025L24.4625 8.03891L30.296 2.20548L30.296 2.20553L30.302 2.19928C30.6266 1.86319 31.0149 1.59511 31.4443 1.41069C31.8736 1.22627 32.3353 1.12919 32.8026 1.12513C33.2698 1.12107 33.7332 1.21011 34.1656 1.38704C34.5981 1.56397 34.991 1.82526 35.3214 2.15566C35.6518 2.48606 35.9131 2.87895 36.09 3.31141C36.2669 3.74388 36.356 4.20724 36.3519 4.67448C36.3479 5.14172 36.2508 5.60347 36.0664 6.03279C35.8819 6.46211 35.6139 6.8504 35.2778 7.17501L35.2777 7.17495L35.2715 7.18116L29.5888 12.8659L29.4175 13.0372L29.4458 13.2778L31.8088 33.3788L29.7934 35.3942L22.8416 20.5588L22.5392 19.9134L22.0353 20.4174L15.378 27.0747L15.1888 27.2639L15.2413 27.5262L16.6095 34.3693L14.4795 36.4993L10.5064 27.2312L10.4276 27.0474L10.2438 26.9686L0.977814 22.9975L3.1077 20.8676L9.95067 22.2378L10.2131 22.2903L10.4024 22.1011L16.9391 15.5643L17.438 15.0654L16.802 14.76L2.07753 7.69058Z" stroke="#DA5063"/>
</svg>
