<svg width="22" height="19" viewBox="0 0 22 19" fill="none" xmlns="http://www.w3.org/2000/svg">
<path fill-rule="evenodd" clip-rule="evenodd" d="M8.41223 0.0632236C10.6907 -0.145256 12.9633 0.513113 14.7886 1.90888C15.8797 2.74326 16.7643 3.80541 17.391 5.01053C17.5184 5.25553 17.4231 5.55742 17.1781 5.68482C16.9331 5.81222 16.6312 5.71689 16.5038 5.4719C15.9438 4.39504 15.154 3.44719 14.1812 2.70325C12.554 1.45902 10.5305 0.873581 8.50335 1.05906C6.47618 1.24455 4.58778 2.188 3.20553 3.70834C1.82309 5.22888 1.0459 7.21781 1.02673 9.2891C1.00756 11.3604 1.74782 13.3639 3.10195 14.9106C4.4559 16.4571 6.32659 17.4363 8.35 17.6604C10.3733 17.8845 12.4073 17.3377 14.0571 16.1248C15.0858 15.3684 15.9196 14.3866 16.5038 13.2631C16.6312 13.0181 16.9331 12.9228 17.1781 13.0502C17.4231 13.1776 17.5184 13.4795 17.391 13.7245C16.7372 14.9817 15.8034 16.0821 14.6495 16.9304C12.7986 18.2913 10.5141 18.9062 8.23993 18.6543C5.96583 18.4025 3.86671 17.3022 2.34956 15.5693C0.832568 13.8366 0.00535058 11.5949 0.0267731 9.27985C0.0481957 6.96479 0.916757 4.73922 2.46562 3.03564C4.01465 1.33185 6.13384 0.271698 8.41223 0.0632236ZM14.5527 8.10352C14.5527 7.82737 14.7766 7.60352 15.0527 7.60352H21.3685C21.6447 7.60352 21.8685 7.82737 21.8685 8.10352C21.8685 8.37966 21.6447 8.60352 21.3685 8.60352H15.0527C14.7766 8.60352 14.5527 8.37966 14.5527 8.10352ZM15.0527 10.7617C14.7766 10.7617 14.5527 10.9856 14.5527 11.2617C14.5527 11.5379 14.7766 11.7617 15.0527 11.7617H17.5791C17.8552 11.7617 18.0791 11.5379 18.0791 11.2617C18.0791 10.9856 17.8552 10.7617 17.5791 10.7617H15.0527ZM9.36816 3.81445C9.64431 3.81445 9.86816 4.03831 9.86816 4.31445V9.05817L12.1181 10.1831C12.3651 10.3066 12.4652 10.607 12.3417 10.854C12.2182 11.1009 11.9179 11.2011 11.6709 11.0776L9.14861 9.81643C9.14283 9.8136 9.13711 9.81066 9.13146 9.80762C9.04297 9.76012 8.97436 9.68948 8.92937 9.60698C8.9006 9.55447 8.88098 9.49623 8.87266 9.43441C8.86914 9.40866 8.86761 9.38256 8.86816 9.35636V4.31445C8.86816 4.03831 9.09202 3.81445 9.36816 3.81445Z" fill="#B8B8B8"/>
</svg>
