<svg width="30" height="37" viewBox="0 0 30 37" fill="none" xmlns="http://www.w3.org/2000/svg">
<path d="M29 16.311C28.7436 13.0822 28.3051 9.87122 27.6868 6.69402C27.6329 6.10891 27.4794 5.53852 27.2337 5.00842C27.171 4.87329 27.0925 4.74601 27 4.62928C26.4212 3.8989 25.6578 3.34186 24.7907 3.01976C23.1355 2.24811 21.3887 1.70076 19.5946 1.39163C18.0777 1.12452 16.5408 0.993563 15.0015 1.00024C15.0011 1.00025 15.0008 1.00059 15.0008 1.00103V1.00103C15.0008 1.00146 15.0004 1.00181 15 1.00181C13.4515 0.992979 11.9053 1.12342 10.3793 1.39163C8.58526 1.70079 6.83844 2.24814 5.18322 3.01976C4.31621 3.34192 3.5529 3.89891 2.97401 4.62919C2.88143 4.74597 2.80287 4.87333 2.7402 5.00854C2.49451 5.53861 2.341 6.10896 2.28715 6.69402C1.68185 9.87247 1.25212 13.0832 1 16.311V30.2234C1 30.8738 1.52722 31.401 2.17758 31.401V31.401C2.82795 31.401 3.35517 31.9282 3.35517 32.5786V33.8056C3.33654 34.0866 3.37464 34.3685 3.46709 34.6338C3.55953 34.8991 3.70436 35.1422 3.89258 35.348C4.0808 35.5538 4.3084 35.7178 4.56126 35.83C4.81412 35.9421 5.08684 36 5.3625 36C5.63816 36 5.91088 35.9421 6.16374 35.83C6.4166 35.7178 6.6442 35.5538 6.83242 35.348C7.02064 35.1422 7.16547 34.8991 7.25792 34.6338C7.35036 34.3685 7.38846 34.0866 7.36984 33.8056V33.8056C7.36984 32.4776 8.44642 31.401 9.77446 31.401H20.2271C21.5551 31.401 22.6317 32.4776 22.6317 33.8056V33.8056C22.6131 34.0866 22.6512 34.3685 22.7436 34.6338C22.8361 34.8991 22.9809 35.1422 23.1691 35.348C23.3573 35.5538 23.5849 35.7178 23.8378 35.83C24.0906 35.9421 24.3634 36 24.639 36C24.9147 36 25.1874 35.9421 25.4403 35.83C25.6931 35.7178 25.9207 35.5538 26.1089 35.348C26.2972 35.1422 26.442 34.8991 26.5344 34.6338C26.6269 34.3685 26.665 34.0866 26.6464 33.8056V31.3994M29 16.311V29.0458C29 30.3457 27.9462 31.3994 26.6464 31.3994V31.3994M29 16.311H1.00153M26.6464 31.3994H3.35517M12.3609 26.4493H17.6406M12.3609 23.3182H17.6406M5.37782 22.7296C4.96081 22.7277 4.55263 22.8523 4.20489 23.0874C3.85715 23.3226 3.58548 23.6578 3.42422 24.0507C3.26296 24.4436 3.21935 24.8765 3.29892 25.2948C3.3785 25.713 3.57767 26.0977 3.87125 26.4003C4.16484 26.7028 4.53965 26.9097 4.94829 26.9946C5.35693 27.0796 5.78105 27.0388 6.16702 26.8775C6.55298 26.7161 6.88345 26.4415 7.11664 26.0883C7.34983 25.7351 7.47527 25.3192 7.4771 24.8931V24.8743C7.4771 24.3055 7.25592 23.76 6.86223 23.3578C6.46854 22.9556 5.93459 22.7296 5.37782 22.7296ZM24.6237 22.7296C24.2068 22.7299 23.7993 22.8565 23.4527 23.0934C23.1062 23.3303 22.8362 23.6668 22.6768 24.0605C22.5175 24.4541 22.4759 24.8872 22.5575 25.305C22.639 25.7227 22.8399 26.1064 23.1349 26.4075C23.4298 26.7086 23.8055 26.9136 24.2145 26.9966C24.6234 27.0796 25.0473 27.0368 25.4325 26.8738C25.8176 26.7107 26.1469 26.4346 26.3785 26.0804C26.6101 25.7261 26.7337 25.3097 26.7337 24.8837V24.8743C26.7347 24.5937 26.6816 24.3156 26.5774 24.056C26.4732 23.7963 26.32 23.5602 26.1265 23.361C25.933 23.1619 25.703 23.0036 25.4496 22.8952C25.1962 22.7869 24.9244 22.7306 24.6498 22.7296H24.6237Z" stroke="#DA5063" stroke-linecap="round" stroke-linejoin="round"/>
</svg>
