<svg width="144" height="98" viewBox="0 0 144 98" fill="none" xmlns="http://www.w3.org/2000/svg">
<rect x="1.01758" y="1.0517" width="141.966" height="95.8966" rx="19.1552" stroke="white" stroke-width="2"/>
<rect x="78.7598" y="18.3276" width="9.51724" height="9.51724" rx="1.87931" stroke="white" stroke-width="2"/>
<rect x="78.7598" y="35.6035" width="9.51724" height="9.51724" rx="1.87931" stroke="white" stroke-width="2"/>
<rect x="78.7598" y="52.8793" width="9.51724" height="9.51724" rx="1.87931" stroke="white" stroke-width="2"/>
<rect x="78.7598" y="70.1552" width="9.51724" height="9.51724" rx="1.87931" stroke="white" stroke-width="2"/>
<rect x="96.0352" y="18.3276" width="9.51724" height="9.51724" rx="1.87931" stroke="white" stroke-width="2"/>
<rect x="96.0352" y="35.6035" width="9.51724" height="9.51724" rx="1.87931" stroke="white" stroke-width="2"/>
<rect x="96.0352" y="52.8793" width="9.51724" height="9.51724" rx="1.87931" stroke="white" stroke-width="2"/>
<rect x="96.0352" y="70.1552" width="9.51724" height="9.51724" rx="1.87931" stroke="white" stroke-width="2"/>
<rect x="113.312" y="18.3276" width="9.51724" height="9.51724" rx="1.87931" stroke="white" stroke-width="2"/>
<rect x="113.312" y="35.6035" width="9.51724" height="9.51724" rx="1.87931" stroke="white" stroke-width="2"/>
<rect x="113.312" y="52.8793" width="9.51724" height="9.51724" rx="1.87931" stroke="white" stroke-width="2"/>
<rect x="113.312" y="70.1552" width="9.51724" height="9.51724" rx="1.87931" stroke="white" stroke-width="2"/>
<path d="M20.1729 69.1552H63.3625" stroke="white" stroke-width="2"/>
<path d="M20.1729 46.1207H63.3625" stroke="white" stroke-width="2"/>
<path d="M20.1729 51.8793H63.3625" stroke="white" stroke-width="2"/>
<path d="M20.1729 20.2068H63.3625" stroke="white" stroke-width="2"/>
<path d="M20.1729 74.9138L63.3625 74.9138" stroke="white" stroke-width="2"/>
<path d="M20.1729 25.9655H63.3625" stroke="white" stroke-width="2"/>
</svg>
