<svg width="112" height="136" viewBox="0 0 112 136" fill="none" xmlns="http://www.w3.org/2000/svg">
<rect x="1.27686" y="1.33618" width="109.446" height="133.328" rx="22.0345" stroke="white" stroke-width="2"/>
<path d="M68.1233 25.9318C68.1233 28.5043 64.2986 29.2384 61.51 29.2384C50.0095 29.2384 37.9116 36.9098 36.3332 46.8827C36.1414 48.0841 35.1714 49.0783 33.9546 49.0783H27.3413M29.5457 61.2027C31.2762 61.7802 34.2324 64.0354 37.129 64.5468C38.3855 64.7694 39.6707 65.5696 39.9925 66.8019C40.6605 69.3591 41.2006 71.1931 39.4657 75.5315M58.6993 71.7685C56.4949 71.7685 47.6772 66.9188 47.6772 51.9286C47.6772 39.8043 55.3927 36.4976 66.4148 36.4976C73.0281 36.4976 77.437 39.8043 77.437 47.5198C77.437 55.2353 69.7215 53.4872 66.4148 56.7938C63.1082 60.1005 66.4148 71.7685 58.6993 71.7685ZM84.6565 51.2827C84.6565 67.1105 71.8267 79.9403 55.9989 79.9403C40.1711 79.9403 27.3413 67.1105 27.3413 51.2827C27.3413 35.4549 40.1711 22.6251 55.9989 22.6251C71.8267 22.6251 84.6565 35.4549 84.6565 51.2827Z" stroke="white" stroke-width="2"/>
<path d="M25.7485 100.638H85.4519" stroke="white" stroke-width="2"/>
<path d="M36.8931 110.19H75.1032" stroke="white" stroke-width="2"/>
</svg>
