<svg width="22" height="25" viewBox="0 0 22 25" fill="none" xmlns="http://www.w3.org/2000/svg">
<path d="M1.15381 0.923096L1.15381 0.423096C0.968038 0.423096 0.797581 0.526091 0.711179 0.690546C0.624777 0.855001 0.636675 1.0538 0.742075 1.20678L1.15381 0.923096ZM20.8461 0.923098L21.2578 1.20678C21.3632 1.0538 21.3751 0.855004 21.2887 0.690548C21.2023 0.526093 21.0319 0.423098 20.8461 0.423098V0.923098ZM10.5 24.3077C10.5 24.5839 10.7238 24.8077 11 24.8077C11.2761 24.8077 11.5 24.5839 11.5 24.3077H10.5ZM5.37359 23.8077C5.09745 23.8077 4.87359 24.0316 4.87359 24.3077C4.87359 24.5839 5.09745 24.8077 5.37359 24.8077V23.8077ZM16.6263 24.8077C16.9025 24.8077 17.1263 24.5839 17.1263 24.3077C17.1263 24.0316 16.9025 23.8077 16.6263 23.8077V24.8077ZM4.73423 5.61968C4.45809 5.61968 4.23423 5.84353 4.23423 6.11968C4.23423 6.39582 4.45809 6.61968 4.73423 6.61968V5.61968ZM17.2657 6.61968C17.5418 6.61968 17.7657 6.39582 17.7657 6.11968C17.7657 5.84353 17.5418 5.61968 17.2657 5.61968V6.61968ZM0.742075 1.20678L10.5882 15.4974L11.4117 14.93L1.56554 0.639413L0.742075 1.20678ZM11.4117 15.4974L21.2578 1.20678L20.4344 0.639416L10.5882 14.93L11.4117 15.4974ZM1.15381 1.4231L20.8461 1.4231V0.423098L1.15381 0.423096L1.15381 1.4231ZM10.5 15.2137V24.3077H11.5V15.2137H10.5ZM5.37359 24.8077H16.6263V23.8077H5.37359V24.8077ZM4.73423 6.61968H17.2657V5.61968H4.73423V6.61968Z" fill="#DA5063"/>
</svg>
