<svg width="32" height="32" viewBox="0 0 32 32" fill="none" xmlns="http://www.w3.org/2000/svg">
<g clip-path="url(#clip0_444_9145)">
<path d="M7.40727 12.3453H24.6908M7.40727 12.3453L8.6418 27.777H23.4562L24.6908 12.3453M7.40727 12.3453H6.17273V9.87627H6.79M24.6908 12.3453H25.9253V9.87627H24.6908M6.79 9.87627L7.20925 8.6185C7.34067 8.22423 7.52407 7.84925 7.7546 7.50346V7.50346C8.89543 5.79222 11.2572 5.42554 12.8632 6.71032L12.9627 6.78993L13.3036 6.05135C14.6276 3.18257 18.705 3.18257 20.029 6.05135L20.3699 6.78993L21.0244 6.69643C22.9595 6.41999 24.6908 7.92153 24.6908 9.87627V9.87627M6.79 9.87627H15.7404M24.6908 9.87627H15.7404M15.7404 9.87627L25.9253 22.8389" stroke="#DA5063" stroke-linejoin="round"/>
</g>
<defs>
<clipPath id="clip0_444_9145">
<rect width="32" height="32" fill="white"/>
</clipPath>
</defs>
</svg>
