<svg width="32" height="32" viewBox="0 0 32 32" fill="none" xmlns="http://www.w3.org/2000/svg">
<path d="M25.3842 7.55951L25.8046 7.28872L25.3842 7.55951ZM29.9404 14.6315L30.3607 14.3607L29.9404 14.6315ZM26.0513 24.2872H26.5513C26.5513 24.0111 26.3274 23.7872 26.0513 23.7872V24.2872ZM7.1795 24.2872V23.7872C6.90335 23.7872 6.6795 24.0111 6.6795 24.2872H7.1795ZM3.29038 14.6315L3.7107 14.9023L3.29038 14.6315ZM7.84655 7.55951L7.42623 7.28872L7.84655 7.55951ZM2.75874 10.6338C2.53668 10.4697 2.2236 10.5167 2.05946 10.7387C1.89532 10.9608 1.94229 11.2739 2.16435 11.438L2.75874 10.6338ZM6.74209 14.1998L6.44489 14.6019L6.74209 14.1998ZM26.4887 14.1998L26.7859 14.6019L26.4887 14.1998ZM31.0664 11.438C31.2885 11.2739 31.3355 10.9608 31.1713 10.7387C31.0072 10.5167 30.6941 10.4697 30.472 10.6338L31.0664 11.438ZM7.96582 18.9051C7.68968 18.9051 7.46582 19.129 7.46582 19.4051C7.46582 19.6813 7.68968 19.9051 7.96582 19.9051V18.9051ZM7.98155 19.9051C8.25769 19.9051 8.48155 19.6813 8.48155 19.4051C8.48155 19.129 8.25769 18.9051 7.98155 18.9051V19.9051ZM25.265 18.9051C24.9888 18.9051 24.765 19.129 24.765 19.4051C24.765 19.6813 24.9888 19.9051 25.265 19.9051V18.9051ZM25.2807 19.9051C25.5568 19.9051 25.7807 19.6813 25.7807 19.4051C25.7807 19.129 25.5568 18.9051 25.2807 18.9051V19.9051ZM10.5774 6.65387H22.6534V5.65387H10.5774V6.65387ZM24.9639 7.83031L29.5201 14.9023L30.3607 14.3607L25.8046 7.28872L24.9639 7.83031ZM30.2692 17.3997V25.6821H31.2692V17.3997H30.2692ZM29.1966 26.5769H27.6239V27.5769H29.1966V26.5769ZM26.5513 25.6821V24.2872H25.5513V25.6821H26.5513ZM26.0513 23.7872H7.1795V24.7872H26.0513V23.7872ZM6.6795 24.2872V25.6821H7.6795V24.2872H6.6795ZM5.60685 26.5769H4.0342V27.5769H5.60685V26.5769ZM2.96155 25.6821V17.3997H1.96155V25.6821H2.96155ZM3.7107 14.9023L8.26687 7.83031L7.42623 7.28872L2.87006 14.3607L3.7107 14.9023ZM2.96155 17.3997C2.96155 16.528 3.21777 15.6674 3.7107 14.9023L2.87006 14.3607C2.2767 15.2817 1.96155 16.3294 1.96155 17.3997H2.96155ZM4.0342 26.5769C3.38372 26.5769 2.96155 26.1216 2.96155 25.6821H1.96155C1.96155 26.7833 2.94757 27.5769 4.0342 27.5769V26.5769ZM6.6795 25.6821C6.6795 26.1216 6.25732 26.5769 5.60685 26.5769V27.5769C6.69347 27.5769 7.6795 26.7833 7.6795 25.6821H6.6795ZM27.6239 26.5769C26.9735 26.5769 26.5513 26.1216 26.5513 25.6821H25.5513C25.5513 26.7833 26.5373 27.5769 27.6239 27.5769V26.5769ZM30.2692 25.6821C30.2692 26.1216 29.8471 26.5769 29.1966 26.5769V27.5769C30.2832 27.5769 31.2692 26.7833 31.2692 25.6821H30.2692ZM29.5201 14.9023C30.013 15.6674 30.2692 16.528 30.2692 17.3997H31.2692C31.2692 16.3294 30.9541 15.2817 30.3607 14.3607L29.5201 14.9023ZM22.6534 6.65387C23.6306 6.65387 24.5056 7.11887 24.9639 7.83031L25.8046 7.28872C25.1429 6.26172 23.9335 5.65387 22.6534 5.65387V6.65387ZM10.5774 5.65387C9.29729 5.65387 8.08788 6.26172 7.42623 7.28872L8.26687 7.83031C8.72522 7.11887 9.60015 6.65387 10.5774 6.65387V5.65387ZM2.16435 11.438L6.44489 14.6019L7.03928 13.7977L2.75874 10.6338L2.16435 11.438ZM7.74887 15.0231H25.4819V14.0231H7.74887V15.0231ZM26.7859 14.6019L31.0664 11.438L30.472 10.6338L26.1915 13.7977L26.7859 14.6019ZM25.4819 15.0231C25.9515 15.0231 26.413 14.8775 26.7859 14.6019L26.1915 13.7977C25.9991 13.9399 25.7482 14.0231 25.4819 14.0231V15.0231ZM6.44489 14.6019C6.81776 14.8775 7.27933 15.0231 7.74887 15.0231V14.0231C7.48261 14.0231 7.23167 13.9399 7.03928 13.7977L6.44489 14.6019ZM7.96582 19.9051H7.98155V18.9051H7.96582V19.9051ZM8.25215 19.4051C8.25215 19.4388 8.2379 19.4818 8.19006 19.5242C8.14129 19.5675 8.06347 19.6026 7.96582 19.6026V20.6026C8.61817 20.6026 9.25215 20.1212 9.25215 19.4051H8.25215ZM7.96582 19.6026C7.86817 19.6026 7.79035 19.5675 7.74158 19.5242C7.69375 19.4818 7.6795 19.4388 7.6795 19.4051H6.6795C6.6795 20.1212 7.31347 20.6026 7.96582 20.6026V19.6026ZM7.6795 19.4051C7.6795 19.3715 7.69375 19.3285 7.74158 19.2861C7.79035 19.2428 7.86817 19.2077 7.96582 19.2077V18.2077C7.31347 18.2077 6.6795 18.6891 6.6795 19.4051H7.6795ZM7.96582 19.2077C8.06347 19.2077 8.14129 19.2428 8.19006 19.2861C8.2379 19.3285 8.25215 19.3715 8.25215 19.4051H9.25215C9.25215 18.6891 8.61817 18.2077 7.96582 18.2077V19.2077ZM25.265 19.9051H25.2807V18.9051H25.265V19.9051ZM25.5513 19.4051C25.5513 19.4388 25.537 19.4818 25.4892 19.5242C25.4404 19.5675 25.3626 19.6026 25.265 19.6026V20.6026C25.9173 20.6026 26.5513 20.1212 26.5513 19.4051H25.5513ZM25.265 19.6026C25.1673 19.6026 25.0895 19.5675 25.0407 19.5242C24.9929 19.4818 24.9786 19.4388 24.9786 19.4051H23.9786C23.9786 20.1212 24.6126 20.6026 25.265 20.6026V19.6026ZM24.9786 19.4051C24.9786 19.3715 24.9929 19.3285 25.0407 19.2861C25.0895 19.2428 25.1673 19.2077 25.265 19.2077V18.2077C24.6126 18.2077 23.9786 18.6891 23.9786 19.4051H24.9786ZM25.265 19.2077C25.3626 19.2077 25.4404 19.2428 25.4892 19.2861C25.537 19.3285 25.5513 19.3715 25.5513 19.4051H26.5513C26.5513 18.6891 25.9173 18.2077 25.265 18.2077V19.2077Z" fill="#DA5063"/>
</svg>
