<svg width="32" height="32" viewBox="0 0 32 32" fill="none" xmlns="http://www.w3.org/2000/svg">
<path d="M9.33333 25.3333V28M22.6667 25.3333V28M22.6667 14.6666C23.403 14.6666 24 14.0697 24 13.3333C24 12.5969 23.403 12 22.6667 12C21.9303 12 21.3333 12.5969 21.3333 13.3333C21.3333 14.0697 21.9303 14.6666 22.6667 14.6666ZM22.6667 14.6666V18.6666M22.6667 13.3333H22.68M12.6667 15.3333H12.68M17.3333 15.3333C17.3333 17.9106 15.244 20 12.6667 20C10.0893 20 8 17.9106 8 15.3333C8 12.756 10.0893 10.6666 12.6667 10.6666C15.244 10.6666 17.3333 12.756 17.3333 15.3333ZM10.4 25.3333H21.6C23.8402 25.3333 24.9603 25.3333 25.816 24.8973C26.5686 24.5138 27.1805 23.9019 27.564 23.1493C28 22.2936 28 21.1735 28 18.9333V11.7333C28 9.4931 28 8.373 27.564 7.51735C27.1805 6.7647 26.5686 6.15278 25.816 5.76929C24.9603 5.33331 23.8402 5.33331 21.6 5.33331H10.4C8.15979 5.33331 7.03969 5.33331 6.18404 5.76929C5.43139 6.15278 4.81947 6.7647 4.43597 7.51735C4 8.373 4 9.4931 4 11.7333V18.9333C4 21.1735 4 22.2936 4.43597 23.1493C4.81947 23.9019 5.43139 24.5138 6.18404 24.8973C7.03969 25.3333 8.15979 25.3333 10.4 25.3333Z" stroke="#DA5063" stroke-linecap="round" stroke-linejoin="round"/>
</svg>
