<svg width="32" height="32" viewBox="0 0 32 32" fill="none" xmlns="http://www.w3.org/2000/svg">
<path d="M16 20.5128V27.0769M11.0769 27.0769H20.9231M10.8308 20.5128H21.1692C23.2371 20.5128 24.2711 20.5128 25.0609 20.1775C25.7557 19.8825 26.3205 19.4118 26.6745 18.8328C27.0769 18.1746 27.0769 17.313 27.0769 15.5898V11.0769C27.0769 9.35371 27.0769 8.49209 26.6745 7.8339C26.3205 7.25494 25.7557 6.78423 25.0609 6.48923C24.2711 6.15387 23.2371 6.15387 21.1693 6.15387H10.8308C8.7629 6.15387 7.72896 6.15387 6.93913 6.48923C6.24438 6.78423 5.67953 7.25494 5.32553 7.8339C4.9231 8.49209 4.9231 9.35371 4.9231 11.0769V15.5898C4.9231 17.313 4.9231 18.1746 5.32553 18.8328C5.67953 19.4118 6.24438 19.8825 6.93913 20.1775C7.72896 20.5128 8.7629 20.5128 10.8308 20.5128Z" stroke="#DA5063" stroke-linecap="round" stroke-linejoin="round"/>
</svg>
