<svg width="32" height="32" viewBox="0 0 32 32" fill="none" xmlns="http://www.w3.org/2000/svg">
<path d="M8.00004 25.3333C8.00004 26.0697 7.40309 26.6666 6.66671 26.6666C5.93033 26.6666 5.33337 26.0697 5.33337 25.3333C5.33337 24.5969 5.93033 24 6.66671 24C7.40309 24 8.00004 24.5969 8.00004 25.3333Z" fill="#DA5063"/>
<path d="M5.33337 14.6666C8.51597 14.6666 11.5682 15.9309 13.8187 18.1814C16.0691 20.4318 17.3334 23.484 17.3334 26.6666M5.33337 5.33331C10.9913 5.33331 16.4175 7.58093 20.4183 11.5817C24.4191 15.5825 26.6667 21.0087 26.6667 26.6666M8.00004 25.3333C8.00004 26.0697 7.40309 26.6666 6.66671 26.6666C5.93033 26.6666 5.33337 26.0697 5.33337 25.3333C5.33337 24.5969 5.93033 24 6.66671 24C7.40309 24 8.00004 24.5969 8.00004 25.3333Z" stroke="#DA5063" stroke-linecap="round" stroke-linejoin="round"/>
</svg>
