<svg class="bottle-size" viewBox="0 0 248 660" fill="none" xmlns="http://www.w3.org/2000/svg">
<path opacity="0.8" d="M108.377 650.429C108.255 650.429 108.154 650.39 108.076 650.312C108.01 650.234 107.976 650.139 107.976 650.027V641.364L105.434 643.321C105.334 643.388 105.233 643.416 105.133 643.404C105.033 643.382 104.943 643.321 104.865 643.22L104.163 642.317C104.096 642.217 104.068 642.111 104.079 642C104.102 641.888 104.163 641.799 104.263 641.732L108.01 638.839C108.076 638.783 108.143 638.749 108.21 638.738C108.277 638.727 108.35 638.722 108.428 638.722H109.899C110.011 638.722 110.106 638.761 110.184 638.839C110.262 638.917 110.301 639.011 110.301 639.123V650.027C110.301 650.139 110.262 650.234 110.184 650.312C110.106 650.39 110.011 650.429 109.899 650.429H108.377ZM116.972 650.596C116.18 650.596 115.506 650.479 114.948 650.245C114.391 650.011 113.934 649.687 113.577 649.275C113.22 648.862 112.953 648.388 112.774 647.853C112.596 647.307 112.49 646.727 112.456 646.114C112.445 645.813 112.434 645.484 112.423 645.127C112.423 644.759 112.423 644.391 112.423 644.023C112.434 643.655 112.445 643.315 112.456 643.003C112.479 642.39 112.585 641.816 112.774 641.28C112.964 640.734 113.237 640.26 113.594 639.859C113.962 639.457 114.424 639.14 114.982 638.906C115.539 638.671 116.203 638.554 116.972 638.554C117.753 638.554 118.422 638.671 118.979 638.906C119.537 639.14 119.994 639.457 120.35 639.859C120.718 640.26 120.992 640.734 121.17 641.28C121.359 641.816 121.465 642.39 121.488 643.003C121.51 643.315 121.521 643.655 121.521 644.023C121.521 644.391 121.521 644.759 121.521 645.127C121.521 645.484 121.51 645.813 121.488 646.114C121.465 646.727 121.365 647.307 121.187 647.853C121.008 648.388 120.741 648.862 120.384 649.275C120.027 649.687 119.564 650.011 118.996 650.245C118.438 650.479 117.764 650.596 116.972 650.596ZM116.972 648.673C117.697 648.673 118.226 648.439 118.561 647.97C118.907 647.491 119.085 646.844 119.096 646.03C119.118 645.707 119.13 645.384 119.13 645.06C119.13 644.726 119.13 644.391 119.13 644.057C119.13 643.722 119.118 643.404 119.096 643.103C119.085 642.312 118.907 641.676 118.561 641.197C118.226 640.706 117.697 640.461 116.972 640.461C116.258 640.461 115.729 640.706 115.383 641.197C115.049 641.676 114.87 642.312 114.848 643.103C114.848 643.404 114.842 643.722 114.831 644.057C114.831 644.391 114.831 644.726 114.831 645.06C114.842 645.384 114.848 645.707 114.848 646.03C114.87 646.844 115.054 647.491 115.4 647.97C115.746 648.439 116.27 648.673 116.972 648.673ZM131.167 650.596C130.364 650.596 129.656 650.445 129.043 650.144C128.441 649.843 127.967 649.409 127.621 648.84C127.287 648.26 127.103 647.563 127.069 646.749C127.058 646.582 127.053 646.365 127.053 646.097C127.053 645.818 127.058 645.59 127.069 645.411C127.103 644.597 127.287 643.906 127.621 643.338C127.967 642.758 128.441 642.317 129.043 642.016C129.656 641.715 130.364 641.565 131.167 641.565C131.881 641.565 132.488 641.665 132.99 641.866C133.492 642.066 133.904 642.317 134.228 642.618C134.551 642.919 134.791 643.237 134.947 643.572C135.114 643.895 135.203 644.19 135.214 644.458C135.225 644.581 135.186 644.681 135.097 644.759C135.019 644.826 134.924 644.859 134.813 644.859H133.341C133.23 644.859 133.14 644.832 133.074 644.776C133.018 644.72 132.962 644.636 132.906 644.525C132.739 644.079 132.516 643.767 132.237 643.588C131.97 643.399 131.624 643.304 131.2 643.304C130.643 643.304 130.197 643.482 129.862 643.839C129.539 644.185 129.366 644.737 129.344 645.495C129.322 645.919 129.322 646.309 129.344 646.666C129.366 647.435 129.539 647.993 129.862 648.338C130.197 648.684 130.643 648.857 131.2 648.857C131.635 648.857 131.986 648.767 132.254 648.589C132.522 648.4 132.739 648.082 132.906 647.636C132.962 647.524 133.018 647.441 133.074 647.385C133.14 647.329 133.23 647.301 133.341 647.301H134.813C134.924 647.301 135.019 647.34 135.097 647.418C135.186 647.485 135.225 647.58 135.214 647.703C135.203 647.903 135.147 648.132 135.047 648.388C134.958 648.634 134.807 648.89 134.595 649.158C134.395 649.414 134.138 649.654 133.826 649.877C133.514 650.089 133.135 650.262 132.689 650.395C132.254 650.529 131.747 650.596 131.167 650.596ZM137.326 650.429C137.215 650.429 137.126 650.395 137.059 650.328C136.992 650.262 136.958 650.178 136.958 650.078V642.05C136.958 641.961 136.992 641.888 137.059 641.832C137.137 641.765 137.215 641.732 137.293 641.732H138.698C138.887 641.732 139.032 641.827 139.133 642.016L141.708 646.699L144.284 642.016C144.384 641.827 144.529 641.732 144.719 641.732H146.107C146.207 641.732 146.291 641.765 146.358 641.832C146.425 641.888 146.458 641.961 146.458 642.05V650.078C146.458 650.178 146.425 650.262 146.358 650.328C146.291 650.395 146.202 650.429 146.09 650.429H144.652C144.54 650.429 144.451 650.395 144.384 650.328C144.328 650.262 144.301 650.178 144.301 650.078V644.007L144.986 644.124L142.511 648.689C142.455 648.79 142.388 648.885 142.31 648.974C142.232 649.052 142.121 649.091 141.976 649.091H141.424C141.29 649.091 141.184 649.052 141.106 648.974C141.028 648.896 140.961 648.801 140.905 648.689L138.48 644.308L139.116 644.207V650.078C139.116 650.178 139.083 650.262 139.016 650.328C138.949 650.395 138.865 650.429 138.765 650.429H137.326Z" fill="#404040"/>
<path opacity="0.8" d="M227.412 87.7694C227.412 87.6579 227.451 87.5631 227.529 87.485C227.607 87.407 227.701 87.368 227.813 87.368L228.666 87.368C228.766 87.368 228.883 87.3903 229.017 87.4349C229.162 87.4906 229.307 87.6077 229.452 87.7861L232.078 90.4286C232.657 91.1644 233.148 91.7554 233.549 92.2014C233.962 92.6585 234.335 92.9874 234.67 93.1881C235.016 93.4 235.356 93.5059 235.69 93.5059C236.192 93.5059 236.599 93.3665 236.911 93.0878C237.223 92.8202 237.379 92.3909 237.379 91.8C237.379 91.4097 237.296 91.0808 237.128 90.8132C236.972 90.5456 236.761 90.3338 236.493 90.1777C236.225 90.0327 235.93 89.9324 235.607 89.8767C235.462 89.8544 235.361 89.793 235.306 89.6927C235.25 89.5923 235.222 89.492 235.222 89.3916L235.222 87.9031C235.222 87.8028 235.255 87.7192 235.322 87.6523C235.389 87.5854 235.467 87.5519 235.556 87.5519C236.036 87.5631 236.499 87.6634 236.945 87.853C237.402 88.0425 237.803 88.3157 238.149 88.6725C238.505 89.0404 238.79 89.4864 239.002 90.0104C239.213 90.5345 239.319 91.1254 239.319 91.7833C239.319 92.7087 239.163 93.4724 238.851 94.0745C238.539 94.6878 238.115 95.1449 237.58 95.4459C237.045 95.7581 236.443 95.9142 235.774 95.9142C235.25 95.9142 234.765 95.8139 234.319 95.6132C233.884 95.4125 233.46 95.1226 233.048 94.7435C232.646 94.3644 232.234 93.9073 231.81 93.3721L229.402 90.9972L229.402 95.7637C229.402 95.8864 229.363 95.9811 229.285 96.048C229.218 96.1261 229.123 96.1651 229 96.1651L227.813 96.1651C227.701 96.1651 227.607 96.1261 227.529 96.048C227.451 95.9811 227.411 95.8864 227.411 95.7637L227.412 87.7694ZM227.411 98.1242C227.411 98.0127 227.451 97.918 227.529 97.8399C227.607 97.7619 227.701 97.7228 227.813 97.7228L228.666 97.7228C228.766 97.7228 228.883 97.7451 229.017 97.7897C229.162 97.8455 229.307 97.9626 229.452 98.1409L232.078 100.783C232.657 101.519 233.148 102.11 233.549 102.556C233.962 103.013 234.335 103.342 234.67 103.543C235.016 103.755 235.356 103.861 235.69 103.861C236.192 103.861 236.599 103.721 236.911 103.443C237.223 103.175 237.379 102.746 237.379 102.155C237.379 101.765 237.296 101.436 237.128 101.168C236.972 100.901 236.761 100.689 236.493 100.533C236.225 100.388 235.93 100.287 235.607 100.232C235.462 100.209 235.361 100.148 235.306 100.048C235.25 99.9472 235.222 99.8469 235.222 99.7465L235.222 98.258C235.222 98.1577 235.255 98.0741 235.322 98.0072C235.389 97.9403 235.467 97.9068 235.556 97.9068C236.036 97.918 236.499 98.0183 236.945 98.2078C237.402 98.3974 237.803 98.6706 238.149 99.0274C238.505 99.3953 238.79 99.8413 239.002 100.365C239.213 100.889 239.319 101.48 239.319 102.138C239.319 103.064 239.163 103.827 238.851 104.429C238.539 105.043 238.115 105.5 237.58 105.801C237.045 106.113 236.443 106.269 235.774 106.269C235.25 106.269 234.765 106.169 234.319 105.968C233.884 105.767 233.46 105.477 233.048 105.098C232.646 104.719 232.234 104.262 231.81 103.727L229.402 101.352L229.402 106.119C229.402 106.241 229.363 106.336 229.285 106.403C229.218 106.481 229.123 106.52 229 106.52L227.813 106.52C227.701 106.52 227.607 106.481 227.529 106.403C227.451 106.336 227.411 106.241 227.411 106.119L227.411 98.1242ZM227.244 116.014C227.244 115.211 227.395 114.503 227.696 113.89C227.997 113.288 228.432 112.814 229 112.468C229.58 112.134 230.277 111.95 231.091 111.916C231.258 111.905 231.476 111.9 231.743 111.9C232.022 111.9 232.25 111.905 232.429 111.916C233.243 111.95 233.934 112.134 234.503 112.468C235.083 112.814 235.523 113.288 235.824 113.89C236.125 114.503 236.276 115.211 236.276 116.014C236.276 116.727 236.175 117.335 235.974 117.837C235.774 118.339 235.523 118.751 235.222 119.074C234.921 119.398 234.603 119.637 234.269 119.794C233.945 119.961 233.65 120.05 233.382 120.061C233.26 120.072 233.159 120.033 233.081 119.944C233.014 119.866 232.981 119.771 232.981 119.66L232.981 118.188C232.981 118.076 233.009 117.987 233.064 117.92C233.12 117.865 233.204 117.809 233.315 117.753C233.761 117.586 234.073 117.363 234.252 117.084C234.441 116.817 234.536 116.471 234.536 116.047C234.536 115.49 234.358 115.044 234.001 114.709C233.655 114.386 233.103 114.213 232.345 114.191C231.922 114.169 231.531 114.169 231.175 114.191C230.405 114.213 229.848 114.386 229.502 114.709C229.156 115.044 228.984 115.49 228.984 116.047C228.984 116.482 229.073 116.833 229.251 117.101C229.441 117.368 229.759 117.586 230.205 117.753C230.316 117.809 230.4 117.865 230.455 117.92C230.511 117.987 230.539 118.076 230.539 118.188L230.539 119.66C230.539 119.771 230.5 119.866 230.422 119.944C230.355 120.033 230.26 120.072 230.138 120.061C229.937 120.05 229.708 119.994 229.452 119.894C229.207 119.805 228.95 119.654 228.683 119.442C228.426 119.242 228.186 118.985 227.963 118.673C227.752 118.361 227.579 117.982 227.445 117.536C227.311 117.101 227.244 116.594 227.244 116.014ZM227.411 122.173C227.411 122.062 227.445 121.973 227.512 121.906C227.579 121.839 227.662 121.805 227.763 121.805L235.791 121.805C235.88 121.805 235.952 121.839 236.008 121.906C236.075 121.984 236.108 122.062 236.108 122.14L236.108 123.545C236.108 123.734 236.014 123.879 235.824 123.98L231.141 126.555L235.824 129.131C236.014 129.231 236.108 129.376 236.108 129.566L236.108 130.954C236.108 131.054 236.075 131.138 236.008 131.205C235.952 131.271 235.88 131.305 235.791 131.305L227.763 131.305C227.662 131.305 227.579 131.271 227.512 131.205C227.445 131.138 227.411 131.048 227.411 130.937L227.411 129.499C227.411 129.387 227.445 129.298 227.512 129.231C227.579 129.175 227.662 129.147 227.763 129.147L233.834 129.147L233.717 129.833L229.151 127.358C229.051 127.302 228.956 127.235 228.867 127.157C228.788 127.079 228.749 126.968 228.749 126.823L228.749 126.271C228.749 126.137 228.788 126.031 228.867 125.953C228.945 125.875 229.039 125.808 229.151 125.752L233.533 123.327L233.633 123.963L227.763 123.963C227.662 123.963 227.579 123.929 227.512 123.862C227.445 123.796 227.411 123.712 227.411 123.612L227.411 122.173Z" fill="#404040"/>
<path opacity="0.8" d="M9.22168 222.405C9.22168 222.282 9.2607 222.182 9.33875 222.104C9.4168 222.037 9.51157 222.003 9.62307 222.003L18.2864 222.003L16.3296 219.461C16.2627 219.361 16.2349 219.26 16.246 219.16C16.2683 219.06 16.3296 218.971 16.43 218.893L17.3331 218.19C17.4335 218.123 17.5394 218.095 17.6509 218.106C17.7624 218.129 17.8516 218.19 17.9185 218.29L20.8118 222.037C20.8676 222.104 20.901 222.171 20.9122 222.237C20.9233 222.304 20.9289 222.377 20.9289 222.455L20.9289 223.927C20.9289 224.038 20.8899 224.133 20.8118 224.211C20.7338 224.289 20.639 224.328 20.5275 224.328L9.62307 224.328C9.51157 224.328 9.4168 224.289 9.33875 224.211C9.2607 224.133 9.22168 224.038 9.22168 223.927L9.22168 222.405ZM9.22168 226.668C9.22168 226.556 9.2607 226.461 9.33875 226.383C9.4168 226.305 9.51157 226.266 9.62307 226.266L10.476 226.266C10.5764 226.266 10.6934 226.289 10.8272 226.333C10.9722 226.389 11.1171 226.506 11.2621 226.684L13.8878 229.327C14.4676 230.063 14.9582 230.654 15.3596 231.1C15.7721 231.557 16.1457 231.886 16.4802 232.086C16.8258 232.298 17.1659 232.404 17.5004 232.404C18.0021 232.404 18.4091 232.265 18.7212 231.986C19.0334 231.718 19.1895 231.289 19.1895 230.698C19.1895 230.308 19.1059 229.979 18.9387 229.711C18.7826 229.444 18.5707 229.232 18.3031 229.076C18.0355 228.931 17.7401 228.831 17.4167 228.775C17.2718 228.753 17.1714 228.691 17.1157 228.591C17.0599 228.491 17.0321 228.39 17.0321 228.29L17.0321 226.801C17.0321 226.701 17.0655 226.617 17.1324 226.551C17.1993 226.484 17.2774 226.45 17.3666 226.45C17.846 226.461 18.3087 226.562 18.7547 226.751C19.2118 226.941 19.6132 227.214 19.9589 227.571C20.3157 227.939 20.6 228.385 20.8118 228.909C21.0237 229.433 21.1296 230.024 21.1296 230.682C21.1296 231.607 20.9735 232.371 20.6613 232.973C20.3491 233.586 19.9254 234.043 19.3902 234.344C18.855 234.656 18.253 234.813 17.584 234.813C17.0599 234.813 16.5749 234.712 16.1289 234.511C15.6941 234.311 15.2704 234.021 14.8579 233.642C14.4565 233.263 14.0439 232.806 13.6202 232.27L11.2119 229.895L11.2119 234.662C11.2119 234.785 11.1729 234.879 11.0948 234.946C11.0279 235.024 10.9332 235.063 10.8105 235.063L9.62307 235.063C9.51157 235.063 9.4168 235.024 9.33875 234.946C9.2607 234.879 9.22168 234.785 9.22168 234.662L9.22168 226.668ZM9.05443 244.557C9.05443 243.754 9.20496 243.046 9.506 242.433C9.80704 241.831 10.2419 241.357 10.8105 241.012C11.3903 240.677 12.0872 240.493 12.9011 240.46C13.0683 240.449 13.2858 240.443 13.5533 240.443C13.8321 240.443 14.0607 240.449 14.2391 240.46C15.053 240.493 15.7443 240.677 16.3129 241.012C16.8927 241.357 17.3331 241.831 17.6341 242.433C17.9352 243.046 18.0857 243.754 18.0857 244.557C18.0857 245.271 17.9854 245.878 17.7847 246.38C17.584 246.882 17.3331 247.294 17.0321 247.618C16.731 247.941 16.4133 248.181 16.0788 248.337C15.7554 248.504 15.46 248.593 15.1924 248.605C15.0697 248.616 14.9694 248.577 14.8913 248.487C14.8244 248.409 14.791 248.315 14.791 248.203L14.791 246.731C14.791 246.62 14.8188 246.531 14.8746 246.464C14.9303 246.408 15.014 246.352 15.1255 246.297C15.5714 246.129 15.8836 245.906 16.062 245.628C16.2516 245.36 16.3464 245.014 16.3464 244.591C16.3464 244.033 16.168 243.587 15.8112 243.253C15.4655 242.929 14.9136 242.757 14.1554 242.734C13.7317 242.712 13.3415 242.712 12.9847 242.734C12.2154 242.757 11.6579 242.929 11.3123 243.253C10.9666 243.587 10.7938 244.033 10.7938 244.591C10.7938 245.025 10.883 245.377 11.0614 245.644C11.2509 245.912 11.5687 246.129 12.0147 246.297C12.1262 246.352 12.2098 246.408 12.2656 246.464C12.3213 246.531 12.3492 246.62 12.3492 246.731L12.3492 248.203C12.3492 248.315 12.3102 248.409 12.2321 248.487C12.1652 248.577 12.0704 248.616 11.9478 248.605C11.7471 248.593 11.5185 248.538 11.2621 248.437C11.0168 248.348 10.7603 248.198 10.4927 247.986C10.2363 247.785 9.99659 247.529 9.77359 247.216C9.56175 246.904 9.38893 246.525 9.25513 246.079C9.12133 245.644 9.05443 245.137 9.05443 244.557ZM9.22168 250.717C9.22168 250.605 9.25513 250.516 9.32203 250.449C9.38893 250.382 9.47255 250.349 9.5729 250.349L17.6007 250.349C17.6899 250.349 17.7624 250.382 17.8181 250.449C17.885 250.527 17.9185 250.605 17.9185 250.683L17.9185 252.088C17.9185 252.278 17.8237 252.423 17.6341 252.523L12.9513 255.099L17.6341 257.674C17.8237 257.774 17.9185 257.919 17.9185 258.109L17.9185 259.497C17.9185 259.597 17.885 259.681 17.8181 259.748C17.7624 259.815 17.6899 259.848 17.6007 259.848L9.5729 259.848C9.47255 259.848 9.38892 259.815 9.32203 259.748C9.25513 259.681 9.22168 259.592 9.22168 259.48L9.22168 258.042C9.22168 257.931 9.25513 257.841 9.32203 257.774C9.38893 257.719 9.47255 257.691 9.5729 257.691L15.6439 257.691L15.5268 258.377L10.961 255.901C10.8607 255.846 10.7659 255.779 10.6767 255.701C10.5987 255.623 10.5596 255.511 10.5596 255.366L10.5596 254.814C10.5596 254.68 10.5987 254.574 10.6767 254.496C10.7548 254.418 10.8495 254.351 10.961 254.296L15.3429 251.871L15.4432 252.506L9.5729 252.506C9.47255 252.506 9.38893 252.473 9.32203 252.406C9.25513 252.339 9.22168 252.255 9.22168 252.155L9.22168 250.717Z" fill="#404040"/>
<path opacity="0.8" d="M8.99279 132.977C8.99279 132.274 9.07641 131.678 9.24366 131.187C9.4109 130.708 9.62832 130.323 9.89592 130.033C10.1635 129.743 10.4534 129.526 10.7656 129.381C11.0778 129.236 11.3733 129.152 11.652 129.13C11.7523 129.108 11.8304 129.13 11.8861 129.197C11.953 129.275 11.9865 129.359 11.9865 129.448L11.9865 130.786C11.9865 130.92 11.9586 131.009 11.9029 131.053C11.8583 131.109 11.7914 131.159 11.7022 131.204C11.3008 131.371 11.0165 131.6 10.8492 131.89C10.682 132.18 10.5983 132.542 10.5983 132.977C10.5983 133.545 10.7656 133.997 11.1001 134.332C11.4346 134.666 11.9698 134.844 12.7056 134.867L12.7893 134.867L12.7893 132.04C12.7893 131.929 12.8227 131.84 12.8896 131.773C12.9677 131.706 13.0569 131.672 13.1572 131.672L13.8596 131.672C13.96 131.672 14.0436 131.706 14.1105 131.773C14.1886 131.84 14.2276 131.929 14.2276 132.04L14.2276 134.867L14.3279 134.867C15.0304 134.844 15.5488 134.666 15.8833 134.332C16.229 133.997 16.4018 133.545 16.4018 132.977C16.4018 132.553 16.3182 132.191 16.1509 131.89C15.9948 131.6 15.7105 131.371 15.298 131.204C15.1976 131.148 15.1251 131.093 15.0805 131.037C15.0359 130.992 15.0136 130.903 15.0136 130.769L15.0136 129.481C15.0136 129.392 15.0415 129.309 15.0973 129.231C15.1642 129.164 15.2478 129.136 15.3481 129.147C15.6269 129.18 15.9223 129.27 16.2345 129.414C16.5467 129.559 16.8366 129.777 17.1042 130.067C17.3718 130.357 17.5892 130.741 17.7565 131.221C17.9349 131.7 18.0241 132.286 18.0241 132.977C18.0241 134.27 17.6896 135.274 17.0206 135.987C16.3628 136.712 15.4318 137.097 14.2276 137.141C14.0269 137.164 13.7872 137.175 13.5084 137.175C13.2297 137.175 12.99 137.164 12.7893 137.141C11.5851 137.097 10.6485 136.723 9.97954 136.021C9.32171 135.318 8.99279 134.304 8.99279 132.977ZM9.16003 141.744C9.16003 141.621 9.19906 141.521 9.27711 141.443C9.35516 141.376 9.44993 141.342 9.56142 141.342L16.084 141.342L16.084 138.616C16.084 138.494 16.123 138.393 16.2011 138.315C16.2791 138.248 16.3739 138.215 16.4854 138.215L17.4554 138.215C17.5669 138.215 17.6617 138.248 17.7397 138.315C17.8178 138.393 17.8568 138.494 17.8568 138.616L17.8568 146.209C17.8568 146.332 17.8178 146.432 17.7397 146.51C17.6617 146.588 17.5669 146.627 17.4554 146.627L16.4854 146.627C16.3739 146.627 16.2791 146.588 16.2011 146.51C16.123 146.432 16.084 146.332 16.084 146.209L16.084 143.5L9.56142 143.5C9.44993 143.5 9.35515 143.461 9.27711 143.383C9.19906 143.305 9.16003 143.21 9.16003 143.098L9.16003 141.744ZM9.16003 148.338C9.16003 148.237 9.19906 148.148 9.27711 148.07C9.35515 147.992 9.44435 147.953 9.5447 147.953L17.4554 147.953C17.5669 147.953 17.6617 147.992 17.7397 148.07C17.8178 148.148 17.8568 148.243 17.8568 148.355L17.8568 149.743C17.8568 149.865 17.8178 149.96 17.7397 150.027C17.6617 150.105 17.5669 150.144 17.4554 150.144L10.8492 150.144L11.2673 149.559L17.5892 154.158C17.6673 154.214 17.7286 154.275 17.7732 154.342C17.8289 154.409 17.8568 154.498 17.8568 154.61L17.8568 155.881C17.8568 155.981 17.8178 156.07 17.7397 156.148C17.6729 156.226 17.5892 156.265 17.4889 156.265L9.56142 156.265C9.44993 156.265 9.35515 156.226 9.27711 156.148C9.19906 156.07 9.16003 155.975 9.16003 155.864L9.16003 154.476C9.16003 154.353 9.19906 154.253 9.27711 154.175C9.35515 154.108 9.44993 154.074 9.56142 154.074L15.8666 154.074L15.783 154.693L9.42763 150.06C9.36073 150.016 9.29941 149.955 9.24366 149.876C9.18791 149.81 9.16003 149.72 9.16003 149.609L9.16003 148.338ZM9.16003 158.775C9.16003 158.663 9.19906 158.568 9.27711 158.49C9.35515 158.412 9.44993 158.373 9.56142 158.373L17.4554 158.373C17.5669 158.373 17.6617 158.412 17.7397 158.49C17.8178 158.568 17.8568 158.663 17.8568 158.775L17.8568 160.146C17.8568 160.258 17.8178 160.352 17.7397 160.43C17.6617 160.509 17.5669 160.548 17.4554 160.548L14.4617 160.548L14.4617 161.752L17.5892 163.792C17.6673 163.837 17.7286 163.892 17.7732 163.959C17.8289 164.037 17.8568 164.138 17.8568 164.26L17.8568 165.749C17.8568 165.86 17.8289 165.95 17.7732 166.017C17.7174 166.083 17.645 166.117 17.5558 166.117C17.5223 166.117 17.4833 166.106 17.4387 166.083C17.4053 166.072 17.3718 166.056 17.3384 166.033L13.6757 163.625L9.6785 166.384C9.6116 166.44 9.53912 166.468 9.46108 166.468C9.37188 166.468 9.29941 166.435 9.24366 166.368C9.18791 166.301 9.16003 166.217 9.16003 166.117L9.16003 164.428C9.16003 164.316 9.18233 164.221 9.22693 164.143C9.27153 164.076 9.33285 164.015 9.4109 163.959L12.6889 161.752L12.6889 160.548L9.56142 160.548C9.44993 160.548 9.35515 160.509 9.27711 160.43C9.19906 160.352 9.16003 160.258 9.16003 160.146L9.16003 158.775ZM8.99279 171.282C8.99279 170.045 9.34958 169.063 10.0632 168.339C10.7767 167.614 11.7914 167.224 13.107 167.168C13.2185 167.157 13.3579 167.151 13.5252 167.151C13.7035 167.151 13.8429 167.157 13.9433 167.168C14.7795 167.213 15.5042 167.402 16.1175 167.737C16.7307 168.082 17.199 168.556 17.5223 169.158C17.8568 169.76 18.0241 170.468 18.0241 171.282C18.0241 172.185 17.8345 172.944 17.4554 173.557C17.0875 174.17 16.569 174.633 15.9 174.945C15.2422 175.257 14.4785 175.413 13.6088 175.413L13.2576 175.413C13.1461 175.413 13.0513 175.374 12.9732 175.296C12.8952 175.218 12.8562 175.118 12.8562 174.995L12.8562 169.443C12.8562 169.443 12.8394 169.443 12.806 169.443C12.7725 169.443 12.7447 169.443 12.7224 169.443C12.3321 169.454 11.9698 169.526 11.6353 169.66C11.3119 169.805 11.0499 170.011 10.8492 170.279C10.6485 170.558 10.5482 170.886 10.5482 171.266C10.5482 171.578 10.5928 171.84 10.682 172.052C10.7823 172.263 10.8938 172.436 11.0165 172.57C11.1391 172.704 11.2395 172.799 11.3175 172.854C11.4513 172.955 11.5294 173.033 11.5516 173.089C11.5851 173.155 11.6018 173.25 11.6018 173.373L11.6018 174.811C11.6018 174.923 11.5684 175.012 11.5015 175.079C11.4346 175.157 11.351 175.19 11.2506 175.179C11.0722 175.168 10.8548 175.073 10.5983 174.895C10.3419 174.728 10.091 174.482 9.84574 174.159C9.60045 173.836 9.39418 173.429 9.22693 172.938C9.07084 172.459 8.99279 171.907 8.99279 171.282ZM14.261 169.443L14.261 173.139L14.3112 173.139C14.746 173.139 15.1251 173.066 15.4485 172.921C15.7718 172.776 16.0283 172.564 16.2178 172.286C16.4074 172.007 16.5021 171.673 16.5021 171.282C16.5021 170.892 16.4074 170.558 16.2178 170.279C16.0283 170 15.7718 169.788 15.4485 169.643C15.1251 169.509 14.746 169.443 14.3112 169.443L14.261 169.443ZM9.16003 179.848C9.16003 179.725 9.19906 179.625 9.27711 179.547C9.35515 179.48 9.44993 179.446 9.56142 179.446L16.084 179.446L16.084 176.72C16.084 176.598 16.123 176.497 16.2011 176.419C16.2791 176.352 16.3739 176.319 16.4854 176.319L17.4554 176.319C17.5669 176.319 17.6617 176.352 17.7397 176.419C17.8178 176.497 17.8568 176.598 17.8568 176.72L17.8568 184.313C17.8568 184.436 17.8178 184.536 17.7397 184.614C17.6617 184.692 17.5669 184.731 17.4554 184.731L16.4854 184.731C16.3739 184.731 16.2791 184.692 16.2011 184.614C16.123 184.536 16.084 184.436 16.084 184.313L16.084 181.604L9.56142 181.604C9.44993 181.604 9.35515 181.565 9.27711 181.487C9.19906 181.409 9.16003 181.314 9.16003 181.202L9.16003 179.848ZM9.16003 186.459C9.16003 186.347 9.19906 186.252 9.2771 186.174C9.35515 186.096 9.44993 186.057 9.56142 186.057L17.4554 186.057C17.5669 186.057 17.6617 186.096 17.7397 186.174C17.8178 186.252 17.8568 186.347 17.8568 186.459L17.8568 187.83C17.8568 187.941 17.8178 188.036 17.7397 188.114C17.6617 188.192 17.5669 188.231 17.4554 188.231L14.4617 188.231L14.4617 189.436L17.5892 191.476C17.6673 191.521 17.7286 191.576 17.7732 191.643C17.8289 191.721 17.8568 191.822 17.8568 191.944L17.8568 193.433C17.8568 193.544 17.8289 193.633 17.7732 193.7C17.7174 193.767 17.645 193.801 17.5558 193.801C17.5223 193.801 17.4833 193.789 17.4387 193.767C17.4053 193.756 17.3718 193.739 17.3384 193.717L13.6757 191.309L9.67849 194.068C9.6116 194.124 9.53912 194.152 9.46108 194.152C9.37188 194.152 9.2994 194.118 9.24366 194.051C9.18791 193.985 9.16003 193.901 9.16003 193.801L9.16003 192.111C9.16003 192 9.18233 191.905 9.22693 191.827C9.27153 191.76 9.33285 191.699 9.4109 191.643L12.6889 189.436L12.6889 188.231L9.56142 188.231C9.44993 188.231 9.35515 188.192 9.2771 188.114C9.19906 188.036 9.16003 187.941 9.16003 187.83L9.16003 186.459ZM8.99279 198.137C8.99279 197.557 9.10428 197.033 9.32728 196.565C9.56142 196.097 9.86804 195.723 10.2471 195.444C10.6374 195.177 11.0722 195.043 11.5516 195.043C12.3321 195.043 12.9509 195.355 13.4081 195.98C13.8764 196.615 14.1886 197.451 14.3447 198.488L14.6791 200.78L15.0304 200.78C15.4987 200.78 15.861 200.663 16.1175 200.428C16.3739 200.194 16.5021 199.793 16.5021 199.224C16.5021 198.823 16.4185 198.494 16.2513 198.237C16.0952 197.992 15.8833 197.808 15.6157 197.686C15.4708 197.596 15.3983 197.468 15.3983 197.301L15.3983 195.98C15.3983 195.857 15.4318 195.762 15.4987 195.695C15.5656 195.64 15.6547 195.612 15.7662 195.612C15.9446 195.623 16.1621 195.695 16.4185 195.829C16.6749 195.963 16.9202 196.175 17.1544 196.465C17.3997 196.755 17.606 197.128 17.7732 197.585C17.9404 198.042 18.0241 198.594 18.0241 199.241C18.0241 199.943 17.9349 200.534 17.7565 201.014C17.5892 201.504 17.3607 201.895 17.0708 202.184C16.7809 202.474 16.4408 202.686 16.0506 202.82C15.6603 202.954 15.2478 203.021 14.8129 203.021L9.56142 203.021C9.44992 203.021 9.35515 202.982 9.2771 202.904C9.19906 202.826 9.16003 202.731 9.16003 202.619L9.16003 201.265C9.16003 201.142 9.19906 201.042 9.2771 200.964C9.35515 200.897 9.44993 200.863 9.56142 200.863L10.2137 200.863C10.0018 200.718 9.80114 200.523 9.6116 200.278C9.4332 200.033 9.28268 199.732 9.16003 199.375C9.04854 199.029 8.99279 198.617 8.99279 198.137ZM10.5816 198.706C10.5816 199.096 10.6652 199.447 10.8325 199.759C10.9997 200.083 11.2562 200.334 11.6018 200.512C11.9586 200.702 12.4046 200.796 12.9398 200.796L13.291 200.796L13.0234 199.124C12.9231 198.466 12.7614 197.975 12.5384 197.652C12.3154 197.329 12.0422 197.167 11.7189 197.167C11.4736 197.167 11.2618 197.24 11.0834 197.385C10.9161 197.541 10.7879 197.736 10.6987 197.97C10.6206 198.204 10.5816 198.449 10.5816 198.706Z" fill="#4168AB"/>
<path opacity="0.8" d="M227.185 6.8831C227.185 5.95767 227.347 5.18834 227.67 4.57511C228.005 3.97302 228.49 3.52146 229.125 3.22041C229.761 2.91937 230.536 2.74655 231.45 2.70195C231.773 2.70195 232.108 2.70195 232.453 2.70195C232.799 2.70195 233.134 2.70195 233.457 2.70195C234.438 2.72425 235.252 2.81902 235.899 2.98627C236.557 3.16467 237.097 3.42668 237.521 3.77233C237.956 4.11797 238.313 4.56396 238.591 5.11029C238.881 5.65663 239.132 6.30331 239.344 7.05035C239.556 7.79738 239.779 8.66148 240.013 9.64266C240.035 9.75415 240.019 9.8545 239.963 9.9437C239.907 10.044 239.818 10.0998 239.695 10.1109L238.591 10.3284C238.48 10.3507 238.379 10.3339 238.29 10.2782C238.212 10.2224 238.162 10.1444 238.14 10.044C237.95 9.19667 237.777 8.46636 237.621 7.85313C237.476 7.23989 237.309 6.73258 237.12 6.33119C236.93 5.9298 236.679 5.61203 236.367 5.37789C236.066 5.15489 235.67 4.9988 235.18 4.9096C234.689 4.8204 234.059 4.79253 233.29 4.82598L233.607 4.44131C233.953 4.50821 234.271 4.68103 234.561 4.95977C234.851 5.23852 235.079 5.57858 235.246 5.97997C235.425 6.39251 235.514 6.82735 235.514 7.28449C235.514 8.08727 235.363 8.76183 235.062 9.30817C234.761 9.8545 234.338 10.2726 233.791 10.5625C233.256 10.8636 232.626 11.0308 231.902 11.0642C231.5 11.0865 231.132 11.0865 230.798 11.0642C230.084 11.0308 229.454 10.8524 228.908 10.5291C228.361 10.2057 227.938 9.743 227.637 9.14092C227.336 8.53883 227.185 7.78623 227.185 6.8831ZM228.724 6.8831C228.724 7.48519 228.908 7.9479 229.276 8.27124C229.644 8.59458 230.179 8.7674 230.881 8.7897C231.004 8.80085 231.149 8.80643 231.316 8.80643C231.495 8.80643 231.662 8.80085 231.818 8.7897C232.52 8.7674 233.056 8.59458 233.423 8.27124C233.791 7.95905 233.975 7.54093 233.975 7.0169C233.975 6.41481 233.791 5.9298 233.423 5.56186C233.056 5.20507 232.52 5.01552 231.818 4.99322C231.662 4.98207 231.495 4.9765 231.316 4.9765C231.149 4.9765 231.004 4.98207 230.881 4.99322C230.179 5.01552 229.644 5.18834 229.276 5.51168C228.908 5.83503 228.724 6.29216 228.724 6.8831ZM224.175 13.5509C224.175 13.4394 224.214 13.3446 224.292 13.2665C224.359 13.1885 224.453 13.1495 224.576 13.1495L225.529 13.1495C225.652 13.1495 225.752 13.1885 225.83 13.2665C225.897 13.3446 225.931 13.4394 225.931 13.5509L225.931 14.0693C225.931 14.2923 225.975 14.4763 226.065 14.6212C226.154 14.7662 226.304 14.9 226.516 15.0226C226.717 15.1453 226.996 15.2791 227.352 15.424L235.731 18.9027C235.821 18.9473 235.893 19.0031 235.949 19.07C236.016 19.1369 236.049 19.2372 236.049 19.371L236.049 20.6421C236.049 20.7313 236.016 20.8093 235.949 20.8762C235.882 20.9543 235.804 20.9933 235.715 20.9933C235.67 20.9933 235.631 20.9877 235.598 20.9766C235.564 20.9766 235.514 20.9598 235.447 20.9264L227.854 17.7487C227.375 17.5592 226.918 17.3529 226.483 17.1299C226.037 16.9181 225.641 16.6784 225.295 16.4108C224.939 16.1543 224.665 15.8533 224.476 15.5076C224.275 15.162 224.175 14.755 224.175 14.2867L224.175 13.5509ZM227.57 15.7083L235.447 12.3132C235.559 12.2686 235.637 12.2463 235.681 12.2463C235.782 12.2575 235.865 12.2965 235.932 12.3634C236.01 12.4303 236.049 12.5139 236.049 12.6143L236.049 13.9522C236.049 14.086 236.016 14.1808 235.949 14.2366C235.882 14.3035 235.809 14.3536 235.731 14.3871L229.343 16.9794L227.57 15.7083ZM227.352 25.1295C227.352 25.0069 227.391 24.9065 227.469 24.8285C227.548 24.7616 227.642 24.7281 227.754 24.7281L234.276 24.7281L234.276 22.002C234.276 21.8794 234.315 21.779 234.393 21.701C234.472 21.6341 234.566 21.6006 234.678 21.6006L235.648 21.6006C235.759 21.6006 235.854 21.6341 235.932 21.701C236.01 21.779 236.049 21.8794 236.049 22.002L236.049 29.595C236.049 29.7176 236.01 29.818 235.932 29.896C235.854 29.9741 235.759 30.0131 235.648 30.0131L234.678 30.0131C234.566 30.0131 234.472 29.9741 234.393 29.896C234.315 29.818 234.276 29.7176 234.276 29.595L234.276 26.8856L227.754 26.8856C227.642 26.8856 227.548 26.8466 227.469 26.7685C227.391 26.6905 227.352 26.5957 227.352 26.4842L227.352 25.1295ZM227.352 31.7403C227.352 31.6288 227.391 31.534 227.469 31.456C227.548 31.3779 227.642 31.3389 227.754 31.3389L235.648 31.3389C235.759 31.3389 235.854 31.3779 235.932 31.456C236.01 31.534 236.049 31.6288 236.049 31.7403L236.049 33.1451C236.049 33.2566 236.01 33.3514 235.932 33.4295C235.854 33.5075 235.759 33.5465 235.648 33.5465L233.29 33.5465L233.29 35.1688C233.29 36.3061 233.022 37.159 232.487 37.7277C231.952 38.2963 231.216 38.5806 230.279 38.5806C229.309 38.5806 228.579 38.274 228.088 37.6608C227.598 37.0587 227.352 36.1834 227.352 35.035L227.352 31.7403ZM228.941 33.5131L228.941 34.9849C228.941 35.5312 229.042 35.9326 229.242 36.189C229.443 36.4566 229.789 36.5904 230.279 36.5904C230.759 36.5904 231.115 36.4622 231.35 36.2057C231.584 35.9605 231.701 35.5535 231.701 34.9849L231.701 33.5131L228.941 33.5131ZM227.352 40.0859C227.352 39.9744 227.391 39.8796 227.469 39.8015C227.548 39.7235 227.642 39.6845 227.754 39.6845L235.648 39.6845C235.759 39.6845 235.854 39.7235 235.932 39.8015C236.01 39.8796 236.049 39.9744 236.049 40.0859L236.049 41.474C236.049 41.5966 236.01 41.6914 235.932 41.7583C235.854 41.8364 235.759 41.8754 235.648 41.8754L227.754 41.8754C227.642 41.8754 227.548 41.8364 227.469 41.7583C227.391 41.6914 227.352 41.5966 227.352 41.474L227.352 40.0859ZM227.352 43.8597C227.352 43.7371 227.391 43.6367 227.469 43.5587C227.548 43.4806 227.648 43.4416 227.771 43.4416L228.807 43.4416C229.053 43.4416 229.187 43.5698 229.209 43.8263C229.231 44.1608 229.387 44.4284 229.677 44.6291C229.967 44.8298 230.413 44.9747 231.015 45.0639C231.628 45.1531 232.42 45.1977 233.39 45.1977L235.648 45.1977C235.759 45.1977 235.854 45.2367 235.932 45.3148C236.01 45.3928 236.049 45.4932 236.049 45.6158L236.049 51.553C236.049 51.6645 236.01 51.7593 235.932 51.8374C235.854 51.9154 235.759 51.9544 235.648 51.9544L227.754 51.9544C227.642 51.9544 227.548 51.9154 227.469 51.8374C227.391 51.7593 227.352 51.6645 227.352 51.553L227.352 50.1649C227.352 50.0423 227.391 49.9419 227.469 49.8639C227.548 49.797 227.642 49.7635 227.754 49.7635L234.276 49.7635L234.276 47.305L233.156 47.305C232.085 47.305 231.177 47.2437 230.43 47.121C229.694 47.0095 229.097 46.8144 228.64 46.5357C228.194 46.2681 227.865 45.9113 227.653 45.4653C227.453 45.0304 227.352 44.4953 227.352 43.8597ZM227.352 54.6059C227.352 54.4944 227.391 54.3997 227.469 54.3216C227.548 54.2436 227.642 54.2045 227.754 54.2045L235.648 54.2045C235.759 54.2045 235.854 54.2436 235.932 54.3216C236.01 54.3997 236.049 54.4944 236.049 54.6059L236.049 55.9773C236.049 56.0888 236.01 56.1836 235.932 56.2617C235.854 56.3397 235.759 56.3787 235.648 56.3787L232.654 56.3787L232.654 57.5829L235.782 59.6233C235.86 59.6679 235.921 59.7237 235.966 59.7906C236.021 59.8686 236.049 59.969 236.049 60.0916L236.049 61.5801C236.049 61.6916 236.021 61.7808 235.966 61.8477C235.91 61.9146 235.837 61.948 235.748 61.948C235.715 61.948 235.676 61.9369 235.631 61.9146C235.598 61.9034 235.564 61.8867 235.531 61.8644L231.868 59.4561L227.871 62.2156C227.804 62.2714 227.732 62.2992 227.653 62.2992C227.564 62.2992 227.492 62.2658 227.436 62.1989C227.38 62.132 227.352 62.0484 227.352 61.948L227.352 60.2588C227.352 60.1473 227.375 60.0526 227.419 59.9745C227.464 59.9076 227.525 59.8463 227.603 59.7906L230.881 57.5829L230.881 56.3787L227.754 56.3787C227.642 56.3787 227.548 56.3397 227.469 56.2617C227.391 56.1836 227.352 56.0888 227.352 55.9773L227.352 54.6059ZM227.185 66.2845C227.185 65.7047 227.297 65.1807 227.52 64.7124C227.754 64.2441 228.06 63.8706 228.44 63.5919C228.83 63.3243 229.265 63.1905 229.744 63.1905C230.525 63.1905 231.143 63.5027 231.6 64.1271C232.069 64.7626 232.381 65.5988 232.537 66.6357L232.872 68.927L233.223 68.927C233.691 68.927 234.053 68.8099 234.31 68.5758C234.566 68.3417 234.695 67.9403 234.695 67.3716C234.695 66.9702 234.611 66.6413 234.444 66.3849C234.288 66.1396 234.076 65.9556 233.808 65.833C233.663 65.7438 233.591 65.6155 233.591 65.4483L233.591 64.1271C233.591 64.0044 233.624 63.9096 233.691 63.8427C233.758 63.787 233.847 63.7591 233.959 63.7591C234.137 63.7703 234.354 63.8427 234.611 63.9765C234.867 64.1103 235.113 64.3222 235.347 64.6121C235.592 64.902 235.798 65.2755 235.966 65.7326C236.133 66.1898 236.216 66.7417 236.216 67.3884C236.216 68.0908 236.127 68.6817 235.949 69.1612C235.782 69.6517 235.553 70.042 235.263 70.3319C234.973 70.6218 234.633 70.8336 234.243 70.9674C233.853 71.1012 233.44 71.1681 233.005 71.1681L227.754 71.1681C227.642 71.1681 227.548 71.1291 227.469 71.051C227.391 70.973 227.352 70.8782 227.352 70.7667L227.352 69.412C227.352 69.2894 227.391 69.189 227.469 69.111C227.548 69.0441 227.642 69.0106 227.754 69.0106L228.406 69.0106C228.194 68.8657 227.994 68.6706 227.804 68.4253C227.626 68.18 227.475 67.8789 227.352 67.5221C227.241 67.1765 227.185 66.764 227.185 66.2845ZM228.774 66.8532C228.774 67.2434 228.858 67.5946 229.025 67.9068C229.192 68.2302 229.449 68.481 229.794 68.6594C230.151 68.849 230.597 68.9437 231.132 68.9437L231.483 68.9437L231.216 67.2713C231.115 66.6134 230.954 66.1229 230.731 65.7995C230.508 65.4762 230.235 65.3145 229.911 65.3145C229.666 65.3145 229.454 65.387 229.276 65.5319C229.108 65.688 228.98 65.8831 228.891 66.1173C228.813 66.3514 228.774 66.5967 228.774 66.8532Z" fill="#4168AB"/>
<path d="M218.022 614.489C218.24 614.707 218.593 614.707 218.811 614.489L222.359 610.941C222.576 610.724 222.576 610.371 222.359 610.153C222.141 609.935 221.788 609.935 221.57 610.153L218.417 613.307L215.263 610.153C215.045 609.935 214.692 609.935 214.475 610.153C214.257 610.371 214.257 610.724 214.475 610.941L218.022 614.489ZM218.811 0.605798C218.593 0.388086 218.24 0.388086 218.022 0.605798L214.475 4.15362C214.257 4.37133 214.257 4.72431 214.475 4.94202C214.692 5.15974 215.045 5.15974 215.263 4.94202L218.417 1.7884L221.57 4.94202C221.788 5.15974 222.141 5.15974 222.359 4.94202C222.576 4.72431 222.576 4.37133 222.359 4.15362L218.811 0.605798ZM217.859 1V3.22136H218.974V1H217.859ZM217.859 7.66408V12.1068H218.974V7.66408H217.859ZM217.859 16.5495V20.9922H218.974V16.5495H217.859ZM217.859 25.4349V29.8777H218.974V25.4349H217.859ZM217.859 34.3204V38.7631H218.974V34.3204H217.859ZM217.859 43.2058V47.6485H218.974V43.2058H217.859ZM217.859 52.0913V56.534H218.974V52.0913H217.859ZM217.859 60.9767V65.4194H218.974V60.9767H217.859ZM217.859 69.8621V74.3048H218.974V69.8621H217.859ZM217.859 78.7476V83.1903H218.974V78.7476H217.859ZM217.859 87.633V92.0757H218.974V87.633H217.859ZM217.859 96.5184V100.961H218.974V96.5184H217.859ZM217.859 105.404V109.847H218.974V105.404H217.859ZM217.859 114.289V118.732H218.974V114.289H217.859ZM217.859 123.175V127.617H218.974V123.175H217.859ZM217.859 132.06V136.503H218.974V132.06H217.859ZM217.859 140.946V145.388H218.974V140.946H217.859ZM217.859 149.831V154.274H218.974V149.831H217.859ZM217.859 158.716V163.159H218.974V158.716H217.859ZM217.859 167.602V172.045H218.974V167.602H217.859ZM217.859 176.487V180.93H218.974V176.487H217.859ZM217.859 185.373V189.816H218.974V185.373H217.859ZM217.859 194.258V198.701H218.974V194.258H217.859ZM217.859 203.144V207.586H218.974V203.144H217.859ZM217.859 212.029V216.472H218.974V212.029H217.859ZM217.859 220.915V225.357H218.974V220.915H217.859ZM217.859 229.8V234.243H218.974V229.8H217.859ZM217.859 238.685V243.128H218.974V238.685H217.859ZM217.859 247.571V252.014H218.974V247.571H217.859ZM217.859 256.456V260.899H218.974L218.974 256.456H217.859ZM217.859 265.342V269.784H218.974V265.342H217.859ZM217.859 274.227V278.67H218.974V274.227H217.859ZM217.859 283.113V287.555H218.974V283.113H217.859ZM217.859 291.998V296.441H218.974V291.998H217.859ZM217.859 300.883V305.326H218.974V300.883H217.859ZM217.859 309.769V314.212H218.974V309.769H217.859ZM217.859 318.654V323.097H218.974V318.654H217.859ZM217.859 327.54V331.983H218.974V327.54H217.859ZM217.859 336.425V340.868H218.974V336.425H217.859ZM217.859 345.311V349.753H218.974V345.311H217.859ZM217.859 354.196V358.639H218.974V354.196H217.859ZM217.859 363.082V367.524H218.974V363.082H217.859ZM217.859 371.967V376.41H218.974V371.967H217.859ZM217.859 380.852V385.295H218.974V380.852H217.859ZM217.859 389.738V394.181H218.974V389.738H217.859ZM217.859 398.623V403.066H218.974V398.623H217.859ZM217.859 407.509V411.951H218.974V407.509H217.859ZM217.859 416.394V420.837H218.974V416.394H217.859ZM217.859 425.28V429.722H218.974V425.28H217.859ZM217.859 434.165V438.608H218.974V434.165H217.859ZM217.859 443.05V447.493H218.974V443.05H217.859ZM217.859 451.936V456.379H218.974V451.936H217.859ZM217.859 460.821V465.264H218.974V460.821H217.859ZM217.859 469.707V474.149H218.974V469.707H217.859ZM217.859 478.592V483.035H218.974V478.592H217.859ZM217.859 487.478V491.92H218.974V487.478H217.859ZM217.859 496.363V500.806H218.974V496.363H217.859ZM217.859 505.249V509.691H218.974V505.249H217.859ZM217.859 514.134V518.577H218.974V514.134H217.859ZM217.859 523.019V527.462H218.974V523.019H217.859ZM217.859 531.905V536.347H218.974V531.905H217.859ZM217.859 540.79V545.233H218.974V540.79H217.859ZM217.859 549.675V554.118H218.974V549.675H217.859ZM217.859 558.561V563.003H218.974V558.561H217.859ZM217.859 567.446V571.889H218.974V567.446H217.859ZM217.859 576.332V580.774H218.974V576.332H217.859ZM217.859 585.217V589.66H218.974V585.217H217.859ZM217.859 594.102V598.545H218.974V594.102H217.859ZM217.859 602.988V607.43H218.974V602.988H217.859ZM217.859 611.873V614.095H218.974V611.873H217.859Z" fill="#9B9B9B"/>
<path d="M32.257 536.847C32.4748 537.065 32.8277 537.065 33.0454 536.847L36.5933 533.299C36.811 533.081 36.811 532.728 36.5933 532.511C36.3756 532.293 36.0226 532.293 35.8049 532.511L32.6512 535.664L29.4976 532.511C29.2799 532.293 28.9269 532.293 28.7092 532.511C28.4915 532.728 28.4915 533.081 28.7092 533.299L32.257 536.847ZM33.0454 128.49C32.8277 128.272 32.4748 128.272 32.257 128.49L28.7092 132.037C28.4915 132.255 28.4915 132.608 28.7092 132.826C28.9269 133.044 29.2799 133.044 29.4976 132.826L32.6512 129.672L35.8049 132.826C36.0226 133.044 36.3756 133.044 36.5933 132.826C36.811 132.608 36.811 132.255 36.5933 132.037L33.0454 128.49ZM32.0938 128.884V131.099H33.2087V128.884H32.0938ZM32.0938 135.529V139.959H33.2087V135.529H32.0938ZM32.0938 144.389V148.819H33.2087V144.389H32.0938ZM32.0938 153.249V157.679H33.2087V153.249H32.0938ZM32.0938 162.11V166.54H33.2087V162.11H32.0938ZM32.0938 170.97V175.4H33.2087V170.97H32.0938ZM32.0938 179.83V184.26H33.2087V179.83H32.0938ZM32.0938 188.69V193.12H33.2087V188.69H32.0938ZM32.0938 197.55V201.98H33.2087V197.55H32.0938ZM32.0938 206.41V210.841H33.2087V206.41H32.0938ZM32.0938 215.271V219.701H33.2087V215.271H32.0938ZM32.0938 224.131V228.561H33.2087V224.131H32.0938ZM32.0938 232.991V237.421H33.2087V232.991H32.0938ZM32.0938 241.851V246.281H33.2087V241.851H32.0938ZM32.0938 250.711V255.142H33.2087V250.711H32.0938ZM32.0938 259.572V264.002H33.2087V259.572H32.0938ZM32.0938 268.432V272.862H33.2087V268.432H32.0938ZM32.0938 277.292V281.722H33.2087V277.292H32.0938ZM32.0938 286.152V290.582H33.2087V286.152H32.0938ZM32.0938 295.012V299.443H33.2087V295.012H32.0938ZM32.0938 303.873V308.303H33.2087V303.873H32.0938ZM32.0938 312.733V317.163H33.2087V312.733H32.0938ZM32.0938 321.593V326.023H33.2087V321.593H32.0938ZM32.0938 330.453V334.883H33.2087V330.453H32.0938ZM32.0938 339.313V343.744H33.2087V339.313H32.0938ZM32.0938 348.174V352.604H33.2087V348.174H32.0938ZM32.0938 357.034V361.464H33.2087V357.034H32.0938ZM32.0938 365.894V370.324H33.2087V365.894H32.0938ZM32.0938 374.754V379.184H33.2087V374.754H32.0938ZM32.0938 383.614V388.045H33.2087V383.614H32.0938ZM32.0938 392.475V396.905H33.2087V392.475H32.0938ZM32.0938 401.335V405.765H33.2087V401.335H32.0938ZM32.0938 410.195V414.625H33.2087V410.195H32.0938ZM32.0938 419.055V423.485H33.2087V419.055H32.0938ZM32.0938 427.915V432.345H33.2087V427.915H32.0938ZM32.0938 436.775V441.206H33.2087V436.775H32.0938ZM32.0938 445.636V450.066H33.2087V445.636H32.0938ZM32.0938 454.496V458.926H33.2087V454.496H32.0938ZM32.0938 463.356V467.786H33.2087V463.356H32.0938ZM32.0938 472.216V476.646H33.2087V472.216H32.0938ZM32.0938 481.076V485.506H33.2087V481.076H32.0938ZM32.0938 489.936V494.367H33.2087V489.936H32.0938ZM32.0938 498.797V503.227H33.2087V498.797H32.0938ZM32.0938 507.657V512.087H33.2087V507.657H32.0938ZM32.0938 516.517V520.947H33.2087V516.517H32.0938ZM32.0938 525.377V529.807H33.2087V525.377H32.0938ZM32.0938 534.237V536.453H33.2087V534.237H32.0938Z" fill="#9B9B9B"/>
<path d="M49.9216 626.549C49.7038 626.767 49.7038 627.12 49.9216 627.338L53.4694 630.886C53.6871 631.103 54.0401 631.103 54.2578 630.886C54.4755 630.668 54.4755 630.315 54.2578 630.097L51.1042 626.944L54.2578 623.79C54.4755 623.572 54.4755 623.219 54.2578 623.002C54.0401 622.784 53.6871 622.784 53.4694 623.002L49.9216 626.549ZM202.823 627.338C203.04 627.12 203.04 626.767 202.823 626.549L199.275 623.002C199.057 622.784 198.704 622.784 198.486 623.002C198.269 623.219 198.269 623.572 198.486 623.79L201.64 626.944L198.486 630.097C198.269 630.315 198.269 630.668 198.486 630.886C198.704 631.103 199.057 631.103 199.275 630.886L202.823 627.338ZM202.428 626.386L200.191 626.386L200.191 627.501L202.428 627.501L202.428 626.386ZM195.717 626.386L191.244 626.386L191.244 627.501L195.717 627.501L195.717 626.386ZM186.77 626.386L182.296 626.386L182.296 627.501L186.77 627.501L186.77 626.386ZM177.822 626.386L173.348 626.386L173.348 627.501L177.822 627.501L177.822 626.386ZM168.874 626.386L164.4 626.386L164.4 627.501L168.874 627.501L168.874 626.386ZM159.926 626.386L155.452 626.386L155.452 627.501L159.926 627.501L159.926 626.386ZM150.979 626.386L146.505 626.386L146.505 627.501L150.979 627.501L150.979 626.386ZM142.031 626.386L137.557 626.386L137.557 627.501L142.031 627.501L142.031 626.386ZM133.083 626.386L128.609 626.386L128.609 627.501L133.083 627.501L133.083 626.386ZM124.135 626.386L119.661 626.386L119.661 627.501L124.135 627.501L124.135 626.386ZM115.187 626.386L110.713 626.386L110.713 627.501L115.187 627.501L115.187 626.386ZM106.24 626.386L101.766 626.386L101.766 627.501L106.24 627.501L106.24 626.386ZM97.2917 626.386L92.8178 626.386L92.8178 627.501L97.2917 627.501L97.2917 626.386ZM88.3439 626.386L83.87 626.386L83.87 627.501L88.3439 627.501L88.3439 626.386ZM79.3961 626.386L74.9222 626.386L74.9222 627.501L79.3961 627.501L79.3961 626.386ZM70.4483 626.386L65.9744 626.386L65.9744 627.501L70.4483 627.501L70.4483 626.386ZM61.5005 626.386L57.0266 626.386L57.0266 627.501L61.5005 627.501L61.5005 626.386ZM52.5527 626.386L50.3158 626.386L50.3158 627.501L52.5527 627.501L52.5527 626.386Z" fill="#9B9B9B"/>
<path d="M51.2301 128.807H201.02V536.375H51.2301V128.807Z" fill="#9ABFD7" fill-opacity="0.38"/>
<path d="M51.2301 536.933H53.4329V535.818H51.2301V536.933ZM57.8385 536.933H62.2441V535.818H57.8385V536.933ZM66.6497 536.933H71.0553V535.818H66.6497V536.933ZM75.4609 536.933H79.8665V535.818H75.4609V536.933ZM84.2721 536.933H88.6777V535.818H84.2721V536.933ZM93.0833 536.933H97.4889V535.818H93.0833V536.933ZM101.894 536.933H106.3V535.818H101.894V536.933ZM110.706 536.933H115.111V535.818H110.706V536.933ZM119.517 536.933H123.922V535.818H119.517V536.933ZM128.328 536.933H132.734V535.818H128.328V536.933ZM137.139 536.933H141.545V535.818H137.139V536.933ZM145.95 536.933H150.356V535.818H145.95V536.933ZM154.762 536.933H159.167V535.818H154.762V536.933ZM163.573 536.933H167.978V535.818H163.573V536.933ZM172.384 536.933H176.79V535.818H172.384V536.933ZM181.195 536.933H185.601V535.818H181.195V536.933ZM190.006 536.933H194.412V535.818H190.006V536.933ZM198.818 536.933H201.02V535.818H198.818V536.933ZM201.02 128.249H198.818V129.364H201.02V128.249ZM194.412 128.249H190.006V129.364H194.412V128.249ZM185.601 128.249H181.195V129.364H185.601V128.249ZM176.79 128.249H172.384V129.364H176.79V128.249ZM167.978 128.249H163.573V129.364H167.978V128.249ZM159.167 128.249H154.762V129.364H159.167V128.249ZM150.356 128.249H145.95V129.364H150.356V128.249ZM141.545 128.249H137.139V129.364H141.545V128.249ZM132.734 128.249H128.328V129.364H132.734V128.249ZM123.922 128.249H119.517V129.364H123.922V128.249ZM115.111 128.249H110.706V129.364H115.111V128.249ZM106.3 128.249H101.894V129.364H106.3V128.249ZM97.4889 128.249H93.0833V129.364H97.4889V128.249ZM88.6777 128.249H84.2721V129.364H88.6777V128.249ZM79.8665 128.249H75.4609V129.364H79.8665V128.249ZM71.0553 128.249H66.6497V129.364H71.0553V128.249ZM62.2441 128.249H57.8385V129.364H62.2441V128.249ZM53.4329 128.249H51.2301V129.364H53.4329V128.249Z" fill="#4168AB"/>
</svg>
