<svg width="90" height="90" viewBox="0 0 90 90" fill="none" xmlns="http://www.w3.org/2000/svg">
<rect width="90" height="90" rx="45" fill="url(#paint0_linear_221_1441)"/>
<path d="M44.4953 38.6642C41.2819 38.6642 38.6596 41.2866 38.6596 44.5C38.6596 47.7134 41.2819 50.3358 44.4953 50.3358C47.7087 50.3358 50.331 47.7134 50.331 44.5C50.331 41.2866 47.7087 38.6642 44.4953 38.6642ZM61.998 44.5C61.998 42.0834 62.0199 39.6886 61.8842 37.2764C61.7485 34.4745 61.1093 31.9878 59.0605 29.9389C57.0073 27.8856 54.525 27.2508 51.7232 27.1151C49.3066 26.9794 46.9119 27.0013 44.4997 27.0013C42.0831 27.0013 39.6884 26.9794 37.2762 27.1151C34.4743 27.2508 31.9877 27.89 29.9389 29.9389C27.8856 31.9922 27.2508 34.4745 27.1151 37.2764C26.9794 39.693 27.0013 42.0877 27.0013 44.5C27.0013 46.9123 26.9794 49.3114 27.1151 51.7236C27.2508 54.5255 27.89 57.0122 29.9389 59.0611C31.9921 61.1143 34.4743 61.7492 37.2762 61.8849C39.6928 62.0206 42.0875 61.9987 44.4997 61.9987C46.9163 61.9987 49.311 62.0206 51.7232 61.8849C54.525 61.7492 57.0116 61.11 59.0605 59.0611C61.1137 57.0078 61.7485 54.5255 61.8842 51.7236C62.0243 49.3114 61.998 46.9166 61.998 44.5ZM44.4953 53.4792C39.5264 53.4792 35.5163 49.469 35.5163 44.5C35.5163 39.531 39.5264 35.5208 44.4953 35.5208C49.4642 35.5208 53.4743 39.531 53.4743 44.5C53.4743 49.469 49.4642 53.4792 44.4953 53.4792ZM53.8421 37.2501C52.6819 37.2501 51.7451 36.3132 51.7451 35.1531C51.7451 33.9929 52.6819 33.056 53.8421 33.056C55.0022 33.056 55.9391 33.9929 55.9391 35.1531C55.9394 35.4285 55.8854 35.7014 55.7801 35.956C55.6749 36.2106 55.5204 36.4419 55.3256 36.6367C55.1308 36.8315 54.8995 36.9859 54.645 37.0912C54.3904 37.1964 54.1175 37.2504 53.8421 37.2501Z" fill="white"/>
<defs>
<linearGradient id="paint0_linear_221_1441" x1="26" y1="74" x2="72" y2="9" gradientUnits="userSpaceOnUse">
<stop stop-color="#FFD878"/>
<stop offset="0.335" stop-color="#E25A5C"/>
<stop offset="0.675" stop-color="#E137B5"/>
<stop offset="1" stop-color="#7978FF"/>
</linearGradient>
</defs>
</svg>
