<svg width="25" height="25" viewBox="0 0 25 25" fill="none" xmlns="http://www.w3.org/2000/svg">
<path d="M12.6575 9.44391C10.8713 9.44391 9.41353 10.9017 9.41353 12.688C9.41353 14.4743 10.8713 15.932 12.6575 15.932C14.4438 15.932 15.9015 14.4743 15.9015 12.688C15.9015 10.9017 14.4438 9.44391 12.6575 9.44391ZM22.387 12.688C22.387 11.3446 22.3992 10.0134 22.3238 8.67245C22.2483 7.11492 21.893 5.73261 20.7541 4.59366C19.6127 3.45228 18.2329 3.0994 16.6754 3.02396C15.332 2.94852 14.0009 2.96068 12.6599 2.96068C11.3166 2.96068 9.98542 2.94852 8.64451 3.02396C7.08701 3.0994 5.70472 3.45471 4.5658 4.59366C3.42444 5.73504 3.07157 7.11492 2.99613 8.67245C2.92068 10.0158 2.93285 11.347 2.93285 12.688C2.93285 14.0289 2.92068 15.3625 2.99613 16.7035C3.07157 18.261 3.42687 19.6433 4.5658 20.7823C5.70716 21.9236 7.08701 22.2765 8.64451 22.352C9.98786 22.4274 11.319 22.4152 12.6599 22.4152C14.0033 22.4152 15.3345 22.4274 16.6754 22.352C18.2329 22.2765 19.6152 21.9212 20.7541 20.7823C21.8955 19.6409 22.2483 18.261 22.3238 16.7035C22.4016 15.3625 22.387 14.0313 22.387 12.688ZM12.6575 17.6794C9.89538 17.6794 7.6662 15.4501 7.6662 12.688C7.6662 9.92577 9.89538 7.69656 12.6575 7.69656C15.4196 7.69656 17.6488 9.92577 17.6488 12.688C17.6488 15.4501 15.4196 17.6794 12.6575 17.6794ZM17.8532 8.65785C17.2083 8.65785 16.6876 8.13705 16.6876 7.49213C16.6876 6.84721 17.2083 6.32641 17.8532 6.32641C18.4982 6.32641 19.0189 6.84721 19.0189 7.49213C19.0191 7.64527 18.9891 7.79694 18.9306 7.93846C18.8721 8.07998 18.7862 8.20856 18.6779 8.31684C18.5697 8.42513 18.4411 8.51099 18.2996 8.5695C18.1581 8.62802 18.0064 8.65804 17.8532 8.65785Z" fill="url(#paint0)"/>
</svg>
