<svg width="90" height="90" viewBox="0 0 90 90" fill="none" xmlns="http://www.w3.org/2000/svg">
<g clip-path="url(#clip0_243_1971)">
<path d="M45 0C33.068 0 21.6141 4.74398 13.1836 13.1801C4.74449 21.6196 0.00241487 33.065 0 45C0 56.9299 4.74609 68.3838 13.1836 76.8199C21.6141 85.256 33.068 90 45 90C56.932 90 68.3859 85.256 76.8164 76.8199C85.2539 68.3838 90 56.9299 90 45C90 33.0701 85.2539 21.6162 76.8164 13.1801C68.3859 4.74398 56.932 0 45 0Z" fill="url(#paint0_linear_243_1971)"/>
<path d="M24.6119 42.7759C34.8144 38.2604 41.616 35.2834 45.0169 33.8449C54.7382 29.7377 56.7557 29.0244 58.0734 29.0002C58.3632 28.9955 59.0083 29.0683 59.4293 29.4141C59.7793 29.7058 59.8777 30.1002 59.9269 30.3771C59.9706 30.6538 60.0308 31.2844 59.9816 31.7766C59.4567 37.3988 57.1767 51.042 56.0176 57.3392C55.531 60.0036 54.5632 60.8969 53.6283 60.9841C51.5943 61.1741 50.0525 59.6197 48.0842 58.3092C45.0059 56.2575 43.2672 54.9809 40.2765 52.9792C36.821 50.6659 39.0627 49.3942 41.031 47.3165C41.545 46.7726 50.5008 38.4976 50.6703 37.7471C50.6922 37.6532 50.7141 37.3032 50.5063 37.1188C50.304 36.9338 50.0033 36.9971 49.7846 37.0471C49.4729 37.1182 44.5576 40.4226 35.0222 46.9598C33.6279 47.9342 32.3649 48.4092 31.2277 48.3842C29.9811 48.357 27.5753 47.6665 25.7874 47.0765C23.6004 46.3526 21.8563 45.9698 22.0094 44.7404C22.0859 44.1004 22.9553 43.4454 24.6119 42.7759Z" fill="white"/>
</g>
<defs>
<linearGradient id="paint0_linear_243_1971" x1="4500" y1="0" x2="4500" y2="9000" gradientUnits="userSpaceOnUse">
<stop stop-color="#2AABEE"/>
<stop offset="1" stop-color="#229ED9"/>
</linearGradient>
<clipPath id="clip0_243_1971">
<rect width="90" height="90" fill="white"/>
</clipPath>
</defs>
</svg>
