<svg width="24" height="25" viewBox="0 0 24 25" fill="none" xmlns="http://www.w3.org/2000/svg">
<path fill-rule="evenodd" clip-rule="evenodd" d="M12.5 22.0273C18.0228 22.0273 22.5 17.5502 22.5 12.0273C22.5 6.5045 18.0228 2.02734 12.5 2.02734C6.97715 2.02734 2.5 6.5045 2.5 12.0273C2.5 17.5502 6.97715 22.0273 12.5 22.0273ZM12.5078 9.33452C11.6016 9.7391 9.78936 10.5764 7.07094 11.8464C6.62952 12.0347 6.39789 12.2189 6.37749 12.3989C6.34162 12.703 6.69668 12.8229 7.17913 12.9858C7.2453 13.0082 7.31387 13.0313 7.38416 13.0559C7.86053 13.2218 8.50153 13.4161 8.83369 13.4237C9.13671 13.4307 9.47323 13.2972 9.84472 13.0231C12.3854 11.1845 13.6951 10.2551 13.7781 10.2351C13.8364 10.2211 13.9165 10.2033 13.9704 10.2553C14.0258 10.3072 14.02 10.4056 14.0141 10.432C13.9798 10.5926 12.5903 11.9782 11.8673 12.6992C11.64 12.9258 11.4785 13.0868 11.4458 13.1234C11.3726 13.2049 11.298 13.2821 11.2263 13.3562C10.7842 13.8133 10.4525 14.1562 11.2447 14.716C11.6289 14.9874 11.9355 15.2114 12.2419 15.4353C12.5712 15.6758 12.9002 15.9162 13.3251 16.2151C13.4343 16.2919 13.5386 16.3716 13.6402 16.4493C14.0264 16.7445 14.3732 17.0097 14.8023 16.9674C15.0514 16.9429 15.3092 16.6917 15.4389 15.9423C15.7477 14.1712 16.3552 10.334 16.4951 8.75281C16.5082 8.61437 16.4922 8.43703 16.4805 8.35922C16.4674 8.28133 16.4412 8.17039 16.348 8.08836C16.2358 7.9911 16.0639 7.97063 15.9867 7.97196C15.6356 7.97875 15.098 8.17938 12.5078 9.33452Z" fill="#229ED9"/>
</svg>
