<svg width="24" height="25" viewBox="0 0 24 25" fill="none" xmlns="http://www.w3.org/2000/svg">
<path d="M12.0002 2.02734C17.5228 2.02734 21.9994 6.50399 21.9994 12.0266C21.9994 17.5491 17.5228 22.0258 12.0002 22.0258C10.2331 22.0288 8.49706 21.5612 6.9706 20.6709L2.00499 22.0258L3.35689 17.0582C2.46591 15.5312 1.9979 13.7944 2.00099 12.0266C2.00099 6.50399 6.47764 2.02734 12.0002 2.02734ZM8.59247 7.32693L8.39249 7.33493C8.26319 7.34383 8.13686 7.37779 8.02052 7.43492C7.9121 7.49642 7.8131 7.5732 7.72654 7.6629C7.60655 7.77589 7.53856 7.87388 7.46556 7.96887C7.09571 8.44974 6.89658 9.0401 6.89961 9.64674C6.90161 10.1367 7.0296 10.6137 7.22958 11.0596C7.63855 11.9616 8.31149 12.9165 9.19942 13.8014C9.41341 14.0144 9.62339 14.2284 9.84937 14.4274C10.9527 15.3987 12.2675 16.0992 13.6891 16.4732L14.257 16.5602C14.442 16.5702 14.627 16.5562 14.813 16.5472C15.1041 16.5318 15.3884 16.453 15.6459 16.3162C15.7768 16.2486 15.9045 16.1752 16.0289 16.0962C16.0289 16.0962 16.0712 16.0676 16.1539 16.0062C16.2889 15.9062 16.3719 15.8353 16.4839 15.7183C16.5678 15.6316 16.6378 15.5309 16.6938 15.4163C16.7718 15.2533 16.8498 14.9423 16.8818 14.6833C16.9058 14.4854 16.8988 14.3774 16.8958 14.3104C16.8918 14.2034 16.8028 14.0924 16.7058 14.0454L16.1239 13.7844C16.1239 13.7844 15.2539 13.4054 14.722 13.1635C14.6663 13.1392 14.6067 13.1253 14.546 13.1225C14.4776 13.1153 14.4084 13.1229 14.3432 13.1449C14.278 13.1668 14.2183 13.2024 14.168 13.2495C14.163 13.2475 14.096 13.3045 13.3731 14.1804C13.3316 14.2361 13.2744 14.2783 13.2089 14.3014C13.1434 14.3246 13.0724 14.3277 13.0051 14.3104C12.94 14.293 12.8761 14.271 12.8141 14.2444C12.6901 14.1924 12.6472 14.1724 12.5622 14.1364C11.9881 13.8863 11.4567 13.5479 10.9873 13.1335C10.8613 13.0235 10.7443 12.9035 10.6243 12.7875C10.231 12.4107 9.88812 11.9845 9.60439 11.5196L9.5454 11.4246C9.50366 11.3604 9.46944 11.2916 9.44341 11.2196C9.40541 11.0726 9.5044 10.9546 9.5044 10.9546C9.5044 10.9546 9.74738 10.6887 9.86037 10.5447C9.97036 10.4047 10.0634 10.2687 10.1234 10.1717C10.2413 9.98172 10.2783 9.78673 10.2163 9.63574C9.93637 8.9518 9.64706 8.27152 9.34841 7.5949C9.28942 7.46092 9.11443 7.36492 8.95544 7.34592C8.90145 7.33926 8.84745 7.33393 8.79346 7.32993C8.6592 7.32222 8.52457 7.32356 8.39049 7.33393L8.59247 7.32693Z" fill="#5ACF68"/>
</svg>
