<svg width="90" height="90" viewBox="0 0 90 90" fill="none" xmlns="http://www.w3.org/2000/svg">
<path d="M45 0C69.8535 0 90 20.1465 90 45C90 69.8534 69.8535 89.9999 45 89.9999C37.0474 90.0136 29.2347 87.909 22.3651 83.9024L0.0180695 89.9999L6.10207 67.644C2.09238 60.7721 -0.0138673 52.956 6.8709e-05 45C6.8709e-05 20.1465 20.1466 0 45 0ZM29.664 23.85L28.764 23.886C28.1822 23.9261 27.6136 24.0789 27.09 24.336C26.6021 24.6128 26.1566 24.9583 25.7671 25.362C25.2271 25.8705 24.921 26.3115 24.5926 26.739C22.9281 28.903 22.0319 31.5599 22.0456 34.29C22.0546 36.495 22.6306 38.6415 23.5306 40.6485C25.371 44.7075 28.3995 49.005 32.3955 52.9875C33.3585 53.946 34.3035 54.909 35.3205 55.8045C40.286 60.1758 46.2028 63.3283 52.6005 65.0115L55.1565 65.403C55.989 65.448 56.8215 65.3849 57.6585 65.3445C58.9689 65.2754 60.2482 64.9206 61.407 64.305C61.9958 64.0005 62.5709 63.6702 63.1305 63.315C63.1305 63.315 63.321 63.186 63.693 62.91C64.3005 62.4599 64.674 62.1405 65.178 61.614C65.556 61.224 65.871 60.771 66.123 60.255C66.474 59.5215 66.825 58.122 66.969 56.9565C67.077 56.0655 67.0455 55.5795 67.032 55.278C67.014 54.7965 66.6135 54.297 66.177 54.0855L63.558 52.911C63.558 52.911 59.643 51.2055 57.249 50.1165C56.9984 50.0074 56.73 49.9448 56.457 49.932C56.1491 49.8997 55.8379 49.9341 55.5444 50.0327C55.2509 50.1313 54.982 50.2919 54.756 50.5035C54.7335 50.4945 54.432 50.751 51.1785 54.693C50.9918 54.9439 50.7346 55.1335 50.4396 55.2377C50.1447 55.3419 49.8255 55.3559 49.5225 55.278C49.2293 55.1998 48.942 55.1005 48.663 54.981C48.105 54.747 47.9115 54.657 47.529 54.495C44.9455 53.3695 42.554 51.8466 40.4415 49.9815C39.8745 49.4865 39.348 48.9465 38.808 48.4245C37.0378 46.7289 35.4949 44.8109 34.218 42.7185L33.9525 42.291C33.7647 42.0021 33.6107 41.6925 33.4935 41.3685C33.3225 40.707 33.768 40.176 33.768 40.176C33.768 40.176 34.8615 38.979 35.37 38.331C35.865 37.701 36.2835 37.089 36.5535 36.6525C37.0845 35.7975 37.251 34.92 36.972 34.2405C35.712 31.1625 34.41 28.101 33.066 25.056C32.8005 24.453 32.013 24.021 31.2975 23.9355C31.0545 23.9055 30.8115 23.8815 30.5685 23.8635C29.9643 23.8288 29.3585 23.8348 28.755 23.8815L29.664 23.85Z" fill="#5ACF68"/>
<path d="M29.664 23.85L28.764 23.886C28.1822 23.9261 27.6136 24.0789 27.09 24.336C26.6021 24.6128 26.1566 24.9583 25.7671 25.362C25.2271 25.8705 24.921 26.3115 24.5926 26.739C22.9281 28.903 22.0319 31.5599 22.0456 34.29C22.0546 36.495 22.6306 38.6415 23.5306 40.6485C25.371 44.7075 28.3995 49.005 32.3955 52.9875C33.3585 53.946 34.3035 54.909 35.3205 55.8045C40.286 60.1758 46.2028 63.3283 52.6005 65.0115L55.1565 65.403C55.989 65.448 56.8215 65.3849 57.6585 65.3445C58.9689 65.2754 60.2482 64.9206 61.407 64.305C61.9958 64.0005 62.5709 63.6702 63.1305 63.315C63.1305 63.315 63.321 63.186 63.693 62.91C64.3005 62.4599 64.674 62.1405 65.178 61.614C65.556 61.224 65.871 60.771 66.123 60.255C66.474 59.5215 66.825 58.122 66.969 56.9565C67.077 56.0655 67.0455 55.5795 67.032 55.278C67.014 54.7965 66.6135 54.297 66.177 54.0855L63.558 52.911C63.558 52.911 59.643 51.2055 57.249 50.1165C56.9984 50.0074 56.73 49.9448 56.457 49.932C56.1491 49.8997 55.8379 49.9341 55.5444 50.0327C55.2509 50.1313 54.982 50.2919 54.756 50.5035C54.7335 50.4945 54.432 50.751 51.1785 54.693C50.9918 54.9439 50.7346 55.1335 50.4396 55.2377C50.1447 55.3419 49.8255 55.3559 49.5225 55.278C49.2293 55.1998 48.942 55.1005 48.663 54.981C48.105 54.747 47.9115 54.657 47.529 54.495C44.9455 53.3695 42.554 51.8466 40.4415 49.9815C39.8745 49.4865 39.348 48.9465 38.808 48.4245C37.0378 46.7289 35.4949 44.8109 34.218 42.7185L33.9525 42.291C33.7647 42.0021 33.6107 41.6925 33.4935 41.3685C33.3225 40.707 33.768 40.176 33.768 40.176C33.768 40.176 34.8615 38.979 35.37 38.331C35.865 37.701 36.2835 37.089 36.5535 36.6525C37.0845 35.7975 37.251 34.92 36.972 34.2405C35.712 31.1625 34.41 28.101 33.066 25.056C32.8005 24.453 32.013 24.021 31.2975 23.9355C31.0545 23.9055 30.8115 23.8815 30.5685 23.8635C29.9643 23.8288 29.3585 23.8348 28.755 23.8815L29.664 23.85Z" fill="#5ACF68"/>
<path d="M63.4001 55.6632C63.4001 56.1337 63.313 56.7479 63.1387 57.5059C62.9645 58.2638 62.7815 58.8606 62.5899 59.2962C62.224 60.1674 61.1611 61.0909 59.4012 62.0667C57.7634 62.9553 56.1429 63.3996 54.5399 63.3996C54.0694 63.3996 53.6077 63.3691 53.1546 63.3081C52.7016 63.2471 52.2007 63.1382 51.6518 62.9814C51.1029 62.8246 50.6935 62.6983 50.4234 62.6024C50.1533 62.5066 49.6698 62.328 48.9728 62.0667C48.2759 61.8053 47.849 61.6485 47.6921 61.5962C45.9846 60.9864 44.4599 60.2632 43.1183 59.4269C40.9054 58.0504 38.6054 56.1685 36.2183 53.7814C33.8312 51.3943 31.9493 49.0943 30.5728 46.8814C29.7365 45.5398 29.0134 44.0151 28.4035 42.3076C28.3512 42.1507 28.1944 41.7239 27.9331 41.0269C27.6717 40.3299 27.4931 39.8464 27.3973 39.5763C27.3014 39.3062 27.1751 38.8968 27.0183 38.3479C26.8615 37.799 26.7526 37.2981 26.6916 36.8451C26.6306 36.392 26.6001 35.9303 26.6001 35.4598C26.6001 33.8568 27.0444 32.2364 27.9331 30.5985C28.9088 28.8386 29.8323 27.7757 30.7035 27.4098C31.1391 27.2182 31.7359 27.0352 32.4938 26.861C33.2518 26.6867 33.866 26.5996 34.3365 26.5996C34.5804 26.5996 34.7634 26.6257 34.8853 26.678C35.199 26.7826 35.6607 27.4447 36.2706 28.6644C36.4622 28.9954 36.7236 29.4659 37.0546 30.0757C37.3857 30.6856 37.6906 31.2388 37.9694 31.7354C38.2482 32.232 38.5183 32.6981 38.7796 33.1337C38.8319 33.2034 38.9844 33.4212 39.237 33.7871C39.4897 34.153 39.677 34.4623 39.799 34.7149C39.9209 34.9676 39.9819 35.2159 39.9819 35.4598C39.9819 35.8083 39.7336 36.2439 39.237 36.7667C38.7404 37.2894 38.2003 37.7685 37.6166 38.2042C37.0329 38.6398 36.4927 39.1015 35.9961 39.5894C35.4995 40.0773 35.2512 40.478 35.2512 40.7917C35.2512 40.9485 35.2948 41.1445 35.3819 41.3797C35.469 41.615 35.5431 41.7935 35.6041 41.9155C35.6651 42.0375 35.787 42.2466 35.97 42.5428C36.1529 42.839 36.2531 43.0045 36.2706 43.0394C37.5948 45.4265 39.1107 47.4739 40.8183 49.1814C42.5259 50.889 44.5732 52.4049 46.9603 53.7292C46.9952 53.7466 47.1607 53.8468 47.4569 54.0297C47.7531 54.2127 47.9622 54.3346 48.0842 54.3956C48.2062 54.4566 48.3848 54.5307 48.62 54.6178C48.8552 54.7049 49.0512 54.7485 49.2081 54.7485C49.5217 54.7485 49.9224 54.5002 50.4103 54.0036C50.8982 53.507 51.3599 52.9668 51.7956 52.3831C52.2312 51.7994 52.7103 51.2593 53.2331 50.7627C53.7558 50.2661 54.1914 50.0178 54.5399 50.0178C54.7838 50.0178 55.0321 50.0788 55.2848 50.2007C55.5374 50.3227 55.8467 50.51 56.2126 50.7627C56.5785 51.0153 56.7963 51.1678 56.866 51.2201C57.3016 51.4814 57.7677 51.7515 58.2643 52.0303C58.7609 52.3091 59.3141 52.614 59.924 52.9451C60.5338 53.2761 61.0043 53.5375 61.3353 53.7292C62.555 54.339 63.2171 54.8007 63.3217 55.1144C63.374 55.2364 63.4001 55.4193 63.4001 55.6632Z" fill="white"/>
</svg>
