<svg width="90" height="90" viewBox="0 0 90 90" fill="none" xmlns="http://www.w3.org/2000/svg">
<rect width="90" height="90" rx="45" fill="#FF0000"/>
<g clip-path="url(#clip0_198_550)">
<path fill-rule="evenodd" clip-rule="evenodd" d="M44.9999 31.667C46.4249 31.667 47.8866 31.7037 49.3033 31.7637L50.9766 31.8437L52.5783 31.9387L54.0783 32.0403L55.4482 32.147C56.9352 32.2601 58.3346 32.8944 59.3998 33.938C60.4651 34.9816 61.1279 36.3677 61.2716 37.852L61.3382 38.5603L61.4633 40.077C61.5799 41.6487 61.6666 43.362 61.6666 45.0003C61.6666 46.6387 61.5799 48.352 61.4633 49.9237L61.3382 51.4403L61.2716 52.1487C61.1279 53.6333 60.4648 55.0195 59.3992 56.0632C58.3336 57.1068 56.9339 57.7409 55.4466 57.8537L54.0799 57.9587L52.5799 58.062L50.9766 58.157L49.3033 58.237C47.8696 58.2991 46.4349 58.3313 44.9999 58.3337C43.565 58.3313 42.1302 58.2991 40.6966 58.237L39.0233 58.157L37.4216 58.062L35.9216 57.9587L34.5516 57.8537C33.0646 57.7405 31.6653 57.1063 30.6 56.0627C29.5347 55.019 28.8719 53.633 28.7283 52.1487L28.6616 51.4403L28.5366 49.9237C28.4096 48.2855 28.3418 46.6433 28.3333 45.0003C28.3333 43.362 28.4199 41.6487 28.5366 40.077L28.6616 38.5603L28.7283 37.852C28.8718 36.3679 29.5344 34.9821 30.5994 33.9385C31.6643 32.8949 33.0632 32.2605 34.5499 32.147L35.9183 32.0403L37.4183 31.9387L39.0216 31.8437L40.6949 31.7637C42.1291 31.7015 43.5644 31.6693 44.9999 31.667ZM41.6666 40.9587V49.042C41.6666 49.812 42.4999 50.292 43.1666 49.9087L50.1666 45.867C50.3189 45.7793 50.4454 45.653 50.5334 45.5009C50.6214 45.3487 50.6677 45.1761 50.6677 45.0003C50.6677 44.8246 50.6214 44.6519 50.5334 44.4998C50.4454 44.3476 50.3189 44.2213 50.1666 44.1337L43.1666 40.0937C43.0145 40.0059 42.842 39.9597 42.6664 39.9597C42.4908 39.9597 42.3183 40.006 42.1663 40.0938C42.0143 40.1817 41.888 40.308 41.8003 40.4601C41.7126 40.6122 41.6665 40.7847 41.6666 40.9603V40.9587Z" fill="white"/>
</g>
<defs>
<clipPath id="clip0_198_550">
<rect width="40" height="40" fill="white" transform="translate(25 25)"/>
</clipPath>
</defs>
</svg>
