<svg width="24" height="25" viewBox="0 0 24 25" fill="none" xmlns="http://www.w3.org/2000/svg">
<path fill-rule="evenodd" clip-rule="evenodd" d="M12.2174 4.375C13.1026 4.375 14.0106 4.39778 14.8907 4.43505L15.9302 4.48475L16.9252 4.54376L17.857 4.60692L18.7081 4.67318C19.6318 4.74348 20.5011 5.13748 21.1629 5.78579C21.8246 6.4341 22.2364 7.29513 22.3256 8.21723L22.367 8.65726L22.4447 9.59944C22.5172 10.5758 22.571 11.6401 22.571 12.6579C22.571 13.6757 22.5172 14.74 22.4447 15.7164L22.367 16.6585L22.3256 17.0986C22.2364 18.0208 21.8245 18.882 21.1625 19.5303C20.5005 20.1787 19.631 20.5726 18.707 20.6426L17.858 20.7078L16.9262 20.772L15.9302 20.831L14.8907 20.8807C14.0001 20.9193 13.1088 20.9393 12.2174 20.9408C11.326 20.9393 10.4347 20.9193 9.54409 20.8807L8.50458 20.831L7.5096 20.772L6.57777 20.7078L5.72671 20.6426C4.80297 20.5723 3.93367 20.1783 3.27191 19.53C2.61015 18.8817 2.19839 18.0207 2.10915 17.0986L2.06774 16.6585L1.99008 15.7164C1.91122 14.6987 1.86909 13.6786 1.86377 12.6579C1.86377 11.6401 1.91761 10.5758 1.99008 9.59944L2.06774 8.65726L2.10915 8.21723C2.19835 7.29529 2.60997 6.43439 3.27151 5.7861C3.93306 5.13781 4.80212 4.74371 5.72567 4.67318L6.5757 4.60692L7.50753 4.54376L8.50355 4.48475L9.54305 4.43505C10.434 4.39646 11.3256 4.37644 12.2174 4.375ZM10.1467 10.1471V15.1687C10.1467 15.647 10.6643 15.9452 11.0785 15.707L15.427 13.1963C15.5216 13.1418 15.6002 13.0634 15.6549 12.9689C15.7095 12.8743 15.7383 12.7671 15.7383 12.6579C15.7383 12.5487 15.7095 12.4415 15.6549 12.3469C15.6002 12.2524 15.5216 12.174 15.427 12.1195L11.0785 9.60979C10.984 9.55525 10.8769 9.52655 10.7678 9.52657C10.6587 9.52658 10.5516 9.55532 10.4571 9.60989C10.3627 9.66446 10.2842 9.74294 10.2297 9.83743C10.1753 9.93193 10.1466 10.0391 10.1467 10.1482V10.1471Z" fill="#FF0000"/>
</svg>
