<svg width="21" height="22" viewBox="0 0 21 22" fill="none" xmlns="http://www.w3.org/2000/svg">
<path d="M20.4346 13.717L18.8355 12.3499C18.9111 11.886 18.9502 11.4124 18.9502 10.9387C18.9502 10.4651 18.9111 9.99145 18.8355 9.52759L20.4346 8.1604C20.5552 8.05714 20.6415 7.91962 20.6821 7.76611C20.7226 7.6126 20.7155 7.45038 20.6616 7.30102L20.6397 7.23755C20.1994 6.00714 19.5402 4.86654 18.6939 3.87085L18.6499 3.81958C18.5472 3.69886 18.4104 3.61208 18.2574 3.57067C18.1044 3.52927 17.9425 3.53519 17.793 3.58765L15.8081 4.29321C15.0757 3.69263 14.2578 3.21899 13.374 2.88696L12.9907 0.811767C12.9618 0.655621 12.8861 0.511969 12.7736 0.399897C12.661 0.287825 12.5171 0.212638 12.3608 0.184326L12.2949 0.172119C11.023 -0.057373 9.68506 -0.057373 8.41309 0.172119L8.34717 0.184326C8.19092 0.212638 8.04697 0.287825 7.93446 0.399897C7.82195 0.511969 7.74621 0.655621 7.71729 0.811767L7.33155 2.89673C6.45481 3.22883 5.63835 3.70221 4.91456 4.2981L2.91504 3.58765C2.76555 3.53477 2.6035 3.52864 2.45043 3.57007C2.29737 3.6115 2.16053 3.69852 2.05811 3.81958L2.01417 3.87085C1.16882 4.86725 0.509712 6.00766 0.0683643 7.23755L0.0463916 7.30102C-0.0634717 7.6062 0.0268604 7.948 0.273442 8.1604L1.89209 9.54224C1.81641 10.0012 1.77979 10.47 1.77979 10.9363C1.77979 11.405 1.81641 11.8738 1.89209 12.3303L0.273442 13.7122C0.152827 13.8154 0.0665002 13.9529 0.0259424 14.1064C-0.0146154 14.26 -0.00748291 14.4222 0.0463916 14.5715L0.0683643 14.635C0.510259 15.8655 1.16456 17.0007 2.01417 18.0017L2.05811 18.053C2.16078 18.1737 2.29762 18.2605 2.4506 18.3019C2.60357 18.3433 2.7655 18.3374 2.91504 18.2849L4.91456 17.5745C5.6421 18.1726 6.45508 18.6462 7.33155 18.9758L7.71729 21.0608C7.74621 21.2169 7.82195 21.3606 7.93446 21.4727C8.04697 21.5847 8.19092 21.6599 8.34717 21.6882L8.41309 21.7004C9.69675 21.9312 11.0113 21.9312 12.2949 21.7004L12.3608 21.6882C12.5171 21.6599 12.661 21.5847 12.7736 21.4727C12.8861 21.3606 12.9618 21.2169 12.9907 21.0608L13.374 18.9856C14.2575 18.6544 15.0799 18.1793 15.8081 17.5793L17.793 18.2849C17.9425 18.3378 18.1045 18.3439 18.2576 18.3025C18.4107 18.2611 18.5475 18.174 18.6499 18.053L18.6939 18.0017C19.5435 16.9983 20.1978 15.8655 20.6397 14.635L20.6616 14.5715C20.7715 14.2712 20.6812 13.9294 20.4346 13.717V13.717ZM17.1021 9.81567C17.1631 10.1843 17.1948 10.5627 17.1948 10.9412C17.1948 11.3196 17.1631 11.698 17.1021 12.0666L16.9409 13.0457L18.7647 14.6057C18.4882 15.2426 18.1392 15.8456 17.7246 16.4026L15.459 15.5994L14.6924 16.2292C14.1089 16.7078 13.4595 17.0837 12.7564 17.3474L11.8262 17.6965L11.3892 20.0647C10.6996 20.1428 10.0035 20.1428 9.31397 20.0647L8.87696 17.6916L7.95411 17.3376C7.25831 17.074 6.61133 16.698 6.03272 16.2219L5.26612 15.5896L2.98584 16.4001C2.57081 15.8411 2.22413 15.238 1.94581 14.6033L3.78907 13.0286L3.63038 12.052C3.57178 11.6882 3.54004 11.3123 3.54004 10.9412C3.54004 10.5676 3.56934 10.1941 3.63038 9.83032L3.78907 8.85376L1.94581 7.27905C2.22168 6.64185 2.57081 6.04126 2.98584 5.48218L5.26612 6.29272L6.03272 5.6604C6.61133 5.18433 7.25831 4.80835 7.95411 4.54468L8.8794 4.19556L9.31641 1.82251C10.0024 1.74438 10.7031 1.74438 11.3916 1.82251L11.8286 4.19067L12.7588 4.53979C13.4595 4.80347 14.1113 5.17944 14.6948 5.65796L15.4614 6.28784L17.7271 5.48462C18.1421 6.0437 18.4888 6.64673 18.7671 7.28149L16.9434 8.84155L17.1021 9.81567ZM10.3565 6.40015C7.9834 6.40015 6.05958 8.32397 6.05958 10.697C6.05958 13.0701 7.9834 14.9939 10.3565 14.9939C12.7295 14.9939 14.6533 13.0701 14.6533 10.697C14.6533 8.32397 12.7295 6.40015 10.3565 6.40015ZM12.29 12.6306C12.0364 12.885 11.735 13.0866 11.4032 13.2241C11.0714 13.3615 10.7156 13.432 10.3565 13.4314C9.62647 13.4314 8.94043 13.1458 8.42286 12.6306C8.16852 12.377 7.96684 12.0756 7.82941 11.7438C7.69198 11.4119 7.62152 11.0562 7.62208 10.697C7.62208 9.96704 7.90772 9.281 8.42286 8.76343C8.94043 8.24585 9.62647 7.96265 10.3565 7.96265C11.0864 7.96265 11.7725 8.24585 12.29 8.76343C12.5444 9.01704 12.7461 9.31843 12.8835 9.65027C13.0209 9.98211 13.0914 10.3378 13.0908 10.697C13.0908 11.427 12.8052 12.113 12.29 12.6306Z" fill="white"/>
</svg>
