<?xml version="1.0" standalone="no"?>
<!DOCTYPE svg PUBLIC "-//W3C//DTD SVG 20010904//EN"
 "http://www.w3.org/TR/2001/REC-SVG-20010904/DTD/svg10.dtd">
<svg version="1.0" xmlns="http://www.w3.org/2000/svg"
 width="120.000000pt" height="120.000000pt" viewBox="0 0 120.000000 120.000000"
 preserveAspectRatio="xMidYMid meet">
<metadata>
Created by potrace 1.11, written by Peter Selinger 2001-2013
</metadata>
<g transform="translate(0.000000,120.000000) scale(0.100000,-0.100000)"
fill="#000000" stroke="none">
<path d="M352 1095 c-18 -25 -32 -50 -32 -54 0 -5 -6 -11 -12 -14 -10 -4 -10
-7 0 -18 11 -11 78 -14 354 -15 l340 0 29 40 c16 23 32 46 37 51 18 22 20 43
6 49 -9 3 -167 6 -353 6 l-337 0 -32 -45z"/>
<path d="M177 893 c-21 -32 -36 -64 -35 -73 3 -13 46 -15 346 -15 188 -1 346
2 350 5 16 10 70 96 74 115 3 19 -6 20 -347 22 l-350 3 -38 -57z"/>
<path d="M107 762 c-21 -3 -36 -17 -67 -65 -23 -37 -35 -66 -30 -71 7 -7 303
-12 351 -7 3 1 14 17 25 36 10 19 21 35 25 35 9 0 33 60 26 66 -6 6 -284 11
-330 6z"/>
<path d="M103 523 c-15 -27 -31 -51 -36 -54 -5 -4 -7 -15 -5 -25 3 -18 16 -19
228 -20 215 0 226 0 243 20 32 35 69 105 62 116 -4 6 -89 10 -235 10 l-229 0
-28 -47z"/>
<path d="M175 366 c-28 -31 -76 -117 -70 -126 4 -6 88 -10 234 -10 l228 0 41
62 c29 45 38 66 31 74 -14 17 -450 17 -464 0z"/>
<path d="M160 118 c-27 -41 -37 -65 -30 -72 6 -6 144 -10 370 -10 349 -1 362
0 379 19 33 38 72 106 66 115 -4 6 -149 10 -376 10 l-369 0 -40 -62z"/>
</g>
</svg>
