<svg width="24" height="24" viewBox="0 0 24 24" fill="none" xmlns="http://www.w3.org/2000/svg">
<g clip-path="url(#clip0_444_9115)">
<path d="M21.5551 4C21.4642 3.99064 21.3726 3.99064 21.2817 4H2.61505C2.49541 4.00185 2.37657 4.01979 2.26172 4.05334L11.8951 13.6467L21.5551 4Z" fill="#3F654E"/>
<path d="M22.5385 4.92664L12.8318 14.5933C12.582 14.8416 12.2441 14.981 11.8918 14.981C11.5396 14.981 11.2016 14.8416 10.9518 14.5933L1.33182 4.99997C1.30225 5.10866 1.28657 5.22067 1.28516 5.3333V18.6666C1.28516 19.0203 1.42563 19.3594 1.67568 19.6094C1.92573 19.8595 2.26487 20 2.61849 20H21.2852C21.6388 20 21.9779 19.8595 22.228 19.6094C22.478 19.3594 22.6185 19.0203 22.6185 18.6666V5.3333C22.6132 5.19441 22.5862 5.05719 22.5385 4.92664ZM3.53182 18.6666H2.60516V17.7133L7.45182 12.9066L8.39182 13.8466L3.53182 18.6666ZM21.2718 18.6666H20.3385L15.4785 13.8466L16.4185 12.9066L21.2652 17.7133L21.2718 18.6666Z" fill="#3F654E"/>
</g>
<defs>
<clipPath id="clip0_444_9115">
<rect width="24" height="24" fill="white"/>
</clipPath>
</defs>
</svg>
