<svg width="24" height="24" viewBox="0 0 24 24" fill="none" xmlns="http://www.w3.org/2000/svg">
<path d="M2 4.22222C2 3.63285 2.23413 3.06762 2.65087 2.65087C3.06762 2.23413 3.63285 2 4.22222 2H7.86667C8.09977 2.00018 8.32692 2.07366 8.51595 2.21006C8.70499 2.34645 8.84634 2.53884 8.92 2.76L10.5844 7.75222C10.6688 8.00593 10.6588 8.28154 10.5564 8.52849C10.4539 8.77544 10.2658 8.97717 10.0267 9.09667L7.51889 10.3522C8.74813 13.0728 10.9272 15.2519 13.6478 16.4811L14.9033 13.9733C15.0228 13.7342 15.2246 13.5461 15.4715 13.4436C15.7185 13.3412 15.9941 13.3312 16.2478 13.4156L21.24 15.08C21.4613 15.1537 21.6539 15.2952 21.7903 15.4845C21.9267 15.6738 22.0001 15.9012 22 16.1344V19.7778C22 20.3671 21.7659 20.9324 21.3491 21.3491C20.9324 21.7659 20.3671 22 19.7778 22H18.6667C9.46222 22 2 14.5378 2 5.33333V4.22222Z" fill="#3F654E"/>
</svg>
