<svg width="24" height="24" viewBox="0 0 24 24" fill="none" xmlns="http://www.w3.org/2000/svg">
<path fill-rule="evenodd" clip-rule="evenodd" d="M5.63604 3.38604C7.32386 1.69821 9.61305 0.75 12 0.75C14.3869 0.75 16.6761 1.69821 18.364 3.38604C20.0518 5.07386 21 7.36305 21 9.74999C21 11.8785 20.5477 13.2712 19.3125 14.8125L12 23.25L4.6875 14.8125C3.45225 13.2712 3 11.8785 3 9.74999C3 7.36305 3.94821 5.07386 5.63604 3.38604ZM15.375 9.75C15.375 11.614 13.864 13.125 12 13.125C10.136 13.125 8.625 11.614 8.625 9.75C8.625 7.88604 10.136 6.375 12 6.375C13.864 6.375 15.375 7.88604 15.375 9.75Z" fill="#3F654E"/>
</svg>
