<svg width="63" height="63" viewBox="0 0 63 63" fill="none" xmlns="http://www.w3.org/2000/svg">
<g clip-path="url(#clip0_457_10293)">
<path fill-rule="evenodd" clip-rule="evenodd" d="M47.6694 22.5211C47.9038 21.7501 47.6694 21.1824 46.5467 21.1824H42.8398C41.8965 21.1824 41.4615 21.6724 41.2257 22.2133C41.2257 22.2133 39.3405 26.7265 36.6701 29.6582C35.8058 30.5083 35.4132 30.778 34.9416 30.778C34.7058 30.778 34.3513 30.5083 34.3513 29.7358V22.5211C34.3513 21.5947 34.0915 21.1824 33.3063 21.1824H27.4769C26.888 21.1824 26.5336 21.6117 26.5336 22.0198C26.5336 22.8967 27.8695 23.1001 28.0065 25.5685V30.9319C28.0065 32.1083 27.7904 32.3215 27.3187 32.3215C26.0619 32.3215 23.0046 27.7871 21.1899 22.5988C20.8383 21.5891 20.4825 21.1824 19.5349 21.1824H15.8251C14.766 21.1824 14.5542 21.6724 14.5542 22.2133C14.5542 23.1763 15.811 27.9608 20.4076 34.2886C23.472 38.6099 27.7862 40.9526 31.7162 40.9526C34.0731 40.9526 34.364 40.433 34.364 39.5362V36.2699C34.364 35.2291 34.5871 35.0216 35.3342 35.0216C35.8849 35.0216 36.8268 35.2927 39.027 37.3756C41.5406 39.8455 41.9544 40.9526 43.3694 40.9526H47.0763C48.1354 40.9526 48.6664 40.433 48.3614 39.4049C48.0253 38.3825 46.8249 36.8983 45.2334 35.1374C44.3692 34.1347 43.0728 33.0544 42.6788 32.5136C42.1295 31.8202 42.2862 31.5109 42.6788 30.8938C42.6788 30.8938 47.1977 24.6436 47.668 22.5211H47.6694Z" fill="#DA5063"/>
</g>
<defs>
<clipPath id="clip0_457_10293">
<rect width="33.8919" height="33.8919" fill="white" transform="translate(14.5542 14.1216)"/>
</clipPath>
</defs>
</svg>
