<svg width="63" height="63" viewBox="0 0 63 63" fill="none" xmlns="http://www.w3.org/2000/svg">
<g clip-path="url(#clip0_457_10298)">
<path d="M38.4227 34.2446C38.0217 34.0416 36.0687 33.0886 35.7037 32.9526C35.3387 32.8226 35.0737 32.7546 34.8077 33.1556C34.5477 33.5466 33.7817 34.4416 33.5477 34.7026C33.3137 34.9636 33.0837 34.9836 32.6887 34.8066C32.2877 34.6036 31.0067 34.1866 29.4857 32.8226C28.2977 31.7656 27.5067 30.4636 27.2717 30.0626C27.0377 29.6666 27.2457 29.4426 27.4437 29.2446C27.6257 29.0626 27.8447 28.7866 28.0477 28.5466C28.2407 28.3066 28.3027 28.1456 28.4437 27.8856C28.5737 27.6046 28.5067 27.3856 28.4077 27.1876C28.3087 26.9896 27.5117 25.0266 27.1787 24.2446C26.8607 23.4686 26.5277 23.5676 26.2827 23.5676C26.0537 23.5466 25.7877 23.5466 25.5227 23.5466C25.2577 23.5466 24.8247 23.6456 24.4597 24.0256C24.0947 24.4266 23.0637 25.3846 23.0637 27.3226C23.0637 29.2656 24.4907 31.1456 24.6887 31.4266C24.8917 31.6866 27.4957 35.6866 31.4907 37.4056C32.4437 37.8066 33.1837 38.0466 33.7617 38.2446C34.7147 38.5466 35.5847 38.5046 36.2717 38.4056C37.0317 38.2806 38.6257 37.4416 38.9597 36.5046C39.2987 35.5616 39.2987 34.7806 39.1997 34.6036C39.1007 34.4216 38.8407 34.3226 38.4397 34.1456L38.4227 34.2446ZM31.1777 44.0676H31.1567C28.7917 44.0676 26.4537 43.4266 24.4117 42.2286L23.9327 41.9426L18.9327 43.2446L20.2767 38.3796L19.9537 37.8796C18.6332 35.78 17.9326 33.35 17.9327 30.8696C17.9327 23.6096 23.8757 17.6876 31.1877 17.6876C34.7297 17.6876 38.0527 19.0676 40.5527 21.5676C41.786 22.7862 42.7643 24.2382 43.4304 25.8389C44.0966 27.4396 44.4373 29.1569 44.4327 30.8906C44.4227 38.1456 38.4847 44.0676 31.1827 44.0676H31.1777ZM42.4537 19.6666C39.4117 16.7286 35.4117 15.0676 31.1567 15.0676C22.3807 15.0676 15.2347 22.1826 15.2297 30.9266C15.2297 33.7186 15.9587 36.4426 17.3547 38.8536L15.0947 47.0676L23.5427 44.8646C25.883 46.1264 28.499 46.7901 31.1577 46.7966H31.1627C39.9437 46.7966 47.0897 39.6816 47.0947 30.9316C47.0947 26.6976 45.4437 22.7126 42.4337 19.7176L42.4537 19.6666Z" fill="#DA5063"/>
</g>
<defs>
<clipPath id="clip0_457_10298">
<rect width="32" height="32" fill="white" transform="translate(15.0947 15.0676)"/>
</clipPath>
</defs>
</svg>
