<svg width="22" height="14" viewBox="0 0 22 14" fill="none" xmlns="http://www.w3.org/2000/svg">
<path d="M10.9981 0C12.3365 0 13.6931 1.26 13.6931 3.675C13.6698 4.95477 13.1914 6.18896 12.3365 7.175V8.12817C12.4013 8.4 12.9146 9.14317 14.3067 9.68683C15.7 10.2282 15.9298 10.5618 16.2598 11.3925C16.415 11.9338 16.4957 12.4938 16.4981 13.055C16.4981 13.055 16.1229 14 11.8598 14H10.1365C5.85626 14 5.49814 13.055 5.49814 13.055C5.49814 12.488 5.57881 11.9233 5.73648 11.375C6.06648 10.5793 6.27792 10.2107 7.68959 9.66817C9.10126 9.12567 9.59626 8.3825 9.65981 8.11067V7.14933C8.80493 6.16324 8.32655 4.92908 8.30314 3.64933C8.30314 1.24133 9.62314 0 10.9981 0ZM4.58148 13.0457C4.57398 12.367 4.67622 11.6914 4.88459 11.0425C5.06687 10.5099 5.38648 10.0296 5.81405 9.64573C6.24161 9.26186 6.76341 8.98674 7.33148 8.84567L7.50626 8.75C7.36575 8.62931 7.25583 8.47971 7.18481 8.3125V7.53317C7.54659 7.1715 7.8387 6.7515 8.04648 6.29183C7.63651 5.47055 7.41166 4.57627 7.38648 3.66683C7.38648 3.2375 7.43414 2.80933 7.52459 2.38933C7.10659 1.9915 6.54559 1.76283 5.95648 1.75C4.70981 1.75 3.49126 2.7475 3.49126 4.73433C3.52508 5.78945 3.96549 6.79557 4.72814 7.56V8.33817C4.67314 8.54817 4.20626 9.16067 2.89481 9.59817C1.58459 10.0357 1.40981 10.3425 1.10792 10.99C0.971034 11.4333 0.906256 11.893 0.914811 12.355C0.914811 12.355 1.21792 13.0457 4.58148 13.1157V13.0457ZM20.8615 10.99C20.5596 10.3425 20.3665 10.0357 19.0281 9.59817C17.6898 9.16067 17.2865 8.54817 17.1948 8.33817V7.56C17.9577 6.79527 18.3982 5.78869 18.4317 4.73317C18.505 2.77317 17.2681 1.75 16.0398 1.75C15.7463 1.74929 15.4555 1.80467 15.1848 1.91287C14.914 2.02106 14.6686 2.17989 14.4631 2.38C14.556 2.80583 14.6061 3.23983 14.6098 3.675C14.5847 4.58444 14.3598 5.47872 13.9498 6.3C14.1576 6.75967 14.4497 7.18083 14.8115 7.5425V8.32183C14.7408 8.48893 14.6313 8.63852 14.4913 8.75933L14.6465 8.82933C15.218 8.96753 15.7437 9.24123 16.1749 9.62505C16.606 10.0089 16.9287 10.4904 17.1129 11.025C17.3219 11.6795 17.4246 12.362 17.4148 13.0457V13.125C20.7698 13.055 21.0815 12.3643 21.0815 12.3643C21.0815 11.8977 21.0081 11.4345 20.8615 10.99Z" fill="#DA5063"/>
</svg>
